<svg width="52" height="50" viewBox="0 0 52 50" fill="none" xmlns="http://www.w3.org/2000/svg">
<path d="M25 49C38.2548 49 49 38.2548 49 25C49 11.7452 38.2548 1 25 1C11.7452 1 1 11.7452 1 25C1 38.2548 11.7452 49 25 49Z" fill="white" stroke="#232323" stroke-miterlimit="10"/>
<path d="M3.9835 36.5643C9.31683 41.2904 15.7855 36.1683 15.7855 30.8613C15.7855 24.9208 13.0396 19.4554 18.0297 17.792C24.3663 15.6798 22.9934 25.9769 28.0627 25.9769C33.5545 25.9769 29.6469 16.4719 33.6073 14.0957C38.5182 11.165 40.736 15.1518 43.6931 10.0825C43.6931 10.0825 36.9076 1.02637 25.0264 1.02637C13.1452 1.02637 1 10.7953 1 25.0528C1 31.4158 3.9835 36.5643 3.9835 36.5643Z" fill="#FBFBFB" stroke="#232323"/>
<path d="M48.0229 19.7986C49.9228 24.0768 50.9769 25.6021 51.7689 29.6153C52.3234 32.4404 50.2935 34.746 48.0229 33.7691L46.2275 33.2375" fill="white"/>
<path d="M48.0229 19.7986C49.9228 24.0768 50.9769 25.6021 51.7689 29.6153C52.3234 32.4404 50.2935 34.746 48.0229 33.7691L46.2275 33.2375" stroke="#232323" stroke-miterlimit="10"/>
<path d="M44.036 39.6006C44.036 39.6006 39.0195 41.4488 33.2109 37.7524C33.2109 37.7524 35.5872 43.561 40.9469 42.7953" stroke="#232323" stroke-miterlimit="10" stroke-linejoin="bevel"/>
<path d="M44.4325 26.8747C46.9843 26.8747 49.0529 24.8061 49.0529 22.2543C49.0529 19.7024 46.9843 17.6338 44.4325 17.6338C41.8807 17.6338 39.812 19.7024 39.812 22.2543C39.812 24.8061 41.8807 26.8747 44.4325 26.8747Z" stroke="#232323" stroke-miterlimit="10"/>
<mask id="mask0" mask-type="alpha" maskUnits="userSpaceOnUse" x="37" y="15" width="15" height="14">
<path d="M46.4421 18.2804C48.7226 19.3578 49.6979 22.08 48.6205 24.3605C47.5431 26.641 44.8209 27.6163 42.5404 26.5389C40.2599 25.4615 39.2846 22.7393 40.362 20.4588C41.4394 18.1782 44.1616 17.203 46.4421 18.2804Z" fill="#FBFBFB" stroke="#232323" stroke-width="1.35294" stroke-miterlimit="10"/>
</mask>
<g mask="url(#mask0)">
<path d="M48.4834 15.1654L55.667 18.7878L48.6729 32.6577L41.4893 29.0352L48.4834 15.1654Z" fill="#232323" stroke="#232323" stroke-width="1.35294"/>
</g>
</svg>
