<svg width="50" height="50" viewBox="0 0 50 50" fill="none" xmlns="http://www.w3.org/2000/svg">
<path d="M25 49C38.2548 49 49 38.2548 49 25C49 11.7452 38.2548 1 25 1C11.7452 1 1 11.7452 1 25C1 38.2548 11.7452 49 25 49Z" fill="white" stroke="#FBFBFB" stroke-miterlimit="10"/>
<mask id="mask0" mask-type="alpha" maskUnits="userSpaceOnUse" x="0" y="0" width="50" height="50">
<path d="M25 49C38.2548 49 49 38.2548 49 25C49 11.7452 38.2548 1 25 1C11.7452 1 1 11.7452 1 25C1 38.2548 11.7452 49 25 49Z" fill="white" stroke="#232323" stroke-miterlimit="10"/>
</mask>
<g mask="url(#mask0)">
<path d="M23.5 15C23.5 19.1421 20.1421 22.5 16 22.5C11.8579 22.5 8.5 19.1421 8.5 15C8.5 10.8579 11.8579 7.5 16 7.5C20.1421 7.5 23.5 10.8579 23.5 15Z" stroke="#232323" stroke-miterlimit="10"/>
<path d="M42.5 34C42.5 38.1421 39.1421 41.5 35 41.5C30.8579 41.5 27.5 38.1421 27.5 34C27.5 29.8579 30.8579 26.5 35 26.5C39.1421 26.5 42.5 29.8579 42.5 34Z" stroke="#232323" stroke-miterlimit="10"/>
<path d="M16.2409 36.5863C20.2877 32.5371 31.8964 20.922 36.0385 16.7855C36.8209 16.0042 36.8196 14.7366 36.0377 13.9548C35.2587 13.1757 33.9956 13.1757 33.2165 13.9548L13.4137 33.7576C12.6328 34.5385 12.6328 35.8046 13.4137 36.5855C14.1948 37.3667 15.4601 37.3676 16.2409 36.5863Z" stroke="#232323"/>
</g>
<path d="M25 49C38.2548 49 49 38.2548 49 25C49 11.7452 38.2548 1 25 1C11.7452 1 1 11.7452 1 25C1 38.2548 11.7452 49 25 49Z" stroke="#232323" stroke-miterlimit="10"/>
<mask id="mask1" mask-type="alpha" maskUnits="userSpaceOnUse" x="8" y="7" width="17" height="16">
<path fill-rule="evenodd" clip-rule="evenodd" d="M8.00003 14.9619C7.98772 19.3713 11.5595 22.9562 15.9777 22.9683C20.3961 22.9808 23.9877 19.416 24 15.0066C24.0125 10.5969 20.4407 7.01229 16.0223 7.00023C16.0146 7.00023 16.0074 7 15.9998 7C11.5923 7.00046 8.01234 10.5601 8.00003 14.9619Z" fill="white"/>
</mask>
<g mask="url(#mask1)">
<path fill-rule="evenodd" clip-rule="evenodd" d="M15.6729 28.7392L1.60059 28.7L1.6763 1.57324L15.7484 1.61242L15.6729 28.7392Z" fill="#1D1D1B"/>
</g>
<path d="M23.5 15C23.5 19.1421 20.1421 22.5 16 22.5C11.8579 22.5 8.5 19.1421 8.5 15C8.5 10.8579 11.8579 7.5 16 7.5C20.1421 7.5 23.5 10.8579 23.5 15Z" stroke="#232323" stroke-miterlimit="10"/>
<mask id="mask2" mask-type="alpha" maskUnits="userSpaceOnUse" x="27" y="26" width="17" height="16">
<path fill-rule="evenodd" clip-rule="evenodd" d="M27 33.9619C26.9877 38.3713 30.5595 41.9562 34.9777 41.9683C39.3961 41.9808 42.9877 38.416 43 34.0066C43.0125 29.5969 39.4407 26.0123 35.0223 26.0002C35.0146 26.0002 35.0074 26 34.9998 26C30.5923 26.0005 27.0123 29.5601 27 33.9619Z" fill="white"/>
</mask>
<g mask="url(#mask2)">
<path fill-rule="evenodd" clip-rule="evenodd" d="M34.6729 47.7392L20.6006 47.7L20.6763 20.5732L34.7484 20.6124L34.6729 47.7392Z" fill="#1D1D1B"/>
</g>
<path d="M42.5 34C42.5 38.1421 39.1421 41.5 35 41.5C30.8579 41.5 27.5 38.1421 27.5 34C27.5 29.8579 30.8579 26.5 35 26.5C39.1421 26.5 42.5 29.8579 42.5 34Z" stroke="#232323" stroke-miterlimit="10"/>
</svg>
