<svg width="1568" height="981" viewBox="0 0 1568 981" fill="none" xmlns="http://www.w3.org/2000/svg">
<path d="M92.5772 87.1585C180.707 22.6165 227.2 3.66902 361.809 6.01864C526.532 8.89388 540.066 40.4406 726.317 77.3222C912.568 114.204 1107.8 14.1765 1261.71 24.4596C1415.62 34.7428 1502.52 71.7905 1537.7 154.773C1572.89 237.756 1537.7 341.593 1520.49 431.336C1503.28 521.078 1593.91 641.311 1537.7 769.156C1481.5 897 1380.5 904.656 1285.07 915.207C1189.64 925.759 1098.5 915.207 905.808 872.067C713.115 828.926 471.038 848.616 254.855 915.207C183.709 937.122 91.8877 985.783 46.4762 928.003C1.06465 870.223 52.0078 733.147 108.559 619.431C165.11 505.714 140.523 470.676 61.8426 369.867C-16.8373 269.059 4.44764 151.7 92.5772 87.1585Z" fill="#1E1E1E"/>
</svg>
