<svg width="202" height="482" viewBox="0 0 202 482" fill="none" xmlns="http://www.w3.org/2000/svg">
<path fill-rule="evenodd" clip-rule="evenodd" d="M154.897 260.464L118.322 276.991L104.167 245.665L141.151 228.952C154.081 223.109 162.385 226.78 167.028 237.054C171.135 246.144 167.081 254.958 154.897 260.464ZM108.245 170.54C125.688 162.658 132.907 171.798 135.749 178.086C138.59 184.374 137.104 196.669 123.088 203.003L91.3657 217.338L76.6667 184.809L108.245 170.54ZM140.686 209.231C158.889 195.643 160.497 175.799 154.655 162.872C144.682 140.801 117.02 132.898 91.511 144.425L82.7038 124.935L64.8089 133.021L73.6161 152.511L64.0286 156.844L55.2214 137.354L37.3265 145.44L46.1337 164.93L19.9743 176.751L32.6118 204.718L58.7712 192.897L100.426 285.078L74.4877 296.799L87.2881 325.126L113.226 313.405L121.877 332.548L139.772 324.462L131.121 305.318L140.855 300.92L149.562 320.187L167.458 312.1L158.751 292.833C194.736 276.572 201.359 251.081 190.829 227.779C182.305 208.915 159.857 202.675 140.686 209.231Z" fill="#232323"/>
<path fill-rule="evenodd" clip-rule="evenodd" d="M109.854 101.356C102.311 90.165 88.3728 85.2296 77.8041 84.1736C64.6572 82.8598 52.702 86.0885 52.233 90.2282C51.6197 95.64 63.8246 95.3027 70.5601 94.8932C53.6578 101.63 37.761 113.464 42.2922 119.541C45.4371 123.758 52.3261 118.563 59.2721 113.652C63.9536 110.342 73.6668 102.591 73.6668 102.591C73.6668 102.591 55.381 120.762 51.1224 124.844C46.8635 128.927 38.1673 137.048 43.0901 141.046C48.0126 145.045 56.5708 137.336 61.064 132.941C64.8628 129.227 78.5346 108.763 78.5346 108.763C78.5346 108.763 69.1081 121.237 64.0537 136.273C58.1849 153.731 61.0775 168.885 69.259 166.426C76.7921 164.162 72.7458 144.476 78.3378 132.637C82.9239 122.928 91.4313 118.822 97.4041 122.495C103.773 126.412 102.259 137.184 94.9626 144.645C89.632 150.096 80.1751 150.035 78.9576 155.017C77.7397 159.998 91.8292 164.607 103.997 151.512C117.324 137.17 120.581 117.268 109.854 101.356Z" fill="white" stroke="#1D1D1B"/>
<path fill-rule="evenodd" clip-rule="evenodd" d="M126.022 125.379L95.2652 77.6869C95.2652 77.6869 149.139 42.9427 159.737 36.1076C177.843 24.4314 203.957 27.5978 218.197 49.6774C242.546 87.4335 253.865 104.984 259.418 113.595C269.243 128.83 267.582 149.523 251.023 160.202C234.463 170.882 214.927 163.859 204.248 147.299C193.568 130.739 183.816 115.618 178.69 107.669C173.564 99.7206 167.09 98.8934 159.583 103.735C152.959 108.007 126.022 125.379 126.022 125.379Z" fill="#232323"/>
<path d="M126.022 125.379C126.022 125.379 137.667 109.094 126.583 91.9079C115.065 74.0474 95.265 77.6872 95.265 77.6872" stroke="#F9F9F9"/>
<path d="M146.381 112.249C146.381 112.249 155.865 97.3587 144.78 80.172C133.262 62.3115 116.972 63.6878 116.972 63.6878" stroke="#F9F9F9"/>
<path fill-rule="evenodd" clip-rule="evenodd" d="M120.598 70.5625C119.494 68.8506 117.211 68.3577 115.499 69.4619C113.787 70.5658 113.295 72.8488 114.399 74.5606C115.503 76.2727 117.786 76.7654 119.497 75.6614C121.21 74.5573 121.702 72.2743 120.598 70.5625Z" fill="#F9F9F9"/>
<path fill-rule="evenodd" clip-rule="evenodd" d="M134.523 345.971C122.224 343.009 113.324 332.383 108.935 323.446C103.476 312.328 102.397 300.77 105.879 299.002C110.432 296.691 114.133 307.522 115.979 313.572C116.361 296.52 121.55 278.681 128.371 280.671C133.105 282.052 130.798 289.805 128.759 297.514C127.385 302.71 123.758 313.78 123.758 313.78C123.758 313.78 133.73 291.768 135.921 286.69C138.113 281.612 142.398 271.315 147.522 274.329C152.646 277.343 148.677 287.385 146.289 292.771C144.27 297.324 130.773 316.035 130.773 316.035C130.773 316.035 138.643 303.67 150.194 294.306C163.606 283.434 177.864 281.012 178.384 289.004C178.862 296.362 160.246 299.255 151.679 308.043C144.653 315.251 143.832 324.068 149.014 328.112C154.54 332.424 163.506 327.565 167.67 318.713C170.712 312.246 167.562 303.959 171.539 301.259C175.515 298.558 184.178 309.424 176.66 324.4C168.427 340.803 152.013 350.181 134.523 345.971Z" fill="white" stroke="#1D1D1B"/>
<path fill-rule="evenodd" clip-rule="evenodd" d="M160.919 352.304L108.956 340.907C108.956 340.907 96.0814 399.606 93.5484 411.153C89.2218 430.88 100.555 452.781 124.612 458.058C165.75 467.08 184.872 471.275 194.254 473.333C210.854 476.973 228.485 468.738 232.443 450.695C236.4 432.652 223.834 417.793 205.791 413.836C187.748 409.878 171.272 406.264 162.612 404.365C153.951 402.465 151.105 397.05 152.899 388.871C154.482 381.654 160.919 352.304 160.919 352.304Z" fill="#232323"/>
<path d="M160.919 352.304C160.919 352.304 150.429 367.866 131.703 363.758C112.243 359.49 108.956 340.907 108.956 340.907" stroke="#F9F9F9"/>
<path d="M156.054 374.487C156.054 374.487 146.081 387.693 127.355 383.586C107.895 379.317 103.769 364.558 103.769 364.558" stroke="#F9F9F9"/>
<path fill-rule="evenodd" clip-rule="evenodd" d="M110.994 365.491C109.129 365.082 107.949 363.238 108.358 361.373C108.767 359.508 110.611 358.327 112.476 358.737C114.341 359.146 115.522 360.99 115.112 362.855C114.703 364.72 112.859 365.901 110.994 365.491Z" fill="#F9F9F9"/>
</svg>
