<svg width="586" height="484" viewBox="0 0 586 484" fill="none" xmlns="http://www.w3.org/2000/svg">
<path fill-rule="evenodd" clip-rule="evenodd" d="M296.186 363.723L229.477 338.475L250.976 281.477L318.434 307.008C342.016 315.933 347.852 330.958 340.801 349.653C334.563 366.191 318.41 372.134 296.186 363.723ZM350.473 192.355C382.291 204.398 379.902 224.91 375.586 236.353C371.27 247.795 353.978 261.324 328.412 251.647L270.548 229.746L292.873 170.554L350.473 192.355ZM342.704 281.668C382.662 287.526 409.595 264.683 418.474 241.141C433.632 200.947 408.752 156.268 362.19 138.643L375.576 103.149L342.912 90.785L329.526 126.279L312.026 119.655L325.412 84.1607L292.748 71.7967L279.362 107.291L231.613 89.2166L212.405 140.147L260.155 158.222L196.844 326.096L149.498 308.175L130.043 359.762L177.388 377.684L164.24 412.546L196.904 424.91L210.052 390.048L227.82 396.773L214.587 431.862L247.252 444.227L260.485 409.138C326.169 434.001 366.5 410.384 382.504 367.948C395.46 333.595 375.052 297.555 342.704 281.668Z" fill="#232323"/>
<path fill-rule="evenodd" clip-rule="evenodd" d="M420.105 230.319C429.856 245.64 428.453 265.487 424.076 279.093C418.63 296.018 408.222 309.031 402.863 307.385C395.857 305.233 402.832 290.357 406.958 282.268C389.563 299.499 366.419 312.75 361.358 303.894C357.846 297.748 367.957 292.041 377.749 286.112C384.348 282.115 399.131 274.298 399.131 274.298C399.131 274.298 366.886 287.091 359.561 290.15C352.235 293.21 337.543 299.573 335.256 291.351C332.969 283.13 347.664 278.681 355.5 275.5C362.125 272.81 394.133 264.976 394.133 264.976C394.133 264.976 375 269.5 352.412 268.055C332.536 266.783 310.581 254.199 318.012 245.427C324.853 237.351 346.965 252.923 364.575 252.387C379.017 251.947 388.655 243.659 387.334 234.316C385.926 224.354 371.822 220.433 358.697 225.424C349.107 229.07 344.099 240.769 337.299 239.594C330.499 238.419 332.386 218.56 355.081 210.587C379.937 201.855 406.239 208.533 420.105 230.319Z" fill="white" stroke="#1D1D1B"/>
<path fill-rule="evenodd" clip-rule="evenodd" d="M399.158 197.462L441.463 261.038C441.463 261.038 513.281 213.25 527.409 203.849C551.545 187.789 561.674 153.87 542.088 124.436C508.597 74.1048 493.029 50.7088 485.391 39.2296C471.877 18.9203 445.456 9.8476 423.381 24.5366C401.306 39.2258 399.47 67.1008 414.159 89.1763C428.848 111.251 442.262 131.41 449.312 142.006C456.363 152.602 453.905 161.033 443.897 167.692C435.067 173.567 399.158 197.462 399.158 197.462Z" fill="#232323"/>
<path d="M399.158 197.461C399.158 197.461 425.506 191.848 440.751 214.759C456.594 238.568 441.462 261.038 441.462 261.038" stroke="#F9F9F9"/>
<path d="M426.298 179.402C426.298 179.402 449.764 175.706 465.009 198.618C480.852 222.427 470.399 241.784 470.399 241.784" stroke="#F9F9F9"/>
<path fill-rule="evenodd" clip-rule="evenodd" d="M463.867 233.615C465.386 235.897 464.767 238.978 462.485 240.497C460.203 242.015 457.122 241.396 455.603 239.114C454.084 236.832 454.704 233.751 456.986 232.232C459.268 230.714 462.349 231.333 463.867 233.615Z" fill="#F9F9F9"/>
<path fill-rule="evenodd" clip-rule="evenodd" d="M145.219 309.497C132.397 321.529 128.951 340.483 129.794 354.295C130.841 371.477 137.483 386.181 142.904 385.922C149.992 385.584 147.017 369.957 145.088 361.38C157.272 381.716 175.802 399.697 182.673 392.604C187.442 387.681 179.326 379.903 171.564 371.992C166.333 366.66 154.342 355.782 154.342 355.782C154.342 355.782 181.518 375.516 187.656 380.143C193.794 384.771 206.048 394.264 210.166 387.101C214.283 379.937 201.087 371.864 194.5 367C188.5 363 161.266 348.236 161.266 348.236C161.266 348.236 179.5 358.12 200 363C218.5 367.404 242.224 358.171 237.358 348.161C232.878 338.943 208.402 348.246 192.012 343.519C178.571 339.642 171.519 329.555 174.999 321.109C178.71 312.102 192.88 311.807 203.994 319.637C212.114 325.358 214.005 337.534 220.665 338.062C227.326 338.592 230.32 319.511 210.945 306.588C189.724 292.434 163.451 292.388 145.219 309.497Z" fill="white" stroke="#1D1D1B"/>
<path fill-rule="evenodd" clip-rule="evenodd" d="M172.749 283.702L117.816 333.189C117.816 333.189 61.9144 271.134 50.9173 258.927C32.1309 238.072 30.7664 203.827 56.1986 180.917C99.6877 141.74 119.903 123.529 129.821 114.594C147.369 98.7859 174.329 96.6139 191.512 115.688C208.694 134.762 203.729 161.349 184.655 178.532C165.581 195.715 148.163 211.405 139.008 219.653C129.852 227.901 130.136 236.399 137.926 245.046C144.798 252.675 172.749 283.702 172.749 283.702Z" fill="#232323"/>
<path d="M172.749 283.702C172.749 283.702 149.381 272.116 129.585 289.949C109.012 308.482 117.816 333.189 117.816 333.189" stroke="#F9F9F9"/>
<path d="M151.624 260.252C151.624 260.252 130.5 251.156 110.703 268.989C90.1306 287.522 95.2921 308.186 95.2921 308.186" stroke="#F9F9F9"/>
<path fill-rule="evenodd" clip-rule="evenodd" d="M103.379 302.091C101.407 303.867 101.248 306.906 103.025 308.878C104.801 310.85 107.84 311.008 109.811 309.232C111.783 307.456 111.942 304.417 110.165 302.445C108.389 300.473 105.35 300.315 103.379 302.091Z" fill="#F9F9F9"/>
</svg>
