<svg width="152" height="47" viewBox="0 0 152 47" fill="none" xmlns="http://www.w3.org/2000/svg">
<path fill-rule="evenodd" clip-rule="evenodd" d="M74.4137 20.8812C74.8171 21.1506 75.4221 21.3527 76.0271 21.3527C76.9682 21.3527 77.5059 20.8812 77.5059 20.1402C77.5059 19.4666 77.1026 19.1298 76.1615 18.7257C75.0187 18.3215 74.2793 17.7153 74.2793 16.7049C74.2793 15.6272 75.2204 14.8188 76.5648 14.8188C77.3043 14.8188 77.7748 14.9536 78.1109 15.1556L77.842 15.8966C77.6404 15.7619 77.1698 15.5598 76.4976 15.5598C75.5565 15.5598 75.1532 16.166 75.1532 16.6376C75.1532 17.3111 75.5565 17.6479 76.5648 17.9847C77.7748 18.4563 78.3126 18.9951 78.3126 20.0729C78.3126 21.1506 77.5059 22.0937 75.8926 22.0937C75.2204 22.0937 74.481 21.8916 74.0776 21.6221L74.4137 20.8812Z" fill="black"/>
<path d="M80.1952 19.6013C80.1952 20.8138 81.0018 21.3526 81.9429 21.3526C82.6151 21.3526 83.0185 21.2179 83.3546 21.0832L83.489 21.7568C83.1529 21.8915 82.6151 22.0936 81.8085 22.0936C80.2624 22.0936 79.3213 21.0832 79.3213 19.5339C79.3213 17.9847 80.2624 16.7722 81.674 16.7722C83.2874 16.7722 83.7579 18.2541 83.7579 19.1298C83.7579 19.3319 83.7579 19.4666 83.7579 19.6013H80.1952ZM82.884 18.9951C82.884 18.3888 82.6151 17.5132 81.6068 17.5132C80.6657 17.5132 80.2624 18.3888 80.1952 18.9951H82.884Z" fill="black"/>
<path fill-rule="evenodd" clip-rule="evenodd" d="M88.5305 21.8247C88.2616 21.9594 87.7239 22.0941 87.0516 22.0941C85.5056 22.0941 84.5645 21.0837 84.5645 19.5345C84.5645 17.9852 85.64 16.8401 87.2533 16.8401C87.7911 16.8401 88.2616 16.9748 88.5305 17.1095L88.3288 17.7831C88.1272 17.6484 87.7911 17.5137 87.2533 17.5137C86.1105 17.5137 85.4383 18.3894 85.4383 19.4671C85.4383 20.6122 86.1778 21.3532 87.1861 21.3532C87.7239 21.3532 88.06 21.2184 88.3288 21.0837L88.5305 21.8247Z" fill="black"/>
<path fill-rule="evenodd" clip-rule="evenodd" d="M93.7745 20.6122C93.7745 21.1511 93.7745 21.6226 93.8417 21.9594H93.035L92.9678 21.1511C92.7662 21.5552 92.1612 22.0941 91.2873 22.0941C90.4806 22.0941 89.5396 21.6226 89.5396 19.8713V16.9074H90.4806V19.6692C90.4806 20.6122 90.8168 21.2858 91.6234 21.2858C92.2284 21.2858 92.6989 20.8816 92.8334 20.4101C92.9006 20.2754 92.9006 20.1407 92.9006 19.9386V16.8401H93.8417V20.6122" fill="black"/>
<path fill-rule="evenodd" clip-rule="evenodd" d="M95.3202 18.5238C95.3202 17.9176 95.3202 17.4461 95.2529 16.9746H96.0596L96.1268 17.985C96.3285 17.3114 96.9335 16.9072 97.5385 16.9072C97.6057 16.9072 97.7401 16.9072 97.8074 16.9072V17.7829C97.6729 17.7829 97.6057 17.7829 97.4712 17.7829C96.799 17.7829 96.3957 18.2544 96.2613 18.928C96.2613 19.0627 96.2613 19.1974 96.2613 19.3995V22.0939H95.3202V18.5238Z" fill="black"/>
<path d="M99.292 16.0313C98.9152 16.0313 98.6138 15.7619 98.6138 15.4251C98.6138 15.0883 98.9152 14.8188 99.292 14.8188C99.6688 14.8188 99.9702 15.0883 99.9702 15.4251C99.9702 15.7619 99.7441 16.0313 99.292 16.0313ZM99.8195 22.0263H98.8399V16.9743H99.8949V22.0263H99.8195Z" fill="black"/>
<path fill-rule="evenodd" clip-rule="evenodd" d="M102.311 15.7622V16.9747H103.655V17.6483H102.311V20.41C102.311 21.0162 102.513 21.4204 102.983 21.4204C103.252 21.4204 103.386 21.4204 103.521 21.353L103.588 22.0266C103.386 22.094 103.118 22.1613 102.781 22.1613C102.378 22.1613 102.042 22.0266 101.773 21.7572C101.504 21.4877 101.437 21.0162 101.437 20.41V17.6483H100.63V16.9747H101.437V16.0316L102.311 15.7622Z" fill="black"/>
<path fill-rule="evenodd" clip-rule="evenodd" d="M105.134 16.9746L106.21 19.9384C106.344 20.2752 106.479 20.6793 106.546 20.9488C106.613 20.6793 106.748 20.2752 106.882 19.871L107.891 16.9072H108.832L107.42 20.5446C106.748 22.296 106.344 23.1716 105.672 23.7105C105.202 24.1146 104.798 24.2494 104.529 24.3167L104.328 23.5758C104.529 23.5084 104.866 23.3737 105.134 23.1043C105.403 22.9022 105.672 22.5654 105.874 22.0939C105.941 22.0265 105.941 21.9592 105.941 21.8918C105.941 21.8244 105.941 21.7571 105.874 21.6897L103.992 17.0419H105.134" fill="black"/>
<path fill-rule="evenodd" clip-rule="evenodd" d="M74.4137 31.3218C74.8171 31.5913 75.4221 31.7934 76.0271 31.7934C76.9682 31.7934 77.5059 31.3218 77.5059 30.5809C77.5059 29.9073 77.1026 29.5705 76.1615 29.1664C75.0187 28.7622 74.2793 28.156 74.2793 27.1456C74.2793 26.0678 75.2204 25.2595 76.5648 25.2595C77.3043 25.2595 77.7748 25.3942 78.1109 25.5963L77.842 26.3373C77.6404 26.2026 77.1698 26.0005 76.4976 26.0005C75.5565 26.0005 75.1532 26.6067 75.1532 27.0782C75.1532 27.7518 75.5565 28.0886 76.5648 28.4254C77.7748 28.8969 78.3126 29.4358 78.3126 30.5135C78.3126 31.5913 77.5059 32.5343 75.8926 32.5343C75.2204 32.5343 74.481 32.3322 74.0776 32.0628L74.4137 31.3218Z" fill="black"/>
<path fill-rule="evenodd" clip-rule="evenodd" d="M80.6659 26.2031V27.4156H82.0103V28.0892H80.6659V30.7835C80.6659 31.3898 80.8676 31.7939 81.3381 31.7939C81.607 31.7939 81.7414 31.7939 81.8759 31.7266L81.9431 32.4001C81.7414 32.4675 81.4726 32.5349 81.1365 32.5349C80.7331 32.5349 80.397 32.4001 80.1281 32.1307C79.8592 31.8613 79.792 31.3898 79.792 30.7835V28.0218H78.9854V27.3482H79.792V26.4052L80.6659 26.2031Z" fill="black"/>
<path d="M86.5815 31.255C86.5815 31.7265 86.5815 32.1307 86.6487 32.4675H85.8421L85.7748 31.8612C85.5059 32.2654 84.9682 32.6022 84.2287 32.6022C83.2204 32.6022 82.6826 31.8612 82.6826 31.1203C82.6826 29.9078 83.7582 29.2342 85.7076 29.2342V29.0995C85.7076 28.6953 85.5732 27.887 84.5648 27.9544C84.0943 27.9544 83.6237 28.0891 83.2204 28.3585L83.0187 27.7523C83.4221 27.4829 84.0271 27.3481 84.6993 27.3481C86.2454 27.3481 86.6487 28.4259 86.6487 29.4363V31.255H86.5815ZM85.7076 29.9078C84.6993 29.9078 83.5565 30.0425 83.5565 31.0529C83.5565 31.6592 83.9598 31.9286 84.4304 31.9286C85.1026 31.9286 85.5059 31.5244 85.6404 31.0529C85.6404 30.9856 85.7076 30.8508 85.7076 30.7835V29.9078Z" fill="black"/>
<path fill-rule="evenodd" clip-rule="evenodd" d="M88.0599 28.7622C88.0599 28.2233 88.0599 27.8192 87.9927 27.415H88.7993L88.8666 28.2233C89.1354 27.7518 89.6732 27.2803 90.5471 27.2803C91.2193 27.2803 92.3621 27.6844 92.3621 29.4358V32.467H91.421V29.5705C91.421 28.7622 91.0849 28.0886 90.2782 28.0886C89.6732 28.0886 89.2027 28.4927 89.0682 29.0316C89.001 29.1663 89.001 29.3011 89.001 29.4358V32.467H88.0599V28.7622Z" fill="black"/>
<path d="M98.2105 25.0576V31.1873C98.2105 31.6588 98.2105 32.1303 98.2777 32.4671H97.4711L97.4039 31.5914C97.135 32.1303 96.53 32.6018 95.7233 32.6018C94.5134 32.6018 93.5723 31.5914 93.5723 30.0422C93.5723 28.3582 94.6478 27.3478 95.8578 27.3478C96.6644 27.3478 97.135 27.6846 97.4039 28.0888V25.0576H98.2105ZM97.2694 29.436C97.2694 29.3012 97.2694 29.1665 97.2022 29.0318C97.0678 28.4256 96.5972 27.9541 95.8578 27.9541C94.9167 27.9541 94.3117 28.7624 94.3117 29.9075C94.3117 30.9179 94.8495 31.7935 95.7906 31.7935C96.3956 31.7935 96.9333 31.3894 97.135 30.7158C97.2022 30.5811 97.2022 30.4463 97.2022 30.3116V29.436H97.2694Z" fill="black"/>
<path d="M103.319 31.255C103.319 31.7265 103.319 32.1307 103.386 32.4675H102.579L102.512 31.8612C102.243 32.2654 101.705 32.6022 100.966 32.6022C99.9577 32.6022 99.4199 31.8612 99.4199 31.1203C99.4199 29.9078 100.495 29.2342 102.445 29.2342V29.0995C102.445 28.6953 102.31 27.887 101.302 27.9544C100.832 27.9544 100.361 28.0891 99.9577 28.3585L99.756 27.7523C100.159 27.4829 100.764 27.3481 101.437 27.3481C102.983 27.3481 103.386 28.4259 103.386 29.4363V31.255H103.319ZM102.378 29.9078C101.369 29.9078 100.227 30.0425 100.227 31.0529C100.227 31.6592 100.63 31.9286 101.1 31.9286C101.773 31.9286 102.176 31.5244 102.31 31.0529C102.31 30.9856 102.378 30.8508 102.378 30.7835V29.9078Z" fill="black"/>
<path fill-rule="evenodd" clip-rule="evenodd" d="M104.798 28.9648C104.798 28.3585 104.798 27.887 104.73 27.4155H105.537L105.604 28.4259H105.672C105.873 27.7523 106.478 27.3481 107.083 27.3481C107.15 27.3481 107.218 27.3481 107.352 27.3481V28.2238C107.218 28.2238 107.15 28.2238 107.016 28.2238C106.344 28.2238 105.94 28.6953 105.806 29.3689C105.806 29.5036 105.806 29.6384 105.806 29.8404V32.5348H104.865L104.798 28.9648Z" fill="black"/>
<path d="M112.462 25.0576V31.1873C112.462 31.6588 112.462 32.1303 112.529 32.4671H111.722L111.655 31.5914C111.386 32.1303 110.781 32.6018 109.907 32.6018C108.697 32.6018 107.756 31.5914 107.756 30.0422C107.756 28.3582 108.765 27.3478 110.042 27.3478C110.849 27.3478 111.319 27.6846 111.588 28.0888V25.0576H112.462ZM111.588 29.436C111.588 29.3012 111.588 29.1665 111.521 29.0318C111.386 28.4256 110.849 27.9541 110.176 27.9541C109.235 27.9541 108.697 28.7624 108.697 29.9075C108.697 30.9179 109.235 31.7935 110.176 31.7935C110.781 31.7935 111.386 31.3894 111.521 30.7158C111.521 30.5811 111.588 30.4463 111.588 30.3116V29.436Z" fill="black"/>
<path fill-rule="evenodd" clip-rule="evenodd" d="M113.874 31.5239C114.142 31.726 114.613 31.8607 115.084 31.8607C115.756 31.8607 116.025 31.5239 116.025 31.1198C116.025 30.6482 115.756 30.4462 115.084 30.1767C114.142 29.8399 113.739 29.3684 113.739 28.7622C113.739 27.9539 114.411 27.2803 115.487 27.2803C116.025 27.2803 116.428 27.415 116.697 27.6171L116.495 28.2907C116.293 28.1559 115.957 28.0212 115.487 28.0212C114.949 28.0212 114.68 28.358 114.68 28.6948C114.68 29.099 114.949 29.3011 115.621 29.5705C116.495 29.9073 116.966 30.3114 116.966 31.1198C116.966 31.9954 116.293 32.669 115.084 32.669C114.546 32.669 114.008 32.5343 113.672 32.3322L113.874 31.5239Z" fill="black"/>
<path fill-rule="evenodd" clip-rule="evenodd" d="M125.301 32.2654C124.965 32.4001 124.293 32.6022 123.419 32.6022C121.469 32.6022 119.923 31.3223 119.923 29.0321C119.923 26.8093 121.402 25.3274 123.621 25.3274C124.494 25.3274 125.032 25.5295 125.301 25.6642L125.099 26.4051C124.763 26.2704 124.293 26.1357 123.688 26.1357C122.007 26.1357 120.932 27.2134 120.932 29.0321C120.932 30.7835 121.94 31.8612 123.621 31.8612C124.158 31.8612 124.763 31.7265 125.099 31.5918L125.301 32.2654Z" fill="black"/>
<path d="M128.326 32.6017C126.981 32.6017 125.906 31.5913 125.906 29.9746C125.906 28.2907 127.049 27.2803 128.393 27.2803C129.872 27.2803 130.813 28.358 130.813 29.8399C130.813 31.726 129.536 32.6017 128.326 32.6017ZM128.326 31.8607C129.2 31.8607 129.872 31.0524 129.872 29.9073C129.872 29.0316 129.469 27.9539 128.326 27.9539C127.25 27.9539 126.78 28.9643 126.78 29.9073C126.847 31.0524 127.452 31.8607 128.326 31.8607Z" fill="black"/>
<path fill-rule="evenodd" clip-rule="evenodd" d="M136.191 31.0524C136.191 31.5913 136.191 32.0628 136.258 32.3996H135.451L135.384 31.5913C135.182 31.9954 134.577 32.5343 133.703 32.5343C132.897 32.5343 131.956 32.0628 131.956 30.3114V27.3476H132.897V30.1094C132.897 31.0524 133.166 31.726 134.039 31.726C134.644 31.726 135.048 31.3218 135.249 30.8503C135.317 30.7156 135.317 30.5809 135.317 30.3788V27.2803H136.258V31.0524" fill="black"/>
<path fill-rule="evenodd" clip-rule="evenodd" d="M137.737 28.7622C137.737 28.2233 137.737 27.8192 137.67 27.415H138.477L138.544 28.2233C138.813 27.7518 139.35 27.2803 140.224 27.2803C140.897 27.2803 142.039 27.6844 142.039 29.4358V32.467H141.098V29.5705C141.098 28.7622 140.762 28.0886 139.955 28.0886C139.35 28.0886 138.88 28.4927 138.745 29.0316C138.678 29.1663 138.678 29.3011 138.678 29.4358V32.467H137.737V28.7622Z" fill="black"/>
<path fill-rule="evenodd" clip-rule="evenodd" d="M147.148 32.2649C146.879 32.3996 146.408 32.5343 145.669 32.5343C144.123 32.5343 143.182 31.5239 143.182 29.9746C143.182 28.4254 144.257 27.2803 145.87 27.2803C146.408 27.2803 146.879 27.415 147.148 27.5497L146.946 28.2233C146.744 28.0886 146.408 27.9539 145.87 27.9539C144.728 27.9539 144.056 28.8295 144.056 29.9073C144.056 31.0524 144.795 31.7934 145.803 31.7934C146.341 31.7934 146.677 31.6586 146.946 31.5239L147.148 32.2649Z" fill="black"/>
<path d="M148.7 26.472C148.323 26.472 148.021 26.2026 148.021 25.8658C148.021 25.529 148.323 25.2595 148.7 25.2595C149.076 25.2595 149.378 25.529 149.378 25.8658C149.378 26.2026 149.152 26.472 148.7 26.472ZM149.227 32.467H148.172V27.415H149.227V32.467Z" fill="black"/>
<path d="M152 25.0576H150.644V32.4671H152V25.0576Z" fill="black"/>
<path fill-rule="evenodd" clip-rule="evenodd" d="M69.7087 29.0992L15.7298 46.0737L0 3.16588L56.6677 0L69.7087 29.0992Z" fill="black"/>
<path d="M28.9053 20.4773C28.9053 21.5551 28.6364 22.4981 28.1659 23.3738C27.6953 24.1821 27.0231 24.923 26.1492 25.4619C25.2754 26.0008 24.1998 26.4049 22.9898 26.6744C21.7798 26.9438 20.4354 27.0785 18.8893 27.0785H17.8138V32.602H10.8228V14.2129H19.0238C22.116 14.2129 24.5359 14.7518 26.2837 15.7622C28.0314 16.7725 28.9053 18.3892 28.9053 20.4773ZM22.1832 20.5447C22.1832 18.928 20.9732 18.1197 18.6204 18.1197H17.7466V23.037H18.5532C19.696 23.037 20.6371 22.8349 21.2421 22.4307C21.8471 22.0939 22.1832 21.4203 22.1832 20.5447Z" fill="#FBFBFB"/>
<path fill-rule="evenodd" clip-rule="evenodd" d="M46.2482 32.6016C45.1727 32.8037 43.9627 32.9384 42.551 32.9384C40.6016 32.9384 38.8539 32.7363 37.375 32.2648C35.8289 31.7933 34.5517 31.1871 33.4761 30.3788C32.4006 29.5705 31.5939 28.5601 31.0562 27.415C30.5184 26.2025 30.2495 24.9227 30.2495 23.5081C30.2495 22.0936 30.5184 20.8138 31.1234 19.6013C31.7284 18.4562 32.535 17.4458 33.6106 16.5701C34.6861 15.7618 35.9633 15.0882 37.4422 14.6167C38.9211 14.1452 40.5344 13.9431 42.2821 13.9431C43.6266 13.9431 44.9038 14.0105 46.0465 14.2126C47.1893 14.482 47.1893 14.482 48.0632 14.8188V19.736C47.391 19.3319 46.5843 18.9951 45.7104 18.793C44.8366 18.5235 43.8955 18.3888 42.9544 18.3888C41.341 18.3888 40.0638 18.8603 39.0555 19.6687C38.0472 20.5443 37.5766 21.7568 37.5766 23.4408C37.5766 24.2491 37.7111 24.99 38.0472 25.6636C38.3833 26.2699 38.7866 26.8087 39.3244 27.2129C39.8622 27.617 40.4672 27.9538 41.2066 28.1559C41.946 28.358 42.6855 28.4927 43.4921 28.4927C44.2988 28.4927 45.1727 28.4254 45.9793 28.2233C46.786 28.0212 47.6599 27.8191 48.5337 27.415V32.0628C47.4582 32.3322 47.3238 32.3995 46.2482 32.6016Z" fill="#FBFBFB"/>
<path d="M58.4831 14.2129H51.4248V32.6693H58.4831V14.2129Z" fill="#FBFBFB"/>
<path fill-rule="evenodd" clip-rule="evenodd" d="M59.2223 8.41972C59.2223 9.63218 58.819 10.6426 58.0123 11.3162C57.2057 11.9898 56.1974 12.3939 54.9874 12.3939C53.7774 12.3939 52.7691 12.0571 51.9624 11.3162C51.1558 10.6426 50.7524 9.63218 50.7524 8.41972C50.7524 7.1399 51.1558 6.19687 51.9624 5.45592C52.7691 4.71497 53.7774 4.37817 54.9874 4.37817C56.1974 4.37817 57.2057 4.71497 58.0123 5.45592C58.819 6.12951 59.2223 7.1399 59.2223 8.41972Z" fill="#FBFBFB"/>
</svg>
