<svg width="153" height="186" viewBox="0 0 153 186" fill="none" xmlns="http://www.w3.org/2000/svg">
<path d="M13.0001 65.4999C64.5 -17.5002 182 36 119.5 174.5" stroke="#5835FF" stroke-width="2"/>
<path d="M143.65 157.432C144.279 157.292 144.903 157.688 145.044 158.317C145.184 158.947 144.788 159.571 144.159 159.711L143.65 157.432ZM120.371 174.349C120.076 174.923 119.372 175.148 118.798 174.853C118.225 174.558 117.999 173.854 118.294 173.281L120.371 174.349ZM116.371 145.416C116.119 144.822 116.396 144.137 116.99 143.885C117.584 143.634 118.269 143.911 118.521 144.505L116.371 145.416ZM143.904 158.572C144.159 159.711 144.159 159.711 144.159 159.711C144.159 159.711 144.159 159.711 144.159 159.711C144.159 159.711 144.158 159.711 144.157 159.712C144.156 159.712 144.153 159.713 144.149 159.713C144.142 159.715 144.13 159.718 144.113 159.722C144.08 159.729 144.03 159.741 143.963 159.757C143.83 159.789 143.631 159.838 143.374 159.905C142.86 160.038 142.116 160.242 141.203 160.52C139.376 161.078 136.884 161.933 134.222 163.125C128.839 165.535 123.015 169.209 120.371 174.349L118.294 173.281C121.321 167.397 127.783 163.449 133.268 160.993C136.04 159.752 138.628 158.864 140.522 158.286C141.469 157.997 142.246 157.785 142.788 157.644C143.059 157.574 143.272 157.522 143.418 157.486C143.491 157.469 143.548 157.456 143.587 157.447C143.606 157.442 143.621 157.439 143.632 157.436C143.637 157.435 143.641 157.434 143.644 157.433C143.646 157.433 143.647 157.433 143.648 157.432C143.648 157.432 143.649 157.432 143.649 157.432C143.65 157.432 143.65 157.432 143.904 158.572ZM118.294 173.281C120.938 168.14 120.541 161.266 119.371 155.485C118.793 152.627 118.04 150.102 117.431 148.291C117.127 147.386 116.86 146.662 116.669 146.167C116.574 145.919 116.498 145.729 116.447 145.602C116.421 145.538 116.401 145.49 116.388 145.459C116.382 145.444 116.377 145.432 116.374 145.425C116.373 145.421 116.372 145.419 116.371 145.417C116.371 145.417 116.371 145.416 116.37 145.416C116.37 145.416 116.37 145.416 116.37 145.416C116.37 145.416 116.371 145.416 117.446 144.96C118.521 144.505 118.521 144.505 118.521 144.505C118.521 144.506 118.521 144.506 118.522 144.507C118.522 144.507 118.522 144.509 118.523 144.51C118.524 144.513 118.526 144.517 118.528 144.522C118.532 144.532 118.538 144.546 118.546 144.565C118.561 144.602 118.583 144.655 118.611 144.725C118.668 144.865 118.749 145.068 118.849 145.329C119.05 145.852 119.329 146.607 119.645 147.547C120.276 149.423 121.058 152.045 121.66 155.022C122.852 160.912 123.398 168.465 120.371 174.349L118.294 173.281Z" fill="#5835FF"/>
</svg>
