<svg width="1024" height="500" viewBox="0 0 1024 500" fill="none" xmlns="http://www.w3.org/2000/svg">
<path fill-rule="evenodd" clip-rule="evenodd" d="M452.164 8.01677C392.485 8.01677 360.715 54.7327 295.691 54.7327C237.546 54.7327 195.718 3.29156 112.496 10.6888C59.0525 15.4396 16 54.9289 16 116.687C16 178.444 64.7278 202.272 64.7278 258.004C64.7278 297.214 52.8662 365.418 81.9686 399.371C116.112 439.205 170.586 433.324 225.056 433.324C283.874 433.324 256.598 399.05 308.161 399.05C428.411 399.05 433.755 351.544 496.107 351.544C559.349 351.544 584.341 382.567 643.375 400.238C699.354 416.994 726.004 407.859 833.783 407.859C884.555 407.859 964.552 395.865 979.905 332.261C996.02 265.499 950.777 229.59 942.366 184.382C935.24 146.081 966.416 130.891 966.416 85.511C966.416 17.518 899.611 0 850.62 0C750.264 0 729.777 51.6629 629.124 51.6629C551.926 51.6629 525.204 8.01677 452.164 8.01677" fill="#232323"/>
<path fill-rule="evenodd" clip-rule="evenodd" d="M684.596 343.241V493.202L848.741 493.687V342.757" fill="#FBFBFB"/>
<path fill-rule="evenodd" clip-rule="evenodd" d="M887.14 323.306C887.14 338.461 833.236 350.746 766.742 350.746C700.248 350.746 646.344 338.461 646.344 323.306C646.344 308.151 700.248 295.865 766.742 295.865C833.236 295.865 887.14 308.151 887.14 323.306Z" fill="#FBFBFB"/>
<path d="M684.596 343.241V493.202L848.741 493.687V342.757" stroke="#232323"/>
<path fill-rule="evenodd" clip-rule="evenodd" d="M887.14 323.306C887.14 338.461 833.236 350.746 766.742 350.746C700.248 350.746 646.344 338.461 646.344 323.306C646.344 308.151 700.248 295.865 766.742 295.865C833.236 295.865 887.14 308.151 887.14 323.306Z" stroke="#232323"/>
<path fill-rule="evenodd" clip-rule="evenodd" d="M848.355 323.306C848.355 331.449 811.816 338.051 766.742 338.051C721.669 338.051 685.13 331.449 685.13 323.306C685.13 315.162 721.669 308.56 766.742 308.56C811.816 308.56 848.355 315.162 848.355 323.306" fill="#232323"/>
<path d="M848.355 323.306C848.355 331.449 811.816 338.051 766.742 338.051C721.669 338.051 685.13 331.449 685.13 323.306C685.13 315.162 721.669 308.56 766.742 308.56C811.816 308.56 848.355 315.162 848.355 323.306" stroke="#232323" stroke-width="0.800843"/>
<path fill-rule="evenodd" clip-rule="evenodd" d="M731.051 190.804C730.969 190.857 730.925 190.884 730.925 190.884C730.972 190.931 731.014 190.901 731.051 190.804Z" fill="#EDE1D2"/>
<path fill-rule="evenodd" clip-rule="evenodd" d="M798.213 189.363H822.758C836.317 189.363 838.311 198.106 838.311 202.948C838.311 207.791 834.893 214.413 825.493 214.413H798.213V189.363ZM821.873 236.227C839.641 236.227 852.268 220.323 852.268 202.379C852.268 185.382 840.878 168.022 816.725 167.831L763.969 167.827V189.363H784.302V244.124H763.969V265.66H784.302V284.604H798.212V265.66H831.899V244.124H798.212V236.227H821.873Z" fill="#EADDCF"/>
<path fill-rule="evenodd" clip-rule="evenodd" d="M751.748 156.456C751.748 134.16 735.956 126.822 719.552 125.455C709.057 124.581 700.951 124.107 692.864 123.253C684.017 122.318 674.43 118.446 674.43 110.556C674.43 101.193 685.503 98.1053 694.084 98.1053C722.952 98.1053 740.169 110.628 740.169 110.628V87.1755C732.094 80.9754 716.926 76.5691 716.926 76.5691V65.0435H703.016V76.5691H695.563V65.0435H681.653V77.0596C669.544 82.2622 658.5 90.5365 658.5 110.359C658.5 132.656 678.644 142.528 695.83 144.056C707.96 145.134 717.669 145.176 724.404 146.212C731.413 147.291 735.574 149.95 735.574 157.399C735.574 166.819 725.571 169.24 712.853 169.24C681.582 169.24 663.812 158.011 663.812 158.011V181.464C671.231 187.664 684.346 189.453 684.346 189.453V206.244H698.256V190.776H705.708V206.597H719.618V190.776C740.04 188.805 751.748 175.475 751.748 156.456Z" fill="#EADDCF"/>
<path fill-rule="evenodd" clip-rule="evenodd" d="M937.33 339.667C937.33 341.969 935.464 343.836 933.162 343.836C930.86 343.836 928.994 341.969 928.994 339.667C928.994 337.366 930.86 335.499 933.162 335.499C935.464 335.499 937.33 337.366 937.33 339.667Z" fill="#FBFBFB"/>
<path fill-rule="evenodd" clip-rule="evenodd" d="M610.637 155.525C610.637 159.796 607.174 163.259 602.903 163.259C598.632 163.259 595.17 159.796 595.17 155.525C595.17 151.254 598.632 147.791 602.903 147.791C607.174 147.791 610.637 151.254 610.637 155.525Z" fill="#FBFBFB"/>
<path fill-rule="evenodd" clip-rule="evenodd" d="M563.209 97.9809C563.209 97.9809 553.115 98.0742 553.115 108.076C553.115 98.0152 543.02 97.9809 543.02 97.9809C543.02 97.9809 553.115 98.5147 553.115 87.8859C553.115 98.5147 563.209 97.9809 563.209 97.9809Z" fill="#FBFBFB"/>
<path fill-rule="evenodd" clip-rule="evenodd" d="M557.788 210.359L557.787 211.253C545.142 211.253 537.754 218.915 537.754 231.502L536.491 231.502C536.491 218.856 528.918 211.253 516.384 211.253L516.384 210.359C528.918 210.359 536.494 202.691 536.494 190.103H537.754C537.754 202.691 545.142 210.359 557.788 210.359Z" fill="#FBFBFB"/>
<path fill-rule="evenodd" clip-rule="evenodd" d="M882.696 39.1924C882.696 43.4611 879.236 46.9216 874.967 46.9216C870.699 46.9216 867.238 43.4611 867.238 39.1924C867.238 34.9238 870.699 31.4634 874.967 31.4634C879.236 31.4634 882.696 34.9238 882.696 39.1924Z" fill="#FBFBFB"/>
<path fill-rule="evenodd" clip-rule="evenodd" d="M654.864 366.983C654.864 369.557 652.778 371.642 650.205 371.642C647.632 371.642 645.546 369.557 645.546 366.983C645.546 364.41 647.632 362.324 650.205 362.324C652.778 362.324 654.864 364.41 654.864 366.983Z" fill="#FBFBFB"/>
<path fill-rule="evenodd" clip-rule="evenodd" d="M380.458 81.9477C380.458 83.7918 378.963 85.2869 377.118 85.2869C375.275 85.2869 373.78 83.7918 373.78 81.9477C373.78 80.1034 375.275 78.6086 377.118 78.6086C378.963 78.6086 380.458 80.1034 380.458 81.9477Z" fill="#FBFBFB"/>
<path fill-rule="evenodd" clip-rule="evenodd" d="M368.805 257.72C368.805 259.564 367.31 261.059 365.466 261.059C363.622 261.059 362.127 259.564 362.127 257.72C362.127 255.875 363.622 254.381 365.466 254.381C367.31 254.381 368.805 255.875 368.805 257.72Z" fill="#FBFBFB"/>
<path fill-rule="evenodd" clip-rule="evenodd" d="M98.6468 370.268C98.6468 372.112 97.1517 373.608 95.3076 373.608C93.4635 373.608 91.9687 372.112 91.9687 370.268C91.9687 368.424 93.4635 366.929 95.3076 366.929C97.1517 366.929 98.6468 368.424 98.6468 370.268Z" fill="#FBFBFB"/>
<path fill-rule="evenodd" clip-rule="evenodd" d="M410.38 336.105C410.38 338.608 408.35 340.638 405.846 340.638C403.342 340.638 401.312 338.608 401.312 336.105C401.312 333.601 403.342 331.571 405.846 331.571C408.35 331.571 410.38 333.601 410.38 336.105Z" fill="#FBFBFB"/>
<path fill-rule="evenodd" clip-rule="evenodd" d="M70.4441 69.9764C70.4441 73.6108 67.4978 76.5571 63.8634 76.5571C60.229 76.5571 57.2827 73.6108 57.2827 69.9764C57.2827 66.342 60.229 63.3957 63.8634 63.3957C67.4978 63.3957 70.4441 66.342 70.4441 69.9764Z" fill="#FBFBFB"/>
<path fill-rule="evenodd" clip-rule="evenodd" d="M874.967 250.594C874.967 250.594 867.841 250.659 867.841 257.72C867.841 250.618 860.715 250.594 860.715 250.594C860.715 250.594 867.841 250.971 867.841 243.468C867.841 250.971 874.967 250.594 874.967 250.594Z" fill="#FBFBFB"/>
<path fill-rule="evenodd" clip-rule="evenodd" d="M176.453 74.7984C176.453 74.7984 160.707 74.9436 160.707 90.5444C160.707 74.8519 144.961 74.7984 144.961 74.7984C144.961 74.7984 160.707 75.6309 160.707 59.0524C160.707 75.6309 176.453 74.7984 176.453 74.7984Z" fill="#FBFBFB"/>
<path fill-rule="evenodd" clip-rule="evenodd" d="M686.131 232.779C686.131 232.779 676.036 232.872 676.036 242.874C676.036 232.813 665.941 232.779 665.941 232.779C665.941 232.779 676.036 233.313 676.036 222.684C676.036 233.313 686.131 232.779 686.131 232.779Z" fill="#FBFBFB"/>
<path fill-rule="evenodd" clip-rule="evenodd" d="M283.755 94.6586C283.755 94.6586 266.368 94.819 266.368 112.046C266.368 94.7177 248.98 94.6586 248.98 94.6586C248.98 94.6586 266.368 95.5779 266.368 77.271C266.368 95.5779 283.755 94.6586 283.755 94.6586Z" fill="#FBFBFB"/>
<path fill-rule="evenodd" clip-rule="evenodd" d="M174.255 267.221C174.255 267.221 167.129 267.287 167.129 274.347C167.129 267.245 160.003 267.221 160.003 267.221C160.003 267.221 167.129 267.598 167.129 260.095C167.129 267.598 174.255 267.221 174.255 267.221Z" fill="#FBFBFB"/>
<path fill-rule="evenodd" clip-rule="evenodd" d="M98.7956 116.834C98.7956 116.834 91.6699 116.9 91.6699 123.96C91.6699 116.858 84.5439 116.834 84.5439 116.834C84.5439 116.834 91.6699 117.211 91.6699 109.708C91.6699 117.211 98.7956 116.834 98.7956 116.834Z" fill="#FBFBFB"/>
<path d="M328.946 320.962H367.544" stroke="#1D1D1B" stroke-width="0.800843"/>
<path d="M728 349.387V493.687M847.071 321.049H886.67" stroke="#232323"/>
<path d="M172.455 75.1129C172.455 75.1129 235.721 66.9253 235.721 131.68M242.611 117.069V59.1709M650.832 266.033H690.414C711.246 266.033 731.558 282.178 731.558 310.823V329.572M741.95 220.902V285.035M681.825 232.928C715.228 232.928 724.135 259.204 724.135 259.204M266.494 157.846V98.5594" stroke="#FBFBFB"/>
<path fill-rule="evenodd" clip-rule="evenodd" d="M534.354 436.18L507.339 436.579C506.998 413.492 465.039 381.059 464.305 331.273C463.68 288.888 472.256 265.277 478.054 254.468C482.541 246.104 487.241 241.035 495.877 240.908C505.556 240.765 511.741 246.077 514.465 263.549C523.498 321.482 545.689 362.274 534.354 436.18Z" fill="#EADDCF"/>
<path fill-rule="evenodd" clip-rule="evenodd" d="M548.524 436.18L575.539 436.579C575.879 413.492 617.838 381.059 618.572 331.273C619.197 288.888 610.622 265.277 604.823 254.468C600.336 246.104 595.637 241.035 587.001 240.908C577.322 240.765 571.137 246.077 568.413 263.549C559.38 321.482 537.189 362.274 548.524 436.18Z" fill="#EADDCF"/>
<path fill-rule="evenodd" clip-rule="evenodd" d="M534.354 436.18L507.339 436.579C506.998 413.492 465.039 381.059 464.305 331.273C463.68 288.888 472.256 265.277 478.054 254.468C482.541 246.104 487.241 241.035 495.877 240.908C505.556 240.765 511.741 246.077 514.465 263.549C523.498 321.482 545.689 362.274 534.354 436.18Z" stroke="#232323"/>
<path fill-rule="evenodd" clip-rule="evenodd" d="M548.524 436.18L575.539 436.579C575.879 413.492 617.838 381.059 618.572 331.273C619.197 288.888 610.622 265.277 604.823 254.468C600.336 246.104 595.637 241.035 587.001 240.908C577.322 240.765 571.137 246.077 568.413 263.549C559.38 321.482 537.189 362.274 548.524 436.18Z" stroke="#232323"/>
<path fill-rule="evenodd" clip-rule="evenodd" d="M517.966 440.035C517.588 414.393 479.354 382.793 475.388 341.686C472.058 307.185 482.127 273.797 484.465 264.948C486.518 257.173 489.63 251.616 495.142 251.684C499.988 251.744 503.29 255.722 504.136 265.701C506.4 292.392 508.625 334.226 511.827 362.997C515.26 393.852 522.072 431.509 532.754 443.863" fill="#FBFBFB"/>
<path fill-rule="evenodd" clip-rule="evenodd" d="M564.911 440.035C565.289 414.393 603.523 382.793 607.489 341.686C610.819 307.185 600.75 273.797 598.413 264.948C596.359 257.173 593.247 251.616 587.736 251.684C582.889 251.744 579.587 255.722 578.741 265.701C576.477 292.392 574.253 334.226 571.051 362.997C567.617 393.852 560.806 431.509 550.123 443.863" fill="#FBFBFB"/>
<path fill-rule="evenodd" clip-rule="evenodd" d="M423.193 492.686C423.193 477.928 435.157 465.964 449.915 465.964C464.674 465.964 476.638 477.928 476.638 492.686H423.193Z" fill="#FBFBFB"/>
<path fill-rule="evenodd" clip-rule="evenodd" d="M606.24 492.686C606.24 477.928 618.203 465.964 632.962 465.964C647.72 465.964 659.684 477.928 659.684 492.686H606.24Z" fill="#FBFBFB"/>
<path d="M517.966 440.035C517.588 414.393 479.354 382.793 475.388 341.686C472.058 307.185 482.127 273.797 484.465 264.948C486.518 257.173 489.63 251.616 495.142 251.684C499.988 251.744 503.29 255.722 504.136 265.701C506.4 292.392 508.625 334.226 511.827 362.997C515.26 393.852 522.072 431.509 532.754 443.863M564.911 440.035C565.289 414.393 603.523 382.793 607.489 341.686C610.819 307.185 600.75 273.797 598.413 264.948C596.359 257.173 593.247 251.616 587.736 251.684C582.889 251.744 579.587 255.722 578.741 265.701C576.477 292.392 574.253 334.226 571.051 362.997C567.617 393.852 560.806 431.509 550.123 443.863M423.193 492.686C423.193 477.928 435.157 465.964 449.915 465.964C464.674 465.964 476.638 477.928 476.638 492.686H423.193ZM606.24 492.686C606.24 477.928 618.203 465.964 632.962 465.964C647.72 465.964 659.684 477.928 659.684 492.686H606.24Z" stroke="#232323"/>
<path fill-rule="evenodd" clip-rule="evenodd" d="M476.861 492.241C476.861 456.575 505.773 427.663 541.439 427.663C577.104 427.663 606.017 456.575 606.017 492.241H476.861Z" fill="#EADDCF" stroke="#232323"/>
<path fill-rule="evenodd" clip-rule="evenodd" d="M560.553 457.497C560.539 462.556 556.426 466.647 551.367 466.632C546.307 466.618 542.216 462.505 542.231 457.446C542.245 452.386 546.358 448.296 551.417 448.31C556.477 448.324 560.567 452.437 560.553 457.497Z" fill="#FBFBFB"/>
<path fill-rule="evenodd" clip-rule="evenodd" d="M518.243 457.497C518.229 462.556 514.116 466.647 509.056 466.632C503.996 466.618 499.907 462.505 499.92 457.446C499.935 452.386 504.048 448.296 509.107 448.31C514.167 448.324 518.257 452.437 518.243 457.497Z" fill="#FBFBFB"/>
<path fill-rule="evenodd" clip-rule="evenodd" d="M560.553 457.497C560.539 462.556 556.426 466.647 551.367 466.632C546.307 466.618 542.216 462.505 542.231 457.446C542.245 452.386 546.358 448.296 551.417 448.31C556.477 448.324 560.567 452.437 560.553 457.497Z" stroke="#232323" stroke-width="0.800843"/>
<path fill-rule="evenodd" clip-rule="evenodd" d="M518.243 457.497C518.229 462.556 514.116 466.647 509.056 466.632C503.996 466.618 499.907 462.505 499.92 457.446C499.935 452.386 504.048 448.296 509.107 448.31C514.167 448.324 518.257 452.437 518.243 457.497Z" stroke="#232323" stroke-width="0.800843"/>
<mask id="mask0" mask-type="alpha" maskUnits="userSpaceOnUse" x="542" y="448" width="19" height="19">
<path fill-rule="evenodd" clip-rule="evenodd" d="M542.231 457.446C542.217 462.505 546.307 466.619 551.367 466.632V466.632C556.426 466.647 560.539 462.556 560.554 457.497V457.497C560.568 452.437 556.477 448.324 551.418 448.31V448.31C551.409 448.31 551.401 448.31 551.392 448.31V448.31C546.344 448.31 542.245 452.395 542.231 457.446V457.446Z" fill="white"/>
</mask>
<g mask="url(#mask0)">
<path fill-rule="evenodd" clip-rule="evenodd" d="M551.017 473.254L534.902 473.209L534.989 442.083L551.103 442.128L551.017 473.254Z" fill="#232323"/>
</g>
<mask id="mask1" mask-type="alpha" maskUnits="userSpaceOnUse" x="499" y="448" width="20" height="19">
<path fill-rule="evenodd" clip-rule="evenodd" d="M499.92 457.446C499.906 462.505 503.997 466.619 509.056 466.632V466.632C514.116 466.647 518.229 462.556 518.243 457.497V457.497C518.257 452.437 514.167 448.324 509.107 448.31V448.31C509.099 448.31 509.09 448.31 509.081 448.31V448.31C504.034 448.31 499.935 452.395 499.92 457.446V457.446Z" fill="white"/>
</mask>
<g mask="url(#mask1)">
<path fill-rule="evenodd" clip-rule="evenodd" d="M508.706 473.254L492.591 473.209L492.678 442.083L508.793 442.128L508.706 473.254Z" fill="#232323"/>
</g>
<path d="M437.779 477.989V493.132M449.916 477.989V493.132M462.052 477.989V493.132M620.826 477.989V493.132M632.962 477.989V493.132M645.098 477.989V493.132M515.169 481.404C515.169 481.404 530.014 478.412 530.014 462.995M545.157 481.107C545.157 481.107 530.311 478.115 530.311 462.698" stroke="#232323"/>
<path fill-rule="evenodd" clip-rule="evenodd" d="M535.433 457.471C535.433 460.341 533.107 462.667 530.237 462.667C527.368 462.667 525.042 460.341 525.042 457.471C525.042 454.602 527.368 452.275 530.237 452.275C533.107 452.275 535.433 454.602 535.433 457.471Z" fill="#FBFBFB" stroke="#232323"/>
<path fill-rule="evenodd" clip-rule="evenodd" d="M62.5195 491.773C62.5195 491.773 75.972 469.312 80.9831 472.533C85.9945 475.754 72.5424 491.773 72.5424 491.773H62.5195Z" fill="#1D1D1B"/>
<path fill-rule="evenodd" clip-rule="evenodd" d="M851.976 93.9642C847.964 79.2494 834.689 70.5972 823.911 63.942C809.507 55.0483 794.643 45.3848 791.674 51.3234C788.921 56.8288 803.947 68.5906 811.304 70.5972C811.304 70.5972 784.117 69.9482 774.254 69.9482C765.751 69.9482 763.373 73.07 763.828 77.329C764.286 81.6254 769.84 83.3344 775.536 84.0464C784.043 85.1098 807.407 83.7067 807.407 83.7067C807.407 83.7067 779.235 87.4494 771.264 89.1727C765.995 90.3122 759.903 92.3073 760.284 97.5246C760.726 103.556 769.527 103.653 776.583 102.839C785.794 101.776 810.95 94.69 810.95 94.69C810.95 94.69 795.757 98.5715 781.232 110.391C771.796 118.07 765.533 126.833 768.131 130.47C770.979 134.458 779.54 130.585 791.779 122.269C802.886 114.722 825.341 106.499 830.978 112.069C836.508 117.535 829.728 126.578 819.881 133.865C812.955 138.99 800.878 142.772 801.175 147.522C801.537 153.307 811.302 155.16 829.08 145.565C847.786 135.47 857.68 114.888 851.976 93.9642" fill="#FBFBFB"/>
<path d="M851.976 93.9642C847.964 79.2494 834.689 70.5972 823.911 63.942C809.507 55.0483 794.643 45.3848 791.674 51.3234C788.921 56.8288 803.947 68.5906 811.304 70.5972C811.304 70.5972 784.117 69.9482 774.254 69.9482C765.751 69.9482 763.373 73.07 763.828 77.329C764.286 81.6254 769.84 83.3344 775.536 84.0464C784.043 85.1098 807.407 83.7067 807.407 83.7067C807.407 83.7067 779.235 87.4494 771.264 89.1727C765.995 90.3122 759.903 92.3073 760.284 97.5246C760.726 103.556 769.527 103.653 776.583 102.839C785.794 101.776 810.95 94.69 810.95 94.69C810.95 94.69 795.757 98.5715 781.232 110.391C771.796 118.07 765.533 126.833 768.131 130.47C770.979 134.458 779.54 130.585 791.779 122.269C802.886 114.722 825.341 106.499 830.978 112.069C836.508 117.535 829.728 126.578 819.881 133.865C812.955 138.99 800.878 142.772 801.175 147.522C801.537 153.307 811.302 155.16 829.08 145.565C847.786 135.47 857.68 114.888 851.976 93.9642" stroke="#232323"/>
<path fill-rule="evenodd" clip-rule="evenodd" d="M854.386 136.803V72.6694H941.084C965.431 72.6694 988.293 91.6719 988.293 121.363V207.315C988.293 227.802 974.041 246.438 951.773 246.438C929.505 246.438 915.253 227.802 915.253 205.534V152.242C915.253 141.553 909.611 136.803 899.516 136.803H854.386Z" fill="#FBFBFB" stroke="#232323"/>
<path d="M854.385 136.803C854.385 136.803 875.419 128.469 875.419 105.358C875.419 81.34 854.385 72.6694 854.385 72.6694M881.763 136.803C881.763 136.803 899.89 128.469 899.89 105.358C899.89 81.34 883.576 72.6694 883.576 72.6694" stroke="#232323"/>
<path fill-rule="evenodd" clip-rule="evenodd" d="M882.809 81.4195C882.809 79.1174 880.943 77.251 878.641 77.251C876.339 77.251 874.472 79.1174 874.472 81.4195C874.472 83.7216 876.339 85.5877 878.641 85.5877C880.943 85.5877 882.809 83.7216 882.809 81.4195Z" fill="#232323"/>
<path fill-rule="evenodd" clip-rule="evenodd" d="M367.841 321.306C367.841 336.461 313.937 348.746 247.443 348.746C180.949 348.746 127.045 336.461 127.045 321.306C127.045 306.151 180.949 293.865 247.443 293.865C313.937 293.865 367.841 306.151 367.841 321.306" fill="#FBFBFB"/>
<path d="M367.841 321.306C367.841 336.461 313.937 348.746 247.443 348.746C180.949 348.746 127.045 336.461 127.045 321.306C127.045 306.151 180.949 293.865 247.443 293.865C313.937 293.865 367.841 306.151 367.841 321.306" stroke="#232323"/>
<path fill-rule="evenodd" clip-rule="evenodd" d="M330 321.5C330 330.06 293.287 337 248 337C202.713 337 166 330.06 166 321.5C166 312.94 202.713 306 248 306C293.287 306 330 312.94 330 321.5" fill="#232323"/>
<path fill-rule="evenodd" clip-rule="evenodd" d="M260.702 329.97H232.272V305.846H261.021C271.071 305.846 275.361 310.593 275.361 318.505C275.361 325.504 270.172 329.97 260.702 329.97ZM256.818 258.982C270.377 258.982 272.371 266.914 272.371 271.756C272.371 276.599 267.825 284.032 256.931 284.032H232.272V258.982H256.818ZM266.474 293.1C282.188 289.67 289.014 277.445 289.014 267.49C289.014 250.494 273.464 237.446 253.635 237.446V222.437H239.725V237.446H232.272V222.437H218.362V237.446H198.029V258.982H218.362V329.97H198.2V351.784H218.362V366.526H232.272V351.784H239.839V366.622H253.749V351.784C281.721 351.784 293.432 337.396 293.432 319.452C293.432 304.925 280.762 294.448 266.474 293.1Z" fill="#EADDCF"/>
<path fill-rule="evenodd" clip-rule="evenodd" d="M165.297 341.241V495H329.442V340.757" fill="#FBFBFB"/>
<path fill-rule="evenodd" clip-rule="evenodd" d="M127.045 321.306C127.045 336.461 180.949 348.746 247.443 348.746C313.937 348.746 367.841 336.461 367.841 321.306L329.836 321.289C329.836 325.712 308.756 336.995 246.998 336.995C196.523 336.995 165.644 328.979 165.644 321.289L127.045 321.306Z" fill="#FBFBFB"/>
<path d="M165.297 341.241V495H329.442V340.757M127.045 321.306C127.045 336.461 180.949 348.746 247.443 348.746C313.937 348.746 367.841 336.461 367.841 321.306L329.836 321.289C329.836 325.712 308.756 336.995 246.998 336.995C196.523 336.995 165.644 328.979 165.644 321.289L127.045 321.306Z" stroke="#232323"/>
<path d="M206 348V494.299" stroke="#232323"/>
<path d="M324.387 153.605C345.682 153.21 358.226 169.748 358.529 186.059C359.024 212.791 338.745 219.059 322.434 219.362C313.999 219.518 307.503 219.639 301.45 219.751L293.407 219.9C284.769 220.06 280.249 218.671 280.167 214.253C280.06 208.5 289.41 207.536 289.41 207.536C289.41 207.536 276.411 208 276.411 201.177C276.317 196.103 281.185 194.46 285 194H284.5C280.173 194.014 274.67 193.381 274.584 188.755C274.464 182.341 289.045 182.1 289.045 182.1C289.045 182.1 274.354 182.1 274.248 176.412C274.185 173.007 277.462 170.792 282.446 170.7C287.43 170.607 318.799 170.026 318.799 170.026L318.922 168.558C318.922 168.558 306.88 167.93 299.702 166.754C292.547 165.582 287.432 164.972 287.339 159.988C287.259 155.625 291.527 154.215 296.511 154.122C301.495 154.03 312.607 153.824 324.387 153.605Z" fill="#FBFBFB" stroke="#232323"/>
<path fill-rule="evenodd" clip-rule="evenodd" d="M359.972 151.863L361.161 215.985C361.161 215.985 433.595 214.641 447.845 214.377C472.187 213.926 494.693 194.503 494.143 164.817C493.202 114.054 492.764 90.4571 492.549 78.8794C492.169 58.3962 477.574 40.0281 455.31 40.4409C433.045 40.8537 419.141 59.7503 419.555 82.0148C419.967 104.279 420.344 124.611 420.542 135.298C420.741 145.985 415.188 150.839 405.095 151.026C396.189 151.191 359.972 151.863 359.972 151.863" fill="#FBFBFB"/>
<path fill-rule="evenodd" clip-rule="evenodd" d="M389.418 206.709C389.46 209.011 387.629 210.912 385.327 210.954C383.026 210.997 381.125 209.166 381.082 206.864C381.04 204.562 382.871 202.662 385.173 202.619C387.474 202.576 389.375 204.408 389.418 206.709Z" fill="#232323"/>
<path d="M359.972 151.863C359.972 151.863 381.157 159.804 381.585 182.912C382.031 206.926 361.161 215.985 361.161 215.985M387.346 151.355C387.346 151.355 405.624 159.351 406.053 182.459C406.498 206.472 390.347 215.444 390.347 215.444M289 182.1L319.373 181.431M285 194L319.594 193.35M289.302 207.55L319.632 206.869" stroke="#232323"/>
<path fill-rule="evenodd" clip-rule="evenodd" d="M155.723 167.762C155.883 152.512 165.966 139.187 175.283 131.619C186.872 122.203 200.161 117.816 203.177 121.431C207.121 126.156 195.395 133.427 188.784 137.229C208.923 133.076 231.283 134.358 230.786 142.909C230.441 148.844 220.709 148.226 211.101 147.911C204.625 147.699 190.639 146.425 190.639 146.425C190.639 146.425 219.194 152.201 225.751 153.405C232.309 154.609 245.565 156.865 243.406 163.699C241.247 170.533 228.378 168.58 221.405 167.228C215.51 166.085 189.884 155.276 189.884 155.276C189.884 155.276 206.5 162.5 220.656 172.231C237.808 184.021 243.743 201.153 234.494 203.921C225.978 206.469 217.554 185.376 204.916 177.682C194.551 171.373 183.97 172.788 180.617 179.968C177.043 187.625 185.171 196.848 196.695 199.351C205.115 201.18 214.001 195.242 218.247 199.186C222.494 203.129 212.065 216.24 192.439 211.449C170.945 206.203 155.496 189.449 155.723 167.762Z" fill="#FBFBFB" stroke="#232323"/>
<path fill-rule="evenodd" clip-rule="evenodd" d="M155.405 200.485L154.772 136.355C154.772 136.355 82.3288 137.071 68.0779 137.211C43.7321 137.452 21.0586 156.679 21.3519 186.369C21.8533 237.139 22.0863 260.738 22.2007 272.317C22.4028 292.803 36.8378 311.297 59.1052 311.077C81.3726 310.857 95.4397 292.082 95.22 269.814C94.9998 247.547 94.7992 227.213 94.6936 216.525C94.5881 205.837 100.182 201.031 110.277 200.931C119.184 200.843 155.405 200.485 155.405 200.485" fill="#FBFBFB"/>
<path d="M155.405 200.485L154.772 136.355C154.772 136.355 82.3288 137.071 68.0779 137.211C43.7321 137.452 21.0586 156.679 21.3519 186.369C21.8533 237.139 22.0863 260.738 22.2007 272.317C22.4028 292.803 36.8378 311.297 59.1052 311.077C81.3726 310.857 95.4397 292.082 95.22 269.814C94.9998 247.547 94.7992 227.213 94.6936 216.525C94.5881 205.837 100.182 201.031 110.277 200.931C119.184 200.843 155.405 200.485 155.405 200.485" stroke="#232323"/>
<path d="M155.405 200.485C155.405 200.485 134.29 192.36 134.062 169.25C133.824 145.233 154.772 136.355 154.772 136.355M128.028 200.756C128.028 200.756 109.82 192.602 109.592 169.491C109.355 145.475 125.582 136.644 125.582 136.644" stroke="#232323"/>
<path fill-rule="evenodd" clip-rule="evenodd" d="M126.436 145.385C126.413 143.083 128.261 141.199 130.563 141.176C132.865 141.153 134.75 143.001 134.772 145.303C134.795 147.605 132.947 149.49 130.645 149.512C128.343 149.535 126.459 147.687 126.436 145.385Z" fill="#232323"/>
<path fill-rule="evenodd" clip-rule="evenodd" d="M931.38 496.101H978.293C978.293 496.101 985.418 464.034 1011.84 467.003C1009.47 455.127 994.029 448.892 981.855 455.721C972.206 464.542 968.224 473.319 968.224 473.319C968.224 473.319 972.354 464.397 972.354 453.642C972.354 442.063 961.962 443.25 961.962 436.125C961.962 429.592 972.206 430.335 972.206 419.943C972.206 411.036 964.634 407.621 958.102 407.621C951.57 407.621 943.554 410.293 943.554 419.794C943.554 428.722 953.649 431.671 953.649 436.125C953.649 441.172 942.656 441.524 943.851 454.533C944.684 463.611 947.743 473.319 947.743 473.319C947.743 473.319 944.884 463.478 924.848 453.345C912.059 446.878 901.392 457.502 900.501 466.409C907.33 466.113 911.997 465.184 920.691 470.566C933.162 478.286 931.38 496.101 931.38 496.101Z" fill="#232323"/>
<path fill-rule="evenodd" clip-rule="evenodd" d="M892.485 495.482C892.485 495.482 896.642 484.199 907.924 481.527C902.283 475.886 888.328 479.152 886.25 490.138C879.421 482.715 872.889 490.732 868.732 476.777C862.497 491.622 881.202 496.076 881.202 496.076L892.485 495.482Z" fill="#232323"/>
<path fill-rule="evenodd" clip-rule="evenodd" d="M371.924 496.28H380.943C380.943 496.28 390.963 490.602 390.963 479.245C390.963 470.895 384.951 469.892 384.951 463.212C384.951 456.531 392.633 456.531 392.633 447.179C392.633 437.826 385.953 434.486 379.941 434.486C375.264 434.486 368.583 438.16 368.583 445.174C368.583 452.189 375.264 452.189 375.264 457.867C375.264 463.546 367.247 462.618 367.247 468.965C367.247 475.311 372.592 473.566 372.592 479.245C372.592 484.59 364.575 481.917 364.575 488.598C364.575 493.274 371.924 496.28 371.924 496.28Z" fill="#232323"/>
<path fill-rule="evenodd" clip-rule="evenodd" d="M377.046 495.835C377.046 495.835 405.549 443.43 415.05 446.102C424.551 448.774 393.673 495.835 393.673 495.835H377.046Z" fill="#232323"/>
<path fill-rule="evenodd" clip-rule="evenodd" d="M379.766 495.835C379.766 495.835 357.449 458.572 349.136 463.917C340.822 469.261 363.139 495.835 363.139 495.835H379.766Z" fill="#232323"/>
<path fill-rule="evenodd" clip-rule="evenodd" d="M379.766 495.835C379.766 495.835 357.449 458.572 349.136 463.917C340.822 469.261 363.139 495.835 363.139 495.835H379.766Z" fill="#232323"/>
<path fill-rule="evenodd" clip-rule="evenodd" d="M57.2713 496.25C57.2713 496.25 51.043 460.835 56.5271 458.528C62.0114 456.222 66.236 492.97 66.236 492.97L57.2713 496.25Z" fill="#232323"/>
<path fill-rule="evenodd" clip-rule="evenodd" d="M57.2713 496.25C57.2713 496.25 51.043 460.835 56.5271 458.528C62.0114 456.222 66.236 492.97 66.236 492.97L57.2713 496.25Z" fill="#232323"/>
<path fill-rule="evenodd" clip-rule="evenodd" d="M60.2389 492.044C60.2389 492.044 46.7865 469.583 41.7753 472.804C36.7639 476.026 50.2161 492.044 50.2161 492.044H60.2389Z" fill="#232323"/>
<path fill-rule="evenodd" clip-rule="evenodd" d="M60.2389 492.033C60.2389 492.033 46.7865 469.572 41.7753 472.793C36.7639 476.015 50.2161 492.033 50.2161 492.033H60.2389Z" fill="#232323"/>
<path fill-rule="evenodd" clip-rule="evenodd" d="M62.5197 491.773C62.5197 491.773 75.9722 469.312 80.9833 472.533C85.9947 475.755 72.5426 491.773 72.5426 491.773H62.5197Z" fill="#232323"/>
<path fill-rule="evenodd" clip-rule="evenodd" d="M111.24 495.104C111.24 495.104 101.301 491.791 101.301 480.196C101.301 468.601 106.571 467.575 109.031 461.423C111.24 455.902 106.823 444.859 115.105 444.859C123.387 444.859 121.461 457.358 119.522 462.527C116.209 471.361 125.057 473.152 122.835 481.3C128.908 475.779 134.944 466.829 137.743 475.227C141.056 485.165 121.731 496.208 121.731 496.208L111.24 495.104Z" fill="#232323"/>
<path fill-rule="evenodd" clip-rule="evenodd" d="M111.24 495.104C111.24 495.104 101.301 491.791 101.301 480.196C101.301 468.601 106.571 467.575 109.031 461.423C111.24 455.902 106.823 444.859 115.105 444.859C123.387 444.859 121.461 457.358 119.522 462.527C116.209 471.361 125.057 473.152 122.835 481.3C128.908 475.779 134.944 466.829 137.743 475.227C141.056 485.165 121.731 496.208 121.731 496.208L111.24 495.104Z" fill="#232323"/>
<path fill-rule="evenodd" clip-rule="evenodd" d="M0 492H1024V500H0.0383808L0 492Z" fill="#232323"/>
</svg>
