<svg width="91" height="170" viewBox="0 0 91 170" fill="none" xmlns="http://www.w3.org/2000/svg">
<path d="M90 1C-29.4999 1 -23.0002 147 82.0001 147" stroke="#5835FF" stroke-width="2"/>
<path d="M53.9259 167.507C53.5238 168.011 53.6066 168.746 54.1108 169.148C54.615 169.55 55.3497 169.468 55.7518 168.963L53.9259 167.507ZM89.0055 147.983C89.6504 147.983 90.1732 147.46 90.1732 146.815C90.1732 146.17 89.6504 145.647 89.0055 145.647V147.983ZM55.7518 124.667C55.3497 124.163 54.615 124.08 54.1108 124.482C53.6066 124.884 53.5238 125.619 53.9259 126.123L55.7518 124.667ZM54.8389 168.235C55.7518 168.963 55.7517 168.964 55.7517 168.964C55.7517 168.964 55.7517 168.964 55.7519 168.963C55.7522 168.963 55.7527 168.962 55.7535 168.961C55.7551 168.959 55.7578 168.956 55.7614 168.951C55.7688 168.942 55.7802 168.928 55.7956 168.909C55.8265 168.871 55.8735 168.813 55.936 168.737C56.0612 168.586 56.2485 168.361 56.494 168.074C56.9851 167.499 57.7082 166.675 58.63 165.684C60.4749 163.701 63.1086 161.06 66.2649 158.421C72.6329 153.098 80.8995 147.983 89.0055 147.983V145.647C80.0282 145.647 71.2115 151.242 64.767 156.629C61.517 159.346 58.8122 162.06 56.9202 164.093C55.9734 165.11 55.2284 165.96 54.7185 166.556C54.4635 166.855 54.2672 167.09 54.1338 167.252C54.067 167.333 54.016 167.396 53.9812 167.439C53.9638 167.46 53.9504 167.477 53.9412 167.488C53.9366 167.494 53.933 167.498 53.9304 167.502C53.9292 167.503 53.9282 167.504 53.9274 167.505C53.927 167.506 53.9267 167.506 53.9265 167.507C53.9262 167.507 53.9259 167.507 54.8389 168.235ZM89.0055 145.647C80.8995 145.647 72.6329 140.532 66.2649 135.209C63.1086 132.571 60.4749 129.929 58.63 127.946C57.7082 126.956 56.9851 126.131 56.494 125.557C56.2485 125.269 56.0612 125.045 55.936 124.893C55.8735 124.817 55.8265 124.759 55.7956 124.721C55.7802 124.702 55.7688 124.688 55.7614 124.679C55.7578 124.674 55.7551 124.671 55.7535 124.669C55.7527 124.668 55.7522 124.667 55.7519 124.667C55.7517 124.667 55.7517 124.667 55.7517 124.667C55.7517 124.667 55.7518 124.667 54.8389 125.395C53.9259 126.123 53.9262 126.123 53.9265 126.124C53.9267 126.124 53.927 126.124 53.9274 126.125C53.9282 126.126 53.9292 126.127 53.9304 126.129C53.933 126.132 53.9366 126.136 53.9412 126.142C53.9504 126.154 53.9638 126.17 53.9812 126.192C54.016 126.235 54.067 126.297 54.1338 126.378C54.2672 126.54 54.4635 126.775 54.7185 127.074C55.2284 127.671 55.9734 128.52 56.9202 129.537C58.8122 131.571 61.517 134.284 64.767 137.001C71.2115 142.388 80.0282 147.983 89.0055 147.983V145.647Z" fill="#5835FF"/>
</svg>
