<svg width="219" height="52" viewBox="0 0 219 52" fill="none" xmlns="http://www.w3.org/2000/svg">
<path d="M210.361 26.2649C205.623 26.2649 201.795 30.0611 201.795 34.7341C201.795 39.4072 205.634 43.2034 210.361 43.2034C215.099 43.2034 218.927 39.4072 218.927 34.7341C218.927 30.0611 215.087 26.2649 210.361 26.2649ZM210.361 40.8957C206.918 40.8957 204.129 38.138 204.129 34.7341C204.129 31.3303 206.918 28.5726 210.361 28.5726C213.804 28.5726 216.593 31.3303 216.593 34.7341C216.581 38.138 213.792 40.8957 210.361 40.8957Z" fill="#212121"/>
<path d="M114.079 26.2646C111.663 26.2646 109.831 28.157 109.306 29.7031V26.9339H102.199V29.2531H106.984V40.33L102.187 40.3416V42.6493L115.223 42.6377V40.33H109.306V33.3031C109.306 32.2531 110.228 28.4339 113.414 28.4339C114.383 28.4339 115.281 28.6877 115.853 29.357C115.631 29.657 115.491 30.0262 115.491 30.43C115.491 31.4339 116.32 32.2531 117.335 32.2531C118.432 32.2531 119.133 31.3762 119.133 30.3031C119.144 28.5493 117.125 26.2646 114.079 26.2646Z" fill="#212121"/>
<path d="M174.766 26.2646C172.35 26.2646 170.518 28.1454 169.993 29.6916V26.9339H162.886V29.2531H167.671V40.3069L162.874 40.3185V42.6262L175.91 42.6146V40.3069H169.993V33.28C169.993 32.23 170.915 28.4108 174.101 28.4108C175.07 28.4108 175.968 28.6646 176.54 29.3339C176.318 29.6339 176.178 30.0031 176.178 30.407C176.178 31.4108 177.007 32.23 178.022 32.23C179.119 32.23 179.82 31.3531 179.82 30.28C179.831 28.5377 177.812 26.2646 174.766 26.2646Z" fill="#212121"/>
<path d="M135.997 33.6725C137.012 33.6725 137.841 32.8532 137.841 31.8494C137.841 31.7686 137.829 31.6994 137.829 31.6186C137.595 29.5302 134.269 26.2878 130.045 26.2878C125.248 26.2878 121.362 30.084 121.362 34.7802C121.362 39.4763 125.248 43.2725 130.045 43.2725C133.359 43.2725 136.242 41.4494 137.701 38.7725L135.822 37.5148C134.678 39.5455 132.542 40.9532 130.033 40.9532C126.555 40.9532 123.824 38.1955 123.824 34.7802C123.824 31.3648 126.555 28.6071 130.033 28.6071C131.97 28.6071 133.592 29.334 134.678 30.5917C134.363 30.9148 134.164 31.3648 134.164 31.8494C134.153 32.8648 134.981 33.6725 135.997 33.6725Z" fill="#212121"/>
<path d="M193.637 29.2536H195.563L191.397 39.9266L186.857 29.2536H188.829V26.9343H181.99V29.2536H184.359L190.183 43.042L186.974 51.2805H189.459L198.049 29.2536H200.476V26.9343H193.637V29.2536Z" fill="#212121"/>
<path d="M77.294 32.9361C77.294 28.8168 74.5164 26.2668 71.1086 26.2668C68.4361 26.2668 66.207 28.1822 65.2267 30.1322C64.2814 27.7092 62.0873 26.2668 59.5431 26.2668C56.999 26.2668 54.8283 28.1476 54.1514 29.6938V26.9245L49.3081 26.9361V29.2553H51.8173V42.6168H54.1514V33.2707C54.1514 32.1976 55.4585 28.3899 59.2047 28.3899C60.9786 28.3899 63.4061 29.9822 63.4061 33.2245C63.4061 34.863 63.4061 42.6168 63.4061 42.6168H65.7402C65.7402 42.6168 65.7402 33.3861 65.7402 33.2245C65.7402 32.1515 66.8956 28.3899 70.7818 28.3899C72.5558 28.3899 74.9832 29.8207 74.9832 33.0745C74.9832 34.713 74.9832 42.6284 74.9832 42.6284H79.8148V40.3438H77.3057L77.294 32.9361Z" fill="#212121"/>
<path d="M90.9596 26.2532C86.2214 26.2532 82.3701 29.9916 82.3701 34.6763C82.3701 34.8378 82.4051 35.4493 82.4168 35.5532C82.8486 39.8455 86.5482 43.2032 91.053 43.2032C94.3674 43.2032 97.25 41.3801 98.7088 38.7032L96.8299 37.4455C95.6862 39.4763 93.5505 40.8839 91.0413 40.8839C87.8436 40.8839 85.1827 38.5532 84.7859 35.5416L99.1756 35.5532C99.2107 35.2647 99.2223 34.9763 99.2223 34.6878C99.2223 29.9916 95.6978 26.2532 90.9596 26.2532ZM84.8676 33.2339C85.5212 30.5109 88.007 28.4801 90.9713 28.4801C93.9356 28.4801 96.083 30.5109 96.7482 33.2339H84.8676Z" fill="#212121"/>
<path d="M156.829 26.9343H154.494V36.2343C154.494 38.3459 152.254 41.2074 149.418 41.2074C147.644 41.2074 145.24 39.5459 145.24 36.5228C145.24 34.8843 145.24 26.9343 145.24 26.9343H140.408V29.2536H142.917V36.6497C142.917 40.7689 145.695 43.2036 149.103 43.2036C151.519 43.2036 153.374 41.7266 154.506 40.192V42.6382L159.349 42.6266V40.3189H156.84L156.829 26.9343Z" fill="#212121"/>
<g clip-path="url(#clip0)">
<path d="M22.2877 42.6951V43H32.3904V42.6951C32.3904 38.1343 37.546 31.6017 37.546 21.7631C37.546 13.3851 36.1394 8.856 35.2837 6.75226C34.5778 5.01232 33.7648 4 32.032 4C30.2992 4 28.6039 4.66434 28.1439 8.5291C26.7855 20.039 21.5817 26.6771 22.2877 42.6951Z" fill="white" stroke="#232323"/>
<path d="M20.7476 42.6951V43H10.6449V42.6951C10.6449 38.1343 5.48926 31.6017 5.48926 21.7631C5.48926 13.3851 6.89583 8.856 7.75153 6.75226C8.45749 5.01232 9.27041 4 11.0032 4C12.736 4 14.4314 4.66434 14.8913 8.5291C16.2498 20.039 21.4535 26.6771 20.7476 42.6951Z" fill="white" stroke="#232323"/>
<path d="M34.1246 8.47725C34.6227 10.2331 35.967 17.0972 35.3993 23.9667C34.7525 31.812 30.6662 38.0101 30.3281 43H12.7429C12.4048 38.0101 8.31853 31.812 7.67169 23.9667C7.10932 17.0972 8.45366 10.2278 8.9464 8.47725C9.38023 6.93892 9.89975 6 10.9442 6C11.9189 6 12.6206 6.48272 12.8027 8.73718C13.2258 14.0471 13.9381 25.9984 14.2541 31.7433C14.5808 37.6367 16.8518 42.699 21.3829 42.699H21.7036C26.2293 42.699 28.4902 37.6367 28.8169 31.7433C29.1329 25.9931 29.8452 14.0471 30.2683 8.73718C30.4504 6.48272 31.1521 6 32.1268 6C33.1712 6 33.6908 6.93892 34.1246 8.47725Z" stroke="#232323" stroke-miterlimit="10"/>
<path d="M25.5129 4.98973V5.16622C23.0207 5.16622 21.566 6.67441 21.566 9.15061H21.3199C21.3199 6.65836 19.8278 5.16622 17.3623 5.16622V4.98973C19.8278 4.98973 21.3199 3.48155 21.3199 1H21.566C21.566 3.48155 23.0207 4.98973 25.5129 4.98973Z" fill="#232323"/>
<path d="M0 42.5H43" stroke="#232323" stroke-miterlimit="10"/>
</g>
<defs>
<clipPath id="clip0">
<rect width="43" height="42" fill="white" transform="translate(0 1)"/>
</clipPath>
</defs>
</svg>
