<svg width="1566" height="1358" viewBox="0 0 1566 1358" fill="none" xmlns="http://www.w3.org/2000/svg">
<path d="M1463.86 231.94C1420.32 134.344 1326.06 86.22 1225.36 110.488C1103.99 139.768 1064.11 225.905 967.39 260.769C885.903 290.134 831.428 242.195 771.912 263.057C706.767 285.936 701.721 338.904 653.853 379.248C577.251 443.791 445.522 411.763 398.078 472.637C330.424 559.413 364.02 658.353 314.496 680.447C236.455 715.264 165.734 632.886 107.82 658.724C62.6369 678.881 59.268 739.761 90.6118 810.017C110.127 853.76 151.896 947.384 158.431 962.034C199.026 1053.03 242.776 1091.46 276.443 1076.44C327.366 1053.72 361.329 984.603 402.728 966.133C444.127 947.664 506.75 919.638 559.337 959.884C631.159 1014.86 713.708 1049.78 827.383 1030.86C918.206 1015.7 987.903 965.742 1082.25 953.031C1197.44 937.513 1247.28 949.851 1307.26 923.094C1382.83 889.378 1420.46 802.144 1402.08 681.941C1386.67 581.136 1367.23 511.071 1423.45 454.94C1465.79 412.674 1518.59 354.606 1463.86 231.94Z" fill="#F4EEE7"/>
</svg>
