<svg width="448" height="293" viewBox="0 0 448 293" fill="none" xmlns="http://www.w3.org/2000/svg">
    <circle cx="439" cy="196" r="9" fill="#232323"/>
    <path d="M430 30.9851C430 30.9851 399 31.2693 399 61.9701C399 31.0988 368 30.9851 368 30.9851C368 30.9851 399 32.6338 399 0C399 32.6338 430 30.9851 430 30.9851Z" fill="#232323"/>
    <path d="M166 278.711C166 278.711 152 278.839 152 292.704C152 278.762 138 278.711 138 278.711C138 278.711 152 279.455 152 264.717C152 279.455 166 278.711 166 278.711Z" fill="#232323"/>
    <path d="M41 180.5C41 180.5 20.5 180.688 20.5 201C20.5 180.575 0 180.5 0 180.5C0 180.5 20.5 181.591 20.5 160C20.5 181.591 41 180.5 41 180.5Z" fill="#232323"/>
</svg>
