<svg width="271" height="266" viewBox="0 0 271 266" fill="none" xmlns="http://www.w3.org/2000/svg">
    <circle cx="218" cy="112" r="3" fill="#232323"/>
    <path d="M110 14.9928C110 14.9928 95 15.1303 95 29.9856C95 15.0478 80 14.9928 80 14.9928C80 14.9928 95 15.7906 95 0C95 15.7906 110 14.9928 110 14.9928Z" fill="#232323"/>
    <path d="M20.1106 255.528C20.1106 255.528 10.3894 255.617 10.3894 265.245C10.3894 255.564 0.668121 255.528 0.668121 255.528C0.668121 255.528 10.3894 256.045 10.3894 245.812C10.3894 256.045 20.1106 255.528 20.1106 255.528Z" fill="#232323"/>
    <path d="M270.803 215.09C270.803 215.09 256.946 213.087 254.837 226.791C256.958 213.011 243.129 210.83 243.129 210.83C243.129 210.83 256.853 213.696 259.095 199.13C256.853 213.696 270.803 215.09 270.803 215.09Z" fill="#232323"/>
</svg>
