<?xml version="1.0" encoding="UTF-8" standalone="no"?>
<svg
   xmlns:dc="http://purl.org/dc/elements/1.1/"
   xmlns:cc="http://creativecommons.org/ns#"
   xmlns:rdf="http://www.w3.org/1999/02/22-rdf-syntax-ns#"
   xmlns:svg="http://www.w3.org/2000/svg"
   xmlns="http://www.w3.org/2000/svg"
   xmlns:sodipodi="http://sodipodi.sourceforge.net/DTD/sodipodi-0.dtd"
   xmlns:inkscape="http://www.inkscape.org/namespaces/inkscape"
   width="427.12762"
   height="340.21252"
   viewBox="0 0 427.12762 340.21252"
   version="1.1"
   id="svg78"
   sodipodi:docname="promo_hat.svg"
   style="fill:none"
   inkscape:version="0.92.3 (2405546, 2018-03-11)">
  <metadata
     id="metadata84">
    <rdf:RDF>
      <cc:Work
         rdf:about="">
        <dc:format>image/svg+xml</dc:format>
        <dc:type
           rdf:resource="http://purl.org/dc/dcmitype/StillImage" />
        <dc:title></dc:title>
      </cc:Work>
    </rdf:RDF>
  </metadata>
  <defs
     id="defs82" />
  <sodipodi:namedview
     pagecolor="#ffffff"
     bordercolor="#666666"
     borderopacity="1"
     objecttolerance="10"
     gridtolerance="10"
     guidetolerance="10"
     inkscape:pageopacity="0"
     inkscape:pageshadow="2"
     inkscape:window-width="1920"
     inkscape:window-height="1017"
     id="namedview80"
     showgrid="false"
     inkscape:zoom="1.2664437"
     inkscape:cx="369.42944"
     inkscape:cy="200.5001"
     inkscape:window-x="-8"
     inkscape:window-y="-8"
     inkscape:window-maximized="1"
     inkscape:current-layer="svg78" />
  <path
     d="m 215.93262,150.68199 -169.920203,5.783 4.9449,145.28 169.920303,-5.783 z"
     id="path6"
     inkscape:connector-curvature="0"
     style="fill:#232323" />
  <path
     d="m 220.65562,295.49699 c -0.784,-23.044 -39.428,-40.431 -86.314,-38.835 -46.886103,1.596 -84.258803,21.57 -83.474503,44.614 0.7844,23.043 39.4287,40.43 86.314503,38.835 46.886,-1.596 84.259,-21.571 83.474,-44.614 z"
     id="path8"
     inkscape:connector-curvature="0"
     style="fill:#232323" />
  <path
     d="m 264.80962,151.34199 c -0.784,-23.044 -60.698,-39.707 -133.821,-37.218 -73.123003,2.489 -131.76518296,23.187 -130.98084296,46.231 0.78434,23.043 60.69813996,39.706 133.82084296,37.218 73.124,-2.489 131.766,-23.188 130.981,-46.231 z"
     id="path10"
     inkscape:connector-curvature="0"
     style="fill:#232323" />
  <path
     d="m 219.66862,152.87799 c -0.403,-11.867 -39.799,-20.157 -87.991,-18.517 -48.192103,1.641 -86.932303,12.59 -86.528403,24.457 0.4039,11.867 39.7989,20.157 87.991403,18.516 48.192,-1.64 86.932,-12.589 86.528,-24.456 z"
     id="path12"
     inkscape:connector-curvature="0"
     style="fill:#fbfbfb" />
  <path
     d="m 209.40562,186.85699 c -19.79,6.707 -46.746,11.309 -76.596,12.295 -31.492,1.052 -60.026703,-2.038 -80.539903,-7.955"
     stroke-miterlimit="10"
     id="path14"
     inkscape:connector-curvature="0"
     style="stroke:#fbfbfb;stroke-miterlimit:10" />
  <path
     d="m 62.482917,79.318386 c 0,0 0.074,9.364 9.9148,9.364 -9.8408,0 -9.9148,9.364 -9.9148,9.364 0,0 0.5179,-9.364 -9.9148,-9.364 10.4327,0 9.9148,-9.364 9.9148,-9.364 z"
     id="path16"
     inkscape:connector-curvature="0"
     style="fill:#232323" />
  <path
     d="m 394.07862,194.99099 c 0,0 0.082,11.017 11.016,11.017 -10.934,0 -11.016,11.016 -11.016,11.016 0,0 0.575,-11.016 -11.017,-11.016 11.592,0 11.017,-11.017 11.017,-11.017 z"
     id="path18"
     inkscape:connector-curvature="0"
     style="fill:#232323" />
  <path
     d="m 427.12762,66.098586 c 0,-2.4337 -1.973,-4.4065 -4.407,-4.4065 -2.434,0 -4.406,1.9728 -4.406,4.4065 0,2.4337 1.972,4.4066 4.406,4.4066 2.434,0 4.407,-1.9729 4.407,-4.4066 z"
     id="path20"
     inkscape:connector-curvature="0"
     style="opacity:0.8;fill:#232323" />
  <path
     d="m 424.92362,108.94799 v 51.809 c 0,2.761 -2.235,4.997 -4.996,4.997 h -114.269 c -2.761,0 -4.997,-2.236 -4.997,-4.997 v -51.809 c 0,-2.761 2.236,-4.996 4.997,-4.996 h 114.269 c 2.761,0 4.996,2.235 4.996,4.996 z"
     id="path22"
     inkscape:connector-curvature="0"
     style="fill:#232323" />
  <path
     d="m 375.94262,134.85299 c 0,-7.262 -5.887,-13.15 -13.149,-13.15 -7.263,0 -13.15,5.888 -13.15,13.15 0,7.262 5.887,13.149 13.15,13.149 7.262,0 13.149,-5.887 13.149,-13.149 z"
     stroke-miterlimit="10"
     id="path24"
     inkscape:connector-curvature="0"
     style="stroke:#fbfbfb;stroke-miterlimit:10" />
  <path
     d="m 318.08562,154.77399 c 0,-3.268 -2.65,-5.917 -5.918,-5.917 -3.268,0 -5.917,2.649 -5.917,5.917 0,3.268 2.649,5.917 5.917,5.917 3.268,0 5.918,-2.649 5.918,-5.917 z"
     stroke-miterlimit="10"
     id="path26"
     inkscape:connector-curvature="0"
     style="stroke:#fbfbfb;stroke-miterlimit:10" />
  <path
     d="m 419.33562,114.66799 c 0,-3.268 -2.649,-5.917 -5.917,-5.917 -3.268,0 -5.917,2.649 -5.917,5.917 0,3.268 2.649,5.917 5.917,5.917 3.268,0 5.917,-2.649 5.917,-5.917 z"
     stroke-miterlimit="10"
     id="path28"
     inkscape:connector-curvature="0"
     style="stroke:#fbfbfb;stroke-miterlimit:10" />
  <path
     d="m 307.23662,140.63799 v -30.243 h 92.704"
     stroke-miterlimit="10"
     id="path30"
     inkscape:connector-curvature="0"
     style="stroke:#fbfbfb;stroke-miterlimit:10" />
  <path
     d="m 418.34962,127.48899 v 31.559 h -89.416"
     stroke-miterlimit="10"
     id="path32"
     inkscape:connector-curvature="0"
     style="stroke:#fbfbfb;stroke-miterlimit:10" />
  <path
     d="m 369.69662,60.295486 v 51.808504 c 0,2.762 -2.235,4.997 -4.996,4.997 h -114.269 c -2.761,0 -4.997,-2.235 -4.997,-4.997 V 60.295486 c 0,-2.7614 2.236,-4.9968 4.997,-4.9968 h 114.269 c 2.761,0 4.996,2.2354 4.996,4.9968 z"
     id="path34"
     inkscape:connector-curvature="0"
     style="fill:#232323" />
  <path
     d="m 320.71462,86.199886 c 0,-7.2622 -5.887,-13.1494 -13.149,-13.1494 -7.262,0 -13.149,5.8872 -13.149,13.1494 0,7.2623 5.887,13.1495 13.149,13.1495 7.262,0 13.149,-5.8872 13.149,-13.1495 z"
     stroke-miterlimit="10"
     id="path36"
     inkscape:connector-curvature="0"
     style="stroke:#fbfbfb;stroke-miterlimit:10" />
  <path
     d="m 262.85762,106.12099 c 0,-3.268 -2.65,-5.917 -5.918,-5.917 -3.268,0 -5.917,2.649 -5.917,5.917 0,3.268 2.649,5.917 5.917,5.917 3.268,0 5.918,-2.649 5.918,-5.917 z"
     stroke-miterlimit="10"
     id="path38"
     inkscape:connector-curvature="0"
     style="stroke:#fbfbfb;stroke-miterlimit:10" />
  <path
     d="m 364.10862,66.015386 c 0,-3.268 -2.65,-5.9173 -5.918,-5.9173 -3.268,0 -5.917,2.6493 -5.917,5.9173 0,3.268 2.649,5.9172 5.917,5.9172 3.268,0 5.918,-2.6492 5.918,-5.9172 z"
     stroke-miterlimit="10"
     id="path40"
     inkscape:connector-curvature="0"
     style="stroke:#fbfbfb;stroke-miterlimit:10" />
  <path
     d="m 252.00962,91.985486 v -30.2437 h 92.704"
     stroke-miterlimit="10"
     id="path42"
     inkscape:connector-curvature="0"
     style="stroke:#fbfbfb;stroke-miterlimit:10" />
  <path
     d="m 363.12262,78.836086 v 31.558904 h -89.416"
     stroke-miterlimit="10"
     id="path44"
     inkscape:connector-curvature="0"
     style="stroke:#fbfbfb;stroke-miterlimit:10" />
  <path
     d="m 277.45362,2.5036157 25.904,44.9053703 c 1.381,2.3669 0.526,5.457 -1.841,6.8376 l -99.015,57.068404 c -2.367,1.381 -5.457,0.526 -6.838,-1.841 l -25.904,-44.905004 c -1.381,-2.3669 -0.526,-5.457 1.841,-6.8377 l 99.015,-57.06863035 c 2.367,-1.380692 5.457,-0.525948 6.838,1.84096005 z"
     id="path46"
     inkscape:connector-curvature="0"
     style="fill:#232323" />
  <path
     d="m 249.70862,55.956086 c 0,-7.2622 -5.888,-13.1494 -13.15,-13.1494 -7.262,0 -13.149,5.8872 -13.149,13.1495 0,7.2622 5.887,13.1494 13.149,13.1494 7.262,0 13.15,-5.8872 13.15,-13.1495 z"
     stroke-miterlimit="10"
     id="path48"
     inkscape:connector-curvature="0"
     style="stroke:#fbfbfb;stroke-miterlimit:10" />
  <path
     d="m 208.55062,98.494486 c 0,-3.268 -2.649,-5.9173 -5.917,-5.9173 -3.268,0 -5.918,2.6493 -5.918,5.9173 0,3.268504 2.65,5.917504 5.918,5.917504 3.268,0 5.917,-2.649 5.917,-5.917504 z"
     stroke-miterlimit="10"
     id="path50"
     inkscape:connector-curvature="0"
     style="stroke:#fbfbfb;stroke-miterlimit:10" />
  <path
     d="m 276.20362,13.154686 c 0,-3.2680503 -2.649,-5.9172903 -5.917,-5.9172903 -3.268,0 -5.917,2.64924 -5.917,5.9172903 0,3.268 2.649,5.9172 5.917,5.9172 3.268,0 5.917,-2.6492 5.917,-5.9172 z"
     stroke-miterlimit="10"
     id="path52"
     inkscape:connector-curvature="0"
     style="stroke:#fbfbfb;stroke-miterlimit:10" />
  <path
     d="m 191.25862,88.698086 -15.056,-26.1673 80.277,-46.3518"
     stroke-miterlimit="10"
     id="path54"
     inkscape:connector-curvature="0"
     style="stroke:#fbfbfb;stroke-miterlimit:10" />
  <path
     d="m 281.00362,21.833386 15.713,27.3508 -77.45,44.6423"
     stroke-miterlimit="10"
     id="path56"
     inkscape:connector-curvature="0"
     style="stroke:#fbfbfb;stroke-miterlimit:10" />
  <path
     d="m 133.20362,16.376286 51.283,7.561 c 2.762,0.3944 4.602,2.9586 4.208,5.6542 l -16.634,113.019504 c -0.395,2.761 -2.959,4.602 -5.654,4.208 l -51.283,-7.561 c -2.761,-0.395 -4.602,-2.959 -4.208,-5.654 l 16.634,-113.019804 c 0.395,-2.6957 2.893,-4.6023 5.654,-4.2079 z"
     id="path58"
     inkscape:connector-curvature="0"
     style="fill:#232323" />
  <path
     d="m 162.92162,81.597586 c 0,-7.2622 -5.887,-13.1494 -13.149,-13.1494 -7.263,0 -13.15,5.8872 -13.15,13.1494 0,7.2623 5.887,13.1495 13.15,13.1495 7.262,0 13.149,-5.8872 13.149,-13.1495 z"
     stroke-miterlimit="10"
     id="path60"
     inkscape:connector-curvature="0"
     style="stroke:#fbfbfb;stroke-miterlimit:10" />
  <path
     d="m 167.98462,134.58999 c 0,-3.268 -2.649,-5.917 -5.917,-5.917 -3.268,0 -5.918,2.649 -5.918,5.917 0,3.268 2.65,5.917 5.918,5.917 3.268,0 5.917,-2.649 5.917,-5.917 z"
     stroke-miterlimit="10"
     id="path62"
     inkscape:connector-curvature="0"
     style="stroke:#fbfbfb;stroke-miterlimit:10" />
  <path
     d="m 143.06662,28.605286 c 0,-3.268 -2.65,-5.9172 -5.918,-5.9172 -3.268,0 -5.917,2.6492 -5.917,5.9172 0,3.268 2.649,5.9173 5.917,5.9173 3.268,0 5.918,-2.6493 5.918,-5.9173 z"
     stroke-miterlimit="10"
     id="path64"
     inkscape:connector-curvature="0"
     style="stroke:#fbfbfb;stroke-miterlimit:10" />
  <path
     d="m 147.33962,137.41699 -29.915,-4.405 13.544,-91.717404"
     stroke-miterlimit="10"
     id="path66"
     inkscape:connector-curvature="0"
     style="stroke:#fbfbfb;stroke-miterlimit:10" />
  <path
     d="m 150.56062,25.580986 31.23,4.6023 -13.084,88.429704"
     stroke-miterlimit="10"
     id="path68"
     inkscape:connector-curvature="0"
     style="stroke:#fbfbfb;stroke-miterlimit:10" />
  <path
     d="m 9.838917,127.79099 c 0,0 -14.26315,-49.057204 26.2043,-77.662904 35.0939,-24.7916 72.708403,-8.5489 72.708403,-8.5489"
     stroke-miterlimit="10"
     id="path70"
     inkscape:connector-curvature="0"
     style="stroke:#232323;stroke-miterlimit:10" />
  <path
     d="m 23.413817,127.79099 c 0,0 -12.0643,-47.025704 28.2371,-64.790904 22.1723,-9.7317 42.7795,3.8535 42.7795,3.8535"
     stroke-miterlimit="10"
     id="path72"
     inkscape:connector-curvature="0"
     style="stroke:#1f1f1f;stroke-miterlimit:10" />
  <path
     d="m 367.63862,175.16199 c 0,0 -8.595,50.151 -57.15,58.411 -42.06,7.146 -68.437,-23.6 -68.437,-23.6"
     stroke-miterlimit="10"
     id="path74"
     inkscape:connector-curvature="0"
     style="stroke:#232323;stroke-miterlimit:10" />
  <path
     d="m 356.62162,169.65299 c 0,0 -9.814,49.01 -54.882,47.329 -24.77,-0.941 -37.656,-22.79 -37.656,-22.79"
     stroke-miterlimit="10"
     id="path76"
     inkscape:connector-curvature="0"
     style="stroke:#232323;stroke-miterlimit:10" />
</svg>
