<svg width="1318" height="1025" viewBox="0 0 1318 1025" fill="none" xmlns="http://www.w3.org/2000/svg">
    <path d="M1024.6 160.626C988.249 93.3179 918.365 64.0636 847.798 86.8293C762.755 114.289 738.945 177.927 671.79 208.041C615.214 233.406 573.74 202.133 532.386 220.241C487.123 240.093 486.385 278.173 454.399 309.557C403.211 359.767 307.455 344.027 276.881 390.043C233.282 455.638 262.61 524.444 228.455 542.891C174.634 571.961 119.701 516.985 79.7601 538.558C48.5991 555.388 49.4854 599.025 75.6557 647.478C91.9498 677.646 126.824 742.215 132.281 752.318C166.176 815.072 199.482 840.142 222.7 827.601C257.82 808.633 278.325 757.459 306.877 742.038C335.428 726.617 378.612 703.228 418.323 729.112C472.56 764.473 533.369 784.935 613.485 765.284C677.493 749.553 724.54 710.126 791.193 695.954C872.577 678.65 908.821 684.762 950.183 662.422C1002.3 634.271 1024.44 569.971 1004.83 485.167C988.379 414.047 970.719 365.087 1007.82 321.983C1035.75 289.526 1070.3 245.224 1024.6 160.626Z" fill="#F4EEE7"/>
</svg>
