<svg width="384" height="254" viewBox="0 0 384 254" fill="none" xmlns="http://www.w3.org/2000/svg" shape-rendering="geometricPrecision">
<line y1="-0.5" x2="384.001" y2="-0.5" transform="matrix(0.999997 -0.00260416 0 1 0 253.5)" stroke="#232323"/>
<path fill-rule="evenodd" clip-rule="evenodd" d="M184.326 196.565L157.271 196.965C156.929 173.843 114.908 141.363 114.173 91.5021C113.547 49.0545 122.136 25.4088 127.942 14.5831C132.436 6.20652 137.143 1.13039 145.791 1.00279C155.485 0.859748 161.679 6.17962 164.407 23.6781C173.453 81.6972 195.677 122.55 184.326 196.565Z" fill="#EADDCF"/>
<path d="M184.326 196.565L157.271 196.965C156.929 173.843 114.908 141.363 114.173 91.5021C113.547 49.0545 122.136 25.4088 127.942 14.5831C132.436 6.20652 137.143 1.13039 145.791 1.00279C155.485 0.859748 161.679 6.17962 164.407 23.6781C173.453 81.6972 195.677 122.55 184.326 196.565" stroke="#232323"/>
<path fill-rule="evenodd" clip-rule="evenodd" d="M184.326 196.565L157.271 196.965C156.929 173.843 114.908 141.363 114.173 91.5021C113.547 49.0545 122.136 25.4088 127.942 14.5831C132.436 6.20652 137.143 1.13039 145.791 1.00279C155.485 0.859748 161.679 6.17962 164.407 23.6781C173.453 81.6972 195.677 122.55 184.326 196.565Z" fill="#EADDCF" stroke="#232323"/>
<path fill-rule="evenodd" clip-rule="evenodd" d="M167.914 200.426C167.535 174.746 129.244 143.098 125.272 101.931C121.938 67.3787 132.021 33.9403 134.362 25.079C136.419 17.2924 139.536 11.7269 145.055 11.7949C149.909 11.8545 153.215 15.8385 154.063 25.8325C156.33 52.5632 158.558 94.4597 161.765 123.273C165.204 154.175 172.025 191.888 182.724 204.26" fill="#232323"/>
<path d="M167.914 200.426C167.535 174.746 129.244 143.098 125.272 101.931C121.938 67.3787 132.021 33.9403 134.362 25.079C136.419 17.2924 139.536 11.7269 145.055 11.7949C149.909 11.8545 153.215 15.8385 154.063 25.8325C156.33 52.5632 158.558 94.4597 161.765 123.273C165.204 154.175 172.025 191.888 182.724 204.26" stroke="#232323"/>
<path fill-rule="evenodd" clip-rule="evenodd" d="M167.914 200.426C167.535 174.746 129.244 143.098 125.272 101.931C121.938 67.3787 132.021 33.9403 134.362 25.079C136.419 17.2924 139.536 11.7269 145.055 11.7949C149.909 11.8545 153.215 15.8385 154.063 25.8325C156.33 52.5632 158.558 94.4597 161.765 123.273C165.204 154.175 172.025 191.888 182.724 204.26" fill="#FBFBFB"/>
<path d="M167.914 200.426C167.535 174.746 129.244 143.098 125.272 101.931C121.938 67.3787 132.021 33.9403 134.362 25.079C136.419 17.2924 139.536 11.7269 145.055 11.7949C149.909 11.8545 153.215 15.8385 154.063 25.8325C156.33 52.5632 158.558 94.4597 161.765 123.273C165.204 154.175 172.025 191.888 182.724 204.26" stroke="#232323"/>
<path fill-rule="evenodd" clip-rule="evenodd" d="M198.517 196.565L225.572 196.965C225.913 173.843 267.934 141.363 268.67 91.5021C269.295 49.0545 260.707 25.4088 254.9 14.5831C250.407 6.20652 245.7 1.13039 237.051 1.00279C227.357 0.859748 221.163 6.17962 218.435 23.6781C209.389 81.6972 187.165 122.55 198.517 196.565Z" fill="#EDE1D2"/>
<path d="M198.517 196.565L225.572 196.965C225.913 173.843 267.934 141.363 268.67 91.5021C269.295 49.0545 260.707 25.4088 254.9 14.5831C250.407 6.20652 245.7 1.13039 237.051 1.00279C227.357 0.859748 221.163 6.17962 218.435 23.6781C209.389 81.6972 187.165 122.55 198.517 196.565" stroke="#232323"/>
<path fill-rule="evenodd" clip-rule="evenodd" d="M198.517 196.565L225.572 196.965C225.913 173.843 267.934 141.363 268.67 91.5021C269.295 49.0545 260.707 25.4088 254.9 14.5831C250.407 6.20652 245.7 1.13039 237.051 1.00279C227.357 0.859748 221.163 6.17962 218.435 23.6781C209.389 81.6972 187.165 122.55 198.517 196.565Z" fill="#EADDCF" stroke="#232323"/>
<path fill-rule="evenodd" clip-rule="evenodd" d="M214.929 200.426C215.308 174.746 253.598 143.098 257.571 101.931C260.905 67.3787 250.821 33.9403 248.481 25.079C246.424 17.2924 243.308 11.7269 237.788 11.7949C232.934 11.8545 229.627 15.8385 228.78 25.8325C226.512 52.5632 224.285 94.4597 221.078 123.273C217.639 154.175 210.818 191.888 200.119 204.26" fill="#232323"/>
<path d="M214.929 200.426C215.308 174.746 253.598 143.098 257.571 101.931C260.905 67.3787 250.821 33.9403 248.481 25.079C246.424 17.2924 243.308 11.7269 237.788 11.7949C232.934 11.8545 229.627 15.8385 228.78 25.8325C226.512 52.5632 224.285 94.4597 221.078 123.273C217.639 154.175 210.818 191.888 200.119 204.26" stroke="#232323"/>
<path fill-rule="evenodd" clip-rule="evenodd" d="M214.929 200.426C215.308 174.746 253.598 143.098 257.571 101.931C260.905 67.3787 250.821 33.9403 248.481 25.079C246.424 17.2924 243.308 11.7269 237.788 11.7949C232.934 11.8545 229.627 15.8385 228.78 25.8325C226.512 52.5632 224.285 94.4597 221.078 123.273C217.639 154.175 210.818 191.888 200.119 204.26" fill="#FBFBFB"/>
<path d="M214.929 200.426C215.308 174.746 253.598 143.098 257.571 101.931C260.905 67.3787 250.821 33.9403 248.481 25.079C246.424 17.2924 243.308 11.7269 237.788 11.7949C232.934 11.8545 229.627 15.8385 228.78 25.8325C226.512 52.5632 224.285 94.4597 221.078 123.273C217.639 154.175 210.818 191.888 200.119 204.26" stroke="#232323"/>
<path fill-rule="evenodd" clip-rule="evenodd" d="M73 252.762C73 237.982 84.9815 226 99.7618 226C114.542 226 126.524 237.982 126.524 252.762H73Z" fill="#FBFBFB" stroke="#232323"/>
<path fill-rule="evenodd" clip-rule="evenodd" d="M87.6078 238.043V253.208V238.043Z" fill="#BA9E82"/>
<path d="M87.6078 238.043V253.208" stroke="#232323"/>
<path fill-rule="evenodd" clip-rule="evenodd" d="M99.7621 238.043V253.208V238.043Z" fill="#BA9E82"/>
<path d="M99.7621 238.043V253.208" stroke="#232323"/>
<path fill-rule="evenodd" clip-rule="evenodd" d="M111.916 238.043V253.208V238.043Z" fill="#BA9E82"/>
<path d="M111.916 238.043V253.208" stroke="#232323"/>
<path fill-rule="evenodd" clip-rule="evenodd" d="M256.318 252.762C256.318 237.982 268.3 226 283.08 226C297.86 226 309.842 237.982 309.842 252.762H256.318Z" fill="#FBFBFB" stroke="#232323"/>
<path fill-rule="evenodd" clip-rule="evenodd" d="M270.926 238.043V253.208V238.043Z" fill="#FBFBFB"/>
<path d="M270.926 238.043V253.208" stroke="#232323"/>
<path fill-rule="evenodd" clip-rule="evenodd" d="M283.08 238.043V253.208V238.043Z" fill="#FBFBFB"/>
<path d="M283.08 238.043V253.208" stroke="#232323"/>
<path fill-rule="evenodd" clip-rule="evenodd" d="M295.235 238.043V253.208V238.043Z" fill="#FBFBFB"/>
<path d="M295.235 238.043V253.208" stroke="#232323"/>
<path fill-rule="evenodd" clip-rule="evenodd" d="M126.747 252.709C126.747 216.991 155.703 188.035 191.421 188.035C227.139 188.035 256.095 216.991 256.095 252.709H126.747Z" fill="#EADDCF" stroke="#FBFBFB"/>
<path fill-rule="evenodd" clip-rule="evenodd" d="M126.747 252.709C126.747 216.991 155.703 188.035 191.421 188.035C227.139 188.035 256.095 216.991 256.095 252.709H126.747Z" stroke="#232323"/>
<path fill-rule="evenodd" clip-rule="evenodd" d="M185.407 217.888C185.407 220.762 183.077 223.092 180.203 223.092C177.329 223.092 175 220.762 175 217.888C175 215.014 177.329 212.685 180.203 212.685C183.077 212.685 185.407 215.014 185.407 217.888Z" fill="white"/>
<path d="M185.407 217.888C185.407 220.762 183.077 223.092 180.203 223.092C177.329 223.092 175 220.762 175 217.888C175 215.014 177.329 212.685 180.203 212.685C183.077 212.685 185.407 215.014 185.407 217.888" stroke="#232323"/>
<path d="M165.112 241.856C165.112 241.856 179.98 238.86 179.98 223.42" stroke="#232323"/>
<path d="M195.145 241.559C195.145 241.559 180.277 238.563 180.277 223.123" stroke="#232323"/>
<path fill-rule="evenodd" clip-rule="evenodd" d="M185.407 217.888C185.407 220.762 183.077 223.092 180.203 223.092C177.329 223.092 175 220.762 175 217.888C175 215.014 177.329 212.685 180.203 212.685C183.077 212.685 185.407 215.014 185.407 217.888Z" fill="#FBFBFB" stroke="#232323"/>
<path fill-rule="evenodd" clip-rule="evenodd" d="M210.35 218.2C210.336 223.268 206.216 227.364 201.15 227.35C196.082 227.336 191.986 223.216 192 218.149C192.014 213.082 196.133 208.986 201.201 209C206.268 209.014 210.364 213.133 210.35 218.2Z" fill="#232323" stroke="#FBFBFB"/>
<mask id="mask0" mask-type="alpha" maskUnits="userSpaceOnUse" x="192" y="208" width="19" height="20">
<path fill-rule="evenodd" clip-rule="evenodd" d="M192 218.149C191.986 223.216 196.082 227.336 201.149 227.35C206.217 227.364 210.336 223.268 210.35 218.201C210.364 213.133 206.268 209.014 201.201 209C201.192 209 201.183 209 201.175 209C196.12 209 192.014 213.091 192 218.149Z" fill="white"/>
</mask>
<g mask="url(#mask0)">
<path fill-rule="evenodd" clip-rule="evenodd" d="M216.939 233.981L200.8 233.936L200.887 202.764L217.026 202.809L216.939 233.981Z" fill="#FBFBFB"/>
</g>
<path fill-rule="evenodd" clip-rule="evenodd" d="M167.564 218.2C167.55 223.268 163.43 227.364 158.364 227.35C153.296 227.336 149.2 223.216 149.214 218.149C149.228 213.082 153.347 208.986 158.414 209C163.482 209.014 167.578 213.133 167.564 218.2Z" fill="#232323" stroke="#FBFBFB"/>
<mask id="mask1" mask-type="alpha" maskUnits="userSpaceOnUse" x="145" y="205" width="26" height="26">
<path fill-rule="evenodd" clip-rule="evenodd" d="M166.108 223.071C168.654 218.69 167.166 213.074 162.785 210.529C158.403 207.983 152.788 209.471 150.242 213.852C147.696 218.233 149.184 223.849 153.565 226.394C153.573 226.399 153.58 226.403 153.588 226.408C157.966 228.934 163.566 227.445 166.108 223.071Z" fill="white"/>
</mask>
<g mask="url(#mask1)">
<path fill-rule="evenodd" clip-rule="evenodd" d="M157.881 205L174.02 205.045L173.933 236.218L157.794 236.173L157.881 205Z" fill="#FBFBFB"/>
</g>
<path fill-rule="evenodd" clip-rule="evenodd" d="M167.564 218.2C167.55 223.268 163.43 227.364 158.364 227.35C153.296 227.336 149.2 223.216 149.214 218.149C149.228 213.082 153.347 208.986 158.414 209C163.482 209.014 167.578 213.133 167.564 218.2Z" stroke="#232323"/>
<path d="M152.604 241.056C165.283 241.172 175.647 230.107 175.754 216.343C175.86 202.578 165.669 191.326 152.991 191.21C140.312 191.094 129.948 202.158 129.841 215.923C129.734 229.688 139.926 240.94 152.604 241.056Z" stroke="#FF592C" stroke-miterlimit="10"/>
<path d="M207.549 241.558C220.227 241.674 230.592 230.609 230.699 216.844C230.805 203.08 220.614 191.827 207.935 191.711C195.257 191.596 184.893 202.66 184.786 216.425C184.679 230.19 194.871 241.442 207.549 241.558Z" stroke="#FF592C" stroke-miterlimit="10"/>
<path d="M175.551 218.179L184.96 218.265" stroke="#FF592C" stroke-miterlimit="10"/>
<path d="M230.698 216.844C230.698 216.844 255.647 202.771 262.07 199.561C268.493 196.351 273.73 200.485 274.448 204.986" stroke="#FF592C" stroke-miterlimit="10"/>
<path d="M129.844 215.516L142 210.635" stroke="#FF592C" stroke-miterlimit="10"/>
</svg>
