<svg width="384" height="254" viewBox="0 0 384 254" fill="none" xmlns="http://www.w3.org/2000/svg">
<path fill-rule="evenodd" clip-rule="evenodd" d="M185.326 196.565L158.271 196.965C157.929 173.843 115.908 141.363 115.173 91.5021C114.547 49.0545 123.136 25.4088 128.942 14.5831C133.436 6.20652 138.143 1.13039 146.791 1.00279C156.485 0.859748 162.679 6.17962 165.407 23.6781C174.453 81.6972 196.677 122.55 185.326 196.565Z" fill="#EADDCF"/>
<path d="M185.326 196.565L158.271 196.965C157.929 173.843 115.908 141.363 115.173 91.5021C114.547 49.0545 123.136 25.4088 128.942 14.5831C133.436 6.20652 138.143 1.13039 146.791 1.00279C156.485 0.859748 162.679 6.17962 165.407 23.6781C174.453 81.6972 196.677 122.55 185.326 196.565" stroke="#232323"/>
<path fill-rule="evenodd" clip-rule="evenodd" d="M185.326 196.565L158.271 196.965C157.929 173.843 115.908 141.363 115.173 91.5021C114.547 49.0545 123.136 25.4088 128.942 14.5831C133.436 6.20652 138.143 1.13039 146.791 1.00279C156.485 0.859748 162.679 6.17962 165.407 23.6781C174.453 81.6972 196.677 122.55 185.326 196.565Z" fill="#232323" stroke="#232323"/>
<path fill-rule="evenodd" clip-rule="evenodd" d="M168.914 200.426C168.535 174.746 130.244 143.098 126.272 101.931C122.938 67.3787 133.021 33.9403 135.362 25.079C137.419 17.2924 140.536 11.7269 146.055 11.7949C150.909 11.8545 154.215 15.8385 155.063 25.8325C157.33 52.5632 159.558 94.4597 162.765 123.273C166.204 154.175 173.025 191.888 183.724 204.26" fill="#5835FF"/>
<path d="M168.914 200.426C168.535 174.746 130.244 143.098 126.272 101.931C122.938 67.3787 133.021 33.9403 135.362 25.079C137.419 17.2924 140.536 11.7269 146.055 11.7949C150.909 11.8545 154.215 15.8385 155.063 25.8325C157.33 52.5632 159.558 94.4597 162.765 123.273C166.204 154.175 173.025 191.888 183.724 204.26" stroke="#FBFBFB"/>
<path fill-rule="evenodd" clip-rule="evenodd" d="M168.914 200.426C168.535 174.746 130.244 143.098 126.272 101.931C122.938 67.3787 133.021 33.9403 135.362 25.079C137.419 17.2924 140.536 11.7269 146.055 11.7949C150.909 11.8545 154.215 15.8385 155.063 25.8325C157.33 52.5632 159.558 94.4597 162.765 123.273C166.204 154.175 173.025 191.888 183.724 204.26" fill="#5835FF"/>
<path d="M168.914 200.426C168.535 174.746 130.244 143.098 126.272 101.931C122.938 67.3787 133.021 33.9403 135.362 25.079C137.419 17.2924 140.536 11.7269 146.055 11.7949C150.909 11.8545 154.215 15.8385 155.063 25.8325C157.33 52.5632 159.558 94.4597 162.765 123.273C166.204 154.175 173.025 191.888 183.724 204.26" stroke="#FBFBFB"/>
<path fill-rule="evenodd" clip-rule="evenodd" d="M199.517 196.565L226.572 196.965C226.913 173.843 268.934 141.363 269.67 91.5021C270.295 49.0545 261.707 25.4088 255.9 14.5831C251.407 6.20652 246.7 1.13039 238.051 1.00279C228.357 0.859748 222.163 6.17962 219.435 23.6781C210.389 81.6972 188.165 122.55 199.517 196.565Z" fill="#EDE1D2"/>
<path d="M199.517 196.565L226.572 196.965C226.913 173.843 268.934 141.363 269.67 91.5021C270.295 49.0545 261.707 25.4088 255.9 14.5831C251.407 6.20652 246.7 1.13039 238.051 1.00279C228.357 0.859748 222.163 6.17962 219.435 23.6781C210.389 81.6972 188.165 122.55 199.517 196.565" stroke="#232323"/>
<path fill-rule="evenodd" clip-rule="evenodd" d="M199.517 196.565L226.572 196.965C226.913 173.843 268.934 141.363 269.67 91.5021C270.295 49.0545 261.707 25.4088 255.9 14.5831C251.407 6.20652 246.7 1.13039 238.051 1.00279C228.357 0.859748 222.163 6.17962 219.435 23.6781C210.389 81.6972 188.165 122.55 199.517 196.565Z" fill="#232323" stroke="#232323"/>
<path fill-rule="evenodd" clip-rule="evenodd" d="M215.929 200.426C216.308 174.746 254.598 143.098 258.571 101.931C261.905 67.3787 251.821 33.9403 249.48 25.079C247.423 17.2924 244.307 11.7269 238.787 11.7949C233.933 11.8545 230.627 15.8385 229.779 25.8325C227.512 52.5632 225.284 94.4597 222.078 123.273C218.639 154.175 211.818 191.888 201.119 204.26" fill="#5835FF"/>
<path d="M215.929 200.426C216.308 174.746 254.598 143.098 258.571 101.931C261.905 67.3787 251.821 33.9403 249.48 25.079C247.423 17.2924 244.307 11.7269 238.787 11.7949C233.933 11.8545 230.627 15.8385 229.779 25.8325C227.512 52.5632 225.284 94.4597 222.078 123.273C218.639 154.175 211.818 191.888 201.119 204.26" stroke="#FBFBFB"/>
<path d="M215.929 200.426C216.308 174.746 254.598 143.098 258.571 101.931C261.905 67.3787 251.821 33.9403 249.48 25.079C247.423 17.2924 244.307 11.7269 238.787 11.7949C233.933 11.8545 230.627 15.8385 229.779 25.8325C227.512 52.5632 225.284 94.4597 222.078 123.273C218.639 154.175 211.818 191.888 201.119 204.26" stroke="#FBFBFB"/>
<path fill-rule="evenodd" clip-rule="evenodd" d="M74 252.762C74 237.982 85.9815 226 100.762 226C115.542 226 127.524 237.982 127.524 252.762H74Z" fill="#232323" stroke="#232323"/>
<path fill-rule="evenodd" clip-rule="evenodd" d="M88.6078 238.043V253.208V238.043Z" fill="#232323"/>
<path d="M88.6078 238.043V253.208" stroke="#FBFBFB"/>
<path fill-rule="evenodd" clip-rule="evenodd" d="M100.762 238.043V253.208V238.043Z" fill="#232323"/>
<path d="M100.762 238.043V253.208" stroke="#FBFBFB"/>
<path fill-rule="evenodd" clip-rule="evenodd" d="M112.916 238.043V253.208V238.043Z" fill="#232323"/>
<path d="M112.916 238.043V253.208" stroke="#FBFBFB"/>
<path fill-rule="evenodd" clip-rule="evenodd" d="M257.318 252.762C257.318 237.982 269.3 226 284.08 226C298.86 226 310.842 237.982 310.842 252.762H257.318Z" fill="#232323" stroke="#232323"/>
<path fill-rule="evenodd" clip-rule="evenodd" d="M271.926 238.043V253.208V238.043Z" fill="#232323"/>
<path d="M271.926 238.043V253.208" stroke="#F4EEE7"/>
<path fill-rule="evenodd" clip-rule="evenodd" d="M284.08 238.043V253.208V238.043Z" fill="#232323"/>
<path d="M284.08 238.043V253.208" stroke="#F4EEE7"/>
<path fill-rule="evenodd" clip-rule="evenodd" d="M296.235 238.043V253.208V238.043Z" fill="#232323"/>
<path d="M296.235 238.043V253.208" stroke="#F4EEE7"/>
<path fill-rule="evenodd" clip-rule="evenodd" d="M127.747 252.709C127.747 216.991 156.703 188.035 192.421 188.035C228.139 188.035 257.095 216.991 257.095 252.709H127.747Z" fill="#232323" stroke="#FBFBFB"/>
<path fill-rule="evenodd" clip-rule="evenodd" d="M127.747 252.709C127.747 216.991 156.703 188.035 192.421 188.035C228.139 188.035 257.095 216.991 257.095 252.709H127.747Z" stroke="#232323"/>
<path fill-rule="evenodd" clip-rule="evenodd" d="M186.406 217.888C186.406 220.762 184.077 223.092 181.203 223.092C178.329 223.092 175.999 220.762 175.999 217.888C175.999 215.014 178.329 212.685 181.203 212.685C184.077 212.685 186.406 215.014 186.406 217.888Z" fill="white"/>
<path d="M186.406 217.888C186.406 220.762 184.077 223.092 181.203 223.092C178.329 223.092 175.999 220.762 175.999 217.888C175.999 215.014 178.329 212.685 181.203 212.685C184.077 212.685 186.406 215.014 186.406 217.888" stroke="#232323"/>
<path d="M166.112 241.856C166.112 241.856 180.98 238.86 180.98 223.42" stroke="#FBFBFB"/>
<path d="M196.145 241.559C196.145 241.559 181.277 238.563 181.277 223.123" stroke="#FBFBFB"/>
<path fill-rule="evenodd" clip-rule="evenodd" d="M186.406 217.888C186.406 220.762 184.077 223.092 181.203 223.092C178.329 223.092 175.999 220.762 175.999 217.888C175.999 215.014 178.329 212.685 181.203 212.685C184.077 212.685 186.406 215.014 186.406 217.888Z" fill="#232323" stroke="#FBFBFB"/>
<line y1="-0.5" x2="384.001" y2="-0.5" transform="matrix(0.999997 -0.00260416 0 1 0 253.5)" stroke="#232323"/>
<path fill-rule="evenodd" clip-rule="evenodd" d="M150 218.436C150.015 213.369 154.134 209.273 159.201 209.287C164.268 209.301 168.364 213.42 168.35 218.487C168.336 223.555 164.217 227.651 159.15 227.637C154.082 227.622 149.986 223.503 150 218.436Z" fill="#232323" stroke="#FBFBFB"/>
<mask id="mask0" mask-type="alpha" maskUnits="userSpaceOnUse" x="150" y="209" width="19" height="19">
<path fill-rule="evenodd" clip-rule="evenodd" d="M168.35 218.487C168.364 213.42 164.268 209.301 159.201 209.287C154.134 209.272 150.015 213.369 150 218.436C149.986 223.503 154.082 227.622 159.15 227.636C159.159 227.636 159.167 227.637 159.176 227.637C164.23 227.636 168.336 223.546 168.35 218.487Z" fill="white"/>
</mask>
<g mask="url(#mask0)">
<path fill-rule="evenodd" clip-rule="evenodd" d="M159.551 202.655L175.69 202.7L175.603 233.873L159.464 233.828L159.551 202.655Z" fill="#FBFBFB"/>
</g>
<path fill-rule="evenodd" clip-rule="evenodd" d="M192.786 218.436C192.801 213.369 196.92 209.273 201.987 209.287C207.054 209.301 211.151 213.42 211.136 218.487C211.122 223.555 207.003 227.651 201.936 227.637C196.869 227.622 192.772 223.503 192.786 218.436Z" fill="#232323" stroke="#FBFBFB"/>
<mask id="mask1" mask-type="alpha" maskUnits="userSpaceOnUse" x="193" y="209" width="19" height="19">
<path fill-rule="evenodd" clip-rule="evenodd" d="M211.35 218.201C211.364 213.133 207.268 209.014 202.201 209C197.134 208.986 193.015 213.082 193 218.149C192.986 223.216 197.082 227.336 202.15 227.35C202.159 227.35 202.167 227.35 202.176 227.35C207.23 227.349 211.336 223.259 211.35 218.201Z" fill="white"/>
</mask>
<g mask="url(#mask1)">
<path fill-rule="evenodd" clip-rule="evenodd" d="M202.551 202.368L218.69 202.413L218.603 233.586L202.464 233.541L202.551 202.368Z" fill="#FBFBFB"/>
</g>
</svg>
