<svg width="384" height="254" viewBox="0 0 384 254" fill="none" xmlns="http://www.w3.org/2000/svg" shape-rendering="geometricPrecision">
<path fill-rule="evenodd" clip-rule="evenodd" d="M185.326 196.565L158.271 196.965C157.929 173.843 115.908 141.363 115.173 91.5021C114.547 49.0545 123.136 25.4088 128.942 14.5831C133.436 6.20652 138.143 1.13039 146.791 1.00279C156.485 0.859748 162.679 6.17962 165.407 23.6781C174.453 81.6972 196.677 122.55 185.326 196.565Z" fill="#EADDCF"/>
<path d="M185.326 196.565L158.271 196.965C157.929 173.843 115.908 141.363 115.173 91.5021C114.547 49.0545 123.136 25.4088 128.942 14.5831C133.436 6.20652 138.143 1.13039 146.791 1.00279C156.485 0.859748 162.679 6.17962 165.407 23.6781C174.453 81.6972 196.677 122.55 185.326 196.565" stroke="#232323"/>
<path fill-rule="evenodd" clip-rule="evenodd" d="M185.326 196.565L158.271 196.965C157.929 173.843 115.908 141.363 115.173 91.5021C114.547 49.0545 123.136 25.4088 128.942 14.5831C133.436 6.20652 138.143 1.13039 146.791 1.00279C156.485 0.859748 162.679 6.17962 165.407 23.6781C174.453 81.6972 196.677 122.55 185.326 196.565Z" fill="#665747" stroke="#232323"/>
<path fill-rule="evenodd" clip-rule="evenodd" d="M168.913 200.426C168.534 174.746 130.244 143.098 126.271 101.931C122.937 67.3787 133.021 33.9403 135.362 25.0789C137.419 17.2923 140.535 11.7269 146.055 11.7948C150.909 11.8545 154.215 15.8384 155.063 25.8325C157.33 52.5632 159.558 94.4596 162.765 123.273C166.204 154.174 173.025 191.887 183.723 204.26" fill="#F4EEE7"/>
<path d="M168.913 200.426C168.534 174.746 130.244 143.098 126.271 101.931C122.937 67.3787 133.021 33.9403 135.362 25.0789C137.419 17.2923 140.535 11.7269 146.055 11.7948C150.909 11.8545 154.215 15.8384 155.063 25.8325C157.33 52.5632 159.558 94.4596 162.765 123.273C166.204 154.174 173.025 191.887 183.723 204.26" stroke="#232323"/>
<path fill-rule="evenodd" clip-rule="evenodd" d="M168.913 200.426C168.534 174.746 130.244 143.098 126.271 101.931C122.937 67.3787 133.021 33.9403 135.362 25.0789C137.419 17.2923 140.535 11.7269 146.055 11.7948C150.909 11.8545 154.215 15.8384 155.063 25.8325C157.33 52.5632 159.558 94.4596 162.765 123.273C166.204 154.174 173.025 191.887 183.723 204.26" fill="#F4EEE7"/>
<path d="M168.913 200.426C168.534 174.746 130.244 143.098 126.271 101.931C122.937 67.3787 133.021 33.9403 135.362 25.0789C137.419 17.2923 140.535 11.7269 146.055 11.7948C150.909 11.8545 154.215 15.8384 155.063 25.8325C157.33 52.5632 159.558 94.4596 162.765 123.273C166.204 154.174 173.025 191.887 183.723 204.26" stroke="#FBFBFB"/>
<path fill-rule="evenodd" clip-rule="evenodd" d="M199.517 196.565L226.572 196.965C226.913 173.843 268.934 141.363 269.67 91.5021C270.295 49.0545 261.707 25.4088 255.9 14.5831C251.407 6.20652 246.7 1.13039 238.051 1.00279C228.357 0.859748 222.163 6.17962 219.435 23.6781C210.389 81.6972 188.165 122.55 199.517 196.565Z" fill="#EDE1D2"/>
<path d="M199.517 196.565L226.572 196.965C226.913 173.843 268.934 141.363 269.67 91.5021C270.295 49.0545 261.707 25.4088 255.9 14.5831C251.407 6.20652 246.7 1.13039 238.051 1.00279C228.357 0.859748 222.163 6.17962 219.435 23.6781C210.389 81.6972 188.165 122.55 199.517 196.565" stroke="#232323"/>
<path fill-rule="evenodd" clip-rule="evenodd" d="M199.517 196.565L226.572 196.965C226.913 173.843 268.934 141.363 269.67 91.5021C270.295 49.0545 261.707 25.4088 255.9 14.5831C251.407 6.20652 246.7 1.13039 238.051 1.00279C228.357 0.859748 222.163 6.17962 219.435 23.6781C210.389 81.6972 188.165 122.55 199.517 196.565Z" fill="#665747" stroke="#232323"/>
<path fill-rule="evenodd" clip-rule="evenodd" d="M215.929 200.426C216.308 174.746 254.598 143.098 258.57 101.931C261.905 67.3787 251.821 33.9403 249.48 25.0789C247.423 17.2923 244.307 11.7269 238.787 11.7948C233.933 11.8545 230.627 15.8384 229.779 25.8325C227.512 52.5632 225.284 94.4596 222.077 123.273C218.638 154.174 211.817 191.887 201.119 204.26" fill="#F4EEE7"/>
<path d="M215.929 200.426C216.308 174.746 254.598 143.098 258.57 101.931C261.905 67.3787 251.821 33.9403 249.48 25.0789C247.423 17.2923 244.307 11.7269 238.787 11.7948C233.933 11.8545 230.627 15.8384 229.779 25.8325C227.512 52.5632 225.284 94.4596 222.077 123.273C218.638 154.174 211.817 191.887 201.119 204.26" stroke="#232323"/>
<path fill-rule="evenodd" clip-rule="evenodd" d="M215.929 200.426C216.308 174.746 254.598 143.098 258.57 101.931C261.905 67.3787 251.821 33.9403 249.48 25.0789C247.423 17.2923 244.307 11.7269 238.787 11.7948C233.933 11.8545 230.627 15.8384 229.779 25.8325C227.512 52.5632 225.284 94.4596 222.077 123.273C218.638 154.174 211.817 191.887 201.119 204.26" fill="#F4EEE7"/>
<path d="M215.929 200.426C216.308 174.746 254.598 143.098 258.57 101.931C261.905 67.3787 251.821 33.9403 249.48 25.0789C247.423 17.2923 244.307 11.7269 238.787 11.7948C233.933 11.8545 230.627 15.8384 229.779 25.8325C227.512 52.5632 225.284 94.4596 222.077 123.273C218.638 154.174 211.817 191.887 201.119 204.26" stroke="#FBFBFB"/>
<path fill-rule="evenodd" clip-rule="evenodd" d="M74 252.762C74 237.982 85.9815 226 100.762 226C115.542 226 127.524 237.982 127.524 252.762H74Z" fill="#665747" stroke="#232323"/>
<path fill-rule="evenodd" clip-rule="evenodd" d="M88.6078 238.043V253.208V238.043Z" fill="#665747"/>
<path d="M88.6078 238.043V253.208" stroke="#FBFBFB"/>
<path fill-rule="evenodd" clip-rule="evenodd" d="M100.762 238.043V253.208V238.043Z" fill="#665747"/>
<path d="M100.762 238.043V253.208" stroke="#FBFBFB"/>
<path fill-rule="evenodd" clip-rule="evenodd" d="M112.916 238.043V253.208V238.043Z" fill="#665747"/>
<path d="M112.916 238.043V253.208" stroke="#FBFBFB"/>
<path fill-rule="evenodd" clip-rule="evenodd" d="M257.318 252.762C257.318 237.982 269.3 226 284.08 226C298.86 226 310.842 237.982 310.842 252.762H257.318Z" fill="#665747" stroke="#232323"/>
<path fill-rule="evenodd" clip-rule="evenodd" d="M271.926 238.043V253.208V238.043Z" fill="#665747"/>
<path d="M271.926 238.043V253.208" stroke="#FBFBFB"/>
<path fill-rule="evenodd" clip-rule="evenodd" d="M284.08 238.043V253.208V238.043Z" fill="#665747"/>
<path d="M284.08 238.043V253.208" stroke="#FBFBFB"/>
<path fill-rule="evenodd" clip-rule="evenodd" d="M296.235 238.043V253.208V238.043Z" fill="#665747"/>
<path d="M296.235 238.043V253.208" stroke="#FBFBFB"/>
<path fill-rule="evenodd" clip-rule="evenodd" d="M127.747 252.709C127.747 216.991 156.703 188.035 192.421 188.035C228.139 188.035 257.095 216.991 257.095 252.709H127.747Z" fill="#665747" stroke="#FBFBFB"/>
<path fill-rule="evenodd" clip-rule="evenodd" d="M127.747 252.709C127.747 216.991 156.703 188.035 192.421 188.035C228.139 188.035 257.095 216.991 257.095 252.709H127.747Z" stroke="#232323"/>
<path fill-rule="evenodd" clip-rule="evenodd" d="M211.564 217.914C211.55 222.981 207.43 227.077 202.364 227.063C197.296 227.049 193.2 222.93 193.214 217.863C193.228 212.795 197.347 208.699 202.414 208.713C207.482 208.727 211.578 212.847 211.564 217.914Z" stroke="#232323"/>
<path fill-rule="evenodd" clip-rule="evenodd" d="M186.406 217.888C186.406 220.762 184.076 223.092 181.202 223.092C178.329 223.092 175.999 220.762 175.999 217.888C175.999 215.014 178.329 212.685 181.202 212.685C184.076 212.685 186.406 215.014 186.406 217.888Z" fill="white"/>
<path d="M186.406 217.888C186.406 220.762 184.076 223.092 181.202 223.092C178.329 223.092 175.999 220.762 175.999 217.888C175.999 215.014 178.329 212.685 181.202 212.685C184.076 212.685 186.406 215.014 186.406 217.888" stroke="#232323"/>
<path d="M166.112 241.856C166.112 241.856 180.98 238.86 180.98 223.42" stroke="#FBFBFB"/>
<path d="M196.145 241.559C196.145 241.559 181.277 238.563 181.277 223.123" stroke="#FBFBFB"/>
<path fill-rule="evenodd" clip-rule="evenodd" d="M186.406 217.888C186.406 220.762 184.076 223.092 181.202 223.092C178.329 223.092 175.999 220.762 175.999 217.888C175.999 215.014 178.329 212.685 181.202 212.685C184.076 212.685 186.406 215.014 186.406 217.888Z" fill="#FBFBFB" stroke="#FBFBFB"/>
<path d="M152.604 240.021C165.283 240.127 175.647 229.936 175.754 217.257C175.86 204.579 165.669 194.215 152.991 194.108C140.312 194.001 129.948 204.193 129.841 216.871C129.734 229.549 139.926 239.914 152.604 240.021Z" stroke="#FF592C" stroke-miterlimit="10"/>
<path d="M207.549 240.483C220.227 240.59 230.592 230.398 230.699 217.72C230.805 205.041 220.614 194.677 207.935 194.57C195.257 194.464 184.893 204.655 184.786 217.333C184.679 230.012 194.871 240.376 207.549 240.483Z" stroke="#FF592C" stroke-miterlimit="10"/>
<path d="M175.551 218.949L184.96 219.028" stroke="#FF592C" stroke-miterlimit="10"/>
<path d="M230.698 217.72C230.698 217.72 255.647 204.757 262.07 201.8C268.493 198.843 273.73 202.651 274.448 206.797" stroke="#FF592C" stroke-miterlimit="10"/>
<path d="M129.844 216.495L142 212" stroke="#FF592C" stroke-miterlimit="10"/>
<line x1="-4.8084e-08" y1="253" x2="384" y2="253" stroke="#232323"/>
<path fill-rule="evenodd" clip-rule="evenodd" d="M211.564 217.914C211.55 222.981 207.43 227.077 202.364 227.063C197.296 227.049 193.2 222.93 193.214 217.863C193.228 212.795 197.347 208.699 202.414 208.713C207.482 208.727 211.578 212.847 211.564 217.914Z" fill="#232323" stroke="#FBFBFB"/>
<mask id="mask0" mask-type="alpha" maskUnits="userSpaceOnUse" x="193" y="208" width="19" height="20">
<path fill-rule="evenodd" clip-rule="evenodd" d="M193 218.149C192.986 223.216 197.082 227.336 202.149 227.35C207.217 227.364 211.336 223.268 211.35 218.201C211.364 213.133 207.268 209.014 202.201 209C202.192 209 202.183 209 202.175 209C197.12 209 193.014 213.091 193 218.149Z" fill="white"/>
</mask>
<g mask="url(#mask0)">
<path fill-rule="evenodd" clip-rule="evenodd" d="M201.8 233.981L185.661 233.936L185.747 202.764L201.886 202.809L201.8 233.981Z" fill="#FBFBFB"/>
</g>
<path fill-rule="evenodd" clip-rule="evenodd" d="M168.564 217.914C168.55 222.981 164.43 227.077 159.364 227.063C154.296 227.049 150.2 222.93 150.214 217.863C150.228 212.795 154.347 208.699 159.414 208.713C164.482 208.727 168.578 212.847 168.564 217.914Z" fill="#232323" stroke="#FBFBFB"/>
<mask id="mask1" mask-type="alpha" maskUnits="userSpaceOnUse" x="150" y="208" width="19" height="20">
<path fill-rule="evenodd" clip-rule="evenodd" d="M150 218.149C149.986 223.216 154.082 227.336 159.149 227.35C164.217 227.364 168.336 223.268 168.35 218.201C168.364 213.133 164.268 209.014 159.201 209C159.192 209 159.183 209 159.175 209C154.12 209 150.014 213.091 150 218.149Z" fill="white"/>
</mask>
<g mask="url(#mask1)">
<path fill-rule="evenodd" clip-rule="evenodd" d="M158.8 233.981L142.661 233.936L142.747 202.764L158.886 202.809L158.8 233.981Z" fill="#FBFBFB"/>
</g>
</svg>
