<svg width="167" height="463" viewBox="0 0 167 463" fill="none" xmlns="http://www.w3.org/2000/svg">
    <path d="M36.308 436.277C36.308 436.277 20.8467 441.626 15.4182 426.324C20.8611 441.666 5.4718 447.217 5.4718 447.217C5.4718 447.217 20.6019 440.936 26.3616 457.171C20.6019 440.936 36.308 436.277 36.308 436.277Z" fill="#232323"/>
    <path d="M83 0V114M83 191.5V288.5" stroke="#232323"/>
    <path d="M83.1782 374.092C78.2245 426.279 30.7245 435.779 32.1153 438.092" stroke="black"/>
    <path d="M36.3079 77.2777C36.3079 77.2777 20.8466 82.6259 15.418 67.3244C20.861 82.6664 5.47168 88.2175 5.47168 88.2175C5.47168 88.2175 20.6018 81.9359 26.3616 98.1708C20.6018 81.9359 36.3079 77.2777 36.3079 77.2777Z" fill="#232323"/>
    <path d="M83.1782 15.0921C78.2246 67.2797 30.7248 76.7797 32.1156 79.0923" stroke="black"/>
    <path d="M129.912 260.278C129.912 260.278 145.373 265.626 150.802 250.324C145.359 265.666 160.748 271.218 160.748 271.218C160.748 271.218 145.618 264.936 139.858 281.171C145.618 264.936 129.912 260.278 129.912 260.278Z" fill="#232323"/>
    <path d="M83.0417 198.092C87.9953 250.279 135.495 259.779 134.105 262.092" stroke="black"/>
</svg>
