<svg width="24" height="24" viewBox="0 0 24 24" fill="none" xmlns="http://www.w3.org/2000/svg">
<circle cx="12" cy="12" r="7.5" stroke="#F4EEE7"/>
<path d="M15.182 9.52524C15.3772 9.32998 15.3772 9.0134 15.182 8.81814C14.9867 8.62287 14.6701 8.62287 14.4749 8.81814L15.182 9.52524ZM8.81802 14.475C8.62276 14.6703 8.62276 14.9868 8.81802 15.1821C9.01328 15.3774 9.32986 15.3774 9.52513 15.1821L8.81802 14.475ZM14.4749 15.1821C14.6701 15.3774 14.9867 15.3774 15.182 15.1821C15.3772 14.9868 15.3772 14.6703 15.182 14.475L14.4749 15.1821ZM9.52513 8.81813C9.32986 8.62287 9.01328 8.62287 8.81802 8.81813C8.62276 9.0134 8.62276 9.32998 8.81802 9.52524L9.52513 8.81813ZM14.4749 8.81814L8.81802 14.475L9.52513 15.1821L15.182 9.52524L14.4749 8.81814ZM15.182 14.475L9.52513 8.81813L8.81802 9.52524L14.4749 15.1821L15.182 14.475Z" fill="#F4EEE7"/>
</svg>
