<svg width="66" height="85" viewBox="0 0 66 85" fill="none" xmlns="http://www.w3.org/2000/svg">
<path fill-rule="evenodd" clip-rule="evenodd" d="M26 4.22886V80.7711C26 83.1076 27.8454 85 30.1237 85H61.8763C64.1546 85 66 83.1076 66 80.7711V4.22886C66 1.89241 64.1546 0 61.8763 0H30.1237C27.8454 0 26 1.89241 26 4.22886ZM28 6.98C28 5.12971 28 4.20456 28.3941 3.51362C28.6603 3.04694 29.0469 2.6603 29.5136 2.39411C30.2046 2 31.1297 2 32.98 2H38C38.7481 2 39.3507 2.65909 39.3507 3.47727V4.27273C39.3507 5.78409 40.4623 7 41.8442 7H50.1558C51.5377 7 52.6493 5.78409 52.6493 4.27273V3.47727C52.6493 2.65909 53.2519 2 54 2H59.02C60.8703 2 61.7954 2 62.4864 2.39411C62.9531 2.6603 63.3397 3.04694 63.6059 3.51362C64 4.20456 64 5.12971 64 6.98V75.02C64 76.8703 64 77.7954 63.6059 78.4864C63.3397 78.9531 62.9531 79.3397 62.4864 79.6059C61.7954 80 60.8703 80 59.02 80H32.98C31.1297 80 30.2046 80 29.5136 79.6059C29.0469 79.3397 28.6603 78.9531 28.3941 78.4864C28 77.7954 28 76.8703 28 75.02V6.98ZM40.4 83H51.6C51.82 83 52 82.775 52 82.5C52 82.225 51.82 82 51.6 82H40.4C40.18 82 40 82.225 40 82.5C40 82.775 40.18 83 40.4 83ZM50.1 4.85C50.4038 4.85 50.65 4.60376 50.65 4.3C50.65 3.99624 50.4038 3.75 50.1 3.75C49.7962 3.75 49.55 3.99624 49.55 4.3C49.55 4.60376 49.7962 4.85 50.1 4.85ZM41.7998 5.05C42.214 5.05 42.5498 4.71421 42.5498 4.3C42.5498 3.88579 42.214 3.55 41.7998 3.55C41.3856 3.55 41.0498 3.88579 41.0498 4.3C41.0498 4.71421 41.3856 5.05 41.7998 5.05ZM44.4251 5.47585H48.0062C48.3012 5.47585 48.5329 5.24412 48.5329 4.9492C48.5329 4.65428 48.3012 4.42256 48.0062 4.42256H44.4251C44.1302 4.42256 43.8984 4.65428 43.8984 4.9492C43.8984 5.24412 44.1302 5.47585 44.4251 5.47585ZM50.1 5.1C50.5418 5.1 50.9 4.74183 50.9 4.3C50.9 3.85817 50.5418 3.5 50.1 3.5C49.6582 3.5 49.3 3.85817 49.3 4.3C49.3 4.74183 49.6582 5.1 50.1 5.1ZM42.7998 4.3C42.7998 4.85228 42.3521 5.3 41.7998 5.3C41.2475 5.3 40.7998 4.85228 40.7998 4.3C40.7998 3.74772 41.2475 3.3 41.7998 3.3C42.3521 3.3 42.7998 3.74772 42.7998 4.3ZM20.4141 17.07C20.6503 17.07 20.8418 16.8786 20.8418 16.6424C20.8418 16.4062 20.6503 16.2147 20.4141 16.2147C20.1779 16.2147 19.9865 16.4062 19.9865 16.6424C19.9865 16.8786 20.1779 17.07 20.4141 17.07ZM13.3835 17.2395C13.7133 17.2395 13.9806 16.9722 13.9806 16.6424C13.9806 16.3127 13.7133 16.0454 13.3835 16.0454C13.0538 16.0454 12.7865 16.3127 12.7865 16.6424C12.7865 16.9722 13.0538 17.2395 13.3835 17.2395ZM0 81.4179V16.5821C0 14.603 1.56313 13 3.49303 13H24.6V14.6941H23.7176C23.084 14.6941 22.5736 15.2524 22.5736 15.9455V16.6193C22.5736 17.8995 21.6319 18.9294 20.4614 18.9294H13.4209C12.2505 18.9294 11.3088 17.8995 11.3088 16.6193V15.9455C11.3088 15.2524 10.7984 14.6941 10.1647 14.6941H6.67412C4.82383 14.6941 3.89868 14.6941 3.20774 15.0882C2.74105 15.3544 2.35442 15.7411 2.08822 16.2077C1.69412 16.8987 1.69412 17.8238 1.69412 19.6741V75.7847C1.69412 77.635 1.69412 78.5601 2.08822 79.2511C2.35442 79.7178 2.74105 80.1044 3.20774 80.3706C3.89868 80.7647 4.82383 80.7647 6.67411 80.7647H24.6V80.8091C24.6 82.4819 25.3348 83.9779 26.4919 84.9771L26.5 85H3.49303C1.56313 85 0 83.397 0 81.4179ZM12.1976 83.3059H21.6847C21.8711 83.3059 22.0235 83.1153 22.0235 82.8824C22.0235 82.6494 21.8711 82.4588 21.6847 82.4588H12.1976C12.0113 82.4588 11.8588 82.6494 11.8588 82.8824C11.8588 83.1153 12.0113 83.3059 12.1976 83.3059ZM15.6073 17.6384H18.6407C18.8905 17.6384 19.0868 17.4421 19.0868 17.1923C19.0868 16.9425 18.8905 16.7462 18.6407 16.7462H15.6073C15.3575 16.7462 15.1612 16.9425 15.1612 17.1923C15.1612 17.4421 15.3575 17.6384 15.6073 17.6384ZM20.4141 17.32C20.7884 17.32 21.0918 17.0166 21.0918 16.6424C21.0918 16.2681 20.7884 15.9647 20.4141 15.9647C20.0399 15.9647 19.7365 16.2681 19.7365 16.6424C19.7365 17.0166 20.0399 17.32 20.4141 17.32ZM14.2306 16.6424C14.2306 17.1102 13.8513 17.4895 13.3835 17.4895C12.9157 17.4895 12.5365 17.1102 12.5365 16.6424C12.5365 16.1746 12.9157 15.7954 13.3835 15.7954C13.8513 15.7954 14.2306 16.1746 14.2306 16.6424Z"/>
</svg>
