<svg width="48" height="48" viewBox="0 0 48 48" fill="none" xmlns="http://www.w3.org/2000/svg">
<path d="M22.2824 31.6799C22.1056 31.892 22.1343 32.2073 22.3464 32.3841C22.5585 32.5609 22.8738 32.5322 23.0506 32.3201L22.2824 31.6799ZM35.9998 24.5C36.276 24.5 36.4998 24.2761 36.4998 24C36.4998 23.7239 36.276 23.5 35.9998 23.5L35.9998 24.5ZM23.0506 15.6799C22.8738 15.4678 22.5586 15.4391 22.3464 15.6159C22.1343 15.7927 22.1056 16.108 22.2824 16.3201L23.0506 15.6799ZM22.6665 32C23.0506 32.3201 23.0506 32.3202 23.0505 32.3202C23.0506 32.3202 23.0506 32.3202 23.0506 32.3201C23.0507 32.32 23.0509 32.3197 23.0512 32.3194C23.0518 32.3187 23.0528 32.3175 23.0542 32.3158C23.057 32.3124 23.0614 32.3072 23.0674 32.3002C23.0794 32.286 23.0976 32.2646 23.1219 32.2364C23.1705 32.18 23.2434 32.0963 23.3389 31.9893C23.5301 31.7752 23.8117 31.4679 24.1708 31.0985C24.8896 30.3592 25.9158 29.3742 27.1455 28.3904C29.627 26.4052 32.8455 24.5 35.9998 24.5L35.9998 23.5C32.4875 23.5 29.0393 25.5948 26.5208 27.6096C25.2505 28.6258 24.1934 29.6408 23.4538 30.4015C23.0838 30.7821 22.7925 31.0998 22.593 31.3232C22.4933 31.435 22.4164 31.5232 22.3641 31.5839C22.338 31.6143 22.3179 31.6378 22.3043 31.6539C22.2974 31.662 22.2921 31.6683 22.2885 31.6726C22.2867 31.6748 22.2852 31.6765 22.2842 31.6777C22.2837 31.6783 22.2833 31.6788 22.283 31.6792C22.2829 31.6794 22.2827 31.6795 22.2826 31.6796C22.2825 31.6798 22.2824 31.6799 22.6665 32ZM35.9998 23.5C32.8455 23.5 29.627 21.5948 27.1455 19.6096C25.9158 18.6258 24.8896 17.6408 24.1708 16.9015C23.8117 16.5321 23.5301 16.2248 23.339 16.0107C23.2434 15.9037 23.1705 15.82 23.1219 15.7636C23.0976 15.7354 23.0794 15.7139 23.0674 15.6998C23.0614 15.6928 23.057 15.6876 23.0542 15.6842C23.0528 15.6825 23.0518 15.6813 23.0512 15.6806C23.0509 15.6803 23.0507 15.68 23.0506 15.6799C23.0506 15.6798 23.0506 15.6798 23.0505 15.6798C23.0506 15.6798 23.0506 15.6799 22.6665 16C22.2824 16.3201 22.2825 16.3202 22.2826 16.3204C22.2827 16.3205 22.2829 16.3206 22.283 16.3208C22.2833 16.3212 22.2837 16.3217 22.2842 16.3223C22.2852 16.3235 22.2867 16.3252 22.2885 16.3274C22.2922 16.3317 22.2974 16.338 22.3043 16.3461C22.3179 16.3622 22.338 16.3857 22.3641 16.4161C22.4164 16.4768 22.4933 16.565 22.593 16.6768C22.7925 16.9002 23.0838 17.2179 23.4538 17.5985C24.1934 18.3592 25.2505 19.3742 26.5208 20.3904C29.0393 22.4052 32.4875 24.5 35.9998 24.5L35.9998 23.5Z" fill="#FBFBFB"/>
<path d="M33.3333 24L12 24" stroke="#FBFBFB" stroke-linecap="round" stroke-linejoin="round"/>
</svg>
