<svg width="473" height="467" viewBox="0 0 473 467" fill="none" xmlns="http://www.w3.org/2000/svg">
<path d="M102.103 16.4655C179.379 9.60361 186.981 30.3589 250.926 47.2355C314.872 64.1121 292.773 11.0714 351.871 1.15623C396.622 -6.35193 433.029 22.8003 433.029 85.872C433.029 127.967 406.633 162.151 413.25 197.681C421.06 239.616 485.21 269.215 470.246 331.145C455.99 390.145 357.016 384.888 309.871 384.888C262.726 384.888 257.199 408.51 206.621 408.51C156.043 408.51 105.461 413.965 73.7559 377.014C46.7325 345.519 57.7467 282.251 57.7467 245.879C57.7467 194.181 12.5 172.079 12.5 114.791C12.5 57.5034 52.4768 20.8724 102.103 16.4655Z" fill="#232323"/>
<path d="M157.726 76.1916C157.79 76.6875 157.79 76.6875 157.79 76.6875C157.79 76.6874 157.791 76.6874 157.791 76.6873C157.793 76.6871 157.795 76.6868 157.798 76.6864C157.805 76.6856 157.815 76.6843 157.828 76.6827C157.855 76.6794 157.896 76.6746 157.95 76.6685C158.059 76.6563 158.221 76.6389 158.433 76.6187C158.857 76.5783 159.482 76.5266 160.278 76.4818C161.871 76.3922 164.149 76.3305 166.884 76.443C172.358 76.6682 179.643 77.5902 186.92 80.3697C194.194 83.148 201.448 87.7773 206.885 95.4146C212.322 103.05 215.972 113.732 215.972 128.665H216.972C216.972 113.564 213.278 102.669 207.7 94.8345C202.123 87.0017 194.69 82.2671 187.277 79.4356C179.868 76.6053 172.467 75.6718 166.925 75.4439C164.153 75.3298 161.842 75.3923 160.222 75.4834C159.412 75.5289 158.774 75.5817 158.338 75.6232C158.12 75.644 157.952 75.662 157.838 75.6748C157.781 75.6812 157.738 75.6864 157.708 75.69C157.693 75.6918 157.682 75.6932 157.674 75.6941C157.67 75.6946 157.667 75.695 157.665 75.6953C157.664 75.6954 157.663 75.6955 157.663 75.6956C157.662 75.6957 157.661 75.6957 157.726 76.1916ZM223.306 115.032V61.325H222.306V115.032H223.306ZM245.534 152.837V97.8413H244.534V152.837H245.534Z" fill="white"/>
<path fill-rule="evenodd" clip-rule="evenodd" d="M332.468 151.358L333.573 210.936C333.573 210.936 400.874 209.688 414.114 209.442C436.731 209.023 457.643 190.977 457.131 163.394C456.257 116.228 455.85 94.3035 455.65 83.5461C455.298 64.5144 441.737 47.448 421.05 47.8315C400.363 48.2151 387.445 65.7726 387.828 86.4594C388.212 107.146 388.562 126.037 388.746 135.966C388.93 145.896 383.772 150.406 374.394 150.58C366.119 150.734 332.468 151.358 332.468 151.358Z" fill="white"/>
<path fill-rule="evenodd" clip-rule="evenodd" d="M142.396 196.535L141.808 136.949C141.808 136.949 74.4984 137.614 61.2573 137.745C38.6367 137.968 17.5699 155.833 17.8425 183.419C18.3083 230.591 18.5248 252.518 18.6311 263.276C18.8189 282.31 32.231 299.494 52.9204 299.289C73.6099 299.085 86.6802 281.64 86.4761 260.951C86.2714 240.262 86.0851 221.369 85.987 211.438C85.8889 201.507 91.0866 197.041 100.466 196.949C108.742 196.867 142.396 196.535 142.396 196.535Z" fill="white"/>
<path fill-rule="evenodd" clip-rule="evenodd" d="M350.892 82.4337C350.892 84.1442 349.504 85.5311 347.792 85.5311C346.08 85.5311 344.691 84.1442 344.691 82.4337C344.691 80.7228 346.08 79.3362 347.792 79.3362C349.504 79.3362 350.892 80.7228 350.892 82.4337Z" fill="white"/>
<path fill-rule="evenodd" clip-rule="evenodd" d="M340.025 245.524C340.025 247.234 338.637 248.621 336.924 248.621C335.212 248.621 333.824 247.234 333.824 245.524C333.824 243.813 335.212 242.426 336.924 242.426C338.637 242.426 340.025 243.813 340.025 245.524Z" fill="white"/>
<path fill-rule="evenodd" clip-rule="evenodd" d="M89.0906 349.892C89.0906 351.602 87.7024 352.989 85.99 352.989C84.2777 352.989 82.8896 351.602 82.8896 349.892C82.8896 348.181 84.2777 346.794 85.99 346.794C87.7024 346.794 89.0906 348.181 89.0906 349.892Z" fill="white"/>
<path fill-rule="evenodd" clip-rule="evenodd" d="M261.148 94.2318C261.148 94.2318 245.002 94.3806 245.002 110.361C245.002 94.2866 228.857 94.2318 228.857 94.2318C228.857 94.2318 245.002 95.0845 245.002 78.1027C245.002 95.0845 261.148 94.2318 261.148 94.2318Z" fill="white"/>
<path fill-rule="evenodd" clip-rule="evenodd" d="M159.351 254.465C159.351 254.465 152.734 254.526 152.734 261.075C152.734 254.487 146.117 254.465 146.117 254.465C146.117 254.465 152.734 254.814 152.734 247.854C152.734 254.814 159.351 254.465 159.351 254.465Z" fill="white"/>
<path fill-rule="evenodd" clip-rule="evenodd" d="M63.0034 71.377C63.0034 74.7483 60.2676 77.4814 56.8928 77.4814C53.5181 77.4814 50.7822 74.7483 50.7822 71.377C50.7822 68.0056 53.5181 65.2726 56.8928 65.2726C60.2676 65.2726 63.0034 68.0056 63.0034 71.377Z" fill="white"/>
<path fill-rule="evenodd" clip-rule="evenodd" d="M161.529 75.9312C161.529 75.9312 146.908 76.066 146.908 90.5375C146.908 75.9808 132.287 75.9312 132.287 75.9312C132.287 75.9312 146.908 76.7035 146.908 61.325C146.908 76.7035 161.529 75.9312 161.529 75.9312Z" fill="white"/>
<path fill-rule="evenodd" clip-rule="evenodd" d="M89.4552 114.814C89.4552 114.814 82.8386 114.875 82.8386 121.424C82.8386 114.837 76.2217 114.814 76.2217 114.814C76.2217 114.814 82.8386 115.164 82.8386 108.204C82.8386 115.164 89.4552 114.814 89.4552 114.814Z" fill="white"/>
<path fill-rule="evenodd" clip-rule="evenodd" d="M339.576 308.454C339.576 322.513 289.523 333.909 227.779 333.909C166.035 333.909 115.982 322.513 115.982 308.454C115.982 294.396 166.035 283 227.779 283C289.523 283 339.576 294.396 339.576 308.454Z" fill="white"/>
<path fill-rule="evenodd" clip-rule="evenodd" d="M331.127 183.131C330.845 167.976 319.19 152.61 299.404 152.977C288.459 153.18 278.134 153.371 273.503 153.457C268.873 153.543 264.907 154.854 264.982 158.908C265.068 163.538 269.821 164.105 276.469 165.194C283.138 166.286 294.326 167 294.326 167L294.213 168C294.213 168 265.066 168.774 260.435 168.86C255.805 168.946 252.76 171.004 252.819 174.168C252.893 178.181 258.577 179.217 262.613 179.445L262.668 179.476C258.67 179.756 253.044 180.976 253.13 185.636C253.209 189.895 259.173 190.614 263.188 190.614H263.222V190.64C259.671 191.111 254.743 192.592 254.828 197.178C254.939 203.164 263.314 203.27 266.051 203.144H266.101V203.158C263.948 203.413 258.229 204.541 258.318 209.327C258.394 213.432 262.594 214.723 270.619 214.574C278.645 214.425 286.223 214.285 297.589 214.074C312.744 213.793 331.587 207.969 331.127 183.131Z" fill="white"/>
<path fill-rule="evenodd" clip-rule="evenodd" d="M142.692 166.131C142.84 151.961 152.209 139.581 160.865 132.548C171.633 123.8 183.98 119.724 186.783 123.082C190.448 127.473 179.552 134.229 173.41 137.761C192.122 133.902 212.897 135.093 212.435 143.039C212.115 148.554 203.073 147.979 194.145 147.686C188.129 147.489 175.134 146.306 175.134 146.306C175.134 146.306 201.665 151.672 207.758 152.791C213.851 153.91 226.167 156.005 224.161 162.355C222.155 168.705 210.198 166.891 203.719 165.634C200.323 164.975 189.876 160.863 182.43 157.834L182.143 157.726L181.596 157.518C187.302 160.133 195.545 164.433 203.023 170.283C218.255 182.198 224.475 197.156 215.881 199.727C207.968 202.094 200.141 182.496 188.398 175.348C178.768 169.485 168.937 170.801 165.822 177.472C162.501 184.586 170.053 193.156 180.76 195.481C188.583 197.181 196.84 191.663 200.785 195.327C204.731 198.991 195.041 211.173 176.806 206.722C156.835 201.847 142.481 186.28 142.692 166.131Z" fill="white"/>
<path fill-rule="evenodd" clip-rule="evenodd" d="M303.742 308.794C303.742 316.36 269.792 322.494 227.913 322.494C186.034 322.494 152.084 316.36 152.084 308.794C152.084 301.227 186.034 295.093 227.913 295.093C269.792 295.093 303.742 301.227 303.742 308.794Z" fill="#232323"/>
<path fill-rule="evenodd" clip-rule="evenodd" d="M359.827 202.318C359.867 204.456 358.165 206.222 356.027 206.262C353.888 206.301 352.122 204.6 352.082 202.461C352.043 200.323 353.744 198.557 355.883 198.517C358.022 198.478 359.787 200.179 359.827 202.318Z" fill="#232323"/>
<path fill-rule="evenodd" clip-rule="evenodd" d="M115.48 145.34C115.459 143.201 117.175 141.45 119.314 141.429C121.453 141.408 123.204 143.124 123.225 145.263C123.247 147.402 121.529 149.153 119.391 149.174C117.252 149.196 115.501 147.478 115.48 145.34Z" fill="#232323"/>
<path d="M359.827 202.318L360.327 202.309L360.327 202.309L359.827 202.318ZM356.027 206.262L356.017 205.762L356.017 205.762L356.027 206.262ZM352.082 202.461L351.583 202.471L351.583 202.471L352.082 202.461ZM355.883 198.517L355.874 198.017L355.874 198.017L355.883 198.517ZM115.48 145.34L115.98 145.335L115.98 145.335L115.48 145.34ZM119.314 141.429L119.319 141.929L119.319 141.929L119.314 141.429ZM123.225 145.263L122.725 145.268L122.725 145.268L123.225 145.263ZM119.391 149.174L119.386 148.674L119.386 148.674L119.391 149.174ZM303.242 308.794C303.242 309.538 302.826 310.336 301.871 311.18C300.917 312.022 299.482 312.857 297.587 313.667C293.8 315.284 288.29 316.752 281.443 317.989C267.758 320.462 248.832 321.994 227.913 321.994V322.994C248.873 322.994 267.862 321.46 281.621 318.973C288.497 317.731 294.092 316.247 297.98 314.586C299.921 313.757 301.466 312.871 302.533 311.93C303.597 310.99 304.242 309.941 304.242 308.794H303.242ZM227.913 321.994C206.994 321.994 188.068 320.462 174.383 317.989C167.536 316.752 162.026 315.284 158.239 313.667C156.344 312.857 154.909 312.022 153.955 311.18C153 310.336 152.584 309.538 152.584 308.794H151.584C151.584 309.941 152.229 310.99 153.293 311.93C154.36 312.871 155.905 313.757 157.846 314.586C161.734 316.247 167.329 317.731 174.205 318.973C187.964 321.46 206.953 322.994 227.913 322.994V321.994ZM152.584 308.794C152.584 308.049 153 307.251 153.955 306.407C154.909 305.565 156.344 304.73 158.239 303.921C162.026 302.303 167.536 300.835 174.383 299.598C188.068 297.125 206.994 295.593 227.913 295.593V294.593C206.953 294.593 187.964 296.128 174.205 298.614C167.329 299.856 161.734 301.34 157.846 303.001C155.905 303.83 154.36 304.716 153.293 305.658C152.229 306.598 151.584 307.646 151.584 308.794H152.584ZM227.913 295.593C248.832 295.593 267.758 297.125 281.443 299.598C288.29 300.835 293.8 302.303 297.587 303.921C299.482 304.73 300.917 305.565 301.871 306.407C302.826 307.251 303.242 308.049 303.242 308.794H304.242C304.242 307.646 303.597 306.598 302.533 305.658C301.466 304.716 299.921 303.83 297.98 303.001C294.092 301.34 288.497 299.856 281.621 298.614C267.862 296.128 248.873 294.593 227.913 294.593V295.593ZM359.327 202.327C359.362 204.19 357.88 205.728 356.017 205.762L356.036 206.762C358.451 206.717 360.372 204.723 360.327 202.309L359.327 202.327ZM356.017 205.762C354.155 205.796 352.617 204.315 352.582 202.452L351.583 202.471C351.627 204.885 353.621 206.806 356.036 206.762L356.017 205.762ZM352.582 202.452C352.548 200.59 354.03 199.052 355.892 199.017L355.874 198.017C353.459 198.062 351.538 200.056 351.583 202.471L352.582 202.452ZM355.892 199.017C357.755 198.983 359.293 200.465 359.327 202.327L360.327 202.309C360.282 199.894 358.288 197.973 355.874 198.017L355.892 199.017ZM115.98 145.335C115.961 143.472 117.456 141.947 119.319 141.929L119.309 140.929C116.894 140.953 114.956 142.93 114.98 145.345L115.98 145.335ZM119.319 141.929C121.182 141.91 122.707 143.405 122.725 145.268L123.725 145.258C123.702 142.843 121.724 140.905 119.309 140.929L119.319 141.929ZM122.725 145.268C122.744 147.131 121.248 148.656 119.386 148.674L119.396 149.674C121.81 149.651 123.749 147.673 123.725 145.258L122.725 145.268ZM119.386 148.674C117.523 148.693 115.998 147.197 115.98 145.335L114.98 145.345C115.004 147.759 116.981 149.698 119.396 149.674L119.386 148.674Z" fill="#232323"/>
<path fill-rule="evenodd" clip-rule="evenodd" d="M240.232 316.844H213.817V294.43H240.529C249.867 294.43 253.853 298.84 253.853 306.192C253.853 312.695 249.032 316.844 240.232 316.844ZM236.624 250.887C249.222 250.887 251.074 258.256 251.074 262.755C251.074 267.255 246.851 274.161 236.728 274.161H213.817V250.887H236.624ZM245.595 282.587C260.195 279.4 266.538 268.041 266.538 258.792C266.538 243 252.089 230.877 233.666 230.877V216.931H220.742V230.877H213.817V216.931H200.893V230.877H182V250.887H200.893V316.844H182.159V337.112H200.893V350.81H213.817V337.112H220.848V350.899H233.772V337.112C259.762 337.112 270.642 323.744 270.642 307.071C270.642 293.574 258.87 283.839 245.595 282.587Z" fill="#EDE1D2" stroke="#232323"/>
<path fill-rule="evenodd" clip-rule="evenodd" d="M151.5 327.447V466H303.5V327" fill="white"/>
<path fill-rule="evenodd" clip-rule="evenodd" d="M116.047 309.015C116.047 323.056 166.131 334.438 227.913 334.438C289.695 334.438 339.779 323.056 339.779 309.015L304.467 309C304.467 313.098 284.88 323.551 227.499 323.551C180.601 323.551 151.91 316.124 151.91 309L116.047 309.015Z" fill="white"/>
<path d="M151.5 466H151V466.5H151.5V466ZM303.5 466V466.5H304V466H303.5ZM116.047 309.015L116.047 308.515L115.547 308.515V309.015H116.047ZM339.779 309.015H340.279V308.515L339.779 308.515L339.779 309.015ZM304.467 309L304.468 308.5L303.967 308.5V309H304.467ZM151.91 309H152.41V308.5L151.91 308.5L151.91 309ZM151 327.447V466H152V327.447H151ZM151.5 466.5H303.5V465.5H151.5V466.5ZM304 466V327H303V466H304ZM115.547 309.015C115.547 310.93 116.403 312.757 117.948 314.473C119.491 316.187 121.743 317.816 124.601 319.351C130.319 322.424 138.56 325.175 148.701 327.479C168.991 332.09 196.996 334.938 227.913 334.938V333.938C197.048 333.938 169.12 331.094 148.922 326.504C138.82 324.208 130.678 321.481 125.075 318.471C122.272 316.965 120.129 315.401 118.691 313.804C117.256 312.211 116.547 310.611 116.547 309.015H115.547ZM227.913 334.938C258.83 334.938 286.835 332.09 307.125 327.479C317.266 325.175 325.507 322.424 331.225 319.351C334.083 317.816 336.335 316.187 337.878 314.473C339.423 312.757 340.279 310.93 340.279 309.015H339.279C339.279 310.611 338.57 312.211 337.135 313.804C335.697 315.401 333.554 316.965 330.752 318.471C325.148 321.481 317.007 324.208 306.904 326.504C286.706 331.094 258.778 333.938 227.913 333.938V334.938ZM339.779 308.515L304.468 308.5L304.467 309.5L339.779 309.515L339.779 308.515ZM303.967 309C303.967 309.321 303.767 309.813 303.152 310.456C302.55 311.087 301.605 311.804 300.263 312.568C297.582 314.095 293.386 315.772 287.376 317.328C275.36 320.44 256.163 323.051 227.499 323.051V324.051C256.216 324.051 275.503 321.436 287.627 318.296C293.686 316.727 297.973 315.023 300.758 313.437C302.149 312.645 303.183 311.872 303.875 311.147C304.556 310.434 304.967 309.704 304.967 309H303.967ZM227.499 323.051C204.072 323.051 185.212 321.196 172.221 318.458C165.722 317.088 160.716 315.502 157.348 313.831C155.663 312.995 154.412 312.15 153.59 311.319C152.767 310.488 152.41 309.712 152.41 309H151.41C151.41 310.069 151.95 311.083 152.879 312.022C153.809 312.961 155.166 313.865 156.904 314.727C160.381 316.452 165.479 318.059 172.015 319.436C185.094 322.193 204.028 324.051 227.499 324.051V323.051ZM151.91 308.5L116.047 308.515L116.047 309.515L151.91 309.5L151.91 308.5ZM0 466.5H439V465.5H0V466.5Z" fill="#232323"/>
<path d="M331.127 183.131L331.627 183.122L331.627 183.122L331.127 183.131ZM299.404 152.977L299.395 152.477L299.395 152.477L299.404 152.977ZM273.503 153.457L273.513 153.957L273.513 153.957L273.503 153.457ZM264.982 158.908L265.482 158.898L265.482 158.898L264.982 158.908ZM276.469 165.194L276.55 164.701L276.55 164.701L276.469 165.194ZM294.326 167L294.823 167.056L294.882 166.534L294.358 166.501L294.326 167ZM294.213 168L294.226 168.5L294.66 168.488L294.709 168.056L294.213 168ZM260.436 168.86L260.426 168.36L260.426 168.36L260.436 168.86ZM252.819 174.168L253.319 174.159L253.319 174.159L252.819 174.168ZM253.13 185.636L252.63 185.646L252.63 185.646L253.13 185.636ZM254.828 197.178L255.328 197.168L255.328 197.168L254.828 197.178ZM266.906 203.086L266.958 203.584L266.886 202.587L266.906 203.086ZM258.318 209.327L258.817 209.318L258.817 209.318L258.318 209.327ZM270.619 214.574L270.61 214.074L270.61 214.074L270.619 214.574ZM297.589 214.074L297.599 214.574L297.599 214.574L297.589 214.074ZM142.692 166.131L142.192 166.126L142.192 166.126L142.692 166.131ZM160.865 132.548L161.18 132.936L161.18 132.936L160.865 132.548ZM186.783 123.082L186.399 123.403L186.399 123.403L186.783 123.082ZM173.41 137.761L173.161 137.328L173.511 138.251L173.41 137.761ZM212.435 143.039L212.934 143.068L212.934 143.068L212.435 143.039ZM194.145 147.686L194.162 147.187L194.162 147.187L194.145 147.686ZM175.134 146.306L175.179 145.808L175.035 146.796L175.134 146.306ZM207.758 152.791L207.667 153.283L207.667 153.283L207.758 152.791ZM224.161 162.355L223.684 162.205L223.684 162.205L224.161 162.355ZM203.719 165.634L203.815 165.143L203.815 165.143L203.719 165.634ZM174.432 154.53L174.616 154.065L174.238 154.99L174.432 154.53ZM203.023 170.283L203.331 169.889L203.324 169.883L203.316 169.878L203.023 170.283ZM215.881 199.727L215.737 199.248L215.737 199.248L215.881 199.727ZM188.398 175.348L188.658 174.921L188.658 174.921L188.398 175.348ZM165.822 177.472L166.275 177.683L166.275 177.683L165.822 177.472ZM180.76 195.481L180.866 194.993L180.866 194.993L180.76 195.481ZM200.785 195.327L200.445 195.694L200.445 195.694L200.785 195.327ZM176.806 206.722L176.925 206.236L176.925 206.236L176.806 206.722ZM332.468 151.358L332.459 150.858L331.959 150.867L331.968 151.367L332.468 151.358ZM333.573 210.936L333.073 210.945L333.082 211.445L333.582 211.436L333.573 210.936ZM414.114 209.442L414.123 209.942L414.123 209.942L414.114 209.442ZM457.131 163.394L457.631 163.384L457.631 163.384L457.131 163.394ZM455.65 83.5461L456.15 83.5369L456.15 83.5369L455.65 83.5461ZM387.828 86.4594L388.328 86.4501L388.328 86.4501L387.828 86.4594ZM374.394 150.58L374.403 151.08L374.403 151.08L374.394 150.58ZM352.55 180.207L353.05 180.198L353.05 180.198L352.55 180.207ZM375.283 179.786L375.783 179.776L375.783 179.776L375.283 179.786ZM142.396 196.535L142.401 197.035L142.901 197.03L142.896 196.53L142.396 196.535ZM141.808 136.949L142.308 136.944L142.303 136.444L141.803 136.449L141.808 136.949ZM61.2573 137.745L61.2524 137.245L61.2524 137.245L61.2573 137.745ZM17.8425 183.419L18.3424 183.414L18.3424 183.414L17.8425 183.419ZM18.6311 263.276L19.131 263.271L19.131 263.271L18.6311 263.276ZM52.9204 299.289L52.9254 299.789L52.9254 299.789L52.9204 299.289ZM86.4761 260.951L86.976 260.946L86.976 260.946L86.4761 260.951ZM85.987 211.438L85.487 211.443L85.487 211.443L85.987 211.438ZM100.466 196.949L100.471 197.449L100.471 197.449L100.466 196.949ZM122.565 167.513L123.065 167.508L123.065 167.508L122.565 167.513ZM99.8298 167.737L100.33 167.732L100.33 167.732L99.8298 167.737ZM266.574 179.853C272.077 179.751 279.121 179.62 284.792 179.515C287.628 179.463 290.116 179.416 291.899 179.383C292.791 179.367 293.504 179.354 293.995 179.345C294.242 179.34 294.43 179.337 294.559 179.334C294.662 179.332 294.634 179.333 294.705 179.331C294.715 179.331 294.719 179.331 294.727 179.331C294.734 179.331 294.737 179.331 294.742 179.331C294.743 179.331 294.748 179.331 294.748 179.331C294.749 179.331 294.749 179.331 294.75 179.331C294.751 179.331 294.751 179.331 294.752 179.331C294.755 179.33 294.751 179.331 294.754 179.33C294.754 179.33 294.755 179.33 294.755 179.33C294.755 179.33 294.755 179.33 294.746 178.831C294.736 178.331 294.736 178.331 294.736 178.331C294.736 178.331 294.736 178.331 294.736 178.331C294.735 178.331 294.734 178.331 294.733 178.331C294.714 178.331 294.746 178.33 294.724 178.331C294.679 178.332 294.74 178.331 294.687 178.332C294.685 178.332 294.683 178.332 294.68 178.332C294.678 178.332 294.676 178.332 294.674 178.332C294.671 178.332 294.669 178.332 294.667 178.332C294.664 178.332 294.662 178.332 294.659 178.332C294.657 178.332 294.654 178.332 294.651 178.332C294.649 178.332 294.646 178.332 294.643 178.332C294.616 178.333 294.653 178.332 294.626 178.333C294.563 178.334 294.611 178.333 294.541 178.334C294.413 178.337 294.222 178.34 293.977 178.345C293.486 178.354 292.771 178.367 291.881 178.384C290.1 178.417 287.606 178.463 284.773 178.515C279.104 178.62 272.058 178.751 266.556 178.853L266.574 179.853ZM266.78 190.928L294.96 190.405L294.942 189.405L266.761 189.928L266.78 190.928ZM266.815 203.489L294.996 202.967L294.977 201.967L266.796 202.489L266.815 203.489ZM331.627 183.122C331.341 167.731 319.496 152.105 299.395 152.477L299.414 153.477C318.884 153.116 330.35 168.22 330.627 183.14L331.627 183.122ZM299.395 152.477C288.45 152.68 278.125 152.872 273.494 152.958L273.513 153.957C278.143 153.871 288.468 153.68 299.414 153.477L299.395 152.477ZM273.494 152.958C271.15 153.001 268.905 153.353 267.24 154.255C266.4 154.709 265.695 155.31 265.207 156.093C264.716 156.878 264.462 157.817 264.482 158.917L265.482 158.898C265.465 157.971 265.678 157.226 266.055 156.623C266.433 156.017 266.995 155.525 267.716 155.134C269.172 154.346 271.226 154 273.513 153.957L273.494 152.958ZM264.482 158.917C264.505 160.166 264.846 161.178 265.484 161.997C266.115 162.809 267.008 163.391 268.07 163.84C270.17 164.726 273.098 165.148 276.388 165.687L276.55 164.701C273.192 164.151 270.419 163.746 268.459 162.918C267.491 162.51 266.764 162.014 266.273 161.383C265.787 160.759 265.502 159.965 265.482 158.898L264.482 158.917ZM276.388 165.687C279.743 166.237 284.223 166.69 287.855 167.005C289.673 167.162 291.283 167.286 292.438 167.37C293.015 167.412 293.479 167.444 293.799 167.466C293.958 167.477 294.082 167.485 294.166 167.491C294.208 167.493 294.24 167.495 294.262 167.497C294.272 167.498 294.281 167.498 294.286 167.498C294.289 167.499 294.291 167.499 294.292 167.499C294.293 167.499 294.293 167.499 294.294 167.499C294.294 167.499 294.294 167.499 294.294 167.499C294.294 167.499 294.294 167.499 294.326 167C294.358 166.501 294.358 166.501 294.358 166.501C294.358 166.501 294.358 166.501 294.358 166.501C294.357 166.501 294.357 166.501 294.356 166.501C294.355 166.501 294.353 166.501 294.35 166.501C294.345 166.5 294.337 166.5 294.326 166.499C294.305 166.498 294.273 166.496 294.232 166.493C294.149 166.487 294.025 166.479 293.866 166.468C293.548 166.447 293.086 166.415 292.51 166.373C291.359 166.289 289.754 166.166 287.942 166.008C284.313 165.694 279.864 165.243 276.55 164.701L276.388 165.687ZM293.829 166.944L293.716 167.944L294.709 168.056L294.823 167.056L293.829 166.944ZM294.213 168C294.199 167.5 294.199 167.5 294.199 167.5C294.199 167.5 294.198 167.5 294.198 167.5C294.197 167.5 294.196 167.5 294.194 167.5C294.19 167.5 294.185 167.501 294.178 167.501C294.164 167.501 294.143 167.502 294.116 167.502C294.06 167.504 293.978 167.506 293.871 167.509C293.656 167.515 293.341 167.523 292.938 167.534C292.132 167.555 290.975 167.586 289.573 167.622C286.768 167.696 282.98 167.796 279.048 167.898C271.181 168.102 262.739 168.317 260.426 168.36L260.445 169.36C262.763 169.317 271.209 169.102 279.074 168.898C283.006 168.796 286.794 168.696 289.599 168.622C291.002 168.585 292.158 168.555 292.964 168.533C293.367 168.523 293.683 168.514 293.897 168.509C294.005 168.506 294.087 168.504 294.142 168.502C294.17 168.501 294.191 168.501 294.205 168.5C294.212 168.5 294.217 168.5 294.221 168.5C294.222 168.5 294.224 168.5 294.224 168.5C294.225 168.5 294.225 168.5 294.225 168.5C294.226 168.5 294.226 168.5 294.213 168ZM260.426 168.36C258.047 168.404 256.022 168.955 254.584 169.948C253.131 170.953 252.286 172.408 252.319 174.177L253.319 174.159C253.293 172.764 253.941 171.608 255.153 170.771C256.38 169.923 258.193 169.402 260.445 169.36L260.426 168.36ZM252.319 174.177C252.352 175.957 253.365 177.197 254.758 178.035C256.134 178.862 257.924 179.328 259.66 179.591C261.405 179.855 263.139 179.919 264.434 179.919C265.082 179.919 265.622 179.902 266.001 179.885C266.191 179.877 266.34 179.869 266.442 179.862C266.494 179.859 266.533 179.856 266.56 179.855C266.574 179.854 266.584 179.853 266.591 179.852C266.595 179.852 266.598 179.852 266.6 179.852C266.601 179.852 266.602 179.852 266.602 179.852C266.602 179.852 266.603 179.852 266.603 179.852C266.603 179.852 266.603 179.852 266.565 179.353C266.527 178.854 266.527 178.854 266.527 178.854C266.527 178.854 266.527 178.854 266.527 178.854C266.526 178.855 266.526 178.855 266.525 178.855C266.524 178.855 266.522 178.855 266.519 178.855C266.513 178.856 266.504 178.856 266.491 178.857C266.467 178.859 266.43 178.861 266.381 178.864C266.284 178.87 266.14 178.878 265.957 178.886C265.59 178.902 265.065 178.919 264.433 178.919C263.168 178.919 261.487 178.856 259.81 178.602C258.124 178.347 256.485 177.906 255.273 177.178C254.077 176.459 253.343 175.494 253.319 174.159L252.319 174.177ZM266.565 179.353C266.599 178.854 266.599 178.854 266.599 178.854C266.599 178.854 266.598 178.854 266.598 178.854C266.598 178.854 266.597 178.854 266.596 178.854C266.594 178.854 266.591 178.854 266.587 178.853C266.58 178.853 266.57 178.852 266.556 178.851C266.529 178.85 266.489 178.848 266.438 178.845C266.336 178.84 266.187 178.833 265.998 178.827C265.62 178.815 265.082 178.807 264.437 178.82C263.15 178.845 261.427 178.955 259.7 179.297C257.982 179.638 256.215 180.216 254.876 181.207C253.515 182.214 252.593 183.653 252.63 185.646L253.63 185.627C253.6 184.011 254.324 182.859 255.47 182.011C256.638 181.148 258.238 180.606 259.895 180.278C261.543 179.952 263.204 179.844 264.457 179.82C265.082 179.807 265.603 179.815 265.967 179.827C266.149 179.832 266.291 179.839 266.387 179.844C266.435 179.846 266.472 179.848 266.496 179.85C266.508 179.85 266.517 179.851 266.523 179.851C266.526 179.852 266.528 179.852 266.529 179.852C266.53 179.852 266.53 179.852 266.53 179.852C266.531 179.852 266.531 179.852 266.531 179.852C266.531 179.852 266.531 179.852 266.565 179.353ZM252.63 185.646C252.664 187.469 253.665 188.714 255.06 189.528C256.432 190.33 258.214 190.739 259.937 190.939C261.67 191.14 263.392 191.136 264.677 191.082C265.32 191.056 265.856 191.016 266.232 190.983C266.421 190.967 266.569 190.952 266.671 190.942C266.722 190.936 266.761 190.932 266.788 190.929C266.801 190.927 266.812 190.926 266.819 190.925C266.822 190.925 266.825 190.925 266.827 190.924C266.828 190.924 266.829 190.924 266.829 190.924C266.83 190.924 266.83 190.924 266.83 190.924C266.83 190.924 266.83 190.924 266.77 190.428C266.71 189.931 266.71 189.931 266.71 189.931C266.71 189.931 266.71 189.931 266.71 189.931C266.71 189.931 266.709 189.931 266.709 189.931C266.707 189.932 266.705 189.932 266.702 189.932C266.696 189.933 266.687 189.934 266.675 189.935C266.651 189.938 266.614 189.942 266.566 189.947C266.47 189.957 266.328 189.971 266.146 189.987C265.782 190.019 265.261 190.057 264.635 190.083C263.38 190.136 261.715 190.139 260.053 189.946C258.381 189.751 256.76 189.364 255.564 188.665C254.389 187.978 253.656 187.017 253.63 185.627L252.63 185.646ZM266.77 190.428C266.787 189.928 266.787 189.928 266.787 189.928C266.787 189.928 266.786 189.928 266.786 189.928C266.785 189.928 266.785 189.928 266.784 189.928C266.782 189.928 266.779 189.928 266.776 189.928C266.769 189.927 266.76 189.927 266.748 189.927C266.723 189.926 266.688 189.925 266.642 189.925C266.55 189.924 266.416 189.923 266.247 189.924C265.91 189.927 265.429 189.939 264.853 189.977C263.704 190.052 262.165 190.228 260.622 190.636C259.085 191.041 257.505 191.687 256.31 192.727C255.098 193.781 254.292 195.234 254.328 197.187L255.328 197.168C255.298 195.543 255.952 194.363 256.966 193.481C257.998 192.584 259.412 191.989 260.877 191.602C262.336 191.217 263.807 191.047 264.918 190.975C265.472 190.939 265.934 190.927 266.256 190.924C266.417 190.923 266.543 190.924 266.628 190.925C266.67 190.925 266.702 190.926 266.724 190.927C266.734 190.927 266.742 190.927 266.747 190.927C266.75 190.927 266.751 190.927 266.752 190.927C266.753 190.927 266.753 190.927 266.753 190.927C266.754 190.927 266.754 190.927 266.754 190.927C266.754 190.927 266.753 190.927 266.77 190.428ZM254.328 197.187C254.365 199.14 255.217 200.54 256.464 201.514C257.69 202.473 259.284 203.008 260.822 203.307C262.366 203.606 263.899 203.675 265.04 203.669C265.612 203.667 266.089 203.646 266.423 203.625C266.591 203.615 266.723 203.604 266.814 203.597C266.86 203.593 266.895 203.59 266.919 203.587C266.931 203.586 266.941 203.585 266.947 203.585C266.95 203.584 266.953 203.584 266.955 203.584C266.956 203.584 266.957 203.584 266.957 203.584C266.957 203.584 266.958 203.584 266.958 203.584C266.958 203.584 266.958 203.584 266.906 203.086C266.854 202.589 266.854 202.589 266.854 202.589C266.854 202.589 266.854 202.589 266.854 202.589C266.854 202.589 266.854 202.589 266.853 202.589C266.852 202.589 266.85 202.589 266.848 202.59C266.843 202.59 266.835 202.591 266.825 202.592C266.804 202.594 266.772 202.597 266.73 202.6C266.646 202.607 266.521 202.617 266.362 202.627C266.043 202.647 265.585 202.667 265.035 202.669C263.933 202.675 262.47 202.608 261.012 202.325C259.547 202.041 258.129 201.547 257.079 200.726C256.049 199.921 255.358 198.794 255.328 197.168L254.328 197.187ZM266.906 203.086C266.886 202.587 266.886 202.587 266.886 202.587C266.886 202.587 266.885 202.587 266.885 202.587C266.885 202.587 266.884 202.587 266.883 202.587C266.882 202.587 266.88 202.587 266.877 202.587C266.872 202.587 266.865 202.588 266.856 202.588C266.838 202.589 266.811 202.59 266.777 202.593C266.71 202.597 266.612 202.604 266.489 202.615C266.242 202.636 265.892 202.674 265.473 202.738C264.638 202.866 263.517 203.101 262.393 203.53C260.165 204.379 257.757 206.068 257.818 209.337L258.817 209.318C258.769 206.694 260.655 205.262 262.749 204.464C263.786 204.069 264.832 203.848 265.625 203.727C266.019 203.666 266.348 203.631 266.577 203.611C266.691 203.601 266.78 203.594 266.84 203.591C266.87 203.589 266.892 203.588 266.907 203.587C266.914 203.586 266.919 203.586 266.923 203.586C266.924 203.586 266.925 203.586 266.926 203.586C266.926 203.586 266.926 203.586 266.926 203.586C266.926 203.586 266.926 203.586 266.926 203.586C266.926 203.586 266.926 203.586 266.906 203.086ZM257.818 209.337C257.838 210.452 258.142 211.41 258.745 212.203C259.345 212.991 260.214 213.579 261.303 214.011C263.465 214.867 266.607 215.148 270.629 215.074L270.61 214.074C266.606 214.148 263.635 213.859 261.672 213.081C260.699 212.696 260.001 212.201 259.541 211.597C259.085 210.998 258.835 210.255 258.817 209.318L257.818 209.337ZM270.629 215.074C278.655 214.925 286.232 214.785 297.599 214.574L297.58 213.574C286.214 213.785 278.636 213.925 270.61 214.074L270.629 215.074ZM297.599 214.574C305.221 214.432 313.837 212.898 320.501 208.22C327.199 203.519 331.86 195.689 331.627 183.122L330.627 183.14C330.854 195.411 326.324 202.911 319.927 207.402C313.496 211.916 305.112 213.434 297.58 213.574L297.599 214.574ZM143.192 166.136C143.338 152.175 152.583 139.921 161.18 132.936L160.55 132.16C151.835 139.24 142.343 151.747 142.192 166.126L143.192 166.136ZM161.18 132.936C166.525 128.594 172.255 125.418 176.978 123.747C179.342 122.91 181.43 122.459 183.079 122.414C184.751 122.369 185.849 122.742 186.399 123.403L187.167 122.762C186.317 121.743 184.82 121.367 183.052 121.414C181.261 121.463 179.064 121.948 176.644 122.804C171.801 124.518 165.973 127.755 160.55 132.16L161.18 132.936ZM186.399 123.403C186.794 123.875 186.981 124.362 187.014 124.862C187.048 125.369 186.926 125.923 186.649 126.522C186.091 127.733 184.944 129.043 183.443 130.369C180.452 133.011 176.232 135.561 173.161 137.328L173.659 138.195C176.73 136.429 181.03 133.835 184.105 131.118C185.638 129.764 186.911 128.342 187.558 126.941C187.883 126.234 188.059 125.512 188.012 124.795C187.963 124.072 187.689 123.387 187.167 122.762L186.399 123.403ZM173.511 138.251C182.829 136.329 192.648 135.669 200.059 136.47C203.77 136.872 206.835 137.636 208.927 138.76C211.014 139.881 212.036 141.297 211.936 143.01L212.934 143.068C213.066 140.808 211.664 139.095 209.4 137.879C207.143 136.666 203.93 135.883 200.167 135.476C192.628 134.661 182.702 135.334 173.309 137.272L173.511 138.251ZM211.936 143.01C211.865 144.226 211.326 145.087 210.412 145.722C209.473 146.375 208.123 146.796 206.444 147.046C203.084 147.546 198.651 147.334 194.162 147.187L194.129 148.186C198.567 148.332 203.118 148.552 206.592 148.035C208.33 147.776 209.858 147.325 210.983 146.543C212.133 145.744 212.845 144.609 212.934 143.068L211.936 143.01ZM194.162 147.187C191.167 147.089 186.425 146.744 182.423 146.424C180.424 146.264 178.613 146.11 177.302 145.996C176.646 145.939 176.115 145.892 175.748 145.859C175.565 145.842 175.423 145.83 175.326 145.821C175.278 145.817 175.241 145.813 175.216 145.811C175.204 145.81 175.195 145.809 175.189 145.809C175.185 145.808 175.183 145.808 175.182 145.808C175.181 145.808 175.18 145.808 175.18 145.808C175.18 145.808 175.179 145.808 175.179 145.808C175.179 145.808 175.179 145.808 175.134 146.306C175.089 146.804 175.089 146.804 175.089 146.804C175.089 146.804 175.089 146.804 175.089 146.804C175.09 146.804 175.09 146.804 175.091 146.804C175.093 146.804 175.095 146.804 175.098 146.804C175.104 146.805 175.114 146.806 175.126 146.807C175.151 146.809 175.188 146.813 175.236 146.817C175.333 146.826 175.476 146.838 175.66 146.855C176.027 146.888 176.558 146.935 177.215 146.992C178.528 147.106 180.342 147.26 182.343 147.421C186.343 147.741 191.107 148.087 194.129 148.186L194.162 147.187ZM175.134 146.306C175.035 146.796 175.035 146.796 175.035 146.796C175.035 146.796 175.036 146.796 175.036 146.796C175.037 146.796 175.038 146.796 175.04 146.797C175.043 146.797 175.048 146.798 175.054 146.8C175.067 146.802 175.086 146.806 175.111 146.811C175.161 146.821 175.236 146.836 175.334 146.856C175.53 146.896 175.818 146.954 176.187 147.028C176.924 147.177 177.984 147.391 179.276 147.652C181.858 148.172 185.365 148.878 189.063 149.619C196.455 151.1 204.616 152.722 207.667 153.283L207.848 152.299C204.806 151.741 196.655 150.12 189.259 148.638C185.562 147.898 182.056 147.192 179.473 146.671C178.182 146.411 177.122 146.197 176.385 146.048C176.016 145.974 175.728 145.916 175.532 145.876C175.434 145.856 175.36 145.841 175.309 145.831C175.284 145.826 175.265 145.822 175.252 145.819C175.246 145.818 175.241 145.817 175.238 145.817C175.236 145.816 175.235 145.816 175.234 145.816C175.234 145.816 175.233 145.816 175.233 145.816C175.233 145.816 175.233 145.816 175.134 146.306ZM207.667 153.283C210.73 153.845 215.276 154.641 218.808 156.075C220.578 156.793 222.034 157.649 222.925 158.669C223.79 159.658 224.128 160.801 223.684 162.205L224.638 162.506C225.198 160.735 224.748 159.234 223.678 158.01C222.633 156.816 221.005 155.888 219.185 155.148C215.537 153.667 210.878 152.856 207.848 152.299L207.667 153.283ZM223.684 162.205C223.234 163.63 222.228 164.612 220.82 165.27C219.4 165.934 217.588 166.258 215.595 166.348C211.609 166.528 207.051 165.771 203.815 165.143L203.624 166.125C206.866 166.754 211.526 167.533 215.64 167.347C217.697 167.254 219.656 166.918 221.244 166.176C222.845 165.428 224.085 164.256 224.638 162.506L223.684 162.205ZM203.815 165.143C202.49 164.886 200.012 164.074 197.003 162.981C194.008 161.893 190.523 160.54 187.207 159.219C183.891 157.898 180.745 156.611 178.429 155.653C177.271 155.174 176.32 154.778 175.659 154.502C175.328 154.364 175.07 154.255 174.894 154.182C174.807 154.145 174.74 154.117 174.694 154.098C174.672 154.088 174.655 154.081 174.643 154.076C174.638 154.074 174.633 154.072 174.631 154.071C174.629 154.07 174.628 154.07 174.627 154.069C174.627 154.069 174.627 154.069 174.627 154.069C174.626 154.069 174.626 154.069 174.432 154.53C174.238 154.99 174.238 154.99 174.238 154.99C174.238 154.99 174.238 154.991 174.239 154.991C174.24 154.991 174.241 154.992 174.242 154.992C174.245 154.993 174.249 154.995 174.255 154.998C174.267 155.002 174.284 155.01 174.306 155.019C174.352 155.038 174.419 155.067 174.507 155.104C174.683 155.177 174.942 155.286 175.273 155.424C175.935 155.701 176.887 156.098 178.047 156.577C180.366 157.536 183.516 158.825 186.837 160.148C190.157 161.471 193.653 162.828 196.662 163.921C199.657 165.009 202.21 165.851 203.624 166.125L203.815 165.143ZM174.432 154.53C174.248 154.994 174.248 154.994 174.248 154.994C174.248 154.994 174.248 154.995 174.248 154.995C174.249 154.995 174.249 154.995 174.25 154.995C174.252 154.996 174.254 154.997 174.258 154.998C174.265 155.001 174.275 155.005 174.29 155.011C174.318 155.022 174.36 155.04 174.417 155.062C174.529 155.108 174.696 155.176 174.914 155.267C175.349 155.448 175.988 155.718 176.797 156.073C178.414 156.783 180.713 157.832 183.434 159.185C188.877 161.894 195.998 165.818 202.73 170.688L203.316 169.878C196.525 164.965 189.351 161.013 183.879 158.29C181.142 156.928 178.829 155.873 177.199 155.157C176.383 154.8 175.739 154.527 175.298 154.344C175.077 154.252 174.907 154.182 174.792 154.136C174.735 154.112 174.691 154.095 174.662 154.083C174.647 154.077 174.636 154.072 174.628 154.069C174.624 154.068 174.621 154.067 174.619 154.066C174.618 154.066 174.618 154.065 174.617 154.065C174.617 154.065 174.617 154.065 174.616 154.065C174.616 154.065 174.616 154.065 174.432 154.53ZM202.715 170.677C210.286 176.599 215.585 183.255 217.927 188.706C219.101 191.437 219.508 193.811 219.149 195.62C218.798 197.385 217.712 198.657 215.737 199.248L216.024 200.206C218.347 199.511 219.705 197.95 220.13 195.815C220.545 193.723 220.057 191.13 218.846 188.311C216.419 182.662 210.992 175.881 203.331 169.889L202.715 170.677ZM215.737 199.248C213.994 199.769 212.194 199.109 210.211 197.53C208.231 195.954 206.175 193.545 203.966 190.793C199.584 185.336 194.625 178.553 188.658 174.921L188.138 175.775C193.915 179.291 198.74 185.882 203.186 191.419C205.39 194.164 207.509 196.657 209.588 198.313C211.665 199.966 213.811 200.868 216.024 200.206L215.737 199.248ZM188.658 174.921C183.769 171.944 178.795 170.769 174.614 171.212C170.428 171.657 167.016 173.734 165.369 177.26L166.275 177.683C167.743 174.539 170.804 172.622 174.72 172.207C178.641 171.791 183.398 172.889 188.138 175.775L188.658 174.921ZM165.369 177.26C163.599 181.051 164.758 185.179 167.649 188.595C170.54 192.012 175.207 194.787 180.654 195.97L180.866 194.993C175.606 193.85 171.143 191.177 168.412 187.949C165.68 184.721 164.724 181.006 166.275 177.683L165.369 177.26ZM180.654 195.97C184.69 196.847 188.827 195.859 192.325 195.158C194.097 194.802 195.694 194.521 197.084 194.545C198.462 194.568 199.58 194.891 200.445 195.694L201.126 194.961C200.018 193.932 198.624 193.571 197.1 193.545C195.588 193.519 193.892 193.824 192.129 194.177C188.556 194.894 184.653 195.815 180.866 194.993L180.654 195.97ZM200.445 195.694C201.222 196.415 201.399 197.611 200.804 199.093C200.21 200.569 198.873 202.225 196.827 203.658C192.747 206.515 185.916 208.431 176.925 206.236L176.688 207.208C185.931 209.464 193.063 207.515 197.4 204.477C199.563 202.963 201.048 201.165 201.731 199.466C202.413 197.772 202.322 196.072 201.126 194.961L200.445 195.694ZM176.925 206.236C157.136 201.406 142.984 186.011 143.192 166.136L142.192 166.126C141.978 186.55 156.535 202.289 176.688 207.208L176.925 206.236ZM331.968 151.367L333.073 210.945L334.073 210.926L332.968 151.348L331.968 151.367ZM333.573 210.936C333.582 211.436 333.582 211.436 333.583 211.436C333.584 211.436 333.584 211.436 333.585 211.436C333.587 211.436 333.59 211.436 333.595 211.435C333.603 211.435 333.615 211.435 333.631 211.435C333.663 211.434 333.712 211.433 333.776 211.432C333.903 211.43 334.093 211.426 334.341 211.422C334.837 211.412 335.567 211.399 336.5 211.382C338.366 211.347 341.047 211.297 344.305 211.237C350.821 211.116 359.648 210.952 368.888 210.781C387.368 210.438 407.503 210.065 414.123 209.942L414.105 208.942C407.485 209.065 387.35 209.438 368.869 209.781C359.629 209.952 350.803 210.116 344.286 210.237C341.028 210.297 338.348 210.347 336.481 210.382C335.548 210.399 334.819 210.413 334.323 210.422C334.075 210.426 333.885 210.43 333.757 210.432C333.693 210.433 333.645 210.434 333.613 210.435C333.596 210.435 333.584 210.435 333.576 210.436C333.572 210.436 333.569 210.436 333.567 210.436C333.566 210.436 333.565 210.436 333.564 210.436C333.564 210.436 333.564 210.436 333.573 210.936ZM414.123 209.942C437 209.518 458.148 191.26 457.631 163.384L456.631 163.403C457.137 190.694 436.462 208.528 414.105 208.942L414.123 209.942ZM457.631 163.384C456.757 116.219 456.35 94.2942 456.15 83.5369L455.151 83.5554C455.35 94.3127 455.757 116.237 456.631 163.403L457.631 163.384ZM456.15 83.5369C455.793 64.2916 442.062 46.9419 421.041 47.3316L421.059 48.3315C441.411 47.9541 454.802 64.7373 455.151 83.5554L456.15 83.5369ZM421.041 47.3316C400.006 47.7216 386.941 65.5834 387.329 86.4686L388.328 86.4501C387.948 65.9618 400.721 48.7086 421.059 48.3315L421.041 47.3316ZM387.329 86.4686C387.712 107.155 388.062 126.046 388.246 135.976L389.246 135.957C389.062 126.027 388.712 107.137 388.328 86.4501L387.329 86.4686ZM388.246 135.976C388.337 140.856 387.114 144.312 384.806 146.575C382.492 148.842 379.004 149.995 374.384 150.08L374.403 151.08C379.162 150.992 382.941 149.802 385.506 147.289C388.075 144.77 389.34 141.006 389.246 135.957L388.246 135.976ZM374.384 150.08C370.247 150.157 359.766 150.351 350.319 150.527C345.595 150.614 341.13 150.697 337.846 150.758C336.204 150.788 334.857 150.813 333.921 150.831C333.453 150.839 333.087 150.846 332.839 150.851C332.715 150.853 332.62 150.855 332.556 150.856C332.524 150.857 332.5 150.857 332.483 150.857C332.475 150.858 332.469 150.858 332.465 150.858C332.463 150.858 332.462 150.858 332.461 150.858C332.46 150.858 332.46 150.858 332.459 150.858C332.459 150.858 332.459 150.858 332.468 151.358C332.478 151.858 332.478 151.858 332.478 151.858C332.478 151.858 332.479 151.858 332.479 151.858C332.48 151.858 332.482 151.858 332.484 151.858C332.488 151.857 332.494 151.857 332.502 151.857C332.518 151.857 332.542 151.856 332.574 151.856C332.638 151.855 332.733 151.853 332.857 151.851C333.106 151.846 333.471 151.839 333.94 151.831C334.876 151.813 336.223 151.788 337.865 151.758C341.149 151.697 345.614 151.614 350.337 151.526C359.784 151.351 370.265 151.157 374.403 151.08L374.384 150.08ZM332.468 151.358C332.293 151.826 332.293 151.826 332.293 151.826C332.293 151.826 332.293 151.826 332.293 151.826C332.293 151.826 332.294 151.826 332.295 151.827C332.296 151.827 332.299 151.828 332.303 151.83C332.312 151.833 332.325 151.838 332.342 151.845C332.377 151.859 332.43 151.88 332.499 151.908C332.639 151.966 332.845 152.053 333.109 152.172C333.637 152.411 334.395 152.777 335.307 153.283C337.133 154.296 339.573 155.868 342.023 158.101C346.919 162.562 351.854 169.652 352.05 180.216L353.05 180.198C352.848 169.292 347.741 161.958 342.696 157.361C340.176 155.065 337.67 153.45 335.793 152.409C334.854 151.888 334.071 151.51 333.521 151.261C333.246 151.137 333.029 151.045 332.879 150.983C332.805 150.953 332.747 150.93 332.707 150.914C332.688 150.906 332.672 150.9 332.662 150.896C332.656 150.894 332.652 150.893 332.649 150.892C332.648 150.891 332.646 150.891 332.646 150.89C332.645 150.89 332.645 150.89 332.644 150.89C332.644 150.89 332.644 150.89 332.468 151.358ZM352.05 180.216C352.254 191.209 347.584 198.768 342.86 203.588C340.495 206.001 338.116 207.727 336.33 208.849C335.438 209.409 334.694 209.818 334.176 210.086C333.917 210.22 333.714 210.319 333.577 210.384C333.509 210.416 333.457 210.44 333.422 210.455C333.405 210.463 333.393 210.469 333.384 210.472C333.38 210.474 333.377 210.476 333.376 210.476C333.375 210.477 333.374 210.477 333.374 210.477C333.374 210.477 333.374 210.477 333.374 210.477C333.374 210.477 333.374 210.477 333.573 210.936C333.772 211.394 333.772 211.394 333.773 211.394C333.773 211.394 333.773 211.394 333.774 211.394C333.775 211.393 333.776 211.393 333.777 211.392C333.78 211.391 333.784 211.389 333.79 211.387C333.8 211.382 333.815 211.375 333.835 211.366C333.874 211.349 333.931 211.323 334.004 211.288C334.151 211.218 334.365 211.114 334.635 210.975C335.175 210.695 335.943 210.272 336.862 209.695C338.699 208.542 341.143 206.769 343.574 204.288C348.441 199.323 353.26 191.517 353.05 180.198L352.05 180.216ZM357.902 150.886C357.701 151.344 357.701 151.344 357.701 151.344C357.701 151.344 357.701 151.344 357.701 151.344C357.701 151.344 357.702 151.345 357.703 151.345C357.704 151.345 357.707 151.347 357.71 151.348C357.717 151.351 357.728 151.356 357.743 151.363C357.772 151.376 357.817 151.397 357.877 151.426C357.996 151.483 358.173 151.57 358.399 151.69C358.853 151.929 359.505 152.295 360.29 152.803C361.862 153.817 363.965 155.392 366.08 157.628C370.305 162.095 374.586 169.205 374.783 179.795L375.783 179.776C375.581 168.896 371.172 161.557 366.806 156.941C364.626 154.636 362.458 153.012 360.833 151.962C360.02 151.438 359.342 151.056 358.865 150.805C358.627 150.679 358.439 150.586 358.309 150.524C358.244 150.493 358.193 150.469 358.159 150.454C358.141 150.446 358.128 150.44 358.118 150.435C358.114 150.433 358.11 150.432 358.107 150.43C358.106 150.43 358.105 150.429 358.104 150.429C358.104 150.429 358.103 150.429 358.103 150.428C358.103 150.428 358.102 150.428 357.902 150.886ZM374.783 179.795C374.987 190.827 371.382 198.381 367.744 203.174C365.922 205.573 364.089 207.284 362.715 208.393C362.028 208.947 361.456 209.351 361.058 209.615C360.859 209.746 360.704 209.843 360.6 209.906C360.548 209.938 360.508 209.961 360.483 209.976C360.47 209.983 360.461 209.989 360.455 209.992C360.452 209.994 360.45 209.995 360.449 209.996C360.448 209.996 360.448 209.996 360.447 209.996C360.447 209.996 360.447 209.996 360.447 209.996C360.448 209.996 360.448 209.996 360.691 210.433C360.933 210.87 360.934 210.87 360.934 210.87C360.934 210.87 360.935 210.869 360.935 210.869C360.936 210.869 360.937 210.868 360.938 210.868C360.941 210.866 360.944 210.864 360.948 210.862C360.957 210.857 360.969 210.85 360.984 210.841C361.015 210.823 361.06 210.797 361.118 210.762C361.233 210.692 361.4 210.588 361.611 210.448C362.032 210.169 362.629 209.747 363.343 209.171C364.769 208.02 366.662 206.252 368.54 203.779C372.301 198.825 375.992 191.055 375.783 179.776L374.783 179.795ZM142.896 196.53L142.308 136.944L141.308 136.954L141.896 196.54L142.896 196.53ZM141.808 136.949C141.803 136.449 141.803 136.449 141.802 136.449C141.802 136.449 141.801 136.449 141.8 136.449C141.798 136.449 141.795 136.449 141.791 136.449C141.782 136.45 141.77 136.45 141.754 136.45C141.722 136.45 141.673 136.451 141.609 136.451C141.482 136.453 141.292 136.454 141.044 136.457C140.547 136.462 139.818 136.469 138.885 136.478C137.018 136.497 134.337 136.523 131.079 136.555C124.562 136.62 115.734 136.707 106.493 136.798C88.0105 136.981 67.8729 137.179 61.2524 137.245L61.2622 138.245C67.8828 138.179 88.0204 137.981 106.503 137.798C115.744 137.707 124.572 137.62 131.089 137.555C134.347 137.523 137.028 137.497 138.895 137.478C139.828 137.469 140.557 137.462 141.054 137.457C141.302 137.454 141.491 137.452 141.619 137.451C141.683 137.451 141.731 137.45 141.764 137.45C141.78 137.45 141.792 137.45 141.8 137.449C141.805 137.449 141.808 137.449 141.81 137.449C141.811 137.449 141.811 137.449 141.812 137.449C141.812 137.449 141.813 137.449 141.808 136.949ZM61.2524 137.245C38.372 137.471 17.067 155.546 17.3425 183.424L18.3424 183.414C18.0727 156.12 38.9014 138.466 61.2623 138.245L61.2524 137.245ZM17.3425 183.424C17.8083 230.596 18.0248 252.523 18.1311 263.281L19.131 263.271C19.0248 252.513 18.8083 230.586 18.3424 183.414L17.3425 183.424ZM18.1311 263.281C18.321 282.529 31.9012 299.997 52.9254 299.789L52.9155 298.789C32.5608 298.99 19.3168 282.092 19.131 263.271L18.1311 263.281ZM52.9254 299.789C73.9627 299.582 87.1821 281.834 86.976 260.946L85.9761 260.956C86.1783 281.447 73.2571 298.589 52.9155 298.789L52.9254 299.789ZM86.976 260.946C86.7714 240.257 86.5851 221.364 86.4869 211.433L85.487 211.443C85.5851 221.374 85.7714 240.266 85.9761 260.956L86.976 260.946ZM86.4869 211.433C86.4387 206.552 87.6916 203.106 90.0193 200.864C92.3523 198.617 95.851 197.494 100.471 197.449L100.461 196.449C95.7016 196.496 91.9117 197.653 89.3255 200.144C86.7341 202.64 85.4371 206.393 85.487 211.443L86.4869 211.433ZM100.471 197.449C104.609 197.408 115.091 197.305 124.539 197.211C129.263 197.165 133.729 197.12 137.013 197.088C138.656 197.072 140.002 197.058 140.939 197.049C141.407 197.045 141.773 197.041 142.021 197.039C142.145 197.037 142.24 197.036 142.304 197.036C142.336 197.035 142.361 197.035 142.377 197.035C142.385 197.035 142.391 197.035 142.395 197.035C142.397 197.035 142.399 197.035 142.4 197.035C142.4 197.035 142.401 197.035 142.401 197.035C142.401 197.035 142.401 197.035 142.396 196.535C142.391 196.035 142.391 196.035 142.391 196.035C142.391 196.035 142.39 196.035 142.39 196.035C142.389 196.035 142.387 196.035 142.385 196.035C142.381 196.035 142.375 196.035 142.367 196.035C142.351 196.035 142.326 196.035 142.294 196.036C142.231 196.036 142.136 196.037 142.011 196.039C141.763 196.041 141.397 196.045 140.929 196.049C139.993 196.059 138.646 196.072 137.003 196.088C133.719 196.12 129.254 196.165 124.529 196.211C115.081 196.305 104.599 196.408 100.461 196.449L100.471 197.449ZM142.396 196.535C142.576 196.068 142.576 196.068 142.576 196.068C142.576 196.068 142.576 196.068 142.576 196.068C142.575 196.068 142.575 196.068 142.574 196.067C142.572 196.067 142.569 196.066 142.565 196.064C142.557 196.061 142.544 196.056 142.527 196.049C142.492 196.035 142.439 196.013 142.37 195.984C142.231 195.926 142.026 195.836 141.763 195.715C141.237 195.471 140.482 195.099 139.574 194.585C137.757 193.556 135.331 191.963 132.9 189.709C128.042 185.206 123.169 178.074 123.065 167.508L122.065 167.518C122.173 178.424 127.215 185.803 132.22 190.443C134.721 192.76 137.213 194.397 139.081 195.455C140.016 195.984 140.795 196.369 141.343 196.622C141.617 196.749 141.833 196.843 141.982 196.906C142.056 196.937 142.114 196.96 142.153 196.976C142.173 196.984 142.188 196.99 142.199 196.995C142.204 196.997 142.208 196.998 142.211 196.999C142.213 197 142.214 197 142.215 197.001C142.215 197.001 142.216 197.001 142.216 197.001C142.216 197.001 142.217 197.001 142.396 196.535ZM123.065 167.508C122.956 156.514 127.691 148.996 132.458 144.216C134.843 141.824 137.237 140.119 139.032 139.013C139.93 138.46 140.677 138.057 141.198 137.793C141.458 137.662 141.662 137.565 141.799 137.501C141.868 137.47 141.92 137.446 141.954 137.431C141.971 137.423 141.984 137.418 141.992 137.414C141.996 137.412 141.999 137.411 142.001 137.41C142.002 137.41 142.003 137.41 142.003 137.41C142.003 137.41 142.003 137.41 142.003 137.41C142.003 137.41 142.003 137.41 141.808 136.949C141.613 136.489 141.612 136.489 141.612 136.489C141.612 136.489 141.611 136.49 141.611 136.49C141.61 136.49 141.609 136.491 141.607 136.491C141.604 136.493 141.6 136.494 141.595 136.497C141.584 136.501 141.569 136.508 141.55 136.516C141.51 136.534 141.453 136.559 141.379 136.594C141.232 136.662 141.018 136.764 140.746 136.901C140.203 137.176 139.432 137.592 138.508 138.161C136.661 139.299 134.202 141.051 131.75 143.51C126.84 148.433 121.953 156.197 122.065 167.518L123.065 167.508ZM116.959 196.786C117.164 196.33 117.164 196.33 117.164 196.33C117.164 196.33 117.164 196.33 117.164 196.33C117.164 196.33 117.163 196.33 117.163 196.329C117.161 196.329 117.159 196.327 117.155 196.326C117.149 196.323 117.138 196.318 117.123 196.311C117.094 196.297 117.049 196.276 116.989 196.247C116.871 196.189 116.695 196.1 116.469 195.978C116.018 195.735 115.369 195.363 114.588 194.849C113.025 193.821 110.936 192.228 108.84 189.974C104.654 185.471 100.434 178.324 100.33 167.732L99.3298 167.742C99.4372 178.623 103.782 186.001 108.108 190.654C110.268 192.978 112.422 194.621 114.038 195.684C114.846 196.216 115.521 196.604 115.995 196.859C116.233 196.987 116.42 197.081 116.549 197.145C116.614 197.176 116.664 197.2 116.699 197.216C116.716 197.225 116.73 197.231 116.739 197.235C116.744 197.237 116.747 197.239 116.75 197.24C116.752 197.241 116.753 197.241 116.753 197.242C116.754 197.242 116.754 197.242 116.754 197.242C116.755 197.242 116.755 197.242 116.959 196.786ZM100.33 167.732C100.221 156.698 103.891 149.176 107.571 144.415C109.414 142.032 111.261 140.337 112.645 139.24C113.337 138.691 113.912 138.293 114.312 138.032C114.512 137.902 114.668 137.807 114.773 137.745C114.825 137.714 114.865 137.691 114.891 137.676C114.904 137.669 114.913 137.663 114.919 137.66C114.922 137.659 114.924 137.657 114.925 137.657C114.926 137.656 114.926 137.656 114.926 137.656C114.926 137.656 114.926 137.656 114.926 137.656C114.926 137.656 114.926 137.656 114.687 137.217C114.448 136.778 114.448 136.778 114.447 136.778C114.447 136.778 114.447 136.779 114.446 136.779C114.446 136.779 114.445 136.78 114.443 136.781C114.441 136.782 114.437 136.784 114.433 136.786C114.425 136.791 114.412 136.798 114.397 136.807C114.366 136.824 114.32 136.85 114.263 136.885C114.147 136.954 113.979 137.056 113.767 137.194C113.343 137.47 112.742 137.887 112.024 138.456C110.588 139.595 108.68 141.346 106.78 143.803C102.977 148.724 99.2183 156.461 99.3298 167.742L100.33 167.732ZM181.927 332.145V466H182.927V332.145H181.927Z" fill="#232323"/>
</svg>
