<svg width="65" height="62" viewBox="0 0 65 62" fill="none" xmlns="http://www.w3.org/2000/svg">
<path d="M14.3794 43.3325C14.3445 43.6064 14.5383 43.8568 14.8122 43.8916C15.0862 43.9265 15.3365 43.7327 15.3714 43.4588L14.3794 43.3325ZM42.7728 31.0884L43.2716 31.1225L42.7728 31.0884ZM63.9031 7.89498C64.1788 7.87966 64.3899 7.64373 64.3746 7.36802C64.3593 7.0923 64.1233 6.8812 63.8476 6.89652L63.9031 7.89498ZM15.3714 43.4588C16.0831 37.8664 17.6987 32.1434 20.0201 27.1491C22.344 22.1494 25.3595 17.9133 28.8508 15.2574C32.3279 12.6122 36.2615 11.541 40.4983 12.8099C44.7628 14.0871 49.4216 17.7604 54.2578 24.8073L55.0823 24.2415C50.1831 17.1027 45.3589 13.2217 40.7852 11.8519C36.1837 10.4738 31.9241 11.663 28.2453 14.4615C24.5806 17.2494 21.4778 21.6405 19.1133 26.7276C16.7463 31.82 15.1034 37.6431 14.3794 43.3325L15.3714 43.4588ZM54.2578 24.8073C59.0902 31.8487 60.5976 37.4282 60.2603 41.3871C59.9247 45.3249 57.7729 47.6696 55.1774 48.3917C52.5646 49.1185 49.3841 48.2347 46.9452 45.454C44.508 42.6752 42.8037 37.9801 43.2716 31.1225L42.274 31.0544C41.7932 38.1004 43.5355 43.083 46.1934 46.1134C48.8497 49.142 52.4128 50.1987 55.4454 49.3551C58.4952 48.5066 60.8904 45.7697 61.2567 41.472C61.6211 37.1954 59.9853 31.3857 55.0823 24.2415L54.2578 24.8073ZM43.2716 31.1225C43.9506 21.1716 46.942 15.5214 50.7848 12.2849C54.6392 9.03855 59.4389 8.14299 63.9031 7.89498L63.8476 6.89652C59.3118 7.14851 54.2451 8.0631 50.1406 11.52C46.0245 14.9867 42.9646 20.9329 42.274 31.0544L43.2716 31.1225Z" fill="#F9F9F9"/>
<path d="M0.875488 45.8965C12.9503 48.0016 16.1632 37.5023 16.6311 34.819C16.1627 37.5055 15.6336 48.4695 27.7085 50.5746C15.6336 48.4694 12.1868 60.3104 11.9529 61.652C12.1868 60.3104 12.9503 48.0016 0.875488 45.8965Z" fill="#F9F9F9"/>
<path d="M57.2157 0.529355C57.0134 0.341454 56.697 0.353171 56.5091 0.555526C56.3212 0.757882 56.3329 1.07425 56.5353 1.26215L57.2157 0.529355ZM63.8755 7.39575L64.2551 7.72115C64.4298 7.51735 64.4124 7.212 64.2157 7.02935L63.8755 7.39575ZM57.4959 14.0704C57.3161 14.28 57.3404 14.5957 57.5501 14.7754C57.7598 14.9551 58.0754 14.9308 58.2551 14.7211L57.4959 14.0704ZM56.5353 1.26215L63.5353 7.76215L64.2157 7.02935L57.2157 0.529355L56.5353 1.26215ZM63.4959 7.07036L57.4959 14.0704L58.2551 14.7211L64.2551 7.72115L63.4959 7.07036Z" fill="#F9F9F9"/>
</svg>
