<svg width="1269" height="876" viewBox="0 0 1269 876" fill="none" xmlns="http://www.w3.org/2000/svg">
<path d="M76.3759 70.8967C148.062 18.3969 185.881 2.98451 295.376 4.89574C429.365 7.23453 440.374 32.8953 591.875 62.8957C743.376 92.8961 902.18 11.5315 1027.38 19.8961C1152.57 28.2607 1223.25 58.3961 1251.88 125.896C1280.5 193.396 1251.88 255.898 1237.88 328.896C1223.88 401.895 1277.88 492.896 1251.88 620.895C1225.88 748.895 1140.38 801.396 1046.38 822.488C952.377 843.579 854.735 824.957 737.876 787.396C621.017 749.835 478.876 754.397 384.876 768.397C290.876 782.397 256.847 807.557 208.376 822.488C150.505 840.314 75.8149 879.896 38.8762 832.896C1.93738 785.896 43.3757 674.396 89.3757 581.896C135.376 489.396 115.376 360.896 51.3756 278.896C-12.6245 196.896 4.68926 123.397 76.3759 70.8967Z" fill="#1E1E1E"/>
</svg>
