<svg viewBox="0 0 54 49" fill="none" xmlns="http://www.w3.org/2000/svg">
<path d="M52.1795 46.9935C51.2479 48.14 49.6713 48.3549 48.453 47.5667L29.2477 34.8843C26.8112 33.1646 26.3095 29.7253 28.1727 27.3608C30.1076 24.9963 33.619 24.7813 35.7689 26.8592L51.9645 43.1959C53.0394 44.2707 53.1111 45.8471 52.1795 46.9935Z" fill="#FF592C" stroke="#232323" stroke-miterlimit="10"/>
<path d="M30.251 35.7437L32.3292 33.2358" stroke="#232323" stroke-miterlimit="10"/>
<path d="M36.127 39.4702L39.3517 35.4577" stroke="#232323" stroke-miterlimit="10"/>
<path d="M44.4395 44.9155L46.1593 42.766" stroke="#232323" stroke-miterlimit="10"/>
<path d="M35.4824 32.8779L38.3489 29.4386" stroke="#232323" stroke-miterlimit="10"/>
<path d="M43.2939 38.1802L45.0138 36.1023" stroke="#232323" stroke-miterlimit="10"/>
<path d="M12.8507 30.145C9.55421 30.145 8.40762 27.1356 8.40762 27.1356C9.32689 26.544 7.53362 22.1314 7.69268 21.7603C7.85173 21.3891 16.5557 21.9587 19.052 20.7216C22.1006 21.318 28.264 22.5375 28.5291 22.6435C28.8605 22.776 28.6616 26.6862 27.535 28.2105C26.6337 29.4299 24.5838 29.244 23.6716 28.9986C21.9517 28.6403 20.8051 26.7773 18.6553 27.064C16.6487 27.2789 15.6455 30.145 12.8507 30.145Z" fill="#FBFBFB" stroke="#232323" stroke-miterlimit="10"/>
<path d="M22.726 19.1923C22.726 19.1923 21.0062 17.6159 20.7195 15.753C20.4329 13.6751 21.5795 12.0987 21.2928 10.0925C21.0062 8.15784 19.2146 7.87123 18.3547 5.22009C17.6381 3.07052 19.0713 0.92095 20.5045 0.705994C22.4394 0.419384 24.5176 2.354 24.5893 4.64687C24.6609 7.44131 23.4427 9.23262 23.586 11.2389C23.7293 13.2451 26.4525 14.8932 28.3873 17.6159C30.3939 20.3387 30.1072 25.856 30.1072 25.856" fill="#FBFBFB"/>
<path d="M22.726 19.1923C22.726 19.1923 21.0062 17.6159 20.7195 15.753C20.4329 13.6751 21.5795 12.0987 21.2928 10.0924C21.0062 8.15784 19.2146 7.87123 18.3547 5.22009C17.6381 3.07052 19.0713 0.92095 20.5045 0.705993C22.4394 0.419384 24.5176 2.354 24.5893 4.64687C24.6609 7.44131 23.4427 9.23262 23.586 11.2389C23.7293 13.2451 26.4525 14.8932 28.3873 17.6159C30.3939 20.3387 30.1072 25.856 30.1072 25.856" stroke="#232323" stroke-miterlimit="10"/>
<path d="M28.6745 26.7874C28.8895 26.5725 29.0328 26.2142 28.9612 25.641C28.8178 24.1363 28.1012 21.0552 26.3097 19.9088C23.4432 18.1175 21.6517 19.9088 20.2901 19.2639C18.6419 18.4758 19.0718 15.4664 16.4203 15.3947C13.4822 15.3231 12.9089 17.4726 10.9024 18.5474C9.1825 19.4072 6.96099 18.834 5.09778 19.3356C3.16291 19.9088 0.654746 22.5599 1.58635 25.7127C2.44629 28.5787 5.95772 30.0118 7.74926 28.4354C9.7558 26.7158 9.11084 22.7749 11.4757 22.7032C13.6972 22.5599 13.4105 25.856 15.3454 26.0709C17.4953 26.2859 17.3519 23.5631 19.1435 23.7064C20.5767 23.778 21.2217 25.426 22.8699 26.0709C24.2315 26.6441 25.0198 25.3544 26.7396 26.9307C27.1696 27.289 28.1729 27.3607 28.6745 26.7874Z" fill="#FBFBFB" stroke="#232323" stroke-miterlimit="10"/>
<path d="M16.2051 20.4104C24.3745 21.3419 28.5309 26.7158 28.5309 26.7158" stroke="#232323" stroke-miterlimit="10"/>
<path d="M30.1792 26.9309C30.7525 27.4325 30.8242 28.2923 30.3226 28.8655C29.8209 29.4387 28.961 29.5104 28.3877 29.0088" stroke="#232323" stroke-miterlimit="10"/>
</svg>
