<svg width="472" height="472" viewBox="0 0 472 472" fill="none" xmlns="http://www.w3.org/2000/svg">
<path fill-rule="evenodd" clip-rule="evenodd" d="M250.426 47.2355C186.481 30.3589 178.879 9.60361 101.603 16.4655C51.9768 20.8724 12 57.5034 12 114.791C12 172.079 57.2467 194.181 57.2467 245.879C57.2467 282.251 46.2325 345.519 73.2559 377.014C104.961 413.965 155.543 408.51 206.121 408.51C260.737 408.51 235.41 376.717 283.29 376.717C310.5 380.5 293.5 383.5 309.371 384.888C356.516 384.888 455.49 390.145 469.746 331.145C484.71 269.215 420.56 239.616 412.75 197.681C406.133 162.151 432.529 127.967 432.529 85.872C432.529 22.8003 396.122 -6.35193 351.371 1.15623C292.273 11.0714 314.372 64.1121 250.426 47.2355Z" fill="#1E1E1E"/>
<path fill-rule="evenodd" clip-rule="evenodd" d="M350.392 82.4337C350.392 84.1442 349.004 85.5311 347.292 85.5311C345.58 85.5311 344.191 84.1442 344.191 82.4337C344.191 80.7228 345.58 79.3362 347.292 79.3362C349.004 79.3362 350.392 80.7228 350.392 82.4337Z" fill="white"/>
<path fill-rule="evenodd" clip-rule="evenodd" d="M339.525 245.524C339.525 247.234 338.137 248.621 336.424 248.621C334.712 248.621 333.324 247.234 333.324 245.524C333.324 243.813 334.712 242.426 336.424 242.426C338.137 242.426 339.525 243.813 339.525 245.524Z" fill="white"/>
<path fill-rule="evenodd" clip-rule="evenodd" d="M88.5906 349.892C88.5906 351.602 87.2023 352.989 85.49 352.989C83.7777 352.989 82.3896 351.602 82.3896 349.892C82.3896 348.181 83.7777 346.794 85.49 346.794C87.2023 346.794 88.5906 348.181 88.5906 349.892Z" fill="white"/>
<path fill-rule="evenodd" clip-rule="evenodd" d="M62.5034 71.377C62.5034 74.7483 59.7676 77.4814 56.3928 77.4814C53.0181 77.4814 50.2822 74.7483 50.2822 71.377C50.2822 68.0056 53.0181 65.2726 56.3928 65.2726C59.7676 65.2726 62.5034 68.0056 62.5034 71.377Z" fill="white"/>
<path d="M157.226 76.1916C157.226 76.1916 215.972 68.5967 215.972 128.665" stroke="white"/>
<path d="M222.306 115.032V61.325" stroke="white"/>
<path fill-rule="evenodd" clip-rule="evenodd" d="M161.029 75.9312C161.029 75.9312 146.408 76.066 146.408 90.5375C146.408 75.9808 131.787 75.9312 131.787 75.9312C131.787 75.9312 146.408 76.7035 146.408 61.325C146.408 76.7035 161.029 75.9312 161.029 75.9312Z" fill="white"/>
<path fill-rule="evenodd" clip-rule="evenodd" d="M260.648 94.2318C260.648 94.2318 244.502 94.3806 244.502 110.361C244.502 94.2866 228.357 94.2318 228.357 94.2318C228.357 94.2318 244.502 95.0845 244.502 78.1027C244.502 95.0845 260.648 94.2318 260.648 94.2318Z" fill="white"/>
<path fill-rule="evenodd" clip-rule="evenodd" d="M158.851 254.465C158.851 254.465 152.234 254.526 152.234 261.075C152.234 254.487 145.617 254.465 145.617 254.465C145.617 254.465 152.234 254.814 152.234 247.854C152.234 254.814 158.851 254.465 158.851 254.465Z" fill="white"/>
<path fill-rule="evenodd" clip-rule="evenodd" d="M88.9552 114.814C88.9552 114.814 82.3386 114.875 82.3386 121.425C82.3386 114.837 75.7217 114.814 75.7217 114.814C75.7217 114.814 82.3386 115.164 82.3386 108.204C82.3386 115.164 88.9552 114.814 88.9552 114.814Z" fill="white"/>
<path d="M244.534 152.837V97.8413" stroke="white"/>
<path fill-rule="evenodd" clip-rule="evenodd" d="M339.076 308.454C339.076 322.513 289.023 333.909 227.279 333.909C165.535 333.909 115.482 322.513 115.482 308.454C115.482 294.396 165.535 283 227.279 283C289.023 283 339.076 294.396 339.076 308.454Z" fill="white"/>
<path d="M181.927 331.145V465" stroke="#1D1D1B" stroke-width="3"/>
<path fill-rule="evenodd" clip-rule="evenodd" d="M339.279 307.793C339.279 321.875 289.195 333.289 227.413 333.289C165.631 333.289 115.547 321.875 115.547 307.793C115.547 293.712 165.631 282.297 227.413 282.297C289.195 282.297 339.279 293.712 339.279 307.793Z" stroke="#1E1E1E"/>
<path fill-rule="evenodd" clip-rule="evenodd" d="M303.242 308.794C303.242 316.36 269.292 322.494 227.413 322.494C185.534 322.494 151.584 316.36 151.584 308.794C151.584 301.227 185.534 295.093 227.413 295.093C269.292 295.093 303.242 301.227 303.242 308.794Z" fill="black"/>
<path d="M303.242 308.794C303.242 316.36 269.292 322.494 227.413 322.494C185.534 322.494 151.584 316.36 151.584 308.794C151.584 301.227 185.534 295.093 227.413 295.093C269.292 295.093 303.242 301.227 303.242 308.794" stroke="#1E1E1E"/>
<path fill-rule="evenodd" clip-rule="evenodd" d="M303.242 308.794C303.242 316.36 269.292 322.494 227.413 322.494C185.534 322.494 151.584 316.36 151.584 308.794C151.584 301.227 185.534 295.093 227.413 295.093C269.292 295.093 303.242 301.227 303.242 308.794Z" stroke="#1E1E1E"/>
<path fill-rule="evenodd" clip-rule="evenodd" d="M330.627 183.131C330.345 167.976 318.69 152.61 298.904 152.977C287.959 153.18 277.634 153.371 273.003 153.457C268.373 153.543 264.407 154.854 264.482 158.908C264.568 163.538 269.321 164.105 275.969 165.194C282.638 166.286 293.826 166.87 293.826 166.87L293.712 168.234C293.712 168.234 264.566 168.774 259.935 168.86C255.305 168.946 252.26 171.004 252.319 174.168C252.434 180.397 266.067 179.452 266.067 179.452C266.067 179.452 252.496 178.418 252.63 185.636C252.749 192.064 266.27 190.428 266.27 190.428C266.27 190.428 254.195 190.021 254.328 197.178C254.461 204.334 266.406 203.086 266.406 203.086C266.406 203.086 257.708 203.434 257.817 209.327C257.894 213.432 262.094 214.723 270.119 214.574C278.145 214.425 285.723 214.285 297.089 214.074C312.244 213.793 331.087 207.969 330.627 183.131Z" fill="white"/>
<path d="M330.627 183.131C330.345 167.976 318.69 152.61 298.904 152.977C287.959 153.18 277.634 153.371 273.003 153.457C268.373 153.543 264.407 154.854 264.482 158.908C264.568 163.538 269.321 164.105 275.969 165.194C282.638 166.286 293.826 166.87 293.826 166.87L293.712 168.234C293.712 168.234 264.566 168.774 259.935 168.86C255.305 168.946 252.26 171.004 252.319 174.168C252.434 180.397 266.067 179.452 266.067 179.452C266.067 179.452 252.496 178.418 252.63 185.636C252.749 192.064 266.27 190.428 266.27 190.428C266.27 190.428 254.195 190.021 254.328 197.178C254.461 204.334 266.406 203.086 266.406 203.086C266.406 203.086 257.708 203.434 257.817 209.327C257.894 213.432 262.094 214.723 270.119 214.574C278.145 214.425 285.723 214.285 297.089 214.074C312.244 213.793 331.087 207.969 330.627 183.131" stroke="#1E1E1E"/>
<path fill-rule="evenodd" clip-rule="evenodd" d="M330.627 183.131C330.345 167.976 318.69 152.61 298.904 152.977C287.959 153.18 277.634 153.371 273.003 153.457C268.373 153.543 264.407 154.854 264.482 158.908C264.568 163.538 269.321 164.105 275.969 165.194C282.638 166.286 293.826 166.87 293.826 166.87L293.712 168.234C293.712 168.234 264.566 168.774 259.935 168.86C255.305 168.946 252.26 171.004 252.319 174.168C252.434 180.397 266.067 179.452 266.067 179.452C266.067 179.452 252.496 178.418 252.63 185.636C252.749 192.064 266.27 190.428 266.27 190.428C266.27 190.428 254.195 190.021 254.328 197.178C254.461 204.334 266.406 203.086 266.406 203.086C266.406 203.086 257.708 203.434 257.817 209.327C257.894 213.432 262.094 214.723 270.119 214.574C278.145 214.425 285.723 214.285 297.089 214.074C312.244 213.793 331.087 207.969 330.627 183.131Z" stroke="#1E1E1E"/>
<path fill-rule="evenodd" clip-rule="evenodd" d="M331.968 151.358L333.073 210.936C333.073 210.936 400.374 209.688 413.614 209.442C436.231 209.023 457.143 190.977 456.631 163.394C455.757 116.228 455.35 94.3035 455.15 83.5461C454.798 64.5144 441.237 47.448 420.55 47.8315C399.863 48.2151 386.945 65.7726 387.328 86.4594C387.712 107.146 388.062 126.037 388.246 135.966C388.43 145.896 383.272 150.406 373.894 150.58C365.619 150.734 331.968 151.358 331.968 151.358Z" fill="white"/>
<path d="M331.968 151.358L333.073 210.936C333.073 210.936 400.374 209.688 413.614 209.442C436.231 209.023 457.143 190.977 456.631 163.394C455.757 116.228 455.35 94.3035 455.15 83.5461C454.798 64.5144 441.237 47.448 420.55 47.8315C399.863 48.2151 386.945 65.7726 387.328 86.4594C387.712 107.146 388.062 126.037 388.246 135.966C388.43 145.896 383.272 150.406 373.894 150.58C365.619 150.734 331.968 151.358 331.968 151.358" stroke="#1E1E1E"/>
<path fill-rule="evenodd" clip-rule="evenodd" d="M331.968 151.358L333.073 210.936C333.073 210.936 400.374 209.688 413.614 209.442C436.231 209.023 457.143 190.977 456.631 163.394C455.757 116.228 455.35 94.3035 455.15 83.5461C454.798 64.5144 441.237 47.448 420.55 47.8315C399.863 48.2151 386.945 65.7726 387.328 86.4594C387.712 107.146 388.062 126.037 388.246 135.966C388.43 145.896 383.272 150.406 373.894 150.58C365.619 150.734 331.968 151.358 331.968 151.358Z" stroke="#1E1E1E"/>
<path d="M331.968 151.358C331.968 151.358 351.652 158.737 352.05 180.207C352.464 202.519 333.073 210.936 333.073 210.936" stroke="#1E1E1E"/>
<path d="M357.402 150.886C357.402 150.886 374.385 158.315 374.783 179.786C375.196 202.097 360.191 210.433 360.191 210.433" stroke="#1E1E1E"/>
<path fill-rule="evenodd" clip-rule="evenodd" d="M359.327 202.318C359.367 204.456 357.665 206.222 355.527 206.262C353.388 206.301 351.622 204.6 351.582 202.461C351.543 200.323 353.244 198.557 355.383 198.517C357.522 198.478 359.287 200.179 359.327 202.318Z" fill="#1D1D1B"/>
<path d="M359.327 202.318C359.367 204.456 357.665 206.222 355.527 206.262C353.388 206.301 351.622 204.6 351.582 202.461C351.543 200.323 353.244 198.557 355.383 198.517C357.522 198.478 359.287 200.179 359.327 202.318" stroke="#1E1E1E"/>
<path d="M266.065 179.353L294.246 178.831" stroke="#1E1E1E"/>
<path d="M266.27 190.428L294.451 189.905" stroke="#1E1E1E"/>
<path d="M266.306 202.989L294.486 202.467" stroke="#1E1E1E"/>
<path fill-rule="evenodd" clip-rule="evenodd" d="M142.192 166.131C142.34 151.961 151.709 139.581 160.365 132.548C171.133 123.8 183.48 119.724 186.283 123.082C189.948 127.473 179.052 134.229 172.91 137.761C191.622 133.902 212.397 135.093 211.935 143.039C211.615 148.554 202.573 147.979 193.645 147.686C187.629 147.489 174.634 146.306 174.634 146.306C174.634 146.306 201.165 151.672 207.258 152.791C213.351 153.91 225.667 156.005 223.661 162.355C221.655 168.705 209.698 166.891 203.219 165.634C197.742 164.572 173.932 154.53 173.932 154.53C173.932 154.53 189.404 160.02 202.523 170.283C217.755 182.198 223.975 197.156 215.381 199.727C207.468 202.094 199.641 182.496 187.898 175.348C178.268 169.485 168.437 170.801 165.322 177.472C162.001 184.586 169.553 193.156 180.26 195.481C188.083 197.181 196.34 191.663 200.285 195.327C204.231 198.991 194.541 211.173 176.306 206.722C156.335 201.847 141.981 186.28 142.192 166.131Z" fill="white"/>
<path d="M142.192 166.131C142.34 151.961 151.709 139.581 160.365 132.548C171.133 123.8 183.48 119.724 186.283 123.082C189.948 127.473 179.052 134.229 172.91 137.761C191.622 133.902 212.397 135.093 211.935 143.039C211.615 148.554 202.573 147.979 193.645 147.686C187.629 147.489 174.634 146.306 174.634 146.306C174.634 146.306 201.165 151.672 207.258 152.791C213.351 153.91 225.667 156.005 223.661 162.355C221.655 168.705 209.698 166.891 203.219 165.634C197.742 164.572 173.932 154.53 173.932 154.53C173.932 154.53 189.404 160.02 202.523 170.283C217.755 182.198 223.975 197.156 215.381 199.727C207.468 202.094 199.641 182.496 187.898 175.348C178.268 169.485 168.437 170.801 165.322 177.472C162.001 184.586 169.553 193.156 180.26 195.481C188.083 197.181 196.34 191.663 200.285 195.327C204.231 198.991 194.541 211.173 176.306 206.722C156.335 201.847 141.981 186.28 142.192 166.131" stroke="#1E1E1E"/>
<path fill-rule="evenodd" clip-rule="evenodd" d="M142.192 166.131C142.34 151.961 151.709 139.581 160.365 132.548C171.133 123.8 183.48 119.724 186.283 123.082C189.948 127.473 179.052 134.229 172.91 137.761C191.622 133.902 212.397 135.093 211.935 143.039C211.615 148.554 202.573 147.979 193.645 147.686C187.629 147.489 174.634 146.306 174.634 146.306C174.634 146.306 201.165 151.672 207.258 152.791C213.351 153.91 225.667 156.005 223.661 162.355C221.655 168.705 209.698 166.891 203.219 165.634C197.742 164.572 173.932 154.53 173.932 154.53C173.932 154.53 189.404 160.02 202.523 170.283C217.755 182.198 223.975 197.156 215.381 199.727C207.468 202.094 199.641 182.496 187.898 175.348C178.268 169.485 168.437 170.801 165.322 177.472C162.001 184.586 169.553 193.156 180.26 195.481C188.083 197.181 196.34 191.663 200.285 195.327C204.231 198.991 194.541 211.173 176.306 206.722C156.335 201.847 141.981 186.28 142.192 166.131Z" stroke="#1E1E1E"/>
<path fill-rule="evenodd" clip-rule="evenodd" d="M141.896 196.535L141.308 136.949C141.308 136.949 73.9984 137.614 60.7573 137.745C38.1367 137.968 17.0699 155.833 17.3425 183.419C17.8083 230.591 18.0248 252.518 18.1311 263.276C18.3189 282.31 31.731 299.494 52.4204 299.289C73.1099 299.085 86.1802 281.64 85.9761 260.951C85.7714 240.262 85.5851 221.369 85.487 211.438C85.3889 201.507 90.5866 197.041 99.9659 196.949C108.242 196.867 141.896 196.535 141.896 196.535Z" fill="white"/>
<path d="M141.896 196.535L141.308 136.949C141.308 136.949 73.9984 137.614 60.7573 137.745C38.1367 137.968 17.0699 155.833 17.3425 183.419C17.8083 230.591 18.0248 252.518 18.1311 263.276C18.3189 282.31 31.731 299.494 52.4204 299.289C73.1099 299.085 86.1802 281.64 85.976 260.951C85.7714 240.262 85.5851 221.369 85.487 211.438C85.3889 201.507 90.5866 197.041 99.9659 196.949C108.242 196.867 141.896 196.535 141.896 196.535" stroke="#1E1E1E"/>
<path fill-rule="evenodd" clip-rule="evenodd" d="M141.896 196.535L141.308 136.949C141.308 136.949 73.9984 137.614 60.7573 137.745C38.1367 137.968 17.0699 155.833 17.3425 183.419C17.8083 230.591 18.0248 252.518 18.1311 263.276C18.3189 282.31 31.731 299.494 52.4204 299.289C73.1099 299.085 86.1802 281.64 85.976 260.951C85.7714 240.262 85.5851 221.369 85.487 211.438C85.3889 201.507 90.5866 197.041 99.9659 196.949C108.242 196.867 141.896 196.535 141.896 196.535Z" stroke="#1E1E1E"/>
<path d="M141.896 196.535C141.896 196.535 122.277 188.985 122.065 167.513C121.845 145.198 141.308 136.949 141.308 136.949" stroke="#1E1E1E"/>
<path d="M116.46 196.786C116.46 196.786 99.5418 189.21 99.3298 167.737C99.1093 145.423 114.187 137.217 114.187 137.217" stroke="#1E1E1E"/>
<path fill-rule="evenodd" clip-rule="evenodd" d="M114.98 145.34C114.959 143.201 116.675 141.45 118.814 141.429C120.953 141.408 122.704 143.124 122.725 145.263C122.747 147.402 121.029 149.153 118.891 149.174C116.752 149.196 115.001 147.478 114.98 145.34Z" fill="#1D1D1B"/>
<path d="M114.98 145.34C114.959 143.201 116.675 141.45 118.814 141.429C120.953 141.408 122.704 143.124 122.725 145.263C122.747 147.402 121.029 149.153 118.891 149.174C116.752 149.196 115.001 147.478 114.98 145.34" stroke="#1E1E1E"/>
<path fill-rule="evenodd" clip-rule="evenodd" d="M239.732 316.844H213.317V294.43H240.029C249.367 294.43 253.353 298.84 253.353 306.192C253.353 312.695 248.532 316.844 239.732 316.844ZM236.124 250.887C248.722 250.887 250.574 258.256 250.574 262.755C250.574 267.255 246.351 274.161 236.228 274.161H213.317V250.887H236.124ZM245.095 282.587C259.695 279.4 266.038 268.041 266.038 258.792C266.038 243 251.589 230.877 233.166 230.877V216.931H220.242V230.877H213.317V216.931H200.393V230.877H181.5V250.887H200.393V316.844H181.659V337.112H200.393V350.81H213.317V337.112H220.348V350.899H233.272V337.112C259.262 337.112 270.142 323.744 270.142 307.071C270.142 293.574 258.37 283.839 245.095 282.587Z" fill="#EDE1D2"/>
<path d="M213.317 316.844H212.817V317.344H213.317V316.844ZM213.317 294.43V293.93H212.817V294.43H213.317ZM213.317 274.161H212.817V274.661H213.317V274.161ZM213.317 250.887V250.387H212.817V250.887H213.317ZM233.166 230.877H232.666V231.377H233.166V230.877ZM233.166 216.931H233.666V216.431H233.166V216.931ZM220.242 216.931V216.431H219.742V216.931H220.242ZM220.242 230.877V231.377H220.742V230.877H220.242ZM213.317 230.877H212.817V231.377H213.317V230.877ZM213.317 216.931H213.817V216.431H213.317V216.931ZM200.393 216.931V216.431H199.893V216.931H200.393ZM200.393 230.877V231.377H200.893V230.877H200.393ZM181.5 230.877V230.377H181V230.877H181.5ZM181.5 250.887H181V251.387H181.5V250.887ZM200.393 250.887H200.893V250.387H200.393V250.887ZM200.393 316.844V317.344H200.893V316.844H200.393ZM181.659 316.844V316.344H181.159V316.844H181.659ZM181.659 337.112H181.159V337.612H181.659V337.112ZM200.393 337.112H200.893V336.612H200.393V337.112ZM200.393 350.81H199.893V351.31H200.393V350.81ZM213.317 350.81V351.31H213.817V350.81H213.317ZM213.317 337.112V336.612H212.817V337.112H213.317ZM220.348 337.112H220.848V336.612H220.348V337.112ZM220.348 350.899H219.848V351.399H220.348V350.899ZM233.272 350.899V351.399H233.772V350.899H233.272ZM233.272 337.112V336.612H232.772V337.112H233.272ZM239.732 316.344H213.317V317.344H239.732V316.344ZM213.817 316.844V294.43H212.817V316.844H213.817ZM213.317 294.93H240.029V293.93H213.317V294.93ZM240.029 294.93C244.627 294.93 247.814 296.016 249.851 297.919C251.882 299.816 252.853 302.604 252.853 306.192H253.853C253.853 302.428 252.831 299.334 250.534 297.189C248.243 295.049 244.768 293.93 240.029 293.93V294.93ZM252.853 306.192C252.853 309.309 251.703 311.821 249.529 313.567C247.341 315.323 244.06 316.344 239.732 316.344V317.344C244.203 317.344 247.733 316.29 250.155 314.346C252.591 312.391 253.853 309.578 253.853 306.192H252.853ZM236.124 251.387C242.324 251.387 245.776 253.196 247.692 255.457C249.621 257.734 250.074 260.563 250.074 262.755H251.074C251.074 260.449 250.601 257.344 248.455 254.811C246.295 252.262 242.522 250.387 236.124 250.387V251.387ZM250.074 262.755C250.074 266.972 246.081 273.661 236.228 273.661V274.661C246.621 274.661 251.074 267.537 251.074 262.755H250.074ZM236.228 273.661H213.317V274.661H236.228V273.661ZM213.817 274.161V250.887H212.817V274.161H213.817ZM213.317 251.387H236.124V250.387H213.317V251.387ZM245.202 283.075C260.046 279.835 266.538 268.261 266.538 258.792H265.538C265.538 267.822 259.344 278.965 244.988 282.098L245.202 283.075ZM266.538 258.792C266.538 242.649 251.784 230.377 233.166 230.377V231.377C251.395 231.377 265.538 243.351 265.538 258.792H266.538ZM233.666 230.877V216.931H232.666V230.877H233.666ZM233.166 216.431H220.242V217.431H233.166V216.431ZM219.742 216.931V230.877H220.742V216.931H219.742ZM220.242 230.377H213.317V231.377H220.242V230.377ZM213.817 230.877V216.931H212.817V230.877H213.817ZM213.317 216.431H200.393V217.431H213.317V216.431ZM199.893 216.931V230.877H200.893V216.931H199.893ZM200.393 230.377H181.5V231.377H200.393V230.377ZM181 230.877V250.887H182V230.877H181ZM181.5 251.387H200.393V250.387H181.5V251.387ZM199.893 250.887V316.844H200.893V250.887H199.893ZM200.393 316.344H181.659V317.344H200.393V316.344ZM181.159 316.844V337.112H182.159V316.844H181.159ZM181.659 337.612H200.393V336.612H181.659V337.612ZM199.893 337.112V350.81H200.893V337.112H199.893ZM200.393 351.31H213.317V350.31H200.393V351.31ZM213.817 350.81V337.112H212.817V350.81H213.817ZM213.317 337.612H220.348V336.612H213.317V337.612ZM219.848 337.112V350.899H220.848V337.112H219.848ZM220.348 351.399H233.272V350.399H220.348V351.399ZM233.772 350.899V337.112H232.772V350.899H233.772ZM233.272 337.612C246.348 337.612 255.701 334.249 261.79 328.714C267.883 323.175 270.642 315.519 270.642 307.071H269.642C269.642 315.296 266.961 322.661 261.117 327.974C255.267 333.292 246.185 336.612 233.272 336.612V337.612ZM270.642 307.071C270.642 293.244 258.595 283.358 245.142 282.089L245.048 283.085C258.145 284.32 269.642 293.904 269.642 307.071H270.642Z" fill="#1E1E1E"/>
<path d="M302.5 327.001L151 327.447H151.5V465.5H302.5V327.001Z" fill="white" stroke="#1E1E1E"/>
<path fill-rule="evenodd" clip-rule="evenodd" d="M115.547 309.015C115.547 323.056 165.631 334.438 227.413 334.438C289.195 334.438 339.279 323.056 339.279 309.015L303.967 309C303.967 313.098 284.38 323.551 226.999 323.551C180.101 323.551 151.41 316.124 151.41 309L115.547 309.015Z" fill="white" stroke="#1E1E1E"/>
<path fill-rule="evenodd" clip-rule="evenodd" d="M115.547 308.793C115.547 322.875 165.631 334.289 227.413 334.289C289.195 334.289 339.279 322.875 339.279 308.793L303.967 308.778C303.967 312.888 284.38 323.371 226.999 323.371C180.101 323.371 151.41 315.923 151.41 308.778L115.547 308.793Z" stroke="#1E1E1E" stroke-width="2"/>
<rect y="465" width="437" height="1" fill="#1D1D1B"/>
</svg>
