<svg width="15" height="15" viewBox="0 0 15 15" xmlns="http://www.w3.org/2000/svg">
<path fill-rule="evenodd" clip-rule="evenodd" d="M2.188 14.5193C1.972 14.5193 1.757 14.4603 1.564 14.3443C1.211 14.1303 1 13.7603 1 13.3533V2.16533C1 1.75833 1.212 1.38833 1.566 1.17433C1.933 0.954326 2.377 0.941326 2.755 1.14233L13.34 6.75633C13.725 6.96033 13.964 7.35333 13.963 7.78233C13.962 8.21133 13.723 8.60333 13.337 8.80633L2.752 14.3793C2.574 14.4723 2.38 14.5193 2.188 14.5193ZM2.189 1.71633C2.101 1.71633 2.014 1.74033 1.935 1.78733C1.869 1.82733 1.715 1.94333 1.715 2.16533V13.3533C1.715 13.5093 1.795 13.6483 1.934 13.7313C2.083 13.8213 2.264 13.8273 2.419 13.7463L13.004 8.17333C13.156 8.09333 13.247 7.94633 13.248 7.78133C13.248 7.70133 13.224 7.50433 13.005 7.38833L2.42 1.77433C2.347 1.73533 2.268 1.71633 2.189 1.71633Z" fill="#FBFBFB" stroke="#FBFBFB" stroke-width="0.5"/>
<path fill-rule="evenodd" clip-rule="evenodd" d="M1.65747 1.85254L10.1147 10.2007L9.61247 10.7095L1.15527 2.36134L1.65747 1.85254Z" fill="#FBFBFB" stroke="#FBFBFB" stroke-width="0.5"/>
<path fill-rule="evenodd" clip-rule="evenodd" d="M9.61057 4.81152L10.1159 5.31782L1.70257 13.7145L1.19727 13.2082L9.61057 4.81152Z" fill="#FBFBFB" stroke="#FBFBFB" stroke-width="0.5"/>
</svg>
