<svg width="12" height="14" viewBox="0 0 12 14" fill="none" xmlns="http://www.w3.org/2000/svg">
<path d="M0.231779 12.3598C-0.121785 12.7841 -0.0644614 13.4147 0.359816 13.7682C0.784092 14.1218 1.41466 14.0645 1.76822 13.6402L0.231779 12.3598ZM11 8C11.5523 8 12 7.55228 12 7C12 6.44772 11.5523 6 11 6V8ZM1.76822 0.359816C1.41466 -0.0644614 0.784092 -0.121785 0.359816 0.231779C-0.0644614 0.585343 -0.121785 1.21591 0.231779 1.64018L1.76822 0.359816ZM1 13C1.76822 13.6402 1.76809 13.6403 1.76797 13.6405C1.76796 13.6405 1.76786 13.6406 1.76783 13.6407C1.76778 13.6407 1.7678 13.6407 1.7679 13.6406C1.76809 13.6403 1.76858 13.6398 1.76937 13.6388C1.77095 13.6369 1.77371 13.6337 1.77765 13.629C1.78552 13.6197 1.79807 13.605 1.81514 13.5851C1.84929 13.5455 1.9015 13.4855 1.97055 13.4082C2.10871 13.2535 2.3139 13.0296 2.57637 12.7596C3.1025 12.2184 3.85276 11.4984 4.7497 10.7809C6.58773 9.31044 8.85799 8 11 8V6C8.14202 6 5.41227 7.68956 3.5003 9.21913C2.52224 10.0016 1.71 10.7816 1.14238 11.3654C0.857979 11.6579 0.633473 11.9028 0.478672 12.0762C0.401236 12.1629 0.341139 12.2319 0.299604 12.2801C0.278834 12.3042 0.262696 12.3232 0.251343 12.3366C0.245666 12.3433 0.241185 12.3486 0.237918 12.3525C0.236285 12.3544 0.234955 12.356 0.233931 12.3572C0.233419 12.3579 0.232983 12.3584 0.232625 12.3588C0.232445 12.359 0.232234 12.3593 0.232144 12.3594C0.231952 12.3596 0.231779 12.3598 1 13ZM11 6C8.85799 6 6.58773 4.68956 4.7497 3.21913C3.85276 2.50159 3.1025 1.78159 2.57637 1.24042C2.3139 0.970448 2.10871 0.746545 1.97055 0.591797C1.9015 0.514462 1.84929 0.454517 1.81514 0.41486C1.79807 0.395035 1.78552 0.380292 1.77765 0.370994C1.77371 0.366345 1.77095 0.363059 1.76937 0.36118C1.76858 0.360241 1.76809 0.359654 1.7679 0.359425C1.7678 0.35931 1.76778 0.359285 1.76783 0.35935C1.76786 0.359382 1.76796 0.359499 1.76797 0.359515C1.76809 0.359654 1.76822 0.359816 1 1C0.231779 1.64018 0.231952 1.64039 0.232144 1.64062C0.232234 1.64073 0.232445 1.64098 0.232625 1.6412C0.232983 1.64163 0.233419 1.64215 0.233931 1.64276C0.234955 1.64399 0.236285 1.64557 0.237918 1.64752C0.241185 1.65141 0.245666 1.65673 0.251343 1.66343C0.262696 1.67684 0.278834 1.69579 0.299604 1.71991C0.341139 1.76814 0.401236 1.8371 0.478672 1.92383C0.633473 2.09721 0.857979 2.34205 1.14238 2.63458C1.71 3.21841 2.52224 3.99841 3.5003 4.78087C5.41227 6.31044 8.14202 8 11 8V6Z"/>
</svg>
