<svg height="40" viewBox="0 0 40 40" width="40" xmlns="http://www.w3.org/2000/svg" xmlns:xlink="http://www.w3.org/1999/xlink"><linearGradient id="a" x1="79.692382%" x2="79.692382%" y1="0%" y2="100%"><stop offset="0" stop-color="#2576eb"/><stop offset="1" stop-color="#3dacec"/></linearGradient><g fill="none" fill-rule="evenodd" transform="translate(-4 -4)"><path d="m24 4c-11.04 0-20 8.96-20 20s8.96 20 20 20 20-8.96 20-20-8.96-20-20-20zm2.82 32.18v3.82h-5.34v-3.86c-3.42-.72-6.32-2.92-6.54-6.8h3.92c.2 2.1 1.64 3.74 5.3 3.74 3.92 0 4.8-1.96 4.8-3.18 0-1.66-.88-3.22-5.34-4.28-4.96-1.2-8.36-3.24-8.36-7.34 0-3.44 2.78-5.68 6.22-6.42v-3.86h5.34v3.9c3.72.9 5.58 3.72 5.7 6.78h-3.92c-.1-2.22-1.28-3.74-4.44-3.74-3 0-4.8 1.36-4.8 3.28 0 1.68 1.3 2.78 5.34 3.82s8.36 2.78 8.36 7.82c-.02 3.66-2.76 5.66-6.24 6.32z" fill="url(#a)" fill-rule="nonzero"/><path d="m0 0h48v48h-48z"/></g></svg>