<svg xmlns="http://www.w3.org/2000/svg" width="120" height="120" viewBox="0 0 120 120">
    <g fill="#FF592C" fill-rule="nonzero">
        <path d="M60 120C26.863 120 0 93.137 0 60S26.863 0 60 0s60 26.863 60 60-26.863 60-60 60zm0-6c29.823 0 54-24.177 54-54S89.823 6 60 6 6 30.177 6 60s24.177 54 54 54z"/>
        <path d="M50.94 73.143a2.997 2.997 0 0 0 2.116.871 3.04 3.04 0 0 0 2.116-.87L77.205 51.11a2.99 2.99 0 0 0 0-4.232 2.99 2.99 0 0 0-4.232 0L53.031 66.819 46.11 59.9a2.99 2.99 0 0 0-4.232 0 2.99 2.99 0 0 0 0 4.232l9.062 9.012z"/>
    </g>
</svg>
