<svg height="44" viewBox="0 0 32 44" width="32" xmlns="http://www.w3.org/2000/svg" xmlns:xlink="http://www.w3.org/1999/xlink"><linearGradient id="a" x1="79.692382%" x2="79.692382%" y1="0%" y2="100%"><stop offset="0" stop-color="#2576eb"/><stop offset="1" stop-color="#3dacec"/></linearGradient><g fill="none" fill-rule="evenodd" transform="translate(-8 -2)"><path d="m24 8v-6l-8 8 8 8v-6c6.62 0 12 5.38 12 12 0 2.02-.5 3.94-1.4 5.6l2.92 2.92c1.56-2.46 2.48-5.38 2.48-8.52 0-8.84-7.16-16-16-16zm0 28c-6.62 0-12-5.38-12-12 0-2.02.5-3.94 1.4-5.6l-2.92-2.92c-1.56 2.46-2.48 5.38-2.48 8.52 0 8.84 7.16 16 16 16v6l8-8-8-8z" fill="url(#a)" fill-rule="nonzero"/><path d="m0 0h48v48h-48z"/></g></svg>