<svg xmlns="http://www.w3.org/2000/svg" width="42" height="40" viewBox="0 0 42 40">
    <path fill="#D3B48D" fill-rule="evenodd" d="M39.79 33.333v2.223C39.79 38 37.8 40 35.367 40H4.421C1.967 40 0 38 0 35.556V4.444C0 2 1.967 0 4.421 0h30.947C37.8 0 39.79 2 39.79 4.444v2.223H19.895c-2.454 0-4.421 2-4.421 4.444V28.89c0 2.444 1.967 4.444 4.42 4.444H39.79zM19.894 28.89H42V11.11H19.895V28.89zm8.842-5.556A3.32 3.32 0 0 1 25.42 20a3.32 3.32 0 0 1 3.316-3.333A3.32 3.32 0 0 1 32.053 20a3.32 3.32 0 0 1-3.316 3.333z"/>
</svg>
