<svg height="36" viewBox="0 0 38 36" width="38" xmlns="http://www.w3.org/2000/svg" xmlns:xlink="http://www.w3.org/1999/xlink"><linearGradient id="a" x1="79.692382%" x2="79.692382%" y1="0%" y2="100%"><stop offset="0" stop-color="#2576eb"/><stop offset="1" stop-color="#3dacec"/></linearGradient><g fill="none" fill-rule="evenodd" transform="translate(-6 -6)"><path d="m0 0h48v48h-48z"/><path d="m42 36v2c0 2.2-1.8 4-4 4h-28c-2.22 0-4-1.8-4-4v-28c0-2.2 1.78-4 4-4h28c2.2 0 4 1.8 4 4v2h-18c-2.22 0-4 1.8-4 4v16c0 2.2 1.78 4 4 4zm-18-4h20v-16h-20zm8-5c-1.66 0-3-1.34-3-3s1.34-3 3-3 3 1.34 3 3-1.34 3-3 3z" fill="url(#a)" fill-rule="nonzero"/></g></svg>