<svg xmlns="http://www.w3.org/2000/svg" width="59" height="43" viewBox="0 0 59 43">
    <path fill="#D3B48D" fill-rule="nonzero" d="M47.83 10.73L37.203 21.46h7.972c0 8.88-7.148 16.095-15.944 16.095-2.684 0-5.235-.67-7.44-1.878l-3.88 3.917a20.93 20.93 0 0 0 11.32 3.326c11.745 0 21.258-9.603 21.258-21.46h7.972L47.83 10.73zM13.287 21.46c0-8.88 7.148-16.095 15.944-16.095 2.684 0 5.235.67 7.44 1.878l3.88-3.917A20.93 20.93 0 0 0 29.23 0C17.485 0 7.972 9.603 7.972 21.46H0l10.63 10.73 10.628-10.73h-7.972z"/>
</svg>
