<svg xmlns="http://www.w3.org/2000/svg" width="43" height="56" viewBox="0 0 43 56">
    <path fill="#D3B48D" fill-rule="nonzero" d="M42.204 22.75c.866-5.795-3.542-8.91-9.57-10.989l1.956-7.85-4.774-1.191-1.904 7.644a199.525 199.525 0 0 0-3.825-.901l1.918-7.695-4.772-1.19-1.956 7.847c-1.039-.236-2.059-.47-3.048-.717l.005-.024L9.65 6.038l-1.27 5.104s3.542.813 3.468.863c1.933.483 2.283 1.764 2.224 2.78l-2.227 8.943c.133.034.306.083.496.16-.159-.04-.329-.084-.504-.126L8.715 36.291c-.237.588-.836 1.47-2.188 1.135.048.07-3.47-.867-3.47-.867l-2.37 5.47 6.213 1.55c1.156.29 2.288.594 3.403.88l-1.976 7.94 4.769 1.19 1.956-7.855c1.303.354 2.567.68 3.805.988l-1.95 7.82 4.774 1.19 1.975-7.925c8.14 1.542 14.262.92 16.839-6.45 2.076-5.935-.104-9.358-4.387-11.59 3.12-.72 5.469-2.774 6.096-7.016zM31.296 38.062c-1.475 5.935-11.456 2.727-14.692 1.922l2.621-10.52c3.236.809 13.613 2.41 12.071 8.598zm1.477-15.396c-1.346 5.398-9.654 2.655-12.349 1.983l2.377-9.541c2.695.672 11.374 1.927 9.972 7.558z"/>
</svg>
