<svg height="44" viewBox="0 0 32 44" width="32" xmlns="http://www.w3.org/2000/svg" xmlns:xlink="http://www.w3.org/1999/xlink"><linearGradient id="a" x1="0%" x2="100%" y1="100%" y2="100%"><stop offset="0" stop-color="#2576eb"/><stop offset="1" stop-color="#3dacec"/></linearGradient><g fill="none" fill-rule="evenodd" transform="matrix(0 1 -1 0 40 -2)"><path d="m0 0h48v48h-48z"/><path d="m2 18 4 4c9.94-9.94 26.06-9.94 36 0l4-4c-12.14-12.14-31.84-12.14-44 0zm16 16 6 6 6-6c-3.3-3.32-8.68-3.32-12 0zm-8-8 4 4c5.52-5.52 14.48-5.52 20 0l4-4c-7.72-7.72-20.26-7.72-28 0z" fill="url(#a)" fill-rule="nonzero"/></g></svg>