<svg viewBox="0 0 464 460" fill="none" xmlns="http://www.w3.org/2000/svg">
    <g clip-path="url(#clip0)">
        <circle cx="437" cy="425" r="11" fill="#232323"/>
        <g mask="url(#mask0)">
        </g>
        <g clip-path="url(#clip1)">
            <path fill-rule="evenodd" clip-rule="evenodd" d="M345.539 28.9885H124.461C98.3863 28.9885 77.2483 50.1266 77.2483 76.2016V620.277H80.9953V76.2016C80.9953 52.196 100.456 32.7356 124.461 32.7356H345.539C369.544 32.7356 389.005 52.196 389.005 76.2016V620.277H392.752L392.752 251.565C393.993 251.565 395 250.558 395 249.316V178.871C395 177.63 393.993 176.623 392.752 176.623L392.752 76.2016C392.752 50.1266 371.614 28.9885 345.539 28.9885ZM77.2482 139.152V115.171C76.0066 115.171 75 116.178 75 117.419V136.904C75 138.146 76.0066 139.152 77.2482 139.152ZM77.2482 161.635V208.099C76.0066 208.099 75 207.092 75 205.85V163.883C75 162.641 76.0066 161.635 77.2482 161.635ZM77.2482 266.553V220.089C76.0066 220.089 75 221.096 75 222.337V264.305C75 265.546 76.0066 266.553 77.2482 266.553Z" fill="#ABABAB"/>
            <g clip-path="url(#clip2)">
                <rect width="282" height="610.624" transform="translate(94 69.9885)" fill="#232323"/>
                <rect x="94" y="69.9885" width="282" height="252.672" fill="#232323"/>
                <path d="M217.906 106.805H219.054L221.098 101.639L223.128 106.805H224.276L226.208 97.4107V97.0047H225.074L223.534 104.887L221.504 99.7767H220.734L218.732 104.859L217.178 97.0047H215.974V97.4107L217.906 106.805ZM229.594 106.973C230.714 106.973 231.596 106.385 232.03 105.895L232.45 106.805H233.122V101.807C233.122 100.449 232.212 99.4407 230.336 99.4407C228.474 99.4407 227.592 100.449 227.592 101.793H228.684C228.684 101.037 229.23 100.463 230.336 100.463C231.47 100.463 232.002 101.037 232.002 101.877V102.591H230.196C228.222 102.591 227.214 103.417 227.214 104.887C227.214 106.301 228.32 106.973 229.594 106.973ZM229.818 105.951C228.978 105.951 228.334 105.587 228.334 104.761C228.334 104.019 228.866 103.501 230.196 103.501H232.002V104.943C231.54 105.405 230.77 105.951 229.818 105.951ZM235.36 106.805H236.48V96.9347H235.36V106.805ZM238.806 106.805H239.926V96.9347H238.806V106.805ZM244.925 106.973C246.661 106.973 247.669 106.063 247.795 104.649H246.675C246.549 105.419 246.003 105.951 244.925 105.951C243.693 105.951 243.049 105.265 243.049 104.299V103.585H247.837V102.087C247.837 100.477 246.745 99.4407 244.925 99.4407C243.049 99.4407 241.929 100.519 241.929 102.115V104.327C241.929 105.937 243.049 106.973 244.925 106.973ZM243.049 102.675V102.087C243.049 101.135 243.693 100.463 244.883 100.463C246.101 100.463 246.717 101.149 246.717 102.087V102.675H243.049ZM252.457 106.805H253.129V105.783H252.457C251.729 105.783 251.281 105.405 251.281 104.439V100.589H253.129V99.6087H251.281V98.1107H250.161V99.6087H248.985V100.589H250.161V104.467C250.161 105.629 250.651 106.805 252.457 106.805Z" fill="#FBFBFB"/>
                <path d="M123.385 313.316C122.34 313.316 121.878 312.7 121.878 312.04V309.422C121.878 308.762 122.34 308.146 123.385 308.146C124.43 308.146 124.892 308.762 124.892 309.422V312.04C124.892 312.7 124.43 313.316 123.385 313.316ZM123.385 314.746C125.266 314.746 126.454 313.723 126.454 311.963V309.499C126.454 307.739 125.266 306.716 123.385 306.716C121.515 306.716 120.316 307.739 120.316 309.499V311.963C120.316 313.723 121.515 314.746 123.385 314.746ZM131.479 314.746C132.997 314.746 134.339 313.954 134.339 312.051V311.941H132.777V312.051C132.777 312.986 132.095 313.316 131.38 313.316C130.456 313.316 130.016 312.843 130.016 312.084V309.378C130.016 308.619 130.456 308.146 131.38 308.146C132.095 308.146 132.777 308.498 132.777 309.411V309.521H134.339V309.411C134.339 307.508 132.997 306.716 131.479 306.716C129.521 306.716 128.454 307.739 128.454 309.488V311.974C128.454 313.723 129.521 314.746 131.479 314.746ZM137.844 314.581H139.406V308.245H141.562V306.881H135.677V308.245H137.844V314.581ZM146.08 313.316C145.035 313.316 144.573 312.7 144.573 312.04V309.422C144.573 308.762 145.035 308.146 146.08 308.146C147.125 308.146 147.587 308.762 147.587 309.422V312.04C147.587 312.7 147.125 313.316 146.08 313.316ZM146.08 314.746C147.961 314.746 149.149 313.723 149.149 311.963V309.499C149.149 307.739 147.961 306.716 146.08 306.716C144.21 306.716 143.011 307.739 143.011 309.499V311.963C143.011 313.723 144.21 314.746 146.08 314.746ZM151.368 314.581H154.932C156.34 314.581 157.209 313.866 157.209 312.414C157.209 311.347 156.681 310.863 156.043 310.588C156.615 310.269 156.901 309.752 156.901 309.004C156.901 307.596 156.021 306.881 154.624 306.881H151.368V314.581ZM152.93 310.082V308.245H154.536C154.943 308.245 155.328 308.52 155.328 309.158C155.328 309.807 154.943 310.082 154.536 310.082H152.93ZM152.93 313.217V311.38H154.855C155.262 311.38 155.647 311.655 155.647 312.293C155.647 312.942 155.262 313.217 154.855 313.217H152.93ZM159.205 314.581H164.243V313.217H160.767V311.369H163.715V310.071H160.767V308.245H164.221V306.881H159.205V314.581ZM166.237 314.581H167.799V311.688H168.987L170.593 314.581H172.111V314.064L170.692 311.501C171.451 311.127 171.957 310.368 171.957 309.279C171.957 307.783 171.143 306.881 169.57 306.881H166.237V314.581ZM167.799 310.368V308.245H169.284C169.966 308.245 170.362 308.531 170.362 309.301C170.362 310.082 169.966 310.368 169.284 310.368H167.799Z" fill="#FBFBFB"/>
                <mask id="path-7-inside-1" fill="white">
                    <path d="M107.536 305.365H109.792V306.869H107.536V305.365Z"/>
                    <path d="M111.296 305.365H113.552V306.869H111.296V305.365Z"/>
                    <path d="M106.032 306.869H115.056V308.373H106.032V306.869Z"/>
                    <path d="M106.032 309.125H115.056V313.637H106.032V309.125Z"/>
                </mask>
                <path d="M107.536 305.365H109.792V306.869H107.536V305.365Z" fill="#FBFBFB"/>
                <path d="M111.296 305.365H113.552V306.869H111.296V305.365Z" fill="#FBFBFB"/>
                <path d="M106.032 306.869H115.056V308.373H106.032V306.869Z" fill="#FBFBFB"/>
                <path d="M106.032 309.125H115.056V313.637H106.032V309.125Z" fill="#FBFBFB"/>
                <path d="M107.536 305.365V304.613H106.784V305.365H107.536ZM109.792 305.365H110.544V304.613H109.792V305.365ZM109.792 306.869V307.621H110.544V306.869H109.792ZM107.536 306.869H106.784V307.621H107.536V306.869ZM111.296 305.365V304.613H110.544V305.365H111.296ZM113.552 305.365H114.304V304.613H113.552V305.365ZM113.552 306.869V307.621H114.304V306.869H113.552ZM111.296 306.869H110.544V307.621H111.296V306.869ZM106.032 306.869V306.117C105.617 306.117 105.28 306.453 105.28 306.869H106.032ZM115.056 306.869H115.808C115.808 306.453 115.472 306.117 115.056 306.117V306.869ZM115.056 308.373V309.125C115.472 309.125 115.808 308.788 115.808 308.373H115.056ZM106.032 308.373H105.28C105.28 308.788 105.617 309.125 106.032 309.125V308.373ZM106.032 309.125V308.373H105.28V309.125H106.032ZM115.056 309.125H115.808V308.373H115.056V309.125ZM115.056 313.637V314.389H115.808V313.637H115.056ZM106.032 313.637H105.28V314.389H106.032V313.637ZM107.536 306.117H109.792V304.613H107.536V306.117ZM109.04 305.365V306.869H110.544V305.365H109.04ZM109.792 306.117H107.536V307.621H109.792V306.117ZM108.288 306.869V305.365H106.784V306.869H108.288ZM111.296 306.117H113.552V304.613H111.296V306.117ZM112.8 305.365V306.869H114.304V305.365H112.8ZM113.552 306.117H111.296V307.621H113.552V306.117ZM112.048 306.869V305.365H110.544V306.869H112.048ZM106.032 307.621H115.056V306.117H106.032V307.621ZM114.304 306.869V308.373H115.808V306.869H114.304ZM115.056 307.621H106.032V309.125H115.056V307.621ZM106.784 308.373V306.869H105.28V308.373H106.784ZM106.032 309.877H115.056V308.373H106.032V309.877ZM114.304 309.125V313.637H115.808V309.125H114.304ZM115.056 312.885H106.032V314.389H115.056V312.885ZM106.784 313.637V309.125H105.28V313.637H106.784Z" fill="#FBFBFB" mask="url(#path-7-inside-1)"/>
                <rect x="94" y="352.74" width="282" height="42.112" fill="#232323"/>
                <path d="M106.032 394.365H376" stroke="#443D35" stroke-width="0.752"/>
                <path d="M137.204 369.7H138.161V362.847H140.493V362H134.861V362.847H137.204V369.7ZM142.929 369.029C141.961 369.029 141.455 368.446 141.455 367.698V366.048C141.455 365.3 141.961 364.717 142.929 364.717C143.919 364.717 144.392 365.311 144.392 366.048V367.698C144.392 368.435 143.919 369.029 142.929 369.029ZM142.929 369.832C144.491 369.832 145.272 368.919 145.272 367.731V366.015C145.272 364.827 144.491 363.914 142.929 363.914C141.367 363.914 140.575 364.827 140.575 366.015V367.731C140.575 368.919 141.367 369.832 142.929 369.832ZM149.55 363.914C148.703 363.914 148.065 364.354 147.68 364.794L147.372 364.046H146.844V371.46H147.724V369.007C148.065 369.414 148.681 369.832 149.517 369.832C150.705 369.832 151.541 369.106 151.541 367.753V365.993C151.541 364.64 150.694 363.914 149.55 363.914ZM149.385 369.029C148.681 369.029 148.12 368.567 147.724 368.138V365.608C148.12 365.179 148.692 364.717 149.396 364.717C150.144 364.717 150.661 365.256 150.661 366.059V367.687C150.661 368.49 150.144 369.029 149.385 369.029ZM152.983 366.664H156.426V365.85H152.983V366.664ZM162.602 364.046H161.722V368.138C161.381 368.545 160.787 369.029 160.083 369.029C159.39 369.029 158.851 368.589 158.851 367.61V364.046H157.971V367.709C157.971 369.084 158.785 369.832 159.907 369.832C160.743 369.832 161.37 369.403 161.755 368.952L162.074 369.7H162.602V364.046ZM167.135 363.914C166.288 363.914 165.65 364.354 165.265 364.794L164.957 364.046H164.429V371.46H165.309V369.007C165.65 369.414 166.266 369.832 167.102 369.832C168.29 369.832 169.126 369.106 169.126 367.753V365.993C169.126 364.64 168.279 363.914 167.135 363.914ZM166.97 369.029C166.266 369.029 165.705 368.567 165.309 368.138V365.608C165.705 365.179 166.277 364.717 166.981 364.717C167.729 364.717 168.246 365.256 168.246 366.059V367.687C168.246 368.49 167.729 369.029 166.97 369.029ZM174.979 369.7H175.804L177.916 364.464V364.046H177.113L175.419 368.512L173.692 364.046H172.867V364.464L174.979 369.7ZM179.081 369.7H179.961V364.046H179.081V369.7ZM179.081 363.155H179.961V361.945H179.081V363.155ZM183.273 369.832C184.153 369.832 184.846 369.37 185.187 368.985L185.517 369.7H186.045V365.773C186.045 364.706 185.33 363.914 183.856 363.914C182.393 363.914 181.7 364.706 181.7 365.762H182.558C182.558 365.168 182.987 364.717 183.856 364.717C184.747 364.717 185.165 365.168 185.165 365.828V366.389H183.746C182.195 366.389 181.403 367.038 181.403 368.193C181.403 369.304 182.272 369.832 183.273 369.832ZM183.449 369.029C182.789 369.029 182.283 368.743 182.283 368.094C182.283 367.511 182.701 367.104 183.746 367.104H185.165V368.237C184.802 368.6 184.197 369.029 183.449 369.029ZM193.865 365.113H193.227L192.028 368.512L190.961 364.046H190.158V364.464L191.467 369.7H192.336L193.546 366.477L194.745 369.7H195.603L196.912 364.464V364.046H196.12L195.064 368.512L193.865 365.113ZM199.848 369.832C200.728 369.832 201.421 369.37 201.762 368.985L202.092 369.7H202.62V365.773C202.62 364.706 201.905 363.914 200.431 363.914C198.968 363.914 198.275 364.706 198.275 365.762H199.133C199.133 365.168 199.562 364.717 200.431 364.717C201.322 364.717 201.74 365.168 201.74 365.828V366.389H200.321C198.77 366.389 197.978 367.038 197.978 368.193C197.978 369.304 198.847 369.832 199.848 369.832ZM200.024 369.029C199.364 369.029 198.858 368.743 198.858 368.094C198.858 367.511 199.276 367.104 200.321 367.104H201.74V368.237C201.377 368.6 200.772 369.029 200.024 369.029ZM204.379 369.7H205.259V361.945H204.379V369.7ZM207.086 369.7H207.966V361.945H207.086V369.7ZM211.894 369.832C213.258 369.832 214.05 369.117 214.149 368.006H213.269C213.17 368.611 212.741 369.029 211.894 369.029C210.926 369.029 210.42 368.49 210.42 367.731V367.17H214.182V365.993C214.182 364.728 213.324 363.914 211.894 363.914C210.42 363.914 209.54 364.761 209.54 366.015V367.753C209.54 369.018 210.42 369.832 211.894 369.832ZM210.42 366.455V365.993C210.42 365.245 210.926 364.717 211.861 364.717C212.818 364.717 213.302 365.256 213.302 365.993V366.455H210.42ZM217.812 369.7H218.34V368.897H217.812C217.24 368.897 216.888 368.6 216.888 367.841V364.816H218.34V364.046H216.888V362.869H216.008V364.046H215.084V364.816H216.008V367.863C216.008 368.776 216.393 369.7 217.812 369.7Z" fill="#FBFBFB"/>
                <path d="M137.776 386.632C139.151 386.632 140.053 385.928 140.053 384.443V379.086H139.525L139.206 379.834C138.832 379.394 138.205 378.954 137.347 378.954C136.203 378.954 135.356 379.68 135.356 381.033V382.243C135.356 383.596 136.192 384.322 137.38 384.322C138.216 384.322 138.832 383.904 139.173 383.497V384.465C139.173 385.334 138.722 385.829 137.776 385.829C136.852 385.829 136.39 385.334 136.368 384.784H135.488C135.51 385.939 136.423 386.632 137.776 386.632ZM137.534 383.519C136.742 383.519 136.236 382.991 136.236 382.188V381.088C136.236 380.285 136.742 379.757 137.534 379.757C138.227 379.757 138.788 380.208 139.173 380.637V382.639C138.788 383.068 138.227 383.519 137.534 383.519ZM141.881 384.74H142.761V380.648C143.102 380.241 143.707 379.757 144.4 379.757C145.104 379.757 145.654 380.197 145.654 381.176V384.74H146.534V381.077C146.534 379.702 145.687 378.954 144.587 378.954C143.762 378.954 143.146 379.361 142.761 379.779V376.985H141.881V384.74ZM147.513 386.632C148.811 386.632 149.185 385.675 149.185 384.707V379.086H148.305V384.696C148.305 385.499 148.008 385.829 147.414 385.829H147.139V386.61C147.238 386.621 147.37 386.632 147.513 386.632ZM148.305 378.195H149.185V376.985H148.305V378.195ZM150.924 384.74H151.958V383.288H150.924V384.74ZM153.245 384.74H154.279V383.288H153.245V384.74ZM155.555 384.74H156.589V383.288H155.555V384.74ZM158.613 384.74H159.493V377.04H158.943L157.865 377.7V378.162H158.613V384.74ZM161.432 384.74H162.312V380.648C162.653 380.241 163.258 379.757 163.951 379.757C164.655 379.757 165.205 380.197 165.205 381.176V384.74H166.085V381.077C166.085 379.702 165.238 378.954 164.138 378.954C163.313 378.954 162.697 379.361 162.312 379.779V376.985H161.432V384.74ZM170.1 386.632C171.475 386.632 172.377 385.928 172.377 384.443V379.086H171.849L171.53 379.834C171.156 379.394 170.529 378.954 169.671 378.954C168.527 378.954 167.68 379.68 167.68 381.033V382.243C167.68 383.596 168.516 384.322 169.704 384.322C170.54 384.322 171.156 383.904 171.497 383.497V384.465C171.497 385.334 171.046 385.829 170.1 385.829C169.176 385.829 168.714 385.334 168.692 384.784H167.812C167.834 385.939 168.747 386.632 170.1 386.632ZM169.858 383.519C169.066 383.519 168.56 382.991 168.56 382.188V381.088C168.56 380.285 169.066 379.757 169.858 379.757C170.551 379.757 171.112 380.208 171.497 380.637V382.639C171.112 383.068 170.551 383.519 169.858 383.519Z" fill="#9E866C"/>
                <path d="M300.753 368.633H301.556V366.631H303.503V365.883H301.556V363.925H300.753V365.883H298.806V366.631H300.753V368.633ZM307.441 369.062C306.396 369.062 305.813 368.347 305.813 367.368V364.343C305.813 363.353 306.396 362.638 307.441 362.638C308.497 362.638 309.08 363.353 309.08 364.343V367.368C309.08 368.347 308.497 369.062 307.441 369.062ZM307.441 369.865C308.981 369.865 309.96 368.93 309.96 367.313V364.387C309.96 362.77 308.981 361.835 307.441 361.835C305.912 361.835 304.933 362.77 304.933 364.387V367.313C304.933 368.93 305.912 369.865 307.441 369.865ZM311.583 369.7H312.617V368.248H311.583V369.7ZM316.744 369.062C315.699 369.062 315.116 368.347 315.116 367.368V364.343C315.116 363.353 315.699 362.638 316.744 362.638C317.8 362.638 318.383 363.353 318.383 364.343V367.368C318.383 368.347 317.8 369.062 316.744 369.062ZM316.744 369.865C318.284 369.865 319.263 368.93 319.263 367.313V364.387C319.263 362.77 318.284 361.835 316.744 361.835C315.215 361.835 314.236 362.77 314.236 364.387V367.313C314.236 368.93 315.215 369.865 316.744 369.865ZM323.372 369.062C322.327 369.062 321.744 368.347 321.744 367.368V364.343C321.744 363.353 322.327 362.638 323.372 362.638C324.428 362.638 325.011 363.353 325.011 364.343V367.368C325.011 368.347 324.428 369.062 323.372 369.062ZM323.372 369.865C324.912 369.865 325.891 368.93 325.891 367.313V364.387C325.891 362.77 324.912 361.835 323.372 361.835C321.843 361.835 320.864 362.77 320.864 364.387V367.313C320.864 368.93 321.843 369.865 323.372 369.865ZM328.877 369.7H329.68L331.671 366.455C332.177 365.63 332.386 365.047 332.386 364.387C332.386 362.814 331.44 361.835 329.834 361.835C328.228 361.835 327.271 362.814 327.271 364.387C327.271 365.916 328.206 366.796 329.537 366.796C330.021 366.796 330.406 366.675 330.692 366.488L328.877 369.381V369.7ZM329.834 362.638C330.934 362.638 331.506 363.331 331.506 364.354C331.506 365.421 330.868 366.081 329.812 366.081C328.69 366.081 328.151 365.377 328.151 364.354C328.151 363.331 328.712 362.638 329.834 362.638ZM336.391 369.062C335.346 369.062 334.763 368.347 334.763 367.368V364.343C334.763 363.353 335.346 362.638 336.391 362.638C337.447 362.638 338.03 363.353 338.03 364.343V367.368C338.03 368.347 337.447 369.062 336.391 369.062ZM336.391 369.865C337.931 369.865 338.91 368.93 338.91 367.313V364.387C338.91 362.77 337.931 361.835 336.391 361.835C334.862 361.835 333.883 362.77 333.883 364.387V367.313C333.883 368.93 334.862 369.865 336.391 369.865ZM343.47 369.7H346.979C348.277 369.7 349.069 368.963 349.069 367.599C349.069 366.433 348.486 365.905 347.771 365.696C348.365 365.443 348.772 364.937 348.772 364.024C348.772 362.693 347.991 362 346.704 362H343.47V369.7ZM344.427 368.853V366.213H346.814C347.661 366.213 348.112 366.697 348.112 367.544C348.112 368.38 347.661 368.853 346.814 368.853H344.427ZM344.427 365.399V362.847H346.539C347.375 362.847 347.815 363.309 347.815 364.123C347.815 364.926 347.375 365.399 346.561 365.399H344.427ZM352.251 369.7H353.208V362.847H355.54V362H349.908V362.847H352.251V369.7ZM359.54 369.865C361.025 369.865 362.345 369.04 362.345 367.247V367.137H361.388V367.247C361.388 368.446 360.42 368.985 359.529 368.985C358.231 368.985 357.549 368.303 357.549 367.159V364.541C357.549 363.397 358.231 362.715 359.529 362.715C360.42 362.715 361.388 363.254 361.388 364.453V364.563H362.345V364.453C362.345 362.66 361.025 361.835 359.54 361.835C357.681 361.835 356.592 362.858 356.592 364.607V367.093C356.592 368.842 357.681 369.865 359.54 369.865Z" fill="#A495ED"/>
                <path d="M309.412 383.673H310.215V381.671H312.162V380.923H310.215V378.965H309.412V380.923H307.465V381.671H309.412V383.673ZM314.681 384.74H315.473L318.135 377.788V377.04H313.295V379.196H314.12V377.843H317.222L314.681 384.421V384.74ZM321.137 384.905C322.732 384.905 323.689 383.937 323.689 382.331C323.689 380.813 322.765 379.944 321.478 379.944C320.983 379.944 320.598 380.065 320.312 380.241L322.16 377.359V377.04H321.346L319.311 380.285C318.816 381.066 318.574 381.66 318.574 382.331C318.574 383.937 319.531 384.905 321.137 384.905ZM321.137 384.102C320.026 384.102 319.454 383.409 319.454 382.375C319.454 381.319 320.081 380.67 321.148 380.67C322.281 380.67 322.809 381.363 322.809 382.375C322.809 383.409 322.237 384.102 321.137 384.102ZM325.097 384.74H326.131V383.288H325.097V384.74ZM330.203 384.905C331.798 384.905 332.755 383.937 332.755 382.331C332.755 380.813 331.831 379.944 330.544 379.944C330.049 379.944 329.664 380.065 329.378 380.241L331.226 377.359V377.04H330.412L328.377 380.285C327.882 381.066 327.64 381.66 327.64 382.331C327.64 383.937 328.597 384.905 330.203 384.905ZM330.203 384.102C329.092 384.102 328.52 383.409 328.52 382.375C328.52 381.319 329.147 380.67 330.214 380.67C331.347 380.67 331.875 381.363 331.875 382.375C331.875 383.409 331.303 384.102 330.203 384.102ZM336.595 384.905C338.135 384.905 339.103 383.904 339.103 382.21C339.103 380.406 338.047 379.669 336.793 379.669C336.111 379.669 335.649 379.867 335.242 380.186L335.451 377.843H338.663V377.04H334.725L334.362 381.088H335.231C335.495 380.736 335.968 380.406 336.639 380.406C337.585 380.406 338.223 381.055 338.223 382.221C338.223 383.343 337.695 384.102 336.617 384.102C335.704 384.102 335.055 383.552 334.934 382.694H334.054C334.23 384.102 335.198 384.905 336.595 384.905ZM343.546 384.74H348.353V383.893H344.503V381.286H347.825V380.439H344.503V377.887H348.342V377.04H343.546V384.74ZM352.698 384.905C354.348 384.905 355.525 383.948 355.525 382.232V377.04H354.568V382.265C354.568 383.343 353.875 384.025 352.698 384.025C351.51 384.025 350.817 383.332 350.817 382.265V377.04H349.86V382.232C349.86 383.959 351.037 384.905 352.698 384.905ZM357.458 384.74H358.415V381.693H360.384L362.089 384.74H363.035V384.421L361.44 381.572C362.342 381.264 362.914 380.582 362.914 379.361C362.914 377.92 362.122 377.04 360.681 377.04H357.458V384.74ZM358.415 380.846V377.887H360.516C361.418 377.887 361.935 378.371 361.935 379.361C361.935 380.34 361.418 380.846 360.516 380.846H358.415Z" fill="#9E866C"/>
                <path fill-rule="evenodd" clip-rule="evenodd" d="M118.064 385.772C124.709 385.772 130.096 380.386 130.096 373.74C130.096 367.095 124.709 361.708 118.064 361.708C111.419 361.708 106.032 367.095 106.032 373.74C106.032 380.386 111.419 385.772 118.064 385.772ZM115.385 367.123V368.551H113.552V369.679H115.385V377.659L113.834 377.659L113.834 378.787L115.385 378.787V380.358H116.513V378.787L116.936 378.787V380.358H118.064V378.787L119.051 378.787C120.268 378.787 121.291 378.48 122.02 377.874C122.761 377.259 123.14 376.381 123.14 375.377C123.14 374.581 122.923 373.945 122.488 373.479C122.315 373.293 122.117 373.145 121.904 373.028C122.231 372.596 122.435 372.045 122.435 371.392C122.435 370.289 121.817 369.554 121.068 369.124C120.341 368.707 119.462 368.551 118.769 368.551H118.064V367.123H116.936V368.551H116.513V367.123H115.385ZM116.513 372.678V369.679H118.769C119.323 369.679 119.995 369.809 120.507 370.103C120.997 370.384 121.307 370.788 121.307 371.392C121.307 371.982 121.043 372.408 120.662 372.678L116.513 372.678ZM116.513 373.806L120.751 373.806C121.172 373.892 121.469 374.04 121.664 374.249C121.857 374.456 122.012 374.791 122.012 375.377C122.012 376.081 121.757 376.627 121.299 377.007C120.83 377.397 120.09 377.659 119.051 377.659L116.513 377.659V373.806Z" fill="#FBFBFB"/>
                <path d="M136.599 453.924H137.501L139.107 449.865L140.702 453.924H141.604L143.122 446.543V446.224H142.231L141.021 452.417L139.426 448.402H138.821L137.248 452.395L136.027 446.224H135.081V446.543L136.599 453.924ZM144.513 453.924H145.393V448.27H144.513V453.924ZM144.513 447.379H145.393V446.169H144.513V447.379ZM149.288 453.924H149.816V453.121H149.288C148.716 453.121 148.364 452.824 148.364 452.065V449.04H149.816V448.27H148.364V447.093H147.484V448.27H146.56V449.04H147.484V452.087C147.484 453 147.869 453.924 149.288 453.924ZM151.259 453.924H152.139V449.832C152.48 449.425 153.085 448.941 153.778 448.941C154.482 448.941 155.032 449.381 155.032 450.36V453.924H155.912V450.261C155.912 448.886 155.065 448.138 153.965 448.138C153.14 448.138 152.524 448.545 152.139 448.963V446.169H151.259V453.924ZM159.498 454.056C160.356 454.056 160.983 453.616 161.368 453.176L161.676 453.924H162.204V446.169H161.324V448.963C160.983 448.556 160.367 448.138 159.531 448.138C158.343 448.138 157.507 448.864 157.507 450.217V451.977C157.507 453.33 158.354 454.056 159.498 454.056ZM159.663 453.253C158.904 453.253 158.387 452.714 158.387 451.911V450.283C158.387 449.48 158.904 448.941 159.652 448.941C160.356 448.941 160.928 449.403 161.324 449.832V452.362C160.928 452.791 160.367 453.253 159.663 453.253ZM164.031 453.924H164.911V449.788C165.351 449.26 165.934 448.996 166.682 448.996H166.803V448.138H166.66C165.868 448.138 165.197 448.589 164.812 449.018L164.493 448.27H164.031V453.924ZM169.459 454.056C170.339 454.056 171.032 453.594 171.373 453.209L171.703 453.924H172.231V449.997C172.231 448.93 171.516 448.138 170.042 448.138C168.579 448.138 167.886 448.93 167.886 449.986H168.744C168.744 449.392 169.173 448.941 170.042 448.941C170.933 448.941 171.351 449.392 171.351 450.052V450.613H169.932C168.381 450.613 167.589 451.262 167.589 452.417C167.589 453.528 168.458 454.056 169.459 454.056ZM169.635 453.253C168.975 453.253 168.469 452.967 168.469 452.318C168.469 451.735 168.887 451.328 169.932 451.328H171.351V452.461C170.988 452.824 170.383 453.253 169.635 453.253ZM177.311 449.337H176.673L175.474 452.736L174.407 448.27H173.604V448.688L174.913 453.924H175.782L176.992 450.701L178.191 453.924H179.049L180.358 448.688V448.27H179.566L178.51 452.736L177.311 449.337ZM186.617 453.924H187.145V453.121H186.617C186.045 453.121 185.693 452.824 185.693 452.065V449.04H187.145V448.27H185.693V447.093H184.813V448.27H183.889V449.04H184.813V452.087C184.813 453 185.198 453.924 186.617 453.924ZM190.689 453.253C189.721 453.253 189.215 452.67 189.215 451.922V450.272C189.215 449.524 189.721 448.941 190.689 448.941C191.679 448.941 192.152 449.535 192.152 450.272V451.922C192.152 452.659 191.679 453.253 190.689 453.253ZM190.689 454.056C192.251 454.056 193.032 453.143 193.032 451.955V450.239C193.032 449.051 192.251 448.138 190.689 448.138C189.127 448.138 188.335 449.051 188.335 450.239V451.955C188.335 453.143 189.127 454.056 190.689 454.056ZM199.411 453.924H199.939V453.121H199.411C198.839 453.121 198.487 452.824 198.487 452.065V449.04H199.939V448.27H198.487V447.093H197.607V448.27H196.683V449.04H197.607V452.087C197.607 453 197.992 453.924 199.411 453.924ZM201.382 453.924H202.262V449.832C202.603 449.425 203.208 448.941 203.901 448.941C204.605 448.941 205.155 449.381 205.155 450.36V453.924H206.035V450.261C206.035 448.886 205.188 448.138 204.088 448.138C203.263 448.138 202.647 448.545 202.262 448.963V446.169H201.382V453.924ZM209.896 454.056C211.26 454.056 212.052 453.341 212.151 452.23H211.271C211.172 452.835 210.743 453.253 209.896 453.253C208.928 453.253 208.422 452.714 208.422 451.955V451.394H212.184V450.217C212.184 448.952 211.326 448.138 209.896 448.138C208.422 448.138 207.542 448.985 207.542 450.239V451.977C207.542 453.242 208.422 454.056 209.896 454.056ZM208.422 450.679V450.217C208.422 449.469 208.928 448.941 209.863 448.941C210.82 448.941 211.304 449.48 211.304 450.217V450.679H208.422ZM218.542 454.056C219.928 454.056 220.819 453.242 220.819 452.01V451.944H219.939V452.021C219.939 452.736 219.444 453.253 218.542 453.253C217.596 453.253 217.112 452.725 217.112 451.977V450.217C217.112 449.469 217.596 448.941 218.542 448.941C219.433 448.941 219.939 449.447 219.939 450.151V450.217H220.819V450.162C220.819 448.919 219.939 448.138 218.542 448.138C217.09 448.138 216.232 448.985 216.232 450.239V451.955C216.232 453.209 217.09 454.056 218.542 454.056ZM223.836 454.056C224.716 454.056 225.409 453.594 225.75 453.209L226.08 453.924H226.608V449.997C226.608 448.93 225.893 448.138 224.419 448.138C222.956 448.138 222.263 448.93 222.263 449.986H223.121C223.121 449.392 223.55 448.941 224.419 448.941C225.31 448.941 225.728 449.392 225.728 450.052V450.613H224.309C222.758 450.613 221.966 451.262 221.966 452.417C221.966 453.528 222.835 454.056 223.836 454.056ZM224.012 453.253C223.352 453.253 222.846 452.967 222.846 452.318C222.846 451.735 223.264 451.328 224.309 451.328H225.728V452.461C225.365 452.824 224.76 453.253 224.012 453.253ZM228.366 453.924H229.246V449.788C229.686 449.26 230.269 448.996 231.017 448.996H231.138V448.138H230.995C230.203 448.138 229.532 448.589 229.147 449.018L228.828 448.27H228.366V453.924ZM234.135 454.056C234.993 454.056 235.62 453.616 236.005 453.176L236.313 453.924H236.841V446.169H235.961V448.963C235.62 448.556 235.004 448.138 234.168 448.138C232.98 448.138 232.144 448.864 232.144 450.217V451.977C232.144 453.33 232.991 454.056 234.135 454.056ZM234.3 453.253C233.541 453.253 233.024 452.714 233.024 451.911V450.283C233.024 449.48 233.541 448.941 234.289 448.941C234.993 448.941 235.565 449.403 235.961 449.832V452.362C235.565 452.791 235.004 453.253 234.3 453.253Z" fill="#FBFBFB"/>
                <path d="M137.338 464.969H138.298L138.223 462.899L139.993 463.994L140.473 463.154L138.628 462.179L140.473 461.204L139.993 460.364L138.223 461.459L138.298 459.389H137.338L137.398 461.459L135.643 460.364L135.163 461.204L136.993 462.179L135.163 463.154L135.643 463.994L137.398 462.899L137.338 464.969ZM143.604 469.964H144.684L148.314 460.484V459.464H141.714V462.404H142.839V460.559H147.069L143.604 469.529V469.964ZM153.626 470.189C155.936 470.189 157.241 468.989 157.241 467.084C157.241 465.689 156.326 464.759 155.351 464.459C156.191 464.084 156.926 463.394 156.926 462.089C156.926 460.514 155.771 459.239 153.626 459.239C151.481 459.239 150.326 460.514 150.326 462.089C150.326 463.394 151.061 464.084 151.916 464.459C150.926 464.759 150.011 465.689 150.011 467.084C150.011 468.989 151.316 470.189 153.626 470.189ZM151.511 462.179C151.511 461.084 152.276 460.334 153.626 460.334C154.976 460.334 155.726 461.084 155.726 462.179C155.726 463.304 154.901 464.024 153.626 464.024C152.351 464.024 151.511 463.304 151.511 462.179ZM151.226 467.039C151.226 465.824 152.126 464.969 153.626 464.969C155.126 464.969 156.026 465.824 156.026 467.039C156.026 468.254 155.186 469.094 153.626 469.094C152.066 469.094 151.226 468.254 151.226 467.039ZM161.177 469.964H162.272L164.987 465.539C165.677 464.414 165.962 463.619 165.962 462.719C165.962 460.574 164.672 459.239 162.482 459.239C160.292 459.239 158.987 460.574 158.987 462.719C158.987 464.804 160.262 466.004 162.077 466.004C162.737 466.004 163.262 465.839 163.652 465.584L161.177 469.529V469.964ZM162.482 460.334C163.982 460.334 164.762 461.279 164.762 462.674C164.762 464.129 163.892 465.029 162.452 465.029C160.922 465.029 160.187 464.069 160.187 462.674C160.187 461.279 160.952 460.334 162.482 460.334ZM171.423 469.094C169.998 469.094 169.203 468.119 169.203 466.784V462.659C169.203 461.309 169.998 460.334 171.423 460.334C172.863 460.334 173.658 461.309 173.658 462.659V466.784C173.658 468.119 172.863 469.094 171.423 469.094ZM171.423 470.189C173.523 470.189 174.858 468.914 174.858 466.709V462.719C174.858 460.514 173.523 459.239 171.423 459.239C169.338 459.239 168.003 460.514 168.003 462.719V466.709C168.003 468.914 169.338 470.189 171.423 470.189Z" fill="#9E866C"/>
                <path d="M288.844 450.855H293.541V450.107H288.844V450.855ZM297.479 453.286C296.434 453.286 295.851 452.571 295.851 451.592V448.567C295.851 447.577 296.434 446.862 297.479 446.862C298.535 446.862 299.118 447.577 299.118 448.567V451.592C299.118 452.571 298.535 453.286 297.479 453.286ZM297.479 454.089C299.019 454.089 299.998 453.154 299.998 451.537V448.611C299.998 446.994 299.019 446.059 297.479 446.059C295.95 446.059 294.971 446.994 294.971 448.611V451.537C294.971 453.154 295.95 454.089 297.479 454.089ZM301.621 453.924H302.655V452.472H301.621V453.924ZM306.782 453.286C305.737 453.286 305.154 452.571 305.154 451.592V448.567C305.154 447.577 305.737 446.862 306.782 446.862C307.838 446.862 308.421 447.577 308.421 448.567V451.592C308.421 452.571 307.838 453.286 306.782 453.286ZM306.782 454.089C308.322 454.089 309.301 453.154 309.301 451.537V448.611C309.301 446.994 308.322 446.059 306.782 446.059C305.253 446.059 304.274 446.994 304.274 448.611V451.537C304.274 453.154 305.253 454.089 306.782 454.089ZM313.41 453.286C312.365 453.286 311.782 452.571 311.782 451.592V448.567C311.782 447.577 312.365 446.862 313.41 446.862C314.466 446.862 315.049 447.577 315.049 448.567V451.592C315.049 452.571 314.466 453.286 313.41 453.286ZM313.41 454.089C314.95 454.089 315.929 453.154 315.929 451.537V448.611C315.929 446.994 314.95 446.059 313.41 446.059C311.881 446.059 310.902 446.994 310.902 448.611V451.537C310.902 453.154 311.881 454.089 313.41 454.089ZM320.632 453.924H321.512V452.252H322.491V451.449H321.512V449.403H320.632V451.449H318.102L320.753 446.543V446.224H319.972L317.09 451.57V452.252H320.632V453.924ZM325.998 454.089C327.538 454.089 328.506 453.088 328.506 451.394C328.506 449.59 327.45 448.853 326.196 448.853C325.514 448.853 325.052 449.051 324.645 449.37L324.854 447.027H328.066V446.224H324.128L323.765 450.272H324.634C324.898 449.92 325.371 449.59 326.042 449.59C326.988 449.59 327.626 450.239 327.626 451.405C327.626 452.527 327.098 453.286 326.02 453.286C325.107 453.286 324.458 452.736 324.337 451.878H323.457C323.633 453.286 324.601 454.089 325.998 454.089ZM332.95 453.924H336.459C337.757 453.924 338.549 453.187 338.549 451.823C338.549 450.657 337.966 450.129 337.251 449.92C337.845 449.667 338.252 449.161 338.252 448.248C338.252 446.917 337.471 446.224 336.184 446.224H332.95V453.924ZM333.907 453.077V450.437H336.294C337.141 450.437 337.592 450.921 337.592 451.768C337.592 452.604 337.141 453.077 336.294 453.077H333.907ZM333.907 449.623V447.071H336.019C336.855 447.071 337.295 447.533 337.295 448.347C337.295 449.15 336.855 449.623 336.041 449.623H333.907ZM341.731 453.924H342.688V447.071H345.02V446.224H339.388V447.071H341.731V453.924ZM349.02 454.089C350.505 454.089 351.825 453.264 351.825 451.471V451.361H350.868V451.471C350.868 452.67 349.9 453.209 349.009 453.209C347.711 453.209 347.029 452.527 347.029 451.383V448.765C347.029 447.621 347.711 446.939 349.009 446.939C349.9 446.939 350.868 447.478 350.868 448.677V448.787H351.825V448.677C351.825 446.884 350.505 446.059 349.02 446.059C347.161 446.059 346.072 447.082 346.072 448.831V451.317C346.072 453.066 347.161 454.089 349.02 454.089Z" fill="#FBFBFB"/>
                <path fill-rule="evenodd" clip-rule="evenodd" d="M360.208 454.956C362.7 454.956 364.72 452.936 364.72 450.444C364.72 447.952 362.7 445.932 360.208 445.932C357.716 445.932 355.696 447.952 355.696 450.444C355.696 452.936 357.716 454.956 360.208 454.956ZM359.456 447.436V447.442V447.447V447.452V447.457V447.463V447.468V447.473V447.479V447.484V447.489V447.495V447.5V447.506V447.511V447.517V447.523V447.528V447.534V447.539V447.545V447.551V447.557V447.562V447.568V447.574V447.58V447.586V447.592V447.597V447.603V447.609V447.615V447.621V447.627V447.633V447.64V447.646V447.652V447.658V447.664V447.67V447.676V447.683V447.689V447.695V447.702V447.708V447.714V447.721V447.727V447.733V447.74V447.746V447.753V447.759V447.766V447.772V447.779V447.785V447.792V447.799V447.805V447.812V447.819V447.825V447.832V447.839V447.845V447.852V447.859V447.866V447.873V447.879V447.886V447.893V447.9V447.907V447.914V447.921V447.928V447.935V447.942V447.949V447.956V447.963V447.97V447.977V447.984V447.991V447.998V448.005V448.012V448.02V448.027V448.034V448.041V448.048V448.056V448.063V448.07V448.077V448.085V448.092V448.099V448.107V448.114V448.121V448.129V448.136V448.143V448.151V448.158V448.166V448.173V448.18V448.188V448.195V448.203V448.21V448.218V448.225V448.233V448.24V448.248V448.255V448.263V448.27V448.278V448.286V448.293V448.301V448.308V448.316V448.324V448.331V448.339V448.347V448.354V448.362V448.37V448.377V448.385V448.393V448.4V448.408V448.416V448.424V448.431V448.439V448.447V448.454V448.462V448.47V448.478V448.485V448.493V448.501V448.509V448.517V448.524V448.532V448.54V448.548V448.556V448.563V448.571V448.579V448.587V448.595V448.603V448.61V448.618V448.626V448.634V448.642V448.65V448.657V448.665V448.673V448.681V448.689V448.697V448.705V448.712V448.72V448.728V448.736V448.744V448.752V448.76V448.767V448.775V448.783V448.791V448.799V448.807V448.815V448.822V448.83V448.838V448.846V448.854V448.862V448.87V448.877V448.885V448.893V448.901V448.909V448.917V448.924V448.932V448.94V448.948V448.956V448.963V448.971V448.979V448.987V448.995V449.002V449.01V449.018V449.026V449.033V449.041V449.049V449.057V449.064V449.072V449.08V449.088V449.095V449.103V449.111V449.118V449.126V449.134V449.142V449.149V449.157V449.165V449.172V449.18V449.187V449.195V449.203V449.21V449.218V449.225V449.233V449.241V449.248V449.256V449.263V449.271V449.278V449.286V449.293V449.301V449.308V449.316V449.323V449.331V449.338V449.345V449.353V449.36V449.368V449.375V449.382V449.39V449.397V449.404V449.412V449.419V449.426V449.434V449.441V449.448V449.455V449.462V449.47V449.477V449.484V449.491V449.498V449.505V449.513V449.52V449.527V449.534V449.541V449.548V449.555V449.562V449.569V449.576V449.583V449.59V449.597V449.604V449.611V449.617V449.624V449.631V449.638V449.645V449.652V449.658V449.665V449.672V449.678V449.685V449.692V449.698V449.705V449.712V449.718V449.725V449.731V449.738V449.745V449.751V449.758V449.764V449.77V449.777V449.783V449.79V449.796V449.802V449.809V449.815V449.821V449.827V449.834V449.84V449.846V449.852V449.858V449.864V449.87V449.877V449.883V449.889V449.895V449.901V449.906V449.912V449.918V449.924V449.93V449.936V449.942V449.947V449.953V449.959V449.965V449.97V449.976V449.981V449.987V449.993V449.998V450.004V450.009V450.015V450.02V450.025V450.031V450.036V450.042V450.047V450.052V450.057V450.063V450.068V450.073V450.078V450.083V450.088V450.093V450.098V450.103V450.108V450.113V450.118V450.123V450.128V450.132V450.137V450.142V450.147V450.151V450.156V450.161V450.165V450.17V450.174V450.179V450.183V450.188V450.192V450.196V450.201V450.205V450.209V450.214V450.218V450.222V450.226V450.23V450.234V450.238V450.242V450.246V450.25V450.254V450.258V450.262V450.266V450.269V450.273V450.277V450.28V450.284V450.288V450.291V450.295V450.298V450.301V450.305V450.308V450.312V450.315V450.318V450.321V450.324V450.328V450.331V450.334V450.337V450.34V450.343V450.346V450.348V450.351V450.354V450.357V450.359V450.362V450.365V450.367V450.37V450.372V450.375V450.377V450.38V450.382V450.384V450.387V450.389V450.391V450.393V450.395V450.397V450.399V450.401V450.403V450.405V450.407V450.409V450.411V450.412V450.414V450.416V450.417V450.419V450.42V450.422V450.423V450.425V450.426V450.427V450.428V450.43V450.431V450.432V450.433V450.434V450.435V450.436V450.437V450.437V450.438V450.439V450.44V450.44V450.441V450.441V450.442V450.442V450.443V450.443V450.443V450.444V450.444V450.444V450.444V450.444L360.208 450.444H359.456V450.756L359.677 450.976L360.805 452.104L361.868 451.041L360.96 450.133V450.132V450.128V450.123V450.118V450.113V450.108V450.103V450.098V450.093V450.088V450.083V450.078V450.073V450.068V450.063V450.057V450.052V450.047V450.042V450.036V450.031V450.025V450.02V450.015V450.009V450.004V449.998V449.993V449.987V449.981V449.976V449.97V449.965V449.959V449.953V449.947V449.942V449.936V449.93V449.924V449.918V449.912V449.906V449.901V449.895V449.889V449.883V449.877V449.87V449.864V449.858V449.852V449.846V449.84V449.834V449.827V449.821V449.815V449.809V449.802V449.796V449.79V449.783V449.777V449.77V449.764V449.758V449.751V449.745V449.738V449.731V449.725V449.718V449.712V449.705V449.698V449.692V449.685V449.678V449.672V449.665V449.658V449.652V449.645V449.638V449.631V449.624V449.617V449.611V449.604V449.597V449.59V449.583V449.576V449.569V449.562V449.555V449.548V449.541V449.534V449.527V449.52V449.513V449.505V449.498V449.491V449.484V449.477V449.47V449.462V449.455V449.448V449.441V449.434V449.426V449.419V449.412V449.404V449.397V449.39V449.382V449.375V449.368V449.36V449.353V449.345V449.338V449.331V449.323V449.316V449.308V449.301V449.293V449.286V449.278V449.271V449.263V449.256V449.248V449.241V449.233V449.225V449.218V449.21V449.203V449.195V449.187V449.18V449.172V449.165V449.157V449.149V449.142V449.134V449.126V449.118V449.111V449.103V449.095V449.088V449.08V449.072V449.064V449.057V449.049V449.041V449.033V449.026V449.018V449.01V449.002V448.995V448.987V448.979V448.971V448.963V448.956V448.948V448.94V448.932V448.924V448.917V448.909V448.901V448.893V448.885V448.877V448.87V448.862V448.854V448.846V448.838V448.83V448.822V448.815V448.807V448.799V448.791V448.783V448.775V448.767V448.76V448.752V448.744V448.736V448.728V448.72V448.712V448.705V448.697V448.689V448.681V448.673V448.665V448.657V448.65V448.642V448.634V448.626V448.618V448.61V448.603V448.595V448.587V448.579V448.571V448.563V448.556V448.548V448.54V448.532V448.524V448.517V448.509V448.501V448.493V448.485V448.478V448.47V448.462V448.454V448.447V448.439V448.431V448.424V448.416V448.408V448.4V448.393V448.385V448.377V448.37V448.362V448.354V448.347V448.339V448.331V448.324V448.316V448.308V448.301V448.293V448.286V448.278V448.27V448.263V448.255V448.248V448.24V448.233V448.225V448.218V448.21V448.203V448.195V448.188V448.18V448.173V448.166V448.158V448.151V448.143V448.136V448.129V448.121V448.114V448.107V448.099V448.092V448.085V448.077V448.07V448.063V448.056V448.048V448.041V448.034V448.027V448.02V448.012V448.005V447.998V447.991V447.984V447.977V447.97V447.963V447.956V447.949V447.942V447.935V447.928V447.921V447.914V447.907V447.9V447.893V447.886V447.879V447.873V447.866V447.859V447.852V447.845V447.839V447.832V447.825V447.819V447.812V447.805V447.799V447.792V447.785V447.779V447.772V447.766V447.759V447.753V447.746V447.74V447.733V447.727V447.721V447.714V447.708V447.702V447.695V447.689V447.683V447.676V447.67V447.664V447.658V447.652V447.646V447.64V447.633V447.627V447.621V447.615V447.609V447.603V447.597V447.592V447.586V447.58V447.574V447.568V447.562V447.557V447.551V447.545V447.539V447.534V447.528V447.523V447.517V447.511V447.506V447.5V447.495V447.489V447.484V447.479V447.473V447.468V447.463V447.457V447.452V447.447V447.442V447.436H359.456Z" fill="#9E866C"/>
                <path d="M285.319 465.824H290.014V464.714H285.319V465.824ZM291.791 469.964H298.376V468.869H293.426L295.856 466.424C297.056 465.209 298.241 464.069 298.241 462.374C298.241 460.604 297.071 459.239 295.016 459.239C293.141 459.239 291.761 460.484 291.746 462.689H292.946C292.961 461.264 293.681 460.334 295.031 460.334C296.336 460.334 297.041 461.189 297.041 462.404C297.041 463.649 296.156 464.534 294.956 465.749L291.791 468.974V469.964ZM299.855 471.524H300.815L302.06 468.554V467.984H300.74L299.855 471.524ZM307.374 470.189C309.474 470.189 310.794 468.824 310.794 466.514C310.794 464.054 309.354 463.049 307.644 463.049C306.714 463.049 306.084 463.319 305.529 463.754L305.814 460.559H310.194V459.464H304.824L304.329 464.984H305.514C305.874 464.504 306.519 464.054 307.434 464.054C308.724 464.054 309.594 464.939 309.594 466.529C309.594 468.059 308.874 469.094 307.404 469.094C306.159 469.094 305.274 468.344 305.109 467.174H303.909C304.149 469.094 305.469 470.189 307.374 470.189ZM316.238 469.094C314.813 469.094 314.018 468.119 314.018 466.784V462.659C314.018 461.309 314.813 460.334 316.238 460.334C317.678 460.334 318.473 461.309 318.473 462.659V466.784C318.473 468.119 317.678 469.094 316.238 469.094ZM316.238 470.189C318.338 470.189 319.673 468.914 319.673 466.709V462.719C319.673 460.514 318.338 459.239 316.238 459.239C314.153 459.239 312.818 460.514 312.818 462.719V466.709C312.818 468.914 314.153 470.189 316.238 470.189ZM325.276 469.094C323.851 469.094 323.056 468.119 323.056 466.784V462.659C323.056 461.309 323.851 460.334 325.276 460.334C326.716 460.334 327.511 461.309 327.511 462.659V466.784C327.511 468.119 326.716 469.094 325.276 469.094ZM325.276 470.189C327.376 470.189 328.711 468.914 328.711 466.709V462.719C328.711 460.514 327.376 459.239 325.276 459.239C323.191 459.239 321.856 460.514 321.856 462.719V466.709C321.856 468.914 323.191 470.189 325.276 470.189ZM334.929 469.964H336.234V465.809H338.919L341.244 469.964H342.534V469.529L340.359 465.644C341.589 465.224 342.369 464.294 342.369 462.629C342.369 460.664 341.289 459.464 339.324 459.464H334.929V469.964ZM336.234 464.654V460.619H339.099C340.329 460.619 341.034 461.279 341.034 462.629C341.034 463.964 340.329 464.654 339.099 464.654H336.234ZM348.42 470.189C350.67 470.189 352.275 468.884 352.275 466.544V459.464H350.97V466.589C350.97 468.059 350.025 468.989 348.42 468.989C346.8 468.989 345.855 468.044 345.855 466.589V459.464H344.55V466.544C344.55 468.899 346.155 470.189 348.42 470.189ZM354.91 469.964H359.695C361.465 469.964 362.545 468.959 362.545 467.099C362.545 465.509 361.75 464.789 360.775 464.504C361.585 464.159 362.14 463.469 362.14 462.224C362.14 460.409 361.075 459.464 359.32 459.464H354.91V469.964ZM356.215 468.809V465.209H359.47C360.625 465.209 361.24 465.869 361.24 467.024C361.24 468.164 360.625 468.809 359.47 468.809H356.215ZM356.215 464.099V460.619H359.095C360.235 460.619 360.835 461.249 360.835 462.359C360.835 463.454 360.235 464.099 359.125 464.099H356.215Z" fill="#9E866C"/>
                <path fill-rule="evenodd" clip-rule="evenodd" d="M130.096 457.338C130.096 463.983 124.709 469.37 118.064 469.37C111.419 469.37 106.032 463.983 106.032 457.338C106.032 450.693 111.419 445.306 118.064 445.306C124.709 445.306 130.096 450.693 130.096 457.338ZM122.697 453.778H113.432C112.997 453.778 112.575 454.121 112.575 454.766V459.581C112.575 460.263 113.031 460.621 113.432 460.621H122.697C123.098 460.621 123.554 460.263 123.554 459.581V454.766C123.554 454.121 123.132 453.778 122.697 453.778ZM113.432 452.65H122.697C123.822 452.65 124.682 453.567 124.682 454.766V459.581C124.682 460.78 123.822 461.749 122.697 461.749H113.432C112.307 461.749 111.447 460.78 111.447 459.581V454.766C111.447 453.567 112.307 452.65 113.432 452.65ZM121.599 458.641H122.476V459.543H121.599H121.348H120.471V458.641H121.348H121.599Z" fill="#FBFBFB"/>
                <path d="M136.599 411.812H137.501L139.107 407.753L140.702 411.812H141.604L143.122 404.431V404.112H142.231L141.021 410.305L139.426 406.29H138.821L137.248 410.283L136.027 404.112H135.081V404.431L136.599 411.812ZM144.513 411.812H145.393V406.158H144.513V411.812ZM144.513 405.267H145.393V404.057H144.513V405.267ZM149.288 411.812H149.816V411.009H149.288C148.716 411.009 148.364 410.712 148.364 409.953V406.928H149.816V406.158H148.364V404.981H147.484V406.158H146.56V406.928H147.484V409.975C147.484 410.888 147.869 411.812 149.288 411.812ZM151.259 411.812H152.139V407.72C152.48 407.313 153.085 406.829 153.778 406.829C154.482 406.829 155.032 407.269 155.032 408.248V411.812H155.912V408.149C155.912 406.774 155.065 406.026 153.965 406.026C153.14 406.026 152.524 406.433 152.139 406.851V404.057H151.259V411.812ZM159.498 411.944C160.356 411.944 160.983 411.504 161.368 411.064L161.676 411.812H162.204V404.057H161.324V406.851C160.983 406.444 160.367 406.026 159.531 406.026C158.343 406.026 157.507 406.752 157.507 408.105V409.865C157.507 411.218 158.354 411.944 159.498 411.944ZM159.663 411.141C158.904 411.141 158.387 410.602 158.387 409.799V408.171C158.387 407.368 158.904 406.829 159.652 406.829C160.356 406.829 160.928 407.291 161.324 407.72V410.25C160.928 410.679 160.367 411.141 159.663 411.141ZM164.031 411.812H164.911V407.676C165.351 407.148 165.934 406.884 166.682 406.884H166.803V406.026H166.66C165.868 406.026 165.197 406.477 164.812 406.906L164.493 406.158H164.031V411.812ZM169.459 411.944C170.339 411.944 171.032 411.482 171.373 411.097L171.703 411.812H172.231V407.885C172.231 406.818 171.516 406.026 170.042 406.026C168.579 406.026 167.886 406.818 167.886 407.874H168.744C168.744 407.28 169.173 406.829 170.042 406.829C170.933 406.829 171.351 407.28 171.351 407.94V408.501H169.932C168.381 408.501 167.589 409.15 167.589 410.305C167.589 411.416 168.458 411.944 169.459 411.944ZM169.635 411.141C168.975 411.141 168.469 410.855 168.469 410.206C168.469 409.623 168.887 409.216 169.932 409.216H171.351V410.349C170.988 410.712 170.383 411.141 169.635 411.141ZM177.311 407.225H176.673L175.474 410.624L174.407 406.158H173.604V406.576L174.913 411.812H175.782L176.992 408.589L178.191 411.812H179.049L180.358 406.576V406.158H179.566L178.51 410.624L177.311 407.225ZM186.617 411.812H187.145V411.009H186.617C186.045 411.009 185.693 410.712 185.693 409.953V406.928H187.145V406.158H185.693V404.981H184.813V406.158H183.889V406.928H184.813V409.975C184.813 410.888 185.198 411.812 186.617 411.812ZM190.689 411.141C189.721 411.141 189.215 410.558 189.215 409.81V408.16C189.215 407.412 189.721 406.829 190.689 406.829C191.679 406.829 192.152 407.423 192.152 408.16V409.81C192.152 410.547 191.679 411.141 190.689 411.141ZM190.689 411.944C192.251 411.944 193.032 411.031 193.032 409.843V408.127C193.032 406.939 192.251 406.026 190.689 406.026C189.127 406.026 188.335 406.939 188.335 408.127V409.843C188.335 411.031 189.127 411.944 190.689 411.944ZM199.411 411.812H199.939V411.009H199.411C198.839 411.009 198.487 410.712 198.487 409.953V406.928H199.939V406.158H198.487V404.981H197.607V406.158H196.683V406.928H197.607V409.975C197.607 410.888 197.992 411.812 199.411 411.812ZM201.382 411.812H202.262V407.72C202.603 407.313 203.208 406.829 203.901 406.829C204.605 406.829 205.155 407.269 205.155 408.248V411.812H206.035V408.149C206.035 406.774 205.188 406.026 204.088 406.026C203.263 406.026 202.647 406.433 202.262 406.851V404.057H201.382V411.812ZM209.896 411.944C211.26 411.944 212.052 411.229 212.151 410.118H211.271C211.172 410.723 210.743 411.141 209.896 411.141C208.928 411.141 208.422 410.602 208.422 409.843V409.282H212.184V408.105C212.184 406.84 211.326 406.026 209.896 406.026C208.422 406.026 207.542 406.873 207.542 408.127V409.865C207.542 411.13 208.422 411.944 209.896 411.944ZM208.422 408.567V408.105C208.422 407.357 208.928 406.829 209.863 406.829C210.82 406.829 211.304 407.368 211.304 408.105V408.567H208.422ZM218.542 411.944C219.928 411.944 220.819 411.13 220.819 409.898V409.832H219.939V409.909C219.939 410.624 219.444 411.141 218.542 411.141C217.596 411.141 217.112 410.613 217.112 409.865V408.105C217.112 407.357 217.596 406.829 218.542 406.829C219.433 406.829 219.939 407.335 219.939 408.039V408.105H220.819V408.05C220.819 406.807 219.939 406.026 218.542 406.026C217.09 406.026 216.232 406.873 216.232 408.127V409.843C216.232 411.097 217.09 411.944 218.542 411.944ZM223.836 411.944C224.716 411.944 225.409 411.482 225.75 411.097L226.08 411.812H226.608V407.885C226.608 406.818 225.893 406.026 224.419 406.026C222.956 406.026 222.263 406.818 222.263 407.874H223.121C223.121 407.28 223.55 406.829 224.419 406.829C225.31 406.829 225.728 407.28 225.728 407.94V408.501H224.309C222.758 408.501 221.966 409.15 221.966 410.305C221.966 411.416 222.835 411.944 223.836 411.944ZM224.012 411.141C223.352 411.141 222.846 410.855 222.846 410.206C222.846 409.623 223.264 409.216 224.309 409.216H225.728V410.349C225.365 410.712 224.76 411.141 224.012 411.141ZM228.366 411.812H229.246V407.676C229.686 407.148 230.269 406.884 231.017 406.884H231.138V406.026H230.995C230.203 406.026 229.532 406.477 229.147 406.906L228.828 406.158H228.366V411.812ZM234.135 411.944C234.993 411.944 235.62 411.504 236.005 411.064L236.313 411.812H236.841V404.057H235.961V406.851C235.62 406.444 235.004 406.026 234.168 406.026C232.98 406.026 232.144 406.752 232.144 408.105V409.865C232.144 411.218 232.991 411.944 234.135 411.944ZM234.3 411.141C233.541 411.141 233.024 410.602 233.024 409.799V408.171C233.024 407.368 233.541 406.829 234.289 406.829C234.993 406.829 235.565 407.291 235.961 407.72V410.25C235.565 410.679 235.004 411.141 234.3 411.141Z" fill="#FBFBFB"/>
                <path d="M136.61 423.189H137.314L137.259 421.671L138.557 422.474L138.909 421.858L137.556 421.143L138.909 420.428L138.557 419.812L137.259 420.615L137.314 419.097H136.61L136.654 420.615L135.367 419.812L135.015 420.428L136.357 421.143L135.015 421.858L135.367 422.474L136.654 421.671L136.61 423.189ZM141.205 426.852H141.997L144.659 419.9V419.152H139.819V421.308H140.644V419.955H143.746L141.205 426.533V426.852ZM148.555 427.017C150.249 427.017 151.206 426.137 151.206 424.74C151.206 423.717 150.535 423.035 149.82 422.815C150.436 422.54 150.975 422.034 150.975 421.077C150.975 419.922 150.128 418.987 148.555 418.987C146.982 418.987 146.135 419.922 146.135 421.077C146.135 422.034 146.674 422.54 147.301 422.815C146.575 423.035 145.904 423.717 145.904 424.74C145.904 426.137 146.861 427.017 148.555 427.017ZM147.004 421.143C147.004 420.34 147.565 419.79 148.555 419.79C149.545 419.79 150.095 420.34 150.095 421.143C150.095 421.968 149.49 422.496 148.555 422.496C147.62 422.496 147.004 421.968 147.004 421.143ZM146.795 424.707C146.795 423.816 147.455 423.189 148.555 423.189C149.655 423.189 150.315 423.816 150.315 424.707C150.315 425.598 149.699 426.214 148.555 426.214C147.411 426.214 146.795 425.598 146.795 424.707ZM154.092 426.852H154.895L156.886 423.607C157.392 422.782 157.601 422.199 157.601 421.539C157.601 419.966 156.655 418.987 155.049 418.987C153.443 418.987 152.486 419.966 152.486 421.539C152.486 423.068 153.421 423.948 154.752 423.948C155.236 423.948 155.621 423.827 155.907 423.64L154.092 426.533V426.852ZM155.049 419.79C156.149 419.79 156.721 420.483 156.721 421.506C156.721 422.573 156.083 423.233 155.027 423.233C153.905 423.233 153.366 422.529 153.366 421.506C153.366 420.483 153.927 419.79 155.049 419.79ZM161.606 426.214C160.561 426.214 159.978 425.499 159.978 424.52V421.495C159.978 420.505 160.561 419.79 161.606 419.79C162.662 419.79 163.245 420.505 163.245 421.495V424.52C163.245 425.499 162.662 426.214 161.606 426.214ZM161.606 427.017C163.146 427.017 164.125 426.082 164.125 424.465V421.539C164.125 419.922 163.146 418.987 161.606 418.987C160.077 418.987 159.098 419.922 159.098 421.539V424.465C159.098 426.082 160.077 427.017 161.606 427.017Z" fill="#9E866C"/>
                <path d="M289.51 408.743H294.207V407.995H289.51V408.743ZM298.145 411.174C297.1 411.174 296.517 410.459 296.517 409.48V406.455C296.517 405.465 297.1 404.75 298.145 404.75C299.201 404.75 299.784 405.465 299.784 406.455V409.48C299.784 410.459 299.201 411.174 298.145 411.174ZM298.145 411.977C299.685 411.977 300.664 411.042 300.664 409.425V406.499C300.664 404.882 299.685 403.947 298.145 403.947C296.616 403.947 295.637 404.882 295.637 406.499V409.425C295.637 411.042 296.616 411.977 298.145 411.977ZM302.287 411.812H303.321V410.36H302.287V411.812ZM307.448 411.174C306.403 411.174 305.82 410.459 305.82 409.48V406.455C305.82 405.465 306.403 404.75 307.448 404.75C308.504 404.75 309.087 405.465 309.087 406.455V409.48C309.087 410.459 308.504 411.174 307.448 411.174ZM307.448 411.977C308.988 411.977 309.967 411.042 309.967 409.425V406.499C309.967 404.882 308.988 403.947 307.448 403.947C305.919 403.947 304.94 404.882 304.94 406.499V409.425C304.94 411.042 305.919 411.977 307.448 411.977ZM314.076 411.174C313.031 411.174 312.448 410.459 312.448 409.48V406.455C312.448 405.465 313.031 404.75 314.076 404.75C315.132 404.75 315.715 405.465 315.715 406.455V409.48C315.715 410.459 315.132 411.174 314.076 411.174ZM314.076 411.977C315.616 411.977 316.595 411.042 316.595 409.425V406.499C316.595 404.882 315.616 403.947 314.076 403.947C312.547 403.947 311.568 404.882 311.568 406.499V409.425C311.568 411.042 312.547 411.977 314.076 411.977ZM319.285 411.812H320.077L322.739 404.86V404.112H317.899V406.268H318.724V404.915H321.826L319.285 411.493V411.812ZM325.182 411.812H325.974L328.636 404.86V404.112H323.796V406.268H324.621V404.915H327.723L325.182 411.493V411.812ZM332.95 411.812H336.459C337.757 411.812 338.549 411.075 338.549 409.711C338.549 408.545 337.966 408.017 337.251 407.808C337.845 407.555 338.252 407.049 338.252 406.136C338.252 404.805 337.471 404.112 336.184 404.112H332.95V411.812ZM333.907 410.965V408.325H336.294C337.141 408.325 337.592 408.809 337.592 409.656C337.592 410.492 337.141 410.965 336.294 410.965H333.907ZM333.907 407.511V404.959H336.019C336.855 404.959 337.295 405.421 337.295 406.235C337.295 407.038 336.855 407.511 336.041 407.511H333.907ZM341.731 411.812H342.688V404.959H345.02V404.112H339.388V404.959H341.731V411.812ZM349.02 411.977C350.505 411.977 351.825 411.152 351.825 409.359V409.249H350.868V409.359C350.868 410.558 349.9 411.097 349.009 411.097C347.711 411.097 347.029 410.415 347.029 409.271V406.653C347.029 405.509 347.711 404.827 349.009 404.827C349.9 404.827 350.868 405.366 350.868 406.565V406.675H351.825V406.565C351.825 404.772 350.505 403.947 349.02 403.947C347.161 403.947 346.072 404.97 346.072 406.719V409.205C346.072 410.954 347.161 411.977 349.02 411.977Z" fill="#FBFBFB"/>
                <path fill-rule="evenodd" clip-rule="evenodd" d="M360.208 412.844C362.7 412.844 364.72 410.824 364.72 408.332C364.72 405.84 362.7 403.82 360.208 403.82C357.716 403.82 355.696 405.84 355.696 408.332C355.696 410.824 357.716 412.844 360.208 412.844ZM359.456 405.324V405.329V405.335V405.34V405.345V405.35V405.356V405.361V405.366V405.372V405.377V405.383V405.388V405.394V405.399V405.405V405.41V405.416V405.422V405.427V405.433V405.439V405.445V405.45V405.456V405.462V405.468V405.474V405.479V405.485V405.491V405.497V405.503V405.509V405.515V405.521V405.527V405.534V405.54V405.546V405.552V405.558V405.564V405.571V405.577V405.583V405.589V405.596V405.602V405.609V405.615V405.621V405.628V405.634V405.641V405.647V405.654V405.66V405.667V405.673V405.68V405.687V405.693V405.7V405.706V405.713V405.72V405.727V405.733V405.74V405.747V405.754V405.761V405.767V405.774V405.781V405.788V405.795V405.802V405.809V405.816V405.823V405.83V405.837V405.844V405.851V405.858V405.865V405.872V405.879V405.886V405.893V405.9V405.907V405.915V405.922V405.929V405.936V405.943V405.951V405.958V405.965V405.973V405.98V405.987V405.994V406.002V406.009V406.016V406.024V406.031V406.039V406.046V406.053V406.061V406.068V406.076V406.083V406.091V406.098V406.106V406.113V406.121V406.128V406.136V406.143V406.151V406.158V406.166V406.174V406.181V406.189V406.196V406.204V406.212V406.219V406.227V406.235V406.242V406.25V406.258V406.265V406.273V406.281V406.288V406.296V406.304V406.311V406.319V406.327V406.335V406.342V406.35V406.358V406.366V406.373V406.381V406.389V406.397V406.405V406.412V406.42V406.428V406.436V406.444V406.451V406.459V406.467V406.475V406.483V406.49V406.498V406.506V406.514V406.522V406.53V406.538V406.545V406.553V406.561V406.569V406.577V406.585V406.592V406.6V406.608V406.616V406.624V406.632V406.64V406.648V406.655V406.663V406.671V406.679V406.687V406.695V406.703V406.71V406.718V406.726V406.734V406.742V406.75V406.757V406.765V406.773V406.781V406.789V406.797V406.804V406.812V406.82V406.828V406.836V406.844V406.851V406.859V406.867V406.875V406.883V406.89V406.898V406.906V406.914V406.921V406.929V406.937V406.945V406.952V406.96V406.968V406.976V406.983V406.991V406.999V407.006V407.014V407.022V407.029V407.037V407.045V407.052V407.06V407.068V407.075V407.083V407.091V407.098V407.106V407.113V407.121V407.129V407.136V407.144V407.151V407.159V407.166V407.174V407.181V407.189V407.196V407.204V407.211V407.219V407.226V407.233V407.241V407.248V407.256V407.263V407.27V407.278V407.285V407.292V407.3V407.307V407.314V407.321V407.329V407.336V407.343V407.35V407.358V407.365V407.372V407.379V407.386V407.393V407.401V407.408V407.415V407.422V407.429V407.436V407.443V407.45V407.457V407.464V407.471V407.478V407.485V407.492V407.498V407.505V407.512V407.519V407.526V407.533V407.539V407.546V407.553V407.56V407.566V407.573V407.58V407.586V407.593V407.6V407.606V407.613V407.619V407.626V407.632V407.639V407.645V407.652V407.658V407.665V407.671V407.678V407.684V407.69V407.697V407.703V407.709V407.715V407.722V407.728V407.734V407.74V407.746V407.752V407.758V407.764V407.77V407.777V407.782V407.788V407.794V407.8V407.806V407.812V407.818V407.824V407.83V407.835V407.841V407.847V407.852V407.858V407.864V407.869V407.875V407.881V407.886V407.892V407.897V407.903V407.908V407.913V407.919V407.924V407.929V407.935V407.94V407.945V407.951V407.956V407.961V407.966V407.971V407.976V407.981V407.986V407.991V407.996V408.001V408.006V408.011V408.016V408.02V408.025V408.03V408.035V408.039V408.044V408.049V408.053V408.058V408.062V408.067V408.071V408.076V408.08V408.084V408.089V408.093V408.097V408.102V408.106V408.11V408.114V408.118V408.122V408.126V408.13V408.134V408.138V408.142V408.146V408.15V408.153V408.157V408.161V408.165V408.168V408.172V408.175V408.179V408.182V408.186V408.189V408.193V408.196V408.199V408.203V408.206V408.209V408.212V408.215V408.219V408.222V408.225V408.228V408.231V408.233V408.236V408.239V408.242V408.245V408.247V408.25V408.253V408.255V408.258V408.26V408.263V408.265V408.268V408.27V408.272V408.275V408.277V408.279V408.281V408.283V408.285V408.287V408.289V408.291V408.293V408.295V408.297V408.299V408.3V408.302V408.304V408.305V408.307V408.308V408.31V408.311V408.312V408.314V408.315V408.316V408.317V408.319V408.32V408.321V408.322V408.323V408.324V408.325V408.325V408.326V408.327V408.328V408.328V408.329V408.329V408.33V408.33V408.331V408.331V408.331V408.332V408.332V408.332V408.332V408.332L360.208 408.332H359.456V408.644L359.677 408.864L360.805 409.992L361.868 408.929L360.96 408.021V408.02V408.016V408.011V408.006V408.001V407.996V407.991V407.986V407.981V407.976V407.971V407.966V407.961V407.956V407.951V407.945V407.94V407.935V407.929V407.924V407.919V407.913V407.908V407.903V407.897V407.892V407.886V407.881V407.875V407.869V407.864V407.858V407.852V407.847V407.841V407.835V407.83V407.824V407.818V407.812V407.806V407.8V407.794V407.788V407.782V407.777V407.77V407.764V407.758V407.752V407.746V407.74V407.734V407.728V407.722V407.715V407.709V407.703V407.697V407.69V407.684V407.678V407.671V407.665V407.658V407.652V407.645V407.639V407.632V407.626V407.619V407.613V407.606V407.6V407.593V407.586V407.58V407.573V407.566V407.56V407.553V407.546V407.539V407.533V407.526V407.519V407.512V407.505V407.498V407.492V407.485V407.478V407.471V407.464V407.457V407.45V407.443V407.436V407.429V407.422V407.415V407.408V407.401V407.393V407.386V407.379V407.372V407.365V407.358V407.35V407.343V407.336V407.329V407.321V407.314V407.307V407.3V407.292V407.285V407.278V407.27V407.263V407.256V407.248V407.241V407.233V407.226V407.219V407.211V407.204V407.196V407.189V407.181V407.174V407.166V407.159V407.151V407.144V407.136V407.129V407.121V407.113V407.106V407.098V407.091V407.083V407.075V407.068V407.06V407.052V407.045V407.037V407.029V407.022V407.014V407.006V406.999V406.991V406.983V406.976V406.968V406.96V406.952V406.945V406.937V406.929V406.921V406.914V406.906V406.898V406.89V406.883V406.875V406.867V406.859V406.851V406.844V406.836V406.828V406.82V406.812V406.804V406.797V406.789V406.781V406.773V406.765V406.757V406.75V406.742V406.734V406.726V406.718V406.71V406.703V406.695V406.687V406.679V406.671V406.663V406.655V406.648V406.64V406.632V406.624V406.616V406.608V406.6V406.592V406.585V406.577V406.569V406.561V406.553V406.545V406.538V406.53V406.522V406.514V406.506V406.498V406.49V406.483V406.475V406.467V406.459V406.451V406.444V406.436V406.428V406.42V406.412V406.405V406.397V406.389V406.381V406.373V406.366V406.358V406.35V406.342V406.335V406.327V406.319V406.311V406.304V406.296V406.288V406.281V406.273V406.265V406.258V406.25V406.242V406.235V406.227V406.219V406.212V406.204V406.196V406.189V406.181V406.174V406.166V406.158V406.151V406.143V406.136V406.128V406.121V406.113V406.106V406.098V406.091V406.083V406.076V406.068V406.061V406.053V406.046V406.039V406.031V406.024V406.016V406.009V406.002V405.994V405.987V405.98V405.973V405.965V405.958V405.951V405.943V405.936V405.929V405.922V405.915V405.907V405.9V405.893V405.886V405.879V405.872V405.865V405.858V405.851V405.844V405.837V405.83V405.823V405.816V405.809V405.802V405.795V405.788V405.781V405.774V405.767V405.761V405.754V405.747V405.74V405.733V405.727V405.72V405.713V405.706V405.7V405.693V405.687V405.68V405.673V405.667V405.66V405.654V405.647V405.641V405.634V405.628V405.621V405.615V405.609V405.602V405.596V405.589V405.583V405.577V405.571V405.564V405.558V405.552V405.546V405.54V405.534V405.527V405.521V405.515V405.509V405.503V405.497V405.491V405.485V405.479V405.474V405.468V405.462V405.456V405.45V405.445V405.439V405.433V405.427V405.422V405.416V405.41V405.405V405.399V405.394V405.388V405.383V405.377V405.372V405.366V405.361V405.356V405.35V405.345V405.34V405.335V405.329V405.324H359.456Z" fill="#9E866C"/>
                <path d="M305.084 423.816H310.188V423.002H305.084V423.816ZM314.135 427.017C315.73 427.017 316.687 426.049 316.687 424.443C316.687 422.925 315.763 422.056 314.476 422.056C313.981 422.056 313.596 422.177 313.31 422.353L315.158 419.471V419.152H314.344L312.309 422.397C311.814 423.178 311.572 423.772 311.572 424.443C311.572 426.049 312.529 427.017 314.135 427.017ZM314.135 426.214C313.024 426.214 312.452 425.521 312.452 424.487C312.452 423.431 313.079 422.782 314.146 422.782C315.279 422.782 315.807 423.475 315.807 424.487C315.807 425.521 315.235 426.214 314.135 426.214ZM320.527 427.017C322.067 427.017 323.035 426.016 323.035 424.322C323.035 422.518 321.979 421.781 320.725 421.781C320.043 421.781 319.581 421.979 319.174 422.298L319.383 419.955H322.595V419.152H318.657L318.294 423.2H319.163C319.427 422.848 319.9 422.518 320.571 422.518C321.517 422.518 322.155 423.167 322.155 424.333C322.155 425.455 321.627 426.214 320.549 426.214C319.636 426.214 318.987 425.664 318.866 424.806H317.986C318.162 426.214 319.13 427.017 320.527 427.017ZM324.541 426.852H325.575V425.4H324.541V426.852ZM329.647 427.017C331.187 427.017 332.155 426.016 332.155 424.322C332.155 422.518 331.099 421.781 329.845 421.781C329.163 421.781 328.701 421.979 328.294 422.298L328.503 419.955H331.715V419.152H327.777L327.414 423.2H328.283C328.547 422.848 329.02 422.518 329.691 422.518C330.637 422.518 331.275 423.167 331.275 424.333C331.275 425.455 330.747 426.214 329.669 426.214C328.756 426.214 328.107 425.664 327.986 424.806H327.106C327.282 426.214 328.25 427.017 329.647 427.017ZM336.18 427.017C337.874 427.017 338.831 426.137 338.831 424.74C338.831 423.717 338.16 423.035 337.445 422.815C338.061 422.54 338.6 422.034 338.6 421.077C338.6 419.922 337.753 418.987 336.18 418.987C334.607 418.987 333.76 419.922 333.76 421.077C333.76 422.034 334.299 422.54 334.926 422.815C334.2 423.035 333.529 423.717 333.529 424.74C333.529 426.137 334.486 427.017 336.18 427.017ZM334.629 421.143C334.629 420.34 335.19 419.79 336.18 419.79C337.17 419.79 337.72 420.34 337.72 421.143C337.72 421.968 337.115 422.496 336.18 422.496C335.245 422.496 334.629 421.968 334.629 421.143ZM334.42 424.707C334.42 423.816 335.08 423.189 336.18 423.189C337.28 423.189 337.94 423.816 337.94 424.707C337.94 425.598 337.324 426.214 336.18 426.214C335.036 426.214 334.42 425.598 334.42 424.707ZM343.291 426.852H348.098V426.005H344.248V423.398H347.57V422.551H344.248V419.999H348.087V419.152H343.291V426.852ZM352.442 427.017C354.092 427.017 355.269 426.06 355.269 424.344V419.152H354.312V424.377C354.312 425.455 353.619 426.137 352.442 426.137C351.254 426.137 350.561 425.444 350.561 424.377V419.152H349.604V424.344C349.604 426.071 350.781 427.017 352.442 427.017ZM357.202 426.852H358.159V423.805H360.128L361.833 426.852H362.779V426.533L361.184 423.684C362.086 423.376 362.658 422.694 362.658 421.473C362.658 420.032 361.866 419.152 360.425 419.152H357.202V426.852ZM358.159 422.958V419.999H360.26C361.162 419.999 361.679 420.483 361.679 421.473C361.679 422.452 361.162 422.958 360.26 422.958H358.159Z" fill="#9E866C"/>
                <path fill-rule="evenodd" clip-rule="evenodd" d="M130.096 415.226C130.096 421.871 124.709 427.258 118.064 427.258C111.419 427.258 106.032 421.871 106.032 415.226C106.032 408.581 111.419 403.194 118.064 403.194C124.709 403.194 130.096 408.581 130.096 415.226ZM122.697 411.666H113.432C112.997 411.666 112.575 412.009 112.575 412.654V417.469C112.575 418.151 113.031 418.509 113.432 418.509H122.697C123.098 418.509 123.554 418.151 123.554 417.469V412.654C123.554 412.009 123.132 411.666 122.697 411.666ZM113.432 410.538H122.697C123.822 410.538 124.682 411.455 124.682 412.654V417.469C124.682 418.668 123.822 419.637 122.697 419.637H113.432C112.307 419.637 111.447 418.668 111.447 417.469V412.654C111.447 411.455 112.307 410.538 113.432 410.538ZM121.599 416.529H122.476V417.431H121.599H121.348H120.471V416.529H121.348H121.599Z" fill="#FBFBFB"/>
                <path d="M106.533 436.526H376" stroke="#443D35" stroke-width="0.752"/>
                <path d="M107.264 347.652H108.694V339.952H108.331L106.505 341.129V341.888H107.264V347.652ZM113.095 346.519C112.281 346.519 111.896 345.969 111.896 345.265V342.339C111.896 341.635 112.281 341.085 113.095 341.085C113.92 341.085 114.305 341.635 114.305 342.339V345.265C114.305 345.969 113.92 346.519 113.095 346.519ZM113.095 347.817C114.712 347.817 115.735 346.915 115.735 345.188V342.416C115.735 340.689 114.712 339.787 113.095 339.787C111.489 339.787 110.466 340.689 110.466 342.416V345.188C110.466 346.915 111.489 347.817 113.095 347.817ZM122.991 346.387C121.946 346.387 121.484 345.771 121.484 345.111V342.493C121.484 341.833 121.946 341.217 122.991 341.217C124.036 341.217 124.498 341.833 124.498 342.493V345.111C124.498 345.771 124.036 346.387 122.991 346.387ZM122.991 347.817C124.872 347.817 126.06 346.794 126.06 345.034V342.57C126.06 340.81 124.872 339.787 122.991 339.787C121.121 339.787 119.922 340.81 119.922 342.57V345.034C119.922 346.794 121.121 347.817 122.991 347.817ZM130.639 347.817C132.157 347.817 133.499 347.025 133.499 345.122V345.012H131.937V345.122C131.937 346.057 131.255 346.387 130.54 346.387C129.616 346.387 129.176 345.914 129.176 345.155V342.449C129.176 341.69 129.616 341.217 130.54 341.217C131.255 341.217 131.937 341.569 131.937 342.482V342.592H133.499V342.482C133.499 340.579 132.157 339.787 130.639 339.787C128.681 339.787 127.614 340.81 127.614 342.559V345.045C127.614 346.794 128.681 347.817 130.639 347.817ZM136.559 347.652H138.121V341.316H140.277V339.952H134.392V341.316H136.559V347.652ZM144.35 346.387C143.305 346.387 142.843 345.771 142.843 345.111V342.493C142.843 341.833 143.305 341.217 144.35 341.217C145.395 341.217 145.857 341.833 145.857 342.493V345.111C145.857 345.771 145.395 346.387 144.35 346.387ZM144.35 347.817C146.231 347.817 147.419 346.794 147.419 345.034V342.57C147.419 340.81 146.231 339.787 144.35 339.787C142.48 339.787 141.281 340.81 141.281 342.57V345.034C141.281 346.794 142.48 347.817 144.35 347.817ZM149.194 347.652H152.758C154.166 347.652 155.035 346.937 155.035 345.485C155.035 344.418 154.507 343.934 153.869 343.659C154.441 343.34 154.727 342.823 154.727 342.075C154.727 340.667 153.847 339.952 152.45 339.952H149.194V347.652ZM150.756 343.153V341.316H152.362C152.769 341.316 153.154 341.591 153.154 342.229C153.154 342.878 152.769 343.153 152.362 343.153H150.756ZM150.756 346.288V344.451H152.681C153.088 344.451 153.473 344.726 153.473 345.364C153.473 346.013 153.088 346.288 152.681 346.288H150.756ZM156.586 347.652H161.624V346.288H158.148V344.44H161.096V343.142H158.148V341.316H161.602V339.952H156.586V347.652ZM163.172 347.652H164.734V344.759H165.922L167.528 347.652H169.046V347.135L167.627 344.572C168.386 344.198 168.892 343.439 168.892 342.35C168.892 340.854 168.078 339.952 166.505 339.952H163.172V347.652ZM164.734 343.439V341.316H166.219C166.901 341.316 167.297 341.602 167.297 342.372C167.297 343.153 166.901 343.439 166.219 343.439H164.734Z" fill="#FBFBFB"/>
                <path d="M249.764 135.133H254.571V134.286H250.721V131.679H254.043V130.832H250.721V128.28H254.56V127.433H249.764V135.133ZM257.761 135.133H258.718V128.28H261.05V127.433H255.418V128.28H257.761V135.133ZM262.321 135.133H263.278V131.69H267.029V135.133H267.986V127.433H267.029V130.843H263.278V127.433H262.321V135.133Z" fill="#FBFBFB"/>
                <path d="M201.437 135.133H202.317L203.109 133.087H206.431L207.201 135.133H208.147V134.814L205.265 127.433H204.308L201.437 134.814V135.133ZM203.395 132.273L204.77 128.709L206.134 132.273H203.395ZM209.315 135.133H210.195V127.378H209.315V135.133ZM212.022 135.133H212.902V127.378H212.022V135.133Z" fill="#FBFBFB"/>
                <path d="M221.101 135.133H224.665C226.073 135.133 226.942 134.418 226.942 132.966C226.942 131.899 226.414 131.415 225.776 131.14C226.348 130.821 226.634 130.304 226.634 129.556C226.634 128.148 225.754 127.433 224.357 127.433H221.101V135.133ZM222.663 130.634V128.797H224.269C224.676 128.797 225.061 129.072 225.061 129.71C225.061 130.359 224.676 130.634 224.269 130.634H222.663ZM222.663 133.769V131.932H224.588C224.995 131.932 225.38 132.207 225.38 132.845C225.38 133.494 224.995 133.769 224.588 133.769H222.663ZM229.835 135.133H231.397V128.797H233.553V127.433H227.668V128.797H229.835V135.133ZM237.527 135.298C239.045 135.298 240.387 134.506 240.387 132.603V132.493H238.825V132.603C238.825 133.538 238.143 133.868 237.428 133.868C236.504 133.868 236.064 133.395 236.064 132.636V129.93C236.064 129.171 236.504 128.698 237.428 128.698C238.143 128.698 238.825 129.05 238.825 129.963V130.073H240.387V129.963C240.387 128.06 239.045 127.268 237.527 127.268C235.569 127.268 234.502 128.291 234.502 130.04V132.526C234.502 134.275 235.569 135.298 237.527 135.298Z" fill="#FBFBFB"/>
                <path d="M220.336 141.899H242.144" stroke="#232323" stroke-width="0.752"/>
                <path d="M199.017 198.301H203.846V197.498H200.216L201.998 195.705C202.878 194.814 203.747 193.978 203.747 192.735C203.747 191.437 202.889 190.436 201.382 190.436C200.007 190.436 198.995 191.349 198.984 192.966H199.864C199.875 191.921 200.403 191.239 201.393 191.239C202.35 191.239 202.867 191.866 202.867 192.757C202.867 193.67 202.218 194.319 201.338 195.21L199.017 197.575V198.301ZM207.867 197.663C206.822 197.663 206.239 196.948 206.239 195.969V192.944C206.239 191.954 206.822 191.239 207.867 191.239C208.923 191.239 209.506 191.954 209.506 192.944V195.969C209.506 196.948 208.923 197.663 207.867 197.663ZM207.867 198.466C209.407 198.466 210.386 197.531 210.386 195.914V192.988C210.386 191.371 209.407 190.436 207.867 190.436C206.338 190.436 205.359 191.371 205.359 192.988V195.914C205.359 197.531 206.338 198.466 207.867 198.466ZM211.558 199.445H212.262L213.175 197.267V196.849H212.207L211.558 199.445ZM217.721 198.301H218.601V196.629H219.58V195.826H218.601V193.78H217.721V195.826H215.191L217.842 190.92V190.601H217.061L214.179 195.947V196.629H217.721V198.301ZM222.956 198.466C224.54 198.466 225.475 197.586 225.475 196.134C225.475 195.155 224.881 194.473 224.166 194.253C224.804 193.967 225.266 193.428 225.266 192.515C225.266 191.371 224.474 190.436 222.978 190.436C221.537 190.436 220.569 191.327 220.558 192.933H221.438C221.449 191.888 221.977 191.239 222.978 191.239C223.99 191.239 224.408 191.921 224.408 192.592C224.408 193.417 223.869 193.89 223.022 193.89H222.472V194.693H223.077C224.023 194.693 224.595 195.232 224.595 196.079C224.595 197.014 224.056 197.663 222.989 197.663C221.911 197.663 221.306 196.981 221.273 195.98H220.393C220.426 197.542 221.416 198.466 222.956 198.466ZM228.359 198.301H229.162L231.153 195.056C231.659 194.231 231.868 193.648 231.868 192.988C231.868 191.415 230.922 190.436 229.316 190.436C227.71 190.436 226.753 191.415 226.753 192.988C226.753 194.517 227.688 195.397 229.019 195.397C229.503 195.397 229.888 195.276 230.174 195.089L228.359 197.982V198.301ZM229.316 191.239C230.416 191.239 230.988 191.932 230.988 192.955C230.988 194.022 230.35 194.682 229.294 194.682C228.172 194.682 227.633 193.978 227.633 192.955C227.633 191.932 228.194 191.239 229.316 191.239ZM232.398 198.301H233.432V196.849H232.398V198.301ZM234.864 198.301H239.693V197.498H236.063L237.845 195.705C238.725 194.814 239.594 193.978 239.594 192.735C239.594 191.437 238.736 190.436 237.229 190.436C235.854 190.436 234.842 191.349 234.831 192.966H235.711C235.722 191.921 236.25 191.239 237.24 191.239C238.197 191.239 238.714 191.866 238.714 192.757C238.714 193.67 238.065 194.319 237.185 195.21L234.864 197.575V198.301ZM243.714 197.663C242.669 197.663 242.086 196.948 242.086 195.969V192.944C242.086 191.954 242.669 191.239 243.714 191.239C244.77 191.239 245.353 191.954 245.353 192.944V195.969C245.353 196.948 244.77 197.663 243.714 197.663ZM243.714 198.466C245.254 198.466 246.233 197.531 246.233 195.914V192.988C246.233 191.371 245.254 190.436 243.714 190.436C242.185 190.436 241.206 191.371 241.206 192.988V195.914C241.206 197.531 242.185 198.466 243.714 198.466ZM250.793 198.301H255.6V197.454H251.75V194.847H255.072V194H251.75V191.448H255.589V190.601H250.793V198.301ZM259.945 198.466C261.595 198.466 262.772 197.509 262.772 195.793V190.601H261.815V195.826C261.815 196.904 261.122 197.586 259.945 197.586C258.757 197.586 258.064 196.893 258.064 195.826V190.601H257.107V195.793C257.107 197.52 258.284 198.466 259.945 198.466ZM264.704 198.301H265.661V195.254H267.63L269.335 198.301H270.281V197.982L268.686 195.133C269.588 194.825 270.16 194.143 270.16 192.922C270.16 191.481 269.368 190.601 267.927 190.601H264.704V198.301ZM265.661 194.407V191.448H267.762C268.664 191.448 269.181 191.932 269.181 192.922C269.181 193.901 268.664 194.407 267.762 194.407H265.661Z" fill="#FBFBFB"/>
                <path d="M173.004 222.341H183.54V220.589H175.62L179.508 216.677C181.428 214.733 183.324 212.909 183.324 210.197C183.324 207.365 181.452 205.181 178.164 205.181C175.164 205.181 172.956 207.173 172.932 210.701H174.852C174.876 208.421 176.028 206.933 178.188 206.933C180.276 206.933 181.404 208.301 181.404 210.245C181.404 212.237 179.988 213.653 178.068 215.597L173.004 220.757V222.341ZM186.89 222.341H189.146V219.173H186.89V222.341ZM199.446 222.341H201.366V218.693H203.502V216.941H201.366V212.477H199.446V216.941H193.926L199.71 206.237V205.541H198.006L191.718 217.205V218.693H199.446V222.341ZM211.275 220.949C208.995 220.949 207.723 219.389 207.723 217.253V210.653C207.723 208.493 208.995 206.933 211.275 206.933C213.579 206.933 214.851 208.493 214.851 210.653V217.253C214.851 219.389 213.579 220.949 211.275 220.949ZM211.275 222.701C214.635 222.701 216.771 220.661 216.771 217.133V210.749C216.771 207.221 214.635 205.181 211.275 205.181C207.939 205.181 205.803 207.221 205.803 210.749V217.133C205.803 220.661 207.939 222.701 211.275 222.701ZM225.736 220.949C223.456 220.949 222.184 219.389 222.184 217.253V210.653C222.184 208.493 223.456 206.933 225.736 206.933C228.04 206.933 229.312 208.493 229.312 210.653V217.253C229.312 219.389 228.04 220.949 225.736 220.949ZM225.736 222.701C229.096 222.701 231.232 220.661 231.232 217.133V210.749C231.232 207.221 229.096 205.181 225.736 205.181C222.4 205.181 220.264 207.221 220.264 210.749V217.133C220.264 220.661 222.4 222.701 225.736 222.701ZM240.197 220.949C237.917 220.949 236.645 219.389 236.645 217.253V210.653C236.645 208.493 237.917 206.933 240.197 206.933C242.501 206.933 243.773 208.493 243.773 210.653V217.253C243.773 219.389 242.501 220.949 240.197 220.949ZM240.197 222.701C243.557 222.701 245.693 220.661 245.693 217.133V210.749C245.693 207.221 243.557 205.181 240.197 205.181C236.861 205.181 234.725 207.221 234.725 210.749V217.133C234.725 220.661 236.861 222.701 240.197 222.701ZM255.642 222.341H263.298C266.13 222.341 267.858 220.733 267.858 217.757C267.858 215.213 266.586 214.061 265.026 213.605C266.322 213.053 267.21 211.949 267.21 209.957C267.21 207.053 265.506 205.541 262.698 205.541H255.642V222.341ZM257.73 220.493V214.733H262.938C264.786 214.733 265.77 215.789 265.77 217.637C265.77 219.461 264.786 220.493 262.938 220.493H257.73ZM257.73 212.957V207.389H262.338C264.162 207.389 265.122 208.397 265.122 210.173C265.122 211.925 264.162 212.957 262.386 212.957H257.73ZM274.801 222.341H276.889V207.389H281.977V205.541H269.689V207.389H274.801V222.341ZM290.704 222.701C293.944 222.701 296.824 220.901 296.824 216.989V216.749H294.736V216.989C294.736 219.605 292.624 220.781 290.68 220.781C287.848 220.781 286.36 219.293 286.36 216.797V211.085C286.36 208.589 287.848 207.101 290.68 207.101C292.624 207.101 294.736 208.277 294.736 210.893V211.133H296.824V210.893C296.824 206.981 293.944 205.181 290.704 205.181C286.648 205.181 284.272 207.413 284.272 211.229V216.653C284.272 220.469 286.648 222.701 290.704 222.701Z" fill="#FBFBFB"/>
                <g clip-path="url(#clip3)">
                    <path d="M148.145 243.43C148.145 241.575 148.145 240.647 148.54 239.954C148.807 239.486 149.194 239.099 149.662 238.832C150.355 238.437 151.283 238.437 153.138 238.437H247.679C249.534 238.437 250.462 238.437 251.155 238.832C251.623 239.099 252.01 239.486 252.277 239.954C252.673 240.647 252.673 241.575 252.673 243.43V269.539C252.673 271.394 252.673 272.322 252.277 273.015C252.01 273.483 251.623 273.87 251.155 274.137C250.462 274.533 249.534 274.533 247.679 274.533H153.138C151.283 274.533 150.355 274.533 149.662 274.137C149.194 273.87 148.807 273.483 148.54 273.015C148.145 272.322 148.145 271.394 148.145 269.539V243.43Z" fill="#FBFBFB"/>
                    <path d="M193.266 261.46H195.254V253.396H197.998V251.66H190.508V253.396H193.266V261.46ZM201.286 259.976C200.348 259.976 199.914 259.444 199.914 258.828V256.756C199.914 256.14 200.348 255.608 201.286 255.608C202.196 255.608 202.644 256.126 202.644 256.756V258.828C202.644 259.458 202.196 259.976 201.286 259.976ZM201.286 261.628C203.4 261.628 204.464 260.438 204.464 258.912V256.672C204.464 255.146 203.4 253.956 201.286 253.956C199.158 253.956 198.094 255.146 198.094 256.672V258.912C198.094 260.438 199.158 261.628 201.286 261.628ZM206.332 263.7H208.152V260.942C208.46 261.208 209.076 261.628 210.098 261.628C211.526 261.628 212.702 260.774 212.702 258.94V256.644C212.702 254.81 211.526 253.956 210.098 253.956C209.034 253.956 208.418 254.376 207.914 254.852L207.382 254.124H206.332V263.7ZM208.152 256.378C208.516 256.014 209.006 255.608 209.72 255.608C210.28 255.608 210.882 256.014 210.882 256.784V258.8C210.882 259.57 210.28 259.976 209.72 259.976C209.006 259.976 208.516 259.57 208.152 259.206V256.378ZM224.127 254.124H222.307V259.22C222.083 259.472 221.509 259.976 220.809 259.976C220.193 259.976 219.703 259.584 219.703 258.702V254.124H217.883V258.814C217.883 260.578 218.835 261.628 220.403 261.628C221.411 261.628 222.083 261.18 222.545 260.746L223.077 261.46H224.127V254.124ZM226.307 263.7H228.127V260.942C228.435 261.208 229.051 261.628 230.073 261.628C231.501 261.628 232.677 260.774 232.677 258.94V256.644C232.677 254.81 231.501 253.956 230.073 253.956C229.009 253.956 228.393 254.376 227.889 254.852L227.357 254.124H226.307V263.7ZM228.127 256.378C228.491 256.014 228.981 255.608 229.695 255.608C230.255 255.608 230.857 256.014 230.857 256.784V258.8C230.857 259.57 230.255 259.976 229.695 259.976C228.981 259.976 228.491 259.57 228.127 259.206V256.378Z" fill="#232323"/>
                    <path fill-rule="evenodd" clip-rule="evenodd" d="M176.72 264.004C180.873 264.004 184.24 260.638 184.24 256.484C184.24 252.331 180.873 248.964 176.72 248.964C172.567 248.964 169.2 252.331 169.2 256.484C169.2 260.638 172.567 264.004 176.72 264.004ZM176.72 265.508C181.704 265.508 185.744 261.468 185.744 256.484C185.744 251.501 181.704 247.46 176.72 247.46C171.736 247.46 167.696 251.501 167.696 256.484C167.696 261.468 171.736 265.508 176.72 265.508ZM175.968 255.732V251.07H177.472V255.732H182.135V257.236H177.472V261.899H175.968V257.236L171.306 257.236V255.732L175.968 255.732Z" fill="#232323"/>
                </g>
                <g clip-path="url(#clip4)">
                    <path d="M258.688 243.43C258.688 241.575 258.688 240.647 259.084 239.954C259.351 239.486 259.738 239.099 260.206 238.832C260.899 238.437 261.827 238.437 263.682 238.437H358.975C360.83 238.437 361.758 238.437 362.451 238.832C362.919 239.099 363.306 239.486 363.573 239.954C363.968 240.647 363.968 241.575 363.968 243.43V269.539C363.968 271.394 363.968 272.322 363.573 273.015C363.306 273.483 362.919 273.87 362.451 274.137C361.758 274.533 360.83 274.533 358.975 274.533H263.682C261.827 274.533 260.899 274.533 260.206 274.137C259.738 273.87 259.351 273.483 259.084 273.015C258.688 272.322 258.688 271.394 258.688 269.539V243.43Z" fill="#FBFBFB"/>
                    <path d="M310.502 261.67C313.036 261.67 314.324 260.396 314.324 258.688C314.324 256.896 312.714 256.294 310.964 255.664L310.572 255.524C309.634 255.188 308.92 255.02 308.92 254.292C308.92 253.662 309.536 253.27 310.516 253.27C311.412 253.27 312.252 253.634 312.252 254.754H314.24C314.24 252.388 312.658 251.45 310.544 251.45C308.29 251.45 306.918 252.626 306.918 254.404C306.918 256.07 308.29 256.7 309.536 257.176L309.942 257.33C311.426 257.89 312.224 258.086 312.224 258.786C312.224 259.402 311.664 259.85 310.614 259.85C309.802 259.85 308.654 259.556 308.654 258.282H306.666C306.666 260.55 308.402 261.67 310.502 261.67ZM319.105 261.628C320.897 261.628 322.003 260.732 322.143 259.234H320.323C320.197 259.696 319.805 259.976 319.105 259.976C318.167 259.976 317.733 259.528 317.733 258.912V258.394H322.157V256.644C322.157 254.922 320.911 253.956 319.105 253.956C317.187 253.956 315.913 254.992 315.913 256.672V258.94C315.913 260.662 317.187 261.628 319.105 261.628ZM317.733 257.008V256.644C317.733 256.028 318.167 255.608 319.035 255.608C319.875 255.608 320.337 256.014 320.337 256.644V257.008H317.733ZM324.014 261.46H325.834V256.378C326.058 256.126 326.646 255.608 327.36 255.608C327.99 255.608 328.494 256.014 328.494 256.91V261.46H330.314V256.798C330.314 255.02 329.348 253.956 327.766 253.956C326.744 253.956 326.058 254.404 325.596 254.852L325.064 254.124H324.014V261.46ZM338.582 251.59H336.762V254.642C336.454 254.376 335.838 253.956 334.816 253.956C333.388 253.956 332.212 254.81 332.212 256.644V258.94C332.212 260.774 333.388 261.628 334.816 261.628C335.88 261.628 336.496 261.208 337 260.732L337.532 261.46H338.582V251.59ZM336.762 259.206C336.398 259.57 335.908 259.976 335.194 259.976C334.634 259.976 334.032 259.57 334.032 258.8V256.784C334.032 256.014 334.634 255.608 335.194 255.608C335.908 255.608 336.398 256.014 336.762 256.378V259.206Z" fill="#232323"/>
                    <g clip-path="url(#clip5)">
                        <path d="M284.257 256.484C284.257 251.937 287.981 248.212 292.529 248.212C297.077 248.212 300.801 251.937 300.801 256.484C300.801 261.032 297.077 264.756 292.529 264.756C287.981 264.756 284.257 261.032 284.257 256.484Z" stroke="#232323" stroke-width="1.504"/>
                        <path d="M288.017 256.484H297.041" stroke="#232323" stroke-width="1.504"/>
                        <path d="M294.033 253.477L297.041 256.485L294.033 259.493" stroke="#232323" stroke-width="1.504" stroke-linejoin="bevel"/>
                    </g>
                </g>
                <g clip-path="url(#clip6)">
                    <path d="M106.032 243.43C106.032 241.575 106.032 240.647 106.427 239.954C106.694 239.486 107.082 239.099 107.55 238.832C108.243 238.437 109.17 238.437 111.026 238.437H137.135C138.99 238.437 139.918 238.437 140.611 238.832C141.078 239.099 141.466 239.486 141.733 239.954C142.128 240.647 142.128 241.575 142.128 243.43V269.539C142.128 271.394 142.128 272.322 141.733 273.015C141.466 273.483 141.078 273.87 140.611 274.137C139.918 274.533 138.99 274.533 137.135 274.533H111.026C109.17 274.533 108.243 274.533 107.55 274.137C107.082 273.87 106.694 273.483 106.427 273.015C106.032 272.322 106.032 271.394 106.032 269.539V243.43Z" fill="#FBFBFB"/>
                    <path fill-rule="evenodd" clip-rule="evenodd" d="M121.073 247.46H115.057V253.476H121.073V247.46ZM119.067 249.466H117.062V251.471H119.067V249.466ZM115.057 259.492H121.073V265.508H115.057V259.492ZM119.067 261.497H117.062V263.503H119.067V261.497ZM123.078 250.468H125.083V253.476H123.078V250.468ZM124.081 255.482H123.078H122.075H120.07V257.487H122.075V258.49H124.081V255.482ZM125.083 259.492H127.088V260.495H127.089V262.501H125.083V265.508H123.078V262.501V262.5V260.495H125.083V259.492ZM133.105 261.497H131.099V263.503H129.094V265.508H133.104L133.105 265.508V261.497ZM115.057 255.482H117.062V257.487H115.057V255.482ZM129.094 255.482H127.089V257.487H129.094V259.492H131.099V257.487H129.094V255.482ZM131.099 255.482H133.105V257.487H131.099V255.482ZM127.089 247.46H133.105V253.476H127.089V247.46ZM131.099 249.466H129.094V251.471H131.099V249.466Z" fill="#232323"/>
                </g>
            </g>
            <rect x="94" y="45.9885" width="281" height="36" fill="#232323"/>
            <path opacity="0.35" d="M347.048 61.0285C347.048 60.1287 347.777 59.3992 348.677 59.3992H361.211C362.11 59.3992 362.84 60.1287 362.84 61.0285V65.5405C362.84 66.4404 362.11 67.1699 361.211 67.1699H348.677C347.777 67.1699 347.048 66.4404 347.048 65.5405V61.0285Z" stroke="#FBFBFB" stroke-width="0.752"/>
            <path opacity="0.4" d="M363.968 61.7805V64.7885C364.573 64.5338 364.966 63.9411 364.966 63.2845C364.966 62.6279 364.573 62.0353 363.968 61.7805Z" fill="#FBFBFB"/>
            <path d="M348.176 61.5298C348.176 60.976 348.625 60.5271 349.178 60.5271H360.709C361.263 60.5271 361.712 60.976 361.712 61.5298V65.0391C361.712 65.5929 361.263 66.0418 360.709 66.0418H349.178C348.625 66.0418 348.176 65.5929 348.176 65.0391V61.5298Z" fill="#FBFBFB"/>
            <path fill-rule="evenodd" clip-rule="evenodd" d="M337.144 60.7338C338.81 60.7339 340.413 61.3741 341.621 62.5223C341.712 62.6109 341.857 62.6098 341.947 62.5198L342.816 61.6425C342.861 61.5968 342.887 61.5349 342.886 61.4706C342.886 61.4062 342.86 61.3447 342.814 61.2995C339.644 58.2618 334.644 58.2618 331.474 61.2995C331.428 61.3446 331.402 61.4062 331.401 61.4705C331.401 61.5349 331.426 61.5968 331.472 61.6425L332.341 62.5198C332.431 62.61 332.576 62.6111 332.667 62.5223C333.875 61.3741 335.478 60.7338 337.144 60.7338ZM337.144 63.5882C338.06 63.5881 338.942 63.9284 339.621 64.543C339.713 64.6302 339.857 64.6283 339.947 64.5387L340.815 63.6614C340.861 63.6154 340.886 63.5529 340.886 63.4881C340.885 63.4232 340.858 63.3613 340.812 63.3162C338.745 61.3938 335.545 61.3938 333.478 63.3162C333.431 63.3613 333.405 63.4232 333.404 63.4881C333.403 63.553 333.429 63.6154 333.475 63.6614L334.343 64.5387C334.432 64.6283 334.577 64.6302 334.669 64.543C335.347 63.9288 336.229 63.5886 337.144 63.5882ZM338.883 65.5086C338.885 65.5737 338.859 65.6364 338.813 65.682L337.311 67.1978C337.267 67.2423 337.207 67.2674 337.144 67.2674C337.081 67.2674 337.021 67.2423 336.977 67.1978L335.475 65.682C335.429 65.6364 335.403 65.5736 335.404 65.5086C335.406 65.4435 335.434 65.3819 335.482 65.3383C336.441 64.527 337.846 64.527 338.806 65.3383C338.854 65.382 338.882 65.4436 338.883 65.5086Z" fill="#FBFBFB"/>
            <path fill-rule="evenodd" clip-rule="evenodd" d="M326.869 59.2739H326.117C325.702 59.2739 325.365 59.6106 325.365 60.0259V66.5433C325.365 66.9586 325.702 67.2953 326.117 67.2953H326.869C327.284 67.2953 327.621 66.9586 327.621 66.5433V60.0259C327.621 59.6106 327.284 59.2739 326.869 59.2739ZM322.608 61.0287H323.36C323.775 61.0287 324.112 61.3654 324.112 61.7807V66.5433C324.112 66.9587 323.775 67.2953 323.36 67.2953H322.608C322.192 67.2953 321.856 66.9587 321.856 66.5433V61.7807C321.856 61.3654 322.192 61.0287 322.608 61.0287ZM319.85 62.7832H319.098C318.683 62.7832 318.346 63.1199 318.346 63.5352V66.5432C318.346 66.9585 318.683 67.2952 319.098 67.2952H319.85C320.266 67.2952 320.602 66.9585 320.602 66.5432V63.5352C320.602 63.1199 320.266 62.7832 319.85 62.7832ZM316.341 64.2872H315.589C315.174 64.2872 314.837 64.6239 314.837 65.0392V66.5432C314.837 66.9585 315.174 67.2952 315.589 67.2952H316.341C316.756 67.2952 317.093 66.9585 317.093 66.5432V65.0392C317.093 64.6239 316.756 64.2872 316.341 64.2872Z" fill="#FBFBFB"/>
            <path d="M122.038 67.7091C124.059 67.7091 125.26 66.1284 125.26 63.4516C125.26 62.4437 125.067 61.5955 124.698 60.94C124.164 59.9211 123.244 59.3703 122.082 59.3703C120.352 59.3703 119.129 60.5325 119.129 62.1628C119.129 63.6939 120.231 64.8065 121.746 64.8065C122.677 64.8065 123.431 64.3714 123.806 63.6168H123.822C123.822 63.6168 123.844 63.6168 123.85 63.6168C123.861 63.6168 123.899 63.6168 123.899 63.6168C123.899 65.4344 123.211 66.5194 122.049 66.5194C121.366 66.5194 120.837 66.1449 120.655 65.5446H119.24C119.476 66.8499 120.584 67.7091 122.038 67.7091ZM122.087 63.6774C121.173 63.6774 120.523 63.0275 120.523 62.1187C120.523 61.2319 121.206 60.5545 122.093 60.5545C122.979 60.5545 123.662 61.243 123.662 62.1407C123.662 63.0275 122.996 63.6774 122.087 63.6774ZM127.529 66.6737C128.052 66.6737 128.41 66.2991 128.41 65.8034C128.41 65.3022 128.052 64.9332 127.529 64.9332C127.011 64.9332 126.648 65.3022 126.648 65.8034C126.648 66.2991 127.011 66.6737 127.529 66.6737ZM127.529 62.5428C128.052 62.5428 128.41 62.1738 128.41 61.6781C128.41 61.1769 128.052 60.8078 127.529 60.8078C127.011 60.8078 126.648 61.1769 126.648 61.6781C126.648 62.1738 127.011 62.5428 127.529 62.5428ZM133.676 67.5164H135.036V66.0348H136.111V64.8341H135.036V59.5686H133.032C131.627 61.6836 130.509 63.4516 129.793 64.768V66.0348H133.676V67.5164ZM131.109 64.7845C132.035 63.1542 132.861 61.8488 133.621 60.7252H133.698V64.8671H131.109V64.7845ZM139.14 67.5164H140.561V59.5686H139.146L137.069 61.0226V62.3886L139.046 61.0006H139.14V67.5164Z" fill="#FBFBFB"/>
            <path d="M375.515 76.2016C375.515 59.6396 362.1 46.2251 345.538 46.2251H318.934C315.623 46.2251 312.939 48.9093 312.939 52.2204V52.9698C312.939 62.1127 305.595 69.4569 296.452 69.4569H173.548C164.405 69.4569 157.061 62.1127 157.061 52.9698V52.2204C157.061 48.9093 154.376 46.2251 151.065 46.2251H124.461C107.899 46.2251 94.4846 59.6396 94.4846 76.2016V620.277H80.9951V76.2016C80.9951 52.2204 100.48 32.7356 124.461 32.7356H345.538C369.52 32.7356 389.004 52.2204 389.004 76.2016V620.277H375.515V76.2016Z" fill="#1F1F1F"/>
            <path d="M273.969 52.9698C273.969 55.867 271.621 58.2157 268.723 58.2157C265.826 58.2157 263.477 55.867 263.477 52.9698C263.477 50.0726 265.826 47.7239 268.723 47.7239C271.621 47.7239 273.969 50.0726 273.969 52.9698Z" fill="#ABABAB"/>
            <path d="M218.138 50.7215C216.896 50.7215 215.89 51.7281 215.89 52.9698C215.89 54.2115 216.896 55.218 218.138 55.218H251.112C252.354 55.218 253.36 54.2115 253.36 52.9698C253.36 51.7281 252.354 50.7215 251.112 50.7215H218.138Z" fill="#ABABAB"/>
        </g>
        <path d="M464 31C464 31 433 31.2844 433 62C433 31.1138 402 31 402 31C402 31 433 32.6495 433 0C433 32.6495 464 31 464 31Z" fill="#232323"/>
        <path d="M28 334C28 334 14 334.128 14 348C14 334.051 0 334 0 334C0 334 14 334.745 14 320C14 334.745 28 334 28 334Z" fill="#232323"/>
        <rect y="459" width="464" height="1" fill="#232323"/>
    </g>
    <defs>
        <clipPath id="clip0">
            <rect width="464" height="460" fill="white"/>
        </clipPath>
        <clipPath id="clip1">
            <rect width="320" height="591.288" fill="white" transform="translate(75 28.9885)"/>
        </clipPath>
        <clipPath id="clip2">
            <rect width="282" height="610.624" fill="white" transform="translate(94 69.9885)"/>
        </clipPath>
        <clipPath id="clip3">
            <rect width="104.528" height="36.096" fill="white" transform="translate(148.145 238.437)"/>
        </clipPath>
        <clipPath id="clip4">
            <rect width="105.28" height="36.096" fill="white" transform="translate(258.688 238.437)"/>
        </clipPath>
        <clipPath id="clip5">
            <rect width="18.048" height="18.048" fill="white" transform="translate(283.505 247.46)"/>
        </clipPath>
        <clipPath id="clip6">
            <rect width="36.096" height="36.096" fill="white" transform="translate(106.032 238.437)"/>
        </clipPath>
    </defs>
</svg>
