<svg width="61" height="86" viewBox="0 0 61 86" fill="none" xmlns="http://www.w3.org/2000/svg">
<path fill-rule="evenodd" clip-rule="evenodd" d="M28.5114 0H54.7742C56.2914 0.0048985 57.7451 0.659922 58.8179 1.82201C59.8907 2.9841 60.4954 4.55883 60.4999 6.20226V79.2181C60.4909 80.8665 59.88 82.444 58.8008 83.6061C57.7216 84.7682 56.2617 85.4204 54.7399 85.4204H28.5456C27.0239 85.4204 25.564 84.7682 24.4848 83.6061C23.4056 82.444 22.7947 80.8665 22.7856 79.2181V6.20226C22.7902 4.55883 23.3949 2.9841 24.4677 1.82201C25.5405 0.659922 26.9942 0.0048985 28.5114 0ZM46.295 2.20816C46.1856 2.1329 46.058 2.09468 45.9285 2.09837C45.8438 2.09834 45.7598 2.1167 45.6817 2.15239C45.6037 2.18807 45.533 2.24035 45.4738 2.30613C45.4147 2.37191 45.3683 2.44986 45.3375 2.53538C45.3066 2.62089 45.2919 2.71224 45.2942 2.80402C45.2943 2.94436 45.3329 3.0815 45.4053 3.19792C45.4777 3.31433 45.5804 3.40472 45.7005 3.45754C45.8205 3.51036 45.9524 3.5232 46.0792 3.49444C46.206 3.46567 46.322 3.3966 46.4124 3.29604C46.5028 3.19549 46.5634 3.06803 46.5866 2.92995C46.6097 2.79186 46.5944 2.64943 46.5424 2.52086C46.4905 2.39229 46.4043 2.28342 46.295 2.20816ZM38.7482 2.45399C38.6807 2.52713 38.6428 2.62631 38.6428 2.72974V2.85973C38.6428 2.91094 38.6521 2.96165 38.6702 3.00896C38.6883 3.05627 38.7148 3.09926 38.7482 3.13547C38.7817 3.17168 38.8213 3.20041 38.865 3.22001C38.9087 3.2396 38.9555 3.24969 39.0028 3.24969H44.2657C44.3129 3.24969 44.3597 3.2396 44.4034 3.22001C44.4471 3.20041 44.4868 3.17168 44.5202 3.13547C44.5536 3.09926 44.5802 3.05627 44.5982 3.00896C44.6163 2.96165 44.6256 2.91094 44.6256 2.85973V2.72974C44.6256 2.67853 44.6163 2.62782 44.5982 2.58051C44.5802 2.53319 44.5536 2.49021 44.5202 2.45399C44.4868 2.41778 44.4471 2.38906 44.4034 2.36946C44.3597 2.34986 44.3129 2.33978 44.2657 2.33978H39.0028C38.9073 2.33978 38.8157 2.38086 38.7482 2.45399ZM57.7814 82.4757C58.4244 81.7792 58.7857 80.8345 58.7857 79.8495V5.5709C58.7857 4.5859 58.4244 3.64125 57.7814 2.94475C57.1385 2.24825 56.2664 1.85697 55.3571 1.85697H52.7685C52.4942 1.8941 51.9285 2.0798 51.9285 2.59975V3.84392C51.9143 4.10019 51.8512 4.35049 51.7432 4.57901C51.6352 4.80753 51.4846 5.0093 51.3009 5.17159C51.1173 5.33388 50.9046 5.45315 50.6762 5.52188C50.4479 5.59061 50.2088 5.6073 49.9742 5.5709H33.3285C33.0913 5.61297 32.8486 5.60055 32.6162 5.53445C32.3837 5.46834 32.1667 5.35002 31.9791 5.18717C31.7916 5.02432 31.6378 4.82058 31.5277 4.58916C31.4176 4.35775 31.3536 4.10384 31.3399 3.84392V2.63689C31.2885 2.11694 30.7742 1.85697 30.4999 1.85697H27.9285C27.0192 1.85697 26.1471 2.24825 25.5041 2.94475C24.8612 3.64125 24.4999 4.5859 24.4999 5.5709V79.8495C24.4999 80.8345 24.8612 81.7792 25.5041 82.4757C26.1471 83.1722 27.0192 83.5634 27.9285 83.5634H55.3571C56.2664 83.5634 57.1385 83.1722 57.7814 82.4757ZM5.3 83.5634H21.8257C22.2534 84.2665 22.7797 84.8931 23.3857 85.4204H5.64286C4.27889 85.4204 2.97078 84.8335 2.00631 83.7887C1.04184 82.744 0.5 81.327 0.5 79.8495V14.8557C0.5 13.3782 1.04184 11.9612 2.00631 10.9165C2.97078 9.87172 4.27889 9.28479 5.64286 9.28479H21.0714V14.8557H10.7857C10.3698 14.897 9.95574 14.758 9.63437 14.469C9.31299 14.1801 9.11054 13.7648 9.07143 13.3144V11.8103C9.02 11.346 8.57428 11.1418 8.31714 11.1418H5.3C4.48301 11.1466 3.70075 11.5004 3.12304 12.1262C2.54533 12.7519 2.21879 13.5993 2.21429 14.4843V80.2209C2.21879 81.1059 2.54533 81.9533 3.12304 82.579C3.70075 83.2048 4.48301 83.5586 5.3 83.5634ZM18.9286 11.606H14.6429C14.5292 11.606 14.4202 11.6549 14.3398 11.742C14.2594 11.829 14.2143 11.9471 14.2143 12.0702C14.2143 12.1934 14.2594 12.3114 14.3398 12.3985C14.4202 12.4856 14.5292 12.5345 14.6429 12.5345H18.9286C19.0422 12.5345 19.1512 12.4856 19.2316 12.3985C19.312 12.3114 19.3571 12.1934 19.3571 12.0702C19.3571 11.9471 19.312 11.829 19.2316 11.742C19.1512 11.6549 19.0422 11.606 18.9286 11.606Z"/>
</svg>
