<svg width="320" height="643" viewBox="0 0 320 643" fill="none" xmlns="http://www.w3.org/2000/svg" xmlns:xlink="http://www.w3.org/1999/xlink">
<path fill-rule="evenodd" clip-rule="evenodd" d="M270.539 0H49.4614C23.3863 0 2.24824 21.138 2.24824 47.2131V86.1827C1.00657 86.1827 0 87.1893 0 88.4309V107.916C0 109.157 1.00657 110.164 2.24824 110.164V132.646C1.00657 132.646 0 133.653 0 134.895V176.862C0 178.104 1.00657 179.11 2.24824 179.11V191.101C1.00657 191.101 0 192.107 0 193.349V235.316C0 236.558 1.00657 237.564 2.24824 237.564V595.785C2.24824 621.86 23.3863 642.998 49.4614 642.998H270.539C296.614 642.998 317.752 621.86 317.752 595.785V222.576C318.993 222.576 320 221.57 320 220.328V149.883C320 148.641 318.993 147.635 317.752 147.635V47.2131C317.752 21.138 296.614 0 270.539 0ZM5.99532 47.2131C5.99532 23.2075 25.4557 3.74707 49.4614 3.74707H270.539C294.544 3.74707 314.005 23.2075 314.005 47.2131V595.785C314.005 619.79 294.544 639.251 270.539 639.251H49.4614C25.4557 639.251 5.99532 619.79 5.99532 595.785V47.2131Z" fill="#ABABAB"/>
<mask id="mask0" mask-type="alpha" maskUnits="userSpaceOnUse" x="19" y="17" width="282" height="609">
<path d="M270.539 625.761H49.4613C32.8993 625.761 19.4847 612.347 19.4847 595.785V47.2131C19.4847 30.651 32.8993 17.2365 49.4613 17.2365H270.539C287.101 17.2365 300.515 30.651 300.515 47.2131V595.785C300.515 612.347 287.101 625.761 270.539 625.761Z" fill="white"/>
</mask>
<path fill-rule="evenodd" clip-rule="evenodd" d="M300.515 47.2131C300.515 30.6511 287.101 17.2365 270.539 17.2365H243.934C240.623 17.2365 237.939 19.9207 237.939 23.2318V23.9813C237.939 33.1241 230.595 40.4684 221.452 40.4684H98.5481C89.4052 40.4684 82.0609 33.1241 82.0609 23.9813V23.2318C82.0609 19.9207 79.3767 17.2365 76.0656 17.2365H49.4614C32.8993 17.2365 19.4848 30.6511 19.4848 47.2131V595.785C19.4848 612.347 32.8993 625.761 49.4614 625.761H270.539C287.101 625.761 300.515 612.347 300.515 595.785V47.2131ZM49.4614 3.74707H270.539C294.52 3.74707 314.005 23.2318 314.005 47.2131V595.785C314.005 619.766 294.52 639.251 270.539 639.251H49.4614C25.4801 639.251 5.99536 619.766 5.99536 595.785V47.2131C5.99536 23.2318 25.4801 3.74707 49.4614 3.74707Z" fill="#1F1F1F"/>
<path opacity="0.6" fill-rule="evenodd" clip-rule="evenodd" d="M110.164 616.019C110.164 614.984 111.003 614.145 112.037 614.145H208.712C209.747 614.145 210.585 614.984 210.585 616.019C210.585 617.054 209.747 617.892 208.712 617.892H112.037C111.003 617.892 110.164 617.054 110.164 616.019Z" fill="#333333"/>
<path d="M198.97 23.9813C198.97 26.8785 196.621 29.2272 193.724 29.2272C190.827 29.2272 188.478 26.8785 188.478 23.9813C188.478 21.084 190.827 18.7354 193.724 18.7354C196.621 18.7354 198.97 21.084 198.97 23.9813Z" fill="#ABABAB"/>
<path d="M143.138 21.733C141.897 21.733 140.89 22.7396 140.89 23.9813C140.89 25.2229 141.897 26.2295 143.138 26.2295H176.113C177.354 26.2295 178.361 25.2229 178.361 23.9813C178.361 22.7396 177.354 21.733 176.113 21.733H143.138Z" fill="#ABABAB"/>
</svg>
