<svg width="133" height="24" viewBox="0 0 133 24" fill="none" xmlns="http://www.w3.org/2000/svg">
<path fill-rule="evenodd" clip-rule="evenodd" d="M15.2593 11.9046C15.2593 8.12032 17.0083 4.75104 19.7309 2.57056C17.7233 0.96288 15.1869 0 12.4266 0C5.92279 0 0.650391 5.32992 0.650391 11.9046C0.650391 18.4794 5.92279 23.8093 12.4266 23.8093C15.1869 23.8093 17.7233 22.8467 19.7309 21.2387C17.0083 19.0582 15.2593 15.689 15.2593 11.9046Z" fill="black"/>
<path fill-rule="evenodd" clip-rule="evenodd" d="M15.2593 11.9046C15.2593 15.689 17.0083 19.0582 19.7309 21.2387C22.4538 19.0582 24.2027 15.689 24.2027 11.9046C24.2027 8.12032 22.4538 4.75104 19.7309 2.57056C17.0083 4.75104 15.2593 8.12032 15.2593 11.9046Z" fill="#E0E0E0"/>
<path fill-rule="evenodd" clip-rule="evenodd" d="M58.1682 8.70647C57.8947 8.42935 57.5702 8.21367 57.1945 8.05975C56.8184 7.90615 56.4069 7.82935 55.9603 7.82935C55.7238 7.82935 55.4778 7.84983 55.223 7.89111C54.9682 7.93239 54.7184 8.00503 54.4741 8.10935C54.2297 8.21367 53.997 8.35799 53.7761 8.54167C53.5555 8.72567 53.3633 8.95767 53.2006 9.23767C52.9376 8.79863 52.5814 8.45399 52.1319 8.20407C51.6828 7.95415 51.1687 7.82935 50.5907 7.82935C50.396 7.82935 50.195 7.84727 49.9873 7.88279C49.7797 7.91863 49.5733 7.98039 49.3685 8.06807C49.1634 8.15607 48.9674 8.27543 48.781 8.42647C48.5942 8.57751 48.4249 8.76823 48.2723 8.99895V8.03511H46.6323V15.9253H48.2881V11.5522C48.2881 11.2172 48.3407 10.9193 48.4458 10.6585C48.5509 10.3977 48.6914 10.1794 48.8677 10.0037C49.0437 9.82807 49.2501 9.69495 49.4866 9.60407C49.7233 9.51351 49.9756 9.46839 50.2437 9.46839C50.8009 9.46839 51.2333 9.64695 51.5406 10.0037C51.8483 10.3605 52.0018 10.8713 52.0018 11.5356V15.9253H53.658V11.5522C53.658 11.2172 53.7102 10.9193 53.8157 10.6585C53.9208 10.3977 54.0613 10.1794 54.2373 10.0037C54.4136 9.82807 54.62 9.69495 54.8565 9.60407C55.0929 9.51351 55.3452 9.46839 55.6133 9.46839C56.1704 9.46839 56.6029 9.64695 56.9105 10.0037C57.2179 10.3605 57.3717 10.8713 57.3717 11.5356V15.9253H59.0276V10.9673C59.0276 10.5061 58.9529 10.0834 58.8029 9.69879C58.6531 9.31479 58.4414 8.98391 58.1682 8.70647Z" fill="black"/>
<path fill-rule="evenodd" clip-rule="evenodd" d="M66.8353 12.9852C66.7213 13.2927 66.5608 13.5589 66.3544 13.7842C66.148 14.0092 65.9011 14.1865 65.6131 14.3154C65.3253 14.4444 65.0047 14.5087 64.6517 14.5087C64.2823 14.5087 63.9525 14.4418 63.6619 14.3071C63.3713 14.1727 63.1253 13.9913 62.9246 13.7634C62.7236 13.5356 62.5688 13.2681 62.4603 12.9605C62.3514 12.653 62.2972 12.3263 62.2972 11.9804C62.2972 11.6345 62.3514 11.3077 62.4603 11.0002C62.5688 10.6927 62.7236 10.4252 62.9246 10.1973C63.1253 9.96951 63.3713 9.78839 63.6619 9.65367C63.9525 9.51927 64.2823 9.45175 64.6517 9.45175C65.0047 9.45175 65.3253 9.51639 65.6131 9.64535C65.9011 9.77463 66.148 9.95159 66.3544 10.1765C66.5608 10.4018 66.7213 10.6681 66.8353 10.9756C66.9492 11.2831 67.0062 11.6181 67.0062 11.9804C67.0062 12.3426 66.9492 12.6777 66.8353 12.9852ZM66.9005 8.99063C66.6289 8.63927 66.2921 8.35799 65.89 8.14647C65.488 7.93527 65.0075 7.82935 64.4482 7.82935C63.8993 7.82935 63.389 7.93239 62.9164 8.13815C62.4438 8.34423 62.031 8.63095 61.6781 8.99895C61.3248 9.36695 61.0478 9.80471 60.8468 10.3125C60.6461 10.8204 60.5455 11.3765 60.5455 11.9804C60.5455 12.5845 60.6461 13.1404 60.8468 13.6482C61.0478 14.1561 61.3248 14.5941 61.6781 14.9618C62.031 15.3298 62.4438 15.6165 62.9164 15.8226C63.389 16.0284 63.8993 16.1314 64.4482 16.1314C65.0075 16.1314 65.488 16.0271 65.89 15.8185C66.2921 15.6098 66.6289 15.3298 66.9005 14.9785V15.9253H68.6032V8.03511H66.9005V8.99063Z" fill="black"/>
<path fill-rule="evenodd" clip-rule="evenodd" d="M76.4304 11.968C75.9525 11.592 75.2871 11.3408 74.4343 11.2144L73.6277 11.0908C73.4486 11.0633 73.2802 11.032 73.1225 10.9961C72.9652 10.9606 72.8294 10.9123 72.7151 10.8521C72.6012 10.7916 72.5103 10.7148 72.4423 10.6214C72.3742 10.528 72.3403 10.4128 72.3403 10.2755C72.3403 9.99548 72.4695 9.76892 72.7275 9.5958C72.9855 9.423 73.3479 9.3366 73.8151 9.3366C74.0595 9.3366 74.2998 9.35836 74.5362 9.40252C74.7724 9.44636 74.9965 9.50108 75.2083 9.567C75.42 9.63292 75.6128 9.70588 75.7869 9.78556C75.9604 9.86492 76.1072 9.94076 76.2266 10.0118L76.96 8.6694C76.5526 8.40572 76.0775 8.20124 75.534 8.05596C74.9911 7.91036 74.4125 7.8374 73.7987 7.8374C73.2988 7.8374 72.8509 7.8966 72.4546 8.01468C72.058 8.13276 71.7199 8.30012 71.4401 8.51708C71.1603 8.73404 70.9456 8.999 70.7965 9.31164C70.6471 9.62492 70.5724 9.97628 70.5724 10.366C70.5724 11.0032 70.7965 11.5177 71.2445 11.9104C71.6927 12.303 72.3514 12.5596 73.2203 12.6806L74.0351 12.7875C74.5024 12.8534 74.8445 12.9593 75.0617 13.1046C75.2788 13.2502 75.3877 13.4355 75.3877 13.6604C75.3877 13.9571 75.238 14.1916 74.9395 14.3648C74.6407 14.5376 74.1982 14.6243 73.6116 14.6243C73.2909 14.6243 73.0045 14.6022 72.7519 14.5584C72.4992 14.5142 72.2685 14.4553 72.0592 14.3811C71.8503 14.3072 71.6629 14.222 71.4974 14.1257C71.3315 14.0297 71.1783 13.927 71.0368 13.8169L70.2467 15.11C70.5291 15.3241 70.825 15.4972 71.1346 15.6291C71.4442 15.7606 71.7484 15.8636 72.0472 15.9379C72.3457 16.0121 72.6284 16.0614 72.8946 16.086C73.1605 16.1107 73.3941 16.1232 73.5951 16.1232C74.1545 16.1232 74.6556 16.0601 75.0984 15.9337C75.5409 15.8073 75.9129 15.6304 76.2146 15.4025C76.5159 15.1747 76.7467 14.903 76.9068 14.5872C77.0673 14.2713 77.1474 13.9241 77.1474 13.5452C77.1474 12.87 76.9084 12.344 76.4304 11.968Z" fill="black"/>
<path fill-rule="evenodd" clip-rule="evenodd" d="M87.6115 11.3049C87.6548 11.0194 87.7308 10.757 87.8397 10.5183C87.9483 10.2796 88.0882 10.0735 88.2591 9.90071C88.4304 9.72759 88.6339 9.59447 88.87 9.50103C89.1065 9.40791 89.3765 9.36119 89.681 9.36119C90.2239 9.36119 90.6668 9.53143 91.0089 9.87191C91.3511 10.2124 91.5683 10.6898 91.6607 11.3049H87.6115ZM92.3736 8.97815C92.0504 8.61303 91.662 8.33047 91.2084 8.12983C90.7551 7.92951 90.2565 7.82935 89.7136 7.82935C89.1378 7.82935 88.6124 7.92951 88.1372 8.12983C87.6618 8.33047 87.2531 8.61303 86.9109 8.97815C86.5687 9.34327 86.3025 9.78103 86.1123 10.2917C85.9224 10.8025 85.8274 11.3653 85.8274 11.9801C85.8274 12.6063 85.9249 13.1746 86.1205 13.6853C86.3161 14.1957 86.5903 14.6322 86.9435 14.9945C87.2965 15.357 87.7175 15.6373 88.2062 15.8348C88.6953 16.0325 89.2328 16.1314 89.8194 16.1314C90.4113 16.1314 90.9751 16.0489 91.51 15.8841C92.045 15.7196 92.5515 15.4313 93.0295 15.0194L92.1821 13.7922C91.8563 14.0559 91.4964 14.2604 91.1026 14.4057C90.7089 14.5513 90.3163 14.6239 89.9254 14.6239C89.6481 14.6239 89.3822 14.5858 89.1271 14.5087C88.8716 14.4319 88.6409 14.3125 88.4345 14.1506C88.2281 13.9887 88.0515 13.781 87.9049 13.5285C87.7583 13.2761 87.6577 12.9714 87.6032 12.6143H93.3717C93.3824 12.5157 93.3906 12.4114 93.396 12.3017C93.4014 12.1916 93.4043 12.0818 93.4043 11.9721C93.4043 11.357 93.3134 10.7957 93.1311 10.2876C92.9494 9.78007 92.6968 9.34327 92.3736 8.97815Z" fill="black"/>
<path fill-rule="evenodd" clip-rule="evenodd" d="M114.931 12.9852C114.817 13.2927 114.657 13.5589 114.451 13.7842C114.244 14.0092 113.997 14.1865 113.709 14.3154C113.421 14.4444 113.101 14.5087 112.748 14.5087C112.378 14.5087 112.049 14.4418 111.758 14.3071C111.467 14.1727 111.221 13.9913 111.02 13.7634C110.82 13.5356 110.665 13.2681 110.556 12.9605C110.448 12.653 110.393 12.3263 110.393 11.9804C110.393 11.6345 110.448 11.3077 110.556 11.0002C110.665 10.6927 110.82 10.4252 111.02 10.1973C111.221 9.96951 111.467 9.78839 111.758 9.65367C112.049 9.51927 112.378 9.45175 112.748 9.45175C113.101 9.45175 113.421 9.51639 113.709 9.64535C113.997 9.77463 114.244 9.95159 114.451 10.1765C114.657 10.4018 114.817 10.6681 114.931 10.9756C115.045 11.2831 115.102 11.6181 115.102 11.9804C115.102 12.3426 115.045 12.6777 114.931 12.9852ZM114.996 8.99063C114.725 8.63927 114.388 8.35799 113.986 8.14647C113.584 7.93527 113.104 7.82935 112.544 7.82935C111.995 7.82935 111.485 7.93239 111.013 8.13815C110.54 8.34423 110.127 8.63095 109.774 8.99895C109.421 9.36695 109.144 9.80471 108.943 10.3125C108.742 10.8204 108.642 11.3765 108.642 11.9804C108.642 12.5845 108.742 13.1404 108.943 13.6482C109.144 14.1561 109.421 14.5941 109.774 14.9618C110.127 15.3298 110.54 15.6165 111.013 15.8226C111.485 16.0284 111.995 16.1314 112.544 16.1314C113.104 16.1314 113.584 16.0271 113.986 15.8185C114.388 15.6098 114.725 15.3298 114.996 14.9785V15.9253H116.699V8.03511H114.996V8.99063Z" fill="black"/>
<path fill-rule="evenodd" clip-rule="evenodd" d="M83.7319 14.3523C83.4574 14.4566 83.1874 14.5088 82.9212 14.5088C82.7471 14.5088 82.5856 14.4813 82.4362 14.4262C82.2868 14.3718 82.1564 14.2851 82.0453 14.167C81.9339 14.049 81.8456 13.8966 81.7803 13.7101C81.7155 13.5232 81.6825 13.2982 81.6825 13.0346V9.60001H84.4175V8.03521H81.6825V5.64673H79.9719V8.03521H78.4158V9.60001H79.9719V13.0675C79.9719 14.1162 80.2176 14.8893 80.7092 15.3859C81.2007 15.8829 81.8889 16.1315 82.7746 16.1315C83.2687 16.1315 83.7126 16.0544 84.1067 15.9008C84.3669 15.799 84.6084 15.6829 84.8344 15.5549L84.2519 14.1136C84.0873 14.2026 83.9145 14.2829 83.7319 14.3523Z" fill="black"/>
<path fill-rule="evenodd" clip-rule="evenodd" d="M99.1053 7.82935C98.6273 7.82935 98.1955 7.91735 97.8097 8.09303C97.4241 8.26871 97.1012 8.69175 96.8404 9.07063V8.03543H95.2944V15.9257H96.8565V11.5852C96.8565 11.2501 96.9027 10.9509 96.9952 10.6873C97.0873 10.4236 97.2152 10.2015 97.3782 10.0201C97.5409 9.83895 97.7365 9.70167 97.9648 9.60855C98.1927 9.51511 98.4424 9.46839 98.714 9.46839C98.9207 9.46839 99.1433 9.49303 99.3823 9.54231C99.5041 9.56759 99.6181 9.59863 99.7244 9.63543L100.228 7.98839C100.091 7.94487 99.953 7.90743 99.8102 7.88279C99.6007 7.84727 99.3658 7.82935 99.1053 7.82935Z" fill="black"/>
<path fill-rule="evenodd" clip-rule="evenodd" d="M122.776 7.82935C122.298 7.82935 121.866 7.91735 121.48 8.09303C121.095 8.26871 120.772 8.69175 120.511 9.07063V8.03543H118.965V15.9257H120.527V11.5852C120.527 11.2501 120.573 10.9509 120.666 10.6873C120.758 10.4236 120.886 10.2015 121.049 10.0201C121.211 9.83895 121.407 9.70167 121.635 9.60855C121.863 9.51511 122.113 9.46839 122.384 9.46839C122.591 9.46839 122.814 9.49303 123.053 9.54231C123.175 9.56759 123.288 9.59863 123.395 9.63543L123.898 7.98839C123.762 7.94487 123.623 7.90743 123.481 7.88279C123.271 7.84727 123.036 7.82935 122.776 7.82935Z" fill="black"/>
<path fill-rule="evenodd" clip-rule="evenodd" d="M130.664 12.9852C130.55 13.2928 130.39 13.559 130.183 13.7843C129.977 14.0092 129.73 14.1865 129.442 14.3155C129.154 14.4444 128.833 14.5088 128.481 14.5088C128.111 14.5088 127.781 14.4419 127.491 14.3072C127.2 14.1728 126.954 13.9913 126.753 13.7635C126.552 13.5356 126.398 13.2681 126.289 12.9606C126.18 12.6531 126.126 12.3264 126.126 11.9804C126.126 11.6345 126.18 11.3078 126.289 11.0003C126.398 10.6928 126.552 10.4252 126.753 10.1974C126.954 9.96957 127.2 9.78844 127.491 9.65373C127.781 9.51933 128.111 9.4518 128.481 9.4518C128.833 9.4518 129.154 9.51645 129.442 9.64541C129.73 9.77469 129.977 9.95164 130.183 10.1766C130.39 10.4019 130.55 10.6681 130.664 10.9756C130.778 11.2832 130.835 11.6182 130.835 11.9804C130.835 12.3427 130.778 12.6777 130.664 12.9852ZM130.729 4.82812V8.99068C130.458 8.63932 130.121 8.35804 129.719 8.14652C129.317 7.93532 128.836 7.8294 128.277 7.8294C127.728 7.8294 127.218 7.93245 126.745 8.13821C126.273 8.34429 125.86 8.631 125.507 8.999C125.154 9.367 124.877 9.80477 124.676 10.3126C124.475 10.8204 124.374 11.3766 124.374 11.9804C124.374 12.5846 124.475 13.1404 124.676 13.6483C124.877 14.1561 125.154 14.5942 125.507 14.9619C125.86 15.3299 126.273 15.6166 126.745 15.8227C127.218 16.0284 127.728 16.1315 128.277 16.1315C128.836 16.1315 129.317 16.0272 129.719 15.8185C130.121 15.6099 130.458 15.3299 130.729 14.9785V15.9254H132.432V4.82812H130.729Z" fill="black"/>
<path fill-rule="evenodd" clip-rule="evenodd" d="M103.18 10.1561C103.397 9.93367 103.655 9.76055 103.954 9.63703C104.253 9.51351 104.576 9.45175 104.924 9.45175C105.306 9.45175 105.662 9.51351 105.99 9.63703C106.308 9.75639 106.583 9.92311 106.817 10.1349L107.636 8.75671C107.329 8.50839 106.983 8.30519 106.598 8.14647C106.085 7.93527 105.526 7.82935 104.924 7.82935C104.321 7.82935 103.763 7.93527 103.249 8.14647C102.736 8.35799 102.294 8.64887 101.921 9.01943C101.549 9.38999 101.258 9.82807 101.046 10.333C100.834 10.8383 100.728 11.3874 100.728 11.9804C100.728 12.5733 100.834 13.1225 101.046 13.6277C101.258 14.1327 101.549 14.5708 101.921 14.941C102.294 15.3119 102.736 15.6028 103.249 15.8143C103.763 16.0255 104.321 16.1314 104.924 16.1314C105.526 16.1314 106.085 16.0255 106.598 15.8143C106.983 15.6556 107.329 15.4524 107.636 15.2041L106.817 13.8258C106.583 14.0373 106.308 14.2041 105.99 14.3234C105.662 14.4469 105.306 14.5087 104.924 14.5087C104.576 14.5087 104.253 14.4469 103.954 14.3234C103.655 14.2002 103.397 14.0271 103.18 13.8047C102.963 13.5823 102.792 13.3161 102.667 13.0057C102.542 12.6956 102.479 12.3538 102.479 11.9804C102.479 11.6069 102.542 11.2652 102.667 10.9551C102.792 10.6447 102.963 10.3785 103.18 10.1561Z" fill="black"/>
<path fill-rule="evenodd" clip-rule="evenodd" d="M27.0355 0C24.2752 0 21.7387 0.96256 19.7311 2.57056C22.4538 4.75104 24.2027 8.12032 24.2027 11.9046C24.2027 15.689 22.4538 19.0582 19.7311 21.2387C21.7387 22.8464 24.2752 23.809 27.0355 23.809C33.5393 23.809 38.8117 18.4794 38.8117 11.9046C38.8117 5.32992 33.5393 0 27.0355 0Z" fill="#F1F1F1"/>
</svg>
