<svg width="41" height="60" viewBox="0 0 41 60" fill="none" xmlns="http://www.w3.org/2000/svg">
<path fill-rule="evenodd" clip-rule="evenodd" d="M26.5123 44.7478H14.682V34.7093H26.645C30.8272 34.7093 32.6125 36.6844 32.6125 39.9769C32.6125 42.8895 30.4532 44.7478 26.5123 44.7478ZM24.8962 15.2078C30.5385 15.2078 31.3682 18.5084 31.3682 20.5234C31.3682 22.5384 29.4767 25.6318 24.9429 25.6318H14.682V15.2078H24.8962ZM28.9143 29.4051C35.4531 27.978 38.294 22.8906 38.294 18.7481C38.294 11.6754 31.8228 6.24591 23.5716 6.24591V0H17.7832V6.24591H14.6819V0H8.89349V6.24591H0.432129V15.2078H8.89349V44.7478H0.50352V53.8254H8.89349V59.9602H14.6819V53.8254H17.8307V60H23.6191V53.8254C35.259 53.8254 40.1322 47.8381 40.1322 40.3708C40.1322 34.3259 34.8598 29.966 28.9143 29.4051Z" fill="#FBFBFB"/>
</svg>
