<svg width="82" height="32" viewBox="0 0 82 32" fill="none" xmlns="http://www.w3.org/2000/svg">
<path fill-rule="evenodd" clip-rule="evenodd" d="M46.7464 20.1744L44.0963 21.0381C44.6164 20.0637 45.2504 19.0155 45.8915 18.1961L46.7464 20.1744ZM37.9983 0L43.1916 11.9806C42.605 12.8202 40.8411 15.3461 39.1806 17.8258V9.87683H34.4646V20.537C33.8106 20.0784 33.1237 19.7573 32.4629 19.6441V19.1188C32.4629 19.0819 32.4344 19.0598 32.4059 19.0819C32.4059 19.0819 31.9001 19.5027 29.6632 19.7315C29.0292 19.8053 28.73 19.7684 28.502 19.7315C25.3319 19.1779 25.1823 16.7714 25.1823 16.7714C25.1752 16.7345 25.1752 16.6681 25.1752 16.6238V15.701C25.1752 15.6494 25.1752 15.6051 25.1823 15.5534C25.1823 15.5534 25.3961 12.9772 28.502 12.704H29.6632C30.5323 12.8369 31.3729 13.1469 32.1352 13.5972C32.1708 13.6194 32.1993 13.6046 32.1993 13.5603V10.3345C32.1993 10.2902 32.1708 10.2459 32.1352 10.2238C32.1352 10.2238 31.5154 9.80301 29.6276 9.69228C29.5279 9.63323 27.8823 9.62584 27.4263 9.69228C20.5732 10.2607 20.3168 15.3984 20.3168 15.6346V16.8821C20.3168 17.0371 20.3168 22.2856 27.4263 22.758C27.9853 22.7998 28.9826 22.774 29.4224 22.7626H29.4224H29.4225H29.4225H29.4225C29.5263 22.7599 29.599 22.758 29.6276 22.758C29.6413 22.758 29.655 22.758 29.6687 22.7579C29.8213 23.6144 30.2304 24.5317 30.7962 25.3785L10.529 32L0 2.23668L37.9983 0ZM36.8226 8.65884C38.4112 8.65884 39.7006 7.39655 39.7006 5.84638C39.7006 4.29621 38.4112 3.02654 36.8226 3.02654C35.234 3.02654 33.9446 4.28882 33.9446 5.84638C33.9446 7.40393 35.2269 8.65884 36.8226 8.65884ZM7.32299 22.6547C7.28025 22.6547 7.25175 22.6251 7.25175 22.5809V9.95063C7.25175 9.90634 7.28025 9.87682 7.32299 9.87682H13.2714C14.7887 9.803 19.3836 10.2459 19.3836 14.269C19.3836 19.3624 12.0532 18.8161 12.0532 18.8161H12.0461C12.0104 18.8161 11.982 18.8457 11.982 18.8826V22.5809C11.982 22.6251 11.9535 22.6547 11.9107 22.6547H7.32299ZM11.9036 12.645V15.9815H13.1574C13.1574 15.9815 14.575 15.9151 14.7887 14.5569C14.8101 14.5273 14.8172 13.9589 14.7887 13.8704C14.6605 12.7188 13.0292 12.645 13.0292 12.645H11.9036Z" fill="#232323"/>
<path d="M36.9515 28.7889C37.3362 28.7889 37.6283 28.7889 38.1127 28.5675C39.7868 27.6521 45.4217 13.4053 51.3629 9.02051C51.4057 8.99098 51.4413 8.95408 51.4769 8.90978C51.4983 8.87288 51.5125 8.83597 51.5197 8.79168C51.5197 8.79168 51.5197 8.49641 50.6363 8.49641C45.3505 8.34877 39.8438 19.8348 36.9586 24.382C36.923 24.4337 36.7235 24.382 36.7235 24.382C36.7235 24.382 34.7859 22.0124 33.1046 21.1045C32.9693 21.0528 32.8197 21.0307 32.6772 21.038C32.5419 21.038 31.7582 21.2004 31.3949 21.5991C30.9675 22.0715 30.9746 22.3372 30.9746 22.9056C30.9817 23.0237 31.0102 23.1345 31.0601 23.2378C31.4733 23.9834 33.354 26.663 34.8927 28.1393C35.1207 28.3165 35.484 28.7889 36.9515 28.7889Z" fill="#232323"/>
<path d="M55.0956 18.1739L55.8935 18.4249C55.8508 18.639 55.7653 18.8309 55.637 19.0081C55.5231 19.1631 55.3806 19.2812 55.2096 19.3624C55.003 19.451 54.7822 19.4879 54.5542 19.4805C54.2835 19.4879 54.0128 19.4362 53.7635 19.3329C53.5427 19.2221 53.3574 19.045 53.2363 18.8235C53.0867 18.5799 53.0155 18.2625 53.0155 17.886C53.0155 17.3767 53.1437 16.9855 53.4073 16.7197C53.6709 16.4466 54.0342 16.3137 54.5115 16.3137C54.8819 16.3137 55.174 16.3949 55.3877 16.5499C55.6014 16.705 55.7582 16.9486 55.865 17.2734L55.06 17.4653C55.0387 17.3915 55.0102 17.325 54.9745 17.2586C54.9247 17.1848 54.8606 17.1331 54.7893 17.0888C54.711 17.0519 54.6255 17.0298 54.54 17.0298C54.3476 17.0224 54.1695 17.1183 54.0627 17.2881C53.9772 17.4136 53.9345 17.6203 53.9345 17.8934C53.9345 18.233 53.9843 18.4692 54.0841 18.5947C54.3049 18.8309 54.6611 18.8457 54.9033 18.6316C55.0102 18.4913 55.0743 18.3363 55.0956 18.1739Z" fill="#232323"/>
<path d="M56.2284 17.8934C56.2284 17.3915 56.3637 17.0002 56.6344 16.7271C56.9051 16.454 57.2756 16.3137 57.76 16.3137C58.2515 16.3137 58.6291 16.454 58.8998 16.7271C59.1705 17.0002 59.2987 17.3841 59.2987 17.8787C59.2987 18.233 59.2417 18.5283 59.1206 18.7571C59.0066 18.9859 58.8285 19.1705 58.6148 19.2886C58.3584 19.4215 58.0805 19.4879 57.7956 19.4805C57.5106 19.4879 57.2257 19.4362 56.9692 19.3181C56.7484 19.2 56.5632 19.0228 56.435 18.794C56.2854 18.5209 56.2141 18.2108 56.2284 17.8934ZM57.1402 17.9008C57.1402 18.2108 57.1972 18.4323 57.3041 18.5652C57.5463 18.8235 57.9452 18.8383 58.1945 18.5873C58.2017 18.5799 58.2088 18.5726 58.2159 18.5726C58.3228 18.4397 58.3797 18.2035 58.3797 17.8639C58.3797 17.576 58.3228 17.3619 58.2088 17.2291C58.0948 17.0962 57.9238 17.0224 57.7529 17.0298C57.5819 17.0224 57.418 17.0962 57.3112 17.2291C57.1972 17.3619 57.1402 17.5908 57.1402 17.9008Z" fill="#232323"/>
<path d="M59.776 16.3654H60.9799L61.443 18.233L61.906 16.3654H63.1099V19.4288H62.3619V17.0888L61.7849 19.4288H61.1082L60.5311 17.0888V19.4288H59.7831V16.3654H59.776Z" fill="#232323"/>
<path d="M63.6798 16.3654H65.1972C65.532 16.3654 65.7742 16.4466 65.9381 16.609C66.1019 16.7714 66.1803 17.0002 66.1874 17.3029C66.1874 17.6129 66.0948 17.8565 65.9167 18.0263C65.7386 18.1961 65.4608 18.2847 65.0974 18.2847H64.5988V19.4215H63.6798V16.3654ZM64.5988 17.672H64.8196C64.9977 17.672 65.1188 17.6424 65.19 17.576C65.2613 17.517 65.2969 17.4284 65.2969 17.3324C65.2969 17.2438 65.2684 17.1552 65.2043 17.0888C65.1402 17.0224 65.0262 16.9855 64.8552 16.9855H64.5988V17.672Z" fill="#232323"/>
<path d="M66.6718 16.3654H67.5836V18.6759H69.0084V19.4288H66.6718V16.3654Z" fill="#232323"/>
<path d="M69.4573 16.3654H70.3762V19.4288H69.4573V16.3654Z" fill="#232323"/>
<path d="M72.8481 18.9195H71.808L71.6655 19.4288H70.7394L71.8508 16.3654H72.8481L73.9594 19.4288H73.0048L72.8481 18.9195ZM72.6629 18.2551L72.3352 17.1552L72.0146 18.2551H72.6629Z" fill="#232323"/>
<path d="M74.2516 16.3654H75.1064L76.2177 18.0632V16.3654H77.0726V19.4288H76.2106L75.0993 17.7458V19.4288H74.2373L74.2516 16.3654Z" fill="#232323"/>
<path d="M77.4786 16.3654H80.2569V17.1183H79.3237V19.4288H78.4118V17.1183H77.4786V16.3654Z" fill="#232323"/>
<path d="M52.9229 4.69482H57.3254C58.1945 4.69482 58.8926 4.82031 59.4269 5.0639C59.9469 5.29274 60.4028 5.65445 60.7519 6.11212C61.1081 6.58455 61.3645 7.12342 61.5141 7.70658C61.6709 8.33403 61.7563 8.98363 61.7492 9.63322C61.7492 10.6962 61.6352 11.5156 61.4002 12.1061C61.1864 12.6671 60.8516 13.1691 60.4313 13.5751C60.0538 13.9442 59.5978 14.2173 59.0992 14.3649C58.5221 14.5347 57.9309 14.6233 57.3325 14.6381H52.93V4.69482H52.9229ZM55.8863 6.94626V12.3719H56.613C57.2327 12.3719 57.6673 12.298 57.9309 12.1578C58.1945 12.0175 58.401 11.7666 58.5435 11.4122C58.6931 11.0579 58.7644 10.4821 58.7644 9.68489C58.7644 8.6293 58.6005 7.91327 58.2657 7.52203C57.9309 7.1308 57.3823 6.93887 56.6201 6.93887L55.8863 6.94626Z" fill="#232323"/>
<path d="M62.5542 11.3458L65.3753 11.1612C65.4394 11.6337 65.5605 11.9954 65.7457 12.2464C66.052 12.645 66.4866 12.8517 67.0565 12.8517C67.4768 12.8517 67.8045 12.7483 68.0325 12.5416C68.2604 12.3349 68.3744 12.0987 68.3744 11.8256C68.3744 11.5672 68.2675 11.3384 68.0467 11.1317C67.8259 10.925 67.3201 10.7331 66.5293 10.5559C65.2328 10.2533 64.3067 9.85466 63.751 9.3527C63.2025 8.88027 62.8962 8.17162 62.9104 7.43344C62.9104 6.91672 63.06 6.41476 63.3379 5.98662C63.6228 5.52895 64.0502 5.17462 64.6273 4.91626C65.2043 4.6579 65.9879 4.52502 66.9853 4.52502C68.2105 4.52502 69.1438 4.76124 69.7849 5.23367C70.426 5.70611 70.8107 6.45905 70.9318 7.48512L68.1393 7.6549C68.0609 7.21199 67.9042 6.88719 67.6691 6.6805C67.4341 6.47381 67.1064 6.37785 66.6861 6.37785C66.3441 6.37785 66.0805 6.45167 65.9096 6.60668C65.7457 6.73956 65.646 6.94625 65.646 7.16032C65.6531 7.3301 65.7315 7.48512 65.8597 7.58846C66.0022 7.72133 66.3299 7.83944 66.857 7.95755C68.1536 8.24544 69.0796 8.54071 69.6424 8.83598C70.2052 9.13125 70.6113 9.50034 70.8677 9.93586C71.1242 10.3788 71.2595 10.8881 71.2524 11.4048C71.2524 12.0323 71.0743 12.645 70.7395 13.1617C70.3904 13.708 69.8989 14.1287 69.3147 14.3871C68.7021 14.6676 67.9327 14.8005 67.0066 14.8005C65.3753 14.8005 64.2497 14.4757 63.6228 13.8261C62.9888 13.1691 62.6397 12.3423 62.5542 11.3458Z" fill="#232323"/>
<path d="M72.0004 11.3458L74.8214 11.1612C74.8855 11.6337 75.0066 11.9954 75.1918 12.2464C75.4981 12.645 75.9327 12.8517 76.5026 12.8517C76.9229 12.8517 77.2506 12.7483 77.4785 12.5416C77.7065 12.3349 77.8205 12.0987 77.8205 11.8256C77.8205 11.5672 77.7136 11.3384 77.4928 11.1317C77.272 10.925 76.7662 10.7331 75.9754 10.5559C74.6789 10.2533 73.7528 9.85466 73.1971 9.3527C72.6486 8.88027 72.3423 8.17162 72.3565 7.43344C72.3565 6.91672 72.5061 6.41476 72.784 5.98662C73.0689 5.52895 73.4963 5.17462 74.0734 4.91626C74.6504 4.6579 75.434 4.52502 76.4313 4.52502C77.6566 4.52502 78.5898 4.76124 79.231 5.23367C79.8721 5.70611 80.2568 6.45905 80.3779 7.48512L77.5854 7.6549C77.507 7.20461 77.3574 6.87981 77.1152 6.6805C76.8801 6.47381 76.5524 6.37785 76.1321 6.37785C75.7902 6.37785 75.5266 6.45167 75.3557 6.60668C75.1918 6.73956 75.0921 6.94625 75.0921 7.16032C75.0992 7.3301 75.1776 7.48512 75.3058 7.58846C75.4483 7.72133 75.776 7.83944 76.3031 7.95755C77.5996 8.24544 78.5257 8.54071 79.0885 8.83598C79.6513 9.13125 80.0574 9.50034 80.3138 9.93586C80.5703 10.3788 80.7056 10.8881 80.6985 11.4048C80.6985 12.0323 80.5204 12.645 80.1856 13.1691C79.8365 13.7153 79.345 14.1361 78.7608 14.3945C78.1482 14.675 77.3788 14.8078 76.4527 14.8078C74.8214 14.8078 73.6958 14.483 73.0618 13.8334C72.442 13.1765 72.0858 12.3497 72.0004 11.3458Z" fill="#232323"/>
</svg>
