<svg width="13" height="14" viewBox="0 0 13 14" fill="none" xmlns="http://www.w3.org/2000/svg">
<path fill-rule="evenodd" clip-rule="evenodd" d="M1.188 13.5193C0.972 13.5193 0.757 13.4603 0.564 13.3443C0.211 13.1303 0 12.7603 0 12.3533V1.16533C0 0.758326 0.212 0.388326 0.566 0.174326C0.933 -0.0456742 1.377 -0.0586742 1.755 0.142326L12.34 5.75633C12.725 5.96033 12.964 6.35333 12.963 6.78233C12.962 7.21133 12.723 7.60333 12.337 7.80633L1.752 13.3793C1.574 13.4723 1.38 13.5193 1.188 13.5193ZM1.189 0.716326C1.101 0.716326 1.014 0.740326 0.935 0.787326C0.869 0.827326 0.715 0.943326 0.715 1.16533V12.3533C0.715 12.5093 0.795 12.6483 0.934 12.7313C1.083 12.8213 1.264 12.8273 1.419 12.7463L12.004 7.17333C12.156 7.09333 12.247 6.94633 12.248 6.78133C12.248 6.70133 12.224 6.50433 12.005 6.38833L1.42 0.774326C1.347 0.735326 1.268 0.716326 1.189 0.716326Z"/>
<path fill-rule="evenodd" clip-rule="evenodd" d="M0.656985 0.852539L9.11419 9.20074L8.61199 9.70954L0.154785 1.36134L0.656985 0.852539Z"/>
<path fill-rule="evenodd" clip-rule="evenodd" d="M8.61099 3.81152L9.11629 4.31782L0.702993 12.7145L0.197693 12.2082L8.61099 3.81152Z"/>
</svg>
