<svg width="219" height="52" viewBox="0 0 219 52" fill="none" xmlns="http://www.w3.org/2000/svg">
<path d="M210.361 26.2646C205.623 26.2646 201.795 30.0608 201.795 34.7339C201.795 39.407 205.634 43.2031 210.361 43.2031C215.099 43.2031 218.927 39.407 218.927 34.7339C218.927 30.0608 215.087 26.2646 210.361 26.2646ZM210.361 40.8954C206.918 40.8954 204.129 38.1377 204.129 34.7339C204.129 31.33 206.918 28.5723 210.361 28.5723C213.804 28.5723 216.593 31.33 216.593 34.7339C216.581 38.1377 213.792 40.8954 210.361 40.8954Z" fill="#212121"/>
<path d="M114.079 26.2646C111.663 26.2646 109.831 28.157 109.306 29.7031V26.9339H102.199V29.2531H106.983V40.33L102.187 40.3416V42.6493L115.223 42.6377V40.33H109.306V33.3031C109.306 32.2531 110.228 28.4339 113.414 28.4339C114.383 28.4339 115.281 28.6877 115.853 29.357C115.631 29.657 115.491 30.0262 115.491 30.43C115.491 31.4339 116.32 32.2531 117.335 32.2531C118.432 32.2531 119.132 31.3762 119.132 30.3031C119.144 28.5493 117.125 26.2646 114.079 26.2646Z" fill="#212121"/>
<path d="M174.766 26.2646C172.35 26.2646 170.518 28.1454 169.993 29.6916V26.9339H162.886V29.2531H167.67V40.3069L162.874 40.3185V42.6262L175.91 42.6146V40.3069H169.993V33.28C169.993 32.23 170.915 28.4108 174.101 28.4108C175.07 28.4108 175.968 28.6646 176.54 29.3339C176.318 29.6339 176.178 30.0031 176.178 30.407C176.178 31.4108 177.007 32.23 178.022 32.23C179.119 32.23 179.819 31.3531 179.819 30.28C179.831 28.5377 177.812 26.2646 174.766 26.2646Z" fill="#212121"/>
<path d="M135.996 33.6722C137.012 33.6722 137.84 32.853 137.84 31.8491C137.84 31.7684 137.829 31.6991 137.829 31.6184C137.595 29.5299 134.269 26.2876 130.044 26.2876C125.248 26.2876 121.362 30.0838 121.362 34.7799C121.362 39.4761 125.248 43.2722 130.044 43.2722C133.359 43.2722 136.242 41.4491 137.7 38.7722L135.821 37.5145C134.678 39.5453 132.542 40.953 130.033 40.953C126.555 40.953 123.824 38.1953 123.824 34.7799C123.824 31.3645 126.555 28.6068 130.033 28.6068C131.97 28.6068 133.592 29.3338 134.678 30.5914C134.363 30.9145 134.164 31.3645 134.164 31.8491C134.152 32.8645 134.981 33.6722 135.996 33.6722Z" fill="#212121"/>
<path d="M193.637 29.2533H195.563L191.397 39.9264L186.857 29.2533H188.829V26.9341H181.99V29.2533H184.359L190.183 43.0418L186.974 51.2802H189.459L198.049 29.2533H200.476V26.9341H193.637V29.2533Z" fill="#212121"/>
<path d="M77.294 32.9358C77.294 28.8166 74.5164 26.2666 71.1086 26.2666C68.4361 26.2666 66.207 28.182 65.2267 30.132C64.2814 27.7089 62.0873 26.2666 59.5431 26.2666C56.999 26.2666 54.8283 28.1474 54.1514 29.6935V26.9243L49.3081 26.9358V29.2551H51.8173V42.6166H54.1514V33.2704C54.1514 32.1974 55.4585 28.3897 59.2047 28.3897C60.9786 28.3897 63.4061 29.982 63.4061 33.2243C63.4061 34.8627 63.4061 42.6166 63.4061 42.6166H65.7402C65.7402 42.6166 65.7402 33.3858 65.7402 33.2243C65.7402 32.1512 66.8956 28.3897 70.7818 28.3897C72.5558 28.3897 74.9832 29.8204 74.9832 33.0743C74.9832 34.7127 74.9832 42.6281 74.9832 42.6281H79.8148V40.3435H77.3057L77.294 32.9358Z" fill="#212121"/>
<path d="M90.9598 26.2529C86.2216 26.2529 82.3703 29.9914 82.3703 34.676C82.3703 34.8375 82.4053 35.4491 82.417 35.5529C82.8488 39.8452 86.5483 43.2029 91.0532 43.2029C94.3676 43.2029 97.2502 41.3799 98.709 38.7029L96.8301 37.4452C95.6864 39.476 93.5506 40.8837 91.0415 40.8837C87.8438 40.8837 85.1829 38.5529 84.7861 35.5414L99.1758 35.5529C99.2108 35.2645 99.2225 34.976 99.2225 34.6876C99.2225 29.9914 95.698 26.2529 90.9598 26.2529ZM84.8678 33.2337C85.5213 30.5106 88.0072 28.4799 90.9715 28.4799C93.9358 28.4799 96.0831 30.5106 96.7484 33.2337H84.8678Z" fill="#212121"/>
<path d="M156.829 26.9341H154.494V36.2341C154.494 38.3456 152.254 41.2072 149.418 41.2072C147.644 41.2072 145.24 39.5456 145.24 36.5225C145.24 34.8841 145.24 26.9341 145.24 26.9341H140.408V29.2533H142.917V36.6495C142.917 40.7687 145.695 43.2033 149.103 43.2033C151.519 43.2033 153.374 41.7264 154.506 40.1918V42.6379L159.349 42.6264V40.3187H156.84L156.829 26.9341Z" fill="#212121"/>
<g clip-path="url(#clip0)">
<path d="M22.2877 42.6951V43H32.3904V42.6951C32.3904 38.1343 37.546 31.6017 37.546 21.7631C37.546 13.3851 36.1394 8.856 35.2837 6.75226C34.5778 5.01232 33.7648 4 32.032 4C30.2992 4 28.6039 4.66434 28.1439 8.5291C26.7855 20.039 21.5817 26.6771 22.2877 42.6951Z" fill="white" stroke="#1F1F1F"/>
<path d="M20.7476 42.6951V43H10.6449V42.6951C10.6449 38.1343 5.48926 31.6017 5.48926 21.7631C5.48926 13.3851 6.89583 8.856 7.75153 6.75226C8.45749 5.01232 9.27041 4 11.0032 4C12.736 4 14.4314 4.66434 14.8913 8.5291C16.2498 20.039 21.4535 26.6771 20.7476 42.6951Z" fill="white" stroke="#1F1F1F"/>
<path d="M34.1246 8.47725C34.6227 10.2331 35.967 17.0972 35.3993 23.9667C34.7525 31.812 30.6662 38.0101 30.3281 43H12.7429C12.4048 38.0101 8.31853 31.812 7.67169 23.9667C7.10932 17.0972 8.45366 10.2278 8.9464 8.47725C9.38023 6.93892 9.89975 6 10.9442 6C11.9189 6 12.6206 6.48272 12.8027 8.73718C13.2258 14.0471 13.9381 25.9984 14.2541 31.7433C14.5808 37.6367 16.8518 42.699 21.3829 42.699H21.7036C26.2293 42.699 28.4902 37.6367 28.8169 31.7433C29.1329 25.9931 29.8452 14.0471 30.2683 8.73718C30.4504 6.48272 31.1521 6 32.1268 6C33.1712 6 33.6908 6.93892 34.1246 8.47725Z" stroke="#1F1F1F" stroke-miterlimit="10"/>
<path d="M25.5129 4.98973V5.16622C23.0207 5.16622 21.566 6.67441 21.566 9.15061H21.3199C21.3199 6.65836 19.8278 5.16622 17.3623 5.16622V4.98973C19.8278 4.98973 21.3199 3.48155 21.3199 1H21.566C21.566 3.48155 23.0207 4.98973 25.5129 4.98973Z" fill="#1F1F1F"/>
<path d="M0 42.5H43" stroke="#1F1F1F" stroke-miterlimit="10"/>
</g>
<defs>
<clipPath id="clip0">
<rect width="43" height="42" fill="white" transform="translate(0 1)"/>
</clipPath>
</defs>
</svg>
