<svg xmlns="http://www.w3.org/2000/svg" width="132" height="24" viewBox="0 0 132 24">
    <g fill="none" fill-rule="evenodd">
        <path fill="#E30D17" d="M14.609 11.905c0-3.785 1.749-7.154 4.471-9.334A11.643 11.643 0 0 0 11.776 0C5.272 0 0 5.33 0 11.905c0 6.574 5.272 11.904 11.776 11.904 2.76 0 5.297-.962 7.304-2.57a11.928 11.928 0 0 1-4.471-9.334"/>
        <path fill="#EB6109" d="M14.609 11.905c0 3.784 1.749 7.153 4.471 9.334a11.927 11.927 0 0 0 4.472-9.334c0-3.785-1.749-7.154-4.472-9.334a11.928 11.928 0 0 0-4.471 9.334"/>
        <path fill="#212121" d="M57.518 8.706a2.89 2.89 0 0 0-.974-.646 3.234 3.234 0 0 0-1.234-.23c-.237 0-.483.02-.737.061a3.209 3.209 0 0 0-.75.218 2.83 2.83 0 0 0-.697.433c-.22.184-.413.416-.576.696a2.824 2.824 0 0 0-1.068-1.034c-.45-.25-.964-.375-1.542-.375-.194 0-.395.018-.603.054a2.765 2.765 0 0 0-.619.185 2.496 2.496 0 0 0-.587.358 2.503 2.503 0 0 0-.51.573v-.964h-1.64v7.89h1.657v-4.373c0-.335.052-.633.157-.894.105-.26.246-.479.422-.654.176-.176.383-.309.62-.4a2.1 2.1 0 0 1 .756-.136c.558 0 .99.179 1.297.536.308.357.461.867.461 1.532v4.39h1.657v-4.374c0-.335.052-.633.157-.894a1.93 1.93 0 0 1 .422-.654c.176-.176.383-.309.62-.4.236-.09.488-.136.756-.136.557 0 .99.179 1.297.536.308.357.461.867.461 1.532v4.39h1.656v-4.959c0-.46-.074-.884-.225-1.268a2.895 2.895 0 0 0-.634-.993M66.185 12.985a2.406 2.406 0 0 1-.481.8 2.23 2.23 0 0 1-.741.53 2.325 2.325 0 0 1-.962.194c-.37 0-.699-.067-.99-.202a2.2 2.2 0 0 1-.737-.544 2.413 2.413 0 0 1-.464-.802 2.915 2.915 0 0 1-.163-.98c0-.347.054-.673.163-.98.108-.308.263-.576.464-.804.2-.228.447-.409.737-.543.291-.135.62-.202.99-.202.353 0 .674.064.962.193.288.13.535.307.741.532.206.225.367.491.48.799.115.307.172.642.172 1.004 0 .363-.057.698-.171 1.005zm.065-3.994a3.062 3.062 0 0 0-1.01-.845c-.402-.21-.883-.317-1.442-.317A3.794 3.794 0 0 0 61.028 9c-.354.368-.63.806-.832 1.314a4.5 4.5 0 0 0-.3 1.667c0 .605.1 1.16.3 1.668.201.508.478.946.832 1.314a3.794 3.794 0 0 0 2.77 1.17c.56 0 1.04-.105 1.442-.314a3.016 3.016 0 0 0 1.01-.84v.947h1.703v-7.89H66.25v.956zM75.78 11.968c-.478-.376-1.143-.627-1.996-.754l-.807-.123a7.248 7.248 0 0 1-.505-.095 1.658 1.658 0 0 1-.407-.144.786.786 0 0 1-.273-.23.571.571 0 0 1-.102-.347c0-.28.13-.506.387-.68.258-.172.62-.258 1.088-.258.244 0 .484.021.72.066.237.043.461.098.673.164a4.87 4.87 0 0 1 1.018.445l.734-1.343a4.965 4.965 0 0 0-1.426-.613 6.676 6.676 0 0 0-1.736-.219c-.5 0-.947.06-1.344.178a3.063 3.063 0 0 0-1.014.502c-.28.217-.495.482-.644.795-.15.313-.224.664-.224 1.054 0 .637.224 1.152.672 1.544.448.393 1.107.65 1.976.77l.815.107c.467.066.81.172 1.026.318.217.145.326.33.326.555 0 .297-.15.532-.448.705-.299.173-.741.26-1.328.26a5.06 5.06 0 0 1-.86-.067 4.273 4.273 0 0 1-.692-.177 3.315 3.315 0 0 1-.562-.255 4.06 4.06 0 0 1-.46-.31l-.79 1.294c.282.214.578.387.887.52.31.13.614.234.913.308.298.074.581.123.847.148.266.025.5.037.7.037.56 0 1.061-.063 1.504-.19a3.368 3.368 0 0 0 1.116-.53c.301-.228.532-.5.692-.816.16-.316.241-.663.241-1.042 0-.675-.239-1.201-.717-1.577M86.961 11.305c.043-.285.12-.548.228-.787.109-.238.249-.444.42-.617.171-.173.375-.306.61-.4a2.2 2.2 0 0 1 .812-.14c.543 0 .985.17 1.328.511.342.34.559.818.651 1.433h-4.049zm4.762-2.327a3.34 3.34 0 0 0-1.165-.848c-.453-.2-.952-.3-1.495-.3-.576 0-1.101.1-1.576.3a3.55 3.55 0 0 0-1.226.848 3.87 3.87 0 0 0-.8 1.314 4.81 4.81 0 0 0-.284 1.688c0 .626.098 1.195.293 1.705.196.51.47.947.823 1.31.353.362.774.642 1.263.84.489.198 1.026.297 1.613.297.592 0 1.156-.083 1.69-.248a4.231 4.231 0 0 0 1.52-.864l-.847-1.228a3.788 3.788 0 0 1-1.08.614 3.376 3.376 0 0 1-1.177.218c-.277 0-.543-.038-.798-.115a2.083 2.083 0 0 1-.693-.358 2.152 2.152 0 0 1-.53-.622 2.584 2.584 0 0 1-.301-.915h5.768a6.747 6.747 0 0 0 .033-.642c0-.615-.09-1.176-.273-1.684a3.97 3.97 0 0 0-.758-1.31zM114.281 12.985a2.411 2.411 0 0 1-.48.8 2.234 2.234 0 0 1-.742.53 2.325 2.325 0 0 1-.962.194c-.369 0-.699-.067-.99-.202a2.204 2.204 0 0 1-.737-.544 2.424 2.424 0 0 1-.464-.802 2.922 2.922 0 0 1-.163-.98c0-.347.054-.673.163-.98.109-.308.263-.576.464-.804.201-.228.447-.409.738-.543.29-.135.62-.202.99-.202a2.239 2.239 0 0 1 1.703.725c.206.225.366.491.48.799.114.307.17.642.17 1.004 0 .363-.056.698-.17 1.005zm.065-3.994a3.061 3.061 0 0 0-1.01-.845c-.402-.21-.883-.317-1.442-.317a3.793 3.793 0 0 0-2.77 1.17 4 4 0 0 0-.831 1.314 4.493 4.493 0 0 0-.302 1.667c0 .605.1 1.16.302 1.668.2.508.478.946.83 1.314a3.793 3.793 0 0 0 2.77 1.17c.56 0 1.04-.105 1.443-.314a3.015 3.015 0 0 0 1.01-.84v.947h1.703v-7.89h-1.703v.956zM83.081 14.352a2.27 2.27 0 0 1-.81.157c-.174 0-.336-.028-.485-.083a1.002 1.002 0 0 1-.391-.259c-.111-.118-.2-.27-.265-.457a2.068 2.068 0 0 1-.098-.675V9.6h2.735V8.035h-2.735V5.647h-1.71v2.388h-1.557V9.6h1.557v3.468c0 1.048.245 1.821.737 2.318.491.497 1.18.746 2.065.746.494 0 .938-.078 1.332-.231.26-.102.502-.218.728-.346l-.582-1.441c-.165.089-.338.169-.52.238M98.455 7.83c-.478 0-.91.087-1.296.263-.385.176-.708.599-.969.978V8.035h-1.546v7.89h1.562v-4.34c0-.335.046-.634.139-.898.092-.263.22-.486.383-.667.163-.181.358-.318.586-.411.228-.094.478-.14.75-.14a3.32 3.32 0 0 1 1.01.166l.503-1.647a3.117 3.117 0 0 0-.417-.105 4.239 4.239 0 0 0-.705-.054M122.125 7.83c-.478 0-.91.087-1.295.263-.386.176-.709.599-.97.978V8.035h-1.546v7.89h1.563v-4.34c0-.335.046-.634.138-.898.092-.263.22-.486.383-.667.163-.181.359-.318.587-.411.228-.094.477-.14.75-.14a3.32 3.32 0 0 1 1.01.166l.503-1.647a3.13 3.13 0 0 0-.418-.105 4.239 4.239 0 0 0-.705-.054M130.014 12.985a2.406 2.406 0 0 1-.481.8 2.234 2.234 0 0 1-.742.53 2.325 2.325 0 0 1-.96.194c-.37 0-.7-.067-.99-.202a2.204 2.204 0 0 1-.738-.544 2.418 2.418 0 0 1-.464-.802 2.915 2.915 0 0 1-.163-.98c0-.347.054-.673.163-.98.108-.308.263-.576.464-.804.2-.228.447-.409.737-.543.29-.135.62-.202.99-.202a2.239 2.239 0 0 1 1.703.725c.206.225.367.491.48.799.115.307.172.642.172 1.004 0 .363-.057.698-.171 1.005zm.065-8.157v4.163a3.064 3.064 0 0 0-1.01-.845c-.403-.21-.883-.317-1.442-.317a3.795 3.795 0 0 0-2.77 1.17 3.99 3.99 0 0 0-.831 1.314 4.487 4.487 0 0 0-.302 1.667c0 .605.1 1.16.302 1.668.2.508.477.946.83 1.314a3.795 3.795 0 0 0 2.77 1.17c.56 0 1.04-.105 1.443-.314a3.018 3.018 0 0 0 1.01-.84v.947h1.703V4.828h-1.703zM102.53 10.156c.217-.222.475-.395.774-.519.299-.123.622-.185.97-.185.382 0 .737.062 1.066.185.318.12.593.286.826.498l.82-1.378a4.164 4.164 0 0 0-1.038-.61 4.359 4.359 0 0 0-1.675-.318c-.603 0-1.16.106-1.674.317a4.042 4.042 0 0 0-1.328.873c-.372.371-.664.81-.876 1.314a4.213 4.213 0 0 0-.318 1.647c0 .593.106 1.142.318 1.648.212.505.504.943.876 1.313s.815.662 1.328.873a4.359 4.359 0 0 0 1.674.317c.603 0 1.161-.105 1.675-.317a4.164 4.164 0 0 0 1.038-.61l-.82-1.378a2.557 2.557 0 0 1-.826.497 3.006 3.006 0 0 1-1.067.186c-.347 0-.67-.062-.97-.186a2.287 2.287 0 0 1-.773-.518 2.427 2.427 0 0 1-.514-.8 2.717 2.717 0 0 1-.187-1.025c0-.373.062-.715.187-1.025.125-.31.297-.577.514-.799"/>
        <path fill="#F69F00" d="M26.385 0c-2.76 0-5.297.963-7.304 2.57a11.928 11.928 0 0 1 4.471 9.335c0 3.784-1.749 7.153-4.471 9.334a11.643 11.643 0 0 0 7.304 2.57c6.504 0 11.776-5.33 11.776-11.904C38.161 5.33 32.89 0 26.385 0"/>
    </g>
</svg>
