<svg xmlns="http://www.w3.org/2000/svg" width="128" height="39" viewBox="0 0 128 39">
    <g fill="none" fill-rule="evenodd">
        <path fill="#02797E" d="M62.697 17.522c.34.226.85.395 1.36.395.793 0 1.246-.395 1.246-1.017 0-.565-.34-.848-1.133-1.187-.963-.34-1.586-.848-1.586-1.696 0-.904.793-1.582 1.926-1.582.623 0 1.02.113 1.302.282l-.226.622c-.17-.113-.567-.282-1.133-.282-.793 0-1.133.508-1.133.904 0 .565.34.848 1.19 1.13 1.02.396 1.472.848 1.472 1.752 0 .905-.68 1.696-2.039 1.696-.566 0-1.189-.17-1.529-.396l.283-.621"/>
        <path fill="#02797E" fill-rule="nonzero" d="M67.568 16.448c0 1.017.68 1.47 1.473 1.47.566 0 .906-.114 1.19-.227l.112.566a3.592 3.592 0 0 1-1.416.282c-1.302 0-2.095-.848-2.095-2.148 0-1.3.793-2.317 1.982-2.317 1.36 0 1.756 1.243 1.756 1.978v.396h-3.002zm2.266-.509c0-.509-.227-1.243-1.076-1.243-.793 0-1.133.734-1.19 1.243h2.266z"/>
        <path fill="#02797E" d="M74.591 18.313c-.226.113-.68.226-1.246.226-1.303 0-2.095-.848-2.095-2.148 0-1.3.906-2.26 2.265-2.26.453 0 .85.112 1.076.226l-.17.565c-.17-.113-.453-.226-.906-.226-.963 0-1.53.734-1.53 1.639 0 .96.624 1.582 1.473 1.582.454 0 .737-.113.963-.226l.17.622M79.009 17.296c0 .452 0 .847.056 1.13h-.68l-.056-.678c-.17.339-.68.791-1.416.791-.68 0-1.472-.396-1.472-1.865v-2.487h.793v2.317c0 .792.283 1.357.962 1.357.51 0 .907-.34 1.02-.735.057-.113.057-.226.057-.396v-2.6h.792v3.166M80.312 15.543c0-.508 0-.904-.057-1.3h.68l.056.848c.17-.565.68-.904 1.19-.904h.226v.735h-.283c-.566 0-.906.395-1.02.96v2.657h-.792v-2.996"/>
        <path fill="#02797E" fill-rule="nonzero" d="M83.596 13.452a.507.507 0 0 1-.51-.509c0-.282.227-.508.51-.508.284 0 .51.226.51.508 0 .283-.17.51-.51.51zm.397 5.03h-.736v-4.239h.793v4.24h-.057z"/>
        <path fill="#02797E" d="M86.202 13.226v1.017h1.133v.566h-1.133v2.317c0 .509.17.848.566.848.227 0 .34 0 .453-.057l.057.566c-.17.056-.397.113-.68.113-.34 0-.623-.113-.85-.34-.226-.226-.283-.621-.283-1.13V14.81h-.68v-.566h.68v-.79l.737-.227M88.58 14.243l.907 2.487c.113.283.226.622.283.848.057-.226.17-.565.283-.904l.85-2.487h.793l-1.19 3.052c-.566 1.47-.906 2.204-1.472 2.657-.397.339-.737.452-.963.508l-.17-.621c.17-.057.453-.17.68-.396.226-.17.453-.452.623-.848.056-.056.056-.113.056-.17 0-.056 0-.112-.056-.169l-1.586-3.9h.963M62.697 26.283c.34.226.85.395 1.36.395.793 0 1.246-.395 1.246-1.017 0-.565-.34-.848-1.133-1.187-.963-.34-1.586-.848-1.586-1.696 0-.904.793-1.582 1.926-1.582.623 0 1.02.113 1.302.282l-.226.622c-.17-.113-.567-.283-1.133-.283-.793 0-1.133.51-1.133.905 0 .565.34.848 1.19 1.13 1.02.396 1.472.848 1.472 1.752 0 .905-.68 1.696-2.039 1.696-.566 0-1.189-.17-1.529-.396l.283-.621M67.965 21.987v1.017h1.132v.566h-1.132v2.26c0 .51.17.848.566.848.227 0 .34 0 .453-.056l.057.565c-.17.056-.397.113-.68.113-.34 0-.623-.113-.85-.34-.226-.225-.283-.62-.283-1.13v-2.317h-.68v-.565h.68v-.791l.737-.17"/>
        <path fill="#02797E" fill-rule="nonzero" d="M72.949 26.226c0 .396 0 .735.056 1.017h-.68l-.056-.508c-.227.339-.68.622-1.303.622-.85 0-1.302-.622-1.302-1.244 0-1.017.906-1.583 2.548-1.583v-.113c0-.339-.113-1.017-.962-.96-.397 0-.793.113-1.133.339l-.17-.509c.34-.226.85-.34 1.416-.34 1.302 0 1.642.905 1.642 1.753v1.526h-.056zm-.737-1.13c-.85 0-1.812.113-1.812.96 0 .51.34.735.736.735.567 0 .906-.339 1.02-.734 0-.057.056-.17.056-.227v-.734z"/>
        <path fill="#02797E" d="M74.195 24.135c0-.452 0-.792-.057-1.13h.68l.056.678c.227-.396.68-.792 1.416-.792.567 0 1.53.34 1.53 1.809v2.543h-.793v-2.43c0-.678-.284-1.243-.963-1.243-.51 0-.906.339-1.02.79-.056.114-.056.227-.056.34v2.543h-.793v-3.108"/>
        <path fill="#02797E" fill-rule="nonzero" d="M82.747 21.026v5.144c0 .395 0 .79.057 1.073h-.68l-.057-.734a1.573 1.573 0 0 1-1.416.848c-1.02 0-1.812-.848-1.812-2.148 0-1.413.906-2.261 1.926-2.261.68 0 1.076.282 1.302.622v-2.544h.68zm-.793 3.674c0-.113 0-.226-.057-.34-.113-.508-.51-.903-1.132-.903-.793 0-1.303.678-1.303 1.639 0 .847.453 1.582 1.246 1.582.51 0 .963-.339 1.133-.904.056-.113.056-.226.056-.34V24.7h.057zM87.051 26.226c0 .396 0 .735.057 1.017h-.68l-.056-.508c-.227.339-.68.622-1.303.622-.85 0-1.303-.622-1.303-1.244 0-1.017.907-1.583 2.549-1.583v-.113c0-.339-.113-1.017-.963-.96-.396 0-.793.113-1.133.339l-.17-.509c.34-.226.85-.34 1.416-.34 1.303 0 1.643.905 1.643 1.753v1.526h-.057zm-.793-1.13c-.85 0-1.812.113-1.812.96 0 .51.34.735.736.735.567 0 .906-.339 1.02-.734 0-.057.056-.17.056-.227v-.734z"/>
        <path fill="#02797E" d="M88.297 24.304c0-.508 0-.904-.056-1.3h.68l.056.848h.057c.17-.565.68-.904 1.189-.904h.227v.735h-.284c-.566 0-.906.395-1.02.96V27.3h-.792l-.057-2.996"/>
        <path fill="#02797E" fill-rule="nonzero" d="M94.754 21.026v5.144c0 .395 0 .79.057 1.073h-.68l-.057-.734c-.226.452-.736.848-1.472.848-1.02 0-1.813-.848-1.813-2.148 0-1.413.85-2.261 1.926-2.261.68 0 1.076.282 1.303.622v-2.544h.736zm-.736 3.674c0-.113 0-.226-.057-.34a1.157 1.157 0 0 0-1.133-.903c-.793 0-1.246.678-1.246 1.639 0 .847.453 1.582 1.246 1.582.51 0 1.02-.339 1.133-.904 0-.113.057-.226.057-.34V24.7z"/>
        <path fill="#02797E" d="M95.943 26.452c.227.17.623.283 1.02.283.566 0 .793-.283.793-.622 0-.396-.227-.565-.793-.791-.793-.283-1.133-.679-1.133-1.187 0-.678.566-1.244 1.473-1.244.453 0 .793.113 1.02.283l-.17.565c-.17-.113-.454-.226-.85-.226-.453 0-.68.283-.68.565 0 .34.227.509.793.735.736.283 1.133.622 1.133 1.3 0 .735-.567 1.3-1.586 1.3-.453 0-.906-.113-1.19-.283l.17-.678M105.572 27.074c-.284.113-.85.283-1.586.283-1.643 0-2.945-1.074-2.945-2.996 0-1.865 1.246-3.109 3.115-3.109.736 0 1.19.17 1.416.283l-.17.622a3.166 3.166 0 0 0-1.19-.227c-1.416 0-2.322.905-2.322 2.43 0 1.47.85 2.375 2.266 2.375.453 0 .963-.113 1.246-.226l.17.565"/>
        <path fill="#02797E" fill-rule="nonzero" d="M108.12 27.357c-1.132 0-2.039-.848-2.039-2.205 0-1.413.963-2.26 2.096-2.26 1.246 0 2.039.904 2.039 2.147 0 1.583-1.076 2.318-2.096 2.318zm0-.622c.737 0 1.303-.678 1.303-1.64 0-.734-.34-1.638-1.303-1.638-.906 0-1.302.847-1.302 1.639.056.96.566 1.639 1.302 1.639z"/>
        <path fill="#02797E" d="M114.747 26.057c0 .452 0 .847.057 1.13h-.68l-.057-.678c-.17.339-.68.791-1.416.791-.68 0-1.472-.396-1.472-1.865v-2.487h.793v2.317c0 .792.226 1.357.963 1.357.51 0 .85-.34 1.019-.735.057-.113.057-.226.057-.396v-2.6h.793v3.166M116.05 24.135c0-.452 0-.792-.057-1.13h.68l.056.678c.227-.396.68-.792 1.416-.792.567 0 1.53.34 1.53 1.809v2.543h-.794v-2.43c0-.678-.283-1.243-.962-1.243-.51 0-.907.339-1.02.79-.057.114-.057.227-.057.34v2.543h-.792v-3.108M123.979 27.074c-.227.113-.623.226-1.246.226-1.303 0-2.096-.848-2.096-2.148 0-1.3.906-2.26 2.266-2.26.453 0 .85.112 1.076.225l-.17.566c-.17-.113-.453-.226-.906-.226-.963 0-1.53.734-1.53 1.639 0 .96.623 1.582 1.473 1.582.453 0 .736-.113.963-.226l.17.622"/>
        <path fill="#02797E" fill-rule="nonzero" d="M125.225 22.213a.507.507 0 0 1-.51-.509c0-.282.227-.508.51-.508.283 0 .51.226.51.508 0 .283-.17.509-.51.509zm.396 5.03h-.793v-4.239h.793v4.24z"/>
        <path fill="#02797E" d="M126.924 21.026h1v6.217h-1zM58.733 24.417l-45.48 14.244L0 2.657 47.745 0l10.988 24.417"/>
        <path fill="#FFF" fill-rule="nonzero" d="M24.354 17.183c0 .904-.227 1.695-.623 2.43a5.02 5.02 0 0 1-1.7 1.752c-.735.452-1.642.792-2.661 1.018-1.02.226-2.152.339-3.455.339h-.906v4.635h-5.89v-15.43h6.91c2.605 0 4.644.451 6.116 1.3 1.473.847 2.209 2.203 2.209 3.956zm-5.664.056c0-1.356-1.02-2.035-3.002-2.035h-.736v4.126h.68c.963 0 1.756-.17 2.265-.508.51-.283.793-.848.793-1.583z"/>
        <path fill="#FFF" d="M38.966 27.357c-.906.17-1.925.282-3.115.282-1.642 0-3.115-.17-4.36-.565-1.303-.396-2.38-.904-3.286-1.583a6.608 6.608 0 0 1-2.039-2.487 7.903 7.903 0 0 1-.68-3.278c0-1.187.227-2.26.737-3.278a8.131 8.131 0 0 1 2.096-2.544 10.83 10.83 0 0 1 3.228-1.639c1.246-.395 2.605-.565 4.078-.565 1.133 0 2.209.057 3.171.226.963.226.963.226 1.7.509v4.126a6.921 6.921 0 0 0-1.983-.791 7.96 7.96 0 0 0-2.322-.34c-1.36 0-2.435.396-3.285 1.074-.85.735-1.246 1.753-1.246 3.166 0 .678.113 1.3.397 1.865.283.508.623.96 1.076 1.3.453.339.963.622 1.586.791.623.17 1.246.283 1.925.283.68 0 1.416-.057 2.096-.226.68-.17 1.416-.34 2.152-.679v3.9c-.906.226-1.02.283-1.926.453M43.327 11.926h5.947v15.487h-5.947zM49.897 7.065c0 1.018-.34 1.865-1.02 2.43-.679.566-1.528.905-2.548.905s-1.869-.283-2.548-.904c-.68-.566-1.02-1.413-1.02-2.43 0-1.075.34-1.866 1.02-2.488.68-.621 1.529-.904 2.548-.904 1.02 0 1.87.283 2.549.904.68.565 1.02 1.413 1.02 2.487"/>
    </g>
</svg>
