<svg width="38" height="37" viewBox="0 0 38 37" fill="none" xmlns="http://www.w3.org/2000/svg">
<path d="M19.3642 36.2272H28.0726C28.0726 32.2363 32.5214 26.5235 32.5214 17.9146C32.5214 10.5896 31.3072 6.62847 30.5707 4.78726C29.9636 3.26453 29.2569 2.37875 27.7641 2.37875C26.2712 2.37875 24.8082 2.956 24.4101 6.33985C23.2456 16.4018 18.7571 22.2141 19.3642 36.2272Z" fill="white"/>
<path d="M28.3113 36.4559H19.145L19.1351 36.237C18.7569 27.4887 20.3493 21.9253 21.9019 16.541C22.8573 13.2268 23.7531 10.1017 24.2009 6.30981C24.39 4.6975 24.8279 3.59277 25.5346 2.916C26.0919 2.38852 26.8085 2.13971 27.7838 2.13971C29.4359 2.13971 30.1923 3.15486 30.7994 4.68755C32.0833 7.90221 32.77 12.4704 32.77 17.9045C32.77 23.0698 31.1776 27.2001 29.9037 30.5242C29.0577 32.7337 28.3213 34.6446 28.3213 36.2171V36.4559H28.3113ZM19.583 35.9981H27.8535C27.9132 34.3858 28.6397 32.5247 29.4658 30.375C30.7298 27.0906 32.3023 23.0002 32.3023 17.9244C32.3023 12.55 31.6354 8.04154 30.3715 4.87665C29.7146 3.22453 29.008 2.61743 27.7838 2.61743C26.4601 2.61743 25.0469 3.06529 24.6587 6.36952C24.2109 10.1913 23.3052 13.3363 22.3498 16.6704C20.8171 21.9651 19.2446 27.439 19.583 35.9981Z" fill="#1D1D1B"/>
<path d="M18.0404 36.2271H9.33195C9.33195 32.2362 4.88318 26.5235 4.88318 17.9145C4.88318 10.5895 6.09738 6.62841 6.83387 4.7872C7.44097 3.26446 8.1476 2.37869 9.64047 2.37869C11.1333 2.37869 12.5964 2.95594 12.9945 6.33979C14.1589 16.4018 18.6475 22.214 18.0404 36.2271Z" fill="white"/>
<path d="M18.2593 36.456H9.09305V36.2271C9.09305 34.6546 8.35657 32.7437 7.51061 30.5342C6.23669 27.2101 4.64429 23.0798 4.64429 17.9144C4.64429 12.4804 5.32106 7.91219 6.61488 4.69753C7.23194 3.16484 7.97838 2.14969 9.63049 2.14969C10.6058 2.14969 11.3125 2.3985 11.8798 2.92598C12.5864 3.5928 13.0243 4.70748 13.2134 6.31979C13.6613 10.1117 14.557 13.2368 15.5124 16.551C17.0551 21.9353 18.6574 27.4888 18.2792 36.247L18.2593 36.456ZM9.55087 35.9981H17.8114C18.1498 27.4489 16.5773 21.9651 15.0546 16.6704C14.0992 13.3363 13.1935 10.1913 12.7456 6.36955C12.3575 3.05537 10.9542 2.61746 9.62054 2.61746C8.39638 2.61746 7.68975 3.23451 7.03289 4.87667C5.76892 8.04157 5.1021 12.5501 5.1021 17.9244C5.1021 23.0002 6.6746 27.0907 7.93857 30.375C8.76462 32.5148 9.4812 34.3858 9.55087 35.9981Z" fill="#1D1D1B"/>
<path d="M18.7471 36.3265H18.5082C16.6073 36.3265 15.0249 35.2915 13.9102 33.3408C12.9448 31.6389 12.3477 29.2802 12.1984 26.5233C11.9097 21.2087 11.3126 11.0771 10.9443 6.52876C10.7851 4.52831 10.1581 4.35912 9.5709 4.35912C8.89413 4.35912 8.47613 4.91646 8.06808 6.33967C7.70979 7.61359 6.48563 13.6249 6.98325 19.7258C7.29178 23.458 8.49603 26.593 9.56095 29.3697C10.5363 31.8977 11.3723 34.0872 11.3723 36.2171H10.9145C10.9145 34.1768 10.0884 32.0271 9.13299 29.5389C8.05812 26.7423 6.83397 23.5674 6.52544 19.7755C6.01786 13.605 7.27188 7.52401 7.63017 6.23019C7.96855 5.02594 8.43632 3.91125 9.5709 3.91125C10.7055 3.91125 11.2529 4.68755 11.4022 6.50886C11.7605 11.0571 12.3576 21.1888 12.6562 26.5134C12.8055 29.1906 13.3728 31.4797 14.3083 33.1218C15.3434 34.9531 16.7566 35.8787 18.5082 35.8787H18.7372C19.6329 35.8787 20.4589 35.6299 21.1855 35.1422C21.8821 34.6744 22.4893 33.9977 23.0068 33.1218C23.9722 31.4797 24.5892 29.1309 24.7286 26.5134C25.0172 21.1888 25.6143 11.0571 25.9826 6.50886C26.1319 4.68755 26.6693 3.91125 27.8138 3.91125C28.9484 3.91125 29.4162 5.02594 29.7546 6.23019C30.1129 7.52401 31.3669 13.605 30.8593 19.7755C30.5508 23.5674 29.3266 26.7622 28.2517 29.5787C27.2963 32.0868 26.4702 34.2465 26.4702 36.2967H26.0124C26.0124 34.1669 26.8484 31.9674 27.8238 29.4195C28.8887 26.6328 30.093 23.4679 30.4015 19.7457C30.8991 13.6448 29.665 7.63349 29.3167 6.35957C28.9186 4.93636 28.5006 4.37902 27.8138 4.37902C27.2366 4.37902 26.5996 4.54821 26.4404 6.54867C26.0821 11.097 25.485 21.2286 25.1864 26.5432C25.0371 29.2702 24.42 31.629 23.3949 33.3607C22.2603 35.2915 20.648 36.3265 18.7471 36.3265Z" fill="#1D1D1B"/>
<path d="M37.2089 35.9981H0.195557V36.456H37.2089V35.9981Z" fill="#1D1D1B"/>
<path d="M22.1408 3.4435V3.59279C19.991 3.59279 18.737 4.89657 18.737 7.0264H18.5181C18.5181 4.87666 17.2342 3.59279 15.1044 3.59279V3.4435C17.2342 3.4435 18.5181 2.13973 18.5181 -6.10352e-05H18.7271C18.747 2.13973 20.001 3.4435 22.1408 3.4435Z" fill="#1D1D1B"/>
</svg>
