<svg width="96" height="104" viewBox="0 0 96 104" fill="none" xmlns="http://www.w3.org/2000/svg">
<path fill-rule="evenodd" clip-rule="evenodd" d="M30.4269 52.2058H16.6248V40.4942H30.5817C35.461 40.4942 37.5437 42.7985 37.5437 46.6398C37.5437 50.0378 35.0246 52.2058 30.4269 52.2058ZM28.5415 17.7425C35.1241 17.7425 36.092 21.5932 36.092 23.944C36.092 26.2948 33.8853 29.9038 28.596 29.9038H16.6248V17.7425H28.5415ZM33.2292 34.306C40.8579 32.641 44.1721 26.7057 44.1721 21.8728C44.1721 13.6213 36.6225 7.28689 26.9961 7.28689V0H20.2429V7.28689H16.6248V0H9.87159V7.28689H0V17.7424H9.87159V52.2058H0.0832898V62.7963H9.87159V69.9535H16.6248V62.7963H20.2983V70H27.0515V62.7963C40.6314 62.7963 46.3168 55.8112 46.3168 47.0993C46.3168 40.0469 40.1656 34.9603 33.2292 34.306Z" fill="#FBFBFB"/>
<path fill-rule="evenodd" clip-rule="evenodd" d="M80.1069 86.2058H66.3048V74.4942H80.2617C85.141 74.4942 87.2237 76.7985 87.2237 80.6398C87.2237 84.0378 84.7046 86.2058 80.1069 86.2058ZM78.2215 51.7425C84.8041 51.7425 85.772 55.5932 85.772 57.944C85.772 60.2948 83.5653 63.9038 78.276 63.9038H66.3048V51.7425H78.2215ZM82.9092 68.306C90.5379 66.641 93.8521 60.7057 93.8521 55.8728C93.8521 47.6213 86.3025 41.2869 76.6761 41.2869V34H69.9229V41.2869H66.3048V34H59.5516V41.2869H49.68V51.7424H59.5516V86.2058H49.7633V96.7963H59.5516V103.954H66.3048V96.7963H69.9783V104H76.7315V96.7963C90.3114 96.7963 95.9968 89.8112 95.9968 81.0993C95.9968 74.0469 89.8456 68.9603 82.9092 68.306Z" fill="#FBFBFB"/>
</svg>
