<svg width="70" height="70" viewBox="0 0 70 70" fill="none" xmlns="http://www.w3.org/2000/svg">
<path d="M36.5102 69.9752H53.0596C53.0596 62.3969 61.5052 51.5421 61.5052 35.1942C61.5052 21.2731 59.2011 13.7474 57.7993 10.2518C56.6429 7.36067 55.3112 5.67857 52.4727 5.67857C49.6341 5.67857 46.8569 6.78245 46.1034 13.2042C43.8782 32.3294 35.3537 43.3594 36.5102 69.9752Z" fill="white"/>
<path d="M33.9871 69.9752H17.4377C17.4377 62.3969 8.99211 51.5421 8.99211 35.1942C8.99211 21.2731 11.2962 13.7474 12.698 10.2518C13.8544 7.36067 15.1861 5.67857 18.0246 5.67857C20.8632 5.67857 23.6404 6.78245 24.3939 13.2042C26.6191 32.3294 35.1435 43.3594 33.9871 69.9752Z" fill="white"/>
<path d="M49.7156 69.1604C50.679 61.0852 56.9041 51.1377 57.922 38.6723C58.8507 27.3269 56.6517 15.9902 55.8369 13.0903C55.1273 10.5497 54.2775 8.99898 52.5691 8.99898C50.9746 8.99898 49.8269 9.79622 49.529 13.5196C48.8369 22.2893 47.6717 42.019 47.1548 51.5159C46.6204 61.2493 42.8707 69.1604 35.4677 69.1604H35.0209C27.6091 69.1604 23.8682 61.2493 23.3338 51.5159C22.8169 42.0277 21.6517 22.2893 20.9596 13.5196C20.6617 9.79622 19.514 8.99898 17.9195 8.99898C16.2111 8.99898 15.3613 10.5497 14.6517 13.0903C13.8457 15.9815 11.6467 27.3269 12.5666 38.6723C13.5845 51.1377 19.8096 61.0852 20.7731 69.1604" stroke="#232323" stroke-miterlimit="10"/>
<path d="M41.7931 6.53567V6.82478C37.7106 6.82478 35.3276 9.29537 35.3276 13.3517H34.9246C34.9246 9.26908 32.4803 6.82478 28.4415 6.82478V6.53567C32.4803 6.53567 34.9246 4.06508 34.9246 0H35.3276C35.3276 4.06508 37.7106 6.53567 41.7931 6.53567Z" fill="white"/>
<path d="M0 69.5H70" stroke="white" stroke-miterlimit="10"/>
</svg>
