<svg width="56" height="18" viewBox="0 0 56 18" fill="none" xmlns="http://www.w3.org/2000/svg">
<path fill-rule="evenodd" clip-rule="evenodd" d="M48.3247 0.309902C48.7299 0.3098 49.1352 0.3098 49.5415 0.3098C50.3543 0.3098 51.1716 0.309902 52.0028 0.309902C52.1243 0.878314 52.2468 1.4384 52.3638 1.99972C53.3246 6.60755 54.2832 11.2159 55.2463 15.8233C55.3696 16.4134 55.5152 16.9991 55.6506 17.5867V17.7105H51.4611C51.3078 16.9733 51.1434 16.2519 51.0136 15.5245C50.9597 15.2226 50.8633 15.1055 50.5266 15.1099C48.8467 15.1315 47.1664 15.1262 45.4865 15.1128C45.2321 15.1108 45.1311 15.1949 45.0537 15.4267C44.8223 16.1199 44.5692 16.8061 44.3103 17.4896C44.2751 17.5824 44.1585 17.7096 44.0787 17.7103C42.5646 17.7234 41.0501 17.7201 39.4922 17.7201C39.776 17.0358 40.0449 16.3823 40.3179 15.7305C42.2703 11.0677 44.2236 6.40516 46.1767 1.74265C46.5998 0.732768 47.2339 0.309902 48.3247 0.309902ZM48.7859 5.14623C48.0184 7.26528 47.2509 9.38442 46.4749 11.527H50.1673C49.7209 9.38442 49.2804 7.27073 48.84 5.15682C48.822 5.15322 48.804 5.14972 48.7859 5.14623ZM35.2961 0H37.3998C37.9526 0.102684 38.5096 0.187278 39.057 0.313603C39.5566 0.428827 40.0457 0.589791 40.5767 0.74099C40.3091 1.99355 40.0478 3.2161 39.7922 4.41213C39.0918 4.20666 38.4223 3.96983 37.7341 3.81792C36.793 3.60987 35.8285 3.53063 34.8868 3.79335C34.504 3.90004 34.1165 4.1051 33.8154 4.36351C33.2983 4.80683 33.2914 5.44483 33.7852 5.91035C34.1256 6.23125 34.5291 6.49459 34.9322 6.73737C35.8489 7.28913 36.8113 7.76892 37.7022 8.3582C38.7514 9.05232 39.5165 10.0066 39.6772 11.2969C39.9614 13.5787 39.1183 15.3763 37.2032 16.6481C35.9989 17.4476 34.6361 17.8047 33.2162 17.937C31.2334 18.1218 29.2898 17.8995 27.3954 17.2765C27.2683 17.2348 27.1446 17.1827 27.0209 17.132C26.984 17.1168 26.9518 17.09 26.8952 17.0547C27.1628 15.8003 27.4308 14.5439 27.7063 13.2524C28.0293 13.3936 28.3324 13.5351 28.6422 13.66C30.1222 14.2569 31.6509 14.5299 33.235 14.2329C33.6471 14.1557 34.0675 13.9734 34.4168 13.7391C35.1748 13.2304 35.2476 12.2744 34.5573 11.677C34.1036 11.2843 33.5583 10.9942 33.0413 10.679C32.2339 10.1868 31.3763 9.7673 30.6121 9.21626C29.6328 8.51001 28.9234 7.5684 28.789 6.31677C28.5876 4.44276 29.2824 2.9211 30.7196 1.73874C31.97 0.710052 33.4546 0.253472 35.0362 0.0616721C35.124 0.0510851 35.2097 0.0209685 35.2961 0ZM16.2586 0.576634C16.3379 0.374453 16.4354 0.304249 16.6506 0.304249C16.6533 0.304249 16.6559 0.304249 16.6587 0.304249C17.6509 0.312164 18.6432 0.311444 19.6355 0.310725C20.0247 0.310416 20.414 0.310211 20.8033 0.310416C20.8925 0.310416 20.9817 0.318125 21.1083 0.324087C20.8729 0.890854 20.6501 1.43131 20.4242 1.97053C18.2682 7.11892 16.1093 12.2661 13.962 17.4181C13.8597 17.6636 13.7345 17.7279 13.4859 17.726C12.1249 17.7147 10.7639 17.7102 9.40324 17.729C9.11478 17.7329 9.02072 17.6317 8.95438 17.3726C7.80066 12.8726 6.62783 8.37742 5.48715 3.87404C5.27787 3.04794 4.85899 2.48364 4.07331 2.13735C2.81392 1.5823 1.50667 1.19222 0.173136 0.875436C0.114089 0.861354 0.0554527 0.846039 0 0.83206C0.00667486 0.309902 0.00667483 0.309902 0.502977 0.309902C2.88457 0.309902 5.26606 0.309286 7.64765 0.310108C8.77724 0.310416 9.5926 0.967224 9.8062 2.08637C10.4108 5.25457 11.0025 8.42511 11.5998 11.5946C11.6258 11.7333 11.6555 11.8712 11.6953 12.0664C11.757 11.9503 11.8 11.8849 11.8281 11.8138C13.3073 8.06895 14.787 4.32435 16.2586 0.576634ZM23.0227 0.328404H27.5352C27.3474 1.21073 27.1637 2.07629 26.9789 2.94145C25.9566 7.72659 24.9305 12.5109 23.9193 17.2984C23.8491 17.6309 23.7313 17.7367 23.3864 17.73C22.1499 17.7061 20.9124 17.7205 19.6753 17.7205H19.3046C20.5489 11.9006 21.7843 6.12168 23.0227 0.328404Z" fill="black"/>
</svg>
