<svg viewBox="0 0 170 26" fill="none" xmlns="http://www.w3.org/2000/svg">
<g clip-path="url(#clip0)">
<path d="M161.052 0.264648C156.314 0.264648 152.486 4.06081 152.486 8.73389C152.486 13.407 156.326 17.2031 161.052 17.2031C165.791 17.2031 169.618 13.407 169.618 8.73389C169.618 4.06081 165.779 0.264648 161.052 0.264648ZM161.052 14.8954C157.61 14.8954 154.82 12.1377 154.82 8.73389C154.82 5.33004 157.61 2.57234 161.052 2.57234C164.495 2.57234 167.284 5.33004 167.284 8.73389C167.273 12.1377 164.483 14.8954 161.052 14.8954Z" fill="currentColor"/>
<path d="M64.7711 0.264648C62.3554 0.264648 60.5231 2.15696 59.9979 3.70311V0.933879H52.8906V3.25311H57.6755V14.33L52.8789 14.3416V16.6493L65.9149 16.6377V14.33H59.9979V7.30311C59.9979 6.25311 60.9199 2.43388 64.1059 2.43388C65.0746 2.43388 65.9732 2.68773 66.5451 3.35696C66.3233 3.65696 66.1833 4.02619 66.1833 4.43003C66.1833 5.43388 67.0119 6.25311 68.0272 6.25311C69.1242 6.25311 69.8245 5.37619 69.8245 4.30311C69.8361 2.54927 67.8171 0.264648 64.7711 0.264648Z" fill="currentColor"/>
<path d="M125.458 0.264648C123.042 0.264648 121.21 2.14542 120.684 3.69157V0.933879H113.577V3.25311H118.362V14.3069L113.565 14.3185V16.6262L126.601 16.6146V14.3069H120.684V7.28003C120.684 6.23003 121.606 2.4108 124.792 2.4108C125.761 2.4108 126.66 2.66465 127.232 3.33388C127.01 3.63388 126.87 4.00311 126.87 4.40696C126.87 5.4108 127.698 6.23003 128.714 6.23003C129.811 6.23003 130.511 5.35311 130.511 4.28003C130.523 2.53772 128.504 0.264648 125.458 0.264648Z" fill="currentColor"/>
<path d="M86.6885 7.67222C87.7038 7.67222 88.5324 6.85299 88.5324 5.84914C88.5324 5.76837 88.5208 5.69914 88.5208 5.61837C88.2874 3.52991 84.9613 0.287598 80.7366 0.287598C75.94 0.287598 72.0537 4.08375 72.0537 8.77991C72.0537 13.4761 75.94 17.2722 80.7366 17.2722C84.051 17.2722 86.9336 15.4491 88.3924 12.7722L86.5135 11.5145C85.3697 13.5453 83.234 14.953 80.7249 14.953C77.2471 14.953 74.5162 12.1953 74.5162 8.77991C74.5162 5.36452 77.2471 2.60683 80.7249 2.60683C82.6622 2.60683 84.2844 3.33376 85.3697 4.59145C85.0546 4.91453 84.8562 5.36452 84.8562 5.84914C84.8446 6.86453 85.6732 7.67222 86.6885 7.67222Z" fill="currentColor"/>
<path d="M144.329 3.25331H146.254L142.088 13.9264L137.548 3.25331H139.521V0.934082H132.682V3.25331H135.051L140.874 17.0418L137.665 25.2802H140.151L148.74 3.25331H151.168V0.934082H144.329V3.25331Z" fill="currentColor"/>
<path d="M27.9859 6.93583C27.9859 2.8166 25.2083 0.266602 21.8005 0.266602C19.128 0.266602 16.8989 2.18199 15.9186 4.13198C14.9733 1.70891 12.7792 0.266602 10.235 0.266602C7.69087 0.266602 5.52015 2.14737 4.84326 3.69352V0.924293L0 0.935832V3.25506H2.50916V16.6166H4.84326V7.27044C4.84326 6.19737 6.15036 2.38968 9.89659 2.38968C11.6705 2.38968 14.098 3.98198 14.098 7.22429C14.098 8.86275 14.098 16.6166 14.098 16.6166H16.4321C16.4321 16.6166 16.4321 7.38583 16.4321 7.22429C16.4321 6.15121 17.5875 2.38968 21.4737 2.38968C23.2477 2.38968 25.6751 3.82045 25.6751 7.07429C25.6751 8.71275 25.6751 16.6281 25.6751 16.6281H30.5067V14.3435H27.9976L27.9859 6.93583Z" fill="currentColor"/>
<path d="M41.652 0.25293C36.9138 0.25293 33.0625 3.99139 33.0625 8.67601C33.0625 8.83755 33.0975 9.44909 33.1092 9.55294C33.541 13.8452 37.2405 17.2029 41.7454 17.2029C45.0598 17.2029 47.9424 15.3799 49.4012 12.7029L47.5223 11.4452C46.3786 13.476 44.2428 14.8837 41.7337 14.8837C38.536 14.8837 35.8751 12.5529 35.4783 9.5414L49.868 9.55294C49.903 9.26447 49.9147 8.97601 49.9147 8.68755C49.9147 3.99139 46.3902 0.25293 41.652 0.25293ZM35.56 7.2337C36.2135 4.51062 38.6994 2.47985 41.6637 2.47985C44.628 2.47985 46.7753 4.51062 47.4406 7.2337H35.56Z" fill="currentColor"/>
<path d="M107.52 0.934082H105.186V10.2341C105.186 12.3456 102.945 15.2072 100.109 15.2072C98.3353 15.2072 95.9312 13.5456 95.9312 10.5225C95.9312 8.88408 95.9312 0.934082 95.9312 0.934082H91.0996V3.25331H93.6088V10.6495C93.6088 14.7687 96.3863 17.2033 99.7941 17.2033C102.21 17.2033 104.066 15.7264 105.198 14.1918V16.6379L110.041 16.6264V14.3187H107.532L107.52 0.934082Z" fill="currentColor"/>
</g>
<defs>
<clipPath id="clip0">
<rect width="169.619" height="25.0272" fill="white" transform="translate(0 0.25293)"/>
</clipPath>
</defs>
</svg>
