<svg width="65" height="32" viewBox="0 0 65 32" fill="none" xmlns="http://www.w3.org/2000/svg">
<path d="M3.41612 11.2244L0 0.731995H1.46405L3.1024 5.89104C3.55555 7.32023 3.939 8.57513 4.21786 9.83004H4.25272C4.53159 8.60999 4.98475 7.28537 5.43791 5.9259L7.21569 0.731995H8.67974L4.91503 11.2244H3.41612Z" fill="#232323"/>
<path d="M9.41183 7.7037C9.44669 9.5512 10.6319 10.3181 11.9914 10.3181C12.9674 10.3181 13.56 10.1438 14.0829 9.93464L14.3269 10.9107C13.8388 11.1198 13.0022 11.3638 11.8171 11.3638C9.48155 11.3638 8.12207 9.83006 8.12207 7.56427C8.12207 5.29848 9.44669 3.48584 11.6428 3.48584C14.1177 3.48584 14.7452 5.64706 14.7452 7.04139C14.7452 7.32026 14.7103 7.52941 14.7103 7.66885L9.41183 7.7037ZM13.4205 6.72767C13.4554 5.85621 13.072 4.49673 11.5033 4.49673C10.109 4.49673 9.51641 5.78649 9.41183 6.72767H13.4205Z" fill="#232323"/>
<path d="M15.8256 6.03049C15.8256 5.15903 15.8256 4.39215 15.7559 3.69498H16.941L16.9759 5.15904H17.0456C17.3942 4.14814 18.2308 3.52069 19.1371 3.52069C19.2766 3.52069 19.416 3.52069 19.5206 3.55555V4.84531C19.3811 4.81045 19.2417 4.81045 19.0674 4.81045C18.0914 4.81045 17.4291 5.54248 17.2199 6.55337C17.1851 6.72766 17.1502 6.97167 17.1502 7.18082V11.1895H15.7907V6.03049H15.8256Z" fill="#232323"/>
<path d="M21.8907 1.56866C21.8907 2.02182 21.577 2.40527 21.0192 2.40527C20.5312 2.40527 20.1826 2.02182 20.1826 1.56866C20.1826 1.08065 20.5312 0.697205 21.0541 0.697205C21.5421 0.697205 21.8907 1.08065 21.8907 1.56866ZM20.3569 3.69503H21.7164V11.2244H20.3569V3.69503Z" fill="#232323"/>
<path d="M23.5292 11.2244V4.74074H22.4834V3.69499H23.5292V3.34641C23.5292 2.30065 23.7732 1.32462 24.4006 0.697168C24.9235 0.20915 25.5858 0 26.2481 0C26.7361 0 27.1544 0.104575 27.4333 0.20915L27.259 1.2549C27.0498 1.15033 26.771 1.08061 26.3875 1.08061C25.2372 1.08061 24.9235 2.0915 24.9235 3.27669V3.69499H26.7361V4.74074H24.9235V11.2244H23.5292Z" fill="#232323"/>
<path d="M29.5596 1.56866C29.5945 2.02182 29.2459 2.40527 28.6882 2.40527C28.2001 2.40527 27.8516 2.02182 27.8516 1.56866C27.8516 1.08065 28.2001 0.697205 28.723 0.697205C29.2459 0.697205 29.5596 1.08065 29.5596 1.56866ZM28.0259 3.69503H29.3853V11.2244H28.0259V3.69503Z" fill="#232323"/>
<path d="M31.8259 7.7037C31.8608 9.5512 33.0459 10.3181 34.4054 10.3181C35.3814 10.3181 35.974 10.1438 36.4969 9.93464L36.7409 10.9107C36.2529 11.1198 35.4163 11.3638 34.2311 11.3638C31.8956 11.3638 30.5361 9.83006 30.5361 7.56427C30.5361 5.29848 31.8607 3.48584 34.0568 3.48584C36.5318 3.48584 37.1592 5.64706 37.1592 7.04139C37.1592 7.32026 37.1244 7.52941 37.1244 7.66885L31.8259 7.7037ZM35.8346 6.72767C35.8346 5.85621 35.486 4.49673 33.9174 4.49673C32.5231 4.49673 31.9305 5.78649 31.8259 6.72767H35.8346Z" fill="#232323"/>
<path d="M44.7582 0.174316V9.27236C44.7582 9.93466 44.7582 10.7015 44.8279 11.2244H43.6079L43.5381 9.89981H43.5033C43.085 10.7364 42.1787 11.3639 40.9238 11.3639C39.1111 11.3639 37.7168 9.83009 37.7168 7.52944C37.7168 5.01963 39.2506 3.48586 41.0981 3.48586C42.2484 3.48586 43.0153 4.0436 43.3639 4.63619H43.3987V0.174316H44.7582ZM43.3987 6.76255C43.3987 6.58826 43.3987 6.34425 43.329 6.16996C43.1198 5.2985 42.3878 4.56647 41.3421 4.56647C39.9129 4.56647 39.0763 5.82137 39.0763 7.49458C39.0763 9.02835 39.8083 10.2832 41.3072 10.2832C42.2135 10.2832 43.0501 9.69065 43.329 8.6449C43.3639 8.47061 43.3987 8.26146 43.3987 8.05231V6.76255Z" fill="#232323"/>
<path d="M49.8125 11.2244C49.8474 10.7015 49.8822 9.93466 49.8822 9.27235V0.174316H51.2417V4.91506H51.2766C51.7646 4.07846 52.636 3.52072 53.8561 3.52072C55.7384 3.52072 57.063 5.08935 57.0282 7.35514C57.0282 10.0392 55.3201 11.3987 53.6469 11.3987C52.5663 11.3987 51.6949 10.9804 51.1371 9.96952H51.1023L51.0325 11.2244H49.8125ZM51.2417 8.19174C51.2417 8.36604 51.2766 8.54033 51.3114 8.67976C51.5903 9.62094 52.3572 10.2832 53.3681 10.2832C54.7973 10.2832 55.6687 9.09806 55.6687 7.39C55.6687 5.89109 54.9018 4.60133 53.4378 4.60133C52.4966 4.60133 51.6251 5.22878 51.3463 6.27453C51.3114 6.41397 51.2766 6.62312 51.2766 6.83227V8.19174H51.2417Z" fill="#232323"/>
<path d="M58.5272 3.69501L60.1656 8.15688C60.3399 8.6449 60.5142 9.23749 60.6536 9.69065H60.6885C60.8279 9.23749 60.9673 8.6449 61.1765 8.12202L62.6754 3.69501H64.1394L62.0828 9.0632C61.1068 11.6427 60.4444 12.9673 59.5033 13.7691C58.841 14.3617 58.1786 14.6057 57.8301 14.6405L57.4815 13.4902C57.8301 13.3856 58.2832 13.1765 58.6667 12.8279C59.0501 12.549 59.5033 11.9913 59.817 11.2941C59.8867 11.1547 59.9216 11.0501 59.9216 10.9804C59.9216 10.9107 59.8867 10.8061 59.817 10.6318L57.0283 3.69501H58.5272Z" fill="#232323"/>
<path d="M22.7271 16.3494L18.5789 26.8418L16.9057 17.9181C16.6966 16.9072 15.9297 16.3494 15.0582 16.3494H8.26083L8.15625 16.8026C9.55059 17.1163 11.1192 17.6043 12.0952 18.1272C12.6878 18.4409 12.8621 18.7198 13.0364 19.4867L16.2085 31.7917H20.4613L26.9449 16.3494H22.7271Z" fill="#232323"/>
<path d="M28.6533 16.3486L25.3418 31.7909H29.3505L32.6272 16.3486H28.6533Z" fill="#232323"/>
<path d="M37.8907 20.6362C37.8907 20.0784 38.4484 19.4858 39.5988 19.3464C40.1565 19.2767 41.76 19.207 43.5378 20.0436L44.2349 16.7669C43.2589 16.4183 42.0388 16.0697 40.5051 16.0697C36.5661 16.0697 33.7774 18.1612 33.7425 21.1939C33.7077 23.4248 35.7295 24.6449 37.2284 25.3769C38.797 26.1438 39.3199 26.5969 39.285 27.2941C39.285 28.3399 38.0301 28.793 36.9147 28.793C34.8929 28.8279 33.7425 28.2353 32.8014 27.817L32.0693 31.1982C33.0105 31.6165 34.7186 32 36.4964 32C40.6794 32 43.4332 29.9433 43.4332 26.7015C43.5029 22.6928 37.8558 22.4488 37.8907 20.6362Z" fill="#232323"/>
<path d="M49.4287 26.3181L51.5551 20.5316L52.7403 26.3181H49.4287ZM50.9625 16.3486C50.1956 16.3486 49.5333 16.8017 49.2544 17.464L43.2588 31.756H47.4418L48.2784 29.4553H53.4026L53.8906 31.756H57.5856L54.3786 16.3137L50.9625 16.3486Z" fill="#232323"/>
</svg>
