<svg width="105" height="32" viewBox="0 0 105 32" fill="none" xmlns="http://www.w3.org/2000/svg">
<path fill-rule="evenodd" clip-rule="evenodd" d="M51.419 14.232C51.6939 14.4156 52.1063 14.5534 52.5186 14.5534C53.16 14.5534 53.5266 14.232 53.5266 13.727C53.5266 13.2679 53.2517 13.0383 52.6102 12.7629C51.8314 12.4874 51.3274 12.0742 51.3274 11.3856C51.3274 10.651 51.9688 10.1001 52.8851 10.1001C53.3891 10.1001 53.7098 10.1919 53.9389 10.3296L53.7556 10.8347C53.6182 10.7428 53.2975 10.6051 52.8393 10.6051C52.1979 10.6051 51.923 11.0183 51.923 11.3397C51.923 11.7988 52.1979 12.0283 52.8851 12.2579C53.7098 12.5792 54.0764 12.9465 54.0764 13.6811C54.0764 14.4156 53.5266 15.0584 52.427 15.0584C51.9688 15.0584 51.4648 14.9206 51.1899 14.737L51.419 14.232Z" fill="black"/>
<path d="M55.3595 13.3596C55.3595 14.186 55.9093 14.5533 56.5507 14.5533C57.0089 14.5533 57.2838 14.4614 57.5129 14.3696L57.6045 14.8287C57.3754 14.9205 57.0089 15.0583 56.4591 15.0583C55.4053 15.0583 54.7639 14.3696 54.7639 13.3137C54.7639 12.2578 55.4053 11.4314 56.3675 11.4314C57.4671 11.4314 57.7878 12.4414 57.7878 13.0382C57.7878 13.176 57.7878 13.2678 57.7878 13.3596H55.3595ZM57.1922 12.9464C57.1922 12.5332 57.0089 11.9364 56.3217 11.9364C55.6802 11.9364 55.4053 12.5332 55.3595 12.9464H57.1922Z" fill="black"/>
<path fill-rule="evenodd" clip-rule="evenodd" d="M61.0405 14.8749C60.8573 14.9667 60.4908 15.0585 60.0326 15.0585C58.9788 15.0585 58.3374 14.3699 58.3374 13.3139C58.3374 12.258 59.0705 11.4775 60.17 11.4775C60.5366 11.4775 60.8573 11.5694 61.0405 11.6612L60.9031 12.1203C60.7656 12.0285 60.5366 11.9366 60.17 11.9366C59.3912 11.9366 58.933 12.5335 58.933 13.268C58.933 14.0485 59.437 14.5535 60.1242 14.5535C60.4907 14.5535 60.7198 14.4617 60.9031 14.3699L61.0405 14.8749Z" fill="black"/>
<path fill-rule="evenodd" clip-rule="evenodd" d="M64.6144 14.0485C64.6144 14.4158 64.6144 14.7371 64.6602 14.9667H64.1104L64.0646 14.4158C63.9272 14.6912 63.5148 15.0585 62.9192 15.0585C62.3694 15.0585 61.728 14.7371 61.728 13.5435V11.5234H62.3694V13.4058C62.3694 14.0485 62.5985 14.5076 63.1483 14.5076C63.5607 14.5076 63.8814 14.2321 63.973 13.9108C64.0188 13.8189 64.0188 13.7271 64.0188 13.5894V11.4775H64.6602V14.0485" fill="black"/>
<path fill-rule="evenodd" clip-rule="evenodd" d="M65.6681 12.6253C65.6681 12.2121 65.6681 11.8907 65.6223 11.5693H66.1721L66.2179 12.258C66.3554 11.7989 66.7677 11.5234 67.1801 11.5234C67.2259 11.5234 67.3175 11.5234 67.3633 11.5234V12.1203C67.2717 12.1203 67.2259 12.1203 67.1342 12.1203C66.6761 12.1203 66.4012 12.4416 66.3096 12.9007C66.3096 12.9925 66.3096 13.0844 66.3096 13.2221V15.0585H65.6681V12.6253Z" fill="black"/>
<path d="M68.375 10.9265C68.1182 10.9265 67.9127 10.7428 67.9127 10.5133C67.9127 10.2837 68.1182 10.1001 68.375 10.1001C68.6318 10.1001 68.8372 10.2837 68.8372 10.5133C68.8372 10.7428 68.6831 10.9265 68.375 10.9265ZM68.7345 15.0125H68.0668V11.5692H68.7859V15.0125H68.7345Z" fill="black"/>
<path fill-rule="evenodd" clip-rule="evenodd" d="M70.4329 10.7432V11.5695H71.3492V12.0286H70.4329V13.9109C70.4329 14.3241 70.5703 14.5996 70.891 14.5996C71.0743 14.5996 71.1659 14.5996 71.2575 14.5537L71.3034 15.0128C71.1659 15.0587 70.9826 15.1046 70.7536 15.1046C70.4787 15.1046 70.2496 15.0128 70.0663 14.8291C69.8831 14.6455 69.8373 14.3241 69.8373 13.9109V12.0286H69.2875V11.5695H69.8373V10.9268L70.4329 10.7432Z" fill="black"/>
<path fill-rule="evenodd" clip-rule="evenodd" d="M72.3572 11.5693L73.0903 13.5894C73.1819 13.8189 73.2736 14.0944 73.3194 14.278C73.3652 14.0944 73.4568 13.8189 73.5485 13.5435L74.2357 11.5234H74.8771L73.915 14.0026C73.4568 15.1962 73.1819 15.793 72.7238 16.1603C72.4031 16.4358 72.1282 16.5276 71.9449 16.5735L71.8074 16.0685C71.9449 16.0226 72.174 15.9308 72.3572 15.7471C72.5405 15.6094 72.7238 15.3799 72.8612 15.0585C72.907 15.0126 72.907 14.9667 72.907 14.9208C72.907 14.8749 72.907 14.8289 72.8612 14.783L71.5784 11.6153H72.3572" fill="black"/>
<path fill-rule="evenodd" clip-rule="evenodd" d="M51.419 21.3479C51.6939 21.5316 52.1063 21.6693 52.5186 21.6693C53.16 21.6693 53.5266 21.3479 53.5266 20.8429C53.5266 20.3838 53.2517 20.1543 52.6102 19.8788C51.8314 19.6034 51.3274 19.1902 51.3274 18.5015C51.3274 17.767 51.9688 17.2161 52.8851 17.2161C53.3891 17.2161 53.7098 17.3079 53.9389 17.4456L53.7556 17.9506C53.6182 17.8588 53.2975 17.7211 52.8393 17.7211C52.1979 17.7211 51.923 18.1343 51.923 18.4556C51.923 18.9147 52.1979 19.1443 52.8851 19.3738C53.7098 19.6952 54.0764 20.0625 54.0764 20.797C54.0764 21.5316 53.5266 22.1743 52.427 22.1743C51.9688 22.1743 51.4648 22.0366 51.1899 21.853L51.419 21.3479Z" fill="black"/>
<path fill-rule="evenodd" clip-rule="evenodd" d="M55.6799 17.8591V18.6855H56.5963V19.1446H55.6799V20.981C55.6799 21.3942 55.8174 21.6696 56.1381 21.6696C56.3214 21.6696 56.413 21.6696 56.5046 21.6237L56.5505 22.0828C56.413 22.1287 56.2297 22.1746 56.0007 22.1746C55.7258 22.1746 55.4967 22.0828 55.3134 21.8992C55.1302 21.7155 55.0843 21.3942 55.0843 20.981V19.0987H54.5345V18.6396H55.0843V17.9969L55.6799 17.8591Z" fill="black"/>
<path d="M59.7118 21.3024C59.7118 21.6238 59.7118 21.8993 59.7576 22.1288H59.2078L59.162 21.7156C58.9787 21.9911 58.6122 22.2206 58.1082 22.2206C57.421 22.2206 57.0544 21.7156 57.0544 21.2106C57.0544 20.3842 57.7875 19.9251 59.1162 19.9251V19.8333C59.1162 19.5579 59.0245 19.0069 58.3373 19.0528C58.0166 19.0528 57.6959 19.1447 57.421 19.3283L57.2835 18.9151C57.5584 18.7315 57.9708 18.6396 58.4289 18.6396C59.4827 18.6396 59.7576 19.3742 59.7576 20.0629V21.3024H59.7118ZM59.1162 20.3842C58.4289 20.3842 57.6501 20.4761 57.6501 21.1647C57.6501 21.5779 57.925 21.7615 58.2457 21.7615C58.7038 21.7615 58.9787 21.4861 59.0704 21.1647C59.0704 21.1188 59.1162 21.027 59.1162 20.9811V20.3842Z" fill="black"/>
<path fill-rule="evenodd" clip-rule="evenodd" d="M60.7198 19.6033C60.7198 19.236 60.7198 18.9605 60.674 18.6851H61.2237L61.2696 19.236C61.4528 18.9146 61.8193 18.5933 62.415 18.5933C62.8731 18.5933 63.652 18.8687 63.652 20.0624V22.1283H63.0106V20.1542C63.0106 19.6033 62.7815 19.1442 62.2317 19.1442C61.8194 19.1442 61.4986 19.4196 61.407 19.7869C61.3612 19.8787 61.3612 19.9706 61.3612 20.0624V22.1283H60.7198V19.6033Z" fill="black"/>
<path d="M67.638 17.0784V21.2562C67.638 21.5775 67.638 21.8989 67.6838 22.1284H67.134L67.0882 21.5316C66.9049 21.8989 66.4926 22.2203 65.9428 22.2203C65.1181 22.2203 64.4767 21.5316 64.4767 20.4757C64.4767 19.3279 65.2097 18.6393 66.0344 18.6393C66.5842 18.6393 66.9049 18.8688 67.0882 19.1443V17.0784H67.638ZM66.9965 20.0625C66.9965 19.9707 66.9966 19.8789 66.9507 19.787C66.8591 19.3739 66.5384 19.0525 66.0344 19.0525C65.393 19.0525 64.9807 19.6034 64.9807 20.3839C64.9807 21.0725 65.3472 21.6693 65.9886 21.6693C66.4009 21.6693 66.7675 21.3939 66.9049 20.9348C66.9507 20.843 66.9507 20.7511 66.9507 20.6593V20.0625H66.9965Z" fill="black"/>
<path d="M71.12 21.3024C71.12 21.6238 71.12 21.8993 71.1658 22.1288H70.616L70.5702 21.7156C70.3869 21.9911 70.0204 22.2206 69.5164 22.2206C68.8292 22.2206 68.4626 21.7156 68.4626 21.2106C68.4626 20.3842 69.1957 19.9251 70.5244 19.9251V19.8333C70.5244 19.5579 70.4327 19.0069 69.7455 19.0528C69.4248 19.0528 69.1041 19.1447 68.8292 19.3283L68.6917 18.9151C68.9666 18.7315 69.379 18.6396 69.8371 18.6396C70.8909 18.6396 71.1658 19.3742 71.1658 20.0629V21.3024H71.12ZM70.4785 20.3842C69.7913 20.3842 69.0124 20.4761 69.0124 21.1647C69.0124 21.5779 69.2873 21.7615 69.608 21.7615C70.0662 21.7615 70.3411 21.4861 70.4327 21.1647C70.4327 21.1188 70.4785 21.027 70.4785 20.9811V20.3842Z" fill="black"/>
<path fill-rule="evenodd" clip-rule="evenodd" d="M72.128 19.7415C72.128 19.3283 72.128 19.0069 72.0822 18.6856H72.632L72.6778 19.3742H72.7236C72.861 18.9151 73.2734 18.6396 73.6857 18.6396C73.7315 18.6396 73.7774 18.6396 73.869 18.6396V19.2365C73.7774 19.2365 73.7315 19.2365 73.6399 19.2365C73.1817 19.2365 72.9068 19.5578 72.8152 20.0169C72.8152 20.1088 72.8152 20.2006 72.8152 20.3383V22.1747H72.1738L72.128 19.7415Z" fill="black"/>
<path d="M77.3513 17.0784V21.2562C77.3513 21.5775 77.3513 21.8989 77.3971 22.1284H76.8473L76.8015 21.5316C76.6182 21.8989 76.2059 22.2203 75.6103 22.2203C74.7856 22.2203 74.1442 21.5316 74.1442 20.4757C74.1442 19.3279 74.8314 18.6393 75.7019 18.6393C76.2517 18.6393 76.5724 18.8688 76.7557 19.1443V17.0784H77.3513ZM76.7557 20.0625C76.7557 19.9707 76.7557 19.8789 76.7099 19.787C76.6182 19.3739 76.2517 19.0525 75.7935 19.0525C75.1521 19.0525 74.7856 19.6034 74.7856 20.3839C74.7856 21.0725 75.1521 21.6693 75.7935 21.6693C76.2059 21.6693 76.6182 21.3939 76.7099 20.9348C76.7099 20.843 76.7557 20.7511 76.7557 20.6593V20.0625Z" fill="black"/>
<path fill-rule="evenodd" clip-rule="evenodd" d="M78.3132 21.4856C78.4965 21.6233 78.8172 21.7151 79.1379 21.7151C79.5961 21.7151 79.7793 21.4856 79.7793 21.2101C79.7793 20.8888 79.5961 20.751 79.1379 20.5674C78.4965 20.3378 78.2216 20.0165 78.2216 19.6033C78.2216 19.0524 78.6798 18.5933 79.4128 18.5933C79.7793 18.5933 80.0542 18.6851 80.2375 18.8228L80.1 19.2819C79.9626 19.1901 79.7335 19.0983 79.4128 19.0983C79.0463 19.0983 78.863 19.3278 78.863 19.5574C78.863 19.8328 79.0463 19.9706 79.5044 20.1542C80.1 20.3837 80.4208 20.6592 80.4208 21.2101C80.4208 21.807 79.9626 22.2661 79.1379 22.2661C78.7714 22.2661 78.4049 22.1742 78.1758 22.0365L78.3132 21.4856Z" fill="black"/>
<path fill-rule="evenodd" clip-rule="evenodd" d="M86.1019 21.9909C85.8728 22.0827 85.4147 22.2205 84.8191 22.2205C83.4904 22.2205 82.4366 21.3482 82.4366 19.7872C82.4366 18.2722 83.4446 17.2622 84.9565 17.2622C85.5521 17.2622 85.9186 17.3999 86.1019 17.4918L85.9645 17.9968C85.7354 17.9049 85.4147 17.8131 85.0023 17.8131C83.8569 17.8131 83.1239 18.5477 83.1239 19.7872C83.1239 20.9809 83.8111 21.7154 84.9565 21.7154C85.323 21.7154 85.7354 21.6236 85.9645 21.5318L86.1019 21.9909Z" fill="black"/>
<path d="M88.1637 22.2201C87.2473 22.2201 86.5143 21.5315 86.5143 20.4297C86.5143 19.2819 87.2932 18.5933 88.2095 18.5933C89.2174 18.5933 89.8589 19.3278 89.8589 20.3378C89.8589 21.6233 88.9884 22.2201 88.1637 22.2201ZM88.1637 21.7151C88.7593 21.7151 89.2174 21.1642 89.2174 20.3837C89.2174 19.7869 88.9425 19.0524 88.1637 19.0524C87.4306 19.0524 87.1099 19.741 87.1099 20.3837C87.1557 21.1642 87.5681 21.7151 88.1637 21.7151Z" fill="black"/>
<path fill-rule="evenodd" clip-rule="evenodd" d="M93.524 21.1642C93.524 21.5315 93.524 21.8529 93.5698 22.0824H93.02L92.9742 21.5315C92.8368 21.807 92.4244 22.1742 91.8288 22.1742C91.279 22.1742 90.6376 21.8529 90.6376 20.6592V18.6392H91.279V20.5215C91.279 21.1642 91.4623 21.6233 92.0579 21.6233C92.4702 21.6233 92.7451 21.3479 92.8826 21.0265C92.9284 20.9347 92.9284 20.8428 92.9284 20.7051V18.5933H93.5698V21.1642" fill="black"/>
<path fill-rule="evenodd" clip-rule="evenodd" d="M94.5778 19.6033C94.5778 19.236 94.5778 18.9605 94.532 18.6851H95.0818L95.1276 19.236C95.3109 18.9146 95.6774 18.5933 96.273 18.5933C96.7312 18.5933 97.51 18.8687 97.51 20.0624V22.1283H96.8686V20.1542C96.8686 19.6033 96.6395 19.1442 96.0897 19.1442C95.6774 19.1442 95.3567 19.4196 95.265 19.7869C95.2192 19.8787 95.2192 19.9706 95.2192 20.0624V22.1283H94.5778V19.6033Z" fill="black"/>
<path fill-rule="evenodd" clip-rule="evenodd" d="M100.992 21.9906C100.809 22.0824 100.488 22.1742 99.9843 22.1742C98.9305 22.1742 98.2891 21.4856 98.2891 20.4297C98.2891 19.3737 99.0221 18.5933 100.122 18.5933C100.488 18.5933 100.809 18.6851 100.992 18.7769L100.855 19.236C100.717 19.1442 100.488 19.0524 100.122 19.0524C99.3428 19.0524 98.8847 19.6492 98.8847 20.3838C98.8847 21.1642 99.3886 21.6692 100.076 21.6692C100.442 21.6692 100.671 21.5774 100.855 21.4856L100.992 21.9906Z" fill="black"/>
<path d="M102.05 18.0424C101.793 18.0424 101.588 17.8588 101.588 17.6293C101.588 17.3997 101.793 17.2161 102.05 17.2161C102.307 17.2161 102.512 17.3997 102.512 17.6293C102.512 17.8588 102.358 18.0424 102.05 18.0424ZM102.409 22.1284H101.69V18.6852H102.409V22.1284Z" fill="black"/>
<path d="M104.299 17.0784H103.375V22.1284H104.299V17.0784Z" fill="black"/>
<path fill-rule="evenodd" clip-rule="evenodd" d="M48.2121 19.833L11.4219 31.4023L0.700928 2.15776L39.3238 0L48.2121 19.833Z" fill="black"/>
<path d="M20.402 13.9566C20.402 14.6912 20.2187 15.3339 19.898 15.9308C19.5773 16.4817 19.1192 16.9867 18.5236 17.354C17.9279 17.7213 17.1949 17.9967 16.3702 18.1804C15.5455 18.364 14.6292 18.4558 13.5754 18.4558H12.8424V22.2204H8.07751V9.68701H13.6671C15.7746 9.68701 17.424 10.0543 18.6152 10.7429C19.8064 11.4316 20.402 12.5334 20.402 13.9566ZM15.8204 14.0025C15.8204 12.9007 14.9957 12.3498 13.3922 12.3498H12.7966V15.7012H13.3464C14.1252 15.7012 14.7666 15.5635 15.179 15.288C15.5913 15.0585 15.8204 14.5994 15.8204 14.0025Z" fill="#F9F9F9"/>
<path fill-rule="evenodd" clip-rule="evenodd" d="M32.2222 22.2202C31.4891 22.3579 30.6644 22.4498 29.7023 22.4498C28.3736 22.4498 27.1824 22.312 26.1745 21.9907C25.1207 21.6693 24.2502 21.2561 23.5172 20.7052C22.7841 20.1543 22.2343 19.4656 21.8678 18.6852C21.5013 17.8588 21.318 16.9865 21.318 16.0224C21.318 15.0583 21.5013 14.186 21.9136 13.3596C22.3259 12.5791 22.8757 11.8905 23.6088 11.2937C24.3418 10.7427 25.2123 10.2836 26.2203 9.96227C27.2283 9.6409 28.3278 9.50317 29.519 9.50317C30.4354 9.50317 31.3059 9.54908 32.0847 9.68681C32.8636 9.87045 32.8636 9.87045 33.4592 10.1V13.4514C33.0011 13.176 32.4513 12.9464 31.8557 12.8087C31.2601 12.625 30.6186 12.5332 29.9772 12.5332C28.8776 12.5332 28.0071 12.8546 27.3199 13.4055C26.6326 14.0023 26.3119 14.8287 26.3119 15.9765C26.3119 16.5274 26.4036 17.0324 26.6326 17.4915C26.8617 17.9047 27.1366 18.272 27.5031 18.5474C27.8697 18.8229 28.282 19.0524 28.786 19.1902C29.29 19.3279 29.7939 19.4197 30.3437 19.4197C30.8935 19.4197 31.4891 19.3738 32.0389 19.2361C32.5887 19.0983 33.1843 18.9606 33.7799 18.6852V21.8529C33.0469 22.0366 32.9552 22.0825 32.2222 22.2202Z" fill="#F9F9F9"/>
<path d="M40.5609 9.68701H35.7502V22.2663H40.5609V9.68701Z" fill="#F9F9F9"/>
<path fill-rule="evenodd" clip-rule="evenodd" d="M41.0649 5.73847C41.0649 6.56485 40.79 7.2535 40.2402 7.71259C39.6904 8.17169 39.0032 8.44715 38.1785 8.44715C37.3538 8.44715 36.6666 8.2176 36.1168 7.71259C35.567 7.2535 35.2921 6.56485 35.2921 5.73847C35.2921 4.86619 35.567 4.22345 36.1168 3.71844C36.6666 3.21344 37.3538 2.98389 38.1785 2.98389C39.0032 2.98389 39.6904 3.21344 40.2402 3.71844C40.79 4.17754 41.0649 4.86619 41.0649 5.73847Z" fill="#F9F9F9"/>
</svg>
