<svg width="15" height="19" viewBox="0 0 15 19" fill="none" xmlns="http://www.w3.org/2000/svg">
<path fill-rule="evenodd" clip-rule="evenodd" d="M5.04228 18.2042H5.01728C3.74728 18.1922 2.83828 17.0652 2.11728 15.9642C0.352275 13.2692 -0.0137246 9.9012 1.24528 7.9552C2.07628 6.6742 3.40728 5.8782 4.72128 5.8782C5.40228 5.8782 5.95028 6.0742 6.43328 6.2462C6.85428 6.3972 7.21828 6.5272 7.62028 6.5272C7.98528 6.5272 8.30028 6.4082 8.66428 6.2692C9.14928 6.0852 9.69928 5.8772 10.5093 5.8772C11.6663 5.8772 12.8563 6.5022 13.6943 7.5482L13.9603 7.8812L13.5863 8.0872C12.5503 8.6562 11.9803 9.6942 12.0623 10.8632C12.1463 12.0562 12.8823 13.0562 13.9823 13.4732L14.3383 13.6082L14.1823 13.9552C13.8183 14.7622 13.6373 15.1352 13.1723 15.8432C12.4133 17.0032 11.4683 18.1912 10.2253 18.2022C9.69128 18.2122 9.33228 18.0442 8.98928 17.8862C8.62428 17.7182 8.27728 17.5482 7.63628 17.5632C6.99528 17.5672 6.64228 17.7242 6.26828 17.8912C5.92428 18.0452 5.56828 18.2042 5.04228 18.2042ZM4.72128 6.5952C3.64828 6.5952 2.54728 7.2652 1.84728 8.3452C0.916276 9.7832 0.904275 12.8042 2.71728 15.5712C3.29828 16.4592 4.08628 17.4792 5.02428 17.4872C5.39728 17.4792 5.65828 17.3792 5.97628 17.2372C6.38128 17.0562 6.84028 16.8512 7.63228 16.8462C8.43828 16.8512 8.90828 17.0602 9.28928 17.2352C9.59228 17.3742 9.83328 17.4852 10.2013 17.4852H10.2183C11.1303 17.4772 11.9553 16.3932 12.5733 15.4502C12.9453 14.8832 13.1183 14.5562 13.3783 13.9902C12.2093 13.4072 11.4423 12.2592 11.3473 10.9132C11.2553 9.6062 11.8173 8.4312 12.8663 7.6922C12.1933 6.9982 11.3363 6.5932 10.5093 6.5932C9.83128 6.5932 9.36728 6.7702 8.91828 6.9402C8.52428 7.0892 8.11728 7.2442 7.62028 7.2442C7.09328 7.2442 6.63528 7.0802 6.19228 6.9212C5.74228 6.7612 5.27728 6.5952 4.72128 6.5952Z"/>
<path fill-rule="evenodd" clip-rule="evenodd" d="M7.7685 4.75813C7.7415 4.75813 7.7145 4.75813 7.6885 4.75713L7.4065 4.75013L7.3475 4.47413C7.1715 3.65813 7.5125 2.71013 8.2595 1.93713C8.9325 1.24213 10.0355 0.737133 11.0045 0.680133L11.3245 0.661133L11.3785 0.977133C11.5285 1.83113 11.2045 2.76813 10.4915 3.54713C9.8135 4.28813 8.7535 4.75813 7.7685 4.75813ZM10.6985 1.44013C10.0005 1.57113 9.2355 1.96013 8.7755 2.43613C8.5825 2.63513 8.0155 3.28513 8.0165 4.02813C8.7285 3.95713 9.4805 3.59113 9.9625 3.06413C10.1945 2.81013 10.6805 2.19113 10.6985 1.44013Z"/>
</svg>
