<svg width="1360" height="311" viewBox="0 0 1360 311" fill="none" xmlns="http://www.w3.org/2000/svg">
<path d="M13.2779 310.517C13.2779 310.517 3.4718 302.931 3.4718 268.45V107.981C3.4718 74.9938 24.4762 59.2313 52.2483 59.2313C95.5476 59.2313 97.8543 10.2274 155.035 10.2274H195.163C243.168 10.2274 258.583 56.9461 291.7 56.9461C342.011 56.9461 339.552 56.418 390.554 56.418C431.516 56.418 428.823 74.9329 470.059 74.9329H633.522C688.578 74.9329 700.589 10.1868 766.641 10.1868H1037.1C1110.61 10.1868 1122.45 68.9407 1182.61 68.9407H1287.61C1316.62 68.9407 1337.98 82.8954 1337.98 112.877C1337.98 155.045 1291.52 167.456 1291.52 192.949C1291.52 224.169 1337.12 221.874 1337.12 260.853V311.827C1337.12 311.827 10.7171 307.958 13.2779 310.517Z" fill="#EADDCF"/>
<path d="M608.828 62.0039L593.911 135.708L621.622 178.323L673.63 128.893L669.789 89.2633L608.828 62.0039Z" fill="#FBFBFB"/>
<path d="M897.27 176.475H863.127V310.639H897.27V176.475Z" stroke="#232323" stroke-miterlimit="10"/>
<path d="M854.032 258.984H819.888V310.639H854.032V258.984Z" fill="#FBFBFB" stroke="#232323" stroke-miterlimit="10"/>
<path d="M740.159 78.9546L770.39 121.712C770.917 122.303 771.26 123.036 771.376 123.819C771.493 124.602 771.377 125.402 771.045 126.12C770.712 126.839 770.177 127.445 769.505 127.863C768.833 128.282 768.052 128.495 767.261 128.476H750.311" fill="#FBFBFB"/>
<path d="M740.159 78.9546L770.39 121.712C770.917 122.303 771.26 123.036 771.376 123.819C771.493 124.602 771.377 125.402 771.045 126.12C770.712 126.839 770.177 127.445 769.505 127.863C768.833 128.282 768.052 128.495 767.261 128.476H750.311" stroke="#232323" stroke-miterlimit="10"/>
<path d="M130.88 17.8345V309.664" stroke="#232323" stroke-miterlimit="10"/>
<path d="M170.419 17.8345V309.664" stroke="#232323" stroke-miterlimit="10"/>
<path d="M209.949 17.8345V309.664" stroke="#232323" stroke-miterlimit="10"/>
<path d="M249.488 17.8345V309.664" stroke="#232323" stroke-miterlimit="10"/>
<path d="M289.028 17.8345V309.664" stroke="#232323" stroke-miterlimit="10"/>
<path d="M328.557 17.8345V309.664" stroke="#232323" stroke-miterlimit="10"/>
<path d="M346.767 33.6577H112.68" stroke="#232323" stroke-miterlimit="10"/>
<path d="M346.767 70.5454H112.68" stroke="#232323" stroke-miterlimit="10"/>
<path d="M346.767 107.443H112.68" stroke="#232323" stroke-miterlimit="10"/>
<path d="M346.767 144.331H112.68" stroke="#232323" stroke-miterlimit="10"/>
<path d="M346.767 181.228H112.68" stroke="#232323" stroke-miterlimit="10"/>
<path d="M346.767 218.116H112.68" stroke="#232323" stroke-miterlimit="10"/>
<path d="M346.767 255.013H112.68" stroke="#232323" stroke-miterlimit="10"/>
<path d="M346.767 291.901H112.68" stroke="#232323" stroke-miterlimit="10"/>
<path d="M706.239 46.2415C717.091 51.8562 726.556 59.8154 733.947 69.5413C741.338 79.2673 746.469 90.5159 748.969 102.471C751.468 114.426 751.273 126.787 748.398 138.657C745.522 150.527 740.038 161.608 732.344 171.097C724.65 180.585 714.939 188.242 703.915 193.511C692.891 198.781 680.832 201.532 668.612 201.564C656.392 201.595 644.319 198.907 633.268 193.695C622.217 188.482 612.466 180.875 604.723 171.427" fill="#FBFBFB"/>
<path d="M706.239 46.2415C717.091 51.8562 726.556 59.8154 733.947 69.5413C741.338 79.2673 746.469 90.5159 748.969 102.471C751.468 114.426 751.273 126.787 748.398 138.657C745.522 150.527 740.038 161.608 732.344 171.097C724.65 180.585 714.939 188.242 703.915 193.511C692.891 198.781 680.832 201.532 668.612 201.563C656.392 201.595 644.319 198.907 633.268 193.695C622.217 188.482 612.466 180.875 604.723 171.427" stroke="#232323" stroke-miterlimit="10"/>
<path d="M714.074 117.335C722.419 117.335 729.184 110.574 729.184 102.233C729.184 93.8919 722.419 87.1304 714.074 87.1304C705.728 87.1304 698.963 93.8919 698.963 102.233C698.963 110.574 705.728 117.335 714.074 117.335Z" fill="#FBFBFB" stroke="#232323" stroke-miterlimit="10"/>
<path d="M714.44 87.1509V117.335C718.445 117.335 722.285 115.745 725.117 112.915C727.949 110.085 729.54 106.246 729.54 102.243C729.54 98.2404 727.949 94.4016 725.117 91.5713C722.285 88.7409 718.445 87.1509 714.44 87.1509Z" fill="#232323"/>
<path d="M703.526 91.3757L717.824 77.7156" stroke="#232323" stroke-miterlimit="10"/>
<path d="M685.926 128.314C685.926 124.543 687.425 120.926 690.093 118.26C692.761 115.593 696.379 114.095 700.152 114.095C703.925 114.095 707.544 115.593 710.212 118.26C712.88 120.926 714.379 124.543 714.379 128.314" stroke="#232323" stroke-miterlimit="10"/>
<path d="M665.033 133.484C665.033 133.484 661.903 138.805 655.959 138.805C648.785 138.805 642.19 131.899 642.19 119.773C642.19 110.043 646.518 104.234 653.185 104.234C663.59 104.234 664.363 118.727 674.788 118.727C680.367 118.727 683.853 113.506 683.853 107.504V78.4062C683.853 67.6304 690.631 61.3335 700.244 61.3335C701.666 61.3335 711.422 61.1 712.885 61.1C729.479 61.1 736.348 53.6757 736.348 42.9304C736.348 31.85 728.117 24.8523 715.161 24.8523C702.459 24.8523 694.766 32.0937 675.916 32.0937H632.516C602.965 32.0937 592.305 51.9085 592.305 51.9085" fill="#FBFBFB"/>
<path d="M665.033 133.484C665.033 133.484 661.903 138.805 655.959 138.805C648.785 138.805 642.19 131.899 642.19 119.773C642.19 110.043 646.518 104.234 653.185 104.234C663.59 104.234 664.363 118.727 674.788 118.727C680.367 118.727 683.853 113.506 683.853 107.504V78.4062C683.853 67.6304 690.631 61.3335 700.244 61.3335C701.666 61.3335 711.422 61.1 712.885 61.1C729.479 61.1 736.348 53.6757 736.348 42.9304C736.348 31.85 728.117 24.8523 715.161 24.8523C702.459 24.8523 694.766 32.0937 675.916 32.0937H632.516C602.965 32.0937 592.305 51.9085 592.305 51.9085" stroke="#232323" stroke-miterlimit="10"/>
<path d="M720.303 145.823C722.317 149.528 725.304 152.614 728.943 154.747C732.581 156.88 736.733 157.981 740.952 157.93" stroke="#232323" stroke-miterlimit="10"/>
<path d="M547.858 195.741C591.279 195.741 626.479 160.56 626.479 117.162C626.479 73.7645 591.279 38.5835 547.858 38.5835C504.436 38.5835 469.236 73.7645 469.236 117.162C469.236 160.56 504.436 195.741 547.858 195.741Z" fill="#232323"/>
<path d="M547.736 44.2202V190.785" stroke="#FBFBFB" stroke-miterlimit="10"/>
<path d="M523.703 117.163H620.24" stroke="#FBFBFB" stroke-miterlimit="10"/>
<path d="M547.848 117.183L579.644 50.5781" stroke="#FBFBFB" stroke-miterlimit="10"/>
<path d="M547.949 116.99L611.46 79.6453" stroke="#FBFBFB" stroke-miterlimit="10"/>
<path d="M784.119 74.1001C795.119 74.1001 804.036 65.1878 804.036 54.1939C804.036 43.1999 795.119 34.2876 784.119 34.2876C773.119 34.2876 764.202 43.1999 764.202 54.1939C764.202 65.1878 773.119 74.1001 784.119 74.1001Z" stroke="#232323" stroke-miterlimit="10"/>
<path d="M784.119 31.8296V76.5577" stroke="#232323" stroke-miterlimit="10"/>
<path d="M761.743 54.1938H806.495" stroke="#232323" stroke-miterlimit="10"/>
<path d="M569.777 192.369C576.749 197.071 582.027 203.885 584.834 211.808C587.641 219.732 587.829 228.347 585.37 236.386C582.912 244.424 577.936 251.462 571.176 256.462C564.415 261.463 556.228 264.163 547.817 264.164C528.357 264.164 508.461 250.23 508.461 228.617M473.616 247.609C477.038 258.778 482.939 269.029 490.88 277.599C498.821 286.169 508.596 292.835 519.475 297.1C530.355 301.365 542.057 303.12 553.71 302.232C565.363 301.344 576.664 297.836 586.771 291.972C596.878 286.107 605.528 278.037 612.077 268.363C618.626 258.689 622.905 247.662 624.593 236.104C626.28 224.547 625.334 212.757 621.825 201.616C618.316 190.475 612.335 180.27 604.327 171.762L473.616 247.609Z" stroke="#232323" stroke-miterlimit="10"/>
<path d="M422.949 48.6382H377.608L361.654 62.6741V107.991H406.985L422.949 93.9452V48.6382Z" fill="#FBFBFB" stroke="#232323" stroke-miterlimit="10"/>
<path d="M361.654 62.6741H407.158L422.949 48.6382" fill="#FBFBFB"/>
<path d="M361.654 62.6741H407.158L422.949 48.6382" stroke="#232323" stroke-miterlimit="10"/>
<path d="M406.833 107.768V62.8977" stroke="#232323" stroke-miterlimit="10"/>
<path d="M422.98 117.467H377.658L361.613 132.671V311.167H422.98V117.467Z" fill="#FBFBFB" stroke="#232323" stroke-miterlimit="10"/>
<path d="M361.613 132.671H407.412L422.98 117.467" fill="#FBFBFB"/>
<path d="M361.613 132.671H407.412L422.98 117.467" stroke="#232323" stroke-miterlimit="10"/>
<path d="M407.351 132.722V310.233" stroke="#232323" stroke-miterlimit="10"/>
<path d="M92.5702 128.527H54.2501V311.472H92.5702V128.527Z" fill="#232323"/>
<path d="M130.789 168.421H92.4685V311.472H130.789V168.421Z" fill="#232323"/>
<path d="M54.3721 34.897H11.9264V311.167H54.3721V34.897Z" fill="#232323"/>
<path d="M660.176 115.781C660.176 115.781 658.377 110.642 653.804 110.642C649.862 110.642 647.89 113.963 647.89 119.529C647.89 126.445 651.792 130.173 655.115 130.173C655.472 130.19 655.828 130.131 656.159 129.999C656.491 129.866 656.79 129.664 657.036 129.406C657.282 129.147 657.469 128.839 657.585 128.501C657.701 128.164 657.742 127.806 657.707 127.451C657.707 125.643 656.304 123.947 656.751 121.926C657.29 119.488 660.115 120.098 660.115 120.098" stroke="#232323" stroke-miterlimit="10"/>
<path d="M35.4102 312.609H25.2484V285.736C25.2471 276.842 26.9987 268.034 30.4033 259.817C33.8079 251.599 38.7988 244.132 45.0909 237.843C51.383 231.553 58.8531 226.564 67.0746 223.16C75.2961 219.756 84.108 218.004 93.0071 218.004H162.26C164.367 218.004 166.388 217.167 167.879 215.678C169.369 214.188 170.206 212.168 170.206 210.062V149.825C170.206 131.21 177.605 113.357 190.775 100.193C203.946 87.0302 221.808 79.6353 240.434 79.6353C259.061 79.6353 276.924 87.0299 290.096 100.193C303.268 113.356 310.669 131.209 310.672 149.825V214.825C310.672 215.688 311.014 216.516 311.624 217.127C312.233 217.738 313.061 218.083 313.924 218.085H559.503C560.097 218.085 560.684 217.968 561.232 217.741C561.78 217.514 562.278 217.181 562.697 216.761C563.116 216.341 563.448 215.843 563.675 215.294C563.901 214.746 564.016 214.159 564.015 213.566V160.174C564.015 156.942 565.3 153.842 567.587 151.556C569.873 149.271 572.975 147.987 576.209 147.987H647.596C649.978 147.989 652.337 148.461 654.536 149.376C656.736 150.29 658.734 151.629 660.416 153.315C662.097 155.002 663.43 157.003 664.338 159.205C665.245 161.406 665.709 163.765 665.704 166.146C665.708 167.185 665.917 168.213 666.318 169.172C666.72 170.13 667.306 171 668.044 171.732C668.782 172.464 669.657 173.043 670.619 173.437C671.581 173.831 672.611 174.031 673.65 174.027H812.125C823.84 174.027 835.076 178.679 843.36 186.958C851.644 195.238 856.298 206.468 856.298 218.177C856.298 227.192 859.881 235.838 866.26 242.213C872.638 248.588 881.289 252.17 890.309 252.17H1003.93C1008.23 252.17 1012.49 251.322 1016.47 249.676C1020.45 248.03 1024.06 245.618 1027.1 242.576C1030.14 239.535 1032.56 235.924 1034.21 231.95C1035.85 227.976 1036.7 223.717 1036.7 219.416V186.449C1036.7 170.639 1042.99 155.478 1054.17 144.299C1065.36 133.121 1080.53 126.841 1096.35 126.841C1112.17 126.841 1127.34 133.122 1138.52 144.3C1149.71 155.478 1155.99 170.64 1155.99 186.449V195.406C1155.99 197.513 1156.83 199.533 1158.32 201.022C1159.81 202.512 1161.83 203.349 1163.94 203.349H1193.71C1252.65 203.349 1300.95 251.581 1300.95 310.538H1290.78C1290.78 257.166 1247.09 213.505 1193.71 213.505H1163.94C1159.13 213.505 1154.53 211.598 1151.13 208.204C1147.73 204.81 1145.83 200.206 1145.83 195.406V186.449C1145.83 173.333 1140.61 160.755 1131.34 151.482C1122.06 142.208 1109.47 136.998 1096.35 136.998C1089.85 136.996 1083.42 138.275 1077.41 140.759C1071.41 143.244 1065.95 146.886 1061.36 151.478C1056.76 156.07 1053.12 161.522 1050.63 167.522C1048.14 173.522 1046.86 179.954 1046.86 186.449V219.436C1046.86 230.815 1042.34 241.728 1034.29 249.774C1026.24 257.821 1015.32 262.343 1003.94 262.346H890.309C878.594 262.346 867.358 257.695 859.074 249.415C850.79 241.136 846.136 229.906 846.136 218.197C846.136 209.181 842.553 200.535 836.174 194.16C829.796 187.785 821.145 184.204 812.125 184.204H673.681C671.298 184.201 668.94 183.729 666.74 182.815C664.54 181.901 662.543 180.562 660.861 178.876C659.179 177.189 657.846 175.188 656.939 172.986C656.032 170.785 655.567 168.426 655.573 166.045C655.569 165.006 655.36 163.978 654.958 163.019C654.557 162.061 653.97 161.191 653.233 160.459C652.495 159.727 651.62 159.148 650.658 158.754C649.696 158.36 648.666 158.159 647.626 158.163H576.86C576.15 158.163 575.469 158.444 574.966 158.945C574.463 159.446 574.18 160.125 574.177 160.834V215.983C574.177 219.245 572.88 222.373 570.573 224.68C568.265 226.986 565.135 228.282 561.871 228.282H312.522C309.335 228.279 306.28 227.012 304.028 224.759C301.775 222.507 300.51 219.452 300.51 216.267V149.825C300.51 141.941 298.956 134.133 295.937 126.849C292.918 119.565 288.492 112.946 282.914 107.371C277.335 101.797 270.712 97.3747 263.423 94.3584C256.135 91.342 248.323 89.7902 240.434 89.7915C224.504 89.7942 209.228 96.12 197.964 107.378C186.7 118.636 180.37 133.904 180.368 149.825V210.062C180.368 214.862 178.46 219.465 175.064 222.859C171.668 226.253 167.062 228.16 162.26 228.16H93.0071C77.7305 228.163 63.0805 234.23 52.2793 245.027C41.4781 255.825 35.4102 270.468 35.4102 285.736V312.609Z" fill="#FBFBFB" stroke="#232323" stroke-miterlimit="10"/>
<path d="M113.666 232.832C119.104 232.832 123.513 228.426 123.513 222.991C123.513 217.556 119.104 213.149 113.666 213.149C108.228 213.149 103.819 217.556 103.819 222.991C103.819 228.426 108.228 232.832 113.666 232.832Z" fill="#FBFBFB" stroke="#232323" stroke-miterlimit="10"/>
<path d="M74.3095 236.153C79.7477 236.153 84.1563 231.747 84.1563 226.312C84.1563 220.876 79.7477 216.47 74.3095 216.47C68.8713 216.47 64.4628 220.876 64.4628 226.312C64.4628 231.747 68.8713 236.153 74.3095 236.153Z" fill="#FBFBFB" stroke="#232323" stroke-miterlimit="10"/>
<path d="M40.6538 261.402C46.092 261.402 50.5005 256.995 50.5005 251.56C50.5005 246.125 46.092 241.719 40.6538 241.719C35.2155 241.719 30.807 246.125 30.807 251.56C30.807 256.995 35.2155 261.402 40.6538 261.402Z" fill="#FBFBFB" stroke="#232323" stroke-miterlimit="10"/>
<path d="M30.2989 299.01C35.7371 299.01 40.1457 294.604 40.1457 289.169C40.1457 283.733 35.7371 279.327 30.2989 279.327C24.8607 279.327 20.4521 283.733 20.4521 289.169C20.4521 294.604 24.8607 299.01 30.2989 299.01Z" fill="#FBFBFB" stroke="#232323" stroke-miterlimit="10"/>
<path d="M1215.74 220.726C1221.18 220.726 1225.59 216.32 1225.59 210.884C1225.59 205.449 1221.18 201.043 1215.74 201.043C1210.3 201.043 1205.89 205.449 1205.89 210.884C1205.89 216.32 1210.3 220.726 1215.74 220.726Z" fill="#FBFBFB" stroke="#232323" stroke-miterlimit="10"/>
<path d="M1248.13 233.614C1253.56 233.614 1257.97 229.208 1257.97 223.773C1257.97 218.337 1253.56 213.931 1248.13 213.931C1242.69 213.931 1238.28 218.337 1238.28 223.773C1238.28 229.208 1242.69 233.614 1248.13 233.614Z" fill="#FBFBFB" stroke="#232323" stroke-miterlimit="10"/>
<path d="M1272.82 256.232C1278.26 256.232 1282.67 251.826 1282.67 246.391C1282.67 240.955 1278.26 236.549 1272.82 236.549C1267.38 236.549 1262.97 240.955 1262.97 246.391C1262.97 251.826 1267.38 256.232 1272.82 256.232Z" fill="#FBFBFB" stroke="#232323" stroke-miterlimit="10"/>
<path d="M1290.3 286.386C1295.73 286.386 1300.14 281.98 1300.14 276.545C1300.14 271.109 1295.73 266.703 1290.3 266.703C1284.86 266.703 1280.45 271.109 1280.45 276.545C1280.45 281.98 1284.86 286.386 1290.3 286.386Z" fill="#FBFBFB" stroke="#232323" stroke-miterlimit="10"/>
<path d="M150.96 232.832C156.398 232.832 160.806 228.426 160.806 222.991C160.806 217.556 156.398 213.149 150.96 213.149C145.521 213.149 141.113 217.556 141.113 222.991C141.113 228.426 145.521 232.832 150.96 232.832Z" fill="#FBFBFB" stroke="#232323" stroke-miterlimit="10"/>
<path d="M805.885 187.342L750.179 187.383L750.138 170.909L805.845 170.869L805.885 187.342Z" fill="#FBFBFB" stroke="#232323" stroke-miterlimit="10"/>
<path d="M757.282 170.808L757.312 187.281" stroke="#232323" stroke-miterlimit="10"/>
<path d="M764.364 170.808L764.405 187.271" stroke="#232323" stroke-miterlimit="10"/>
<path d="M771.447 170.798L771.488 187.271" stroke="#232323" stroke-miterlimit="10"/>
<path d="M778.53 170.788L778.571 187.261" stroke="#232323" stroke-miterlimit="10"/>
<path d="M792.706 170.777L792.746 187.251" stroke="#232323" stroke-miterlimit="10"/>
<path d="M799.788 170.777L799.829 187.241" stroke="#232323" stroke-miterlimit="10"/>
<path d="M785.623 170.788L785.653 187.251" stroke="#232323" stroke-miterlimit="10"/>
<path d="M392.576 231.603L336.869 231.654L336.839 215.18L392.535 215.14L392.576 231.603Z" fill="#FBFBFB" stroke="#232323" stroke-miterlimit="10"/>
<path d="M343.972 215.079L344.003 231.553" stroke="#232323" stroke-miterlimit="10"/>
<path d="M351.055 215.069L351.096 231.542" stroke="#232323" stroke-miterlimit="10"/>
<path d="M358.138 215.069L358.178 231.532" stroke="#232323" stroke-miterlimit="10"/>
<path d="M365.231 215.059L365.261 231.532" stroke="#232323" stroke-miterlimit="10"/>
<path d="M379.396 215.048L379.437 231.522" stroke="#232323" stroke-miterlimit="10"/>
<path d="M386.479 215.048L386.519 231.512" stroke="#232323" stroke-miterlimit="10"/>
<path d="M372.313 215.059L372.344 231.522" stroke="#232323" stroke-miterlimit="10"/>
<path d="M637.779 157.93L582.072 157.96L582.042 148.048L637.739 148.027L637.779 157.93Z" fill="#FBFBFB" stroke="#232323" stroke-miterlimit="10"/>
<path d="M589.176 147.987L589.216 157.899" stroke="#232323" stroke-miterlimit="10"/>
<path d="M596.258 147.987L596.299 157.889" stroke="#232323" stroke-miterlimit="10"/>
<path d="M603.351 147.977L603.382 157.889" stroke="#232323" stroke-miterlimit="10"/>
<path d="M610.434 147.977L610.464 157.889" stroke="#232323" stroke-miterlimit="10"/>
<path d="M624.6 147.966L624.64 157.879" stroke="#232323" stroke-miterlimit="10"/>
<path d="M631.692 147.966L631.723 157.879" stroke="#232323" stroke-miterlimit="10"/>
<path d="M617.517 147.977L617.557 157.879" stroke="#232323" stroke-miterlimit="10"/>
<path d="M518.297 201.165L518.348 117.193L438.853 117.132L438.792 218.664L500.514 218.715L518.297 201.165Z" fill="#FBFBFB" stroke="#232323" stroke-miterlimit="10"/>
<path d="M500.514 218.715L500.524 201.246L518.297 201.256" stroke="#232323" stroke-miterlimit="10"/>
<path d="M450.366 132.052L501.632 132.092" stroke="#232323" stroke-miterlimit="10"/>
<path d="M450.356 147.946L501.622 147.987" stroke="#232323" stroke-miterlimit="10"/>
<path d="M450.356 155.888L494.864 155.929" stroke="#232323" stroke-miterlimit="10"/>
<path d="M450.346 163.841L494.864 163.871" stroke="#232323" stroke-miterlimit="10"/>
<path d="M450.346 171.783L494.854 171.823" stroke="#232323" stroke-miterlimit="10"/>
<path d="M450.366 139.994L487.273 140.024" stroke="#232323" stroke-miterlimit="10"/>
<path d="M501.978 238.662V155.015H422.848V256.151H484.286L501.978 238.662Z" fill="#FBFBFB" stroke="#232323" stroke-miterlimit="10"/>
<path d="M484.286 256.151V238.743H501.978" stroke="#232323" stroke-miterlimit="10"/>
<path d="M434.32 169.863H485.353" stroke="#232323" stroke-miterlimit="10"/>
<path d="M434.32 185.697H485.353" stroke="#232323" stroke-miterlimit="10"/>
<path d="M434.32 193.608H478.626" stroke="#232323" stroke-miterlimit="10"/>
<path d="M434.32 201.53H478.626" stroke="#232323" stroke-miterlimit="10"/>
<path d="M434.32 209.442H478.626" stroke="#232323" stroke-miterlimit="10"/>
<path d="M434.32 177.775H471.065" stroke="#232323" stroke-miterlimit="10"/>
<path d="M486.389 275.854V192.207H407.27V293.343H468.698L486.389 275.854Z" fill="#FBFBFB" stroke="#232323" stroke-miterlimit="10"/>
<path d="M468.698 293.343V275.945H486.389" stroke="#232323" stroke-miterlimit="10"/>
<path d="M418.732 207.065H469.765" stroke="#232323" stroke-miterlimit="10"/>
<path d="M418.732 222.889H469.765" stroke="#232323" stroke-miterlimit="10"/>
<path d="M418.732 230.811H463.038" stroke="#232323" stroke-miterlimit="10"/>
<path d="M418.732 238.723H463.038" stroke="#232323" stroke-miterlimit="10"/>
<path d="M418.732 246.645H463.038" stroke="#232323" stroke-miterlimit="10"/>
<path d="M418.732 214.978H455.477" stroke="#232323" stroke-miterlimit="10"/>
<path d="M547.736 263.9V310.476" stroke="#232323" stroke-miterlimit="10"/>
<path d="M554.615 263.798L561.16 301.509" stroke="#232323" stroke-miterlimit="10"/>
<path d="M560.692 261.93L572.856 298.228" stroke="#232323" stroke-miterlimit="10"/>
<path d="M566.312 260.061L583.607 293.719" stroke="#232323" stroke-miterlimit="10"/>
<path d="M570.823 256.638L593.118 287.798" stroke="#232323" stroke-miterlimit="10"/>
<path d="M648.053 147.977C649.337 144.597 650.207 141.074 650.644 137.485" stroke="#232323" stroke-miterlimit="10"/>
<path d="M604.693 172.118C604.693 172.118 628.471 173.936 642.007 158.143" stroke="#232323" stroke-miterlimit="10"/>
<path d="M181.506 126.994C184.301 126.994 186.566 124.729 186.566 121.936C186.566 119.143 184.301 116.878 181.506 116.878C178.711 116.878 176.445 119.143 176.445 121.936C176.445 124.729 178.711 126.994 181.506 126.994Z" fill="#FBFBFB" stroke="#232323" stroke-miterlimit="10"/>
<path d="M224.195 91.8937C226.99 91.8937 229.256 89.6292 229.256 86.8359C229.256 84.0425 226.99 81.7781 224.195 81.7781C221.401 81.7781 219.135 84.0425 219.135 86.8359C219.135 89.6292 221.401 91.8937 224.195 91.8937Z" fill="#FBFBFB" stroke="#232323" stroke-miterlimit="10"/>
<path d="M275.391 100.069C278.185 100.069 280.451 97.805 280.451 95.0117C280.451 92.2183 278.185 89.9539 275.391 89.9539C272.596 89.9539 270.33 92.2183 270.33 95.0117C270.33 97.805 272.596 100.069 275.391 100.069Z" fill="#FBFBFB" stroke="#232323" stroke-miterlimit="10"/>
<path d="M302.339 134.55C305.134 134.55 307.4 132.285 307.4 129.492C307.4 126.699 305.134 124.434 302.339 124.434C299.545 124.434 297.279 126.699 297.279 129.492C297.279 132.285 299.545 134.55 302.339 134.55Z" fill="#FBFBFB" stroke="#232323" stroke-miterlimit="10"/>
<path d="M1341.15 245.263H1323.78V262.62H1341.15V245.263Z" fill="#FBFBFB" stroke="#232323" stroke-miterlimit="10"/>
<path d="M1341.04 245.385L1323.89 262.529" stroke="#232323" stroke-miterlimit="10"/>
<path d="M1323.89 245.385L1341.04 262.529" stroke="#232323" stroke-miterlimit="10"/>
<path d="M1341.15 273.071H1323.78V290.428H1341.15V273.071Z" fill="#FBFBFB" stroke="#232323" stroke-miterlimit="10"/>
<path d="M1341.04 273.193L1323.89 290.337" stroke="#232323" stroke-miterlimit="10"/>
<path d="M1323.89 273.193L1341.04 290.337" stroke="#232323" stroke-miterlimit="10"/>
<path d="M175.907 65.1829H164.902V76.1821H175.907V65.1829Z" fill="#232323"/>
<path d="M255.453 28.7017H244.448V39.7009H255.453V28.7017Z" fill="#232323"/>
<path d="M255.453 139.029H244.448V150.028H255.453V139.029Z" fill="#232323"/>
<path d="M215.395 212.662H204.39V223.661H215.395V212.662Z" fill="#232323"/>
<path d="M294.434 249.569H283.428V260.569H294.434V249.569Z" fill="#232323"/>
<path d="M254.975 286.467H243.97V297.467H254.975V286.467Z" fill="#232323"/>
<path d="M175.907 286.406H164.902V297.405H175.907V286.406Z" fill="#232323"/>
<path d="M255.453 175.114H244.448V186.113H255.453V175.114Z" fill="#232323"/>
<path d="M136.51 139.029H125.504V150.028H136.51V139.029Z" fill="#232323"/>
<path d="M136.398 101.948H125.393V112.948H136.398V101.948Z" fill="#232323"/>
<path d="M333.678 65.1829H322.673V76.1821H333.678V65.1829Z" fill="#232323"/>
<path d="M334.085 138.897H323.08V149.896H334.085V138.897Z" fill="#232323"/>
<path d="M294.525 175.825H283.52V186.824H294.525V175.825Z" fill="#232323"/>
<path d="M1163.26 114.674H1008.01C1003 114.674 998.939 118.735 998.939 123.744V183.229C998.939 188.238 1003 192.299 1008.01 192.299H1163.26C1168.28 192.299 1172.34 188.238 1172.34 183.229V123.744C1172.34 118.735 1168.28 114.674 1163.26 114.674Z" fill="#232323"/>
<path d="M1128.97 124.028H1013.13C1010.24 124.028 1007.89 126.372 1007.89 129.264C1007.89 132.155 1010.24 134.499 1013.13 134.499H1128.97C1131.86 134.499 1134.21 132.155 1134.21 129.264C1134.21 126.372 1131.86 124.028 1128.97 124.028Z" stroke="#FBFBFB" stroke-miterlimit="10"/>
<path d="M1128.97 142.391H1013.13C1010.24 142.391 1007.89 144.735 1007.89 147.626C1007.89 150.518 1010.24 152.862 1013.13 152.862H1128.97C1131.86 152.862 1134.21 150.518 1134.21 147.626C1134.21 144.735 1131.86 142.391 1128.97 142.391Z" stroke="#FBFBFB" stroke-miterlimit="10"/>
<path d="M1034.57 183.158C1038.16 183.158 1041.08 180.257 1041.08 176.678C1041.08 173.1 1038.16 170.198 1034.57 170.198C1030.97 170.198 1028.05 173.1 1028.05 176.678C1028.05 180.257 1030.97 183.158 1034.57 183.158Z" stroke="#FBFBFB" stroke-miterlimit="10"/>
<path d="M1014.42 183.158C1018.01 183.158 1020.93 180.257 1020.93 176.678C1020.93 173.1 1018.01 170.198 1014.42 170.198C1010.82 170.198 1007.9 173.1 1007.9 176.678C1007.9 180.257 1010.82 183.158 1014.42 183.158Z" stroke="#FBFBFB" stroke-miterlimit="10"/>
<path d="M1054.73 183.158C1058.32 183.158 1061.24 180.257 1061.24 176.678C1061.24 173.1 1058.32 170.198 1054.73 170.198C1051.13 170.198 1048.21 173.1 1048.21 176.678C1048.21 180.257 1051.13 183.158 1054.73 183.158Z" stroke="#FBFBFB" stroke-miterlimit="10"/>
<path d="M1054.73 179.38C1056.23 179.38 1057.44 178.17 1057.44 176.678C1057.44 175.186 1056.23 173.977 1054.73 173.977C1053.23 173.977 1052.01 175.186 1052.01 176.678C1052.01 178.17 1053.23 179.38 1054.73 179.38Z" stroke="#FBFBFB" stroke-miterlimit="10"/>
<path d="M533.642 10.7961H459.268C445.394 10.7961 434.148 22.0366 434.148 35.9024C434.148 49.7682 445.394 61.0086 459.268 61.0086H533.642C547.515 61.0086 558.761 49.7682 558.761 35.9024C558.761 22.0366 547.515 10.7961 533.642 10.7961Z" fill="#FBFBFB" stroke="#232323" stroke-miterlimit="10"/>
<path d="M460.091 48.9227C467.286 48.9227 473.118 43.0933 473.118 35.9024C473.118 28.7115 467.286 22.8821 460.091 22.8821C452.896 22.8821 447.063 28.7115 447.063 35.9024C447.063 43.0933 452.896 48.9227 460.091 48.9227Z" fill="#232323"/>
<path d="M458.841 43.1742L453.384 37.4969C453.219 37.3265 453.09 37.1252 453.003 36.9047C452.916 36.6841 452.874 36.4486 452.879 36.2117C452.884 35.9748 452.935 35.7411 453.031 35.5242C453.126 35.3073 453.263 35.1113 453.435 34.9476C453.605 34.783 453.807 34.6536 454.027 34.567C454.248 34.4803 454.484 34.4382 454.721 34.4429C454.958 34.4476 455.191 34.4991 455.408 34.5945C455.626 34.6898 455.822 34.8271 455.985 34.9984L458.587 37.7305L464.684 30.2555C464.833 30.072 465.016 29.9197 465.224 29.8072C465.431 29.6946 465.659 29.6241 465.894 29.5996C466.129 29.575 466.367 29.597 466.593 29.6643C466.82 29.7315 467.031 29.8427 467.214 29.9914C467.398 30.1394 467.552 30.3222 467.665 30.5294C467.779 30.7366 467.85 30.9641 467.876 31.199C467.901 31.4339 467.88 31.6715 467.814 31.8982C467.747 32.1249 467.637 32.3363 467.488 32.5203L458.841 43.1742Z" fill="#FBFBFB"/>
<path d="M496.195 48.9227C503.39 48.9227 509.223 43.0933 509.223 35.9024C509.223 28.7115 503.39 22.8821 496.195 22.8821C489.001 22.8821 483.168 28.7115 483.168 35.9024C483.168 43.0933 489.001 48.9227 496.195 48.9227Z" fill="#232323"/>
<path d="M494.946 43.1743L489.489 37.497C489.321 37.3299 489.187 37.1313 489.096 36.9126C489.005 36.6938 488.958 36.4593 488.958 36.2224C488.958 35.9855 489.005 35.7509 489.096 35.5322C489.187 35.3134 489.321 35.1148 489.489 34.9478C489.659 34.7831 489.861 34.6537 490.081 34.5671C490.302 34.4805 490.538 34.4383 490.775 34.443C491.012 34.4477 491.245 34.4992 491.462 34.5946C491.68 34.6899 491.876 34.8272 492.039 34.9985L494.661 37.7306L500.758 30.2556C501.06 29.8845 501.498 29.6483 501.974 29.5988C502.45 29.5493 502.926 29.6905 503.299 29.9915C503.482 30.1402 503.635 30.3236 503.747 30.5311C503.86 30.7387 503.93 30.9664 503.955 31.2013C503.979 31.4361 503.957 31.6735 503.89 31.8998C503.823 32.1262 503.712 32.337 503.563 32.5204L494.946 43.1743Z" fill="#FBFBFB"/>
<path d="M532.3 48.9227C539.495 48.9227 545.328 43.0933 545.328 35.9024C545.328 28.7115 539.495 22.8821 532.3 22.8821C525.105 22.8821 519.273 28.7115 519.273 35.9024C519.273 43.0933 525.105 48.9227 532.3 48.9227Z" stroke="#232323" stroke-miterlimit="10"/>
<path d="M538.235 29.9812C538.046 29.7924 537.822 29.6426 537.575 29.5403C537.328 29.4381 537.064 29.3855 536.797 29.3855C536.53 29.3855 536.265 29.4381 536.018 29.5403C535.772 29.6426 535.548 29.7924 535.359 29.9812L532.31 33.0281L529.262 29.9812C529.073 29.7924 528.849 29.6426 528.602 29.5403C528.355 29.4381 528.091 29.3855 527.824 29.3855C527.557 29.3855 527.292 29.4381 527.046 29.5403C526.799 29.6426 526.575 29.7924 526.386 29.9812V29.9812C526.007 30.3618 525.795 30.8766 525.795 31.4133C525.795 31.9499 526.007 32.4647 526.386 32.8453L529.435 35.8922L526.386 38.9391C526.197 39.1277 526.047 39.3517 525.945 39.5983C525.843 39.8449 525.79 40.1092 525.79 40.3762C525.79 40.6431 525.843 40.9074 525.945 41.154C526.047 41.4006 526.197 41.6246 526.386 41.8133C526.575 42.0021 526.799 42.152 527.046 42.2542C527.292 42.3564 527.557 42.409 527.824 42.409C528.091 42.409 528.355 42.3564 528.602 42.2542C528.849 42.152 529.073 42.0021 529.262 41.8133L532.31 38.7664L535.359 41.8133C535.548 42.0021 535.772 42.152 536.018 42.2542C536.265 42.3564 536.53 42.409 536.797 42.409C537.064 42.409 537.328 42.3564 537.575 42.2542C537.822 42.152 538.046 42.0021 538.235 41.8133V41.8133C538.424 41.6246 538.574 41.4006 538.676 41.154C538.778 40.9074 538.831 40.6431 538.831 40.3762C538.831 40.1092 538.778 39.8449 538.676 39.5983C538.574 39.3517 538.424 39.1277 538.235 38.9391L535.186 35.8922L538.235 32.8453C538.613 32.4647 538.826 31.9499 538.826 31.4133C538.826 30.8766 538.613 30.3618 538.235 29.9812V29.9812Z" stroke="#232323" stroke-miterlimit="10"/>
<path d="M1329.45 26.1523H1202.37C1193.48 26.1523 1186.27 33.355 1186.27 42.2398V120.037C1186.27 128.922 1193.48 136.124 1202.37 136.124H1329.45C1338.34 136.124 1345.55 128.922 1345.55 120.037V42.2398C1345.55 33.355 1338.34 26.1523 1329.45 26.1523Z" fill="#FBFBFB" stroke="#232323" stroke-miterlimit="10"/>
<path d="M1341.48 120.037V42.2399C1341.48 35.5987 1336.09 30.2148 1329.45 30.2148L1202.37 30.2148C1195.72 30.2148 1190.34 35.5987 1190.34 42.2399V120.037C1190.34 126.678 1195.72 132.062 1202.37 132.062H1329.45C1336.09 132.062 1341.48 126.678 1341.48 120.037Z" fill="#FBFBFB" stroke="#232323" stroke-miterlimit="10"/>
<path d="M1272.77 18.8196C1272.85 17.6131 1272.57 16.4097 1271.99 15.3527C1271.4 14.2957 1270.52 13.4298 1269.45 12.8579C1268.4 12.2522 1267.21 11.9328 1266 11.9314C1264.78 11.93 1263.59 12.2468 1262.54 12.8501C1261.48 13.4533 1260.61 14.3221 1260 15.3695C1259.38 16.417 1259.06 17.6066 1259.05 18.8196H1252.58C1251.64 18.8196 1250.74 19.192 1250.08 19.8548C1249.41 20.5176 1249.04 21.4166 1249.04 22.354V30.2454H1282.78V22.3438C1282.78 21.4065 1282.4 20.5075 1281.74 19.8447C1281.08 19.1818 1280.18 18.8095 1279.24 18.8095L1272.77 18.8196Z" fill="#FBFBFB" stroke="#232323" stroke-miterlimit="10"/>
<path d="M1298.98 100.831H1232.83C1227.25 100.831 1222.72 105.356 1222.72 110.937C1222.72 116.518 1227.25 121.042 1232.83 121.042H1298.98C1304.57 121.042 1309.1 116.518 1309.1 110.937C1309.1 105.356 1304.57 100.831 1298.98 100.831Z" fill="#FBFBFB" stroke="#232323" stroke-miterlimit="10"/>
<path d="M1265.91 123.673C1272.95 123.673 1278.66 117.966 1278.66 110.927C1278.66 103.887 1272.95 98.1804 1265.91 98.1804C1258.87 98.1804 1253.16 103.887 1253.16 110.927C1253.16 117.966 1258.87 123.673 1265.91 123.673Z" fill="#FBFBFB" stroke="#232323" stroke-miterlimit="10"/>
<path d="M1264.68 118.056L1259.34 112.491C1259.01 112.159 1258.83 111.71 1258.83 111.241C1258.83 110.773 1259.01 110.324 1259.34 109.992C1259.68 109.663 1260.13 109.479 1260.59 109.479C1261.06 109.479 1261.51 109.663 1261.84 109.992L1264.41 112.734L1270.35 105.412C1270.49 105.232 1270.67 105.082 1270.88 104.972C1271.08 104.862 1271.31 104.793 1271.54 104.77C1271.77 104.746 1272 104.768 1272.22 104.835C1272.44 104.901 1272.65 105.011 1272.83 105.158C1273.01 105.303 1273.16 105.482 1273.27 105.685C1273.38 105.888 1273.45 106.112 1273.48 106.342C1273.5 106.572 1273.48 106.805 1273.41 107.027C1273.35 107.249 1273.24 107.456 1273.09 107.636L1264.68 118.056Z" fill="#FBFBFB" stroke="#232323" stroke-miterlimit="10"/>
<path d="M1232.23 116.401C1235.26 116.401 1237.71 113.95 1237.71 110.927C1237.71 107.903 1235.26 105.452 1232.23 105.452C1229.21 105.452 1226.76 107.903 1226.76 110.927C1226.76 113.95 1229.21 116.401 1232.23 116.401Z" fill="#FBFBFB" stroke="#232323" stroke-miterlimit="10"/>
<path d="M1244.59 113.638C1246.09 113.638 1247.3 112.424 1247.3 110.927C1247.3 109.429 1246.09 108.215 1244.59 108.215C1243.09 108.215 1241.88 109.429 1241.88 110.927C1241.88 112.424 1243.09 113.638 1244.59 113.638Z" fill="#FBFBFB" stroke="#232323" stroke-miterlimit="10"/>
<path d="M1299.33 116.401C1302.36 116.401 1304.81 113.95 1304.81 110.927C1304.81 107.903 1302.36 105.452 1299.33 105.452C1296.31 105.452 1293.85 107.903 1293.85 110.927C1293.85 113.95 1296.31 116.401 1299.33 116.401Z" fill="#FBFBFB" stroke="#232323" stroke-miterlimit="10"/>
<path d="M1204.58 48.4758H1329.29" stroke="#232323" stroke-miterlimit="10"/>
<path d="M1204.58 60.5515H1329.29" stroke="#232323" stroke-miterlimit="10"/>
<path d="M1204.58 72.6172H1329.29" stroke="#232323" stroke-miterlimit="10"/>
<path d="M1204.58 84.6929H1329.29" stroke="#232323" stroke-miterlimit="10"/>
<path d="M700.244 61.3336C687.422 61.2519 675.014 65.8696 665.368 74.3133" stroke="#232323" stroke-miterlimit="10"/>
<path d="M790.775 310.781C790.775 310.781 790.419 273.406 790.419 266.683C790.419 239.941 769.293 222.209 742.395 222.209H720.354V201.256H622.242C624.278 208.532 625.344 216.045 625.412 223.6C625.412 281.217 575.173 302.555 547.817 302.555V310.507L790.775 310.781Z" fill="#232323"/>
<path d="M621.805 201.602H720.252V221.914H740.576C772.077 221.914 790.368 244.258 790.368 262.539V309.766" stroke="#232323" stroke-miterlimit="10"/>
<path d="M693.832 201.602V310.273" stroke="#FBFBFB" stroke-miterlimit="10"/>
<path d="M668.874 222.128L693.832 201.927L720.252 221.914L693.832 311.289L669.017 222.117H625.352" stroke="#FBFBFB" stroke-miterlimit="10"/>
<path d="M636.763 252.464L652.493 267.881L639.344 275.102L669.26 311.035" stroke="#FBFBFB" stroke-miterlimit="10"/>
<path d="M739.732 228.79L753.125 255.399L731.359 267.881L745.992 275.011L719.226 310.68" stroke="#FBFBFB" stroke-miterlimit="10"/>
<path d="M1314.56 204.141V203.247C1314.56 201.171 1314.16 199.116 1313.36 197.198C1312.57 195.28 1311.4 193.537 1309.93 192.069C1308.47 190.602 1306.72 189.438 1304.8 188.644C1302.88 187.85 1300.83 187.442 1298.75 187.444H1280.46V186.55C1280.46 184.474 1280.05 182.418 1279.26 180.499C1278.47 178.581 1277.3 176.837 1275.83 175.369C1274.36 173.9 1272.62 172.735 1270.7 171.941C1268.78 171.146 1266.73 170.737 1264.65 170.737H1246.36V169.843C1246.36 165.652 1244.69 161.632 1241.73 158.668C1238.76 155.705 1234.74 154.04 1230.55 154.04H1195.64C1193.4 154.04 1191.26 154.928 1189.67 156.508C1188.09 158.089 1187.2 160.233 1187.2 162.469V162.469C1187.2 164.708 1188.09 166.855 1189.67 168.437C1191.25 170.02 1193.4 170.909 1195.64 170.909H1221.25V171.803C1221.25 175.995 1222.92 180.015 1225.89 182.978C1228.85 185.942 1232.87 187.606 1237.07 187.606H1255.3V188.5C1255.3 192.694 1256.97 196.716 1259.93 199.682C1262.9 202.647 1266.93 204.313 1271.12 204.313H1289.35V205.197C1289.35 209.391 1291.02 213.413 1293.99 216.378C1296.95 219.344 1300.98 221.01 1305.17 221.01H1340.08C1341.19 221.01 1342.29 220.792 1343.31 220.367C1344.33 219.943 1345.26 219.321 1346.05 218.538C1346.83 217.754 1347.45 216.823 1347.87 215.799C1348.3 214.775 1348.51 213.678 1348.51 212.57C1348.51 210.335 1347.62 208.19 1346.04 206.61C1344.46 205.029 1342.32 204.141 1340.08 204.141H1314.56Z" stroke="#232323" stroke-miterlimit="10"/>
<path d="M1162.05 26.0305H1009.44C1003.92 26.0305 999.447 30.5003 999.447 36.0141V93.6813C999.447 99.1951 1003.92 103.665 1009.44 103.665H1162.05C1167.56 103.665 1172.03 99.1951 1172.03 93.6813V36.0141C1172.03 30.5003 1167.56 26.0305 1162.05 26.0305Z" fill="#FBFBFB" stroke="#232323" stroke-miterlimit="10"/>
<path d="M1148.33 54.6204C1146.32 54.6159 1144.37 55.2025 1142.7 56.3063C1142.04 56.7305 1141.27 56.9561 1140.49 56.9561C1139.71 56.9561 1138.94 56.7305 1138.29 56.3063C1136.62 55.2217 1134.68 54.6442 1132.7 54.6442C1130.71 54.6442 1128.77 55.2217 1127.11 56.3063C1126.44 56.7361 1125.66 56.9644 1124.86 56.9644C1124.06 56.9644 1123.28 56.7361 1122.61 56.3063C1120.87 55.1687 1118.82 54.5877 1116.74 54.6407C1115.02 54.6818 1113.34 55.1681 1111.86 56.0524C1111.07 56.525 1110.16 56.7746 1109.24 56.7746C1108.32 56.7746 1107.42 56.525 1106.63 56.0524C1104.98 55.0731 1103.09 54.5776 1101.17 54.6225C1099.25 54.6674 1097.38 55.2509 1095.78 56.3063C1095.12 56.7305 1094.36 56.9561 1093.58 56.9561C1092.79 56.9561 1092.03 56.7305 1091.37 56.3063C1089.71 55.2217 1087.77 54.6442 1085.78 54.6442C1083.8 54.6442 1081.85 55.2217 1080.19 56.3063C1079.52 56.7361 1078.74 56.9644 1077.94 56.9644C1077.14 56.9644 1076.36 56.7361 1075.69 56.3063C1073.96 55.1665 1071.91 54.5853 1069.84 54.6407C1068.11 54.6804 1066.43 55.1668 1064.95 56.0524C1064.16 56.527 1063.25 56.7776 1062.33 56.7776C1061.41 56.7776 1060.51 56.527 1059.72 56.0524C1058.07 55.074 1056.18 54.5789 1054.26 54.6238C1052.34 54.6687 1050.47 55.2518 1048.87 56.3063C1048.22 56.7305 1047.45 56.9561 1046.67 56.9561C1045.89 56.9561 1045.12 56.7305 1044.46 56.3063C1042.82 55.2281 1040.91 54.6434 1038.94 54.6218C1036.98 54.6002 1035.05 55.1426 1033.39 56.1845C1032.69 56.6301 1031.87 56.8668 1031.04 56.8668C1030.21 56.8668 1029.4 56.6301 1028.7 56.1845C1027.15 55.186 1025.36 54.6248 1023.52 54.56C1021.67 54.4953 1019.84 54.9294 1018.23 55.8166C1016.61 56.7038 1015.26 58.011 1014.33 59.6003C1013.39 61.1896 1012.9 63.0019 1012.91 64.8458C1012.92 66.6896 1013.43 68.4966 1014.38 70.0758C1015.34 71.6551 1016.7 72.9479 1018.32 73.8178C1019.95 74.6877 1021.78 75.1024 1023.62 75.018C1025.47 74.9336 1027.25 74.3533 1028.79 73.3384C1029.45 72.9056 1030.21 72.6748 1031 72.6748C1031.78 72.6748 1032.55 72.9056 1033.2 73.3384C1034.87 74.4205 1036.81 74.9966 1038.79 74.9966C1040.78 74.9966 1042.72 74.4205 1044.38 73.3384C1045.05 72.9063 1045.83 72.6765 1046.63 72.6765C1047.43 72.6765 1048.21 72.9063 1048.88 73.3384C1050.47 74.3796 1052.32 74.9552 1054.22 75.0001C1056.12 75.045 1057.99 74.5573 1059.62 73.5923C1060.41 73.1178 1061.32 72.8671 1062.24 72.8671C1063.16 72.8671 1064.07 73.1178 1064.86 73.5923C1066.5 74.5792 1068.4 75.0801 1070.31 75.037C1072.23 74.9938 1074.1 74.4084 1075.7 73.3485C1076.35 72.9157 1077.12 72.6849 1077.91 72.6849C1078.69 72.6849 1079.46 72.9157 1080.11 73.3485C1081.77 74.4332 1083.71 75.0107 1085.7 75.0107C1087.68 75.0107 1089.63 74.4332 1091.29 73.3485C1091.96 72.9164 1092.74 72.6866 1093.54 72.6866C1094.34 72.6866 1095.12 72.9164 1095.79 73.3485C1097.38 74.3917 1099.23 74.9685 1101.13 75.0134C1103.03 75.0583 1104.91 74.5695 1106.54 73.6024C1107.33 73.1299 1108.23 72.8803 1109.15 72.8803C1110.07 72.8803 1110.98 73.1299 1111.76 73.6024C1113.41 74.5914 1115.31 75.0935 1117.23 75.0503C1119.15 75.0072 1121.02 74.4206 1122.62 73.3587C1123.27 72.9268 1124.03 72.6964 1124.82 72.6964C1125.6 72.6964 1126.37 72.9268 1127.02 73.3587C1128.66 74.4387 1130.58 75.0235 1132.54 75.0433C1134.51 75.0631 1136.44 74.5171 1138.1 73.4704C1138.8 73.0172 1139.61 72.7716 1140.44 72.7626C1141.27 72.7536 1142.08 72.9816 1142.79 73.4196C1144.13 74.2794 1145.65 74.8157 1147.23 74.9859C1148.81 75.156 1150.41 74.9554 1151.9 74.3999C1153.39 73.8444 1154.73 72.9494 1155.81 71.7858C1156.9 70.6222 1157.69 69.2222 1158.14 67.6968C1158.59 66.1714 1158.68 64.5627 1158.39 62.9983C1158.11 61.434 1157.47 59.9571 1156.51 58.6849C1155.56 57.4126 1154.32 56.3801 1152.9 55.6693C1151.48 54.9585 1149.91 54.5889 1148.32 54.5899L1148.33 54.6204Z" fill="#232323"/>
<path d="M940.498 26.0305H906.355V310.649H940.498V26.0305Z" fill="#232323"/>
<path d="M983.737 145.864H949.593V310.649H983.737V145.864Z" fill="#FBFBFB" stroke="#232323" stroke-miterlimit="10"/>
<path d="M1026.96 212.022H992.821V310.639H1026.96V212.022Z" fill="#FBFBFB" stroke="#232323" stroke-miterlimit="10"/>
<path d="M1070.2 261.991H1036.06V310.639H1070.2V261.991Z" fill="#FBFBFB" stroke="#232323" stroke-miterlimit="10"/>
<path d="M1113.43 288.062H1079.29V310.639H1113.43V288.062Z" fill="#232323"/>
<path d="M1156.66 229.318H1122.52V310.639H1156.66V229.318Z" stroke="#232323" stroke-miterlimit="10"/>
<path d="M1199.9 250.189H1165.75V310.649H1199.9V250.189Z" fill="#FBFBFB" stroke="#232323" stroke-miterlimit="10"/>
<path d="M1352.31 309.766H-2.24927V316.367H1352.31V309.766Z" fill="#232323"/>
<path d="M949.725 149.663H983.798" stroke="#232323" stroke-miterlimit="10"/>
<path d="M949.725 154.69H983.798" stroke="#232323" stroke-miterlimit="10"/>
<path d="M949.725 168.695H983.798" stroke="#232323" stroke-miterlimit="10"/>
<path d="M949.725 190.765H983.798" stroke="#232323" stroke-miterlimit="10"/>
<path d="M949.725 192.897H983.798" stroke="#232323" stroke-miterlimit="10"/>
<path d="M949.725 196.239H983.798" stroke="#232323" stroke-miterlimit="10"/>
<path d="M949.725 200.962H983.798" stroke="#232323" stroke-miterlimit="10"/>
<path d="M949.725 225.316H983.798" stroke="#232323" stroke-miterlimit="10"/>
<path d="M949.725 230.039H983.798" stroke="#232323" stroke-miterlimit="10"/>
<path d="M949.725 240.541H983.798" stroke="#232323" stroke-miterlimit="10"/>
<path d="M1036.07 268.978H1070.14" stroke="#232323" stroke-miterlimit="10"/>
<path d="M1036.07 271.05H1070.14" stroke="#232323" stroke-miterlimit="10"/>
<path d="M1036.07 276.839H1070.14" stroke="#232323" stroke-miterlimit="10"/>
<path d="M1036.07 288.224H1070.14" stroke="#232323" stroke-miterlimit="10"/>
<path d="M992.679 232.792H1026.75" stroke="#232323" stroke-miterlimit="10"/>
<path d="M992.679 238.672H1026.75" stroke="#232323" stroke-miterlimit="10"/>
<path d="M992.679 255.054H1026.75" stroke="#232323" stroke-miterlimit="10"/>
<path d="M992.679 287.3H1026.75" stroke="#232323" stroke-miterlimit="10"/>
<path d="M1036.07 290.174H1070.14" stroke="#232323" stroke-miterlimit="10"/>
<path d="M1122.68 288.224H1156.75" stroke="#232323" stroke-miterlimit="10"/>
<path d="M1122.68 279.378H1156.75" stroke="#232323" stroke-miterlimit="10"/>
<path d="M1122.68 290.174H1156.75" stroke="#232323" stroke-miterlimit="10"/>
<path d="M1165.61 299.437H1199.68" stroke="#232323" stroke-miterlimit="10"/>
<path d="M1165.61 279.987H1199.68" stroke="#232323" stroke-miterlimit="10"/>
<path d="M1165.61 303.723H1199.68" stroke="#232323" stroke-miterlimit="10"/>
<path d="M1036.07 300.239H1070.14" stroke="#232323" stroke-miterlimit="10"/>
<path d="M1036.07 302.189H1070.14" stroke="#232323" stroke-miterlimit="10"/>
<path d="M1036.07 306.526H1070.14" stroke="#232323" stroke-miterlimit="10"/>
<path d="M906.406 50.6492H940.478" stroke="#FBFBFB" stroke-miterlimit="10"/>
<path d="M906.406 53.8586H940.478" stroke="#FBFBFB" stroke-miterlimit="10"/>
<path d="M906.406 91.6296H940.478" stroke="#FBFBFB" stroke-miterlimit="10"/>
<path d="M906.406 154.598H940.478" stroke="#FBFBFB" stroke-miterlimit="10"/>
<path d="M906.406 156.894H940.478" stroke="#FBFBFB" stroke-miterlimit="10"/>
<path d="M906.406 165.933H940.478" stroke="#FBFBFB" stroke-miterlimit="10"/>
<path d="M906.406 178.659H940.478" stroke="#FBFBFB" stroke-miterlimit="10"/>
<path d="M906.406 270.258H940.478" stroke="#FBFBFB" stroke-miterlimit="10"/>
<path d="M906.406 272.929H940.478" stroke="#FBFBFB" stroke-miterlimit="10"/>
<path d="M906.406 277.997H940.478" stroke="#FBFBFB" stroke-miterlimit="10"/>
<path d="M863.116 279.855H897.189" stroke="#232323" stroke-miterlimit="10"/>
<path d="M863.116 282.923H897.189" stroke="#232323" stroke-miterlimit="10"/>
<path d="M863.116 300.97H897.189" stroke="#232323" stroke-miterlimit="10"/>
<path d="M820.193 264.926H854.266" stroke="#232323" stroke-miterlimit="10"/>
<path d="M820.193 270.116H854.266" stroke="#232323" stroke-miterlimit="10"/>
<path d="M820.193 300.615H854.266" stroke="#232323" stroke-miterlimit="10"/>
<path d="M1235.76 310.913H1225.6V289.667C1225.6 287.16 1225.1 284.677 1224.14 282.361C1223.18 280.045 1221.77 277.941 1220 276.169C1218.23 274.397 1216.12 272.991 1213.8 272.033C1211.48 271.074 1209 270.582 1206.49 270.583H1099.45C1096.72 270.583 1094.03 270.046 1091.51 269.004C1088.99 267.962 1086.71 266.434 1084.78 264.508C1082.85 262.582 1081.33 260.296 1080.28 257.78C1079.24 255.263 1078.71 252.567 1078.71 249.844V149.744C1078.71 139.862 1076.76 130.077 1072.98 120.948C1069.19 111.818 1063.65 103.523 1056.66 96.5357C1049.67 89.5483 1041.37 84.0056 1032.23 80.2241C1023.1 76.4425 1013.31 74.4962 1003.42 74.4962C983.454 74.4989 964.307 82.4279 950.189 96.5393C936.072 110.651 928.142 129.789 928.142 149.744V201.541C928.142 209.05 925.157 216.253 919.844 221.563C914.531 226.873 907.324 229.856 899.811 229.856H864.041C853.929 229.856 844.232 233.871 837.081 241.017C829.931 248.164 825.914 257.856 825.914 267.963V310.111H815.753V267.688C815.753 254.95 820.815 242.734 829.828 233.727C838.84 224.72 851.063 219.659 863.808 219.659H898.357C900.934 219.669 903.488 219.169 905.871 218.189C908.254 217.208 910.419 215.767 912.243 213.947C914.066 212.127 915.512 209.965 916.497 207.585C917.481 205.205 917.985 202.654 917.98 200.078V149.703C917.979 138.488 920.188 127.383 924.481 117.021C928.774 106.66 935.067 97.2448 943.001 89.3142C950.935 81.3835 960.354 75.0926 970.721 70.8005C981.088 66.5084 992.199 64.2993 1003.42 64.2993C1026.08 64.2993 1047.82 73.2972 1063.84 89.3135C1079.87 105.33 1088.87 127.053 1088.87 149.703V246.188C1088.87 248.047 1089.24 249.888 1089.95 251.606C1090.66 253.323 1091.7 254.884 1093.02 256.199C1094.33 257.513 1095.9 258.556 1097.61 259.268C1099.33 259.979 1101.18 260.345 1103.04 260.345H1208.72C1215.9 260.348 1222.79 263.202 1227.87 268.279C1232.95 273.356 1235.81 280.242 1235.81 287.422L1235.76 310.913Z" fill="#FBFBFB" stroke="#232323" stroke-miterlimit="10"/>
<path d="M879.894 229.785C882.688 229.785 884.954 227.521 884.954 224.727C884.954 221.934 882.688 219.669 879.894 219.669C877.099 219.669 874.833 221.934 874.833 224.727C874.833 227.521 877.099 229.785 879.894 229.785Z" fill="#FBFBFB" stroke="#232323" stroke-miterlimit="10"/>
<path d="M820.884 288.407C823.679 288.407 825.945 286.143 825.945 283.349C825.945 280.556 823.679 278.292 820.884 278.292C818.089 278.292 815.824 280.556 815.824 283.349C815.824 286.143 818.089 288.407 820.884 288.407Z" fill="#FBFBFB" stroke="#232323" stroke-miterlimit="10"/>
<path d="M953.719 91.7109C956.514 91.7109 958.779 89.4464 958.779 86.653C958.779 83.8597 956.514 81.5952 953.719 81.5952C950.924 81.5952 948.658 83.8597 948.658 86.653C948.658 89.4464 950.924 91.7109 953.719 91.7109Z" fill="#FBFBFB" stroke="#232323" stroke-miterlimit="10"/>
<path d="M1027.69 78.2843C1030.48 78.2843 1032.75 76.0199 1032.75 73.2265C1032.75 70.4332 1030.48 68.1687 1027.69 68.1687C1024.89 68.1687 1022.63 70.4332 1022.63 73.2265C1022.63 76.0199 1024.89 78.2843 1027.69 78.2843Z" fill="#FBFBFB" stroke="#232323" stroke-miterlimit="10"/>
<path d="M1083.84 165.009C1086.63 165.009 1088.9 162.744 1088.9 159.951C1088.9 157.158 1086.63 154.893 1083.84 154.893C1081.05 154.893 1078.78 157.158 1078.78 159.951C1078.78 162.744 1081.05 165.009 1083.84 165.009Z" fill="#FBFBFB" stroke="#232323" stroke-miterlimit="10"/>
<path d="M1083.84 221.691C1086.63 221.691 1088.9 219.426 1088.9 216.633C1088.9 213.84 1086.63 211.575 1083.84 211.575C1081.05 211.575 1078.78 213.84 1078.78 216.633C1078.78 219.426 1081.05 221.691 1083.84 221.691Z" fill="#FBFBFB" stroke="#232323" stroke-miterlimit="10"/>
<path d="M1134.68 270.644C1137.47 270.644 1139.74 268.38 1139.74 265.586C1139.74 262.793 1137.47 260.528 1134.68 260.528C1131.88 260.528 1129.62 262.793 1129.62 265.586C1129.62 268.38 1131.88 270.644 1134.68 270.644Z" fill="#FBFBFB" stroke="#232323" stroke-miterlimit="10"/>
<path d="M1188.64 270.593C1191.43 270.593 1193.7 268.329 1193.7 265.535C1193.7 262.742 1191.43 260.478 1188.64 260.478C1185.84 260.478 1183.58 262.742 1183.58 265.535C1183.58 268.329 1185.84 270.593 1188.64 270.593Z" fill="#FBFBFB" stroke="#232323" stroke-miterlimit="10"/>
<path d="M14.3551 39.6296H51.2423" stroke="#FBFBFB" stroke-miterlimit="10"/>
<path d="M14.3551 42.8391H51.2423" stroke="#FBFBFB" stroke-miterlimit="10"/>
<path d="M14.3551 80.6101H51.2423" stroke="#FBFBFB" stroke-miterlimit="10"/>
<path d="M14.3551 143.579H51.2423" stroke="#FBFBFB" stroke-miterlimit="10"/>
<path d="M14.3551 145.884H51.2423" stroke="#FBFBFB" stroke-miterlimit="10"/>
<path d="M14.3551 154.913H51.2423" stroke="#FBFBFB" stroke-miterlimit="10"/>
<path d="M14.3551 167.639H51.2423" stroke="#FBFBFB" stroke-miterlimit="10"/>
<path d="M53.8843 157.402H90.7816" stroke="#FBFBFB" stroke-miterlimit="10"/>
<path d="M53.8843 201.033H90.7816" stroke="#FBFBFB" stroke-miterlimit="10"/>
<path d="M53.8843 206.04H90.7816" stroke="#FBFBFB" stroke-miterlimit="10"/>
<path d="M53.8843 280.79H90.7816" stroke="#FBFBFB" stroke-miterlimit="10"/>
<path d="M53.8843 283.522H90.7816" stroke="#FBFBFB" stroke-miterlimit="10"/>
<path d="M53.8843 294.247H90.7816" stroke="#FBFBFB" stroke-miterlimit="10"/>
<path d="M53.8843 309.349H90.7816" stroke="#FBFBFB" stroke-miterlimit="10"/>
<path d="M92.7227 174.261H129.62" stroke="#FBFBFB" stroke-miterlimit="10"/>
<path d="M92.7227 187.403H129.62" stroke="#FBFBFB" stroke-miterlimit="10"/>
<path d="M92.7227 190.724H129.62" stroke="#FBFBFB" stroke-miterlimit="10"/>
<path d="M92.7227 256.181H129.62" stroke="#FBFBFB" stroke-miterlimit="10"/>
<path d="M92.7227 257.999H129.62" stroke="#FBFBFB" stroke-miterlimit="10"/>
<path d="M92.7227 265.119H129.62" stroke="#FBFBFB" stroke-miterlimit="10"/>
<path d="M92.7227 275.143H129.62" stroke="#FBFBFB" stroke-miterlimit="10"/>
<path d="M848.595 80.6508C842.334 81.3272 836.186 82.8087 830.304 85.0586L823.13 96.8297C823.13 96.8297 869.346 110.764 869.661 110.663C869.976 110.561 874.985 91.711 874.985 91.711C874.985 91.711 863.665 79.4219 848.595 80.6508Z" fill="#FBFBFB"/>
<path d="M868.614 86.3281C873.839 89.5976 878.182 94.0986 881.262 99.4363C884.342 104.774 886.064 110.785 886.277 116.943C886.491 123.101 885.19 129.217 882.487 134.755C879.785 140.294 875.765 145.084 870.778 148.708L862.517 154.72" fill="#FBFBFB"/>
<path d="M868.614 86.3281C873.839 89.5976 878.182 94.0986 881.262 99.4363C884.342 104.774 886.064 110.785 886.277 116.943C886.491 123.101 885.19 129.217 882.487 134.755C879.785 140.294 875.765 145.084 870.778 148.708L862.517 154.72" stroke="#232323" stroke-miterlimit="10"/>
<path d="M837.499 82.2657C844.282 80.1788 851.517 80.0486 858.371 81.89L837.499 82.2657Z" fill="#FBFBFB"/>
<path d="M837.499 82.2657C844.282 80.1788 851.517 80.0486 858.371 81.89" stroke="#232323" stroke-miterlimit="10"/>
<path d="M868.543 91.2843V51.675C868.539 48.9256 867.981 46.2051 866.903 43.676C865.824 41.1468 864.246 38.8609 862.264 36.9546C860.282 35.0483 857.936 33.5607 855.365 32.5807C852.795 31.6007 850.054 31.1484 847.305 31.2508C836.239 31.6672 827.642 41.1125 827.642 52.1828V88.1765L868.543 91.2843ZM837.804 84.2156L837.59 51.7156C837.588 50.2498 837.892 48.7998 838.484 47.4586C839.075 46.1174 839.941 44.9146 841.025 43.9276C842.109 42.9406 843.388 42.1911 844.779 41.7273C846.171 41.2635 847.643 41.0956 849.103 41.2343C851.738 41.5334 854.169 42.7989 855.924 44.7857C857.679 46.7726 858.634 49.3395 858.605 51.9898L858.818 85.8203" fill="#FBFBFB"/>
<path d="M837.804 84.2156L837.59 51.7156C837.588 50.2498 837.892 48.7998 838.484 47.4586C839.075 46.1174 839.941 44.9146 841.025 43.9276C842.109 42.9406 843.388 42.1911 844.779 41.7273C846.171 41.2635 847.643 41.0956 849.103 41.2343C851.738 41.5334 854.169 42.7989 855.924 44.7857C857.679 46.7726 858.634 49.3395 858.605 51.9898L858.818 85.8203M868.543 91.2843V51.675C868.539 48.9256 867.981 46.2051 866.903 43.676C865.824 41.1468 864.246 38.8609 862.264 36.9546C860.282 35.0483 857.936 33.5607 855.365 32.5807C852.795 31.6007 850.054 31.1484 847.305 31.2508C836.239 31.6672 827.642 41.1125 827.642 52.1828V88.1765L868.543 91.2843Z" stroke="#232323" stroke-miterlimit="10"/>
<path d="M840.527 161.87C861.337 161.87 878.207 145.01 878.207 124.211C878.207 103.412 861.337 86.5515 840.527 86.5515C819.717 86.5515 802.847 103.412 802.847 124.211C802.847 145.01 819.717 161.87 840.527 161.87Z" fill="#FBFBFB" stroke="#232323" stroke-miterlimit="10"/>
<path d="M840.527 145.783C852.447 145.783 862.11 136.125 862.11 124.211C862.11 112.297 852.447 102.639 840.527 102.639C828.607 102.639 818.943 112.297 818.943 124.211C818.943 136.125 828.607 145.783 840.527 145.783Z" fill="#FBFBFB" stroke="#232323" stroke-miterlimit="10"/>
<path d="M840.527 102.385V146.037" stroke="#232323" stroke-miterlimit="10"/>
<path d="M862.364 124.211H818.689" stroke="#232323" stroke-miterlimit="10"/>
<path d="M825.081 108.773L855.963 139.638" stroke="#232323" stroke-miterlimit="10"/>
<path d="M855.963 108.773L825.081 139.638" stroke="#232323" stroke-miterlimit="10"/>
<path d="M832.469 103.919L848.575 144.503" stroke="#232323" stroke-miterlimit="10"/>
<path d="M860.82 116.157L820.224 132.255" stroke="#232323" stroke-miterlimit="10"/>
<path d="M820.478 115.548L860.576 132.864" stroke="#232323" stroke-miterlimit="10"/>
<path d="M849.185 104.173L831.859 144.249" stroke="#232323" stroke-miterlimit="10"/>
<path d="M840.527 135.129C846.56 135.129 851.451 130.241 851.451 124.211C851.451 118.181 846.56 113.293 840.527 113.293C834.494 113.293 829.603 118.181 829.603 124.211C829.603 130.241 834.494 135.129 840.527 135.129Z" fill="#FBFBFB" stroke="#232323" stroke-miterlimit="10"/>
<path d="M822.754 90.9594C839.582 78.7719 863.503 82.0422 875.748 98.8609" stroke="#232323" stroke-miterlimit="10"/>
</svg>
