<svg id="Guides" xmlns="http://www.w3.org/2000/svg" viewBox="0 0 1024 407.932"><path d="M161.71,391.143c-36.768,0-129.689-15.29-129.689-145.857V120.809c0-65.164,38.862-91.982,82.225-91.982,64.176,0,79.552,65.345,138.38,65.345,80.765,0,70.022-59.131,154.12-59.131h229.6c81.557,0,74.2,47.305,155.412,47.305H912.435c34.165,0,69.857,21.024,69.857,63.073s-61.76,59.621-61.76,111.693c0,50.209,48.62,64.247,48.62,109.064v26.281S165.426,391.143,161.71,391.143Z" style="fill:#eae1d4"/><path d="M160.693,236.3c34.585,0,31.778-20.92,51.618-20.92,20.716,0,17.315,22.8,40.006,22.8,25.076,0,37.43-51.156,77.221-51.156,35.357,0,43.447,35.691,73.045,35.691,26.7,0,16.178-37.247,43.763-37.247,2.683,48.557-32.347,149.2-146.946,149.2C185.693,334.678,160.693,236.3,160.693,236.3Z" style="fill:#1d1e1b;stroke:#1d1e1b;stroke-miterlimit:10"/><path d="M562.048,175.877V148.66c0-14.22,8.32-23.951,23.3-23.951h26.335c21.77,0,31.771-16.562,46.79-16.562,9.907,0,17.347,7.839,17.347,17.761,0,15.993-13.8,29.3-34.8,29.3-18.35,0-27.193-4.9-43.833-4.9-10.281,0-15.022,8.343-21.952,17.287Z" style="fill:#fff;stroke:#1d1e1b;stroke-miterlimit:10"/><path d="M572.43,173.305s.5-9.7,5.206-17.076c6.381-10,15.539-13.877,27-13.877,13.917,0,24.652,9.178,36.331,9.178,12.183,0,20.429-16.511,35.448-16.511,9.908,0,17.348,7.839,17.348,17.76,0,15.994-11.813,29.3-31.264,29.3-22.693,0-39.427-21.366-56.067-21.366-10.281,0-20.286,7.646-22.765,18.8Z" style="fill:#fff;stroke:#1d1e1b;stroke-miterlimit:10"/><path d="M1011.443,252.7q.165-1.083.315-2.194c-62.775,0-102.575-31.737-102.575-31.737H935.8c20.629,0,44.182-8.5,49.271-36.9-60.041,0-79.274-42.015-79.274-42.015h21.41c15.153,0,25.351-6.371,27.6-24.728-53.157,0-68.584-88.759-68.584-88.759s-15.937,88.759-68.639,88.759c2.159,17.621,13.672,24.728,26.05,24.728H866.6s-21.968,42.015-79.273,42.015c5.263,29.373,30.4,36.9,51.284,36.9h17.655S821.247,250.5,760.637,250.5q.149,1.112.314,2.194a61.867,61.867,0,0,0,61.09,52.5H950.354A61.865,61.865,0,0,0,1011.443,252.7Z" style="fill:none;stroke:#1d1e1b;stroke-miterlimit:10"/><rect x="861.132" y="305.142" width="50.131" height="83.254" style="fill:none;stroke:#1d1e1b;stroke-miterlimit:10"/><path d="M817.741,182.462a28.312,28.312,0,0,1,19.217,9.388c26.758,29.961,114.91,128.664,128.855,144.242,5.623,6.28,15.266,16.356,15.266,28.79,0,15.888-13.106,23.644-28.165,23.644-12.466,0-24.971-16.594-39.794-16.594-18.5,0-21.813,16.449-52.258,16.449-18.316,0-47.765-16.827-76.45.158l5.6-207.943Z" style="fill:#1d1e1b;stroke:#1d1e1b;stroke-miterlimit:10"/><path d="M666.878,227.94,699.7,194.366c7.424-7.423,16.156-13.864,35.948-13.864H748.37l-23.831,46.973-4.847,18.378-10.1,11.512Z" style="fill:#fff;stroke:#1d1e1b;stroke-miterlimit:10"/><rect x="12.707" y="388.196" width="998.585" height="8.377" style="fill:#1d1e1b;stroke:#1d1e1b;stroke-miterlimit:10"/><path d="M733.351,122.281,721.03,142.808a1.878,1.878,0,0,0,1.657,2.978l7.726-.577" style="fill:#fff;stroke:#1d1e1b;stroke-miterlimit:10"/><circle cx="771.621" cy="138.683" r="41.654" style="fill:#fff;stroke:#1d1e1b;stroke-miterlimit:10"/><circle cx="746.036" cy="132.006" r="6.908" style="fill:none;stroke:#1d1e1b;stroke-miterlimit:10"/><path d="M745.836,125.11l.061,13.8h0a6.9,6.9,0,0,1-.06-13.8Z" style="fill:#1d1e1b"/><path d="M759.751,142.945a6.509,6.509,0,1,0-12.981.969" style="fill:none;stroke:#1d1e1b;stroke-miterlimit:10"/><polygon points="736.627 114.901 806.503 114.935 806.532 53.458 767.086 53.439 736.657 53.424 736.646 76.663 736.627 114.901" style="fill:#1d1e1b;stroke:#1d1e1b;stroke-miterlimit:10"/><path d="M796.581,172.055c-10.313-4.044-14.257-11.3-14.119-17.49.137-6.153,4.732-10.019,5.688-14.152,1.078-4.661-1.733-8.2-5.072-8.98-3.04-.706-5.909,1.5-7.283,4.074-1.332,2.5-1.021,4.846-1.5,6.988-.313,1.4-1.436,2.849-2.768,2.558-1.391-.306-1.913-1.582-1.87-3.08.093-3.313,1.656-12.368-2.608-17.51-5.725-6.907-16.421-1-23.446-9.476" style="fill:none;stroke:#1d1e1b;stroke-miterlimit:10"/><line x1="817.56" y1="115.122" x2="719.618" y2="114.782" style="fill:none;stroke:#1d1e1b;stroke-miterlimit:10"/><path d="M784.728,147.3c-1.759,3.029-6.667,8.719-11.508,7.515" style="fill:none;stroke:#1d1e1b;stroke-miterlimit:10"/><path d="M783.151,143.446c1.271-1.845,2.81-5.885.158-7.805-2.942-2.13-5.325,1.6-5.325,1.6" style="fill:none;stroke:#1d1e1b;stroke-miterlimit:10"/><path d="M803.47,128.781s5.21,14.46-.221,25.946" style="fill:none;stroke:#1d1e1b;stroke-miterlimit:10"/><path d="M804.334,55.775c0,6.553-14.586,11.866-32.58,11.866s-32.579-5.313-32.579-11.866" style="fill:none;stroke:#fff;stroke-miterlimit:10"/><circle cx="299.955" cy="190.826" r="146.505" style="fill:none;stroke:#1d1e1b;stroke-miterlimit:10"/><circle cx="562.903" cy="199.382" r="35.79" style="fill:#fff;stroke:#1d1e1b;stroke-miterlimit:10"/><circle cx="527.211" cy="278.468" r="50.608" style="fill:#fff;stroke:#1d1e1b;stroke-miterlimit:10"/><line x1="128.823" y1="194.545" x2="23.616" y2="194.545" style="fill:none;stroke:#1d1e1b;stroke-miterlimit:10"/><line x1="28.876" y1="26.213" x2="149.864" y2="105.119" style="fill:none;stroke:#1d1e1b;stroke-miterlimit:10"/><line x1="447.278" y1="92.829" x2="530.563" y2="26.628" style="fill:none;stroke:#1d1e1b;stroke-miterlimit:10"/><line x1="470.769" y1="154.048" x2="718.489" y2="31.611" style="fill:none;stroke:#1d1e1b;stroke-miterlimit:10"/><circle cx="541.314" cy="186.623" r="5.922" style="fill:none;stroke:#1d1e1b;stroke-miterlimit:10"/><path d="M541.143,180.711l.052,11.833h0a5.918,5.918,0,0,1-.051-11.833Z" style="fill:#1d1e1b"/><circle cx="573.566" cy="186.623" r="5.922" style="fill:none;stroke:#1d1e1b;stroke-miterlimit:10"/><path d="M573.394,180.711l.052,11.833h0a5.918,5.918,0,0,1-.051-11.833Z" style="fill:#1d1e1b"/><path d="M546.441,194.109a5.453,5.453,0,1,0,10.906,0v-6.828" style="fill:none;stroke:#1d1e1b;stroke-miterlimit:10"/><path d="M568.262,194.109a5.453,5.453,0,1,1-10.906,0v-6.828" style="fill:none;stroke:#1d1e1b;stroke-miterlimit:10"/><polyline points="561.64 199.466 561.64 205.485 553.094 205.485 553.094 199.466" style="fill:none;stroke:#1d1e1b;stroke-miterlimit:10"/><line x1="557.397" y1="195.369" x2="557.397" y2="205.398" style="fill:none;stroke:#1d1e1b;stroke-miterlimit:10"/><circle cx="557.272" cy="188.45" r="3.793" style="fill:#fff;stroke:#1d1e1b;stroke-miterlimit:10"/><path d="M446.73,236.548a18.816,18.816,0,0,0,0-37.631Z" style="fill:#fff;stroke:#1d1e1b;stroke-miterlimit:10"/><line x1="446.73" y1="206.785" x2="454.04" y2="206.785" style="fill:#fff;stroke:#1d1e1b;stroke-miterlimit:10"/><line x1="446.73" y1="217.732" x2="454.04" y2="217.732" style="fill:#fff;stroke:#1d1e1b;stroke-miterlimit:10"/><line x1="446.73" y1="228.68" x2="454.04" y2="228.68" style="fill:#fff;stroke:#1d1e1b;stroke-miterlimit:10"/><path d="M615.17,244.409a18.815,18.815,0,0,0-22.363,30.265Z" style="fill:#fff;stroke:#1d1e1b;stroke-miterlimit:10"/><line x1="597.482" y1="268.347" x2="591.603" y2="264.002" style="fill:#fff;stroke:#1d1e1b;stroke-miterlimit:10"/><line x1="603.988" y1="259.542" x2="598.109" y2="255.198" style="fill:#fff;stroke:#1d1e1b;stroke-miterlimit:10"/><line x1="610.494" y1="250.737" x2="604.615" y2="246.393" style="fill:#fff;stroke:#1d1e1b;stroke-miterlimit:10"/><path d="M480.271,347.408a18.816,18.816,0,0,0-37.631-.129Z" style="fill:#fff;stroke:#1d1e1b;stroke-miterlimit:10"/><line x1="450.508" y1="347.306" x2="450.533" y2="339.996" style="fill:#fff;stroke:#1d1e1b;stroke-miterlimit:10"/><line x1="461.456" y1="347.343" x2="461.481" y2="340.033" style="fill:#fff;stroke:#1d1e1b;stroke-miterlimit:10"/><line x1="472.403" y1="347.381" x2="472.428" y2="340.071" style="fill:#fff;stroke:#1d1e1b;stroke-miterlimit:10"/><path d="M539.485,347.575a18.815,18.815,0,0,0-37.63-.128Z" style="fill:#fff;stroke:#1d1e1b;stroke-miterlimit:10"/><line x1="509.722" y1="347.474" x2="509.747" y2="340.163" style="fill:#fff;stroke:#1d1e1b;stroke-miterlimit:10"/><line x1="520.67" y1="347.511" x2="520.695" y2="340.201" style="fill:#fff;stroke:#1d1e1b;stroke-miterlimit:10"/><line x1="531.618" y1="347.549" x2="531.643" y2="340.238" style="fill:#fff;stroke:#1d1e1b;stroke-miterlimit:10"/><circle cx="244.761" cy="288.431" r="29.173" style="fill:#fff;stroke:#1d1e1b;stroke-miterlimit:10"/><polygon points="249.626 263.426 239.896 263.426 235.031 271.852 239.896 280.279 249.626 280.279 254.491 271.852 249.626 263.426" style="fill:#fff;stroke:#1d1e1b;stroke-miterlimit:10"/><polygon points="249.626 280.279 239.896 280.279 235.031 288.706 239.896 297.133 249.626 297.133 254.491 288.706 249.626 280.279" style="fill:#1d1e1b;stroke:#1d1e1b;stroke-miterlimit:10"/><polygon points="249.626 297.133 239.896 297.133 235.031 305.559 239.896 313.986 249.626 313.986 254.491 305.559 249.626 297.133" style="fill:#fff;stroke:#1d1e1b;stroke-miterlimit:10"/><polygon points="264.239 271.852 254.509 271.852 249.644 280.279 254.509 288.706 264.239 288.706 269.104 280.279 264.239 271.852" style="fill:#fff;stroke:#1d1e1b;stroke-miterlimit:10"/><polygon points="264.239 288.706 254.509 288.706 249.644 297.133 254.509 305.559 264.239 305.559 269.104 297.133 264.239 288.706" style="fill:#fff;stroke:#1d1e1b;stroke-miterlimit:10"/><polygon points="235.038 271.852 225.308 271.852 220.443 280.279 225.308 288.706 235.038 288.706 239.903 280.279 235.038 271.852" style="fill:#fff;stroke:#1d1e1b;stroke-miterlimit:10"/><polygon points="235.038 288.706 225.308 288.706 220.443 297.133 225.308 305.559 235.038 305.559 239.903 297.133 235.038 288.706" style="fill:#fff;stroke:#1d1e1b;stroke-miterlimit:10"/><path d="M225.308,305.559l-1.774,3.073a29.137,29.137,0,0,0,14.684,8.274l1.685-2.92-4.865-8.427Z" style="fill:#1d1e1b;stroke:#1d1e1b;stroke-miterlimit:10"/><path d="M269.077,280.279H272.6a29.125,29.125,0,0,0-6.551-11.6l-1.833,3.175Z" style="fill:#fff;stroke:#1d1e1b;stroke-miterlimit:10"/><path d="M238.211,316.9a29.384,29.384,0,0,0,13.058-.072l-1.643-2.846H239.9Z" style="fill:#fff;stroke:#1d1e1b;stroke-miterlimit:10"/><path d="M264.212,288.706l4.865,8.427h3.355a29.333,29.333,0,0,0,.164-16.854h-3.519Z" style="fill:#1d1e1b;stroke:#1d1e1b;stroke-miterlimit:10"/><path d="M265.849,308.4a29.165,29.165,0,0,0,6.583-11.262h-3.355l-4.865,8.426Z" style="fill:#fff;stroke:#1d1e1b;stroke-miterlimit:10"/><path d="M265.866,308.376l-1.627-2.817h-9.73l-4.865,8.427,1.64,2.842A29.144,29.144,0,0,0,265.866,308.376Z" style="fill:#1d1e1b;stroke:#1d1e1b;stroke-miterlimit:10"/><path d="M216.727,297.133a29.153,29.153,0,0,0,6.783,11.474l1.759-3.048-4.865-8.426Z" style="fill:#fff;stroke:#1d1e1b;stroke-miterlimit:10"/><path d="M220.4,280.279h-3.842a29.345,29.345,0,0,0,.165,16.854H220.4l4.865-8.427Z" style="fill:#1d1e1b;stroke:#1d1e1b;stroke-miterlimit:10"/><path d="M216.562,280.279H220.4l4.865-8.427-1.956-3.388A29.125,29.125,0,0,0,216.562,280.279Z" style="fill:#fff;stroke:#1d1e1b;stroke-miterlimit:10"/><path d="M223.337,268.438l1.971,3.414h9.73l4.865-8.426-1.967-3.408A29.135,29.135,0,0,0,223.337,268.438Z" style="fill:#1d1e1b;stroke:#1d1e1b;stroke-miterlimit:10"/><path d="M237.929,260.02l1.967,3.406h9.73l1.922-3.328a29.363,29.363,0,0,0-13.619-.078Z" style="fill:none;stroke:#1d1e1b;stroke-miterlimit:10"/><path d="M251.563,260.1l-1.919,3.325,4.865,8.426h9.73l1.823-3.156A29.149,29.149,0,0,0,251.563,260.1Z" style="fill:#1d1e1b;stroke:#1d1e1b;stroke-miterlimit:10"/><path d="M744.045,180.5h54.649a24.468,24.468,0,0,1,24.468,24.468V305.185a0,0,0,0,1,0,0H719.577a0,0,0,0,1,0,0V204.971A24.468,24.468,0,0,1,744.045,180.5Z" style="fill:#fff;stroke:#1d1e1b;stroke-miterlimit:10"/><path d="M779.458,305.182l-90.275-71.219c-6.979-5.5-16.8-7.319-24.785-5.785-6.024,1.157-8.8,3.2-8.8,3.2l-9.018-3.4a21.842,21.842,0,0,0-25.057,7.628L539.476,347.6h94.413l25.232-38.37s33.323,31.614,47.641,45.326c18.768,17.973,32.822,33.426,69.3,33.426,23.549,0,47.239-20.263,47.239-45.7V305.185Z" style="fill:#fff;stroke:#1d1e1b;stroke-miterlimit:10"/><path d="M523.365,388.293h-50.55a20.368,20.368,0,0,1-20.369-20.368h0a20.368,20.368,0,0,1,20.369-20.369h84.492Z" style="fill:#fff;stroke:#1d1e1b;stroke-miterlimit:10"/><path d="M607.1,388.293H594.688l7.01-10.834s-22.9,4.794-42.127,8.884a103.773,103.773,0,0,1-21.033,1.95c-10.561,0-20.368-9.119-20.368-20.368h0a20.368,20.368,0,0,1,20.368-20.369h95.63Z" style="fill:#fff;stroke:#1d1e1b;stroke-miterlimit:10"/><path d="M670.743,227.643c-14.274,0-20.306,7.44-24.472,13.874L572.026,347.371" style="fill:none;stroke:#1d1e1b;stroke-miterlimit:10"/><line x1="779.111" y1="304.923" x2="809.086" y2="328.853" style="fill:none;stroke:#1d1e1b;stroke-miterlimit:10"/><path d="M659.121,309.226l9.205-14.007s26.509,31.726,50.881,61.634c15.49,19.007,36.888,31.111,53.163,31.111" style="fill:none;stroke:#1d1e1b;stroke-miterlimit:10"/><polyline points="750.991 180.811 750.991 196.26 770.178 180.811 789.995 196.26 789.995 180.312" style="fill:none;stroke:#1d1e1b;stroke-miterlimit:10"/><line x1="769.917" y1="180.402" x2="769.917" y2="297.052" style="fill:none;stroke:#1d1e1b;stroke-miterlimit:10"/><polygon points="756.755 236.249 745.331 242.239 733.526 236.249 733.526 215.773 756.755 215.773 756.755 236.249" style="fill:#fff;stroke:#1d1e1b;stroke-miterlimit:10"/><circle cx="359.817" cy="100.392" r="11.213" style="fill:#fff;stroke:#1d1e1b;stroke-miterlimit:10"/><path d="M796.631,218.571l6.541,46.72-33.2-26.044-28.646,35.6s59.5,47.573,68.221,54.489c10.99,8.715,24.376,8.462,34,1.658,13.54-9.57,8.6-28.7,7.606-38.03-1.189-11.171-8.272-69.448-10.824-88.007S824.885,180.5,810.615,180.5H794.7" style="fill:#fff;stroke:#1d1e1b;stroke-miterlimit:10"/><path d="M759.11,252.816s-5.6-4.892-10.881-9.4c-6.792-5.791-11.675-7.64-22.971-8.595-6.676-.564-12.583-.214-18.089-4.253-3.288-2.413-10.017-7.954-14.442-3.683-4.367,4.216-.763,9.378,1.359,11.011,2.353,1.81,47.245,36.947,47.245,36.947Z" style="fill:#fff;stroke:#1d1e1b;stroke-miterlimit:10"/><path d="M744.5,277.431c2.706,2.245,9.834,5.675,15.854-2.07,6.2-7.978,21.3-26.761,21.3-26.761" style="fill:none;stroke:#1d1e1b;stroke-miterlimit:10"/><line x1="803.026" y1="265.088" x2="825.754" y2="284.697" style="fill:none;stroke:#1d1e1b;stroke-miterlimit:10"/><circle cx="752.391" cy="272.978" r="2.339" style="fill:none;stroke:#1d1e1b;stroke-miterlimit:10"/><path d="M813.127,180.66c-9.92,0-18.037,10.822-16.594,23.447" style="fill:none;stroke:#1d1e1b;stroke-miterlimit:10"/><line x1="550.23" y1="347.598" x2="550.23" y2="356.541" style="fill:none;stroke:#1d1e1b;stroke-miterlimit:10"/><line x1="564.001" y1="347.598" x2="564.001" y2="356.541" style="fill:none;stroke:#1d1e1b;stroke-miterlimit:10"/><line x1="577.772" y1="347.598" x2="577.772" y2="356.541" style="fill:none;stroke:#1d1e1b;stroke-miterlimit:10"/><line x1="591.544" y1="347.598" x2="591.544" y2="356.541" style="fill:none;stroke:#1d1e1b;stroke-miterlimit:10"/><line x1="605.315" y1="347.598" x2="605.315" y2="356.541" style="fill:none;stroke:#1d1e1b;stroke-miterlimit:10"/><line x1="480.161" y1="347.598" x2="480.161" y2="356.541" style="fill:none;stroke:#1d1e1b;stroke-miterlimit:10"/><line x1="493.667" y1="347.598" x2="493.667" y2="356.541" style="fill:none;stroke:#1d1e1b;stroke-miterlimit:10"/><line x1="507.173" y1="347.598" x2="507.173" y2="356.541" style="fill:none;stroke:#1d1e1b;stroke-miterlimit:10"/><line x1="520.679" y1="347.598" x2="520.679" y2="356.541" style="fill:none;stroke:#1d1e1b;stroke-miterlimit:10"/><path d="M520.8,377.664c3.292,4.117,15.08,4.976,27.174,2.392,12.112-2.588,75-15.892,75-15.892" style="fill:none;stroke:#1d1e1b;stroke-miterlimit:10"/><path d="M454.487,376.793c3.291,4.117,15.059,4.872,27.174,2.392,8.5-1.739,36.88-7.954,36.88-7.954" style="fill:none;stroke:#1d1e1b;stroke-miterlimit:10"/><path d="M733.372,154.679s7.419.265,9.407-6.227" style="fill:none;stroke:#1d1e1b;stroke-miterlimit:10"/><path d="M442.616,59.855v.373c-5.272,0-8.352,3.194-8.352,8.442h-.527c0-5.272-3.157-8.441-8.382-8.441v-.373c5.226,0,8.384-3.2,8.384-8.445h.526C434.264,56.658,437.344,59.855,442.616,59.855Z" style="fill:none;stroke:#1d1e1b;stroke-miterlimit:10"/><path d="M211.339,128.705v.373c-5.272,0-8.352,3.194-8.352,8.442h-.527c0-5.272-3.157-8.441-8.382-8.441v-.373c5.225,0,8.384-3.2,8.384-8.445h.525C202.986,125.508,206.066,128.705,211.339,128.705Z" style="fill:none;stroke:#1d1e1b;stroke-miterlimit:10"/><path d="M46,360.616v.373c-5.272,0-8.352,3.194-8.352,8.442h-.526c0-5.272-3.158-8.441-8.383-8.441v-.373c5.225,0,8.384-3.2,8.384-8.445h.525C37.647,357.419,40.727,360.616,46,360.616Z" style="fill:none;stroke:#1d1e1b;stroke-miterlimit:10"/><path d="M275.146,27.2v.191a3.946,3.946,0,0,0-4.272,4.319h-.27a3.963,3.963,0,0,0-4.288-4.319V27.2a3.971,3.971,0,0,0,4.289-4.32h.269A3.947,3.947,0,0,0,275.146,27.2Z" style="fill:none;stroke:#1d1e1b;stroke-miterlimit:10"/><path d="M326.517,68.837v.191a3.947,3.947,0,0,0-4.273,4.319h-.269a3.964,3.964,0,0,0-4.288-4.319v-.191a3.971,3.971,0,0,0,4.289-4.32h.268A3.947,3.947,0,0,0,326.517,68.837Z" style="fill:none;stroke:#1d1e1b;stroke-miterlimit:10"/><path d="M336.7,295.52v.191a3.946,3.946,0,0,0-4.272,4.319h-.27a3.964,3.964,0,0,0-4.288-4.319v-.191a3.971,3.971,0,0,0,4.289-4.32h.269A3.947,3.947,0,0,0,336.7,295.52Z" style="fill:none;stroke:#fff;stroke-miterlimit:10"/><line x1="668.349" y1="295.386" x2="668.349" y2="266.52" style="fill:none;stroke:#1d1e1b;stroke-miterlimit:10"/><line x1="654.563" y1="278.989" x2="668.404" y2="295.451" style="fill:none;stroke:#1d1e1b;stroke-miterlimit:10"/><line x1="680.411" y1="278.042" x2="668.155" y2="295.534" style="fill:none;stroke:#1d1e1b;stroke-miterlimit:10"/><path d="M693.527,226.367s4.851,3.363,7.167,4.851,5.072.772,6.064-.662" style="fill:none;stroke:#1d1e1b;stroke-miterlimit:10"/><line x1="501.46" y1="83.722" x2="501.46" y2="114.905" style="fill:none;stroke:#1d1e1b;stroke-miterlimit:10"/><line x1="485.868" y1="99.313" x2="517.051" y2="99.313" style="fill:none;stroke:#1d1e1b;stroke-miterlimit:10"/><line x1="508.82" y1="91.953" x2="494.099" y2="106.673" style="fill:none;stroke:#1d1e1b;stroke-miterlimit:10"/><line x1="494.099" y1="91.953" x2="508.82" y2="106.673" style="fill:none;stroke:#1d1e1b;stroke-miterlimit:10"/><line x1="117.914" y1="242.024" x2="117.914" y2="260.011" style="fill:none;stroke:#1d1e1b;stroke-miterlimit:10"/><line x1="108.921" y1="251.018" x2="126.908" y2="251.018" style="fill:none;stroke:#1d1e1b;stroke-miterlimit:10"/><line x1="122.159" y1="246.772" x2="113.669" y2="255.263" style="fill:none;stroke:#1d1e1b;stroke-miterlimit:10"/><line x1="113.669" y1="246.772" x2="122.159" y2="255.263" style="fill:none;stroke:#1d1e1b;stroke-miterlimit:10"/><line x1="52.864" y1="97.104" x2="52.864" y2="121.329" style="fill:none;stroke:#1d1e1b;stroke-miterlimit:10"/><line x1="40.751" y1="109.217" x2="64.976" y2="109.217" style="fill:none;stroke:#1d1e1b;stroke-miterlimit:10"/><line x1="58.582" y1="103.499" x2="47.146" y2="114.934" style="fill:none;stroke:#1d1e1b;stroke-miterlimit:10"/><line x1="47.146" y1="103.499" x2="58.582" y2="114.934" style="fill:none;stroke:#1d1e1b;stroke-miterlimit:10"/><circle cx="203.494" cy="252.9" r="3.444" style="fill:none;stroke:#fff;stroke-miterlimit:10"/><circle cx="376.487" cy="271.346" r="3.444" style="fill:none;stroke:#fff;stroke-miterlimit:10"/><circle cx="428.973" cy="220.623" r="3.444" style="fill:none;stroke:#fff;stroke-miterlimit:10"/><circle cx="376.281" cy="246.629" r="1.091" style="fill:none;stroke:#fff;stroke-miterlimit:10"/><circle cx="394.737" cy="274.622" r="1.091" style="fill:none;stroke:#fff;stroke-miterlimit:10"/><circle cx="176.3" cy="244.815" r="1.091" style="fill:none;stroke:#fff;stroke-miterlimit:10"/><circle cx="217.674" cy="234.583" r="1.091" style="fill:none;stroke:#fff;stroke-miterlimit:10"/><circle cx="528.767" cy="58.823" r="3.444" style="fill:none;stroke:#1d1e1b;stroke-miterlimit:10"/><circle cx="162.433" cy="71.412" r="3.444" style="fill:none;stroke:#1d1e1b;stroke-miterlimit:10"/><circle cx="500.921" cy="165.187" r="3.444" style="fill:none;stroke:#1d1e1b;stroke-miterlimit:10"/><circle cx="89.628" cy="234.257" r="3.444" style="fill:none;stroke:#1d1e1b;stroke-miterlimit:10"/><circle cx="75.519" cy="132.842" r="3.444" style="fill:none;stroke:#1d1e1b;stroke-miterlimit:10"/><circle cx="889.848" cy="110.624" r="9.778" style="fill:none;stroke:#1d1e1b;stroke-miterlimit:10"/><polyline points="885.345 102.001 885.345 97.062 894.563 97.062 894.563 102.001" style="fill:none;stroke:#1d1e1b;stroke-miterlimit:10"/><path d="M887.848,97.108v-1.29a2.111,2.111,0,0,1,4.221,0v1.055" style="fill:none;stroke:#1d1e1b;stroke-miterlimit:10"/><line x1="889.947" y1="96.999" x2="889.947" y2="85.863" style="fill:none;stroke:#1d1e1b;stroke-miterlimit:10"/><circle cx="882.258" cy="178.864" r="9.778" style="fill:none;stroke:#1d1e1b;stroke-miterlimit:10"/><polyline points="877.755 170.241 877.755 165.302 886.973 165.302 886.973 170.241" style="fill:none;stroke:#1d1e1b;stroke-miterlimit:10"/><path d="M880.258,165.348v-1.29a2.111,2.111,0,0,1,4.221,0v1.055" style="fill:none;stroke:#1d1e1b;stroke-miterlimit:10"/><line x1="882.357" y1="165.239" x2="882.357" y2="154.103" style="fill:none;stroke:#1d1e1b;stroke-miterlimit:10"/><circle cx="915.437" cy="198.231" r="6.761" style="fill:none;stroke:#1d1e1b;stroke-miterlimit:10"/><polyline points="912.323 192.269 912.323 188.854 918.697 188.854 918.697 192.269" style="fill:none;stroke:#1d1e1b;stroke-miterlimit:10"/><path d="M914.054,188.886v-.892a1.459,1.459,0,1,1,2.918,0v.73" style="fill:none;stroke:#1d1e1b;stroke-miterlimit:10"/><line x1="915.505" y1="188.811" x2="915.505" y2="181.11" style="fill:none;stroke:#1d1e1b;stroke-miterlimit:10"/><circle cx="862.289" cy="121.764" r="6.761" style="fill:none;stroke:#1d1e1b;stroke-miterlimit:10"/><polyline points="859.175 115.801 859.175 112.386 865.549 112.386 865.549 115.801" style="fill:none;stroke:#1d1e1b;stroke-miterlimit:10"/><path d="M860.906,112.418v-.892a1.46,1.46,0,0,1,2.919,0v.73" style="fill:none;stroke:#1d1e1b;stroke-miterlimit:10"/><line x1="862.357" y1="112.343" x2="862.357" y2="104.642" style="fill:none;stroke:#1d1e1b;stroke-miterlimit:10"/><circle cx="947.106" cy="275.122" r="9.778" style="fill:none;stroke:#1d1e1b;stroke-miterlimit:10"/><polyline points="942.603 266.499 942.603 261.56 951.821 261.56 951.821 266.499" style="fill:none;stroke:#1d1e1b;stroke-miterlimit:10"/><path d="M945.106,261.606v-1.29a2.111,2.111,0,0,1,4.221,0v1.056" style="fill:none;stroke:#1d1e1b;stroke-miterlimit:10"/><line x1="947.204" y1="261.497" x2="947.204" y2="250.361" style="fill:none;stroke:#1d1e1b;stroke-miterlimit:10"/><rect x="212.941" y="141.144" width="78.459" height="50.567" rx="6.715" style="fill:#fff;stroke:#1d1e1b;stroke-miterlimit:10"/><rect x="215.685" y="141.144" width="78.459" height="50.567" rx="6.715" style="fill:#fff;stroke:#1d1e1b;stroke-miterlimit:10"/><line x1="222.469" y1="178.228" x2="277.577" y2="178.228" style="fill:none;stroke:#1d1e1b;stroke-miterlimit:10"/><line x1="222.469" y1="150.284" x2="277.577" y2="150.284" style="fill:none;stroke:#1d1e1b;stroke-miterlimit:10"/><line x1="222.469" y1="183.274" x2="258.057" y2="183.274" style="fill:none;stroke:#1d1e1b;stroke-miterlimit:10"/><circle cx="88.921" cy="348.33" r="9.778" style="fill:#fff;stroke:#1d1e1b;stroke-miterlimit:10"/><rect x="84.418" y="334.769" width="9.219" height="4.939" style="fill:#fff;stroke:#1d1e1b;stroke-miterlimit:10"/><path d="M86.921,334.814v-1.289a2.111,2.111,0,1,1,4.221,0v1.055" style="fill:none;stroke:#1d1e1b;stroke-miterlimit:10"/><line x1="89.02" y1="334.705" x2="89.02" y2="315.703" style="fill:none;stroke:#1d1e1b;stroke-miterlimit:10"/><path d="M166.233,349.329l-4.115,4.5c-.313.342-.895,0-1.02-.59L156.115,329.4c-.153-.729-.934-1-1.133-.391l-4.532,13.882c-.182.556-.876.387-1.1-.268l-8.49-24.96c-.192-.566-.763-.8-1.027-.415L135.24,323.9c-.269.391-.856.14-1.036-.443l-7.362-23.827c-.183-.593-.784-.839-1.046-.428l-5.823,9.147c-.234.366-.754.216-.992-.286l-10.766-22.8c-.315-.667-1.046-.646-1.087.032l-1.009,16.466c-.032.526-.4.691-.813.366l-17.7-13.866c-.642-.5-1.131.405-.583,1.081L102.287,308.2c.325.4.306,1-.036,1.175L84.924,314.57c-.465.236-.3,1.166.258,1.407l25.607,9.768c.525.229.716,1.1.3,1.38l-8.769,6.03c-.413.284-.22,1.155.307,1.381l26.088,11.222c.5.216.711,1.035.343,1.352l-8.447,7.3c-.382.33-.141,1.188.385,1.369l27.04,9.318s-.028,5.36-.418,5.685l-4.813-3.185a.4.4,0,0,0-.623.3,22.415,22.415,0,0,1-1.167,5l-8.381-4.745a.4.4,0,0,0-.593.37l.348,5.723a.4.4,0,0,1-.628.347l-11.381-8.159a.4.4,0,0,0-.611.439l2.087,6.83a.4.4,0,0,1-.557.471l-14.886-7.442a.4.4,0,0,0-.542.514l2.9,6.608a.4.4,0,0,1-.257.543l-12.874,3.568a.4.4,0,0,0,.062.778l15.047,1.652a.4.4,0,0,1,.338.506l-.947,3.259a.4.4,0,0,0,.589.45l5.922-3.63a.4.4,0,0,1,.595.43l-.754,3.2a.4.4,0,0,0,.608.421l6.31-4.234a.4.4,0,0,1,.618.355L123.8,384.7a.4.4,0,0,0,.582.377L131,381.583a.4.4,0,0,1,.57.45l-.616,5.338a.4.4,0,0,0,.362.5l35.954.244,12.028.018s-12.028-1.768-12.028-14.887V350.127C167.282,349.453,166.6,348.93,166.233,349.329Z" style="fill:#1d1e1b;stroke:#1d1e1b;stroke-miterlimit:10"/><path d="M578.562,167.027s7.8-16.855,24.653-16.855S633.2,162,643.466,162c11.036,0,19.159-16.352,33.961-16.352,10.566,0,16.855,9.811,15.094,15.6" style="fill:none;stroke:#1d1e1b;stroke-miterlimit:10"/><path d="M251.809,124.9l1.344-3.1,11.8-7.017-2.837-13.363,1.344-3.1L269.4,100.9l1.844,10.639,9.131-5.879,5.588,2.423-1.344,3.1-11.38,6.895,2.979,13.727-1.343,3.1-5.893-2.556-1.96-11.353-9.573,6.351Z" style="fill:#1d1e1b"/><path d="M279.106,136.733l2.335-5.386,15.413-6.17a65.9,65.9,0,0,0,7.162-3.293,6.841,6.841,0,0,0,2.631-3.145c1.234-2.844.7-5.792-2.7-7.269-3.454-1.5-6.136-.187-8.015,4.009l-6.3-2.732q2.478-5.715,7.1-7.606a12.226,12.226,0,0,1,9.815.335q5.562,2.412,7.148,6.9a11.757,11.757,0,0,1-.33,8.971,12.575,12.575,0,0,1-4.41,5.573,44.691,44.691,0,0,1-8.727,4.123l-9.578,3.572,14.224,6.169-2.6,5.994Z" style="fill:#1d1e1b"/><rect x="227.385" y="210.858" width="141.222" height="24.966" rx="12.483" transform="translate(89.362 -85.131) rotate(19.077)" style="fill:#fff;stroke:#1d1e1b;stroke-miterlimit:10"/><path d="M353.419,235.779a6.344,6.344,0,1,0,3.922,8.07A6.345,6.345,0,0,0,353.419,235.779Zm-3.581,10.353a4.61,4.61,0,1,1,5.864-2.85A4.61,4.61,0,0,1,349.838,246.132Z" style="fill:#1d1e1b"/><path d="M286.055,212.484a3.938,3.938,0,0,0-4.181,1.274l.678-1.96-4.974-1.72-.568,1.643,3.345,1.157-2.711,7.838-3.355-1.156-.564,1.63,9.124,3.15.564-1.629-4.14-1.432,1.719-4.969c.258-.745,1.835-3.224,4.065-2.453a2.3,2.3,0,0,1,1.484,1.244,1.353,1.353,0,1,0,2.064,1.465C289.034,215.323,288.188,213.221,286.055,212.484Z" style="fill:#1d1e1b"/><path d="M328.518,227.164a3.93,3.93,0,0,0-4.178,1.269l.673-1.947-4.973-1.723-.569,1.645,3.344,1.157-2.706,7.825-3.355-1.155-.563,1.629,9.124,3.151.563-1.63-4.139-1.431,1.718-4.97c.258-.745,1.835-3.223,4.065-2.452a2.291,2.291,0,0,1,1.484,1.244,1.353,1.353,0,1,0,2.064,1.464C331.5,230,330.651,227.9,328.518,227.164Z" style="fill:#1d1e1b"/><path d="M299.571,223.03a1.36,1.36,0,0,0,1.731-.842,1.116,1.116,0,0,0,.045-.167c.349-1.538-1.185-4.632-4.145-5.656a6.358,6.358,0,1,0,2.3,10.684l-1-1.341a4.916,4.916,0,0,1-4.887,1.031,4.619,4.619,0,0,1,3.02-8.731,4.418,4.418,0,0,1,2.764,2.524,1.36,1.36,0,0,0,.173,2.5Z" style="fill:#1d1e1b"/><polygon points="340.984 233.849 342.332 234.315 336.808 240.858 336.238 232.21 337.619 232.687 338.188 231.041 333.404 229.386 332.835 231.03 334.491 231.603 335.198 242.767 330.929 247.826 332.673 248.429 344.075 234.92 345.768 235.505 346.337 233.859 341.553 232.204 340.984 233.849" style="fill:#1d1e1b"/><path d="M258.685,208.3c1.009-2.915-.314-5.393-2.7-6.217a5.125,5.125,0,0,0-5.062,1.307,4.428,4.428,0,0,0-3.033-4.107,4.665,4.665,0,0,0-4.612,1.119l.677-1.955-3.388-1.164L240,198.927l1.756.607-3.27,9.454,1.63.563,2.288-6.616c.264-.762,2.108-3.141,4.733-2.234a3.374,3.374,0,0,1,1.753,4.441l-2.3,6.649,1.63.564s2.258-6.532,2.3-6.649a3.857,3.857,0,0,1,4.713-2.2,3.258,3.258,0,0,1,1.791,4.33l-2.338,6.76,3.383,1.169.559-1.618-1.753-.606Z" style="fill:#1d1e1b"/><path d="M269.877,206.881a6.316,6.316,0,0,0-8.071,3.884c-.038.111-.165.558-.182.629a6.44,6.44,0,0,0,10.63,6.169l-1-1.342a4.914,4.914,0,0,1-4.887,1.032,4.654,4.654,0,0,1-3.072-5.3l10.064,3.488q.135-.291.243-.6A6.117,6.117,0,0,0,269.877,206.881Zm-5.965,3.467a4.645,4.645,0,0,1,5.431-1.889,4.379,4.379,0,0,1,2.877,4.762Z" style="fill:#1d1e1b"/><path d="M315.8,223.3l-1.629-.563-2.274,6.58a4.06,4.06,0,0,1-4.765,2.291,3.366,3.366,0,0,1-1.78-4.328L307.7,220.5l-3.384-1.168-.567,1.639,1.754.606-1.81,5.235c-1.008,2.916.338,5.31,2.721,6.134a5.033,5.033,0,0,0,4.516-.826l-.6,1.732,3.388,1.164.563-1.629-1.756-.607Z" style="fill:#1d1e1b"/><path d="M316.762,246.04a18.865,18.865,0,0,0-4.249,1.476,18.626,18.626,0,0,1-8.079,2.043,18.934,18.934,0,0,0-8.574,2.077,18.619,18.619,0,0,1-8.117,1.883,18.806,18.806,0,0,0-4.455.633c-8.657,2.3-14.347,10.5-12.811,18.489,1.7,8.809,11.091,14.133,20.6,11.83a18.8,18.8,0,0,0,4.164-1.545,17.14,17.14,0,0,1,7.751-1.878,18.943,18.943,0,0,0,8.574-2.078,17.127,17.127,0,0,1,7.751-1.878,18.837,18.837,0,0,0,4.41-.533c9.5-2.3,15.421-11.338,12.894-19.947C334.326,248.81,325.512,244.122,316.762,246.04Z" style="fill:#fff;stroke:#1d1e1b"/><path d="M283.125,279.67l-4.181-17.254,6.26-1.517c4.265-1.034,7.4.5,8.317,4.274l1.3,5.373c.914,3.772-1.173,6.573-5.438,7.607Zm2.759-3.905,2.761-.669c2.144-.519,3.084-2.025,2.7-3.6l-1.35-5.57c-.383-1.578-1.908-2.487-4.052-1.968l-2.761.669Z" style="fill:none;stroke:#1d1e1b"/><path d="M299.832,275.621l-.28-1.158,2.064-17.541,3.426-.831,9.89,14.645.281,1.158-3.451.837-2.359-3.708-5.892,1.427-.449,4.389Zm4.01-8.331,3.8-.92-3.235-5.165Z" style="fill:none;stroke:#1d1e1b"/><polygon points="325.256 254.899 324.408 251.399 321.294 252.154 321.294 252.153 317.794 253.001 317.794 253.002 314.68 253.756 315.529 257.257 318.642 256.502 321.134 266.783 318.02 267.537 318.868 271.037 328.596 268.68 327.748 265.18 324.634 265.934 322.143 255.654 325.256 254.899" style="fill:none;stroke:#1d1e1b"/><path d="M401.239,329.965v-8.242c0-12.006-9.614-14.154-14.594-11.387-28.117,15.621-42.456,24.329-87.466,24.329-44.589,0-68.907-13.528-85.776-25.268-4.676-3.254-14.731-1.9-14.731,12.53v8.038c0,7.922-7.427,14.343-16.589,14.343h0c-8.034,0-14.546,5.631-14.546,12.577v18.559c0,6.945,6.512,12.576,14.546,12.576H417.827c8.034,0,14.547-5.631,14.547-12.576V356.885c0-6.946-6.513-12.577-14.547-12.577h0C408.666,344.308,401.239,337.887,401.239,329.965Z" style="fill:#fff;stroke:#1d1e1b;stroke-miterlimit:10"/><line x1="182.336" y1="344.326" x2="416.917" y2="344.326" style="fill:#fff;stroke:#1d1e1b;stroke-miterlimit:10"/><line x1="183.833" y1="355.3" x2="283.583" y2="355.3" style="fill:#fff;stroke:#1d1e1b;stroke-miterlimit:10"/><line x1="698.235" y1="278.924" x2="787.139" y2="362.784" style="fill:none;stroke:#1d1e1b;stroke-miterlimit:10"/><line x1="854.403" y1="228.052" x2="950.618" y2="358.255" style="fill:none;stroke:#fff;stroke-miterlimit:10"/><line x1="865.483" y1="279.345" x2="907.951" y2="358.942" style="fill:none;stroke:#fff;stroke-miterlimit:10"/><polygon points="411.777 188.838 382.093 159.154 367.394 173.853 352.695 159.154 337.996 173.853 323.298 159.154 293.614 188.838 323.298 218.522 337.996 203.823 352.695 218.522 367.394 203.823 382.093 218.522 411.777 188.838" style="fill:#fff;stroke:#1d1e1b;stroke-miterlimit:10"/><polygon points="416.31 188.838 386.627 159.154 371.928 173.853 357.229 159.154 342.53 173.853 327.831 159.154 298.147 188.838 327.831 218.522 342.53 203.823 357.229 218.522 371.928 203.823 386.627 218.522 416.31 188.838" style="fill:#fff;stroke:#1d1e1b;stroke-miterlimit:10"/><path d="M326.2,199.372V183.1h-5.564v-3.5h15.111v3.5H330.21v16.268Z" style="fill:#1d1e1b"/><path d="M350.932,199.372V179.6h8.558c3.983,0,6.129,2.288,6.129,6.157a5.961,5.961,0,0,1-3.248,5.706l3.644,6.581v1.327h-3.9l-4.124-7.428h-3.05v7.428Zm4.011-10.817h3.813a2.434,2.434,0,0,0,2.768-2.74c0-1.808-.932-2.711-2.768-2.711h-3.813Z" style="fill:#1d1e1b"/><path d="M378.9,199.372v-1.327l6.044-8.954-5.479-8.162V179.6h4.1l3.869,6.355,4.124-6.355H395.4v1.328l-5.535,8.134,6.1,8.982v1.327H391.9l-4.547-7.061-4.6,7.061Z" style="fill:#1d1e1b"/><path d="M396.428,254.314A10,10,0,0,1,388.76,237.9c.425-.528,11.69-14.81,11.69-41.944,0-39.962-24.794-64.809-25.045-65.055a10,10,0,1,1,14.024-14.259c1.266,1.245,31.021,31.062,31.021,79.314a101.914,101.914,0,0,1-7.824,39.976,63.383,63.383,0,0,1-8.52,14.793A9.974,9.974,0,0,1,396.428,254.314Z" style="fill:#fff;stroke:#1d1e1b;stroke-miterlimit:10"/><line x1="302.455" y1="30.516" x2="302.455" y2="10.934" style="fill:none;stroke:#1d1e1b;stroke-miterlimit:10"/><line x1="182.435" y1="20.111" x2="214.333" y2="54.994" style="fill:none;stroke:#1d1e1b;stroke-miterlimit:10"/><line x1="377.86" y1="43.938" x2="400.157" y2="12.616" style="fill:none;stroke:#1d1e1b;stroke-miterlimit:10"/><path d="M241.048,78.478a12.1,12.1,0,0,1,9.037-14.532,77.809,77.809,0,0,1,94.931,84.6,12.1,12.1,0,0,1-24.043-2.76A53.608,53.608,0,0,0,255.58,87.515,12.1,12.1,0,0,1,241.048,78.478Z" style="fill:#fff;stroke:#1d1e1b;stroke-miterlimit:10"/><path d="M256.514,79.77l-1.287-8.259-2.826.44-.275-1.777,7.671-1.2.276,1.776-2.809.439,1.287,8.259Z" style="fill:#1d1e1b"/><path d="M261.31,78.978l-.011-.684,3.365-9.531,2.017-.03,3.674,9.421.011.682-2.032.032-.85-2.368-3.468.055-.8,2.392Zm3.289-4.145,2.234-.035-1.154-3.292Z" style="fill:#1d1e1b"/><path d="M271.968,79l1.462-10.06,4.354.631a2.865,2.865,0,0,1,2.665,3.586,3.065,3.065,0,0,1-2.074,2.664l1.367,3.618-.1.676-1.984-.288-1.55-4.085-1.553-.225-.547,3.779Zm2.842-5.208,1.939.281a1.4,1.4,0,1,0,.4-2.774l-1.939-.281Z" style="fill:#1d1e1b"/><path d="M282.414,77.289l1.007-3.171c.7-2.2,2.534-3.035,4.97-2.261a4.073,4.073,0,0,1,2.377,1.73,3.257,3.257,0,0,1,.237,2.8l-1.966-.625a1.687,1.687,0,0,0-1.33-2.145,1.613,1.613,0,0,0-2.3,1.038l-1.029,3.24a1.636,1.636,0,0,0,1.23,2.22,2.373,2.373,0,0,0,2.159-.366l.335-1.052-1.717-.547.519-1.632,3.681,1.17-1.661,5.232-1.052-.335-.285-.974a3.194,3.194,0,0,1-2.729.246A3.372,3.372,0,0,1,282.414,77.289Z" style="fill:#1d1e1b"/><path d="M291.2,83.9l4.512-9.116,5.938,2.939-.8,1.616-4.09-2.024-1.07,2.161,3.491,1.728-.761,1.538-3.492-1.729L293.847,83.2l4.115,2.038-.8,1.615Z" style="fill:#1d1e1b"/><path d="M300.453,89l4.727-6.905-2.363-1.616,1.018-1.487,6.414,4.39-1.016,1.485-2.351-1.609-4.726,6.907Z" style="fill:#1d1e1b"/><path d="M312.1,93.909l2.472-2.22c1.718-1.541,3.72-1.328,5.426.572a4.078,4.078,0,0,1,1.168,2.7,3.245,3.245,0,0,1-1.218,2.532l-1.373-1.533a1.686,1.686,0,0,0-.06-2.52,1.609,1.609,0,0,0-2.5-.272l-2.528,2.268a1.633,1.633,0,0,0-.066,2.535,2.365,2.365,0,0,0,2.044.779l.821-.738-1.2-1.338,1.274-1.143,2.577,2.873-4.083,3.662-.736-.821.247-.984a3.182,3.182,0,0,1-2.473-1.172A3.367,3.367,0,0,1,312.1,93.909Z" style="fill:#1d1e1b"/><path d="M316.289,104.057l8.5-5.564,1.128,1.723-6.991,4.579,2.543,3.884-1.5.985Z" style="fill:#1d1e1b"/><path d="M326.714,108.033c2.1-.959,3.986-.113,5.023,2.157s.441,4.252-1.659,5.209l-2.957,1.352c-2.1.959-3.986.113-5.022-2.158s-.441-4.251,1.658-5.21Zm2.6,5.45a2.016,2.016,0,0,0-1.652-3.617L324.52,111.3a2.016,2.016,0,0,0,1.652,3.617Z" style="fill:#1d1e1b"/><path d="M324.737,120.389l9.8-2.693,1.139,4.142c.5,1.805-.155,3.16-1.905,3.641a2.207,2.207,0,0,1-2.316-.539,2.411,2.411,0,0,1-1.915,2.123c-1.806.5-3.05-.307-3.554-2.141Zm6.271.413.56,2.043a1.226,1.226,0,0,0,2.339-.642l-.562-2.044Zm-3.99,1.1.673,2.45a1.226,1.226,0,0,0,2.339-.644l-.675-2.45Z" style="fill:#1d1e1b"/><path d="M327,128.82l.679-.074,9.8,2.468.218,2.009-9.043,4.529-.679.074-.219-2.019,2.279-1.067-.376-3.448-2.457-.58Zm4.432,2.893.241,2.223,3.172-1.455Z" style="fill:#1d1e1b"/><path d="M327.914,139.421l10.156.39-.079,2.061-8.356-.321-.178,4.642-1.8-.07Z" style="fill:#1d1e1b"/><line x1="749.793" y1="64.759" x2="749.793" y2="111.215" style="fill:none;stroke:#fff;stroke-miterlimit:10"/><line x1="761" y1="67.117" x2="761" y2="88.325" style="fill:none;stroke:#fff;stroke-miterlimit:10"/><path d="M218.3,197.934s.731-2.479,2.628-2.479,3.066,3.072,3.066,7.91-1.2,8.762-3.08,8.762c-1.416,0-1.475-1.062-1.475-1.062" style="fill:#fff;stroke:#1d1e1b;stroke-miterlimit:10"/><circle cx="187.207" cy="206.74" r="32.376" style="fill:#fff;stroke:#1d1e1b;stroke-miterlimit:10"/><circle cx="173.845" cy="200.637" r="5.352" style="fill:none;stroke:#1d1e1b;stroke-miterlimit:10"/><path d="M174,205.98l-.047-10.694h0A5.349,5.349,0,0,1,174,205.98Z" style="fill:#1d1e1b"/><circle cx="202.351" cy="200.637" r="5.352" style="fill:none;stroke:#1d1e1b;stroke-miterlimit:10"/><path d="M202.506,205.98l-.047-10.694h0a5.349,5.349,0,0,1,.046,10.694Z" style="fill:#1d1e1b"/><path d="M193.887,216.062a5.468,5.468,0,1,1-10.936,0" style="fill:#fff;stroke:#1d1e1b;stroke-miterlimit:10"/><path d="M165.066,208.218a3.682,3.682,0,0,1,7.363,0" style="fill:#fff;stroke:#1d1e1b;stroke-miterlimit:10"/><path d="M204.119,208.218a3.682,3.682,0,0,1,7.363,0" style="fill:#fff;stroke:#1d1e1b;stroke-miterlimit:10"/><path d="M154.671,205.434c.36-3.391.891-7.019,2.941-7.019,2.646,0,3.862,7.96,3.862,7.96v-10.47c0-7.632,4.593-8.375,4.593-8.375h10.875c7.862,0,7.934-4.944,13.855-4.944,5.432,0,7.345,5.472,12.962,5.472,12.675,0,14.351,7.859,15.389,13.121a32.749,32.749,0,0,1,.116,10.609,31.64,31.64,0,0,0-.119-10.593c-.915-5.729-2.4-8.98-4.9-12.116-3.1-3.891-3.988-10.87-8.072-12.991-4.571-2.373-8.644-.594-12.538-1.174-4.536-.675-8.42-3.6-13-2.913-4.94.741-5.8,4.2-10.446,7.076-2.7,1.678-8.26,2.807-11.483,7.229C153.162,193.913,154.671,205.434,154.671,205.434Z" style="fill:#fff;stroke:#1d1e1b;stroke-miterlimit:10"/><path d="M187.566,198.972l6.717,8.682a2.16,2.16,0,0,1-1.709,3.482h-3.646" style="fill:#fff;stroke:#1d1e1b;stroke-miterlimit:10"/><path d="M154.825,205.69c0,3.783,1.49,10.355,4.389,10.355,2.342,0,2.5-3.112,2.5-3.112" style="fill:#fff;stroke:#1d1e1b;stroke-miterlimit:10"/></svg>