<svg width="1024" height="524" viewBox="0 0 1024 524" fill="none" xmlns="http://www.w3.org/2000/svg">
<path d="M492.073 26C418.657 26 415.86 65.8915 348.737 65.8915C290.704 65.8915 254.345 26 157.157 26C93.5295 26 32.6992 66.5914 32.6992 135.877C32.6992 217.059 32 218.459 32 266.049C32 305.241 32.6992 329.736 32.6992 396.221C32.6992 448.71 74.6511 497 149.465 497C222.881 497 241.06 467.606 296.996 467.606C349.436 467.606 393.486 496.3 462.706 496.3C534.724 496.3 543.114 461.308 602.546 461.308C647.295 461.308 666.173 487.202 708.125 487.202C743.085 487.202 764.411 487.202 792.728 487.202C825.591 487.202 849.363 487.202 902.503 487.202C945.853 487.202 992 458.508 992 388.523C992 310.84 976.618 278.646 976.618 235.256C976.618 186.266 992 183.467 992 119.78C992 65.1917 950.048 28.0996 882.925 28.0996C841.672 28.0996 719.312 27.3997 663.377 27.3997C617.929 27.3997 571.781 26 492.073 26Z" fill="#232323"/>
<path d="M707.426 237.215C709.318 237.215 710.852 235.68 710.852 233.786C710.852 231.892 709.318 230.357 707.426 230.357C705.534 230.357 704 231.892 704 233.786C704 235.68 705.534 237.215 707.426 237.215Z" fill="white"/>
<path d="M966.13 131.538C968.022 131.538 969.556 130.002 969.556 128.108C969.556 126.215 968.022 124.679 966.13 124.679C964.238 124.679 962.704 126.215 962.704 128.108C962.704 130.002 964.238 131.538 966.13 131.538Z" fill="white"/>
<path d="M600.449 43.3561C602.341 43.3561 603.875 41.8208 603.875 39.9268C603.875 38.0329 602.341 36.4976 600.449 36.4976C598.556 36.4976 597.022 38.0329 597.022 39.9268C597.022 41.8208 598.556 43.3561 600.449 43.3561Z" fill="white"/>
<path d="M407.47 449.97C409.362 449.97 410.896 448.435 410.896 446.541C410.896 444.647 409.362 443.111 407.47 443.111C405.578 443.111 404.044 444.647 404.044 446.541C404.044 448.435 405.578 449.97 407.47 449.97Z" fill="white"/>
<path d="M68.3587 109.142C70.2509 109.142 71.7848 107.607 71.7848 105.713C71.7848 103.819 70.2509 102.284 68.3587 102.284C66.4665 102.284 64.9326 103.819 64.9326 105.713C64.9326 107.607 66.4665 109.142 68.3587 109.142Z" fill="white"/>
<path d="M253.646 442.971C255.538 442.971 257.072 441.436 257.072 439.542C257.072 437.648 255.538 436.113 253.646 436.113C251.754 436.113 250.22 437.648 250.22 439.542C250.22 441.436 251.754 442.971 253.646 442.971Z" fill="white"/>
<path d="M915.088 440.872C916.98 440.872 918.514 439.337 918.514 437.443C918.514 435.549 916.98 434.013 915.088 434.013C913.196 434.013 911.662 435.549 911.662 437.443C911.662 439.337 913.196 440.872 915.088 440.872Z" fill="white"/>
<path d="M43.9563 329.176C45.8485 329.176 47.3824 327.64 47.3824 325.746C47.3824 323.852 45.8485 322.317 43.9563 322.317C42.0642 322.317 40.5303 323.852 40.5303 325.746C40.5303 327.64 42.0642 329.176 43.9563 329.176Z" fill="white"/>
<path d="M416.21 421.276C417.137 421.276 417.888 420.524 417.888 419.596C417.888 418.669 417.137 417.917 416.21 417.917C415.284 417.917 414.532 418.669 414.532 419.596C414.532 420.524 415.284 421.276 416.21 421.276Z" fill="white"/>
<path d="M557.448 48.2553C558.374 48.2553 559.126 47.5033 559.126 46.5756C559.126 45.648 558.374 44.896 557.448 44.896C556.521 44.896 555.77 45.648 555.77 46.5756C555.77 47.5033 556.521 48.2553 557.448 48.2553Z" fill="white"/>
<path d="M936.413 275.707C937.34 275.707 938.092 274.955 938.092 274.027C938.092 273.1 937.34 272.348 936.413 272.348C935.487 272.348 934.735 273.1 934.735 274.027C934.735 274.955 935.487 275.707 936.413 275.707Z" fill="white"/>
<path d="M969.975 368.787C970.902 368.787 971.653 368.035 971.653 367.108C971.653 366.18 970.902 365.428 969.975 365.428C969.048 365.428 968.297 366.18 968.297 367.108C968.297 368.035 969.048 368.787 969.975 368.787Z" fill="white"/>
<path d="M709.873 293.203C710.8 293.203 711.551 292.451 711.551 291.524C711.551 290.596 710.8 289.844 709.873 289.844C708.947 289.844 708.195 290.596 708.195 291.524C708.195 292.451 708.947 293.203 709.873 293.203Z" fill="white"/>
<path d="M79.1957 75.5497C80.1224 75.5497 80.8737 74.7977 80.8737 73.8701C80.8737 72.9424 80.1224 72.1904 79.1957 72.1904C78.2689 72.1904 77.5176 72.9424 77.5176 73.8701C77.5176 74.7977 78.2689 75.5497 79.1957 75.5497Z" fill="white"/>
<path d="M121.847 247.713C122.774 247.713 123.525 246.961 123.525 246.033C123.525 245.106 122.774 244.354 121.847 244.354C120.92 244.354 120.169 245.106 120.169 246.033C120.169 246.961 120.92 247.713 121.847 247.713Z" fill="white"/>
<path d="M426.698 194.524C427.624 194.524 428.376 193.772 428.376 192.845C428.376 191.917 427.624 191.165 426.698 191.165C425.771 191.165 425.02 191.917 425.02 192.845C425.02 193.772 425.771 194.524 426.698 194.524Z" fill="white"/>
<path d="M888.869 419.876C889.795 419.876 890.547 419.124 890.547 418.197C890.547 417.269 889.795 416.517 888.869 416.517C887.942 416.517 887.19 417.269 887.19 418.197C887.19 419.124 887.942 419.876 888.869 419.876Z" fill="white"/>
<path d="M227.426 462.567C228.353 462.567 229.104 461.815 229.104 460.888C229.104 459.96 228.353 459.208 227.426 459.208C226.499 459.208 225.748 459.96 225.748 460.888C225.748 461.815 226.499 462.567 227.426 462.567Z" fill="white"/>
<path d="M97.7246 111.382C98.4969 111.382 99.123 110.755 99.123 109.982C99.123 109.209 98.4969 108.583 97.7246 108.583C96.9523 108.583 96.3262 109.209 96.3262 109.982C96.3262 110.755 96.9523 111.382 97.7246 111.382Z" fill="white"/>
<path d="M908.375 93.1855V93.7454C900.195 93.7454 895.37 98.7144 895.37 106.903H894.531C894.531 98.7144 889.637 93.7454 881.456 93.7454V93.1855C889.567 93.1855 894.531 88.2166 894.531 80.0283H895.37C895.37 88.2166 900.195 93.1855 908.375 93.1855Z" fill="white"/>
<path d="M740.219 455.779V456.199C733.996 456.199 730.29 459.978 730.29 466.207H729.661C729.661 459.978 725.885 456.199 719.732 456.199V455.779C725.955 455.779 729.661 452 729.661 445.771H730.29C730.29 452 733.926 455.779 740.219 455.779Z" fill="white"/>
<path d="M450.89 56.9336V57.2835C446.276 57.2835 443.549 60.0829 443.549 64.7019H443.059C443.059 60.0829 440.263 57.2835 435.718 57.2835V56.9336C440.332 56.9336 443.059 54.1342 443.059 49.5151H443.549C443.549 54.1342 446.206 56.9336 450.89 56.9336Z" fill="white"/>
<path d="M317.553 82.8278V83.1777C312.798 83.1777 310.001 86.0471 310.001 90.8761H309.512C309.512 86.1171 306.645 83.1777 301.891 83.1777V82.8278C306.645 82.8278 309.512 79.8884 309.512 75.1294H310.001C310.001 79.8884 312.798 82.8278 317.553 82.8278Z" fill="white"/>
<path d="M87.9357 352.901V353.321C81.7129 353.321 78.0071 357.1 78.0071 363.328H77.3778C77.3778 357.1 73.6022 353.321 67.4492 353.321V352.901C73.6721 352.901 77.3778 349.121 77.3778 342.893H78.0071C78.0071 349.121 81.643 352.901 87.9357 352.901Z" fill="white" stroke="#1F1F1F" stroke-miterlimit="10"/>
<path d="M655.126 57.7031V57.9131C651.77 57.9131 649.812 59.9427 649.812 63.232H649.462C649.462 59.8727 647.435 57.9131 644.148 57.9131V57.7031C647.435 57.7031 649.462 55.6736 649.462 52.3843H649.812C649.812 55.6736 651.77 57.7031 655.126 57.7031Z" fill="white"/>
<path d="M62.0654 170.869H437.535" stroke="white"/>
<path d="M62.0654 138.676L87.2366 170.869" stroke="white"/>
<path d="M91.4322 170.869L43.1875 208.661" stroke="white"/>
<path d="M78.8467 170.869L45.9844 193.964" stroke="white"/>
<path d="M65.5619 170.869L43.8867 151.973" stroke="white"/>
<path d="M72.5539 170.869L43.8867 140.076" stroke="white"/>
<path d="M100.522 170.869L74.6514 135.876" stroke="white"/>
<path d="M96.3262 170.869L63.4639 206.562" stroke="white"/>
<path d="M100.522 170.869L76.749 202.362" stroke="white"/>
<path d="M330.558 170.869L268.329 141.475" stroke="white"/>
<path d="M335.732 170.729L300.492 142.875" stroke="white"/>
<path d="M343.913 170.799L306.086 116.281" stroke="white"/>
<path d="M348.528 170.869L319.371 114.881" stroke="white"/>
<path d="M343.563 170.939L322.867 215.66" stroke="white"/>
<path d="M338.599 171.009L321.469 196.764" stroke="white"/>
<path d="M330.558 170.869L315.176 190.465" stroke="white"/>
<path d="M348.457 170.869L335.452 205.162" stroke="white"/>
<path d="M353.352 170.869L339.647 206.562" stroke="white"/>
<path d="M370.412 170.869L328.46 96.6851" stroke="white"/>
<path d="M352.933 139.866L359.225 93.1855" stroke="white"/>
<path d="M357.547 105.223L382.299 78.4888" stroke="white"/>
<path d="M356.429 113.481L388.592 84.0874" stroke="white"/>
<path d="M355.59 119.15L387.194 93.1855" stroke="white"/>
<path d="M355.03 123.979L386.494 102.284" stroke="white"/>
<path d="M358.037 101.934L345.241 76.3892" stroke="white"/>
<path d="M357.757 103.823L341.745 77.0889" stroke="white"/>
<path d="M357.477 106.693L337.55 82.688" stroke="white"/>
<path d="M356.428 113.481L337.55 94.5854" stroke="white"/>
<path d="M355.309 119.64L335.452 104.383" stroke="white"/>
<path d="M359.226 150.573L364.819 128.878" stroke="white"/>
<path d="M361.812 155.682L369.014 135.177" stroke="white"/>
<path d="M364.959 161.561L374.608 139.376" stroke="white"/>
<path d="M368.035 166.6L376.006 147.774" stroke="white"/>
<path d="M342.374 121.389L329.159 112.781" stroke="white"/>
<path d="M345.94 128.178L334.753 126.079" stroke="white"/>
<path d="M352.583 139.446L339.647 131.677" stroke="white"/>
<path d="M389.64 170.939L369.713 205.162" stroke="white"/>
<path d="M384.746 179.267L363.001 183.606" stroke="white"/>
<path d="M377.335 191.655L356.429 196.064" stroke="white"/>
<path d="M377.684 191.445L377.404 212.16" stroke="white"/>
<path d="M382.02 184.236L383.698 205.162" stroke="white"/>
<path d="M387.543 174.648L389.99 195.364" stroke="white"/>
<path d="M418.238 171.009L388.592 243.654" stroke="white"/>
<path d="M398.521 219.579L401.177 249.952" stroke="white"/>
<path d="M405.722 201.663L411.665 249.252" stroke="white"/>
<path d="M408.868 193.964L417.958 245.053" stroke="white"/>
<path d="M411.805 186.756L421.454 238.055" stroke="white"/>
<path d="M410.826 188.855L392.088 202.362" stroke="white"/>
<path d="M407.47 197.114L388.592 212.16" stroke="white"/>
<path d="M403.275 207.961L382.998 225.457" stroke="white"/>
<path d="M398.241 219.789L380.9 233.156" stroke="white"/>
<path d="M406.141 170.729L404.673 66.5913" stroke="white"/>
<path d="M404.812 86.3273L420.754 53.9941" stroke="white"/>
<path d="M405.232 103.683L424.95 65.1914" stroke="white"/>
<path d="M405.372 121.88L422.153 84.7876" stroke="white"/>
<path d="M405.652 129.928L427.048 96.6851" stroke="white"/>
<path d="M405.722 147.704L386.494 109.282" stroke="white"/>
<path d="M376.705 116.281L396.003 128.038" stroke="white"/>
<path d="M380.201 126.778L399.01 133.987" stroke="white"/>
<path d="M388.592 139.376L401.947 140.286" stroke="white"/>
<path d="M405.861 158.622L452.917 107.882" stroke="white"/>
<path d="M431.732 130.558L443.129 78.9785" stroke="white"/>
<path d="M440.752 120.9L457.393 62.6719" stroke="white"/>
<path d="M448.023 113.131L476.691 47.6953" stroke="white"/>
<path d="M420.824 142.455L457.113 135.876" stroke="white"/>
<path d="M432.99 129.508L461.308 127.479" stroke="white"/>
<path d="M438.444 123.559L463.406 119.78" stroke="white"/>
<path d="M153.661 167.37L121.498 46.2954" stroke="white"/>
<path d="M125.343 60.6424L131.286 34.3979" stroke="white"/>
<path d="M127.79 69.3205L136.88 39.2969" stroke="white"/>
<path d="M131.286 84.0874L141.075 53.2939" stroke="white"/>
<path d="M133.804 93.0459L144.292 62.2524" stroke="white"/>
<path d="M125.903 63.1619L109.611 50.4946" stroke="white"/>
<path d="M128.909 75.2694L104.018 57.4932" stroke="white"/>
<path d="M131.286 84.0874L99.123 65.1914" stroke="white"/>
<path d="M136.88 169.469L56.4717 308.04" stroke="white"/>
<path d="M73.8818 277.946L60.667 337.434" stroke="white"/>
<path d="M79.1261 268.918L69.7568 331.135" stroke="white"/>
<path d="M86.7477 255.971L80.2451 321.337" stroke="white"/>
<path d="M91.9211 247.223L90.7324 301.741" stroke="white"/>
<path d="M98.4238 235.815L97.7246 292.643" stroke="white"/>
<path d="M70.5965 283.615L42.209 290.614" stroke="white"/>
<path d="M73.253 277.247L41.0898 276.547" stroke="white"/>
<path d="M73.9524 277.596L48.082 262.55" stroke="white"/>
<path d="M76.5388 273.047L58.5693 252.752" stroke="white"/>
<path d="M104.088 226.017L43.1875 222.658" stroke="white"/>
<path d="M59.9681 223.358L37.5938 242.254" stroke="white"/>
<path d="M68.3588 224.058L47.3828 243.654" stroke="white"/>
<path d="M77.4477 224.758L59.9678 242.254" stroke="white"/>
<path d="M88.4954 225.178L71.8545 240.155" stroke="white"/>
<path d="M93.7395 225.528L75.3506 244.354" stroke="white"/>
<path d="M88.9154 225.178L87.9365 203.062" stroke="white"/>
<path d="M92.2012 225.387L93.5296 207.261" stroke="white"/>
<path d="M94.7881 225.458L98.4239 206.562" stroke="white"/>
<path d="M185.125 179.267L220.225 369.207" stroke="white"/>
<path d="M196.872 243.724L184.426 295.443" stroke="white"/>
<path d="M199.529 257.861L186.523 319.238" stroke="white"/>
<path d="M203.234 278.086L190.159 327.986" stroke="white"/>
<path d="M206.1 293.553L194.214 343.733" stroke="white"/>
<path d="M208.548 306.64L197.71 354.93" stroke="white"/>
<path d="M198.409 251.352L221.483 283.545" stroke="white"/>
<path d="M202.675 274.727L223.581 303.841" stroke="white"/>
<path d="M205.541 289.774L228.475 328.336" stroke="white"/>
<path d="M208.338 305.73L231.272 354.23" stroke="white"/>
<path d="M213.792 334.424L225.818 355.91" stroke="white"/>
<path d="M229.874 172.968L220.784 51.1943" stroke="white"/>
<path d="M222.392 70.6502L231.971 49.0947" stroke="white"/>
<path d="M223.581 85.9771L239.663 57.4932" stroke="white"/>
<path d="M223.581 118.38L248.752 67.291" stroke="white"/>
<path d="M464.805 320.637H953.545" stroke="white"/>
<path d="M607.44 254.152L876.632 58.8931" stroke="white"/>
<path d="M709.523 320.777L846.566 464.807" stroke="white"/>
<path d="M751.475 365.008L748.679 432.614" stroke="white"/>
<path d="M759.517 373.266L757.769 449.41" stroke="white"/>
<path d="M765.39 379.775L764.761 450.81" stroke="white"/>
<path d="M772.382 386.773L773.85 455.009" stroke="white"/>
<path d="M779.024 394.052L782.241 464.107" stroke="white"/>
<path d="M786.925 402.31L792.029 466.206" stroke="white"/>
<path d="M798.672 414.627L804.615 473.905" stroke="white"/>
<path d="M811.117 427.365L818.599 470.406" stroke="white"/>
<path d="M827.479 444.651L832.583 466.906" stroke="white"/>
<path d="M759.517 373.336L817.9 365.428" stroke="white"/>
<path d="M772.941 387.123L822.794 384.324" stroke="white"/>
<path d="M779.514 394.332L829.786 394.122" stroke="white"/>
<path d="M788.113 403.36L832.582 406.019" stroke="white"/>
<path d="M799.79 415.537L841.672 420.016" stroke="white"/>
<path d="M810.139 426.245L858.453 433.313" stroke="white"/>
<path d="M822.864 439.542L872.437 443.811" stroke="white"/>
<path d="M836.848 454.519L867.542 459.908" stroke="white"/>
<path d="M694.981 320.777L671.068 230.356" stroke="white"/>
<path d="M679.528 262.48L683.654 216.359" stroke="white"/>
<path d="M683.724 278.576L690.646 224.758" stroke="white"/>
<path d="M686.59 289.424L695.539 238.055" stroke="white"/>
<path d="M688.827 296.982L697.637 263.949" stroke="white"/>
<path d="M674.914 244.913L660.58 225.458" stroke="white"/>
<path d="M679.039 260.45L654.986 238.055" stroke="white"/>
<path d="M683.444 277.176L655.686 250.652" stroke="white"/>
<path d="M685.681 286.205L657.783 268.848" stroke="white"/>
<path d="M620.585 244.423L604.644 62.3921" stroke="white"/>
<path d="M606.392 83.1076L619.327 39.2969" stroke="white"/>
<path d="M607.091 92.1357L627.018 39.2969" stroke="white"/>
<path d="M608.489 107.463L631.213 52.5942" stroke="white"/>
<path d="M609.888 123.489L632.612 69.3906" stroke="white"/>
<path d="M606.112 80.1686L578.074 35.0981" stroke="white"/>
<path d="M607.79 99.554L573.879 56.0933" stroke="white"/>
<path d="M608.909 110.962L575.977 70.0903" stroke="white"/>
<path d="M611.007 135.597L582.27 89.6865" stroke="white"/>
<path d="M612.335 150.924L588.562 125.379" stroke="white"/>
<path d="M613.804 167.72L589.961 130.978" stroke="white"/>
<path d="M615.342 186.826L588.562 154.073" stroke="white"/>
<path d="M617.09 206.422L587.863 172.269" stroke="white"/>
<path d="M617.859 215.38L589.961 186.266" stroke="white"/>
<path d="M611.985 145.814L624.921 112.082" stroke="white"/>
<path d="M614.083 171.849L620.725 149.174" stroke="white"/>
<path d="M615.552 187.595L624.222 170.169" stroke="white"/>
<path d="M617.229 207.541L631.214 179.967" stroke="white"/>
<path d="M618.278 218.669L635.409 192.564" stroke="white"/>
<path d="M618.838 225.597L638.905 197.463" stroke="white"/>
<path d="M630.165 237.565L643.799 201.663" stroke="white"/>
<path d="M634.779 234.206L648.693 204.462" stroke="white"/>
<path d="M643.31 228.187L654.287 204.462" stroke="white"/>
<path d="M783.919 126.499L799.022 44.896" stroke="white"/>
<path d="M785.946 115.091L778.045 66.5913" stroke="white"/>
<path d="M788.813 99.9744L784.338 53.9941" stroke="white"/>
<path d="M792.868 78.1389L790.631 42.7964" stroke="white"/>
<path d="M846.356 80.868L926.974 63.0918" stroke="white"/>
<path d="M857.894 72.4702L921.381 58.8931" stroke="white"/>
<path d="M866.284 66.3813L915.088 52.5942" stroke="white"/>
<path d="M876.632 58.8931L909.494 46.9956" stroke="white"/>
<path d="M876.632 58.8929L888.099 34.3281" stroke="white"/>
<path d="M857.055 73.0999L873.835 42.7964" stroke="white"/>
<path d="M851.461 77.0889L862.648 46.2954" stroke="white"/>
<path d="M844.889 81.988L855.656 40.6968" stroke="white"/>
<path d="M842.372 83.5975L847.266 39.2969" stroke="white"/>
<path d="M837.407 87.2367L838.176 46.2954" stroke="white"/>
<path d="M836.079 232.456L954.244 84.7876" stroke="white"/>
<path d="M939.56 72.1899L925.786 120.2" stroke="white"/>
<path d="M927.674 81.9878L915.229 133.357" stroke="white"/>
<path d="M919.284 93.8853L910.334 139.516" stroke="white"/>
<path d="M913.69 106.483L899.636 153.093" stroke="white"/>
<path d="M905.299 113.481L894.462 159.392" stroke="white"/>
<path d="M893.413 121.18L890.406 164.361" stroke="white"/>
<path d="M874.535 112.781L881.178 176.048" stroke="white"/>
<path d="M859.152 105.783L870.479 189.345" stroke="white"/>
<path d="M852.16 106.483L864.536 196.764" stroke="white"/>
<path d="M847.266 126.778L859.152 203.062" stroke="white"/>
<path d="M842.372 149.174L851.252 213.14" stroke="white"/>
<path d="M840.274 170.869L846.777 219.019" stroke="white"/>
<path d="M833.981 177.168L840.204 226.577" stroke="white"/>
<path d="M844.189 222.378L933.967 193.964" stroke="white"/>
<path d="M859.152 203.062L927.674 184.166" stroke="white"/>
<path d="M864.257 197.393L929.772 180.667" stroke="white"/>
<path d="M870.619 189.135L922.779 177.868" stroke="white"/>
<path d="M877.332 180.667L924.178 172.269" stroke="white"/>
<path d="M898.308 154.983L977.317 151.973" stroke="white"/>
<path d="M894.532 159.392L964.033 161.071" stroke="white"/>
<path d="M902.433 149.594L970.325 144.275" stroke="white"/>
<path d="M906.628 144.275L946.552 140.076" stroke="white"/>
<path d="M908.516 142.035L935.365 137.276" stroke="white"/>
<path d="M913.83 135.387L937.463 130.278" stroke="white"/>
<path d="M920.682 126.569L950.048 118.38" stroke="white"/>
<path d="M929.212 116.141L966.13 102.983" stroke="white"/>
<path d="M937.043 106.343L959.138 97.3848" stroke="white"/>
<path d="M924.178 246.453L961.934 199.563" stroke="white"/>
<path d="M929.422 239.735L930.261 218.109" stroke="white"/>
<path d="M933.338 234.906L937.883 207.681" stroke="white"/>
<path d="M938.231 228.817L944.874 199.003" stroke="white"/>
<path d="M947.251 217.759L960.536 186.266" stroke="white"/>
<path d="M947.251 217.759L973.122 208.661" stroke="white"/>
<path d="M942.287 224.058L965.431 218.459" stroke="white"/>
<path d="M934.526 233.646L961.935 225.458" stroke="white"/>
<path d="M928.163 241.694L959.138 235.255" stroke="white"/>
<path d="M552.903 320.637L604.644 275.847" stroke="white"/>
<path d="M562.062 312.659L570.103 289.004" stroke="white"/>
<path d="M571.292 304.891L583.878 272.488" stroke="white"/>
<path d="M585.836 292.223L597.233 268.358" stroke="white"/>
<path d="M490.815 320.707L464.105 343.732" stroke="white"/>
<path d="M473.194 335.334L467.601 348.631" stroke="white"/>
<path d="M477.39 331.835L473.194 343.732" stroke="white"/>
<path d="M480.186 329.735L476.69 344.432" stroke="white"/>
<path d="M484.941 325.886L482.284 341.633" stroke="white"/>
<path d="M503.889 320.427L442.43 292.643" stroke="white"/>
<path d="M448.023 281.446L453.967 297.542" stroke="white"/>
<path d="M454.316 284.945L460.05 300.341" stroke="white"/>
<path d="M460.609 289.144L464.805 303.141" stroke="white"/>
<path d="M465.504 293.343L470.049 305.241" stroke="white"/>
<path d="M471.097 296.842L476.48 307.97" stroke="white"/>
<path d="M454.456 298.102L441.73 306.64" stroke="white"/>
<path d="M460.05 300.552L450.121 309.44" stroke="white"/>
<path d="M464.455 302.511L448.723 314.339" stroke="white"/>
<path d="M471.377 305.73L445.926 320.637" stroke="white"/>
<path d="M476.971 308.25L462.707 316.438" stroke="white"/>
<path d="M469.908 338.553L452.219 339.533" stroke="white"/>
<path d="M473.684 335.334L452.918 334.634" stroke="white"/>
<path d="M477.39 331.835L457.113 329.036" stroke="white"/>
<path d="M479.627 330.295L466.901 326.236" stroke="white"/>
<path d="M513.748 321.337L500.463 343.033" stroke="white"/>
<path d="M509.553 328.196L496.758 330.085" stroke="white"/>
<path d="M508.854 330.435L494.031 336.174" stroke="white"/>
<path d="M503.26 338.134L491.443 343.382" stroke="white"/>
<path d="M503.26 338.134L502.561 347.232" stroke="white"/>
<path d="M509.553 328.266L508.154 344.432" stroke="white"/>
<path d="M511.93 324.556L513.887 335.264" stroke="white"/>
<path d="M305.387 400.42V453.609" stroke="white"/>
<path d="M305.247 406.999L286.509 420.786" stroke="white"/>
<path d="M305.387 414.487L282.313 444.511" stroke="white"/>
<path d="M305.387 429.674L285.11 460.608" stroke="white"/>
<path d="M149.116 286.345C108.562 286.345 127.091 331.485 108.912 368.577C98.2143 390.483 73.2529 402.17 73.2529 424.915C73.2529 452.559 111.01 458.158 152.962 458.158C195.613 458.158 229.174 449.06 229.174 423.166C229.174 400.421 208.198 397.971 192.466 367.527C174.427 332.465 187.572 286.345 149.116 286.345Z" fill="#FBFBFB" stroke="#232323" stroke-miterlimit="10"/>
<mask id="mask0" mask-type="alpha" maskUnits="userSpaceOnUse" x="72" y="285" width="158" height="174">
<path d="M149.116 286.345C108.562 286.345 127.091 331.485 108.912 368.577C98.2143 390.483 73.2529 402.17 73.2529 424.915C73.2529 452.559 111.01 458.158 152.962 458.158C195.613 458.158 229.174 449.06 229.174 423.166C229.174 400.421 208.198 397.971 192.466 367.527C174.427 332.465 187.572 286.345 149.116 286.345Z" fill="#FF2100" stroke="#232323" stroke-miterlimit="10"/>
</mask>
<g mask="url(#mask0)">
<path d="M115.205 333.935C123.314 333.935 129.888 327.355 129.888 319.238C129.888 311.121 123.314 304.541 115.205 304.541C107.095 304.541 100.521 311.121 100.521 319.238C100.521 327.355 107.095 333.935 115.205 333.935Z" stroke="#232323" stroke-miterlimit="10"/>
<path d="M171.141 352.131C179.25 352.131 185.824 345.551 185.824 337.434C185.824 329.317 179.25 322.737 171.141 322.737C163.032 322.737 156.458 329.317 156.458 337.434C156.458 345.551 163.032 352.131 171.141 352.131Z" stroke="#232323" stroke-miterlimit="10"/>
<path d="M134.084 376.626C142.193 376.626 148.767 370.046 148.767 361.929C148.767 353.812 142.193 347.232 134.084 347.232C125.974 347.232 119.4 353.812 119.4 361.929C119.4 370.046 125.974 376.626 134.084 376.626Z" stroke="#232323" stroke-miterlimit="10"/>
<path d="M169.743 417.217C177.852 417.217 184.426 410.637 184.426 402.52C184.426 394.403 177.852 387.823 169.743 387.823C161.633 387.823 155.06 394.403 155.06 402.52C155.06 410.637 161.633 417.217 169.743 417.217Z" stroke="#232323" stroke-miterlimit="10"/>
<path d="M213.792 443.112C221.901 443.112 228.475 436.531 228.475 428.415C228.475 420.298 221.901 413.718 213.792 413.718C205.682 413.718 199.108 420.298 199.108 428.415C199.108 436.531 205.682 443.112 213.792 443.112Z" stroke="#232323" stroke-miterlimit="10"/>
<path d="M169.044 466.207C177.153 466.207 183.727 459.627 183.727 451.51C183.727 443.393 177.153 436.813 169.044 436.813C160.934 436.813 154.36 443.393 154.36 451.51C154.36 459.627 160.934 466.207 169.044 466.207Z" stroke="#232323" stroke-miterlimit="10"/>
<path d="M131.287 444.511C139.396 444.511 145.97 437.931 145.97 429.814C145.97 421.697 139.396 415.117 131.287 415.117C123.177 415.117 116.604 421.697 116.604 429.814C116.604 437.931 123.177 444.511 131.287 444.511Z" stroke="#232323" stroke-miterlimit="10"/>
<path d="M90.0338 410.918C98.1431 410.918 104.717 404.338 104.717 396.222C104.717 388.105 98.1431 381.525 90.0338 381.525C81.9245 381.525 75.3506 388.105 75.3506 396.222C75.3506 404.338 81.9245 410.918 90.0338 410.918Z" stroke="#232323" stroke-miterlimit="10"/>
<path d="M87.9361 458.508C96.0454 458.508 102.619 451.928 102.619 443.811C102.619 435.695 96.0454 429.115 87.9361 429.115C79.8268 429.115 73.2529 435.695 73.2529 443.811C73.2529 451.928 79.8268 458.508 87.9361 458.508Z" stroke="#232323" stroke-miterlimit="10"/>
</g>
<path d="M149.116 286.345C108.562 286.345 127.091 331.485 108.912 368.577C98.2143 390.483 73.2529 402.17 73.2529 424.915C73.2529 452.559 111.01 458.158 152.962 458.158C195.613 458.158 229.174 449.06 229.174 423.166C229.174 400.421 208.198 397.971 192.466 367.527C174.427 332.465 187.572 286.345 149.116 286.345Z" stroke="#232323" stroke-miterlimit="10"/>
<path d="M135.412 297.122C136.461 296.142 138.139 296.143 139.188 297.192L142.054 300.062C142.264 300.272 142.614 300.412 142.963 300.412C143.313 300.412 143.593 300.272 143.872 300.062L146.669 297.262C147.718 296.212 149.466 296.212 150.515 297.262L153.312 300.062C153.521 300.272 153.871 300.412 154.22 300.412C154.57 300.412 154.85 300.272 155.129 300.062L157.996 297.192C159.045 296.143 160.723 296.142 161.772 297.122L164.429 299.642C164.778 299.922 165.268 299.712 165.268 299.292V283.685C165.268 279.766 162.121 276.617 158.206 276.617H138.978C135.062 276.617 131.916 279.766 131.916 283.685V299.292C131.916 299.712 132.475 299.992 132.755 299.642L135.412 297.122Z" fill="white" stroke="#232323" stroke-miterlimit="10"/>
<path d="M148.487 271.788C151.214 271.788 153.451 273.887 153.731 276.617H156.318H159.115C159.115 270.738 154.36 266.049 148.557 266.049C142.754 266.049 137.999 270.808 137.999 276.617H140.446H143.383C143.523 273.887 145.76 271.788 148.487 271.788Z" fill="white" stroke="#232323" stroke-miterlimit="10"/>
<path d="M148.487 274.447V243.654" stroke="#232323" stroke-miterlimit="10"/>
<path d="M429.145 296.142C429.145 351.431 387.612 454.309 361.322 454.309C330.977 454.309 293.5 351.431 293.5 296.142C293.5 260.45 323.845 254.151 361.322 254.151C398.799 254.151 429.145 259.75 429.145 296.142Z" fill="white" stroke="#232323" stroke-miterlimit="10"/>
<path d="M344.611 262.409C346.009 261.15 348.107 261.15 349.435 262.479L353.071 266.119C353.351 266.399 353.771 266.609 354.19 266.609C354.61 266.609 355.029 266.469 355.309 266.119L358.875 262.549C360.203 261.22 362.441 261.22 363.769 262.549L367.335 266.119C367.615 266.399 368.034 266.609 368.454 266.609C368.873 266.609 369.293 266.469 369.572 266.119L373.208 262.479C374.537 261.15 376.634 261.15 378.033 262.409L381.389 265.559C381.808 265.909 382.438 265.629 382.438 265.069V245.333C382.438 240.364 378.452 236.375 373.488 236.375H349.156C344.192 236.375 340.206 240.364 340.206 245.333V265.069C340.206 265.629 340.905 265.909 341.255 265.559L344.611 262.409Z" fill="white" stroke="#232323" stroke-miterlimit="10"/>
<path d="M361.322 230.286C364.818 230.286 367.685 232.946 367.964 236.375H371.181H374.747C374.747 228.957 368.734 222.938 361.322 222.938C353.911 222.938 347.897 228.957 347.897 236.375H350.974H354.68C354.959 232.946 357.826 230.286 361.322 230.286Z" fill="white" stroke="#232323" stroke-miterlimit="10"/>
<path d="M361.322 232.456V208.661" stroke="#232323" stroke-miterlimit="10"/>
<path d="M738.68 394.122C738.68 370.747 721.27 350.171 694.84 337.924C682.604 311.399 662.048 294.043 638.694 294.043C615.341 294.043 594.785 311.469 582.549 337.924C556.049 350.171 538.709 370.747 538.709 394.122C538.709 417.497 556.119 438.072 582.549 450.32C594.785 476.844 615.341 494.2 638.694 494.2C662.048 494.2 682.604 476.774 694.84 450.32C721.27 438.072 738.68 417.497 738.68 394.122Z" fill="white" stroke="#232323" stroke-miterlimit="10"/>
<path d="M622.053 308.6C623.452 307.34 625.549 307.34 626.878 308.67L630.514 312.309C630.793 312.589 631.213 312.799 631.632 312.799C632.052 312.799 632.472 312.659 632.751 312.309L636.317 308.74C637.646 307.41 639.883 307.41 641.212 308.74L644.777 312.309C645.057 312.589 645.477 312.799 645.896 312.799C646.316 312.799 646.735 312.659 647.015 312.309L650.651 308.67C651.979 307.34 654.077 307.34 655.475 308.6L658.831 311.749C659.251 312.099 659.88 311.819 659.88 311.259V291.524C659.88 286.555 655.895 282.565 650.93 282.565H626.598C621.634 282.565 617.648 286.555 617.648 291.524V311.259C617.648 311.819 618.348 312.099 618.697 311.749L622.053 308.6Z" fill="white" stroke="#232323" stroke-miterlimit="10"/>
<path d="M638.694 276.477C642.19 276.477 645.057 279.136 645.337 282.565H648.553H652.119C652.119 275.147 646.106 269.128 638.694 269.128C631.283 269.128 625.27 275.147 625.27 282.565H628.346H632.052C632.331 279.136 635.198 276.477 638.694 276.477Z" fill="white" stroke="#232323" stroke-miterlimit="10"/>
<path d="M638.694 280.046V256.251" stroke="#232323" stroke-miterlimit="10"/>
<path d="M783.499 345.132C814.006 345.132 838.736 320.379 838.736 289.844C838.736 259.309 814.006 234.556 783.499 234.556C752.993 234.556 728.263 259.309 728.263 289.844C728.263 320.379 752.993 345.132 783.499 345.132Z" fill="#EADDCF" stroke="#232323" stroke-miterlimit="10"/>
<path d="M783.5 266.749C807.441 266.749 826.85 247.322 826.85 223.358C826.85 199.394 807.441 179.967 783.5 179.967C759.558 179.967 740.149 199.394 740.149 223.358C740.149 247.322 759.558 266.749 783.5 266.749Z" fill="#EADDCF" stroke="#232323" stroke-miterlimit="10"/>
<path d="M806.853 195.014C807.063 179.128 835.87 156.872 836.429 122.65C836.848 93.5358 830.975 77.2992 826.99 69.8808C823.913 64.142 820.697 60.6427 814.754 60.5728C808.111 60.5028 803.846 64.142 801.958 76.1095C795.736 115.931 780.493 143.925 788.254 194.734" fill="#EADDCF"/>
<path d="M806.853 195.014C807.063 179.128 835.87 156.872 836.429 122.65C836.848 93.5358 830.975 77.2992 826.99 69.8808C823.913 64.142 820.697 60.6427 814.754 60.5728C808.111 60.5028 803.846 64.142 801.958 76.1095C795.736 115.931 780.493 143.925 788.254 194.734" stroke="#232323" stroke-miterlimit="10"/>
<path d="M760.076 195.014C759.867 179.128 731.06 156.872 730.57 122.65C730.151 93.5358 736.024 77.2992 740.009 69.8808C743.086 64.142 746.302 60.6427 752.245 60.5728C758.888 60.5028 763.153 64.142 764.971 76.1095C771.124 115.931 786.366 143.925 778.605 194.734" fill="#EADDCF"/>
<path d="M760.076 195.014C759.867 179.128 731.06 156.872 730.57 122.65C730.151 93.5358 736.024 77.2992 740.009 69.8808C743.086 64.142 746.302 60.6427 752.245 60.5728C758.888 60.5028 763.153 64.142 764.971 76.1095C771.124 115.931 786.366 143.925 778.605 194.734" stroke="#232323" stroke-miterlimit="10"/>
<circle cx="784" cy="173" r="6" fill="#232323"/>
<path d="M771.543 191.585C772.522 190.675 774.06 190.675 774.969 191.655L777.556 194.244C777.766 194.454 778.046 194.594 778.395 194.594C778.675 194.594 778.955 194.454 779.234 194.244L781.752 191.725C782.73 190.745 784.269 190.745 785.248 191.725L787.765 194.244C787.974 194.454 788.254 194.594 788.604 194.594C788.883 194.594 789.163 194.454 789.443 194.244L792.03 191.655C793.009 190.675 794.477 190.675 795.456 191.585L797.833 193.824C798.113 194.104 798.602 193.894 798.602 193.474V179.337C798.602 175.838 795.735 172.969 792.239 172.969H774.829C771.333 172.969 768.467 175.838 768.467 179.337V193.474C768.467 193.894 768.956 194.104 769.236 193.824L771.543 191.585Z" fill="#EADDCF" stroke="#232323" stroke-miterlimit="10"/>
<path d="M783.5 168.63C786.017 168.63 788.045 170.519 788.254 172.969H790.562H793.079C793.079 167.65 788.814 163.381 783.5 163.381C778.186 163.381 773.921 167.65 773.921 172.969H776.088H778.745C778.955 170.519 780.983 168.63 783.5 168.63Z" fill="#EADDCF" stroke="#232323" stroke-miterlimit="10"/>
<path d="M800.42 338.834C800.42 335.754 798.882 333.095 796.505 331.485C796.575 331.135 796.645 330.785 796.645 330.435C796.645 327.916 794.617 325.886 792.1 325.886C791.61 325.886 791.191 325.956 790.771 326.096C789.163 323.787 786.506 322.247 783.5 322.247C780.493 322.247 777.836 323.787 776.228 326.096C775.809 325.956 775.389 325.886 774.9 325.886C772.382 325.886 770.355 327.916 770.355 330.435C770.355 330.785 770.425 331.135 770.495 331.485C768.117 333.025 766.579 335.754 766.579 338.834C766.579 341.913 768.117 344.572 770.495 346.182C770.425 346.532 770.355 346.882 770.355 347.232C770.355 349.751 772.382 351.781 774.9 351.781C775.389 351.781 775.809 351.711 776.228 351.571C777.836 353.88 780.493 355.42 783.5 355.42C786.506 355.42 789.163 353.88 790.771 351.571C791.191 351.711 791.61 351.781 792.1 351.781C794.617 351.781 796.645 349.751 796.645 347.232C796.645 346.882 796.575 346.532 796.505 346.182C798.882 344.572 800.42 341.913 800.42 338.834Z" fill="#EADDCF" stroke="#232323" stroke-miterlimit="10"/>
<path d="M776.019 339.463C773.991 337.714 773.711 334.634 775.459 332.535C777.207 330.505 780.284 330.225 782.381 331.975" fill="#EADDCF"/>
<path d="M776.019 339.463C773.991 337.714 773.711 334.634 775.459 332.535C777.207 330.505 780.284 330.225 782.381 331.975" stroke="#232323" stroke-miterlimit="10"/>
<path d="M788.604 345.202C788.184 347.862 785.737 349.751 783.08 349.331C780.423 348.911 778.535 346.462 778.955 343.802" fill="#EADDCF"/>
<path d="M788.604 345.202C788.184 347.862 785.737 349.751 783.08 349.331C780.423 348.911 778.535 346.462 778.955 343.802" stroke="#232323" stroke-miterlimit="10"/>
<path d="M784.549 339.883C784.759 337.154 787.066 335.124 789.793 335.334C792.52 335.544 794.547 337.854 794.338 340.583" fill="#EADDCF"/>
<path d="M784.549 339.883C784.759 337.154 787.066 335.124 789.793 335.334C792.52 335.544 794.547 337.854 794.338 340.583" stroke="#232323" stroke-miterlimit="10"/>
<path d="M783.499 171.569V147.774" stroke="#232323" stroke-miterlimit="10"/>
<path d="M909.494 261.15L924.527 291.663C926.625 295.863 930.61 298.802 935.225 299.432L968.856 304.331C980.533 306.01 985.217 320.427 976.757 328.616L952.425 352.341C949.069 355.63 947.531 360.319 948.3 364.938L954.033 398.461C956.061 410.078 943.825 418.966 933.407 413.508L903.341 397.691C899.216 395.521 894.252 395.521 890.056 397.691L859.991 413.508C849.573 419.036 837.337 410.148 839.365 398.461L845.098 364.938C845.867 360.319 844.329 355.63 840.973 352.341L816.641 328.616C808.18 320.357 812.865 306.01 824.542 304.331L858.173 299.432C862.788 298.732 866.843 295.863 868.871 291.663L883.904 261.15C889.217 250.582 904.25 250.582 909.494 261.15Z" fill="#FF592C" stroke="#232323" stroke-miterlimit="10"/>
<path d="M884.672 264.579C885.651 263.67 887.189 263.67 888.168 264.649L890.755 267.239C890.965 267.449 891.245 267.589 891.594 267.589C891.874 267.589 892.224 267.449 892.433 267.239L895.021 264.649C895.999 263.67 897.608 263.67 898.586 264.649L901.173 267.239C901.383 267.449 901.663 267.589 902.013 267.589C902.292 267.589 902.642 267.449 902.852 267.239L905.439 264.649C906.417 263.67 907.956 263.67 908.934 264.579L911.382 266.889C911.661 267.169 912.151 266.959 912.151 266.539V252.192C912.151 248.623 909.284 245.683 905.648 245.683H887.959C884.393 245.683 881.456 248.553 881.456 252.192V266.539C881.456 266.959 881.945 267.169 882.225 266.889L884.672 264.579Z" fill="#FF592C" stroke="#232323" stroke-miterlimit="10"/>
<path d="M896.768 241.274C899.285 241.274 901.383 243.234 901.593 245.683H903.97H906.557C906.557 240.294 902.222 235.955 896.838 235.955C891.454 235.955 887.119 240.294 887.119 245.683H889.357H892.083C892.153 243.164 894.181 241.274 896.768 241.274Z" fill="#FF592C" stroke="#232323" stroke-miterlimit="10"/>
<path d="M896.769 244.354V220.559" stroke="#232323" stroke-miterlimit="10"/>
<path d="M691.135 201.662C727.434 201.662 756.859 172.209 756.859 135.876C756.859 99.5437 727.434 70.0903 691.135 70.0903C654.836 70.0903 625.41 99.5437 625.41 135.876C625.41 172.209 654.836 201.662 691.135 201.662Z" fill="#F4EEE7" stroke="#232323" stroke-miterlimit="10"/>
<path d="M674.494 79.7483C675.892 78.4886 677.99 78.4886 679.318 79.8183L682.954 83.4576C683.234 83.7375 683.653 83.9475 684.073 83.9475C684.492 83.9475 684.912 83.8075 685.192 83.4576L688.757 79.8883C690.086 78.5586 692.323 78.5586 693.652 79.8883L697.218 83.4576C697.497 83.7375 697.917 83.9475 698.336 83.9475C698.756 83.9475 699.175 83.8075 699.455 83.4576L703.091 79.8183C704.419 78.4886 706.517 78.4886 707.915 79.7483L711.272 82.8977C711.691 83.2476 712.32 82.9677 712.32 82.4078V62.672C712.32 57.703 708.335 53.7139 703.371 53.7139H679.039C674.074 53.7139 670.089 57.703 670.089 62.672V82.4078C670.089 82.9677 670.788 83.2476 671.138 82.8977L674.494 79.7483Z" fill="#F4EEE7" stroke="#232323" stroke-miterlimit="10"/>
<path d="M691.135 47.6253C694.631 47.6253 697.497 50.2847 697.777 53.714H700.993H704.559C704.559 46.2956 698.546 40.2769 691.135 40.2769C683.723 40.2769 677.71 46.2956 677.71 53.714H680.786H684.492C684.842 50.2847 687.639 47.6253 691.135 47.6253Z" fill="#F4EEE7" stroke="#232323" stroke-miterlimit="10"/>
<path d="M691.135 51.8944V33.6982" stroke="#232323" stroke-miterlimit="10"/>
<path d="M677.36 396.221C677.36 387.823 682.254 382.224 690.645 382.224C699.035 382.224 708.125 387.123 708.125 400.421C708.125 412.318 696.938 421.416 681.555 421.416C668.97 421.416 653.587 413.018 653.587 394.822C653.587 375.226 671.067 363.328 687.848 363.328C710.922 363.328 725.605 381.525 725.605 398.321C725.605 416.517 712.32 438.912 681.555 438.912C659.181 438.912 636.107 422.116 636.107 393.422C636.107 351.431 685.75 341.633 685.75 341.633" stroke="#1F1F1F" stroke-miterlimit="10"/>
<path d="M683.724 115.371H663.027V102.354H719.173V115.371H698.617V175.908H683.724V115.371Z" stroke="#232323"/>
<path d="M691.135 142.875C711.794 142.875 728.542 140.682 728.542 137.976C728.542 135.27 711.794 133.077 691.135 133.077C670.475 133.077 653.728 135.27 653.728 137.976C653.728 140.682 670.475 142.875 691.135 142.875Z" stroke="#232323"/>
<path d="M743.784 121.88C743.784 121.88 752.175 158.972 719.312 183.467" stroke="#1F1F1F"/>
<path d="M360.973 297.822L325.943 355.63L360.973 376.696L396.003 355.91L360.973 297.822Z" fill="#FF592C" stroke="#232323" stroke-miterlimit="10"/>
<path d="M326.083 355.56L360.973 339.883L395.863 355.77" fill="#FF592C"/>
<path d="M326.083 355.56L360.973 339.883L395.863 355.77" stroke="#232323" stroke-miterlimit="10"/>
<path d="M360.974 297.822V376.696" stroke="#232323" stroke-miterlimit="10"/>
<path d="M326.083 362.418L361.183 383.344L395.583 363.188L360.973 412.178L326.083 362.418Z" fill="#FF592C" stroke="#232323" stroke-miterlimit="10"/>
<path d="M895.65 297.052L857.894 361.859H933.128L895.65 297.052Z" fill="#FBFBFB" stroke="#1F1F1F" stroke-miterlimit="10"/>
<path d="M880.548 349.261L895.651 323.507L910.474 349.261H880.548Z" fill="#FF592C" stroke="#1F1F1F" stroke-miterlimit="10"/>
<path d="M895.65 297.052V323.577" stroke="#1F1F1F" stroke-miterlimit="10"/>
<path d="M857.894 361.859L880.548 349.261" stroke="#1F1F1F" stroke-miterlimit="10"/>
<path d="M910.474 349.261L933.128 361.859" stroke="#1F1F1F" stroke-miterlimit="10"/>
<path d="M179.562 238.755C221.846 238.755 256.125 204.445 256.125 162.122C256.125 119.798 221.846 85.4878 179.562 85.4878C137.278 85.4878 103 119.798 103 162.122C103 204.445 137.278 238.755 179.562 238.755Z" fill="#FF592C" stroke="#232323" stroke-miterlimit="10"/>
<path d="M163.31 99.3445C164.709 98.0848 166.806 98.0848 168.135 99.4145L171.771 103.054C172.05 103.334 172.47 103.544 172.889 103.544C173.309 103.544 173.728 103.404 174.008 103.054L177.574 99.4845C178.902 98.1548 181.14 98.1548 182.468 99.4845L186.034 103.054C186.314 103.334 186.733 103.544 187.153 103.544C187.572 103.544 187.992 103.404 188.272 103.054L191.907 99.4145C193.236 98.0848 195.334 98.0848 196.732 99.3445L200.088 102.494C200.508 102.844 201.137 102.564 201.137 102.004V82.2682C201.137 77.2992 197.151 73.3101 192.187 73.3101H167.855C162.891 73.3101 158.905 77.2992 158.905 82.2682V102.004C158.905 102.564 159.604 102.844 159.954 102.494L163.31 99.3445Z" fill="#FF592C" stroke="#232323" stroke-miterlimit="10"/>
<path d="M179.951 67.2215C183.447 67.2215 186.314 69.8809 186.593 73.3102H189.81H193.376C193.376 65.8918 187.362 59.873 179.951 59.873C172.539 59.873 166.526 65.8918 166.526 73.3102H169.603H173.309C173.658 69.8809 176.455 67.2215 179.951 67.2215Z" fill="#FF592C" stroke="#232323" stroke-miterlimit="10"/>
<path d="M179.951 71.4906V46.2959" stroke="#232323" stroke-miterlimit="10"/>
<path d="M271.336 88.2866C258.051 88.2866 246.724 98.0845 244.836 111.242L228.265 226.717C226.098 241.904 226.098 257.301 228.265 272.488L244.836 387.963C246.724 401.12 257.981 410.918 271.336 410.918C284.621 410.918 295.948 401.12 297.836 387.963L314.407 272.488C316.574 257.301 316.574 241.904 314.407 226.717L297.836 111.242C295.948 98.0845 284.691 88.2866 271.336 88.2866Z" fill="#5835FF" stroke="#232323" stroke-miterlimit="10"/>
<path d="M259.24 96.5446C260.219 95.6348 261.757 95.6348 262.736 96.6146L265.393 99.274C265.603 99.484 265.883 99.6239 266.232 99.6239C266.512 99.6239 266.861 99.484 267.071 99.274L269.658 96.6846C270.637 95.7048 272.245 95.7048 273.224 96.6846L275.811 99.274C276.021 99.484 276.301 99.6239 276.65 99.6239C276.93 99.6239 277.279 99.484 277.489 99.274L280.146 96.6146C281.125 95.6348 282.663 95.6348 283.642 96.5446L286.089 98.8541C286.369 99.134 286.858 98.9241 286.858 98.5042V84.0872C286.858 80.518 283.922 77.5786 280.356 77.5786H262.596C259.03 77.5786 256.094 80.518 256.094 84.0872V98.5042C256.094 98.9241 256.583 99.134 256.863 98.8541L259.24 96.5446Z" fill="#5835FF" stroke="#232323" stroke-miterlimit="10"/>
<path d="M271.337 73.0996C273.854 73.0996 275.951 75.0592 276.161 77.5787H278.538H281.125C281.125 72.1898 276.72 67.7808 271.337 67.7808C265.953 67.7808 261.548 72.1898 261.548 77.5787H263.785H266.512C266.722 75.0592 268.82 73.0996 271.337 73.0996Z" fill="#5835FF" stroke="#232323" stroke-miterlimit="10"/>
<path d="M271.336 76.3892V52.5942" stroke="#232323" stroke-miterlimit="10"/>
<path d="M271.126 95.9849V410.218" stroke="#232323" stroke-miterlimit="10"/>
<path d="M260.638 95.9849C260.638 95.9849 243.158 164.57 243.158 247.153C243.158 324.836 263.435 410.918 263.435 410.918" fill="#5835FF"/>
<path d="M260.638 95.9849C260.638 95.9849 243.158 164.57 243.158 247.153C243.158 324.836 263.435 410.918 263.435 410.918" stroke="#232323" stroke-miterlimit="10"/>
<path d="M281.894 95.9849C281.894 95.9849 299.374 164.57 299.374 247.153C299.374 324.836 278.817 410.918 278.817 410.918" fill="#5835FF"/>
<path d="M281.894 95.9849C281.894 95.9849 299.374 164.57 299.374 247.153C299.374 324.836 278.817 410.918 278.817 410.918" stroke="#232323" stroke-miterlimit="10"/>
<path d="M613.733 473.205H452.707C445.436 473.205 439.562 467.326 439.562 460.048V366.688C439.562 359.409 445.436 353.531 452.707 353.531H613.733C621.005 353.531 626.878 359.409 626.878 366.688V460.048C626.878 467.326 621.005 473.205 613.733 473.205Z" fill="#6A79FF" stroke="#232323" stroke-miterlimit="10"/>
<path d="M516.545 363.188C517.943 361.929 520.041 361.929 521.369 363.258L525.005 366.898C525.285 367.178 525.704 367.388 526.124 367.388C526.543 367.388 526.963 367.248 527.242 366.898L530.808 363.328C532.137 361.999 534.374 361.999 535.703 363.328L539.269 366.898C539.548 367.178 539.968 367.388 540.387 367.388C540.807 367.388 541.226 367.248 541.506 366.898L545.142 363.258C546.47 361.929 548.568 361.929 549.966 363.188L553.322 366.338C553.742 366.688 554.371 366.408 554.371 365.848V346.112C554.371 341.143 550.386 337.154 545.421 337.154H521.089C516.125 337.154 512.14 341.143 512.14 346.112V365.848C512.14 366.408 512.839 366.688 513.188 366.338L516.545 363.188Z" fill="#6A79FF" stroke="#232323" stroke-miterlimit="10"/>
<path d="M533.185 331.065C536.681 331.065 539.548 333.725 539.828 337.154H543.044H546.61C546.61 329.736 540.597 323.717 533.185 323.717C525.774 323.717 519.761 329.736 519.761 337.154H522.837H526.543C526.893 333.725 529.759 331.065 533.185 331.065Z" fill="#6A79FF" stroke="#232323" stroke-miterlimit="10"/>
<path d="M533.186 336.034V312.239" stroke="#232323" stroke-miterlimit="10"/>
<path d="M439.633 373.826H627.018" stroke="#232323" stroke-miterlimit="10"/>
<path d="M439.633 390.623H627.018" stroke="#232323" stroke-miterlimit="10"/>
<path d="M391.389 269.758C391.389 269.758 424.74 269.758 414.952 300.272C414.952 300.272 414.952 289.914 408.379 281.726C400.338 271.718 391.389 269.758 391.389 269.758Z" stroke="#1F1F1F" stroke-miterlimit="10" stroke-linejoin="bevel"/>
<path d="M149.535 102.284C149.535 102.284 117.372 124.329 117.372 161.001C117.372 197.673 146.878 214.89 146.878 214.89" stroke="#232323" stroke-miterlimit="10" stroke-linejoin="bevel"/>
<path d="M179.461 108.652V138.186" stroke="#232323" stroke-miterlimit="10" stroke-linejoin="bevel"/>
<path d="M179.461 184.586V217.829" stroke="#232323" stroke-miterlimit="10" stroke-linejoin="bevel"/>
<path d="M161.842 108.652C161.842 108.652 147.998 119.15 146.529 137.486" stroke="#232323" stroke-miterlimit="10" stroke-linejoin="bevel"/>
<path d="M146.529 186.826C146.529 186.826 151.004 212.65 167.855 223.848" stroke="#232323" stroke-miterlimit="10" stroke-linejoin="bevel"/>
<path d="M201.136 110.122C201.136 110.122 217.217 121.32 217.917 139.306" stroke="#232323" stroke-miterlimit="10" stroke-linejoin="bevel"/>
<path d="M195.473 223.848C195.473 223.848 215.26 209.291 217.497 189.835" stroke="#232323" stroke-miterlimit="10" stroke-linejoin="bevel"/>
<path d="M214.561 104.523C214.561 104.523 234.348 116.491 237.354 130.348" stroke="#232323" stroke-miterlimit="10" stroke-linejoin="bevel"/>
<path d="M571.013 199.633C577.725 190.955 581.641 180.597 581.641 169.47C581.641 151.414 571.362 135.317 555.421 125.169C562.203 117.891 566.258 108.793 566.258 98.8547C566.258 75.1997 543.394 56.0938 515.217 56.0938C487.039 56.0938 464.175 75.2697 464.175 98.8547C464.175 108.793 468.23 117.891 475.013 125.169C459.071 135.317 448.793 151.414 448.793 169.47C448.793 180.597 452.708 190.955 459.421 199.633C448.233 210.481 441.451 224.618 441.451 240.085C441.451 274.237 474.453 301.882 515.217 301.882C555.98 301.882 588.982 274.237 588.982 240.085C588.982 224.548 582.2 210.481 571.013 199.633Z" fill="white" stroke="#232323" stroke-miterlimit="10"/>
<path d="M498.576 72.0501C499.974 70.7904 502.072 70.7904 503.4 72.1201L507.036 75.7593C507.316 76.0393 507.735 76.2492 508.155 76.2492C508.574 76.2492 508.994 76.1092 509.274 75.7593L512.84 72.1901C514.168 70.8604 516.405 70.8604 517.734 72.1901L521.3 75.7593C521.58 76.0393 521.999 76.2492 522.419 76.2492C522.838 76.2492 523.258 76.1092 523.537 75.7593L527.173 72.1201C528.502 70.7904 530.599 70.7904 531.998 72.0501L535.354 75.1994C535.773 75.5494 536.403 75.2694 536.403 74.7095V54.9737C536.403 50.0048 532.417 46.0156 527.453 46.0156H503.121C498.156 46.0156 494.171 50.0048 494.171 54.9737V74.7095C494.171 75.2694 494.87 75.5494 495.22 75.1994L498.576 72.0501Z" fill="white" stroke="#232323" stroke-miterlimit="10"/>
<path d="M515.217 39.9271C518.713 39.9271 521.579 42.5865 521.859 46.0158H525.075H528.641C528.641 38.5973 522.628 32.5786 515.217 32.5786C507.805 32.5786 501.792 38.5973 501.792 46.0158H504.868H508.574C508.924 42.5865 511.721 39.9271 515.217 39.9271Z" fill="white" stroke="#232323" stroke-miterlimit="10"/>
<path d="M496.968 101.584C501.563 101.584 505.288 97.855 505.288 93.2555C505.288 88.6559 501.563 84.9272 496.968 84.9272C492.373 84.9272 488.647 88.6559 488.647 93.2555C488.647 97.855 492.373 101.584 496.968 101.584Z" fill="#FBFBFB" stroke="#232323" stroke-miterlimit="10"/>
<path d="M496.968 101.584C501.563 101.584 505.288 97.855 505.288 93.2555C505.288 88.6559 501.563 84.9272 496.968 84.9272C492.373 84.9272 488.647 88.6559 488.647 93.2555C488.647 97.855 492.373 101.584 496.968 101.584Z" fill="white" stroke="#232323"/>
<mask id="mask1" mask-type="alpha" maskUnits="userSpaceOnUse" x="481" y="78" width="17" height="30">
<path d="M496.421 78.8101L481.739 79.0098L482.125 107.421L496.807 107.221L496.421 78.8101Z" fill="#1D1E1C" stroke="#232323" stroke-miterlimit="10"/>
</mask>
<g mask="url(#mask1)">
<path d="M496.968 101.584C501.563 101.584 505.288 97.8555 505.288 93.256C505.288 88.6564 501.563 84.9277 496.968 84.9277C492.373 84.9277 488.647 88.6564 488.647 93.256C488.647 97.8555 492.373 101.584 496.968 101.584Z" fill="#232323" stroke="#232323" stroke-miterlimit="10"/>
</g>
<path d="M534.795 101.584C539.39 101.584 543.116 97.855 543.116 93.2555C543.116 88.6559 539.39 84.9272 534.795 84.9272C530.2 84.9272 526.475 88.6559 526.475 93.2555C526.475 97.855 530.2 101.584 534.795 101.584Z" fill="#FBFBFB" stroke="#232323" stroke-miterlimit="10"/>
<path d="M534.795 101.584C539.39 101.584 543.116 97.855 543.116 93.2555C543.116 88.6559 539.39 84.9272 534.795 84.9272C530.2 84.9272 526.475 88.6559 526.475 93.2555C526.475 97.855 530.2 101.584 534.795 101.584Z" fill="white" stroke="#232323"/>
<mask id="mask2" mask-type="alpha" maskUnits="userSpaceOnUse" x="519" y="78" width="17" height="30">
<path d="M534.35 78.8541L519.667 78.9678L519.887 107.382L534.57 107.268L534.35 78.8541Z" fill="#1D1E1C" stroke="#232323" stroke-miterlimit="10"/>
</mask>
<g mask="url(#mask2)">
<path d="M534.795 101.584C539.39 101.584 543.116 97.855 543.116 93.2555C543.116 88.6559 539.39 84.9272 534.795 84.9272C530.2 84.9272 526.475 88.6559 526.475 93.2555C526.475 97.855 530.2 101.584 534.795 101.584Z" fill="#232323" stroke="#232323" stroke-miterlimit="10"/>
</g>
<path d="M475.712 235.605L489.277 235.815C494.661 235.885 497.877 238.895 497.807 244.494C497.737 248.343 495.989 250.442 493.472 251.422C496.478 252.332 498.856 254.641 498.786 259.54C498.716 265.279 495.29 268.289 489.836 268.219L475.083 268.009L475.712 235.605ZM489.277 264.649C492.843 264.719 494.73 262.76 494.8 259.26C494.87 255.691 492.982 253.662 489.417 253.592L479.418 253.452L479.208 264.509L489.277 264.649ZM488.438 250.092C491.864 250.162 493.752 248.203 493.822 244.844C493.891 241.414 492.074 239.455 488.578 239.385L479.698 239.245L479.488 249.952L488.438 250.092Z" stroke="#1F1F1F"/>
<path d="M512.49 239.735L502.631 239.595L502.701 236.025L526.334 236.445L526.264 240.015L516.475 239.875L515.986 268.638L512 268.568L512.49 239.735Z" stroke="#1F1F1F"/>
<path d="M530.459 257.931L530.599 247.503C530.739 240.155 535.354 235.956 543.185 236.026C549.407 236.096 554.931 239.665 554.791 247.223V247.713L550.806 247.643V247.153C550.876 242.114 546.89 239.805 543.115 239.735C537.661 239.665 534.724 242.464 534.654 247.293L534.445 258.281C534.375 263.11 537.172 265.979 542.625 266.119C546.331 266.189 550.456 263.95 550.526 258.911V258.421L554.512 258.491V258.981C554.372 266.539 548.778 269.898 542.555 269.758C534.794 269.618 530.319 265.209 530.459 257.931Z" stroke="#1F1F1F"/>
<path d="M526.404 102.284C526.404 106.623 521.719 110.192 515.846 110.192C509.973 110.192 505.288 106.623 505.288 102.284" stroke="#1F1F1F" stroke-miterlimit="10"/>
<path d="M482.214 126.079C482.214 126.079 496.058 131.258 515.705 131.258C536.611 131.258 548.987 126.429 548.987 126.429" stroke="#1F1F1F" stroke-miterlimit="10"/>
<path d="M466.062 202.502C466.062 202.502 486.13 216.569 515.426 216.569C547.589 216.569 563.601 202.502 563.601 202.502" stroke="#1F1F1F" stroke-miterlimit="10"/>
<path d="M505.567 147.144V195.224H479.627V139.516" stroke="#1F1F1F"/>
<path d="M473.684 135.597C473.684 135.597 487.178 147.494 516.894 147.494C546.61 147.494 557.937 133.707 557.937 133.707" stroke="#1F1F1F"/>
<path d="M479.557 195.084V203.272" stroke="#1F1F1F" stroke-miterlimit="10"/>
<path d="M482.843 195.084V203.272" stroke="#1F1F1F" stroke-miterlimit="10"/>
<path d="M486.06 195.084V203.272" stroke="#1F1F1F" stroke-miterlimit="10"/>
<path d="M489.346 195.084V203.272" stroke="#1F1F1F" stroke-miterlimit="10"/>
<path d="M492.562 195.084V203.272" stroke="#1F1F1F" stroke-miterlimit="10"/>
<path d="M495.848 195.084V203.272" stroke="#1F1F1F" stroke-miterlimit="10"/>
<path d="M499.064 195.084V203.272" stroke="#1F1F1F" stroke-miterlimit="10"/>
<path d="M502.28 195.084V203.272" stroke="#1F1F1F" stroke-miterlimit="10"/>
<path d="M505.566 195.084V203.272" stroke="#1F1F1F" stroke-miterlimit="10"/>
<path d="M485.989 127.409V142.106" stroke="#1F1F1F" stroke-miterlimit="10"/>
<path d="M495.219 129.368V144.905" stroke="#1F1F1F" stroke-miterlimit="10"/>
<path d="M505.638 131.118V146.654" stroke="#1F1F1F" stroke-miterlimit="10"/>
<path d="M516.195 131.607V147.214" stroke="#1F1F1F" stroke-miterlimit="10"/>
<path d="M526.823 130.698V146.234" stroke="#1F1F1F" stroke-miterlimit="10"/>
<path d="M536.961 129.438V144.975" stroke="#1F1F1F" stroke-miterlimit="10"/>
<path d="M545.142 127.479V142.245" stroke="#1F1F1F" stroke-miterlimit="10"/>
<path d="M480.256 150.293H505.217" stroke="#1F1F1F" stroke-miterlimit="10"/>
<path d="M480.256 159.671H505.217" stroke="#1F1F1F" stroke-miterlimit="10"/>
<path d="M480.256 169.05H505.217" stroke="#1F1F1F" stroke-miterlimit="10"/>
<path d="M480.256 178.427H505.217" stroke="#1F1F1F" stroke-miterlimit="10"/>
<path d="M480.256 187.805H505.217" stroke="#1F1F1F" stroke-miterlimit="10"/>
<path d="M515.636 99.7643C517.065 99.7643 518.223 98.605 518.223 97.1749C518.223 95.7448 517.065 94.5854 515.636 94.5854C514.207 94.5854 513.049 95.7448 513.049 97.1749C513.049 98.605 514.207 99.7643 515.636 99.7643Z" stroke="#1F1F1F" stroke-miterlimit="10"/>
<path d="M140.468 179V179.5H140.968H154.418C156.998 179.5 159.141 178.766 160.639 177.29C162.139 175.813 162.928 173.657 162.928 170.947C162.928 168.627 162.347 166.889 161.364 165.618C160.637 164.679 159.711 164.021 158.693 163.572C159.462 163.092 160.129 162.467 160.645 161.669C161.383 160.528 161.79 159.069 161.79 157.244C161.79 154.595 161.01 152.51 159.522 151.09C158.037 149.674 155.916 148.986 153.363 148.986H140.968H140.468V149.486V179ZM169.36 179V179.5H169.86H173.233H173.576L173.7 179.18L176.612 171.658H188.656L191.485 179.176L191.607 179.5H191.953H195.579H196.079V179V177.777V177.683L196.045 177.595L184.999 149.304L184.874 148.986H184.533H180.865H180.523L180.399 149.305L169.394 177.596L169.36 177.683V177.777V179ZM207.92 179V179.5H208.42H212.088H212.588V179V153.233H221.027H221.527V152.733V149.486V148.986H221.027H199.44H198.94V149.486V152.733V153.233H199.44H207.92V179ZM145.136 175.253V166.134H153.785C155.314 166.134 156.412 166.569 157.13 167.315C157.851 168.063 158.26 169.198 158.26 170.736C158.26 172.252 157.852 173.363 157.133 174.096C156.416 174.827 155.317 175.253 153.785 175.253H145.136ZM145.136 162.014V153.233H152.731C154.243 153.233 155.321 153.649 156.022 154.36C156.725 155.071 157.122 156.15 157.122 157.624C157.122 159.074 156.725 160.157 156.029 160.875C155.336 161.591 154.279 162.014 152.815 162.014H145.136ZM187.137 167.538H178.094L182.634 155.771L187.137 167.538Z" stroke="#232323"/>
<path d="M347.426 37.8586C349.318 37.8586 350.852 36.3232 350.852 34.4293C350.852 32.5353 349.318 31 347.426 31C345.534 31 344 32.5353 344 34.4293C344 36.3232 345.534 37.8586 347.426 37.8586Z" fill="#232323"/>
<path d="M995.426 480.859C997.318 480.859 998.852 479.323 998.852 477.429C998.852 475.535 997.318 474 995.426 474C993.534 474 992 475.535 992 477.429C992 479.323 993.534 480.859 995.426 480.859Z" fill="#232323"/>
<path d="M258.426 512.859C260.318 512.859 261.852 511.323 261.852 509.429C261.852 507.535 260.318 506 258.426 506C256.534 506 255 507.535 255 509.429C255 511.323 256.534 512.859 258.426 512.859Z" fill="#232323"/>
<path d="M85.4261 25.8586C87.3182 25.8586 88.8521 24.3232 88.8521 22.4293C88.8521 20.5353 87.3182 19 85.4261 19C83.5339 19 82 20.5353 82 22.4293C82 24.3232 83.5339 25.8586 85.4261 25.8586Z" fill="#232323"/>
<path d="M988.426 39.8586C990.318 39.8586 991.852 38.3232 991.852 36.4293C991.852 34.5353 990.318 33 988.426 33C986.534 33 985 34.5353 985 36.4293C985 38.3232 986.534 39.8586 988.426 39.8586Z" fill="#232323"/>
<path d="M1004.5 75C1005.33 75 1006 74.3284 1006 73.5C1006 72.6716 1005.33 72 1004.5 72C1003.67 72 1003 72.6716 1003 73.5C1003 74.3284 1003.67 75 1004.5 75Z" fill="#232323"/>
<path d="M1007.5 445C1008.33 445 1009 444.328 1009 443.5C1009 442.672 1008.33 442 1007.5 442C1006.67 442 1006 442.672 1006 443.5C1006 444.328 1006.67 445 1007.5 445Z" fill="#232323"/>
<path d="M595.499 496C596.326 496 596.997 495.328 596.997 494.5C596.997 493.672 596.326 493 595.499 493C594.671 493 594 493.672 594 494.5C594 495.328 594.671 496 595.499 496Z" fill="#232323"/>
<path d="M583.662 512.698V513.048C578.907 513.048 576.111 515.918 576.111 520.747H575.621C575.621 515.988 572.755 513.048 568 513.048V512.698C572.755 512.698 575.621 509.759 575.621 505H576.111C576.111 509.759 578.907 512.698 583.662 512.698Z" fill="#232323"/>
<path d="M317.499 500C318.326 500 318.997 499.328 318.997 498.5C318.997 497.672 318.326 497 317.499 497C316.671 497 316 497.672 316 498.5C316 499.328 316.671 500 317.499 500Z" fill="#232323"/>
<path d="M374.499 51C375.326 51 375.997 50.3284 375.997 49.5C375.997 48.6716 375.326 48 374.499 48C373.671 48 373 48.6716 373 49.5C373 50.3284 373.671 51 374.499 51Z" fill="#232323"/>
<path d="M264.499 33C265.326 33 265.997 32.3284 265.997 31.5C265.997 30.6716 265.326 30 264.499 30C263.671 30 263 30.6716 263 31.5C263 32.3284 263.671 33 264.499 33Z" fill="#232323"/>
<path d="M63.662 489.698V490.048C58.9075 490.048 56.1107 492.918 56.1107 497.747H55.6212C55.6212 492.988 52.7545 490.048 48 490.048V489.698C52.7545 489.698 55.6212 486.759 55.6212 482H56.1107C56.1107 486.759 58.9075 489.698 63.662 489.698Z" fill="#232323"/>
<path d="M45.662 24.6984V25.0483C40.9075 25.0483 38.1107 27.9177 38.1107 32.7467H37.6212C37.6212 27.9877 34.7545 25.0483 30 25.0483V24.6984C34.7545 24.6984 37.6212 21.759 37.6212 17H38.1107C38.1107 21.759 40.9075 24.6984 45.662 24.6984Z" fill="#232323"/>
</svg>
