<svg width="304" height="509" viewBox="0 0 304 509" fill="none" xmlns="http://www.w3.org/2000/svg">
<path id="rabbit_peek-star1" data-aos="rabbit_peek" fill-rule="evenodd" clip-rule="evenodd" d="M158 176.5C158 176.5 129.5 176.763 129.5 205C129.5 176.597 101 176.5 101 176.5C101 176.5 129.5 178.007 129.5 148C129.5 178.007 158 176.5 158 176.5Z" fill="#1D1D1B"/>
<path id="rabbit_peek-star3" data-aos="rabbit_peek" data-aos-delay="800" fill-rule="evenodd" clip-rule="evenodd" d="M119.5 14.2501C119.5 14.2501 105.25 14.3814 105.25 28.5C105.25 14.2985 91 14.2501 91 14.2501C91 14.2501 105.25 15.0036 105.25 0C105.25 15.0036 119.5 14.2501 119.5 14.2501Z" fill="#1D1D1B"/>
<path id="rabbit_peek-star2" data-aos="rabbit_peek" data-aos-delay="400" fill-rule="evenodd" clip-rule="evenodd" d="M44 97.5C44 103.299 39.2991 108 33.4996 108C27.7009 108 23 103.299 23 97.5C23 91.701 27.7009 87 33.4996 87C39.2991 87 44 91.701 44 97.5Z" fill="#1D1D1B"/>
<path fill-rule="evenodd" clip-rule="evenodd" d="M159.687 444.412L188.935 444.843C189.303 419.849 234.73 384.736 235.524 330.835C236.201 284.948 226.916 259.387 220.639 247.684C215.782 238.628 210.693 233.141 201.344 233.003C190.865 232.848 184.169 238.599 181.219 257.516C171.441 320.236 147.416 364.399 159.687 444.412Z" fill="#EDE1D2"/>
<path fill-rule="evenodd" clip-rule="evenodd" d="M159.687 444.412L188.935 444.843C189.303 419.849 234.73 384.736 235.524 330.835C236.201 284.948 226.916 259.387 220.639 247.684C215.782 238.628 210.693 233.141 201.344 233.003C190.865 232.848 184.169 238.599 181.219 257.516C171.441 320.236 147.416 364.399 159.687 444.412Z" stroke="#1D1D1B"/>
<path fill-rule="evenodd" clip-rule="evenodd" d="M177.429 448.586C177.839 420.825 219.232 386.613 223.526 342.109C227.13 304.757 216.23 268.61 213.699 259.03C211.475 250.613 208.107 244.596 202.14 244.67C196.892 244.734 193.318 249.041 192.402 259.845C189.951 288.741 187.542 334.033 184.076 365.181C180.358 398.586 172.984 439.355 161.419 452.73" fill="white"/>
<path d="M177.429 448.586C177.839 420.825 219.232 386.613 223.526 342.109C227.13 304.757 216.23 268.61 213.699 259.03C211.475 250.613 208.107 244.596 202.14 244.67C196.892 244.734 193.318 249.041 192.402 259.845C189.951 288.741 187.542 334.033 184.076 365.181C180.358 398.586 172.984 439.355 161.419 452.73" stroke="#1D1D1B"/>
<path fill-rule="evenodd" clip-rule="evenodd" d="M144.346 444.412L115.098 444.843C114.73 419.849 69.3038 384.736 68.5091 330.835C67.8326 284.948 77.1169 259.387 83.3945 247.684C88.2519 238.628 93.3402 233.141 102.69 233.003C113.169 232.848 119.865 238.599 122.814 257.516C132.593 320.236 156.618 364.399 144.346 444.412Z" fill="#EDE1D2"/>
<path fill-rule="evenodd" clip-rule="evenodd" d="M144.346 444.412L115.098 444.843C114.73 419.849 69.3038 384.736 68.5091 330.835C67.8326 284.948 77.1169 259.387 83.3945 247.684C88.2519 238.628 93.3402 233.141 102.69 233.003C113.169 232.848 119.865 238.599 122.814 257.516C132.593 320.236 156.618 364.399 144.346 444.412Z" stroke="#1D1D1B"/>
<path fill-rule="evenodd" clip-rule="evenodd" d="M126.604 448.586C126.195 420.825 84.802 386.613 80.5076 342.109C76.9031 304.757 87.804 268.61 90.3343 259.03C92.558 250.613 95.9266 244.596 101.894 244.67C107.141 244.734 110.715 249.041 111.632 259.845C114.083 288.741 116.491 334.033 119.957 365.181C123.675 398.586 131.049 439.355 142.615 452.73" fill="white"/>
<path d="M126.604 448.586C126.195 420.825 84.802 386.613 80.5076 342.109C76.9031 304.757 87.804 268.61 90.3343 259.03C92.558 250.613 95.9266 244.596 101.894 244.67C107.141 244.734 110.715 249.041 111.632 259.845C114.083 288.741 116.491 334.033 119.957 365.181C123.675 398.586 131.049 439.355 142.615 452.73" stroke="#1D1D1B"/>
<path fill-rule="evenodd" clip-rule="evenodd" d="M280.033 505.588C280.033 489.61 267.081 476.657 251.103 476.657C235.125 476.657 222.173 489.61 222.173 505.588H280.033Z" stroke="#1D1D1B"/>
<path d="M264.242 489.676V506.07" stroke="#1D1D1B"/>
<path d="M251.103 489.676V506.07" stroke="#1D1D1B"/>
<path d="M237.964 489.676V506.07" stroke="#1D1D1B"/>
<path fill-rule="evenodd" clip-rule="evenodd" d="M81.8606 505.588C81.8606 489.61 68.9083 476.657 52.9303 476.657C36.9526 476.657 24 489.61 24 505.588H81.8606Z" stroke="#1D1D1B"/>
<path d="M66.0696 489.676V506.07" stroke="#1D1D1B"/>
<path d="M52.9304 489.676V506.07" stroke="#1D1D1B"/>
<path d="M39.7912 489.676V506.07" stroke="#1D1D1B"/>
<path fill-rule="evenodd" clip-rule="evenodd" d="M221.931 505.105C221.931 466.492 190.629 435.191 152.017 435.191C113.404 435.191 82.1023 466.492 82.1023 505.105H221.931Z" fill="#EDE1D2"/>
<path fill-rule="evenodd" clip-rule="evenodd" d="M221.931 505.105C221.931 466.492 190.629 435.191 152.017 435.191C113.404 435.191 82.1023 466.492 82.1023 505.105H221.931Z" stroke="#1D1D1B"/>
<path fill-rule="evenodd" clip-rule="evenodd" d="M131.322 467.49C131.338 472.968 135.791 477.396 141.268 477.381C146.746 477.365 151.175 472.912 151.159 467.435C151.144 461.957 146.691 457.529 141.213 457.544C135.735 457.559 131.307 462.012 131.322 467.49Z" fill="white"/>
<path fill-rule="evenodd" clip-rule="evenodd" d="M131.322 467.49C131.338 472.968 135.791 477.396 141.268 477.381C146.746 477.365 151.175 472.912 151.159 467.435C151.144 461.957 146.691 457.529 141.213 457.544C135.735 457.559 131.307 462.012 131.322 467.49Z" stroke="#1D1D1B"/>
<mask id="mask0" mask-type="alpha" maskUnits="userSpaceOnUse" x="131" y="457" width="21" height="21">
<path fill-rule="evenodd" clip-rule="evenodd" d="M151.159 467.435C151.175 472.912 146.746 477.366 141.268 477.381C135.791 477.396 131.338 472.968 131.322 467.49C131.307 462.012 135.736 457.559 141.213 457.544C141.223 457.544 141.232 457.544 141.241 457.544C146.706 457.544 151.144 461.966 151.159 467.435Z" fill="white"/>
</mask>
<g mask="url(#mask0)">
<path fill-rule="evenodd" clip-rule="evenodd" d="M141.647 484.55L159.094 484.501L159 450.803L141.553 450.851L141.647 484.55Z" fill="#1D1D1B"/>
</g>
<path fill-rule="evenodd" clip-rule="evenodd" d="M177.129 467.49C177.144 472.968 181.597 477.396 187.075 477.381C192.553 477.365 196.981 472.912 196.966 467.435C196.951 461.957 192.497 457.529 187.02 457.544C181.542 457.559 177.114 462.012 177.129 467.49Z" fill="white"/>
<path fill-rule="evenodd" clip-rule="evenodd" d="M177.129 467.49C177.144 472.968 181.597 477.396 187.075 477.381C192.553 477.365 196.981 472.912 196.966 467.435C196.951 461.957 192.497 457.529 187.02 457.544C181.542 457.559 177.114 462.012 177.129 467.49Z" stroke="#1D1D1B"/>
<mask id="mask1" mask-type="alpha" maskUnits="userSpaceOnUse" x="177" y="457" width="20" height="21">
<path fill-rule="evenodd" clip-rule="evenodd" d="M196.966 467.435C196.981 472.912 192.553 477.366 187.075 477.381C181.597 477.396 177.144 472.968 177.129 467.49C177.114 462.012 181.542 457.559 187.02 457.544C187.029 457.544 187.038 457.544 187.048 457.544C192.512 457.544 196.951 461.966 196.966 467.435Z" fill="white"/>
</mask>
<g mask="url(#mask1)">
<path fill-rule="evenodd" clip-rule="evenodd" d="M187.453 484.55L204.9 484.501L204.806 450.803L187.36 450.851L187.453 484.55Z" fill="#1D1D1B"/>
</g>
<path fill-rule="evenodd" clip-rule="evenodd" d="M158.519 467.462C158.519 470.569 161.037 473.088 164.144 473.088C167.251 473.088 169.769 470.569 169.769 467.462C169.769 464.356 167.251 461.837 164.144 461.837C161.037 461.837 158.519 464.356 158.519 467.462Z" fill="white"/>
<path d="M180.458 493.373C180.458 493.373 164.385 490.133 164.385 473.443" stroke="#1D1D1B"/>
<path d="M147.992 493.051C147.992 493.051 164.064 489.812 164.064 473.121" stroke="#1D1D1B"/>
<path fill-rule="evenodd" clip-rule="evenodd" d="M158.519 467.462C158.519 470.569 161.037 473.088 164.144 473.088C167.251 473.088 169.769 470.569 169.769 467.462C169.769 464.356 167.251 461.837 164.144 461.837C161.037 461.837 158.519 464.356 158.519 467.462Z" stroke="#1D1D1B"/>
<path d="M0 505H304V509H0V505Z" fill="#F9F9F9"/>
<rect y="504" width="304" height="1" fill="#1D1D1B"/>
</svg>
