<svg width="1023" height="500" viewBox="0 0 1023 500" fill="none" xmlns="http://www.w3.org/2000/svg">
<g id="Illustration/RabbiteOnField2">
<g id="Group 180">
<g id="Group 3">
<mask id="mask0" mask-type="alpha" maskUnits="userSpaceOnUse" x="2" y="0" width="983" height="443">
<path id="Clip 2" fill-rule="evenodd" clip-rule="evenodd" d="M2.10803 0H984.096V442.338H2.10803V0Z" fill="white"/>
</mask>
<g mask="url(#mask0)">
<path id="Fill 1" fill-rule="evenodd" clip-rule="evenodd" d="M84.5111 379.384C54.0071 379.384 22.0506 358.969 22.0506 322.514C22.0506 271.476 68.5328 242.311 125.183 240.853C190.785 239.165 221.053 277.309 254.462 259.81C296.647 237.715 321.191 67.6927 420.055 42.5353C485.625 25.8497 522.419 61.1488 565.996 61.1488C608.121 61.1488 658.276 8.99597 774.482 8.99597C895.046 8.99597 944.433 67.325 944.433 115.446C944.433 163.567 922.838 174.832 927.966 203.435C933.756 235.726 971.288 247.349 981.436 281.309C994.375 324.604 951.222 360.041 908.119 348.417C857.618 334.796 813.389 303.201 724.034 327.432C676.212 340.401 648.533 356.494 577.357 356.494C506.181 356.494 489.846 324.277 431.675 337.096C372.12 350.22 337.259 442.088 277.703 442.088C218.148 442.088 224.86 367.379 181.721 361.192C151.217 356.818 139.709 379.384 84.5111 379.384" fill="#EDE1D2"/>
</g>
</g>
<g id="Group 7">
<path id="Fill 4" fill-rule="evenodd" clip-rule="evenodd" d="M550.155 326.528C537.757 326.883 529.098 321.606 528.841 312.542C528.569 302.938 536.533 296.236 551.056 295.821C568.414 295.324 580.878 301.961 593.991 297.151C611.763 290.633 604.365 273.26 619.118 265.826L661.738 263.891L617.727 310.723L575.03 331.171" fill="white"/>
<path id="Stroke 6" d="M550.155 326.528C537.757 326.883 529.098 321.606 528.841 312.542C528.569 302.938 536.533 296.236 551.056 295.821C568.414 295.324 580.878 301.961 593.991 297.151C611.763 290.633 604.365 273.26 619.118 265.826L661.738 263.891L617.727 310.723L575.03 331.171" stroke="#1D1D1B" stroke-width="0.641817"/>
</g>
<g id="Group 11">
<path id="Fill 8" fill-rule="evenodd" clip-rule="evenodd" d="M511.7 206.791C511.7 206.791 495.176 188.895 470.265 187.942C455.285 187.368 446.574 194.63 446.74 202.639C446.941 212.358 458.398 216.302 458.398 216.302C458.398 216.302 438.914 217.765 438.592 231.922C438.295 245.001 454.909 244.478 454.909 244.478C454.909 244.478 443.893 258.131 454.122 265.552C467.471 275.236 483.495 251.184 483.495 251.184C483.495 251.184 495.153 267.185 508.938 260.78" fill="white"/>
<path id="Stroke 10" d="M511.7 206.791C511.7 206.791 495.176 188.895 470.265 187.942C455.285 187.368 446.574 194.63 446.74 202.639C446.941 212.358 458.398 216.302 458.398 216.302C458.398 216.302 438.914 217.765 438.592 231.922C438.295 245.001 454.909 244.478 454.909 244.478C454.909 244.478 443.893 258.131 454.122 265.552C467.471 275.236 483.495 251.184 483.495 251.184C483.495 251.184 495.153 267.185 508.938 260.78" stroke="#1D1D1B" stroke-width="0.641817"/>
</g>
<g id="Group 15">
<path id="Fill 12" fill-rule="evenodd" clip-rule="evenodd" d="M771.936 121.135C771.936 121.135 740.575 78.7173 688.733 72.0599C648.768 66.9275 625.406 79.0186 610.926 80.3469C603.829 80.9979 600.456 78.7231 594.564 79.6508C587.765 80.7211 584.491 87.3293 586.246 93.7925C589.16 104.525 610.381 121.469 655.124 126.47C706.499 132.213 731.648 116.908 755.417 134.306" fill="white"/>
<path id="Stroke 14" d="M771.936 121.135C771.936 121.135 740.575 78.7173 688.733 72.0599C648.768 66.9275 625.406 79.0186 610.926 80.3469C603.829 80.9979 600.456 78.7231 594.564 79.6508C587.765 80.7211 584.491 87.3293 586.246 93.7925C589.16 104.525 610.381 121.469 655.124 126.47C706.499 132.213 731.648 116.908 755.417 134.306" stroke="#1D1D1B" stroke-width="0.641817"/>
</g>
<g id="Group 19">
<path id="Fill 16" fill-rule="evenodd" clip-rule="evenodd" d="M761.911 139.857C761.911 139.857 730.549 97.4391 678.707 90.7816C638.743 85.6493 615.381 97.7403 600.901 99.0687C593.804 99.7196 590.431 97.4448 584.539 98.3726C577.74 99.4429 574.466 106.051 576.22 112.514C579.135 123.247 600.356 140.191 645.099 145.192C696.474 150.935 721.161 139.585 744.93 156.982" fill="white"/>
<path id="Stroke 18" d="M761.911 139.857C761.911 139.857 730.549 97.4391 678.707 90.7816C638.743 85.6493 615.381 97.7403 600.901 99.0687C593.804 99.7196 590.431 97.4448 584.539 98.3726C577.74 99.4429 574.466 106.051 576.22 112.514C579.135 123.247 600.356 140.191 645.099 145.192C696.474 150.935 721.161 139.585 744.93 156.982" stroke="#1D1D1B" stroke-width="0.641817"/>
</g>
<path id="Fill 20" fill-rule="evenodd" clip-rule="evenodd" d="M256.694 402.98C256.694 406.929 253.505 410.131 249.572 410.131C245.638 410.131 242.45 406.929 242.45 402.98C242.45 399.03 245.638 395.829 249.572 395.829C253.505 395.829 256.694 399.03 256.694 402.98" fill="#232323"/>
<path id="Fill 22" fill-rule="evenodd" clip-rule="evenodd" d="M553.076 123.488C553.076 127.438 549.887 130.64 545.954 130.64C542.021 130.64 538.833 127.438 538.833 123.488C538.833 119.539 542.021 116.337 545.954 116.337C549.887 116.337 553.076 119.539 553.076 123.488" fill="#232323"/>
<path id="Fill 24" fill-rule="evenodd" clip-rule="evenodd" d="M999.293 342.573C999.293 346.522 996.105 349.724 992.171 349.724C988.238 349.724 985.05 346.522 985.05 342.573C985.05 338.623 988.238 335.421 992.171 335.421C996.105 335.421 999.293 338.623 999.293 342.573" fill="#1D1D1B"/>
<path id="Fill 26" fill-rule="evenodd" clip-rule="evenodd" d="M43.2753 394.752C43.2753 398.701 40.0866 401.903 36.1534 401.903C32.2202 401.903 29.0317 398.701 29.0317 394.752C29.0317 390.802 32.2202 387.6 36.1534 387.6C40.0866 387.6 43.2753 390.802 43.2753 394.752" fill="#232323"/>
<path id="Fill 28" fill-rule="evenodd" clip-rule="evenodd" d="M121.297 185.073C121.297 191.766 115.893 197.193 109.227 197.193C102.561 197.193 97.1567 191.766 97.1567 185.073C97.1567 178.379 102.561 172.952 109.227 172.952C115.893 172.952 121.297 178.379 121.297 185.073" fill="#232323"/>
<path id="Fill 32" fill-rule="evenodd" clip-rule="evenodd" d="M149.151 24.6553C149.151 26.3212 147.806 27.6716 146.148 27.6716C144.489 27.6716 143.144 26.3212 143.144 24.6553C143.144 22.9896 144.489 21.6393 146.148 21.6393C147.806 21.6393 149.151 22.9896 149.151 24.6553" fill="#232323"/>
<path id="Fill 34" fill-rule="evenodd" clip-rule="evenodd" d="M229.383 227.85C229.383 229.516 228.038 230.867 226.379 230.867C224.72 230.867 223.375 229.516 223.375 227.85C223.375 226.185 224.72 224.834 226.379 224.834C228.038 224.834 229.383 226.185 229.383 227.85" fill="#232323"/>
<path id="Fill 36" fill-rule="evenodd" clip-rule="evenodd" d="M444.175 149.647C444.175 151.313 442.83 152.663 441.171 152.663C439.513 152.663 438.168 151.313 438.168 149.647C438.168 147.981 439.513 146.631 441.171 146.631C442.83 146.631 444.175 147.981 444.175 149.647" fill="#232323"/>
<path id="Fill 38" fill-rule="evenodd" clip-rule="evenodd" d="M414.454 306.04C414.454 307.705 413.11 309.056 411.451 309.056C409.792 309.056 408.447 307.705 408.447 306.04C408.447 304.374 409.792 303.024 411.451 303.024C413.11 303.024 414.454 304.374 414.454 306.04" fill="#232323"/>
<path id="Fill 40" fill-rule="evenodd" clip-rule="evenodd" d="M962.703 196.834C962.703 198.499 961.359 199.85 959.7 199.85C958.041 199.85 956.696 198.499 956.696 196.834C956.696 195.168 958.041 193.818 959.7 193.818C961.359 193.818 962.703 195.168 962.703 196.834" fill="#232323"/>
<path id="Fill 44" fill-rule="evenodd" clip-rule="evenodd" d="M-1.00002 499.463H1023C1016.88 473.664 983.769 433.735 933.186 449.156C882.603 464.578 883.243 477.629 819.214 464.578C755.185 451.526 760.744 425.42 567.579 385.542C402.384 351.438 360.125 438.875 313.383 455.582C251.275 477.782 196.85 455.582 143.066 438.875C83.4199 420.348 -1.00002 467.522 -1.00002 499.463Z" fill="#232323"/>
<g id="Group 51">
<path id="Fill 48" fill-rule="evenodd" clip-rule="evenodd" d="M749.548 138.19C749.548 138.19 723.705 111.229 673.614 103.707C641.038 98.8162 612.613 103.547 611.542 115.835C610.491 127.897 632.692 132.463 654.704 131.833C676.717 131.204 695.249 129.67 715.987 133.834C737.585 138.17 745.323 146.425 745.323 146.425" fill="white"/>
<path id="Stroke 50" d="M749.548 138.19C749.548 138.19 723.705 111.229 673.614 103.707C641.038 98.8162 612.613 103.547 611.542 115.835C610.491 127.897 632.692 132.463 654.704 131.833C676.717 131.204 695.249 129.67 715.987 133.834C737.585 138.17 745.323 146.425 745.323 146.425" stroke="#1D1D1B" stroke-width="0.641817"/>
</g>
<g id="Group 99">
<g id="Group 98">
<path id="Fill 56" fill-rule="evenodd" clip-rule="evenodd" d="M968.443 460.22C968.443 460.22 939.081 406.012 929.294 408.776C919.507 411.541 951.315 460.22 951.315 460.22H968.443Z" fill="#1D1D1B"/>
<path id="Stroke 58" fill-rule="evenodd" clip-rule="evenodd" d="M968.443 460.22C968.443 460.22 939.081 406.012 929.294 408.776C919.507 411.541 951.315 460.22 951.315 460.22H968.443Z" fill="#232323" stroke="#232323" stroke-width="0.641817"/>
<path id="Fill 60" fill-rule="evenodd" clip-rule="evenodd" d="M946.432 455.427C946.432 455.427 969.421 416.883 977.985 422.411C986.549 427.939 963.56 455.427 963.56 455.427H946.432Z" fill="#1D1D1B"/>
<path id="Stroke 62" fill-rule="evenodd" clip-rule="evenodd" d="M946.432 455.427C946.432 455.427 969.421 416.883 977.985 422.411C986.549 427.939 963.56 455.427 963.56 455.427H946.432Z" fill="#232323" stroke="#232323" stroke-width="0.641817"/>
</g>
</g>
<g id="Group 102">
<path id="Stroke 66" fill-rule="evenodd" clip-rule="evenodd" d="M149.873 449.086C149.873 449.086 143.457 412.453 149.107 410.067C154.756 407.681 159.108 445.693 159.108 445.693L149.873 449.086Z" stroke="#232323" stroke-width="0.641817"/>
<path id="Fill 68" fill-rule="evenodd" clip-rule="evenodd" d="M156.194 448.484C156.194 448.484 142.337 425.25 137.175 428.582C132.012 431.914 145.87 448.484 145.87 448.484H156.194Z" fill="#232323"/>
<path id="Stroke 70" fill-rule="evenodd" clip-rule="evenodd" d="M156.194 448.484C156.194 448.484 142.337 425.25 137.175 428.582C132.012 431.914 145.87 448.484 145.87 448.484H156.194Z" stroke="#232323" stroke-width="0.641817"/>
<path id="Fill 72" fill-rule="evenodd" clip-rule="evenodd" d="M155.28 444.466C155.28 444.466 169.137 421.233 174.299 424.565C179.462 427.897 165.604 444.466 165.604 444.466H155.28Z" fill="#232323"/>
<path id="Stroke 74" fill-rule="evenodd" clip-rule="evenodd" d="M155.28 444.466C155.28 444.466 169.137 421.233 174.299 424.565C179.462 427.897 165.604 444.466 165.604 444.466H155.28Z" stroke="#232323" stroke-width="0.641817"/>
<path id="Fill 64" fill-rule="evenodd" clip-rule="evenodd" d="M149.873 449.086C149.873 449.086 143.457 412.453 149.107 410.067C154.756 407.681 159.108 445.693 159.108 445.693L149.873 449.086Z" fill="#232323"/>
</g>
<path id="Fill 80" fill-rule="evenodd" clip-rule="evenodd" d="M689.411 302.941C661.936 296.419 678.421 262.811 688.912 247.762C699.403 232.713 728.078 258.153 728.078 258.153C728.078 258.153 741.033 264.903 738.653 280.991C738.653 280.991 785.343 292.387 798.983 295.641C818.971 300.409 822.299 317.758 818.655 326.762L786.823 321.501L689.411 302.941Z" fill="white"/>
<path id="Stroke 82" fill-rule="evenodd" clip-rule="evenodd" d="M689.411 302.941C661.936 296.419 678.421 262.811 688.912 247.762C699.403 232.713 728.078 258.153 728.078 258.153C728.078 258.153 741.033 264.903 738.653 280.991C738.653 280.991 785.343 292.387 798.983 295.641C818.971 300.409 822.299 317.758 818.655 326.762L786.823 321.501L689.411 302.941Z" stroke="#1D1D1B" stroke-width="0.641817"/>
<path id="Stroke 84" d="M535.917 299.524C535.917 299.524 540.672 317.188 556.259 316.742C571.845 316.296 577.018 298.704 577.018 298.704" stroke="#1D1D1B" stroke-width="0.641817"/>
<g id="Group 89">
<path id="Fill 86" fill-rule="evenodd" clip-rule="evenodd" d="M673.454 282.303C673.454 282.303 620.1 330.224 586.218 336.888C566.065 340.851 550.233 334.358 549.909 322.9C549.653 313.892 557.457 307.658 572.408 307.231C587.36 306.803 598.391 313.749 607.775 308.149C617.548 302.315 620.228 269.801 657.708 254.705" fill="white"/>
<path id="Stroke 88" d="M673.454 282.303C673.454 282.303 620.1 330.224 586.218 336.888C566.065 340.851 550.233 334.358 549.909 322.9C549.653 313.892 557.457 307.658 572.408 307.231C587.36 306.803 598.391 313.749 607.775 308.149C617.548 302.315 620.228 269.801 657.708 254.705" stroke="#1D1D1B" stroke-width="0.641817"/>
</g>
<g id="Group 93">
<path id="Fill 90" fill-rule="evenodd" clip-rule="evenodd" d="M555.763 311.772C555.763 311.772 558.576 323.44 574.516 322.984C590.457 322.528 592.938 309.997 592.938 309.997" fill="white"/>
<path id="Stroke 92" d="M555.763 311.772C555.763 311.772 558.576 323.44 574.516 322.984C590.457 322.528 592.938 309.997 592.938 309.997" stroke="#1D1D1B" stroke-width="0.641817"/>
</g>
<g id="Group 97">
<path id="Fill 94" fill-rule="evenodd" clip-rule="evenodd" d="M706.266 243.299C715.523 269.464 706.603 290.37 706.603 290.37C706.603 290.37 755.749 302.205 773.926 307.477C799.073 314.772 792.776 338.994 792.776 338.994L669.464 317.477C669.464 317.477 674.621 288.28 658.332 276.725C642.044 265.17 610.183 274.733 573.692 282.151C539.521 289.097 503.239 272.335 500.499 238.237C497.702 203.432 522.952 176.167 576.707 162.723C652.771 143.699 742.156 172.151 742.156 172.151C742.156 172.151 747.613 141.749 774.579 169.917C801.545 198.084 777.295 215.223 777.295 215.223C777.295 215.223 761.983 250.659 710.52 265.153" fill="white"/>
<path id="Stroke 96" d="M597.621 211.346C643.613 196.765 694.336 209.581 706.266 243.299C715.523 269.464 706.603 290.37 706.603 290.37C706.603 290.37 755.749 302.205 773.926 307.477C799.073 314.772 792.776 338.994 792.776 338.994L669.464 317.477C669.464 317.477 674.621 288.28 658.332 276.725C642.044 265.17 610.183 274.733 573.692 282.151C539.521 289.097 503.239 272.335 500.499 238.237C497.702 203.432 522.952 176.167 576.707 162.723C652.771 143.699 742.156 172.151 742.156 172.151C742.156 172.151 747.613 141.749 774.579 169.917C801.545 198.084 777.295 215.223 777.295 215.223C777.295 215.223 761.983 250.659 710.52 265.153" stroke="#1D1D1B" stroke-width="0.641817"/>
</g>
<path id="Stroke 98" d="M775.425 319.987L775.879 335.994" stroke="#1D1D1B" stroke-width="0.641817"/>
<path id="Stroke 100" d="M767.26 318.895L767.715 334.902" stroke="#1D1D1B" stroke-width="0.641817"/>
<path id="Stroke 102" d="M783.473 321.764L783.927 337.77" stroke="#1D1D1B" stroke-width="0.641817"/>
<path id="Stroke 104" d="M802.29 323.872L801.836 307.865" stroke="#1D1D1B" stroke-width="0.641817"/>
<path id="Stroke 106" d="M794.126 322.78L793.672 306.773" stroke="#1D1D1B" stroke-width="0.641817"/>
<path id="Stroke 108" d="M809.884 309.642L810.338 325.649" stroke="#1D1D1B" stroke-width="0.641817"/>
<path id="Fill 110" fill-rule="evenodd" clip-rule="evenodd" d="M990.846 53.7781L990.844 54.7032C977.818 54.7032 970.208 62.6278 970.208 75.6486L968.907 75.648C968.907 62.5673 961.106 54.7032 948.195 54.7032L948.194 53.7781C961.106 53.7781 968.91 45.8455 968.91 32.8247H970.208C970.208 45.8455 977.818 53.7781 990.846 53.7781" fill="#232323"/>
<path id="Fill 114" fill-rule="evenodd" clip-rule="evenodd" d="M907.545 381.647L907.544 382.059C901.745 382.059 898.357 385.587 898.357 391.384L897.778 391.383C897.778 385.56 894.305 382.059 888.556 382.059L888.556 381.647C894.305 381.647 897.779 378.115 897.779 372.318H898.357C898.357 378.115 901.745 381.647 907.545 381.647" fill="#232323"/>
<path id="Fill 116" fill-rule="evenodd" clip-rule="evenodd" d="M249.127 121.363L249.125 122.287C236.1 122.287 228.49 130.212 228.49 143.233L227.189 143.232C227.189 130.152 219.387 122.287 206.477 122.287L206.476 121.363C219.387 121.363 227.191 113.43 227.191 100.409H228.49C228.49 113.43 236.1 121.363 249.127 121.363" fill="#232323"/>
<path id="Fill 118" fill-rule="evenodd" clip-rule="evenodd" d="M49.1438 47.7566L49.143 48.1504C43.6 48.1504 40.3614 51.5227 40.3614 57.0633L39.8079 57.0631C39.8079 51.4968 36.4882 48.1504 30.9941 48.1504L30.9935 47.7566C36.4882 47.7566 39.809 44.3807 39.809 38.8401H40.3614C40.3614 44.3807 43.6 47.7566 49.1438 47.7566" fill="#232323"/>
<g id="Group 101">
<path id="Stroke 122" fill-rule="evenodd" clip-rule="evenodd" d="M835.53 467.748C835.53 467.748 807.097 421.877 796.183 434.732C783.701 449.432 835.53 467.748 835.53 467.748Z" stroke="#232323" stroke-width="0.641817"/>
<g id="Stroke 124">
<path fill-rule="evenodd" clip-rule="evenodd" d="M800.09 438.926L835.26 467.748Z" fill="#232323"/>
<path d="M800.09 438.926L835.26 467.748" stroke="#232323" stroke-width="0.641817"/>
</g>
<path id="Stroke 128" fill-rule="evenodd" clip-rule="evenodd" d="M835.391 467.865C835.391 467.865 863.824 421.995 874.738 434.849C887.219 449.549 835.391 467.865 835.391 467.865Z" stroke="#232323" stroke-width="0.641817"/>
<g id="Stroke 130">
<path fill-rule="evenodd" clip-rule="evenodd" d="M870.831 439.044L835.661 467.865Z" fill="#232323"/>
<path d="M870.831 439.044L835.661 467.865" stroke="#232323" stroke-width="0.641817"/>
</g>
<g id="Stroke 120">
<path fill-rule="evenodd" clip-rule="evenodd" d="M835.463 467.817V440.068Z" fill="#232323"/>
<path d="M835.463 467.817V440.068" stroke="#232323" stroke-width="0.641817"/>
</g>
<path id="Fill 132" fill-rule="evenodd" clip-rule="evenodd" d="M856.775 418.061L856.772 418.986C843.747 418.986 836.137 426.911 836.137 439.932L834.836 439.931C834.836 426.851 827.034 418.986 814.123 418.986L814.123 418.061C827.034 418.061 834.839 410.129 834.839 397.108H836.137C836.137 410.129 843.747 418.061 856.775 418.061" fill="#232323"/>
<path id="Stroke 134" fill-rule="evenodd" clip-rule="evenodd" d="M856.775 418.061L856.772 418.986C843.747 418.986 836.137 426.911 836.137 439.932L834.836 439.931C834.836 426.851 827.034 418.986 814.123 418.986L814.123 418.061C827.034 418.061 834.839 410.129 834.839 397.108H836.137C836.137 410.129 843.747 418.061 856.775 418.061Z" fill="#232323" stroke="#232323" stroke-width="0.641817"/>
</g>
<path id="Stroke 146" d="M35.8547 392.657C35.8547 392.657 59.0525 268.178 142.42 268.178C226.512 268.178 250.434 403.576 250.434 403.576C250.434 403.576 288.131 62.1688 452.69 62.1688C518.714 62.1688 545.91 124.304 545.91 124.304" stroke="#232323" stroke-width="0.641817"/>
<path id="Stroke 148" d="M642.705 386.051C642.705 386.051 744.076 277.399 867.314 277.399C953.581 277.399 992.58 343.602 992.58 343.602" stroke="#232323" stroke-width="0.641817"/>
<path id="Stroke 150" d="M135.501 295.605C135.501 295.605 173.41 287.329 204.726 342.774" stroke="#232323" stroke-width="0.641817"/>
<path id="Stroke 152" d="M292.907 343.602C292.907 343.602 345.65 95.3395 445.368 95.3395C485.749 95.3395 501.408 120.993 501.408 120.993" stroke="#232323" stroke-width="0.641817"/>
<path id="Stroke 154" d="M336.585 316.293C336.585 316.293 348.946 247.607 379.438 203.747" stroke="#232323" stroke-width="0.641817"/>
<path id="Stroke 156" d="M848.359 303.88C848.359 303.88 875.488 297.671 909.344 308.018C947.253 319.603 965.384 338.637 965.384 338.637" stroke="#232323" stroke-width="0.641817"/>
<path id="Stroke 158" d="M892.862 329.534C892.862 329.534 922.53 327.051 953.846 349.395" stroke="#232323" stroke-width="0.641817"/>
<path id="Stroke 160" d="M486.269 191.011C481.272 189.578 467.472 189.936 465.925 201.166C464.46 211.797 477.641 218.371 477.641 218.371C477.641 218.371 455.812 216.457 453.744 229.357C452.097 239.633 464.973 241.546 464.973 241.546C464.973 241.546 455.098 253.254 461.166 259.944C466.787 266.142 476.394 259.944 478.893 256.838" stroke="#1D1D1B" stroke-width="0.641817"/>
<path id="Stroke 164" d="M617.522 475.356C617.522 475.356 633.397 460.08 647.949 460.08C662.5 460.08 667.792 470.043 677.714 470.043C687.636 470.043 696.896 460.08 712.109 460.08C727.322 460.08 741.213 474.692 741.213 474.692" stroke="white" stroke-width="0.641817"/>
<path id="Stroke 166" d="M63.0292 464.902C63.0292 464.902 73.3824 454.939 82.8727 454.939C92.3631 454.939 95.8141 461.437 102.285 461.437C108.756 461.437 114.795 454.939 124.717 454.939C134.638 454.939 143.697 464.469 143.697 464.469" stroke="white" stroke-width="0.641817"/>
<path id="Stroke 170" d="M457.449 436.956C457.449 436.956 463.251 427.951 473.801 427.951C482.241 427.951 487.516 435.897 487.516 435.897C487.516 435.897 493.318 427.951 501.758 427.951C510.198 427.951 514.945 436.956 514.945 436.956C514.945 436.956 520.747 427.951 529.187 427.951C537.627 427.951 543.957 436.956 543.957 436.956" stroke="white" stroke-width="0.641817"/>
<path id="Fill 172" fill-rule="evenodd" clip-rule="evenodd" d="M840.106 163.322C840.878 190.542 819.53 213.236 792.423 214.011C765.316 214.787 742.715 193.349 741.943 166.129C741.171 138.91 762.52 116.215 789.627 115.44C816.734 114.664 839.334 136.102 840.106 163.322" fill="white"/>
<path id="Stroke 174" fill-rule="evenodd" clip-rule="evenodd" d="M840.106 163.322C840.878 190.542 819.53 213.236 792.423 214.011C765.316 214.787 742.715 193.349 741.943 166.129C741.171 138.91 762.52 116.215 789.627 115.44C816.734 114.664 839.334 136.102 840.106 163.322Z" stroke="#1D1D1B" stroke-width="0.641817"/>
<path id="Fill 176" fill-rule="evenodd" clip-rule="evenodd" d="M776.842 137.532C776.709 132.299 780.824 127.949 786.034 127.815C791.244 127.68 795.577 131.813 795.711 137.045C795.845 142.277 791.729 146.627 786.519 146.761C781.309 146.896 776.976 142.764 776.842 137.532" fill="white"/>
<path id="Stroke 178" fill-rule="evenodd" clip-rule="evenodd" d="M776.842 137.532C776.709 132.299 780.824 127.949 786.034 127.815C791.244 127.68 795.577 131.813 795.711 137.045C795.845 142.277 791.729 146.627 786.519 146.761C781.309 146.896 776.976 142.764 776.842 137.532Z" stroke="#1D1D1B" stroke-width="0.641817"/>
</g>
<g id="Group 183">
<mask id="mask1" mask-type="alpha" maskUnits="userSpaceOnUse" x="776" y="127" width="20" height="20">
<path id="Clip 182" fill-rule="evenodd" clip-rule="evenodd" d="M786.034 127.815C780.824 127.949 776.708 132.299 776.842 137.532V137.532C776.976 142.764 781.309 146.896 786.519 146.761V146.761C791.729 146.627 795.844 142.277 795.711 137.045V137.045C795.579 131.895 791.381 127.811 786.281 127.812V127.812C786.199 127.812 786.116 127.813 786.034 127.815V127.815Z" fill="white"/>
</mask>
<g mask="url(#mask1)">
<path id="Fill 181" fill-rule="evenodd" clip-rule="evenodd" d="M786.2 120.958L802.795 120.529L803.618 152.716L787.023 153.144L786.2 120.958Z" fill="#232323"/>
</g>
</g>
<g id="Group 188">
<path id="Fill 184" fill-rule="evenodd" clip-rule="evenodd" d="M820.409 136.285C820.275 131.053 824.39 126.703 829.601 126.569C834.811 126.434 839.143 130.567 839.277 135.799C839.411 141.031 835.296 145.381 830.085 145.516C824.875 145.65 820.543 141.518 820.409 136.285" fill="white"/>
<path id="Stroke 186" fill-rule="evenodd" clip-rule="evenodd" d="M820.409 136.285C820.275 131.053 824.39 126.703 829.601 126.569C834.811 126.434 839.143 130.567 839.277 135.799C839.411 141.031 835.296 145.381 830.085 145.516C824.875 145.65 820.543 141.518 820.409 136.285Z" stroke="#1D1D1B" stroke-width="0.641817"/>
</g>
<g id="Group 191">
<mask id="mask2" mask-type="alpha" maskUnits="userSpaceOnUse" x="820" y="126" width="20" height="20">
<path id="Clip 190" fill-rule="evenodd" clip-rule="evenodd" d="M829.601 126.569C824.39 126.703 820.275 131.054 820.409 136.285V136.285C820.543 141.518 824.875 145.65 830.085 145.516V145.516C835.296 145.381 839.411 141.031 839.277 135.799V135.799C839.145 130.649 834.947 126.565 829.847 126.565V126.565C829.766 126.565 829.683 126.566 829.601 126.569V126.569Z" fill="white"/>
</mask>
<g mask="url(#mask2)">
<path id="Fill 189" fill-rule="evenodd" clip-rule="evenodd" d="M829.766 119.712L846.361 119.283L847.185 151.47L830.59 151.898L829.766 119.712Z" fill="#232323"/>
</g>
</g>
<g id="Group 208">
<path id="Fill 192" fill-rule="evenodd" clip-rule="evenodd" d="M823.425 146.259C823.509 149.226 821.182 151.7 818.227 151.785C815.273 151.869 812.809 149.532 812.725 146.565C812.641 143.598 814.968 141.124 817.923 141.039C820.877 140.955 823.341 143.292 823.425 146.259" fill="white"/>
<path id="Stroke 194" fill-rule="evenodd" clip-rule="evenodd" d="M823.425 146.259C823.509 149.226 821.182 151.7 818.227 151.785C815.273 151.869 812.809 149.532 812.725 146.565C812.641 143.598 814.968 141.124 817.923 141.039C820.877 140.955 823.341 143.292 823.425 146.259Z" stroke="#1D1D1B" stroke-width="0.641817"/>
<path id="Stroke 196" d="M803.261 171.601C803.261 171.601 818.46 168.071 818.008 152.13" stroke="#1D1D1B" stroke-width="0.641817"/>
<path id="Stroke 198" d="M834.131 170.411C834.131 170.411 818.757 167.755 818.305 151.815" stroke="#1D1D1B" stroke-width="0.641817"/>
<path id="Fill 200" fill-rule="evenodd" clip-rule="evenodd" d="M804.125 227.359C802.879 224.937 790.686 201.231 790.686 201.231L812.764 189.779C816.464 196.973 823.482 210.616 826.355 216.201C831.105 225.437 828.789 231.633 821.547 235.389C815.142 238.712 808.602 236.063 804.125 227.359V227.359ZM867.26 190.093C873.669 202.554 867.353 208.151 862.921 210.449C858.489 212.748 849.536 212.099 844.386 202.086C842.5 198.419 836.436 186.631 832.73 179.424L855.656 167.534L867.26 190.093ZM840.598 215.162C851.166 227.976 865.582 228.446 874.693 223.721C890.249 215.653 894.839 195.167 885.466 176.944L899.203 169.819L892.628 157.035L878.89 164.16L875.367 157.311L889.105 150.186L882.529 137.402L868.792 144.526L859.18 125.839L839.469 136.062L849.081 154.75L784.11 188.446C778.74 178.007 774.579 169.917 774.579 169.917L754.614 180.271C754.614 180.271 758.778 188.368 764.145 198.801L750.652 205.8L757.227 218.584L770.72 211.585C772.096 214.261 772.953 215.927 774.297 218.54L760.717 225.583L767.292 238.368L780.873 231.324C794.096 257.032 812.8 260.964 829.224 252.446C842.519 245.551 846.119 228.933 840.598 215.162V215.162Z" fill="#232323"/>
<path id="Fill 202" fill-rule="evenodd" clip-rule="evenodd" d="M812.052 166.859L812.447 180.784L825.594 180.408L825.192 166.231C825.192 166.231 818.445 161.639 818.174 152.084C818.444 161.633 812.052 166.859 812.052 166.859" fill="white"/>
<path id="Stroke 204" fill-rule="evenodd" clip-rule="evenodd" d="M812.052 166.859L812.447 180.784L825.594 180.408L825.192 166.231C825.192 166.231 818.445 161.639 818.174 152.084C818.444 161.633 812.052 166.859 812.052 166.859Z" stroke="#1D1D1B" stroke-width="0.641817"/>
<path id="Stroke 206" d="M818.136 154.812L818.868 180.6" stroke="#1D1D1B" stroke-width="0.641817"/>
</g>
</g>
</svg>
