<svg width="464" viewBox="0 0 464 448" fill="none" xmlns="http://www.w3.org/2000/svg">
<g clip-path="url(#clip0)">
<path d="M74.2806 447.216C74.2806 447.216 14.1974 403.721 14.1974 347.496C14.1974 291.271 62.6784 264.734 62.6784 229.71C62.6784 185.15 14 173.755 14 110.889C14 51.2864 62.5938 9.55057 122.747 9.55057C183.874 9.55057 203.85 38.2023 252.444 38.2023C303.025 38.2023 325.158 0 376.797 0C415.72 0.0283821 460 23.6706 460 78.8454C460 134.02 424.178 154.413 424.178 205.316C424.178 246.697 449.469 283.821 449.469 332.624C449.469 402.642 407.318 447.486 407.318 447.486C407.318 447.486 72.6875 448.806 74.2806 447.216Z" fill="#232323"/>
<path d="M185.812 254.487C182.987 255.168 180.502 256.847 178.815 259.217C177.128 261.586 176.352 264.486 176.63 267.382C177.293 273.682 180.664 274.685 180.678 280.278C180.678 287.51 173.273 293.625 174.952 300.73C177.011 309.501 185.445 311.408 191.482 318.866C196.682 325.683 199.864 334.827 200.663 343.369C202.752 342.591 204.933 342.088 207.151 341.871C210.734 341.97 211.523 292.001 202.342 268.103C199.591 260.928 192.06 253.018 185.812 254.487Z" stroke="#FBFBFB" stroke-miterlimit="10"/>
<path d="M205.882 342.182C205.882 342.182 207.448 325.504 202.032 317.623C195.29 307.736 184.867 305.956 184.867 297.354C184.867 285.688 194.373 281.818 194.373 272.185C194.373 263.272 186.094 262.665 186.094 253.823C186.094 245.532 193.428 240.32 202.342 240.32C213.385 240.32 218.59 246.761 218.59 253.512C218.59 262.114 208.788 267.34 208.788 274.699C208.788 282.058 222.581 286.521 222.581 302.015C222.581 317.51 208.661 342.239 208.661 342.239L205.882 342.182Z" stroke="#FBFBFB" stroke-miterlimit="10"/>
<path d="M203.231 436.423L190.537 360.49C190.142 358.131 190.265 355.713 190.896 353.406C191.527 351.098 192.652 348.956 194.192 347.127C195.732 345.299 197.651 343.827 199.816 342.815C201.981 341.803 204.339 341.275 206.728 341.267V341.267C209.101 341.269 211.446 341.783 213.602 342.775C215.758 343.768 217.675 345.214 219.221 347.017C220.768 348.819 221.908 350.934 222.563 353.218C223.218 355.502 223.374 357.9 223.018 360.25L211.439 436.366C211.216 437.284 210.693 438.101 209.954 438.687C209.214 439.273 208.3 439.595 207.357 439.602C206.414 439.608 205.495 439.299 204.748 438.723C204 438.147 203.466 437.337 203.231 436.423Z" fill="#FF592C" stroke="#232323" stroke-miterlimit="10"/>
<path d="M205.98 364.883H222.242" stroke="#232323" stroke-miterlimit="10"/>
<path d="M194.007 354.431H202.3" stroke="#232323" stroke-miterlimit="10"/>
<path d="M289.279 248.427C296.063 252.495 300.294 259.798 299.279 267.269C298.432 273.541 292.339 276.111 292.325 281.704C292.325 288.936 298.461 293.414 297.967 300.688C297.304 309.374 287.459 311.366 281.437 318.823C276.229 325.637 273.042 334.783 272.241 343.326C270.157 342.55 267.981 342.047 265.768 341.829C262.171 341.928 249.492 275.589 261.353 255.546C267.911 244.43 284.117 245.362 289.279 248.427Z" stroke="#FBFBFB" stroke-miterlimit="10"/>
<path d="M266.966 341.182C266.966 341.182 262.002 322.821 266.049 314.176C270.972 303.64 278.969 301.662 279.956 293.117C281.366 281.408 269.04 274.445 265.852 266.125C262.665 257.806 265.006 245.574 258.222 243.202C250.803 240.603 244.484 247.778 244.654 256.45C244.865 267.312 252.622 268.767 252.622 276.14C252.622 283.512 244.823 287.439 244.823 302.976C244.823 318.513 264.16 341.196 264.16 341.196L266.966 341.182Z" stroke="#FBFBFB" stroke-miterlimit="10"/>
<path d="M269.618 436.423L282.311 360.49C282.71 358.125 282.588 355.702 281.954 353.39C281.321 351.077 280.191 348.931 278.644 347.101C277.097 345.27 275.17 343.8 272.997 342.793C270.824 341.785 268.458 341.264 266.064 341.267C263.691 341.268 261.347 341.783 259.192 342.775C257.036 343.768 255.12 345.215 253.575 347.017C252.029 348.82 250.891 350.935 250.237 353.219C249.584 355.503 249.43 357.901 249.788 360.25L261.353 436.366C261.554 437.311 262.07 438.158 262.818 438.769C263.565 439.379 264.498 439.715 265.463 439.722C266.427 439.729 267.365 439.405 268.12 438.805C268.876 438.205 269.404 437.364 269.618 436.423Z" fill="#FF592C" stroke="#232323" stroke-miterlimit="10"/>
<path d="M301.69 231.097C301.69 231.097 296.444 241.055 290.294 252.283C287.657 257.043 285.09 261.45 285.09 263.795C285.09 268.131 288.827 268.767 293.059 268.767H305.752" fill="#FBFBFB"/>
<path d="M301.69 231.097C301.69 231.097 296.444 241.055 290.294 252.283C287.657 257.043 285.09 261.45 285.09 263.795C285.09 268.131 288.827 268.767 293.059 268.767H305.752" stroke="#232323" stroke-miterlimit="10"/>
<path d="M365.031 307.383C400.824 307.383 429.839 278.325 429.839 242.481C429.839 206.637 400.824 177.58 365.031 177.58C329.239 177.58 300.224 206.637 300.224 242.481C300.224 278.325 329.239 307.383 365.031 307.383Z" fill="#FBFBFB" stroke="#232323" stroke-miterlimit="10"/>
<path d="M333.805 253.752C340.862 253.752 346.583 248.023 346.583 240.956C346.583 233.888 340.862 228.159 333.805 228.159C326.747 228.159 321.026 233.888 321.026 240.956C321.026 248.023 326.747 253.752 333.805 253.752Z" stroke="#232323" stroke-miterlimit="10"/>
<mask id="mask0" mask-type="alpha" maskUnits="userSpaceOnUse" x="321" y="228" width="26" height="26">
<path d="M333.805 253.752C340.862 253.752 346.583 248.023 346.583 240.956C346.583 233.888 340.862 228.159 333.805 228.159C326.747 228.159 321.026 233.888 321.026 240.956C321.026 248.023 326.747 253.752 333.805 253.752Z" fill="#232323"/>
</mask>
<g mask="url(#mask0)">
<path d="M332.822 218.912L310.361 219.47L311.437 262.931L333.898 262.374L332.822 218.912Z" fill="#1D1E1C"/>
</g>
<path d="M396.958 247.621L396.959 247.621C401.481 249.501 403.609 252.885 404.523 256.97C405.445 261.09 405.123 265.89 404.731 270.532C404.702 270.866 404.674 271.2 404.645 271.533C404.281 275.77 403.931 279.847 404.604 282.927C404.97 284.605 405.651 286.045 406.844 287.061C408.042 288.081 409.692 288.62 411.889 288.62C430.108 288.62 449.911 267.335 446.498 230.953L446.498 230.952C444.986 215.347 440.072 207.581 434.323 202.455C431.759 200.167 429.036 198.414 426.429 196.734C426.134 196.544 425.84 196.355 425.547 196.166C422.666 194.3 419.965 192.462 417.718 189.987C415.462 187.503 413.734 184.686 412.196 181.783C411.428 180.331 410.709 178.862 409.996 177.403L409.978 177.365C409.272 175.921 408.571 174.485 407.836 173.099C404.869 167.504 401.302 162.6 394.375 160.744C386.298 158.573 379.757 159.561 374.084 161.29C371.817 161.982 369.681 162.794 367.653 163.565C367.154 163.755 366.661 163.943 366.174 164.125C363.698 165.053 361.381 165.856 359.11 166.257L359.11 166.257C352.96 167.345 347.643 167.232 341.928 167.111L341.865 167.109C336.129 166.987 330.004 166.862 322.316 167.963C314.946 168.973 306.263 171.571 299.409 176.557C292.537 181.556 287.5 188.963 287.5 199.532C287.5 205.164 290.182 209.936 293.743 213.289C297.294 216.633 301.776 218.62 305.461 218.62C314.078 218.62 320.773 214.986 327.028 211.592C328.415 210.839 329.78 210.098 331.14 209.411C334.908 207.508 338.641 206.006 342.729 205.706C346.806 205.406 351.279 206.298 356.525 209.261C364.558 213.824 367.297 222.536 368.941 230.816C369.257 232.407 369.533 233.992 369.801 235.524C370.222 237.933 370.62 240.212 371.112 242.184C371.517 243.809 371.995 245.269 372.621 246.467C373.248 247.667 374.039 248.634 375.083 249.231C379.038 251.496 383.065 250.314 386.754 249.033C387.053 248.93 387.349 248.825 387.643 248.722C389.193 248.176 390.681 247.652 392.132 247.357C393.846 247.008 395.449 246.992 396.958 247.621Z" fill="#FBFBFB" stroke="#232323" stroke-miterlimit="10"/>
<path d="M321 290C328.279 288.551 335.522 284.799 340.518 279.303" stroke="#232323" stroke-miterlimit="10"/>
<path d="M326.387 318.922L341.379 335.405L364.58 309.021L387.965 334.53L404.41 317.03M364.58 309.148V390.405" stroke="#FBFBFB" stroke-miterlimit="10"/>
<path d="M324.666 218.978C324.666 218.978 337.501 214.134 347.599 221.93" stroke="#232323" stroke-miterlimit="10"/>
<path d="M133.522 137.89C133.522 138.949 132.665 139.806 131.61 139.806C130.555 139.806 129.698 138.949 129.698 137.89C129.698 136.832 130.555 135.975 131.61 135.975C132.665 135.975 133.522 136.832 133.522 137.89Z" fill="#FBFBFB" stroke="#FBFBFB"/>
<path d="M225.241 75.7291C225.241 76.7876 224.384 77.6444 223.329 77.6444C222.274 77.6444 221.417 76.7876 221.417 75.7291C221.417 74.6707 222.274 73.8138 223.329 73.8138C224.384 73.8138 225.241 74.6707 225.241 75.7291Z" fill="#FBFBFB" stroke="#FBFBFB"/>
<path d="M224.964 207.188C226.486 206.813 227.781 206.106 228.794 205.093C229.876 204.011 230.61 202.605 230.963 200.943C231.297 202.602 232.004 204.006 233.064 205.089C234.062 206.108 235.349 206.817 236.875 207.192C235.348 207.566 234.061 208.275 233.061 209.294C232.01 210.365 231.302 211.751 230.957 213.387C230.606 211.741 229.884 210.351 228.816 209.28C227.802 208.264 226.501 207.559 224.964 207.188Z" fill="#FBFBFB" stroke="#FBFBFB"/>
<path d="M276.77 135.513C278.637 137.415 281.156 138.633 284.211 139.084C281.151 139.534 278.631 140.752 276.764 142.655C274.716 144.742 273.496 147.609 273.178 151.077C272.854 147.59 271.606 144.72 269.537 142.637C267.654 140.741 265.125 139.531 262.081 139.083C265.126 138.632 267.654 137.415 269.537 135.515C271.606 133.428 272.854 130.558 273.178 127.085C273.496 130.556 274.719 133.425 276.77 135.513Z" fill="#FBFBFB" stroke="#FBFBFB"/>
<path d="M434.789 323.287C417.103 323.287 407.639 338.823 407.639 351.733C407.639 358.089 408.006 371.083 408.006 378.922C408.006 389.671 403.535 394.191 392.802 394.191C372.238 394.191 357.387 365.151 292.015 365.151L292.762 448C292.762 448 410.657 448 424.366 448C438.076 448 462.842 442.228 462.842 406.338V352.665C462.842 342.128 455.931 323.287 434.789 323.287Z" fill="#FBFBFB" stroke="#232323" stroke-miterlimit="10"/>
<path d="M153.048 229.501C153.048 229.501 154.741 239.247 158.309 244.43C162.865 251.083 166.884 251.408 168.831 255.292C170.777 259.176 168.337 265.843 161.68 267.1C159.678 267.54 157.602 267.514 155.612 267.024C153.621 266.534 151.77 265.594 150.199 264.275" fill="#FBFBFB"/>
<path d="M153.048 229.501C153.048 229.501 154.741 239.247 158.309 244.43C162.865 251.083 166.884 251.408 168.831 255.292C170.777 259.176 168.337 265.843 161.68 267.1C159.678 267.54 157.602 267.514 155.612 267.024C153.621 266.534 151.77 265.594 150.199 264.275" stroke="#232323" stroke-miterlimit="10"/>
<path d="M89.7072 305.786C125.5 305.786 154.515 276.729 154.515 240.885C154.515 205.041 125.5 175.984 89.7072 175.984C53.9149 175.984 24.8994 205.041 24.8994 240.885C24.8994 276.729 53.9149 305.786 89.7072 305.786Z" fill="#FBFBFB" stroke="#232323" stroke-miterlimit="10"/>
<path d="M120.933 252.156C127.991 252.156 133.712 246.427 133.712 239.36C133.712 232.292 127.991 226.563 120.933 226.563C113.876 226.563 108.155 232.292 108.155 239.36C108.155 246.427 113.876 252.156 120.933 252.156Z" stroke="#232323" stroke-miterlimit="10"/>
<mask id="mask1" mask-type="alpha" maskUnits="userSpaceOnUse" x="108" y="226" width="26" height="27">
<path d="M120.933 252.156C127.991 252.156 133.712 246.427 133.712 239.36C133.712 232.292 127.991 226.563 120.933 226.563C113.876 226.563 108.155 232.292 108.155 239.36C108.155 246.427 113.876 252.156 120.933 252.156Z" fill="#232323"/>
</mask>
<g mask="url(#mask1)">
<path d="M120.894 260.79L143.354 261.347L144.43 217.886L121.97 217.328L120.894 260.79Z" fill="#1D1E1C"/>
</g>
<path d="M148.21 373.838C148.21 343.131 104.728 338.527 89.707 307.001C56.7601 307.001 12.0928 345.222 12.0928 369.473C12.0928 398.202 12.0928 420.353 12.0928 447.5L148.055 447C148.055 447 148.21 410.406 148.21 373.838Z" fill="#FBFBFB" stroke="#232323" stroke-miterlimit="10"/>
<path d="M235.684 411.507C235.518 418.996 232.431 426.122 227.083 431.359C221.736 436.597 214.554 439.529 207.074 439.529C199.594 439.529 192.412 436.597 187.065 431.359C181.717 426.122 178.63 418.996 178.464 411.507C178.464 406.592 178.267 373.372 178.267 359.713C178.267 352.821 181.384 347.835 186.729 347.835C191.355 347.835 194.726 351.959 194.726 359.713C194.726 362.736 194.853 370.278 194.853 372.425C194.853 380.321 202.018 382.792 207.053 382.792C210.817 382.789 214.546 383.529 218.024 384.971C221.502 386.414 224.661 388.529 227.321 391.197C229.981 393.865 232.089 397.032 233.524 400.517C234.959 404.003 235.693 407.737 235.684 411.507Z" fill="#FBFBFB" stroke="#232323" stroke-miterlimit="10"/>
<path d="M235.19 411.112C235.19 418.709 238.203 425.994 243.567 431.366C248.931 436.738 256.206 439.756 263.792 439.756C271.378 439.756 278.654 436.738 284.018 431.366C289.382 425.994 292.395 418.709 292.395 411.112C292.395 406.211 292.593 372.976 292.593 359.332C292.593 352.425 289.49 347.439 284.13 347.439C279.504 347.439 276.133 351.578 276.133 359.332C276.133 362.354 276.006 369.897 276.006 372.044C276.006 379.939 268.842 382.411 263.807 382.411C260.044 382.409 256.319 383.151 252.843 384.593C249.368 386.035 246.21 388.15 243.552 390.816C240.894 393.482 238.787 396.647 237.352 400.129C235.917 403.612 235.182 407.344 235.19 411.112Z" fill="#FBFBFB" stroke="#232323" stroke-miterlimit="10"/>
<path d="M33.4891 347.298C26.1293 347.468 19.1337 350.54 14.0214 355.844C8.90904 361.149 6.09267 368.259 6.18378 375.631V412.355C6.18378 421.535 7.59418 448 29.8362 448H178.295V378.484C133.388 378.484 92.0489 410.857 71.3301 410.857C62.7126 410.857 58.298 405.052 58.298 397.326V347.157C58.298 337.496 45.816 347.298 33.4891 347.298Z" fill="#FBFBFB" stroke="#232323" stroke-miterlimit="10"/>
<path d="M89.9749 232.806C82.6408 238.809 74.5734 240.857 74.5734 247.156C74.5734 255.701 90.4545 253.865 91.7379 265.913C92.9791 277.637 85.5181 281.125 85.5181 290.094C85.5181 309.727 118.902 314.558 118.902 341.959C118.902 364.459 93.6279 387.157 63.2902 387.157C26.9865 387.157 6.67676 364.134 6.67676 339.374C6.67676 314.614 23.2207 307.439 26.5352 290.052C29.7509 273.173 21.5565 257.75 21.5565 236.224C21.5565 203.074 46.0128 176.902 78.5507 174.656C100.948 173.159 110.99 177.34 123.105 183.131C135.221 188.922 144.67 180.899 147.844 189.105C150.664 196.407 138.916 207.665 127.322 207.552C110.651 207.382 102.429 197.665 96.8154 201.746C89.0017 207.354 101.54 223.328 89.9749 232.806Z" fill="#FBFBFB" stroke="#232323" stroke-miterlimit="10"/>
<path d="M75.0107 217.001C74.6581 225.857 53.2342 231.648 54.2497 242.891C55.2652 254.134 68.8755 257.199 70.2436 270.49C71.6117 283.781 51.9084 292.298 52.8816 306.62C53.8548 320.942 79.0868 329.106 77.3802 351.253C75.9698 369.29 56.9718 373.061 56.9718 373.061" stroke="#232323" stroke-miterlimit="10"/>
<path d="M178.294 378.484C172.286 381.842 167.299 386.767 163.862 392.735C160.425 398.704 158.667 405.494 158.774 412.383C158.774 434.332 178.294 446.578 178.294 446.578" stroke="#232323" stroke-miterlimit="10"/>
<path d="M293.157 445.49C293.157 445.49 314.765 435.829 314.765 405.391C314.765 378.117 292.354 365.688 292.354 365.688" stroke="#232323" stroke-miterlimit="10"/>
<path d="M382 272.675C382 272.675 396.273 271.729 397.867 260.966C399.531 249.751 389.941 248 389.941 248" stroke="#232323" stroke-miterlimit="10"/>
<path d="M250.183 355.038H258.165" stroke="#232323" stroke-miterlimit="10"/>
<path d="M259.082 371.945H275.979" stroke="#232323" stroke-miterlimit="10"/>
<path d="M65.6882 76.1034L59.3154 82.4854L87.2499 110.46L93.6226 104.078L65.6882 76.1034Z" stroke="#FBFBFB" stroke-miterlimit="10"/>
<path d="M155.296 47.4958L150.463 50.0048L191.51 129.307L196.343 126.798L155.296 47.4958Z" stroke="#FBFBFB" stroke-miterlimit="10"/>
<path d="M402.466 91.2877L398.391 86.1958L350.868 124.337L354.943 129.429L402.466 91.2877Z" stroke="#FBFBFB" stroke-miterlimit="10"/>
<path d="M308.786 47.1821L302.355 44.571L284.745 88.0671L291.176 90.6782L308.786 47.1821Z" stroke="#FBFBFB" stroke-miterlimit="10"/>
<path d="M204.993 396.323H231.621" stroke="#232323" stroke-miterlimit="10"/>
<path d="M204.993 426.903H230.86" stroke="#232323" stroke-miterlimit="10"/>
<path d="M205.529 411.733H234.598" stroke="#232323" stroke-miterlimit="10"/>
<path d="M265.429 426.903H240.408" stroke="#232323" stroke-miterlimit="10"/>
<path d="M265.429 396.323H239.562" stroke="#232323" stroke-miterlimit="10"/>
<path d="M264.893 411.493H235.839" stroke="#232323" stroke-miterlimit="10"/>
<path d="M133.5 288.5C126.222 287.04 119.219 283.202 114.22 277.707" stroke="#232323" stroke-miterlimit="10"/>
<path d="M130.073 217.354C130.073 217.354 117.238 212.509 107.14 220.306" stroke="#232323" stroke-miterlimit="10"/>
<path d="M0 447.5H464" stroke="#232323" stroke-miterlimit="10"/>
</g>
<defs>
<clipPath id="clip0">
<rect width="464" height="448" fill="white"/>
</clipPath>
</defs>
</svg>
