<svg width="942" height="228" viewBox="0 0 942 228" fill="none" xmlns="http://www.w3.org/2000/svg">
<path d="M185 215.467C226 124.967 309 39.9667 368 175.467C394.5 20.9674 492 25.9668 546 205.967C546 101.967 636 -6.53297 732 175.467C748 102.967 800 66.9668 852 45.9668" stroke="black" stroke-linecap="round" stroke-linejoin="round"/>
<path d="M4.5 222.467C-2.50004 138.967 126 19.4667 183 212.467" stroke="#FF592C" stroke-linecap="round" stroke-linejoin="round"/>
<path d="M271.448 129.16C246.977 140.839 224.074 168.269 205.855 200.345" stroke="black" stroke-linecap="round" stroke-linejoin="round"/>
<path d="M583 76.1148C609.937 48.3048 651.735 46.6739 697.486 98.9668" stroke="black" stroke-linecap="round" stroke-linejoin="round"/>
<circle cx="7" cy="220.967" r="7" fill="#FF592C"/>
<circle cx="187" cy="210.967" r="7" fill="#FF592C"/>
<circle cx="548" cy="206.967" r="7" fill="black"/>
<g clip-path="url(#clip0)">
<path d="M174.345 154.274C174.345 154.274 162.171 161.188 168.91 173.312C162.133 161.12 149.872 167.877 149.872 167.877C149.872 167.877 162.47 161.727 155.307 148.838C162.47 161.727 174.345 154.274 174.345 154.274Z" fill="#FF592C"/>
</g>
<g clip-path="url(#clip1)">
<path d="M557.46 141.898C557.46 141.898 552.906 161.252 572.039 165.94C552.799 161.226 547.997 180.519 547.997 180.519C547.997 180.519 553.756 161.461 533.418 156.477C553.756 161.461 557.46 141.898 557.46 141.898Z" fill="#1D1D1B"/>
</g>
<path d="M881.543 36.1399C881.543 36.1399 872.043 36.2578 872.076 46.2837C872.043 36.1989 862.543 36.1399 862.543 36.1399C862.543 36.1399 872.045 36.6707 872.01 25.9961C872.1 36.6707 881.543 36.1399 881.543 36.1399Z" fill="#1D1D1B"/>
<path d="M911.033 20.8892C911.033 20.8892 901.534 21.0071 901.566 31.0327C901.533 20.9481 892.033 20.8892 892.033 20.8892C892.033 20.8892 901.535 21.4199 901.5 10.7456C901.59 21.4199 911.033 20.8892 911.033 20.8892Z" fill="#1D1D1B"/>
<path d="M941.033 10.1435C941.033 10.1435 931.534 10.2615 931.566 20.2871C931.533 10.2025 922.033 10.1435 922.033 10.1435C922.033 10.1435 931.535 10.6743 931.5 0C931.535 10.6743 941.033 10.1435 941.033 10.1435Z" fill="#1D1D1B"/>
<path d="M483.332 149.667C485.724 149.667 487.664 147.581 487.664 145.009C487.664 142.436 485.724 140.351 483.332 140.351C480.939 140.351 479 142.436 479 145.009C479 147.581 480.939 149.667 483.332 149.667Z" fill="#1D1D1B"/>
<defs>
<clipPath id="clip0">
<rect width="28" height="28" fill="white" transform="matrix(0.886108 -0.463479 0.463476 0.88611 143.214 155.159)"/>
</clipPath>
<clipPath id="clip1">
<rect width="39.7634" height="39.7634" fill="white" transform="matrix(0.262539 -0.964921 0.964921 0.262541 528.324 175.173)"/>
</clipPath>
</defs>
</svg>
