<svg width="96" height="104" viewBox="0 0 96 104" fill="none" xmlns="http://www.w3.org/2000/svg">
<path fill-rule="evenodd" clip-rule="evenodd" d="M20.5269 12.9095H35.2404C43.368 12.9095 44.5631 18.1504 44.5631 21.053C44.5631 23.9556 42.5142 27.9252 36.8797 27.9252H20.5269V12.9095ZM34.7098 41.0012C45.3603 41.0012 52.9292 31.468 52.9292 20.7116C52.9292 10.5233 46.1018 0.116709 31.6236 0.00271047L0 0V12.9095H12.1885V45.7346H0V58.6441H12.1885V70H20.5267V58.6441H40.7195V45.7346H20.5267V41.0012H34.7098Z" fill="#FBFBFB"/>
<path fill-rule="evenodd" clip-rule="evenodd" d="M95.9967 79.2047C95.9967 68.1788 88.0934 64.5499 79.8838 63.8743C74.6312 63.4419 70.5748 63.2078 66.5275 62.7852C62.1002 62.323 57.3019 60.4082 57.3019 56.5065C57.3019 51.8765 62.8436 50.3495 67.1382 50.3495C81.5855 50.3495 90.2016 56.5423 90.2016 56.5423V44.9445C86.1606 41.8785 78.5694 39.6996 78.5694 39.6996V34H71.6079V39.6996H67.8784V34H60.9169V39.9421C54.8568 42.5149 49.33 46.6066 49.33 56.409C49.33 67.4351 59.4111 72.3172 68.0116 73.0726C74.0825 73.6058 78.9415 73.6266 82.3122 74.1389C85.8198 74.6723 87.902 75.9872 87.902 79.671C87.902 84.3291 82.8957 85.5264 76.5312 85.5264C60.8814 85.5264 51.988 79.9737 51.988 79.9737V91.5714C55.7012 94.6374 62.2644 95.522 62.2644 95.522V103.825H69.2259V96.1762H72.9555V104H79.9169V96.1762C90.137 95.2017 95.9967 88.6097 95.9967 79.2047Z" fill="#FBFBFB"/>
</svg>
