<svg width="131" height="166" viewBox="0 0 131 166" fill="none" xmlns="http://www.w3.org/2000/svg">
<path d="M59.7522 164.84L37.0929 165.181C36.8234 145.799 1.63954 118.594 1.02858 76.826C0.489505 41.2608 7.69519 21.4465 12.5469 12.3844C16.3025 5.37205 20.2557 1.1107 27.4973 1.00282C35.6195 0.876959 40.7946 5.33609 43.0767 19.9901C50.6597 68.6089 69.258 102.844 59.7522 164.84Z" fill="white" stroke="#1D1D1B" stroke-miterlimit="10"/>
<path d="M54.4845 165.028C47.7519 151.261 43.2956 125.314 40.8663 103.437C38.1709 79.2892 36.32 44.1915 34.4153 21.806C33.6965 13.4272 30.9293 10.1008 26.8682 10.0469C22.2501 9.99291 19.6445 14.6498 17.9195 21.1767C15.9608 28.6026 7.51528 56.616 10.3185 85.5643C13.4876 118.44 42.7688 144.061 45.7612 165.028" stroke="#1D1D1B" stroke-miterlimit="10"/>
<path d="M71.6299 164.84L94.2892 165.181C94.5767 145.816 129.761 118.594 130.371 76.8257C130.893 41.2606 123.705 21.4642 118.835 12.3841C115.08 5.3718 111.126 1.11046 103.885 1.00258C95.7627 0.876714 90.5875 5.33584 88.3054 19.9898C80.7403 68.6087 62.1242 102.843 71.6299 164.84Z" fill="white" stroke="#1D1D1B" stroke-miterlimit="10"/>
<path d="M76.8975 165.028C83.6301 151.261 88.0864 125.314 90.5157 103.437C93.2111 79.2892 95.0619 44.1915 96.9667 21.806C97.6854 13.4272 100.453 10.1008 104.514 10.0469C109.132 9.99291 111.737 14.6498 113.462 21.1767C115.439 28.6026 123.867 56.616 121.081 85.5643C117.912 118.44 88.6311 144.061 85.6232 165.028" stroke="#1D1D1B" stroke-miterlimit="10"/>
</svg>
