<svg width="451" height="474" viewBox="0 0 451 474" fill="none" xmlns="http://www.w3.org/2000/svg" xmlns:xlink="http://www.w3.org/1999/xlink">
<ellipse cx="418" cy="405.676" rx="11" ry="10.9947" fill="black"/>
<mask id="mask0" mask-type="alpha" maskUnits="userSpaceOnUse" x="36" y="5" width="360" height="455">
<rect x="36" y="5" width="360" height="454.781" fill="#C4C4C4"/>
</mask>
<g mask="url(#mask0)">
<path fill-rule="evenodd" clip-rule="evenodd" d="M329.539 28.9885H108.461C82.3863 28.9885 61.2482 50.1164 61.2482 76.1789V115.13C60.0066 115.13 59 116.136 59 117.378V136.851C59 138.093 60.0066 139.099 61.2482 139.099V161.571C60.0066 161.571 59 162.578 59 163.819V205.764C59 207.006 60.0066 208.012 61.2482 208.012V219.997C60.0066 219.997 59 221.004 59 222.245V264.19C59 265.432 60.0066 266.439 61.2482 266.439V619.992H64.9953V76.1789C64.9953 52.1848 84.4557 32.7338 108.461 32.7338H329.539C353.544 32.7338 373.005 52.1848 373.005 76.1789V619.992H376.752V251.457C377.993 251.457 379 250.451 379 249.209V178.8C379 177.559 377.993 176.552 376.752 176.552V76.1789C376.752 50.1164 355.614 28.9885 329.539 28.9885Z" fill="#ABABAB"/>
<mask id="mask1" mask-type="alpha" maskUnits="userSpaceOnUse" x="78" y="46" width="282" height="574">
<path d="M78.4847 76.1789V619.992H359.515V76.1789C359.515 59.6249 346.101 46.2168 329.539 46.2168H108.461C91.8993 46.2168 78.4847 59.6249 78.4847 76.1789Z" fill="#EADDCF"/>
</mask>
<g mask="url(#mask1)">
<path d="M359.515 46.2168H78.4847V624.112H359.515V46.2168Z" fill="url(#pattern0)"/>
<path d="M359.515 46.2168H78.4847V619.992H359.515V46.2168Z" fill="url(#pattern1)"/>
</g>
<path d="M359.515 76.179C359.515 59.6249 346.101 46.2169 329.539 46.2169H302.934C299.623 46.2169 296.939 48.8998 296.939 52.2093V52.9583C296.939 62.0968 289.595 69.4375 280.452 69.4375H157.548C148.405 69.4375 141.061 62.0968 141.061 52.9583V52.2093C141.061 48.8998 138.377 46.2169 135.066 46.2169H108.461C91.8993 46.2169 78.4848 59.6249 78.4848 76.179V619.992H64.9954V76.179C64.9954 52.2093 84.4801 32.7339 108.461 32.7339H329.539C353.52 32.7339 373.005 52.2093 373.005 76.179V619.992H359.515V76.179Z" fill="#1F1F1F"/>
<path d="M257.97 52.9582C257.97 55.854 255.621 58.2016 252.724 58.2016C249.827 58.2016 247.478 55.854 247.478 52.9582C247.478 50.0624 249.827 47.7148 252.724 47.7148C255.621 47.7148 257.97 50.0624 257.97 52.9582Z" fill="#ABABAB"/>
<path d="M202.138 50.7111C200.897 50.7111 199.89 51.7171 199.89 52.9582C199.89 54.1993 200.897 55.2054 202.138 55.2054H235.113C236.354 55.2054 237.361 54.1993 237.361 52.9582C237.361 51.7171 236.354 50.7111 235.113 50.7111H202.138Z" fill="#ABABAB"/>
</g>
<g clip-path="url(#clip0)">
<path d="M451 31.8564C451 31.8564 420 32.1407 420 62.8415C420 31.9701 389 31.8564 389 31.8564C389 31.8564 420 33.5052 420 0.871338C420 33.5052 451 31.8564 451 31.8564Z" fill="#1D1D1B"/>
</g>
<g clip-path="url(#clip1)">
<path d="M43 334.711C43 334.711 29 334.839 29 348.704C29 334.762 15 334.711 15 334.711C15 334.711 29 335.455 29 320.717C29 335.455 43 334.711 43 334.711Z" fill="#1D1D1B"/>
</g>
<rect y="459" width="437" height="1" fill="#1D1D1B"/>
<defs>
<pattern id="pattern0" patternContentUnits="objectBoundingBox" width="1" height="1">
<use xlink:href="#image0" transform="translate(0 -0.0265009) scale(0.00133333 0.0006484)"/>
</pattern>
<pattern id="pattern1" patternContentUnits="objectBoundingBox" width="1" height="1">
<use xlink:href="#image0" transform="translate(-0.000615801) scale(0.00133498 0.000653545)"/>
</pattern>
<clipPath id="clip0">
<rect width="62" height="61.9701" fill="white" transform="translate(389 0.871338)"/>
</clipPath>
<clipPath id="clip1">
<rect width="28" height="27.9865" fill="white" transform="translate(15 320.717)"/>
</clipPath>
</defs>
</svg>
