<svg width="280" viewBox="0 0 280 672" fill="none" xmlns="http://www.w3.org/2000/svg">
<g clip-path="url(#clip0)">
<path d="M57.2693 0C22.9606 0 2 23.5142 2 59.8927C2 116.095 20.5622 136.924 20.5622 181C20.5622 213.793 0 249.272 0 313.171C0 360 2.31285 398.5 2.31285 424.31C2.31285 467.332 14.5 480.561 14.5 506.5C14.5 536.446 5.54558 546.837 5.54558 589.859C5.54558 648.38 34.6402 672 71.6602 672C117.648 672 97.3356 649.54 145.722 649.54C187.122 649.54 187.997 658.658 226.98 664.5C247 667.5 275.94 656.418 280 639.5C286 614.5 262.908 604.635 247 590C234.5 578.5 218.5 572 242.5 535C259.379 508.979 256.5 473.021 256.5 430C256.5 386.979 241.492 365.391 233.5 332.5C220.5 279 231.5 266.5 226.98 238C219.729 192.281 237.5 187.504 262.644 132.333C271 114 283.408 59.8927 274 34C262.644 2.74501 239.589 0 215.5 0C177.229 0 191.793 11.5 153 11.5C109.097 11.6054 112.852 0 57.2693 0Z" fill="#232323"/>
<path d="M229.285 26.3428L230.61 31.1721L226.165 32.3698L223.611 22.811L246.284 16.6138L247.48 20.9408L244.086 55.8281L239.689 57.0601L239.228 55.443L242.549 22.9273L242.623 22.2034L241.921 22.394L229.636 25.728L229.152 25.8593L229.285 26.3428Z" fill="#232323" stroke="#232323"/>
<path d="M41.5161 117.71L50.2155 126.316L50.2155 126.316L50.2185 126.319C52.0061 128.058 52.7935 130.009 52.7094 131.969C52.6249 133.938 51.6567 135.99 49.7923 137.906C47.9305 139.82 45.9078 140.812 43.9545 140.92C42.0093 141.028 40.0607 140.265 38.3236 138.526L38.3202 138.523L32.8024 133.105L32.4441 132.753L32.0938 133.113L24.5351 140.877L21.7024 138.042L41.5161 117.71ZM47.289 128.224L47.2813 128.216L47.2732 128.208L42.38 123.415L42.0235 123.066L41.6737 123.422L35.2188 129.986L34.8713 130.339L35.2217 130.69L40.0107 135.482C40.8754 136.348 41.9924 136.857 43.2136 136.827C44.4348 136.797 45.6966 136.231 46.8606 135.066C48.0293 133.896 48.5666 132.63 48.5815 131.41C48.5963 130.195 48.092 129.085 47.289 128.224Z" fill="#232323" stroke="#232323"/>
<path d="M46.3399 149.131L46.3399 149.131L46.3427 149.128L53.0057 142.356L53.0068 142.355C55.2771 140.033 57.726 138.942 60.1955 139.015C62.672 139.088 65.2645 140.335 67.8079 142.88C69.783 144.856 71.1154 147.205 71.3733 149.638C71.6275 152.037 70.8453 154.586 68.4734 157.03L65.6409 154.196C67.1253 152.687 67.5567 150.985 67.3426 149.414C67.1298 147.851 66.2848 146.45 65.2798 145.499C63.6662 143.939 62.0445 143.125 60.4583 143.082C58.8614 143.038 57.4064 143.776 56.1414 145.097C56.141 145.097 56.1406 145.098 56.1402 145.098L49.0631 152.389L49.0631 152.389L49.0607 152.391C47.7994 153.708 47.094 155.188 47.1523 156.78C47.2105 158.366 48.0239 159.964 49.5887 161.53L49.5938 161.535L49.599 161.54C50.5998 162.486 52.0248 163.274 53.5841 163.445C55.148 163.615 56.8188 163.159 58.2718 161.676L61.1044 164.511C58.7087 166.94 56.1839 167.774 53.7852 167.568C51.3573 167.359 48.989 166.079 46.9637 164.156C44.4752 161.561 43.2262 158.913 43.1283 156.39C43.0307 153.874 44.0749 151.398 46.3399 149.131Z" fill="#232323" stroke="#232323"/>
<path d="M62.5316 178.392L59.6057 175.548L79.6151 155.322L82.4489 158.158L62.5316 178.392Z" fill="#232323" stroke="#232323"/>
<path d="M207.899 36.2703L219.184 43.0465L217.355 46.0966L200.689 36.1059L202.49 33.1498L215.566 29.8143C215.566 29.8142 215.566 29.8141 215.566 29.8141C221.064 28.4387 223.642 27.7124 225.33 24.8986C226.111 23.6101 226.505 22.1642 226.262 20.7666C226.016 19.3541 225.134 18.0663 223.511 17.0919C221.75 16.0252 220.092 15.8832 218.605 16.4566C217.275 16.9693 216.142 18.0307 215.207 19.3663L211.977 17.4405C213.658 14.8784 215.753 13.3532 217.978 12.7722C220.323 12.16 222.876 12.58 225.339 14.0413C228.1 15.7167 229.588 17.8878 230.086 20.1251C230.585 22.3692 230.1 24.7334 228.815 26.8083L228.815 26.8082L228.812 26.8132C226.418 30.7793 222.725 31.877 217.067 33.1836L217.067 33.1836L217.063 33.1847L208.039 35.3555L206.851 35.6413L207.899 36.2703Z" fill="#232323" stroke="#232323"/>
<path d="M236.526 50.854L236.772 50.4293L236.352 50.1753L224.72 43.1401L226.394 40.3712L246.772 27.7429L249.892 29.5883L249.264 30.6171L231.058 41.9294L230.364 42.3605L231.063 42.7823L238.265 47.1239L238.693 47.3822L238.951 46.9536L242.769 40.6123L246.168 42.6948L242.346 49.0427L242.087 49.4733L242.519 49.7303L245.298 51.3841L243.47 54.4338L240.688 52.7784L240.258 52.5229L240.002 52.952L237.051 57.9009L233.647 55.8154L236.526 50.854Z" fill="#232323" stroke="#232323"/>
<path d="M207.899 36.2703L219.184 43.0465L217.355 46.0966L200.689 36.1059L202.49 33.1498L215.566 29.8143C215.566 29.8142 215.566 29.8141 215.566 29.8141C221.064 28.4387 223.642 27.7124 225.33 24.8986C226.111 23.6101 226.505 22.1642 226.262 20.7666C226.016 19.3541 225.134 18.0663 223.511 17.0919C221.75 16.0252 220.092 15.8832 218.605 16.4566C217.275 16.9693 216.142 18.0307 215.207 19.3663L211.977 17.4405C213.658 14.8784 215.753 13.3532 217.978 12.7722C220.323 12.16 222.876 12.58 225.339 14.0413C228.1 15.7167 229.588 17.8878 230.086 20.1251C230.585 22.3692 230.1 24.7334 228.815 26.8083L228.815 26.8082L228.812 26.8132C226.418 30.7793 222.725 31.877 217.067 33.1836L217.067 33.1836L217.063 33.1847L208.039 35.3555L206.851 35.6413L207.899 36.2703Z" fill="#FBFBFB" stroke="#FBFBFB"/>
<path d="M236.526 50.854L236.772 50.4293L236.352 50.1753L224.72 43.1401L226.394 40.3712L246.772 27.7429L249.892 29.5883L249.264 30.6171L231.058 41.9294L230.364 42.3605L231.063 42.7823L238.265 47.1239L238.693 47.3822L238.951 46.9536L242.769 40.6123L246.168 42.6948L242.346 49.0427L242.087 49.4733L242.519 49.7303L245.298 51.3841L243.47 54.4338L240.688 52.7784L240.258 52.5229L240.002 52.952L237.051 57.9009L233.647 55.8154L236.526 50.854Z" fill="#FBFBFB" stroke="#FBFBFB"/>
<path d="M215.158 134.642L216.24 138.586L212.696 139.541L210.611 131.735L229.347 126.614L230.317 130.125L227.496 159.129L223.967 160.118L223.609 158.865L226.376 131.782L226.45 131.058L225.747 131.248L215.509 134.027L215.025 134.158L215.158 134.642Z" fill="#FBFBFB" stroke="#FBFBFB"/>
<path d="M47.4416 125.007L52.601 133.706L52.601 133.706L52.6031 133.71C53.6679 135.472 53.886 137.186 53.4135 138.723C52.938 140.269 51.7418 141.704 49.8476 142.849C47.9565 143.992 46.1378 144.358 44.5653 144.04C43.0007 143.723 41.6089 142.714 40.5844 140.963L40.582 140.959L37.2737 135.429L37.0159 134.998L36.5861 135.257L28.9288 139.882L27.3259 137.143L47.4416 125.007ZM49.9844 134.547L49.979 134.537L49.9732 134.527L47.037 129.632L46.7803 129.204L46.3519 129.46L39.7649 133.393L39.3394 133.648L39.5897 134.075L42.442 138.948C42.967 139.845 43.7782 140.507 44.7942 140.746C45.8102 140.985 46.9688 140.787 48.167 140.085C49.3711 139.379 50.087 138.455 50.3626 137.45C50.637 136.449 50.4591 135.426 49.9844 134.547Z" fill="#FBFBFB" stroke="#FBFBFB"/>
<path d="M44.785 151.316L44.7851 151.316L44.7884 151.314L51.5871 147.257L51.5885 147.256C53.8934 145.87 56.0736 145.514 58.0219 146.085C59.9769 146.658 61.79 148.191 63.2977 150.767C64.4674 152.765 65.0398 154.92 64.7389 156.912C64.4458 158.853 63.3148 160.705 60.9553 162.159L59.3527 159.421C60.8412 158.507 61.5424 157.222 61.7012 155.905C61.8612 154.579 61.4688 153.252 60.8504 152.261C59.8716 150.652 58.7208 149.637 57.4241 149.26C56.1173 148.88 54.7643 149.177 53.4523 149.984C53.4518 149.985 53.4513 149.985 53.4508 149.985L46.2095 154.373L46.2095 154.373L46.2066 154.375C44.8991 155.18 44.0004 156.241 43.706 157.565C43.4127 158.883 43.7411 160.364 44.6797 161.968L44.6833 161.974L44.687 161.98C45.3026 162.966 46.2988 163.916 47.5402 164.389C48.7684 164.857 50.2115 164.847 51.6925 163.987L53.2954 166.725C50.8992 168.129 48.7381 168.255 46.8917 167.6C45.0014 166.929 43.375 165.414 42.1537 163.448C40.701 160.845 40.2594 158.468 40.706 156.439C41.1513 154.417 42.4971 152.658 44.785 151.316Z" fill="#FBFBFB" stroke="#FBFBFB"/>
<path d="M51.6656 178.134L49.9917 175.367L70.2408 163.358L71.8445 166.097L51.6656 178.134Z" fill="#FBFBFB" stroke="#FBFBFB"/>
<path d="M44.9623 608.827L22.6512 555.05C17.1431 541.76 23.4477 526.386 36.8505 520.827C50.2532 515.268 65.5781 521.645 71.0862 534.934L93.3973 588.711C98.9456 602.117 92.5629 617.453 79.2761 622.972C65.8734 628.531 50.5105 622.233 44.9623 608.827Z" stroke="#FBFBFB" stroke-miterlimit="10"/>
<path d="M57.7566 533.387L64.4622 549.575L61.5654 550.774L56.1777 537.833L47.6031 541.392L52.1946 552.596L49.2978 553.796L44.7062 542.592L35.8996 546.231L41.2873 559.173L38.3905 560.373L31.6848 544.186L57.7566 533.387Z" stroke="#FBFBFB"/>
<path d="M66.7372 555.022L67.9748 558.035L53.3543 579.217L73.2844 570.939L74.6024 574.185L48.6465 584.943L47.4089 581.929L62.0294 560.747L42.0993 569.025L40.7813 565.78L66.7372 555.022Z" stroke="#FBFBFB"/>
<path d="M60.0066 587.368L68.3493 583.889C74.2589 581.449 79.2922 583.796 81.8879 590.171C84.0019 595.154 83.1366 600.911 77.189 603.429L76.9571 603.509L75.6391 600.264L75.8711 600.183C79.5395 598.586 80.3513 594.926 78.913 591.333C77.1959 587.121 73.7616 585.454 69.9772 587.092L61.4025 590.651C57.54 592.251 56.028 595.764 57.8232 600.013C59.0608 603.027 61.447 604.667 64.7095 604.9L68.6099 603.222L66.1748 597.311L68.9557 596.151L72.7088 605.308L59.538 610.786L58.7798 608.97L61.5874 606.762C58.5144 606.139 56.126 604.304 54.7301 601.021C52.2548 594.994 54.2909 589.805 60.0066 587.368Z" stroke="#FBFBFB"/>
<path d="M112.543 180.352C123.007 180.352 131.491 171.862 131.491 161.389C131.491 150.917 123.007 142.427 112.543 142.427C102.078 142.427 93.5947 150.917 93.5947 161.389C93.5947 171.862 102.078 180.352 112.543 180.352Z" fill="#232323" stroke="#FBFBFB" stroke-miterlimit="10"/>
<mask id="mask0" mask-type="alpha" maskUnits="userSpaceOnUse" x="93" y="141" width="39" height="40">
<path d="M112.543 180.352C123.007 180.352 131.491 171.862 131.491 161.389C131.491 150.917 123.007 142.427 112.543 142.427C102.078 142.427 93.5947 150.917 93.5947 161.389C93.5947 171.862 102.078 180.352 112.543 180.352Z" fill="#232323" stroke="#FBFBFB" stroke-miterlimit="10"/>
</mask>
<g mask="url(#mask0)">
<path d="M111.118 128.688L77.8125 129.512L79.4018 193.882L112.707 193.058L111.118 128.688Z" fill="#FBFBFB"/>
</g>
<path d="M150.751 180.352C161.215 180.352 169.699 171.862 169.699 161.389C169.699 150.917 161.215 142.427 150.751 142.427C140.286 142.427 131.803 150.917 131.803 161.389C131.803 171.862 140.286 180.352 150.751 180.352Z" fill="#232323" stroke="#FBFBFB" stroke-miterlimit="10"/>
<mask id="mask1" mask-type="alpha" maskUnits="userSpaceOnUse" x="131" y="141" width="40" height="40">
<path d="M150.751 180.352C161.215 180.352 169.699 171.862 169.699 161.389C169.699 150.917 161.215 142.427 150.751 142.427C140.286 142.427 131.803 150.917 131.803 161.389C131.803 171.862 140.286 180.352 150.751 180.352Z" fill="#232323" stroke="#FBFBFB" stroke-miterlimit="10"/>
</mask>
<g mask="url(#mask1)">
<path d="M149.222 128.69L115.917 129.514L117.506 193.884L150.811 193.06L149.222 128.69Z" fill="#FBFBFB"/>
</g>
<path d="M42 625H273" stroke="#FBFBFB" stroke-miterlimit="10"/>
<path d="M26.3315 59.6681C28.1714 59.6681 29.663 58.1754 29.663 56.3341C29.663 54.4927 28.1714 53 26.3315 53C24.4916 53 23 54.4927 23 56.3341C23 58.1754 24.4916 59.6681 26.3315 59.6681Z" stroke="#FBFBFB" stroke-miterlimit="10"/>
<path d="M11.3315 179.668C13.1714 179.668 14.663 178.175 14.663 176.334C14.663 174.493 13.1714 173 11.3315 173C9.49157 173 8 174.493 8 176.334C8 178.175 9.49157 179.668 11.3315 179.668Z" stroke="#FBFBFB" stroke-miterlimit="10"/>
<path d="M19.3315 320.668C21.1714 320.668 22.663 319.175 22.663 317.334C22.663 315.493 21.1714 314 19.3315 314C17.4916 314 16 315.493 16 317.334C16 319.175 17.4916 320.668 19.3315 320.668Z" stroke="#FBFBFB" stroke-miterlimit="10"/>
<path d="M238.332 493.668C240.171 493.668 241.663 492.175 241.663 490.334C241.663 488.493 240.171 487 238.332 487C236.492 487 235 488.493 235 490.334C235 492.175 236.492 493.668 238.332 493.668Z" stroke="#FBFBFB" stroke-miterlimit="10"/>
<path d="M163.07 59.6315L107.668 73.9876C104.904 68.1505 98.3489 64.9989 91.9034 66.6724C84.5549 68.5737 80.2417 76.0516 82.0376 83.3823C83.9352 90.7353 91.4065 95.0491 98.7326 93.2496C104.952 91.633 109.088 85.9296 108.965 79.7145L144.477 70.4704L147.511 82.3415L153.505 80.7818L152.062 75.236L156.25 74.1318L157.693 79.6776L161.982 78.5959L158.948 66.7248L164.491 65.279L163.07 59.6315ZM97.0279 86.4725C93.4157 87.3835 89.7197 85.2886 88.8105 81.6742C87.9013 78.0598 89.9959 74.3605 93.6081 73.4495C97.2203 72.5385 100.916 74.6334 101.826 78.2478C102.836 81.8846 100.64 85.5615 97.0279 86.4725Z" stroke="#FBFBFB" stroke-miterlimit="10"/>
<path d="M163.429 65.2585C165.001 65.605 166.557 64.6104 166.904 63.0369C167.25 61.4635 166.257 59.9071 164.685 59.5606C163.112 59.2141 161.557 60.2087 161.21 61.7822C160.863 63.3556 161.857 64.912 163.429 65.2585Z" stroke="#FBFBFB" stroke-miterlimit="10"/>
<path d="M189.654 491.106L216.306 541.743C211.309 545.806 209.643 552.891 212.767 558.83C216.306 565.498 224.531 568.103 231.298 564.56C237.961 561.018 240.564 552.787 237.024 546.014C234.005 540.284 227.55 537.575 221.512 539.138L204.438 506.631L215.265 500.9L212.35 495.482L207.249 498.191L205.271 494.336L210.372 491.627L208.29 487.668L197.463 493.399L194.756 488.293L189.654 491.106ZM230.882 549.348C232.652 552.683 231.402 556.746 228.071 558.413C224.739 560.184 220.679 558.83 219.013 555.6C217.243 552.266 218.597 548.202 221.824 546.535C225.052 544.764 229.112 546.014 230.882 549.348Z" fill="#232323" stroke="#FBFBFB" stroke-miterlimit="10"/>
<path d="M192.153 492.461C193.763 492.461 195.068 491.155 195.068 489.544C195.068 487.932 193.763 486.626 192.153 486.626C190.543 486.626 189.238 487.932 189.238 489.544C189.238 491.155 190.543 492.461 192.153 492.461Z" stroke="#FBFBFB" stroke-miterlimit="10"/>
<path d="M215.017 108.753L165.016 138.468C152.604 145.884 136.532 141.772 129.124 129.352C121.716 116.932 125.827 100.847 138.239 93.4314L188.24 63.7162C200.651 56.3005 216.723 60.4124 224.132 72.8324C231.54 85.2524 227.429 101.337 215.017 108.753Z" stroke="#FBFBFB" stroke-miterlimit="10"/>
<path d="M138.57 106.9L148.661 100.914C153.198 98.2193 157.258 99.4913 159.949 104.031C162.191 107.829 161.695 111.095 159.437 113.665L169.745 119.652L170.342 120.671L167.375 122.473L156.324 116.063L150.122 119.728L155.809 129.274L152.841 131.076L138.57 106.9ZM155.223 113.076C158.087 111.438 158.687 108.88 156.904 105.738C155.026 102.674 152.557 102.082 149.693 103.72L143.12 107.61L148.659 116.879L155.223 113.076Z" stroke="#FBFBFB"/>
<path d="M170.345 110.027L160.703 93.7232L163.67 91.9213L173.389 108.32C175.415 111.66 178.817 112.519 182.517 110.353C186.218 108.187 187.084 104.695 185.059 101.355L175.34 84.9561L178.307 83.1543L187.949 99.4583C191.168 104.835 189.259 110.057 184.076 113.124C178.978 116.199 173.564 115.404 170.345 110.027Z" stroke="#FBFBFB"/>
<path d="M192.572 96.7724L195.539 94.9706C198.083 99.2343 202.433 98.441 205.305 96.717C208.911 94.629 209.709 91.8285 208.359 89.6017C207.009 87.375 204.635 87.5776 200.199 88.3624L198.067 88.7633C192.648 89.8003 189.419 89.8315 187.255 86.1288C184.936 82.2362 186.431 77.6721 191.623 74.5189C196.531 71.5993 201.754 71.6772 205.199 77.4254L202.232 79.2272C199.834 75.2397 196.235 75.4962 193.268 77.2981C190.025 79.2472 188.881 82.0137 190.153 84.1456C191.503 86.3723 193.514 86.3086 197.786 85.4203L199.745 85.0024C204.811 84.0179 209.127 83.5702 211.438 87.5492C213.68 91.3468 212.607 96.0398 206.777 99.4792C202.033 102.502 196.016 102.521 192.572 96.7724Z" stroke="#FBFBFB"/>
<path d="M207.896 215.985H28.208V405.818H207.896V215.985Z" fill="#232323" stroke="#FBFBFB" stroke-miterlimit="10"/>
<path d="M189.357 396.223L189.357 225.352L37.6752 225.352L37.6752 396.223H189.357Z" fill="#232323" stroke="#FBFBFB" stroke-miterlimit="10"/>
<path d="M207.896 215.881H28.1045L76.7237 180.248H256.411L207.896 215.881Z" fill="#232323" stroke="#FBFBFB" stroke-miterlimit="10" stroke-linejoin="bevel"/>
<path d="M256.306 370.498L207.896 405.714V215.985L256.306 180.665V370.498Z" fill="#232323" stroke="#FBFBFB" stroke-miterlimit="10" stroke-linejoin="bevel"/>
<path d="M140.022 289.959C130.027 275.477 110.142 271.831 95.671 281.937C89.6326 286.104 85.4682 292.043 83.4901 298.503H77.9723C72.9751 292.46 64.1258 291.106 57.5669 295.69C50.6956 300.483 48.9258 309.964 53.7148 316.84C58.5038 323.717 67.9778 325.488 74.849 320.695C75.9942 319.862 77.0353 318.924 77.9723 317.882H83.4901C84.4271 320.8 85.7806 323.717 87.6545 326.426C97.649 340.908 117.534 344.555 132.005 334.448C146.476 324.342 150.12 304.442 140.022 289.959Z" fill="#232323" stroke="#FBFBFB" stroke-miterlimit="10"/>
<path d="M70.3721 304.546C70.3721 302.15 68.3941 300.17 65.9995 300.17C63.605 300.17 61.627 302.15 61.627 304.546C61.627 306.213 62.5639 307.672 63.9174 308.401V316.84H68.0817V308.401C69.4352 307.672 70.3721 306.213 70.3721 304.546Z" fill="#232323" stroke="#FBFBFB" stroke-miterlimit="10"/>
<path d="M100.564 299.545C103.497 299.545 105.874 297.166 105.874 294.231C105.874 291.297 103.497 288.918 100.564 288.918C97.6321 288.918 95.2549 291.297 95.2549 294.231C95.2549 297.166 97.6321 299.545 100.564 299.545Z" fill="#232323" stroke="#FBFBFB" stroke-miterlimit="10"/>
<path d="M114.099 299.545C117.031 299.545 119.408 297.166 119.408 294.231C119.408 291.297 117.031 288.918 114.099 288.918C111.166 288.918 108.789 291.297 108.789 294.231C108.789 297.166 111.166 299.545 114.099 299.545Z" fill="#232323" stroke="#FBFBFB" stroke-miterlimit="10"/>
<path d="M127.737 299.545C130.67 299.545 133.047 297.166 133.047 294.231C133.047 291.297 130.67 288.918 127.737 288.918C124.805 288.918 122.428 291.297 122.428 294.231C122.428 297.166 124.805 299.545 127.737 299.545Z" fill="#232323" stroke="#FBFBFB" stroke-miterlimit="10"/>
<path d="M100.564 313.611C103.497 313.611 105.874 311.231 105.874 308.297C105.874 305.362 103.497 302.983 100.564 302.983C97.6321 302.983 95.2549 305.362 95.2549 308.297C95.2549 311.231 97.6321 313.611 100.564 313.611Z" fill="#232323" stroke="#FBFBFB" stroke-miterlimit="10"/>
<path d="M114.099 313.611C117.031 313.611 119.408 311.231 119.408 308.297C119.408 305.362 117.031 302.983 114.099 302.983C111.166 302.983 108.789 305.362 108.789 308.297C108.789 311.231 111.166 313.611 114.099 313.611Z" fill="#232323" stroke="#FBFBFB" stroke-miterlimit="10"/>
<path d="M127.737 313.611C130.67 313.611 133.047 311.231 133.047 308.297C133.047 305.362 130.67 302.983 127.737 302.983C124.805 302.983 122.428 305.362 122.428 308.297C122.428 311.231 124.805 313.611 127.737 313.611Z" fill="#232323" stroke="#FBFBFB" stroke-miterlimit="10"/>
<path d="M100.564 327.572C103.497 327.572 105.874 325.193 105.874 322.258C105.874 319.324 103.497 316.945 100.564 316.945C97.6321 316.945 95.2549 319.324 95.2549 322.258C95.2549 325.193 97.6321 327.572 100.564 327.572Z" fill="#232323" stroke="#FBFBFB" stroke-miterlimit="10"/>
<path d="M114.099 327.572C117.031 327.572 119.408 325.193 119.408 322.258C119.408 319.324 117.031 316.945 114.099 316.945C111.166 316.945 108.789 319.324 108.789 322.258C108.789 325.193 111.166 327.572 114.099 327.572Z" fill="#232323" stroke="#FBFBFB" stroke-miterlimit="10"/>
<path d="M127.737 327.572C130.67 327.572 133.047 325.193 133.047 322.258C133.047 319.324 130.67 316.945 127.737 316.945C124.805 316.945 122.428 319.324 122.428 322.258C122.428 325.193 124.805 327.572 127.737 327.572Z" fill="#232323" stroke="#FBFBFB" stroke-miterlimit="10"/>
<path d="M192.8 238.802H184.783V266.621H192.8V238.802Z" fill="#232323" stroke="#FBFBFB" stroke-miterlimit="10"/>
<path d="M192.8 349.243H184.783V377.062H192.8V349.243Z" fill="#232323" stroke="#FBFBFB" stroke-miterlimit="10"/>
<path d="M95.7695 624.929C95.7695 583.566 95.7695 482.293 95.7695 466.561C95.7695 450.932 104.723 439.576 118.778 433.012C134.707 425.614 174.164 406.027 174.164 406.027H211.852L213.205 421.759" fill="#232323"/>
<path d="M95.7695 624.929C95.7695 583.566 95.7695 482.293 95.7695 466.561C95.7695 450.932 104.723 439.576 118.778 433.012C134.707 425.614 174.164 406.027 174.164 406.027H211.852L213.205 421.759" stroke="#FBFBFB" stroke-miterlimit="10"/>
<path d="M95.874 624.929H188.74V494.379C188.74 482.71 194.986 471.875 205.085 465.936L256.619 435.825C266.822 429.886 273.173 418.842 273.173 406.964V396.233V314.652C273.173 308.609 268.28 303.817 262.345 303.817C256.307 303.817 251.518 308.714 251.518 314.652V399.359V329.864C251.518 323.925 246.833 318.716 240.899 318.612C234.756 318.507 229.863 323.404 229.863 329.447V402.484V340.491C229.863 334.553 225.178 329.343 219.244 329.239C213.101 329.135 208.208 334.032 208.208 340.075V405.61L145.43 437.7C128.669 446.244 117.216 457.496 117.216 475.73" fill="#232323"/>
<path d="M95.874 624.929H188.74V494.379C188.74 482.71 194.986 471.875 205.085 465.936L256.619 435.825C266.822 429.886 273.173 418.842 273.173 406.964V396.233V314.652C273.173 308.609 268.28 303.817 262.345 303.817C256.307 303.817 251.518 308.714 251.518 314.652V399.359V329.864C251.518 323.925 246.833 318.716 240.899 318.612C234.756 318.507 229.863 323.404 229.863 329.447V402.484V340.491C229.863 334.553 225.178 329.343 219.244 329.239C213.101 329.135 208.208 334.032 208.208 340.075V405.61L145.43 437.7C128.669 446.244 117.216 457.496 117.216 475.73" stroke="#FBFBFB" stroke-miterlimit="10"/>
<path d="M95.7695 487.399H189.78" stroke="#FBFBFB" stroke-miterlimit="10"/>
<path d="M112.636 487.503C112.636 487.503 112.636 500.943 112.636 510.737C112.636 524.386 121.069 530.012 131.896 530.012C142.723 530.012 188.011 530.012 188.011 530.012" fill="#232323"/>
<path d="M112.636 487.503C112.636 487.503 112.636 500.943 112.636 510.737C112.636 524.386 121.069 530.012 131.896 530.012C142.723 530.012 188.011 530.012 188.011 530.012" stroke="#FBFBFB" stroke-miterlimit="10"/>
<path d="M108.159 487.711C108.159 487.711 108.159 508.966 108.159 514.801C108.159 525.011 103.786 530.325 95.8736 530.325H95.7695" fill="#232323"/>
<path d="M108.159 487.711C108.159 487.711 108.159 508.966 108.159 514.801C108.159 525.011 103.786 530.325 95.8736 530.325H95.7695" stroke="#FBFBFB" stroke-miterlimit="10"/>
<path d="M129.709 521.365C134.367 521.365 138.142 517.586 138.142 512.925C138.142 508.264 134.367 504.486 129.709 504.486C125.052 504.486 121.276 508.264 121.276 512.925C121.276 517.586 125.052 521.365 129.709 521.365Z" fill="#232323" stroke="#FBFBFB" stroke-miterlimit="10"/>
<path d="M126.691 514.696C127.668 514.696 128.461 513.903 128.461 512.925C128.461 511.947 127.668 511.154 126.691 511.154C125.713 511.154 124.921 511.947 124.921 512.925C124.921 513.903 125.713 514.696 126.691 514.696Z" fill="#232323" stroke="#FBFBFB" stroke-miterlimit="10"/>
<path d="M132.833 514.696C133.811 514.696 134.603 513.903 134.603 512.925C134.603 511.947 133.811 511.154 132.833 511.154C131.856 511.154 131.063 511.947 131.063 512.925C131.063 513.903 131.856 514.696 132.833 514.696Z" fill="#232323" stroke="#FBFBFB" stroke-miterlimit="10"/>
<path d="M263.907 304.129V314.444C263.907 318.403 267.135 321.633 271.091 321.633H272.965" fill="#232323"/>
<path d="M263.907 304.129V314.444C263.907 318.403 267.135 321.633 271.091 321.633H272.965" stroke="#FBFBFB" stroke-miterlimit="10"/>
<path d="M242.044 318.82V329.135C242.044 333.094 245.271 336.324 249.228 336.324H251.101" fill="#232323"/>
<path d="M242.044 318.82V329.135C242.044 333.094 245.271 336.324 249.228 336.324H251.101" stroke="#FBFBFB" stroke-miterlimit="10"/>
<path d="M220.285 329.447V339.762C220.285 343.721 223.513 346.951 227.469 346.951H229.343" fill="#232323"/>
<path d="M220.285 329.447V339.762C220.285 343.721 223.513 346.951 227.469 346.951H229.343" stroke="#FBFBFB" stroke-miterlimit="10"/>
<path d="M146.794 180.144C146.794 188.479 140.027 195.251 131.698 195.251C123.37 195.251 116.603 188.583 116.603 180.144" fill="#232323"/>
<path d="M146.794 180.144C146.794 188.479 140.027 195.251 131.698 195.251C123.37 195.251 116.603 188.583 116.603 180.144" stroke="#FBFBFB"/>
<path d="M210 602.216L222.597 568.875L245.918 559.185L257.37 600.444L221.14 624.825L210 602.216Z" fill="#FBFBFB" stroke="#232323" stroke-miterlimit="10"/>
<path d="M221.14 624.825L245.918 559.185" stroke="#232323" stroke-miterlimit="10"/>
<path d="M257.37 600.444L216.455 584.92" stroke="#232323" stroke-miterlimit="10"/>
<path d="M210 602.216L221.452 597.944L228.323 579.606L222.597 568.875" fill="#FBFBFB"/>
<path d="M210 602.216L221.452 597.944L228.323 579.606L222.597 568.875" stroke="#232323" stroke-miterlimit="10"/>
<path d="M221.452 597.944L226.449 608.78L256.329 600.028L240.088 574.293L228.323 579.606" fill="#FBFBFB"/>
<path d="M221.452 597.944L226.449 608.78L256.329 600.028L240.088 574.293L228.323 579.606" stroke="#232323" stroke-miterlimit="10"/>
<path d="M66.4082 25.4383L101.805 22L120.858 38.5661L88.8959 67.1141L51 45.3385L66.4082 25.4383Z" fill="#FBFBFB" stroke="#232323" stroke-miterlimit="10"/>
<path d="M51 45.3385L120.858 38.5662" stroke="#232323" stroke-miterlimit="10"/>
<path d="M88.8958 67.114L84.7314 23.667" stroke="#232323" stroke-miterlimit="10"/>
<path d="M66.4082 25.4383L75.3616 33.7734L94.726 31.898L101.91 22" fill="#FBFBFB"/>
<path d="M66.4082 25.4383L75.3616 33.7734L94.726 31.898L101.91 22" stroke="#232323" stroke-miterlimit="10"/>
<path d="M75.3617 33.7734L67.7617 43.0462L88.7919 65.9679L104.721 40.0247L94.7261 31.8979" fill="#FBFBFB"/>
<path d="M75.3617 33.7734L67.7617 43.0462L88.7919 65.9679L104.721 40.0247L94.7261 31.8979" stroke="#232323" stroke-miterlimit="10"/>
<path d="M11.0822 390.168C12.2322 390.168 13.1644 389.235 13.1644 388.084C13.1644 386.933 12.2322 386 11.0822 386C9.93223 386 9 386.933 9 388.084C9 389.235 9.93223 390.168 11.0822 390.168Z" fill="#FBFBFB"/>
<path d="M194.372 159.202C195.522 159.202 196.454 158.269 196.454 157.118C196.454 155.967 195.522 155.034 194.372 155.034C193.222 155.034 192.29 155.967 192.29 157.118C192.29 158.269 193.222 159.202 194.372 159.202Z" fill="#FBFBFB"/>
<path d="M255.888 94.2933V94.6058C251.307 94.6058 248.704 97.419 248.704 101.899H248.288C248.288 97.3148 245.581 94.6058 241 94.6058V94.2933C245.477 94.2933 248.288 91.4802 248.288 87H248.704C248.704 91.4802 251.411 94.2933 255.888 94.2933Z" fill="#FBFBFB"/>
<path d="M79.0822 513.168C80.2321 513.168 81.1644 512.235 81.1644 511.084C81.1644 509.933 80.2321 509 79.0822 509C77.9322 509 77 509.933 77 511.084C77 512.235 77.9322 513.168 79.0822 513.168Z" fill="#FBFBFB"/>
<path d="M23.0822 616.168C24.2322 616.168 25.1644 615.235 25.1644 614.084C25.1644 612.933 24.2322 612 23.0822 612C21.9322 612 21 612.933 21 614.084C21 615.235 21.9322 616.168 23.0822 616.168Z" fill="#FBFBFB"/>
<path d="M210.082 644.168C211.232 644.168 212.164 643.235 212.164 642.084C212.164 640.933 211.232 640 210.082 640C208.932 640 208 640.933 208 642.084C208 643.235 208.932 644.168 210.082 644.168Z" fill="#FBFBFB"/>
<path d="M64.8877 484.293V484.606C60.3068 484.606 57.7041 487.419 57.7041 491.899H57.2877C57.2877 487.315 54.5808 484.606 50 484.606V484.293C54.4767 484.293 57.2877 481.48 57.2877 477H57.7041C57.7041 481.584 60.3068 484.293 64.8877 484.293Z" fill="#FBFBFB"/>
<path d="M16.7163 442.926L16.1007 441.668L19.7719 439.988L33.9957 454.203L32.1338 434.248L35.7185 432.561L36.3341 433.819L38.2449 458.475L34.4816 460.237L16.7163 442.926Z" fill="#FBFBFB"/>
<path d="M38.8646 430.934L42.6279 429.172L53.0383 451.411L49.275 453.173L38.8646 430.934Z" fill="#FBFBFB"/>
<path d="M53.6165 442.312L57.3798 440.55C58.9078 443.866 62.1556 443.377 64.3918 442.388C67.083 441.08 67.9835 439.223 67.2222 437.521C66.3743 435.814 64.3608 436.034 60.4314 436.307L59.8197 436.355C54.9268 436.74 51.7176 436.623 50.0329 433.036C48.1915 429.178 50.0144 425.117 55.0284 422.826C59.6907 420.599 64.2688 421.064 66.7958 426.445L63.0325 428.207C61.6556 425.248 59.047 425.256 56.7186 426.326C54.2061 427.559 53.1325 429.405 53.9048 430.933C54.7416 432.813 56.582 432.582 60.3438 432.212L60.8688 432.158C65.4154 431.751 69.518 431.49 71.3539 435.435C73.1141 439.201 71.6376 443.283 65.9899 445.969C61.2466 448.104 56.0679 447.514 53.6165 442.312Z" fill="#FBFBFB"/>
<path d="M75.6358 439.187L73.7249 414.531L77.4882 412.769L95.1725 429.988L95.7881 431.245L92.0248 433.007L87.5323 428.458L79.1989 432.366L79.7494 438.752L76.2514 440.444L75.6358 439.187ZM84.9157 425.856L77.9742 418.803L78.824 428.688L84.9157 425.856Z" fill="#FBFBFB"/>
<path d="M31.804 82L39.786 85.4731C45.1652 87.8174 47.421 92.072 45.2519 97.108L42.2153 104.054C40.0463 109.003 35.3612 110.306 29.982 107.961L22 104.488L31.804 82ZM31.5437 104.662C34.7539 106.051 37.3567 104.922 38.3978 102.491L41.5212 95.3715C42.5623 92.9403 41.6947 90.3355 38.3978 88.8594L34.2333 87.036L27.3792 102.752L31.5437 104.662Z" fill="#FBFBFB"/>
<path d="M45.4254 106.051L49.2429 107.701C47.768 111 50.284 113.171 52.5398 114.126C55.3162 115.342 57.3117 114.734 58.0058 112.997C58.7866 111.261 57.3117 109.872 54.3618 107.093L53.928 106.659C50.3708 103.186 48.3753 100.755 49.937 97.108C51.6722 93.2007 55.8367 91.8983 60.8689 94.069C65.6407 96.1529 68.2436 99.8865 65.901 105.27L62.0835 103.62C63.3849 100.581 61.6497 98.584 59.3072 97.6289C56.7043 96.5002 54.6221 96.9343 53.928 98.4972C53.0604 100.407 54.4486 101.623 57.2249 104.228L57.572 104.575C60.9556 107.701 63.8187 110.653 62.0835 114.56C60.4351 118.381 56.3573 119.944 50.7178 117.512C46.1195 115.602 43.1696 111.261 45.4254 106.051Z" fill="#FBFBFB"/>
<path d="M65.7275 114.908L69.545 116.557C68.0701 119.857 70.5862 122.028 72.8419 122.983C75.6183 124.198 77.6138 123.59 78.3079 121.854C79.0887 120.117 77.6138 118.728 74.6639 115.95L74.2301 115.515C70.6729 112.042 68.6774 109.611 70.2391 105.964C71.9743 102.057 76.1389 100.755 81.171 102.925C85.9428 105.009 88.5457 108.743 86.2031 114.126L82.3856 112.476C83.6871 109.438 81.9518 107.44 79.6093 106.485C77.0065 105.357 74.9242 105.791 74.2301 107.354C73.3625 109.264 74.7507 110.479 77.527 113.084L77.8741 113.432C81.2577 116.557 84.1209 119.51 82.3856 123.417C80.7372 127.237 76.6594 128.8 71.02 126.369C66.3349 124.372 63.385 120.117 65.7275 114.908Z" fill="#FBFBFB"/>
<path d="M13.0822 176.168C14.2322 176.168 15.1644 175.235 15.1644 174.084C15.1644 172.933 14.2322 172 13.0822 172C11.9322 172 11 172.933 11 174.084C11 175.235 11.9322 176.168 13.0822 176.168Z" fill="#232323"/>
<path d="M268.082 460.168C269.232 460.168 270.164 459.235 270.164 458.084C270.164 456.933 269.232 456 268.082 456C266.932 456 266 456.933 266 458.084C266 459.235 266.932 460.168 268.082 460.168Z" fill="#232323"/>
<path d="M268.082 576.168C269.232 576.168 270.164 575.235 270.164 574.084C270.164 572.933 269.232 572 268.082 572C266.932 572 266 572.933 266 574.084C266 575.235 266.932 576.168 268.082 576.168Z" fill="#232323"/>
<path d="M270.082 294.168C271.232 294.168 272.164 293.235 272.164 292.084C272.164 290.933 271.232 290 270.082 290C268.932 290 268 290.933 268 292.084C268 293.235 268.932 294.168 270.082 294.168Z" fill="#232323"/>
<path d="M278.082 210.168C279.232 210.168 280.164 209.235 280.164 208.084C280.164 206.933 279.232 206 278.082 206C276.932 206 276 206.933 276 208.084C276 209.235 276.932 210.168 278.082 210.168Z" fill="#232323"/>
</g>
<defs>
<clipPath id="clip0">
<rect width="304" height="672" fill="white"/>
</clipPath>
</defs>
</svg>
