<svg width="464" viewBox="0 0 288 288" fill="none" xmlns="http://www.w3.org/2000/svg">
<g clip-path="url(#clip0)">
<path d="M288 230.674C288 265.493 268.011 288 235.293 288C182.387 288 160.508 286.991 118.541 286.991C81.5469 286.991 69.116 287.495 32.6188 287.495C9.64641 287.495 0.0994475 279.881 0 256.365V138.27C0 94.0637 17.6022 95.9813 17.6022 78.1173C17.6022 57.4273 1.8895 58.3356 1.8895 27.9567C1.8895 11.3038 17.105 0.504634 34.8066 0.403707C72.3978 0.403707 92.1878 0.30278 131.668 0.30278C177.812 0.30278 177.713 0 221.569 0C256.873 0 284.619 22.6076 284.619 78.6219C284.619 119.8 270.298 132.517 270.298 161.18C270.298 186.008 284.619 202.975 288 230.674Z" fill="#232323"/>
<path d="M223.36 255V255.31C218.99 255.31 216.43 257.96 216.43 262.31H216C216 257.93 213.38 255.31 209 255.31V255C213.34 255 216 252.35 216 248H216.43C216.42 252.35 218.98 255 223.36 255Z" fill="#FBFBFB"/>
<path d="M45.22 30.44C46.9984 30.44 48.44 28.9984 48.44 27.22C48.44 25.4416 46.9984 24 45.22 24C43.4416 24 42 25.4416 42 27.22C42 28.9984 43.4416 30.44 45.22 30.44Z" stroke="#FBFBFB" stroke-width="1.5" stroke-miterlimit="10"/>
<path d="M99.873 150.461L49.9053 132.063L9 166.141L18.0543 218.602L68.014 237L108.927 202.922L99.873 150.461Z" stroke="#FBFBFB" stroke-width="1.5" stroke-miterlimit="10"/>
<path d="M113.012 144.414L62.9801 126L49.8569 132.055L99.889 150.477L113.012 144.414Z" stroke="#FBFBFB" stroke-width="1.5" stroke-linejoin="bevel"/>
<path d="M99.8892 150.477L113.012 144.414L121.97 197.711L108.927 202.922" stroke="#FBFBFB" stroke-width="1.5" stroke-linejoin="bevel"/>
<path d="M68.0137 237L79.1909 233.711L121.97 197.711" stroke="#FBFBFB" stroke-width="1.5" stroke-linejoin="bevel"/>
<path d="M36.9575 195.772L45.8966 194.222C49.2033 193.648 50.8952 191.421 50.2925 187.946C49.7772 184.975 48.0587 183.888 46.1448 183.672C47.5463 182.764 48.3595 181.296 47.956 178.97C47.3678 175.579 45.072 174.159 41.7934 174.727L33.5548 176.157L36.9575 195.772ZM39.0211 193.192L37.8545 186.466L43.9354 185.411C46.0931 185.037 47.4559 186.071 47.8302 188.229C48.1996 190.358 47.2597 191.763 45.102 192.137L39.0211 193.192ZM37.4948 184.393L36.367 177.891L41.7473 176.958C43.877 176.589 45.2021 177.571 45.5618 179.645C45.9167 181.69 45.0048 183.09 42.9311 183.45L37.4948 184.393ZM53.3583 192.927L55.6001 192.538L56.7135 186.976L65.1763 185.508L68.042 190.38L70.452 189.962L70.311 189.149L59.7074 171.62L57.2694 172.043L53.2173 192.115L53.3583 192.927ZM57.0824 184.776L59.0102 175.089L64.06 183.566L57.0824 184.776ZM76.1843 188.968L78.6223 188.545L75.5938 171.087L81.5346 170.056L81.1603 167.899L66.8128 170.387L67.1871 172.545L73.1559 171.51L76.1843 188.968Z" fill="#FBFBFB"/>
<path d="M127.244 243.866L167.077 270.432" stroke="#FBFBFB" stroke-width="1.5" stroke-miterlimit="10"/>
<path d="M110.404 224.915L195.943 255.256" stroke="#FBFBFB" stroke-width="1.5" stroke-miterlimit="10"/>
<path d="M169 82.01L231.52 16" stroke="#FBFBFB" stroke-width="1.5" stroke-miterlimit="10"/>
<path d="M169.29 61.19L194.91 16" stroke="#FBFBFB" stroke-width="1.5" stroke-miterlimit="10"/>
<path d="M192.67 81.44L234.86 64.1" stroke="#FBFBFB" stroke-width="1.5" stroke-miterlimit="10"/>
<path d="M210.1 94.75C211.215 94.75 212.12 93.8456 212.12 92.73C212.12 91.6144 211.215 90.71 210.1 90.71C208.984 90.71 208.08 91.6144 208.08 92.73C208.08 93.8456 208.984 94.75 210.1 94.75Z" fill="#FBFBFB"/>
<path d="M242.48 38.54C243.596 38.54 244.5 37.6356 244.5 36.52C244.5 35.4044 243.596 34.5 242.48 34.5C241.364 34.5 240.46 35.4044 240.46 36.52C240.46 37.6356 241.364 38.54 242.48 38.54Z" fill="#FBFBFB"/>
<path d="M161.37 26V26.31C157 26.31 154.44 28.96 154.44 33.31H154C154 28.94 151.38 26.31 147 26.31V26C151.33 26 154 23.34 154 19H154.44C154.44 23.34 157 26 161.37 26Z" fill="#FBFBFB"/>
<path d="M117.121 32.7837L56.0623 49.889L73.1676 110.948L134.226 93.8425L117.121 32.7837Z" fill="#FBFBFB" stroke="#232323" stroke-width="1.5" stroke-miterlimit="10"/>
<path d="M117.118 32.783L56 49.9014L60.7694 43.1675L121.832 26.0655L117.118 32.783Z" fill="#FBFBFB" stroke="#232323" stroke-width="1.5" stroke-linejoin="bevel"/>
<path d="M139 87.0577L134.231 93.8461L117.129 32.7884L121.898 26L139 87.0577Z" fill="#FBFBFB" stroke="#232323" stroke-width="1.5" stroke-linejoin="bevel"/>
<path d="M73.3096 67.6746L80.1635 65.8084C82.892 65.0608 84.9438 66.0812 85.7132 68.9025C86.2589 70.8342 85.6695 72.1439 84.5563 73.0224C86.1934 73.0552 87.7323 73.8355 88.4089 76.2966C89.1947 79.1888 87.9451 81.2078 85.1948 81.9554L77.757 83.9963L73.3096 67.6746ZM81.8224 73.0934C83.5468 72.6241 84.2071 71.369 83.7432 69.6664C83.2794 67.9639 82.0734 67.2163 80.2999 67.6965L75.8252 68.9188L77.2986 74.3267L81.8224 73.0934ZM84.3544 80.2693C86.1497 79.7781 86.8319 78.5176 86.3462 76.7441C85.8605 74.9706 84.6218 74.1848 82.8265 74.6704L77.7679 76.051L79.2958 81.6444L84.3544 80.2693Z" fill="#232323" stroke="#232323" stroke-width="1.5"/>
<path d="M92.398 64.4004L87.4103 65.7538L86.9192 63.9584L98.859 60.6843L99.3501 62.4796L94.4061 63.8275L98.3624 78.3484L96.3379 78.8941L92.398 64.4004Z" fill="#232323" stroke="#232323" stroke-width="1.5"/>
<path d="M104.059 70.8888L102.624 65.6228C101.609 61.9121 103.328 59.1182 107.268 58.0432C110.417 57.1864 113.691 58.1687 114.728 61.9721L114.788 62.2068L112.763 62.7525L112.698 62.5178C112.005 59.9749 109.642 59.3965 107.754 59.9094C105.025 60.657 103.934 62.496 104.61 64.9244L106.122 70.4741C106.788 72.8969 108.627 73.9501 111.377 73.2025C113.265 72.6896 115.006 70.987 114.313 68.4441L114.247 68.2149L116.277 67.6692L116.337 67.9038C117.374 71.7237 115.055 74.2175 111.906 75.0742C107.966 76.1383 105.069 74.594 104.059 70.8888Z" fill="#232323" stroke="#232323" stroke-width="1.5"/>
<path d="M238.92 226.31L128 152.121L258.917 76.4284L238.92 226.31Z" fill="#FBFBFB" stroke="#232323" stroke-width="1.5" stroke-miterlimit="10"/>
<path d="M258.917 76.4284L271.93 73L252.213 219.415L238.92 226.31L258.917 76.4284Z" fill="#FBFBFB" stroke="#232323" stroke-width="1.5" stroke-miterlimit="10"/>
<path d="M182.438 140.96L191.151 147.043L190.341 148.2L181.637 142.175L181.023 141.75L180.595 142.363L175.497 149.679L175.069 150.294L175.683 150.723L185.873 157.837L185.068 158.981L172.81 150.419L187.03 129.983L199.258 138.529L198.46 139.67L188.305 132.58L187.692 132.151L187.262 132.765L182.253 139.915L181.822 140.53L182.438 140.96Z" fill="#232323" stroke="#232323" stroke-width="1.5"/>
<path d="M208.246 147.428L208.676 146.814L208.061 146.383L202.099 142.212L202.897 141.07L217.471 151.249L216.672 152.392L210.71 148.255L210.096 147.829L209.668 148.442L196.663 167.047L195.206 166.032L208.246 147.428Z" fill="#232323" stroke="#232323" stroke-width="1.5"/>
<path d="M215.823 167.024L209.509 176.071L208.05 175.054L222.282 154.608L223.742 155.632L217.493 164.577L217.063 165.192L217.677 165.621L228.192 172.975L228.807 173.405L229.237 172.79L235.497 163.834L236.959 164.86L222.714 185.296L221.267 184.283L227.58 175.237L228.009 174.622L227.395 174.193L216.867 166.839L216.252 166.409L215.823 167.024Z" fill="#232323" stroke="#232323" stroke-width="1.5"/>
</g>
<defs>
<clipPath id="clip0">
<rect width="288" height="288" fill="white"/>
</clipPath>
</defs>
</svg>
