<svg viewBox="0 0 1024 482" fill="none" xmlns="http://www.w3.org/2000/svg">
<path d="M1024 0H0V482H1024V0Z" fill="#232323"/>
<path d="M281.46 69.5253C281.46 69.5253 274.092 44.375 242.936 44.375C208.602 44.375 195.882 71.5643 172.035 76.3497C148.247 81.1184 139.444 69.3339 109.399 69.3339C80.5663 69.3339 52.4883 88.7251 52.4883 133.117C52.4883 187.97 90.0584 201.951 90.0584 201.951" stroke="white" stroke-miterlimit="10"/>
<path d="M278.547 71.8555C274.556 64.9812 265.479 54.7529 246.819 54.7529C215.878 54.7529 204.411 80.1612 182.921 84.6303C161.489 89.0911 153.549 78.0723 126.475 78.0723C100.496 78.0723 75.1895 96.1901 75.1895 137.677C75.1895 170.542 89.3861 187.886 99.376 195.976" stroke="white" stroke-miterlimit="10"/>
<path d="M273.245 76.4993C268.599 72.1217 261.521 68.3184 250.992 68.3184C223.694 68.3184 213.58 91.3964 194.629 95.4577C175.719 99.5107 168.716 89.4989 144.837 89.4989C121.911 89.4989 99.5918 105.961 99.5918 143.644C99.5918 166.606 106.852 181.128 114.212 189.959" stroke="white" stroke-miterlimit="10"/>
<path d="M268.176 80.777C264.658 78.9377 260.277 77.7144 254.842 77.7144C230.896 77.7144 222.027 99.1861 205.399 102.965C188.813 106.735 182.673 97.4218 161.722 97.4218C141.618 97.4218 122.036 112.735 122.036 147.789C122.036 164.916 126.135 177.001 131.088 185.348" stroke="white" stroke-miterlimit="10"/>
<path d="M281.767 420.381C281.767 420.381 274.092 445.814 242.936 445.814C208.602 445.814 195.882 418.625 172.035 413.839C148.247 409.071 139.444 420.855 109.399 420.855C80.5663 420.855 52.4883 401.464 52.4883 357.072C52.4883 302.219 89.3282 288.587 89.3282 288.587" stroke="white" stroke-miterlimit="10"/>
<path d="M278.547 418.325C274.556 425.2 265.479 435.428 246.819 435.428C215.878 435.428 204.411 410.02 182.921 405.55C161.489 401.09 153.549 412.108 126.475 412.108C100.496 412.108 75.1895 393.991 75.1895 352.503C75.1895 319.638 88.5979 302.96 98.5878 294.871" stroke="white" stroke-miterlimit="10"/>
<path d="M273.245 413.681C268.599 418.059 261.521 421.862 250.992 421.862C223.694 421.862 213.58 398.784 194.629 394.723C175.719 390.67 168.716 400.682 144.837 400.682C121.911 400.682 99.5918 384.22 99.5918 346.536C99.5918 323.575 106.205 309.984 113.564 301.163" stroke="white" stroke-miterlimit="10"/>
<path d="M268.176 409.404C264.658 411.243 260.277 412.466 254.842 412.466C230.896 412.466 222.027 390.994 205.399 387.216C188.813 383.446 182.673 392.759 161.722 392.759C141.618 392.759 122.036 377.446 122.036 342.392C122.036 325.264 125.77 313.962 130.732 305.615" stroke="white" stroke-miterlimit="10"/>
<path d="M741.825 420.872C745.202 427.788 754.993 441.986 778.557 441.986C812.891 441.986 825.611 414.797 849.458 410.012C873.246 405.243 882.049 417.027 912.094 417.027C940.927 417.027 969.005 397.636 969.005 353.244C969.005 298.392 933.16 285.458 933.16 285.458" stroke="white" stroke-miterlimit="10"/>
<path d="M745.161 417.843C749.949 424.26 758.885 431.6 774.675 431.6C805.615 431.6 817.082 406.192 838.572 401.722C860.004 397.262 867.944 408.281 895.018 408.281C920.997 408.281 946.304 390.163 946.304 348.676C946.304 315.81 933.352 299.432 923.362 291.343" stroke="white" stroke-miterlimit="10"/>
<path d="M751.45 412.467C755.972 415.646 762.145 418.043 770.501 418.043C797.799 418.043 807.913 394.965 826.864 390.903C845.774 386.85 852.777 396.862 876.656 396.862C899.573 396.862 921.901 380.4 921.901 342.716C921.901 319.755 915.421 306.256 908.061 297.434" stroke="white" stroke-miterlimit="10"/>
<path d="M757.623 407.348C760.253 408.164 763.24 408.638 766.65 408.638C790.596 408.638 799.466 387.166 816.094 383.388C832.68 379.618 838.82 388.931 859.771 388.931C879.875 388.931 899.457 373.618 899.457 338.564C899.457 321.436 895.839 310.093 890.886 301.745" stroke="white" stroke-miterlimit="10"/>
<path d="M739.727 65.9718C739.727 65.9718 747.402 40.5386 778.558 40.5386C812.892 40.5386 825.612 67.7278 849.458 72.5132C873.246 77.282 882.05 65.4974 912.094 65.4974C940.927 65.4974 969.005 84.8886 969.005 129.28C969.005 184.133 933.41 197.382 933.41 197.382" stroke="white" stroke-miterlimit="10"/>
<path d="M742.946 68.0273C746.937 61.153 756.015 50.9248 774.675 50.9248C805.616 50.9248 817.082 76.3331 838.572 80.8022C860.004 85.263 867.945 74.2442 895.019 74.2442C920.998 74.2442 946.304 92.362 946.304 133.849C946.304 166.714 933.195 183.076 923.205 191.166" stroke="white" stroke-miterlimit="10"/>
<path d="M748.248 72.6712C752.895 68.2936 759.972 64.4902 770.501 64.4902C797.799 64.4902 807.914 87.5682 826.865 91.6296C845.774 95.6826 852.777 85.6707 876.657 85.6707C899.574 85.6707 921.902 102.132 921.902 139.816C921.902 162.778 915.148 176.46 907.78 185.282" stroke="white" stroke-miterlimit="10"/>
<path d="M753.317 76.9489C756.835 75.1096 761.216 73.8862 766.651 73.8862C790.597 73.8862 799.467 95.358 816.095 99.1364C832.681 102.906 838.821 93.5937 859.771 93.5937C879.876 93.5937 899.457 108.907 899.457 143.961C899.457 161.088 895.624 172.69 890.67 181.037" stroke="white" stroke-miterlimit="10"/>
<path d="M75.0822 140.799C78.7298 140.799 81.6868 137.833 81.6868 134.174C81.6868 130.515 78.7298 127.549 75.0822 127.549C71.4345 127.549 68.4775 130.515 68.4775 134.174C68.4775 137.833 71.4345 140.799 75.0822 140.799Z" fill="#FF2100"/>
<path d="M897.102 130.179C900.749 130.179 903.706 127.213 903.706 123.554C903.706 119.896 900.749 116.93 897.102 116.93C893.454 116.93 890.497 119.896 890.497 123.554C890.497 127.213 893.454 130.179 897.102 130.179Z" fill="white"/>
<path d="M245.55 59.2636C247.561 59.2636 249.192 57.6279 249.192 55.6101C249.192 53.5923 247.561 51.9565 245.55 51.9565C243.538 51.9565 241.907 53.5923 241.907 55.6101C241.907 57.6279 243.538 59.2636 245.55 59.2636Z" fill="white"/>
<path d="M255.523 148.405C257.535 148.405 259.166 146.769 259.166 144.752C259.166 142.734 257.535 141.098 255.523 141.098C253.512 141.098 251.881 142.734 251.881 144.752C251.881 146.769 253.512 148.405 255.523 148.405Z" fill="#FF2100"/>
<path d="M99.8993 354.992C101.911 354.992 103.542 353.356 103.542 351.338C103.542 349.321 101.911 347.685 99.8993 347.685C97.8876 347.685 96.2568 349.321 96.2568 351.338C96.2568 353.356 97.8876 354.992 99.8993 354.992Z" fill="#FF2100"/>
<path d="M236.257 227.152C238.268 227.152 239.899 225.516 239.899 223.498C239.899 221.48 238.268 219.844 236.257 219.844C234.245 219.844 232.614 221.48 232.614 223.498C232.614 225.516 234.245 227.152 236.257 227.152Z" fill="#FF2100"/>
<path d="M213.838 441.944C215.85 441.944 217.48 440.309 217.48 438.291C217.48 436.273 215.85 434.637 213.838 434.637C211.826 434.637 210.195 436.273 210.195 438.291C210.195 440.309 211.826 441.944 213.838 441.944Z" fill="#FF2100"/>
<path d="M71.5478 251.644C73.5595 251.644 75.1903 250.009 75.1903 247.991C75.1903 245.973 73.5595 244.337 71.5478 244.337C69.5361 244.337 67.9053 245.973 67.9053 247.991C67.9053 250.009 69.5361 251.644 71.5478 251.644Z" fill="white"/>
<path d="M160.71 338.38C162.722 338.38 164.352 336.745 164.352 334.727C164.352 332.709 162.722 331.073 160.71 331.073C158.698 331.073 157.067 332.709 157.067 334.727C157.067 336.745 158.698 338.38 160.71 338.38Z" fill="white"/>
<path d="M400.709 136.746C402.721 136.746 404.351 135.11 404.351 133.092C404.351 131.074 402.721 129.438 400.709 129.438C398.697 129.438 397.066 131.074 397.066 133.092C397.066 135.11 398.697 136.746 400.709 136.746Z" fill="#FF2100"/>
<path d="M594.923 273.441C596.934 273.441 598.565 271.805 598.565 269.787C598.565 267.77 596.934 266.134 594.923 266.134C592.911 266.134 591.28 267.77 591.28 269.787C591.28 271.805 592.911 273.441 594.923 273.441Z" fill="#FF2100"/>
<path d="M680.949 215.309C682.961 215.309 684.592 213.673 684.592 211.655C684.592 209.637 682.961 208.001 680.949 208.001C678.937 208.001 677.307 209.637 677.307 211.655C677.307 213.673 678.937 215.309 680.949 215.309Z" fill="white"/>
<path d="M961.895 391.527C963.906 391.527 965.537 389.892 965.537 387.874C965.537 385.856 963.906 384.22 961.895 384.22C959.883 384.22 958.252 385.856 958.252 387.874C958.252 389.892 959.883 391.527 961.895 391.527Z" fill="white"/>
<path d="M787.876 268.73C789.888 268.73 791.518 267.094 791.518 265.077C791.518 263.059 789.888 261.423 787.876 261.423C785.864 261.423 784.233 263.059 784.233 265.077C784.233 267.094 785.864 268.73 787.876 268.73Z" fill="#FF2100"/>
<path d="M879.337 337.74C881.349 337.74 882.979 336.104 882.979 334.086C882.979 332.068 881.349 330.433 879.337 330.433C877.325 330.433 875.694 332.068 875.694 334.086C875.694 336.104 877.325 337.74 879.337 337.74Z" fill="white"/>
<path d="M901.433 277.527C903.444 277.527 905.075 275.891 905.075 273.873C905.075 271.856 903.444 270.22 901.433 270.22C899.421 270.22 897.79 271.856 897.79 273.873C897.79 275.891 899.421 277.527 901.433 277.527Z" fill="white"/>
<path d="M915.355 377.729C917.367 377.729 918.998 376.093 918.998 374.075C918.998 372.057 917.367 370.422 915.355 370.422C913.344 370.422 911.713 372.057 911.713 374.075C911.713 376.093 913.344 377.729 915.355 377.729Z" fill="#FF2100"/>
<path d="M541.953 110.921C543.498 110.921 544.75 109.665 544.75 108.116C544.75 106.567 543.498 105.312 541.953 105.312C540.409 105.312 539.157 106.567 539.157 108.116C539.157 109.665 540.409 110.921 541.953 110.921Z" fill="#FF2100"/>
<path d="M512.05 42.9517C377.867 42.9517 372.639 129.921 288.131 162.253C204.337 194.311 71.1826 157.443 71.1826 245.277C71.1826 335.293 204.935 293.697 285.144 332.879C385.342 381.823 385.716 444.091 512.05 444.091" stroke="white" stroke-miterlimit="10"/>
<path d="M512.05 42.9517C391.184 42.9517 386.48 129.921 310.352 162.253C234.872 194.311 114.935 157.443 114.935 245.277C114.935 335.293 235.411 293.697 307.664 332.879C397.921 381.823 398.253 444.091 512.05 444.091" stroke="white" stroke-miterlimit="10"/>
<path d="M512.05 42.9517C409.96 42.9517 405.986 129.921 341.682 162.253C277.925 194.311 176.624 157.443 176.624 245.277C176.624 335.293 278.382 293.697 339.417 332.879C415.652 381.823 415.934 444.091 512.058 444.091" stroke="white" stroke-miterlimit="10"/>
<path d="M512.05 42.9517C427.517 42.9517 424.223 129.921 370.979 162.253C318.192 194.311 234.307 157.443 234.307 245.277C234.307 335.293 318.565 293.697 369.104 332.879C432.23 381.823 432.462 444.091 512.05 444.091" stroke="white" stroke-miterlimit="10"/>
<path d="M512.05 42.9517C444.253 42.9517 441.615 129.921 398.917 162.253C356.576 194.311 289.302 157.443 289.302 245.277C289.302 335.293 356.883 293.697 397.407 332.879C448.037 381.823 448.219 444.091 512.05 444.091" stroke="white" stroke-miterlimit="10"/>
<path d="M512.05 42.9517C459.76 42.9517 457.728 129.921 424.796 162.253C392.146 194.311 340.255 157.443 340.255 245.277C340.255 335.293 392.37 293.697 423.634 332.879C462.681 381.823 462.822 444.091 512.05 444.091" stroke="white" stroke-miterlimit="10"/>
<path d="M512.05 42.9517C475.301 42.9517 473.865 129.921 450.724 162.253C427.774 194.311 391.308 157.443 391.308 245.277C391.308 335.293 427.94 293.697 449.911 332.879C477.35 381.823 477.458 444.091 512.058 444.091" stroke="white" stroke-miterlimit="10"/>
<path d="M512.05 42.9517C486.693 42.9517 485.706 129.921 469.734 162.253C453.894 194.311 428.729 157.443 428.729 245.277C428.729 335.293 454.002 293.697 469.169 332.879C488.104 381.823 488.178 444.091 512.05 444.091" stroke="white" stroke-miterlimit="10"/>
<path d="M512.051 42.9517C496.062 42.9517 495.439 129.921 485.366 162.253C475.385 194.311 459.521 157.443 459.521 245.277C459.521 309.352 475.46 293.697 485.018 332.879C496.958 381.823 496.999 444.091 512.051 444.091" stroke="white" stroke-miterlimit="10"/>
<path d="M512.051 42.9517C503.397 42.9517 503.056 129.921 497.605 162.253C492.195 194.311 483.607 157.443 483.607 245.277C483.607 335.293 492.237 293.697 497.414 332.879C503.878 381.823 503.903 444.091 512.059 444.091" stroke="white" stroke-miterlimit="10"/>
<path d="M512.05 42.9517C508.275 42.9517 508.126 129.921 505.745 162.253C503.388 194.311 499.638 157.443 499.638 245.277C499.638 335.293 503.405 293.697 505.662 332.879C508.483 381.823 508.491 444.091 512.05 444.091" stroke="white" stroke-miterlimit="10"/>
<path d="M512.019 444.091C646.202 444.091 651.429 357.122 735.937 324.79C819.731 292.732 952.886 329.6 952.886 241.765C952.886 151.75 819.134 193.346 738.924 154.164C638.726 105.228 638.353 42.9517 512.019 42.9517" stroke="white" stroke-miterlimit="10"/>
<path d="M512.019 444.091C632.885 444.091 637.589 357.122 713.717 324.79C789.197 292.732 909.134 329.6 909.134 241.765C909.134 151.75 788.658 193.346 716.405 154.164C626.148 105.228 625.816 42.9517 512.019 42.9517" stroke="white" stroke-miterlimit="10"/>
<path d="M512.017 444.091C614.107 444.091 618.081 357.122 682.385 324.79C746.141 292.732 847.443 329.6 847.443 241.765C847.443 151.75 745.685 193.346 684.65 154.164C608.415 105.22 608.133 42.9517 512.009 42.9517" stroke="white" stroke-miterlimit="10"/>
<path d="M512.019 444.091C596.551 444.091 599.845 357.122 653.089 324.79C705.876 292.732 789.762 329.6 789.762 241.765C789.762 151.75 705.503 193.346 654.964 154.164C591.838 105.22 591.606 42.9517 512.019 42.9517" stroke="white" stroke-miterlimit="10"/>
<path d="M512.019 444.091C579.816 444.091 582.454 357.122 625.152 324.79C667.493 292.732 734.767 329.6 734.767 241.765C734.767 151.75 667.186 193.346 626.662 154.164C576.032 105.22 575.849 42.9517 512.019 42.9517" stroke="white" stroke-miterlimit="10"/>
<path d="M512.019 444.091C564.308 444.091 566.341 357.122 599.273 324.79C631.922 292.732 683.814 329.6 683.814 241.765C683.814 151.75 631.698 193.346 600.434 154.164C561.396 105.228 561.246 42.9517 512.019 42.9517" stroke="white" stroke-miterlimit="10"/>
<path d="M512.017 444.091C548.766 444.091 550.201 357.122 573.342 324.79C596.292 292.732 632.759 329.6 632.759 241.765C632.759 151.75 596.127 193.346 574.155 154.164C546.716 105.22 546.608 42.9517 512.009 42.9517" stroke="white" stroke-miterlimit="10"/>
<path d="M512.019 444.091C537.375 444.091 538.362 357.122 554.335 324.79C570.174 292.732 595.34 329.6 595.34 241.765C595.34 151.75 570.066 193.346 554.899 154.164C535.964 105.22 535.89 42.9517 512.019 42.9517" stroke="white" stroke-miterlimit="10"/>
<path d="M512.019 444.091C528.007 444.091 528.63 357.122 538.703 324.79C548.684 292.732 564.549 293.481 564.549 241.765C564.549 151.75 548.609 193.346 539.051 154.164C527.111 105.22 527.07 42.9517 512.019 42.9517" stroke="white" stroke-miterlimit="10"/>
<path d="M512.017 444.091C520.671 444.091 521.011 357.122 526.463 324.79C531.872 292.732 540.46 329.6 540.46 241.765C540.46 151.75 531.831 193.346 526.653 154.164C520.19 105.22 520.165 42.9517 512.009 42.9517" stroke="white" stroke-miterlimit="10"/>
<path d="M512.019 444.091C515.794 444.091 515.943 357.122 518.324 324.79C520.681 292.732 524.431 329.6 524.431 241.765C524.431 151.75 520.664 193.346 518.407 154.164C515.586 105.22 515.578 42.9517 512.019 42.9517" stroke="white" stroke-miterlimit="10"/>
<path d="M506.732 44.333C506.732 44.333 433.052 44.333 367.869 44.333C286.39 44.333 288.514 73.0453 246.007 95.7072C203.774 118.228 141.859 109.606 141.859 183.65" stroke="white" stroke-miterlimit="10"/>
<path d="M506.201 444.208C506.201 444.208 432.521 444.208 367.338 444.208C285.858 444.208 287.982 415.495 245.476 392.834C203.242 370.313 141.328 381.29 141.328 307.254" stroke="white" stroke-miterlimit="10"/>
<path d="M506.732 44.333C506.732 44.333 436.371 44.333 374.133 44.333C296.33 44.333 298.363 73.0453 257.772 95.7072C217.448 118.228 158.321 107.716 158.321 181.761" stroke="white" stroke-miterlimit="10"/>
<path d="M506.218 444.207C506.218 444.207 435.857 444.207 373.619 444.207C295.815 444.207 297.848 415.495 257.258 392.833C216.933 370.313 157.807 383.687 157.807 309.643" stroke="white" stroke-miterlimit="10"/>
<path d="M506.733 44.333C506.733 44.333 440.38 44.333 381.677 44.333C308.304 44.333 310.212 73.0453 271.937 95.7072C233.902 118.228 178.145 105.977 178.145 180.021" stroke="white" stroke-miterlimit="10"/>
<path d="M506.251 444.208C506.251 444.208 439.898 444.208 381.194 444.208C307.822 444.208 309.73 415.495 271.455 392.833C233.42 370.313 177.662 385.094 177.662 311.049" stroke="white" stroke-miterlimit="10"/>
<path d="M506.733 44.333C506.733 44.333 447.872 44.333 395.799 44.333C330.707 44.333 332.408 73.0453 298.447 95.7072C264.71 118.228 215.25 102.631 215.25 176.676" stroke="white" stroke-miterlimit="10"/>
<path d="M506.301 444.208C506.301 444.208 447.44 444.208 395.366 444.208C330.274 444.208 331.975 415.495 298.014 392.834C264.277 370.313 214.817 389.039 214.817 314.994" stroke="white" stroke-miterlimit="10"/>
<path d="M506.733 44.333C506.733 44.333 455.472 44.333 410.127 44.333C353.449 44.333 354.926 73.0453 325.354 95.7072C295.974 118.228 252.902 97.5547 252.902 171.599" stroke="white" stroke-miterlimit="10"/>
<path d="M506.359 444.208C506.359 444.208 455.098 444.208 409.753 444.208C353.075 444.208 354.552 415.495 324.98 392.833C295.599 370.313 252.528 395.513 252.528 321.469" stroke="white" stroke-miterlimit="10"/>
<path d="M506.733 44.333C506.733 44.333 463.056 44.333 424.416 44.333C376.117 44.333 377.378 73.0453 352.179 95.7072C327.147 118.228 290.439 77.04 290.439 161.288" stroke="white" stroke-miterlimit="10"/>
<path d="M520.307 444.208C520.307 444.208 462.732 444.208 424.091 444.208C375.793 444.208 377.054 415.495 351.855 392.833C326.822 370.313 290.115 409.586 290.115 335.542" stroke="white" stroke-miterlimit="10"/>
<path d="M519.069 444.208C519.069 444.208 592.749 444.208 657.933 444.208C739.412 444.208 737.288 415.495 779.795 392.833C822.028 370.313 883.917 377.171 883.917 303.135" stroke="white" stroke-miterlimit="10"/>
<path d="M519.608 44.333C519.608 44.333 593.288 44.333 658.472 44.333C739.951 44.333 737.827 73.0453 780.334 95.7072C822.567 118.228 884.44 105.794 884.44 179.838" stroke="white" stroke-miterlimit="10"/>
<path d="M519.069 444.208C519.069 444.208 589.43 444.208 651.668 444.208C729.472 444.208 727.439 415.495 768.029 392.833C808.354 370.313 867.48 379.368 867.48 305.323" stroke="white" stroke-miterlimit="10"/>
<path d="M519.584 44.333C519.584 44.333 589.945 44.333 652.183 44.333C729.986 44.333 727.953 73.0453 768.544 95.7072C808.868 118.228 867.995 103.805 867.995 177.841" stroke="white" stroke-miterlimit="10"/>
<path d="M519.069 444.208C519.069 444.208 585.423 444.208 644.126 444.208C717.499 444.208 715.59 415.495 753.866 392.833C791.9 370.313 847.691 381.074 847.691 307.038" stroke="white" stroke-miterlimit="10"/>
<path d="M519.552 44.333C519.552 44.333 585.905 44.333 644.608 44.333C717.981 44.333 716.073 73.0453 754.348 95.7072C792.383 118.228 848.091 101.891 848.091 175.935" stroke="white" stroke-miterlimit="10"/>
<path d="M519.069 444.208C519.069 444.208 577.93 444.208 630.004 444.208C695.096 444.208 693.395 415.495 727.356 392.834C761.093 370.313 810.486 384.137 810.486 310.101" stroke="white" stroke-miterlimit="10"/>
<path d="M519.502 44.333C519.502 44.333 578.363 44.333 630.437 44.333C695.529 44.333 693.828 73.0453 727.789 95.7072C761.525 118.228 810.952 98.3371 810.952 172.381" stroke="white" stroke-miterlimit="10"/>
<path d="M519.069 444.208C519.069 444.208 570.33 444.208 615.675 444.208C672.353 444.208 670.876 415.495 700.448 392.834C729.828 370.313 772.842 389.063 772.842 315.019" stroke="white" stroke-miterlimit="10"/>
<path d="M519.443 44.333C519.443 44.333 570.704 44.333 616.049 44.333C672.727 44.333 671.25 73.0453 700.822 95.7072C730.202 118.228 773.249 92.0703 773.249 166.115" stroke="white" stroke-miterlimit="10"/>
<path d="M519.069 444.208C519.069 444.208 562.746 444.208 601.387 444.208C649.685 444.208 648.424 415.495 673.623 392.833C698.656 370.313 735.346 413.007 735.346 325.073" stroke="white" stroke-miterlimit="10"/>
<path d="M519.385 44.333C519.385 44.333 563.062 44.333 601.702 44.333C650.001 44.333 648.739 73.0453 673.938 95.7072C698.971 118.228 735.678 78.9542 735.678 152.999" stroke="white" stroke-miterlimit="10"/>
<path d="M291.79 142.837C295.438 142.837 298.395 139.871 298.395 136.213C298.395 132.554 295.438 129.588 291.79 129.588C288.143 129.588 285.186 132.554 285.186 136.213C285.186 139.871 288.143 142.837 291.79 142.837Z" fill="white"/>
<path d="M392.686 224.738C396.333 224.738 399.29 221.772 399.29 218.113C399.29 214.454 396.333 211.489 392.686 211.489C389.038 211.489 386.081 214.454 386.081 218.113C386.081 221.772 389.038 224.738 392.686 224.738Z" fill="white"/>
<path d="M472.68 397.661C476.327 397.661 479.284 394.695 479.284 391.036C479.284 387.377 476.327 384.411 472.68 384.411C469.032 384.411 466.075 387.377 466.075 391.036C466.075 394.695 469.032 397.661 472.68 397.661Z" fill="#FF2100"/>
<path d="M771.689 344.531C775.336 344.531 778.293 341.565 778.293 337.906C778.293 334.247 775.336 331.281 771.689 331.281C768.041 331.281 765.084 334.247 765.084 337.906C765.084 341.565 768.041 344.531 771.689 344.531Z" fill="white"/>
<path d="M733.247 137.752C736.895 137.752 739.852 134.786 739.852 131.128C739.852 127.469 736.895 124.503 733.247 124.503C729.6 124.503 726.643 127.469 726.643 131.128C726.643 134.786 729.6 137.752 733.247 137.752Z" fill="white"/>
<path d="M652.307 354.917C655.954 354.917 658.911 351.951 658.911 348.292C658.911 344.633 655.954 341.667 652.307 341.667C648.659 341.667 645.702 344.633 645.702 348.292C645.702 351.951 648.659 354.917 652.307 354.917Z" fill="white"/>
<path d="M249.989 296.111C252.001 296.111 253.632 294.475 253.632 292.457C253.632 290.439 252.001 288.804 249.989 288.804C247.978 288.804 246.347 290.439 246.347 292.457C246.347 294.475 247.978 296.111 249.989 296.111Z" fill="white"/>
<path d="M347.44 207.211C349.452 207.211 351.083 205.575 351.083 203.557C351.083 201.54 349.452 199.904 347.44 199.904C345.429 199.904 343.798 201.54 343.798 203.557C343.798 205.575 345.429 207.211 347.44 207.211Z" fill="white"/>
<path d="M404.783 371.595C406.795 371.595 408.426 369.959 408.426 367.941C408.426 365.924 406.795 364.288 404.783 364.288C402.771 364.288 401.141 365.924 401.141 367.941C401.141 369.959 402.771 371.595 404.783 371.595Z" fill="white"/>
<path d="M477.658 89.1244C479.202 89.1244 480.454 87.8688 480.454 86.3198C480.454 84.7708 479.202 83.5151 477.658 83.5151C476.113 83.5151 474.861 84.7708 474.861 86.3198C474.861 87.8688 476.113 89.1244 477.658 89.1244Z" fill="white"/>
<path d="M380.148 63.9076C381.692 63.9076 382.944 62.6519 382.944 61.103C382.944 59.554 381.692 58.2983 380.148 58.2983C378.603 58.2983 377.352 59.554 377.352 61.103C377.352 62.6519 378.603 63.9076 380.148 63.9076Z" fill="white"/>
<path d="M597.189 362.965C598.733 362.965 599.985 361.709 599.985 360.16C599.985 358.611 598.733 357.355 597.189 357.355C595.644 357.355 594.393 358.611 594.393 360.16C594.393 361.709 595.644 362.965 597.189 362.965Z" fill="white"/>
<path d="M609.734 110.18C611.278 110.18 612.53 108.924 612.53 107.375C612.53 105.826 611.278 104.571 609.734 104.571C608.189 104.571 606.938 105.826 606.938 107.375C606.938 108.924 608.189 110.18 609.734 110.18Z" fill="white"/>
<path d="M662.761 86.3949C664.305 86.3949 665.557 85.1393 665.557 83.5903C665.557 82.0413 664.305 80.7856 662.761 80.7856C661.217 80.7856 659.965 82.0413 659.965 83.5903C659.965 85.1393 661.217 86.3949 662.761 86.3949Z" fill="#FF2100"/>
<path d="M822.277 61.6357C823.821 61.6357 825.073 60.38 825.073 58.831C825.073 57.2821 823.821 56.0264 822.277 56.0264C820.732 56.0264 819.48 57.2821 819.48 58.831C819.48 60.38 820.732 61.6357 822.277 61.6357Z" fill="#FF2100"/>
<path d="M782.574 80.1445C784.119 80.1445 785.371 78.8888 785.371 77.3398C785.371 75.7908 784.119 74.5352 782.574 74.5352C781.03 74.5352 779.778 75.7908 779.778 77.3398C779.778 78.8888 781.03 80.1445 782.574 80.1445Z" fill="white"/>
<path d="M77.4384 416.037C79.4501 416.037 81.0809 414.401 81.0809 412.383C81.0809 410.365 79.4501 408.729 77.4384 408.729C75.4267 408.729 73.7959 410.365 73.7959 412.383C73.7959 414.401 75.4267 416.037 77.4384 416.037Z" fill="white"/>
<path d="M160.311 162.644C162.323 162.644 163.954 161.009 163.954 158.991C163.954 156.973 162.323 155.337 160.311 155.337C158.3 155.337 156.669 156.973 156.669 158.991C156.669 161.009 158.3 162.644 160.311 162.644Z" fill="white"/>
<path d="M141.303 107.426C143.314 107.426 144.945 105.79 144.945 103.772C144.945 101.754 143.314 100.119 141.303 100.119C139.291 100.119 137.66 101.754 137.66 103.772C137.66 105.79 139.291 107.426 141.303 107.426Z" fill="white"/>
<path d="M669.084 245.586L672.229 241.866L689.927 239.852L700.597 254.599L693.105 271.884L690.167 274.464L669.084 245.586Z" fill="#232323"/>
<path d="M686.873 243.646L669.084 245.586L661.865 262.014L672.436 276.495L690.225 274.556L697.444 258.127L686.873 243.646Z" fill="white"/>
<path d="M689.836 239.985L672.411 242.09L669.366 245.885L686.882 243.647L689.836 239.985Z" stroke="white" stroke-miterlimit="10" stroke-linejoin="bevel"/>
<path d="M686.882 243.647L689.927 239.852L700.597 254.599L696.88 258.386" stroke="white" stroke-miterlimit="10" stroke-linejoin="bevel"/>
<path d="M689.984 274.206L693.104 271.884L700.547 254.624" stroke="white" stroke-miterlimit="10" stroke-linejoin="bevel"/>
<path d="M669.673 268.298L668.379 266.542C667.466 265.31 667.731 263.995 669.051 263.021C670.096 262.247 671.482 262.114 672.395 263.346L672.428 263.396L671.756 263.895L671.722 263.845C671.15 263.08 670.229 263.104 669.49 263.654C668.611 264.311 668.42 265.193 669.017 265.992L670.345 267.79C670.942 268.597 671.847 268.739 672.718 268.09C673.34 267.624 673.598 266.966 673.465 266.192L672.859 265.368L671.623 266.284L671.2 265.709L673.108 264.295L675.149 267.066L674.768 267.349L674.087 266.808C674.12 267.574 673.83 268.223 673.141 268.73C671.897 269.671 670.569 269.513 669.673 268.298Z" fill="#232323"/>
<path d="M672.511 260.649L674.776 258.968C675.788 258.219 676.8 258.427 677.547 259.442C678.178 260.3 678.136 261.082 677.663 261.773L680.269 262.946L680.435 263.171L679.771 263.662L676.991 262.405L675.606 263.429L677.19 265.576L676.518 266.075L672.511 260.649ZM676.634 261.731C677.265 261.265 677.373 260.633 676.859 259.942C676.344 259.243 675.73 259.176 675.099 259.642L673.623 260.741L675.158 262.83L676.634 261.731Z" fill="#232323"/>
<path d="M680.833 262.522L679.016 255.822L679.688 255.323L685.546 259.026L685.711 259.251L685.048 259.742L683.446 258.702L681.115 260.433L681.621 262.289L680.999 262.747L680.833 262.522ZM682.816 258.277L680.003 256.48L680.891 259.709L682.816 258.277Z" fill="#232323"/>
<path d="M682.608 253.151L683.247 252.676L687.031 254.125L686.757 250.072L687.379 249.614L691.379 255.04L690.731 255.523L687.62 251.295L687.852 254.807L687.421 255.132L684.16 253.883L687.271 258.103L686.624 258.585L682.608 253.151Z" fill="#232323"/>
<path d="M304.85 209.125L308.808 211.963L312.268 229.49L298.486 241.366L280.697 235.299L277.893 232.578L304.85 209.125Z" fill="#232323"/>
<path d="M308.244 226.752L304.85 209.125L287.932 203.258L274.416 215.017L277.81 232.644L294.719 238.511L308.244 226.752Z" fill="white"/>
<path d="M312.127 229.407L308.6 212.163L304.576 209.433L308.244 226.76L312.127 229.407Z" stroke="white" stroke-miterlimit="10" stroke-linejoin="bevel"/>
<path d="M308.244 226.76L312.268 229.49L298.486 241.366L294.429 237.962" stroke="white" stroke-miterlimit="10" stroke-linejoin="bevel"/>
<path d="M278.133 232.378L280.697 235.299L298.461 241.324" stroke="white" stroke-miterlimit="10" stroke-linejoin="bevel"/>
<path d="M282.331 211.589L283.966 210.157C285.119 209.15 286.438 209.3 287.517 210.54C288.372 211.522 288.612 212.895 287.467 213.911L287.426 213.952L286.878 213.32L286.92 213.278C287.633 212.646 287.534 211.73 286.928 211.031C286.206 210.207 285.31 210.091 284.563 210.748L282.887 212.221C282.132 212.879 282.066 213.802 282.779 214.618C283.294 215.209 283.966 215.409 284.721 215.209L285.484 214.535L284.472 213.378L285.011 212.912L286.571 214.701L283.991 216.965L283.684 216.607L284.165 215.883C283.41 215.983 282.738 215.742 282.174 215.092C281.145 213.919 281.203 212.579 282.331 211.589Z" fill="#232323"/>
<path d="M290.172 213.786L292.031 215.908C292.86 216.857 292.736 217.889 291.79 218.721C290.985 219.428 290.205 219.445 289.484 219.029L288.529 221.725L288.322 221.908L287.774 221.284L288.795 218.396L287.658 217.098L285.65 218.854L285.103 218.221L290.172 213.786ZM289.425 218.005C289.948 218.604 290.579 218.646 291.218 218.08C291.865 217.506 291.89 216.89 291.367 216.291L290.156 214.901L288.206 216.607L289.425 218.005Z" fill="#232323"/>
<path d="M288.994 222.266L295.499 219.895L296.046 220.527L292.852 226.694L292.644 226.877L292.097 226.253L293.001 224.563L291.093 222.375L289.292 223.032L288.786 222.45L288.994 222.266ZM293.366 223.898L294.926 220.943L291.79 222.092L293.366 223.898Z" fill="#232323"/>
<path d="M298.444 223.273L298.967 223.872L297.838 227.776L301.846 227.168L302.352 227.751L297.291 232.195L296.76 231.587L300.701 228.125L297.233 228.649L296.876 228.242L297.847 224.879L293.914 228.333L293.383 227.726L298.444 223.273Z" fill="#232323"/>
<path d="M103.873 231.562L108.735 226.611L134.108 225.612L147.724 247.708L135.253 271.493L130.806 274.839L103.873 231.562Z" fill="#232323"/>
<path d="M129.371 230.688L103.873 231.562L91.8838 254.149L105.392 275.854L130.881 274.98L142.871 252.393L129.371 230.688Z" fill="white"/>
<path d="M133.96 225.787L108.977 226.952L104.247 232.028L129.38 230.688L133.96 225.787Z" stroke="white" stroke-miterlimit="10" stroke-linejoin="bevel"/>
<path d="M129.379 230.688L134.108 225.612L147.724 247.708L142.041 252.693" stroke="white" stroke-miterlimit="10" stroke-linejoin="bevel"/>
<path d="M130.582 274.456L135.253 271.493L147.65 247.741" stroke="white" stroke-miterlimit="10" stroke-linejoin="bevel"/>
<path d="M102.33 263.912L100.679 261.282C99.5173 259.434 100.032 257.595 101.998 256.347C103.566 255.356 105.549 255.323 106.719 257.162L106.761 257.229L105.749 257.87L105.707 257.803C104.969 256.663 103.666 256.588 102.554 257.295C101.235 258.128 100.878 259.368 101.633 260.574L103.326 263.271C104.089 264.477 105.359 264.777 106.67 263.953C107.607 263.362 108.039 262.447 107.922 261.34L107.151 260.108L105.292 261.282L104.753 260.424L107.615 258.61L110.229 262.763L109.665 263.121L108.752 262.289C108.727 263.379 108.238 264.278 107.201 264.927C105.342 266.1 103.467 265.726 102.33 263.912Z" fill="#232323"/>
<path d="M107.159 253.334L110.553 251.187C112.071 250.23 113.49 250.629 114.444 252.152C115.257 253.442 115.108 254.549 114.361 255.473L117.937 257.42L118.153 257.761L117.157 258.394L113.332 256.313L111.258 257.628L113.283 260.849L112.27 261.49L107.159 253.334ZM112.909 255.314C113.863 254.715 114.071 253.833 113.415 252.801C112.76 251.753 111.889 251.586 110.943 252.185L108.727 253.583L110.694 256.713L112.909 255.314Z" fill="#232323"/>
<path d="M118.8 256.871L116.917 247.158L117.929 246.518L125.87 252.402L126.085 252.743L125.09 253.375L122.916 251.727L119.414 253.941L119.937 256.629L119.008 257.212L118.8 256.871ZM122.061 251.062L118.253 248.207L119.174 252.893L122.061 251.062Z" fill="#232323"/>
<path d="M122.31 243.746L123.272 243.139L128.499 245.602L128.533 239.81L129.462 239.227L134.581 247.367L133.61 247.982L129.628 241.649L129.586 246.659L128.939 247.067L124.434 244.945L128.408 251.27L127.437 251.886L122.31 243.746Z" fill="#232323"/>
<path d="M347.88 72.2466L350.427 74.0692L352.651 85.3627L343.781 93.011L332.322 89.0994L330.514 87.3517L347.88 72.2466Z" fill="#232323"/>
<path d="M350.062 83.5984L347.88 72.2466L336.986 68.4683L328.273 76.0416L330.464 87.3934L341.35 91.1718L350.062 83.5984Z" fill="white"/>
<path d="M352.559 85.3044L350.286 74.2023L347.697 72.4463L350.062 83.5983L352.559 85.3044Z" stroke="white" stroke-miterlimit="10" stroke-linejoin="bevel"/>
<path d="M350.062 83.5981L352.651 85.3625L343.781 93.0108L341.159 90.822" stroke="white" stroke-miterlimit="10" stroke-linejoin="bevel"/>
<path d="M330.671 87.2188L332.322 89.0996L343.756 92.9779" stroke="white" stroke-miterlimit="10" stroke-linejoin="bevel"/>
<path d="M333.377 73.8276L334.43 72.9039C335.169 72.2547 336.023 72.3546 336.72 73.1452C337.268 73.7777 337.426 74.6599 336.687 75.3174L336.662 75.3423L336.306 74.9345L336.33 74.9096C336.787 74.5018 336.729 73.9109 336.33 73.4615C335.866 72.9288 335.293 72.8539 334.804 73.2784L333.725 74.2271C333.244 74.6516 333.194 75.2425 333.659 75.7751C333.991 76.1496 334.422 76.2828 334.912 76.1496L335.409 75.7168L334.754 74.9678L335.102 74.6682L336.106 75.825L334.447 77.2814L334.248 77.0484L334.555 76.5824C334.065 76.6489 333.634 76.4908 333.269 76.0747C332.613 75.334 332.646 74.4685 333.377 73.8276Z" fill="#232323"/>
<path d="M338.421 75.251L339.616 76.6242C340.147 77.24 340.073 77.8975 339.459 78.4385C338.944 78.8962 338.438 78.9045 337.973 78.6382L337.359 80.3776L337.227 80.4941L336.878 80.0946L337.534 78.2387L336.804 77.3982L335.509 78.53L335.152 78.1222L338.421 75.251ZM337.949 77.9641C338.28 78.3469 338.687 78.3802 339.102 78.014C339.525 77.6478 339.533 77.2484 339.201 76.8655L338.421 75.975L337.169 77.0736L337.949 77.9641Z" fill="#232323"/>
<path d="M337.666 80.7105L341.857 79.1875L342.213 79.5953L340.156 83.5651L340.023 83.6816L339.674 83.2821L340.255 82.1919L339.027 80.7771L337.866 81.2015L337.542 80.827L337.666 80.7105ZM340.479 81.7591L341.483 79.8533L339.467 80.594L340.479 81.7591Z" fill="#232323"/>
<path d="M343.748 81.3594L344.088 81.7505L343.358 84.2639L345.939 83.8727L346.262 84.2473L343.001 87.1102L342.661 86.719L345.2 84.4886L342.968 84.8215L342.736 84.5635L343.358 82.3997L340.827 84.6218L340.487 84.2306L343.748 81.3594Z" fill="#232323"/>
<path d="M137.56 366.202L140.116 368.033L142.339 379.318L133.47 386.967L122.011 383.063L120.202 381.307L137.56 366.202Z" fill="#232323"/>
<path d="M139.751 377.554L137.56 366.202L126.674 362.432L117.962 370.006L120.144 381.349L131.038 385.127L139.751 377.554Z" fill="white"/>
<path d="M142.248 379.268L139.975 368.166L137.386 366.402L139.75 377.562L142.248 379.268Z" stroke="white" stroke-miterlimit="10" stroke-linejoin="bevel"/>
<path d="M139.751 377.562L142.339 379.318L133.47 386.967L130.848 384.778" stroke="white" stroke-miterlimit="10" stroke-linejoin="bevel"/>
<path d="M120.359 381.183L122.011 383.063L133.444 386.942" stroke="white" stroke-miterlimit="10" stroke-linejoin="bevel"/>
<path d="M123.065 367.792L124.119 366.868C124.857 366.219 125.712 366.319 126.409 367.109C126.957 367.742 127.114 368.624 126.376 369.281L126.351 369.306L125.994 368.899L126.019 368.874C126.475 368.466 126.417 367.875 126.019 367.426C125.554 366.893 124.982 366.818 124.492 367.242L123.414 368.191C122.932 368.616 122.883 369.207 123.347 369.739C123.679 370.114 124.111 370.247 124.6 370.114L125.098 369.681L124.442 368.932L124.791 368.632L125.795 369.789L124.135 371.246L123.936 371.013L124.243 370.546C123.754 370.613 123.322 370.455 122.957 370.039C122.302 369.29 122.335 368.424 123.065 367.792Z" fill="#232323"/>
<path d="M128.11 369.207L129.305 370.58C129.836 371.196 129.761 371.853 129.147 372.394C128.633 372.852 128.127 372.86 127.662 372.594L127.048 374.333L126.915 374.45L126.567 374.05L127.222 372.194L126.492 371.354L125.198 372.486L124.841 372.078L128.11 369.207ZM127.629 371.92C127.961 372.302 128.367 372.336 128.782 371.97C129.205 371.603 129.213 371.204 128.882 370.821L128.102 369.931L126.849 371.029L127.629 371.92Z" fill="#232323"/>
<path d="M127.355 374.666L131.545 373.143L131.902 373.551L129.844 377.521L129.711 377.637L129.363 377.238L129.944 376.147L128.716 374.733L127.554 375.157L127.23 374.783L127.355 374.666ZM130.168 375.715L131.172 373.809L129.155 374.55L130.168 375.715Z" fill="#232323"/>
<path d="M133.437 375.315L133.777 375.706L133.047 378.22L135.627 377.829L135.951 378.203L132.69 381.066L132.35 380.675L134.889 378.444L132.657 378.777L132.424 378.519L133.047 376.355L130.516 378.578L130.176 378.186L133.437 375.315Z" fill="#232323"/>
<path d="M356.493 344.789L358.161 342.134L369.263 339.238L377.402 347.676L374.183 359.378L372.54 361.284L356.493 344.789Z" fill="#232323"/>
<path d="M367.661 341.934L356.493 344.789L353.373 355.916L361.421 364.197L372.59 361.342L375.709 350.215L367.661 341.934Z" fill="white"/>
<path d="M369.212 339.329L358.302 342.259L356.7 344.955L367.669 341.934L369.212 339.329Z" stroke="white" stroke-miterlimit="10" stroke-linejoin="bevel"/>
<path d="M367.669 341.934L369.262 339.238L377.402 347.676L375.369 350.423" stroke="white" stroke-miterlimit="10" stroke-linejoin="bevel"/>
<path d="M372.407 361.142L374.183 359.378L377.369 347.693" stroke="white" stroke-miterlimit="10" stroke-linejoin="bevel"/>
<path d="M358.915 359.22L357.936 358.221C357.248 357.514 357.297 356.656 358.044 355.916C358.641 355.325 359.513 355.117 360.21 355.816L360.235 355.841L359.853 356.224L359.828 356.199C359.397 355.766 358.807 355.866 358.384 356.282C357.878 356.781 357.845 357.355 358.293 357.822L359.297 358.845C359.745 359.303 360.342 359.311 360.84 358.82C361.197 358.471 361.305 358.021 361.147 357.547L360.683 357.081L359.977 357.78L359.654 357.455L360.741 356.382L362.292 357.963L362.077 358.179L361.595 357.896C361.687 358.379 361.554 358.82 361.164 359.211C360.459 359.894 359.596 359.91 358.915 359.22Z" fill="#232323"/>
<path d="M360.035 354.076L361.33 352.803C361.91 352.229 362.574 352.27 363.138 352.853C363.62 353.344 363.661 353.843 363.42 354.326L365.188 354.842L365.312 354.967L364.931 355.341L363.047 354.792L362.259 355.574L363.462 356.798L363.08 357.181L360.035 354.076ZM362.765 354.401C363.13 354.043 363.138 353.635 362.748 353.244C362.358 352.845 361.96 352.853 361.595 353.211L360.749 354.043L361.919 355.233L362.765 354.401Z" fill="#232323"/>
<path d="M365.511 354.518L363.744 350.415L364.126 350.032L368.2 351.863L368.324 351.987L367.943 352.362L366.822 351.846L365.487 353.161L365.976 354.301L365.619 354.651L365.511 354.518ZM366.391 351.638L364.433 350.747L365.287 352.728L366.391 351.638Z" fill="#232323"/>
<path d="M365.802 348.384L366.167 348.026L368.714 348.609L368.175 346.045L368.532 345.696L371.577 348.792L371.203 349.158L368.839 346.744L369.303 348.958L369.054 349.2L366.864 348.7L369.229 351.105L368.855 351.472L365.802 348.384Z" fill="#232323"/>
<path d="M673.921 133.366L677.016 133.832L684.11 142.879L679.671 153.739L667.689 155.471L665.283 154.73L673.921 133.366Z" fill="#232323"/>
<path d="M681.007 142.488L673.921 133.366L662.504 134.964L658.173 145.675L665.259 154.796L676.676 153.198L681.007 142.488Z" fill="white"/>
<path d="M684.01 142.87L676.958 134.015L673.854 133.624L681.007 142.496L684.01 142.87Z" stroke="white" stroke-miterlimit="10" stroke-linejoin="bevel"/>
<path d="M681.007 142.496L684.11 142.879L679.671 153.739L676.344 152.974" stroke="white" stroke-miterlimit="10" stroke-linejoin="bevel"/>
<path d="M665.366 154.547L667.689 155.471L679.638 153.723" stroke="white" stroke-miterlimit="10" stroke-linejoin="bevel"/>
<path d="M661.716 141.381L662.239 140.074C662.604 139.159 663.409 138.859 664.388 139.25C665.168 139.558 665.707 140.282 665.342 141.198L665.326 141.231L664.828 141.031L664.844 140.998C665.068 140.424 664.745 139.924 664.189 139.708C663.533 139.442 662.986 139.641 662.753 140.24L662.222 141.58C661.982 142.18 662.214 142.729 662.861 142.987C663.326 143.17 663.774 143.095 664.147 142.754L664.388 142.146L663.467 141.78L663.641 141.356L665.06 141.922L664.239 143.977L663.956 143.861L664.015 143.303C663.608 143.586 663.152 143.636 662.645 143.436C661.716 143.07 661.359 142.288 661.716 141.381Z" fill="#232323"/>
<path d="M666.86 140.349L668.545 141.023C669.3 141.322 669.524 141.955 669.225 142.704C668.968 143.345 668.528 143.578 667.989 143.553L668.229 145.384L668.163 145.55L667.665 145.35L667.408 143.395L666.379 142.979L665.74 144.576L665.242 144.377L666.86 140.349ZM667.657 142.987C668.13 143.178 668.503 143.02 668.71 142.504C668.918 141.988 668.752 141.622 668.279 141.431L667.184 140.989L666.561 142.537L667.657 142.987Z" fill="#232323"/>
<path d="M668.653 145.559L671.698 142.288L672.196 142.488L672.163 146.965L672.096 147.131L671.598 146.932L671.623 145.7L669.889 145.001L669.051 145.908L668.595 145.725L668.653 145.559ZM671.64 145.209L671.673 143.054L670.213 144.635L671.64 145.209Z" fill="#232323"/>
<path d="M674.369 143.361L674.851 143.553L675.34 146.124L677.464 144.601L677.921 144.784L676.311 148.821L675.83 148.629L677.083 145.484L675.241 146.798L674.917 146.665L674.494 144.452L673.241 147.589L672.76 147.398L674.369 143.361Z" fill="#232323"/>
<path d="M818.121 140.041L818.867 143.087L813.225 153.107L801.526 153.116L795.37 142.663L795.146 140.149L818.121 140.041Z" fill="#232323"/>
<path d="M812.412 150.078L818.12 140.041L812.312 130.054L800.787 130.112L795.07 140.149L800.878 150.136L812.412 150.078Z" fill="white"/>
<path d="M813.2 153.007L818.684 143.096L817.855 140.074L812.403 150.078L813.2 153.007Z" stroke="white" stroke-miterlimit="10" stroke-linejoin="bevel"/>
<path d="M812.403 150.078L813.225 153.107L801.526 153.116L800.97 149.745" stroke="white" stroke-miterlimit="10" stroke-linejoin="bevel"/>
<path d="M795.345 140.158L795.37 142.663L801.535 153.082" stroke="white" stroke-miterlimit="10" stroke-linejoin="bevel"/>
<path d="M806.089 131.76L807.491 131.744C808.479 131.735 809.06 132.368 809.068 133.425C809.076 134.265 808.62 135.039 807.632 135.056H807.599L807.591 134.515H807.624C808.238 134.507 808.57 134.016 808.57 133.417C808.562 132.709 808.172 132.276 807.533 132.285L806.097 132.301C805.45 132.31 805.035 132.726 805.044 133.433C805.052 133.933 805.293 134.315 805.749 134.54L806.404 134.532L806.396 133.541L806.852 133.533L806.869 135.064L804.662 135.089V134.781L805.201 134.623C804.786 134.357 804.562 133.949 804.554 133.4C804.537 132.41 805.127 131.777 806.089 131.76Z" fill="#232323"/>
<path d="M809.002 136.138L809.018 137.961C809.026 138.776 808.537 139.226 807.724 139.234C807.035 139.242 806.653 138.918 806.471 138.41L804.878 139.325H804.695L804.687 138.793L806.396 137.811L806.388 136.696L804.67 136.712L804.662 136.171L809.002 136.138ZM806.878 137.886C806.886 138.393 807.168 138.685 807.724 138.676C808.28 138.668 808.553 138.377 808.545 137.869L808.537 136.679L806.869 136.696L806.878 137.886Z" fill="#232323"/>
<path d="M804.878 139.783L809.051 141.364L809.06 141.905L804.919 143.57H804.737L804.728 143.037L805.874 142.588L805.857 140.715L804.704 140.283L804.695 139.783H804.878ZM806.338 142.421L808.338 141.631L806.322 140.873L806.338 142.421Z" fill="#232323"/>
<path d="M809.076 144.252L809.085 144.768L806.902 146.2L809.118 147.589L809.126 148.089L804.795 148.13L804.787 147.606L808.164 147.573L806.255 146.366V146.017L808.139 144.785L804.77 144.818L804.762 144.294L809.076 144.252Z" fill="#232323"/>
<path d="M964.708 78.8047L965.463 81.859L959.812 91.8792L948.113 91.8875L941.956 81.4346L941.732 78.9212L964.708 78.8047Z" fill="#232323"/>
<path d="M958.999 88.8499L964.708 78.8047L958.9 68.8262L947.375 68.8761L941.658 78.9212L947.475 88.8998L958.999 88.8499Z" fill="white"/>
<path d="M959.788 91.7792L965.272 81.8672L964.451 78.8379L958.991 88.8497L959.788 91.7792Z" stroke="white" stroke-miterlimit="10" stroke-linejoin="bevel"/>
<path d="M958.991 88.85L959.813 91.8794L948.114 91.8877L947.558 88.5088" stroke="white" stroke-miterlimit="10" stroke-linejoin="bevel"/>
<path d="M941.933 78.9214L941.958 81.4347L948.122 91.8461" stroke="white" stroke-miterlimit="10" stroke-linejoin="bevel"/>
<path d="M952.677 70.5323L954.079 70.5157C955.067 70.5074 955.647 71.1399 955.656 72.1968C955.664 73.0374 955.208 73.8114 954.22 73.828H954.187L954.179 73.2871H954.212C954.826 73.2787 955.158 72.7877 955.158 72.1885C955.15 71.4811 954.76 71.0483 954.121 71.0567L952.685 71.0733C952.038 71.0816 951.623 71.4977 951.632 72.2051C951.64 72.7045 951.88 73.0873 952.337 73.312L952.992 73.3037L952.984 72.3133L953.44 72.305L953.457 73.8363L951.25 73.8613V73.5534L951.789 73.3952C951.374 73.1289 951.15 72.7211 951.142 72.1719C951.125 71.1732 951.715 70.5407 952.677 70.5323Z" fill="#232323"/>
<path d="M955.589 74.9102L955.606 76.7328C955.614 77.5484 955.125 77.9978 954.312 78.0061C953.623 78.0144 953.241 77.6898 953.059 77.1822L951.466 78.0976H951.283L951.275 77.565L952.984 76.583L952.976 75.4678L951.258 75.4844L951.25 74.9434L955.589 74.9102ZM953.465 76.6579C953.474 77.1655 953.756 77.4568 954.312 77.4485C954.868 77.4402 955.141 77.1489 955.133 76.6412L955.125 75.4511L953.457 75.4678L953.465 76.6579Z" fill="#232323"/>
<path d="M951.466 78.5552L955.639 80.1364L955.648 80.6774L951.507 82.3419H951.325L951.316 81.8092L952.461 81.3598L952.445 79.4873L951.292 79.0545L951.283 78.5552H951.466ZM952.926 81.1934L954.926 80.4027L952.909 79.6454L952.926 81.1934Z" fill="#232323"/>
<path d="M955.664 83.0244L955.673 83.5404L953.49 84.9719L955.706 86.3617L955.714 86.861L951.383 86.9027L951.375 86.3783L954.752 86.3451L952.843 85.1383V84.7888L954.727 83.557L951.358 83.5903L951.35 83.066L955.664 83.0244Z" fill="#232323"/>
<path d="M661.824 414.064L662.571 417.119L656.929 427.139L645.23 427.147L639.073 416.694L638.841 414.181L661.824 414.064Z" fill="#232323"/>
<path d="M656.107 424.109L661.824 414.064L656.016 404.086L644.483 404.136L638.774 414.181L644.583 424.159L656.107 424.109Z" fill="white"/>
<path d="M656.896 427.039L662.38 417.127L661.559 414.098L656.107 424.109L656.896 427.039Z" stroke="white" stroke-miterlimit="10" stroke-linejoin="bevel"/>
<path d="M656.108 424.109L656.929 427.139L645.23 427.147L644.666 423.768" stroke="white" stroke-miterlimit="10" stroke-linejoin="bevel"/>
<path d="M639.049 414.181L639.074 416.694L645.239 427.105" stroke="white" stroke-miterlimit="10" stroke-linejoin="bevel"/>
<path d="M649.793 405.792L651.195 405.775C652.183 405.767 652.764 406.399 652.772 407.456C652.78 408.297 652.324 409.071 651.336 409.088H651.303L651.295 408.547H651.328C651.942 408.538 652.274 408.047 652.274 407.448C652.266 406.741 651.876 406.308 651.237 406.316L649.802 406.333C649.154 406.341 648.739 406.757 648.748 407.465C648.756 407.964 648.997 408.347 649.453 408.572L650.109 408.563L650.1 407.573L650.557 407.565L650.573 409.096L648.366 409.121V408.813L648.905 408.655C648.491 408.388 648.266 407.981 648.258 407.431C648.242 406.433 648.822 405.8 649.793 405.792Z" fill="#232323"/>
<path d="M652.698 410.169L652.714 411.992C652.723 412.808 652.233 413.257 651.42 413.265C650.731 413.274 650.35 412.949 650.167 412.441L648.574 413.357H648.392L648.383 412.824L650.093 411.842L650.084 410.727L648.367 410.744L648.358 410.203L652.698 410.169ZM650.574 411.917C650.582 412.425 650.864 412.716 651.42 412.708C651.976 412.699 652.25 412.408 652.242 411.901L652.233 410.71L650.565 410.727L650.574 411.917Z" fill="#232323"/>
<path d="M648.582 413.815L652.755 415.396L652.764 415.937L648.623 417.601H648.441L648.433 417.069L649.578 416.619L649.561 414.747L648.408 414.314L648.399 413.815H648.582ZM650.034 416.453L652.034 415.662L650.017 414.905L650.034 416.453Z" fill="#232323"/>
<path d="M652.78 418.284L652.789 418.8L650.607 420.231L652.822 421.621L652.83 422.12L648.499 422.162L648.491 421.638L651.868 421.604L649.959 420.398V420.048L651.843 418.816L648.474 418.85L648.466 418.325L652.78 418.284Z" fill="#232323"/>
<path d="M883.046 360.094L885.718 358.454L896.952 360.801L900.52 371.978L892.463 381.033L890.148 382.023L883.046 360.094Z" fill="#232323"/>
<path d="M894.322 362.507L883.046 360.094L875.338 368.691L878.897 379.684L890.165 382.09L897.882 373.501L894.322 362.507Z" fill="white"/>
<path d="M896.869 360.859L885.784 358.629L883.162 360.343L894.322 362.507L896.869 360.859Z" stroke="white" stroke-miterlimit="10" stroke-linejoin="bevel"/>
<path d="M894.322 362.507L896.953 360.801L900.52 371.978L897.484 373.534" stroke="white" stroke-miterlimit="10" stroke-linejoin="bevel"/>
<path d="M890.091 381.823L892.464 381.033L900.479 371.978" stroke="white" stroke-miterlimit="10" stroke-linejoin="bevel"/>
<path d="M878.847 374.109L878.408 372.777C878.101 371.837 878.524 371.087 879.528 370.763C880.324 370.497 881.196 370.705 881.511 371.637L881.519 371.67L881.005 371.837L880.997 371.803C880.797 371.221 880.233 371.046 879.669 371.237C878.997 371.462 878.707 371.961 878.906 372.577L879.354 373.942C879.553 374.558 880.084 374.824 880.748 374.608C881.221 374.45 881.511 374.1 881.586 373.601L881.378 372.977L880.441 373.285L880.3 372.852L881.752 372.369L882.44 374.475L882.15 374.566L881.843 374.1C881.71 374.575 881.403 374.916 880.88 375.091C879.935 375.399 879.155 375.032 878.847 374.109Z" fill="#232323"/>
<path d="M882.125 369.997L883.851 369.423C884.622 369.165 885.203 369.498 885.452 370.272C885.668 370.929 885.485 371.395 885.054 371.72L886.407 372.968L886.465 373.143L885.958 373.31L884.506 371.978L883.453 372.328L883.992 373.959L883.477 374.125L882.125 369.997ZM884.423 371.504C884.905 371.345 885.095 370.979 884.921 370.455C884.747 369.922 884.382 369.756 883.901 369.914L882.78 370.289L883.303 371.878L884.423 371.504Z" fill="#232323"/>
<path d="M886.838 372.827L887.07 368.358L887.585 368.191L890.431 371.637L890.489 371.812L889.983 371.978L889.211 371.021L887.435 371.612L887.369 372.852L886.896 373.01L886.838 372.827ZM888.904 370.638L887.543 368.965L887.435 371.121L888.904 370.638Z" fill="#232323"/>
<path d="M889.809 367.459L890.298 367.301L892.323 368.957L892.97 366.419L893.443 366.26L894.804 370.388L894.306 370.555L893.252 367.342L892.688 369.54L892.356 369.648L890.613 368.225L891.667 371.437L891.169 371.603L889.809 367.459Z" fill="#232323"/>
<path d="M192.115 60.5205L182.216 76.0917C181.611 77.0488 182.017 78.3304 183.063 78.7549L221.521 94.3511L192.115 60.5205Z" fill="#FF2100"/>
<path d="M208.312 48.2283L223.239 91.6962C224.21 94.5341 221.065 97.0058 218.551 95.3747L174.368 66.6457C171.763 64.948 172.916 60.9033 176.019 60.8367L192.116 60.5288L202.894 47.2629C204.454 45.3404 207.507 45.8897 208.312 48.2283Z" fill="#FF2100"/>
<path d="M192.115 60.5205L222.35 94.9336C222.35 94.9336 220.956 96.7313 218.55 95.3664C216.144 94.0015 176.383 68.1605 174.218 66.5293C172.052 64.8981 172.509 60.9117 176.018 60.8284C179.603 60.7535 192.115 60.5205 192.115 60.5205Z" fill="#FF4C43"/>
<path d="M872.284 241.483L862.568 258.585C861.971 259.634 860.568 259.883 859.647 259.109L825.869 230.489L872.284 241.483Z" fill="#FF2100"/>
<path d="M875.794 220.052L827.52 227.543C824.367 228.034 823.612 232.245 826.392 233.801L875.362 261.298C878.25 262.921 881.486 259.817 880 256.854L872.292 241.483L879.395 224.696C880.424 222.266 878.391 219.645 875.794 220.052Z" fill="#FF2100"/>
<path d="M872.284 241.483L824.907 229.998C824.907 229.998 823.903 232.212 826.384 233.809C828.865 235.407 872.923 260.158 875.529 261.398C878.134 262.638 881.66 260.216 879.992 256.863C878.292 253.434 872.284 241.483 872.284 241.483Z" fill="#FF4C43"/>
<path d="M560.531 58.4981L545.223 85.4461C544.277 87.1022 542.07 87.5017 540.618 86.27L487.391 41.1709L560.531 58.4981Z" fill="#FF2100"/>
<path d="M566.057 24.7341L489.987 36.5353C485.017 37.3093 483.831 43.9422 488.212 46.4057L565.376 89.7404C569.923 92.2954 575.026 87.4018 572.678 82.7329L560.531 58.5064L571.732 32.0495C573.35 28.2212 570.147 24.1016 566.057 24.7341Z" fill="#FF2100"/>
<path d="M560.531 58.4982L485.872 40.397C485.872 40.397 484.295 43.8841 488.203 46.4057C492.112 48.9274 561.535 87.9262 565.642 89.8736C569.749 91.8211 575.3 88.0177 572.67 82.7247C569.998 77.3318 560.531 58.4982 560.531 58.4982Z" fill="#FF4C43"/>
<path d="M184.241 47.1964C182.996 46.1062 181.685 45.0825 180.316 44.1338" stroke="#FF2100" stroke-miterlimit="10"/>
<path d="M171.621 39.3317C138.606 25.0422 86.6406 41.4956 86.6406 87.2854C86.6406 139.525 156.172 146.441 208.835 185.182C264.576 226.186 294.911 293.098 366.383 293.098C459.902 293.098 548.019 198.273 667.143 198.273C716.719 198.273 764.063 215.966 764.063 255.073C764.063 272.342 750.713 288.563 732.476 290.76" stroke="#FF2100" stroke-miterlimit="10" stroke-dasharray="11.98 11.98"/>
<path d="M727.497 290.993C725.871 290.96 724.22 290.818 722.544 290.552" stroke="#FF2100" stroke-miterlimit="10"/>
<path d="M405.961 118.245H618.255C632.858 118.245 642.259 133.783 635.505 146.774L529.349 351.022C522.081 365.012 502.118 365.012 494.849 351.022L388.711 146.774C381.957 133.783 391.358 118.245 405.961 118.245Z" fill="#232323" stroke="white" stroke-width="8" stroke-miterlimit="10"/>
<path d="M512.1 119.019V362.033" stroke="white" stroke-width="8" stroke-miterlimit="10"/>
<path d="M892.555 243.422C892.555 243.422 993.159 263.654 993.159 350.922C993.159 407.739 966.774 457.274 886.332 457.274C796.829 457.274 763.267 371.445 656.97 371.445C564.63 371.445 578.171 418.783 452.583 418.783C326.996 418.783 289.807 319.139 185.162 348.484" stroke="#FF2100" stroke-miterlimit="10" stroke-dasharray="12 12"/>
<path d="M196.654 338.872L199.633 369.739C199.816 371.637 201.674 372.902 203.5 372.378L270.459 353.061L196.654 338.872Z" fill="#FF2100"/>
<path d="M205.376 305.798L269.978 347.776C274.193 350.515 272.584 357.064 267.572 357.505L179.488 365.395C174.294 365.861 171.639 359.303 175.68 355.999L196.647 338.872L197.22 310.134C197.302 305.981 201.899 303.535 205.376 305.798Z" fill="#FF2100"/>
<path d="M196.654 338.872L272.159 352.978C272.159 352.978 272.176 356.806 267.579 357.497C262.983 358.188 183.735 365.304 179.188 365.395C174.642 365.487 171.132 359.736 175.687 355.991C180.333 352.179 196.654 338.872 196.654 338.872Z" fill="#FF4C43"/>
<path d="M573.624 57.6411C573.624 57.6411 640.982 73.6784 633.713 114.425C625.275 161.746 565.684 141.822 532.412 140.823C492.128 139.617 365.056 134.848 365.056 240.443" stroke="#FF2100" stroke-miterlimit="10" stroke-dasharray="12 12"/>
<path d="M568.513 390.329L579.415 405.209C580.087 406.125 581.423 406.208 582.195 405.376L610.563 375.024L568.513 390.329Z" fill="#FF2100"/>
<path d="M562.92 370.746L608.721 372.461C611.708 372.569 612.87 376.414 610.447 378.17L567.799 409.137C565.285 410.96 561.933 408.422 562.995 405.501L568.513 390.329L560.066 375.457C558.846 373.31 560.456 370.655 562.92 370.746Z" fill="#FF2100"/>
<path d="M568.513 390.329L611.419 374.458C611.419 374.458 612.588 376.414 610.448 378.17C608.307 379.926 569.94 407.797 567.642 409.237C565.344 410.677 561.801 408.804 562.996 405.501C564.215 402.122 568.513 390.329 568.513 390.329Z" fill="#FF4C43"/>
</svg>
