<svg width="62" height="70" viewBox="0 0 62 70" fill="none" xmlns="http://www.w3.org/2000/svg">
<path fill-rule="evenodd" clip-rule="evenodd" d="M44.5427 39.6353H52.3683C56.6911 39.6353 57.3268 42.4227 57.3268 43.9665C57.3268 45.5103 56.237 47.6216 53.2402 47.6216H44.5427V39.6353ZM52.0861 54.5764C57.7508 54.5764 61.7764 49.506 61.7764 43.7851C61.7764 38.3662 58.1452 32.8313 50.4447 32.7707L33.6251 32.7692V39.6353H40.1078V57.094H33.6251V63.9601H40.1078V70H44.5426V63.9601H55.2825V57.094H44.5426V54.5764H52.0861Z" fill="#FBFBFB"/>
<path fill-rule="evenodd" clip-rule="evenodd" d="M29.7291 29.1441C29.7291 22.0355 24.6943 19.6959 19.4644 19.2603C16.1182 18.9816 13.5341 18.8306 10.9557 18.5582C8.13525 18.2602 5.07854 17.0257 5.07854 14.5102C5.07854 11.5252 8.60887 10.5407 11.3448 10.5407C20.5484 10.5407 26.0373 14.5333 26.0373 14.5333V7.05608C23.463 5.07938 18.627 3.67458 18.627 3.67458V0H14.1922V3.67458H11.8163V0H7.38146V3.83095C3.52083 5.48965 0 8.12762 0 14.4474C0 21.556 6.4222 24.7036 11.9012 25.1906C15.7687 25.5344 18.864 25.5478 21.0114 25.8781C23.2459 26.2219 24.5724 27.0697 24.5724 29.4447C24.5724 32.4478 21.3831 33.2198 17.3286 33.2198C7.35882 33.2198 1.6933 29.6398 1.6933 29.6398V37.117C4.05881 39.0937 8.2399 39.664 8.2399 39.664V45.0172H12.6747V40.0858H15.0507V45.1299H19.4855V40.0858C25.9962 39.4575 29.7291 35.2076 29.7291 29.1441Z" fill="#FBFBFB"/>
</svg>
