<svg width="104" height="104" fill="none" xmlns="http://www.w3.org/2000/svg"><path d="M58.3 65.303H47.28V56.26H58.42c3.894 0 5.571 1.77 5.571 4.752 0 2.616-2.016 4.29-5.69 4.29zm-1.497-26.606c5.252 0 6.03 2.963 6.03 4.79 0 1.809-1.757 4.598-5.99 4.598h-9.565v-9.388h9.525zm3.734 12.774c6.09-1.289 8.746-5.867 8.746-9.6 0-6.367-6.03-11.254-13.718-11.254V25h-5.391v5.617h-2.895V25h-5.392v5.617H34v8.06h7.887v26.587H34.06v8.176h7.827v5.522h5.392V73.44h2.935V79h5.391v-5.56C66.447 73.44 71 68.054 71 61.32c0-5.405-4.912-9.33-10.463-9.849z" fill="#5835FF"/></svg>