<svg width="104" height="104" fill="none" xmlns="http://www.w3.org/2000/svg"><path d="M40.333 47.846h-8.375V39.54h-5.583v8.307H18v5.539h8.375v8.307h5.583v-8.307h8.375v-5.539zm27.917 2.77c4.634 0 8.347-3.711 8.347-8.308 0-4.597-3.713-8.308-8.347-8.308a8.41 8.41 0 00-2.54.388 13.59 13.59 0 012.512 7.92c0 2.963-.95 5.649-2.512 7.92a8.41 8.41 0 002.54.387zm-13.958 0c4.634 0 8.347-3.711 8.347-8.308 0-4.597-3.713-8.308-8.347-8.308-4.635 0-8.375 3.71-8.375 8.308 0 4.597 3.74 8.307 8.375 8.307zm18.48 5.98c2.318 2.023 3.853 4.598 3.853 7.866V70H85v-5.538c0-4.265-6.616-6.896-12.228-7.865zm-18.48-.442c-5.584 0-16.75 2.77-16.75 8.307V70h33.5v-5.538c0-5.539-11.167-8.308-16.75-8.308z" fill="#5835FF"/></svg>