<svg width="15" height="19" fill="none" xmlns="http://www.w3.org/2000/svg"><path fill-rule="evenodd" clip-rule="evenodd" d="M10.51 5.526c-.858 0-1.444.223-1.933.408h-.002c-.37.142-.643.242-.955.242-.351 0-.674-.112-1.103-.266l-.014-.005c-.479-.17-1.06-.378-1.782-.378-1.413 0-2.817.853-3.686 2.192C.365 8.754.14 10.146.3 11.605c.159 1.463.706 3.016 1.61 4.395.363.555.785 1.135 1.287 1.58.504.445 1.105.767 1.819.773h.027c.58 0 .978-.177 1.323-.332l.005-.002c.365-.163.68-.303 1.268-.307h.004c.563-.013.865.126 1.21.285l.033.015.017.008c.34.157.741.342 1.327.331.705-.006 1.308-.347 1.82-.813.51-.466.95-1.075 1.332-1.658.475-.724.663-1.11 1.03-1.923l.264-.59-.604-.228c-1.007-.382-1.682-1.296-1.76-2.394-.074-1.07.444-2.017 1.396-2.54l.634-.349-.452-.565c-.877-1.095-2.134-1.765-3.38-1.765zM8.987 7.08l.019-.007c.446-.169.873-.33 1.502-.33.669 0 1.376.294 1.974.826-.967.794-1.476 1.97-1.385 3.261.095 1.349.826 2.516 1.954 3.168a8.945 8.945 0 01-.688 1.214c-.307.469-.656.957-1.033 1.327-.382.375-.756.592-1.114.595h-.016c-.308 0-.504-.088-.808-.227-.393-.18-.901-.406-1.76-.412h-.002a3.88 3.88 0 00-1.006.13c-.297.08-.535.187-.75.283-.309.138-.532.22-.852.228-.376-.004-.748-.212-1.114-.559-.365-.346-.695-.803-.983-1.244-.883-1.348-1.32-2.755-1.424-3.995-.104-1.245.129-2.3.555-2.958.665-1.025 1.694-1.636 2.664-1.636.507 0 .934.15 1.387.312l.011.004c.436.156.93.333 1.501.333.257 0 .49-.037.707-.092.24-.061.458-.144.661-.22zM11.626.833l-.092-.536-.543.033C9.959.39 8.797.922 8.08 1.662c-.787.814-1.176 1.843-.977 2.764l.1.468.478.012.085.001h.002c1.057 0 2.183-.5 2.908-1.292.752-.822 1.115-1.835.949-2.782zm-2.67 1.676c.348-.36.9-.674 1.45-.84-.117.507-.443.924-.627 1.125-.37.405-.922.71-1.477.834a2.02 2.02 0 01.237-.574c.153-.257.329-.454.417-.545z" fill="#FBFBFB"/></svg>