<svg width="15" height="15" fill="none" xmlns="http://www.w3.org/2000/svg"><path fill-rule="evenodd" clip-rule="evenodd" d="M1.437.96c.442-.265.98-.28 1.435-.038l6.714 3.56.025-.024.08.08 3.766 1.997c.465.247.757.724.756 1.248a1.41 1.41 0 01-.76 1.245l-3.81 2.006-.03.03-.008-.01-6.737 3.547a1.463 1.463 0 01-1.433-.043 1.403 1.403 0 01-.685-1.205V2.165c0-.496.26-.947.687-1.205zM8.01 7.773l1.8-1.796 3.078 1.632c.057.03.08.065.093.092a.202.202 0 01.017.08.193.193 0 01-.11.171L9.824 9.565 8.01 7.773zM2.22 13.55l4.93-4.92 1.547 1.527-6.394 3.367a.249.249 0 01-.083.026zm4.065-5.774l-4.32 4.312V3.513l4.32 4.264zm2.401-2.396l-1.54 1.538-5.012-4.946a.235.235 0 01.169.022l6.383 3.386z" fill="#FBFBFB"/></svg>