<svg width="54" height="54" fill="none" xmlns="http://www.w3.org/2000/svg"><circle cx="27" cy="27.086" r="24" fill="#FBFBFB" stroke="#232323" stroke-width="2"/><path fill-rule="evenodd" clip-rule="evenodd" d="M15.293 20.793a1 1 0 010-1.415l6.364-6.363a1 1 0 111.414 1.414l-4.657 4.657H36a1 1 0 010 2H18.414l4.657 4.657a1 1 0 01-1.414 1.414l-6.364-6.364zM38.707 34.793a1 1 0 000-1.414l-6.364-6.364a1 1 0 10-1.414 1.414l4.657 4.657H18a1 1 0 000 2h17.586l-4.657 4.657a1 1 0 001.414 1.414l6.364-6.364z" fill="#232323"/></svg>