<svg width="54" height="54" fill="none" xmlns="http://www.w3.org/2000/svg"><path d="M25 51c13.255 0 24-10.745 24-24S38.255 3 25 3 1 13.745 1 27s10.745 24 24 24z" fill="#fff" stroke="#232323" stroke-width="2" stroke-miterlimit="10"/><path d="M3.983 38.564c5.334 4.726 11.803-.396 11.803-5.703 0-5.94-2.746-11.406 2.244-13.069 6.336-2.112 4.963 8.185 10.033 8.185 5.491 0 1.584-9.505 5.544-11.881 4.911-2.931 7.129 1.056 10.086-4.014 0 0-6.785-9.056-18.667-9.056C13.146 3.026 1 12.796 1 27.053c0 6.363 2.983 11.511 2.983 11.511z" fill="#FBFBFB"/><path fill-rule="evenodd" clip-rule="evenodd" d="M0 27.053C0 12.18 12.658 2.026 25.026 2.026c6.205 0 11.071 2.367 14.369 4.714a27.384 27.384 0 013.77 3.232c.429.442.756.813.978 1.077a13.454 13.454 0 01.322.397l.02.025.005.008.003.003-.8.6.8-.6.398.532-.334.572c-.791 1.357-1.599 2.223-2.515 2.726-.923.507-1.835.577-2.657.58-.22 0-.436-.004-.653-.008-1.375-.026-2.733-.05-4.611 1.07-.646.388-1.051 1.105-1.303 2.22-.207.918-.279 1.945-.355 3.046-.018.257-.036.519-.057.784-.1 1.313-.254 2.77-.824 3.9-.298.592-.725 1.128-1.34 1.51-.614.381-1.346.563-2.18.563-1.687 0-2.82-.89-3.621-1.985-.626-.854-1.116-1.928-1.553-2.885-.093-.203-.183-.4-.272-.59-.548-1.17-1.045-2.05-1.68-2.554-.533-.423-1.27-.663-2.59-.222-1.047.349-1.584.853-1.888 1.427-.326.615-.452 1.436-.422 2.528.026.964.167 2.032.326 3.234l.064.488c.18 1.376.36 2.888.36 4.443 0 3.04-1.833 5.958-4.392 7.475-2.628 1.557-6.057 1.65-9.074-1.023l-.12-.108-.082-.14.865-.5-.865.5-.001-.002-.003-.005-.009-.015a19.187 19.187 0 01-.49-.95 26.921 26.921 0 01-1.065-2.561C.78 33.38 0 30.385 0 27.052zm4.773 10.872c2.28 1.94 4.697 1.818 6.602.69 2.008-1.19 3.41-3.486 3.41-5.754 0-1.414-.163-2.813-.342-4.184a206.55 206.55 0 00-.064-.484c-.157-1.184-.313-2.366-.342-3.443-.034-1.226.09-2.454.653-3.517.585-1.104 1.575-1.907 3.024-2.39 1.847-.616 3.316-.36 4.466.554 1.048.832 1.713 2.13 2.247 3.271.11.233.213.46.315.682.435.949.82 1.787 1.312 2.46.565.77 1.162 1.167 2.009 1.167.539 0 .887-.115 1.125-.263.238-.148.438-.372.608-.71.366-.726.512-1.793.616-3.153.018-.228.034-.464.05-.706.077-1.108.16-2.328.405-3.41.3-1.334.892-2.696 2.226-3.497l.002-.001c2.391-1.427 4.287-1.385 5.702-1.354.205.004.4.009.584.008.715-.002 1.22-.069 1.698-.331.396-.218.855-.616 1.385-1.398a20.23 20.23 0 00-.735-.799 25.379 25.379 0 00-3.494-2.994c-3.065-2.181-7.532-4.343-13.209-4.343C13.632 4.026 2 13.411 2 27.053c0 3.031.712 5.791 1.433 7.805.36 1.003.719 1.813.986 2.37a17.224 17.224 0 00.354.697z" fill="#232323"/><path d="M48.022 21.799c1.9 4.278 2.954 5.803 3.746 9.817.554 2.825-1.475 5.13-3.746 4.153l-1.795-.531" fill="#fff"/><path d="M48.5 22c1.9 4.278 2.476 5.602 3.268 9.616.554 2.825-1.475 5.13-3.746 4.153L46.501 35" stroke="#232323" stroke-width="2" stroke-miterlimit="10"/><path d="M44.036 41.6s-5.017 1.849-10.825-1.848c0 0 2.376 5.809 7.736 5.043" stroke="#232323" stroke-width="2" stroke-miterlimit="10" stroke-linejoin="bevel"/><path d="M44.433 28.875a4.62 4.62 0 100-9.241 4.62 4.62 0 000 9.24z" stroke="#232323" stroke-miterlimit="10"/><path fill-rule="evenodd" clip-rule="evenodd" d="M41.184 27.538a4.62 4.62 0 006.534-6.534l-6.534 6.534z" fill="#232323"/></svg>