<svg width="1409" height="720" fill="none" xmlns="http://www.w3.org/2000/svg"><path d="M1408.89 335.859c0 128.893-42.86 365.036-203.18 365.036-82.22 0-177.14-40.384-245.392-36.418C892.064 668.443 850.794 720 695.238 720c-103.968 0-169.841-65.438-307.936-65.438-65.08 0-149.207 61.472-220.635 61.472C66.667 716.034 0 590.937 0 386.692 0 176.696 104.444 79.134 188.889 41.656 287.302-1.969 488.254.014 611.111.014 774.603.014 867.238 86.932 972 79c104.76-7.932 147.52-50.5 248-50.5 123.81 0 188.89 182.433 188.89 307.359z" fill="#232323"/></svg>