<svg width="54" height="54" fill="none" xmlns="http://www.w3.org/2000/svg"><circle cx="27" cy="27" r="24" fill="#FBFBFB" stroke="#232323" stroke-width="2"/><path d="M15.965 31.24a.965.965 0 110-1.93h2.356v-4.305h-2.347a.974.974 0 010-1.948h2.347v-.724c0-2.92.86-5.201 2.58-6.847C22.62 13.83 24.957 13 27.913 13c2.672 0 4.874.786 6.605 2.356 1.782 1.596 2.672 3.829 2.672 6.699a.39.39 0 01-.39.39H35.56a.39.39 0 01-.39-.39c0-2.276-.699-4.033-2.097-5.27-1.385-1.237-3.105-1.855-5.158-1.855-2.338 0-4.175.655-5.51 1.966-1.337 1.3-2.005 3.111-2.005 5.437v.724H29a.974.974 0 110 1.948h-8.6v4.305h8.61a.965.965 0 110 1.93h-8.61v.704c0 2.314.668 4.126 2.004 5.437 1.336 1.311 3.173 1.967 5.511 1.967 1.423 0 2.672-.273 3.748-.817 1.076-.544 1.93-1.354 2.56-2.43.631-1.089.947-2.388.947-3.897 0-.205.166-.371.371-.371h1.28c.205 0 .371.166.371.371 0 2.907-.878 5.158-2.634 6.754-1.745 1.559-3.959 2.338-6.643 2.338-2.956 0-5.294-.829-7.014-2.486-1.719-1.67-2.579-3.959-2.579-6.866v-.705h-2.356z" fill="#000"/></svg>