<svg width="92" height="124" fill="none" xmlns="http://www.w3.org/2000/svg"><path d="M58.008 11.972v.53c-7.44 0-11.78 4.522-11.78 11.96h-.738c0-7.475-4.452-11.96-11.818-11.96v-.53c7.366 0 11.83-4.535 11.83-11.972h.738c-.013 7.437 4.328 11.972 11.768 11.972z" fill="#000"/><path d="M41.762 124.99l-15.507.235c-.184-13.318-24.263-32.01-24.68-60.71-.37-24.437 4.562-38.051 7.882-44.278 2.57-4.818 5.275-7.746 10.231-7.82 5.559-.087 9.1 2.977 10.662 13.046 5.19 33.406 17.917 56.93 11.412 99.527z" fill="#fff" stroke="#1D1D1B" stroke-width="2" stroke-miterlimit="10"/><path d="M38.159 125.12c-4.608-9.46-7.658-27.288-9.32-42.32-1.845-16.592-3.111-40.708-4.415-56.09-.492-5.757-2.386-8.042-5.165-8.08-3.16-.036-4.943 3.163-6.124 7.648-1.34 5.103-7.12 24.35-5.202 44.241 2.169 22.59 22.208 40.194 24.256 54.601" stroke="#1D1D1B" stroke-width="2" stroke-miterlimit="10"/><path d="M49.891 124.99l15.507.235c.197-13.306 24.275-32.01 24.693-60.71.357-24.437-4.562-38.04-7.895-44.278-2.57-4.818-5.275-7.747-10.231-7.82-5.558-.087-9.1 2.977-10.662 13.046-5.177 33.406-17.917 56.929-11.412 99.527z" fill="#fff" stroke="#1D1D1B" stroke-width="2" stroke-miterlimit="10"/><path d="M53.496 125.12c4.607-9.46 7.657-27.288 9.32-42.32 1.844-16.592 3.11-40.708 4.415-56.09.491-5.757 2.385-8.042 5.165-8.08 3.16-.036 4.943 3.163 6.124 7.648 1.352 5.103 7.12 24.35 5.214 44.241-2.169 22.59-22.208 40.194-24.267 54.601" stroke="#1D1D1B" stroke-width="2" stroke-miterlimit="10"/></svg>