<svg width="991" height="132" fill="none" xmlns="http://www.w3.org/2000/svg"><path d="M990.5 132H0c57 0 73.797-45.732 136.819-45.732 52.424 0 58.623 28.576 106.043 28.576 47.42 0 274.975-94.895 435.403-94.895 72.735 0 119.702 63.912 145.901 71.389 21.632 6.17 33.692-10.78 64.689-10.78C917.492 80.558 928 132 990.5 132z" fill="#EADDCF"/><path d="M126.914 89.134h8.699s9.674-5.454 9.674-16.388c0-8.04-5.799-9.013-5.799-15.44s7.415-6.427 7.415-15.44c0-9.014-6.44-12.215-12.239-12.215-4.517 0-10.957 3.534-10.957 10.294 0 6.76 6.44 6.76 6.44 12.214 0 5.454-7.723 4.583-7.723 10.677 0 6.095 5.157 4.43 5.157 9.91 0 5.147-7.723 2.56-7.723 9.013-.026 4.481 7.056 7.375 7.056 7.375z" fill="#EADDCF"/><path d="M131.866 88.698s27.508-50.444 36.669-47.883c9.161 2.56-20.631 47.883-20.631 47.883h-16.038z" fill="#EADDCF"/><path d="M134.484 88.699s-21.529-35.874-29.561-30.727c-8.032 5.146 13.497 30.727 13.497 30.727h16.064zM346.786 94.285s-6.005-34.082-.719-36.31c5.286-2.227 9.366 33.16 9.366 33.16l-8.647 3.15z" fill="#EADDCF"/><path d="M349.66 90.239s-12.984-21.612-17.808-18.513c-4.824 3.098 8.134 18.513 8.134 18.513h9.674zM351.841 89.983s12.984-21.612 17.808-18.513c4.824 3.098-8.134 18.513-8.134 18.513h-9.674zM887.418 83.116s-9.597-3.201-9.597-14.34c0-11.138 5.081-12.162 7.467-18.077 2.13-5.326-2.129-15.953 5.851-15.953s6.133 12.035 4.26 17.002c-3.208 8.502 5.337 10.217 3.207 18.078 5.851-5.326 11.676-13.93 14.37-5.838 3.207 9.577-15.448 20.203-15.448 20.203l-10.11-1.075z" fill="#EADDCF"/><path d="M866.868 22.02v.384c-5.44 0-8.596 3.278-8.596 8.68h-.539c0-5.428-3.259-8.68-8.648-8.68v-.384c5.389 0 8.648-3.277 8.648-8.68h.539c0 5.377 3.156 8.68 8.596 8.68z" fill="#1D1D1B"/><path d="M714.138 104.216l-.165.471 1.344.472-.755-1.208-.424.265zM677.29 73.489l.38.325-.38-.325zm36.72 30.829l-.424-.264-.754 1.207 1.344-.471-.166-.472zm36.848-30.727l.381-.324h-.001l-.38.324zm-36.271 30.702V78.456h-1v25.837h1zm-.449-.077l.424-.266-.001-.001-.004-.006a.206.206 0 00-.015-.024l-.058-.092-.226-.357a194.593 194.593 0 00-4.031-6.023c-2.662-3.822-6.321-8.8-10.305-13.406-3.975-4.597-8.305-8.863-12.312-11.227-2.003-1.181-3.969-1.914-5.798-1.938-1.855-.025-3.53.681-4.902 2.288l.76.65c1.181-1.383 2.573-1.959 4.129-1.938 1.583.02 3.373.661 5.303 1.8 3.86 2.277 8.104 6.44 12.064 11.019 3.952 4.57 7.589 9.517 10.241 13.324a194.536 194.536 0 014.008 5.989l.224.352.056.09.014.023.004.006.001.001.424-.264zM676.91 73.164c-1.543 1.803-2.118 3.7-1.893 5.629.223 1.906 1.223 3.783 2.709 5.584 2.968 3.596 8.008 7.047 13.356 10.04 5.361 2.998 11.084 5.566 15.462 7.382 2.19.909 4.045 1.63 5.354 2.125.655.247 1.172.438 1.527.567l.406.146.105.038.027.009.007.002.002.001.166-.471.166-.472-.002-.001-.006-.002a180.47 180.47 0 01-7.369-2.865c-4.359-1.809-10.043-4.36-15.357-7.333-5.326-2.98-10.229-6.357-13.073-9.803-1.42-1.72-2.294-3.42-2.486-5.063-.19-1.622.277-3.248 1.659-4.863l-.76-.65zm3.734 4.63l32.922 26.809.631-.775-32.922-26.81-.631.776zm-3.482 27.305h73.696v-1h-73.696v1zm36.848-.781l.425.265v-.002l.004-.005.014-.023.057-.09.223-.352c.197-.309.487-.76.86-1.33a196.92 196.92 0 013.149-4.66c2.651-3.807 6.289-8.753 10.241-13.323 3.96-4.58 8.203-8.743 12.063-11.02 1.93-1.138 3.72-1.779 5.303-1.8 1.556-.02 2.948.555 4.129 1.938l.76-.65c-1.372-1.606-3.046-2.312-4.902-2.288-1.829.025-3.795.757-5.798 1.939-4.006 2.363-8.337 6.63-12.312 11.227-3.983 4.606-7.643 9.583-10.305 13.406a200.441 200.441 0 00-3.165 4.684 150.694 150.694 0 00-1.092 1.695l-.058.093a.394.394 0 00-.015.023l-.004.006-.001.002.424.265zm36.468-30.402c1.379 1.618 1.844 3.246 1.652 4.87-.194 1.645-1.069 3.346-2.489 5.067-2.846 3.448-7.748 6.824-13.073 9.803-5.312 2.971-10.993 5.52-15.35 7.326a180.97 180.97 0 01-5.322 2.11 149.2 149.2 0 01-1.515.562l-.4.144-.103.036-.025.01-.007.002h-.001l.165.472.166.472.002-.001.007-.002.027-.01.105-.037.406-.146c.354-.129.872-.319 1.526-.566a181.285 181.285 0 005.352-2.123c4.376-1.814 10.096-4.379 15.455-7.377 5.347-2.99 10.387-6.44 13.356-10.038 1.486-1.802 2.487-3.679 2.711-5.587.228-1.93-.345-3.83-1.884-5.636l-.761.649zm-3.605 3.205l-32.922 26.809.631.776 32.922-26.81-.631-.775z" fill="#1E1E1E"/><path d="M734.025 57.97v.872c-12.189 0-19.322 7.374-19.322 19.486h-1.206c0-12.163-7.313-19.486-19.399-19.486v-.871c12.086 0 19.399-7.375 19.399-19.512h1.206c0 12.137 7.133 19.512 19.322 19.512z" fill="#1E1E1E" stroke="#1E1E1E" stroke-miterlimit="10"/><path d="M450.992 58.124l-.165.472 1.344.472-.755-1.208-.424.264zm-36.848-30.726l.38.325-.38-.325zm36.72 30.828l-.424-.264-.754 1.209 1.344-.473-.166-.472zM487.712 27.5l.381-.325h-.001l-.38.325zm-36.297 30.675v-38.97h-1v38.97h1zm-.423-.05l.424-.266-.001-.002-.004-.006a.395.395 0 00-.015-.023l-.058-.093-.226-.356c-.198-.311-.491-.765-.866-1.34a193.79 193.79 0 00-3.165-4.683c-2.662-3.822-6.321-8.8-10.305-13.406-3.975-4.597-8.305-8.863-12.312-11.226-2.003-1.182-3.969-1.915-5.798-1.939-1.855-.025-3.53.681-4.902 2.288l.76.65c1.181-1.383 2.573-1.959 4.129-1.938 1.583.021 3.373.662 5.303 1.8 3.86 2.277 8.104 6.44 12.064 11.019 3.952 4.57 7.589 9.516 10.241 13.324a195.676 195.676 0 014.008 5.989l.224.352.056.09.015.023a.023.023 0 00.003.005l.001.002.424-.265zm-37.228-31.052c-1.543 1.803-2.118 3.7-1.893 5.629.223 1.907 1.223 3.783 2.709 5.584 2.968 3.596 8.008 7.047 13.356 10.039 5.361 3 11.084 5.567 15.462 7.383 2.19.909 4.045 1.63 5.354 2.125.655.247 1.172.438 1.527.566l.406.147.105.037.027.01.007.002h.002c0 .001.001.001.166-.47l.166-.472-.002-.001-.006-.002-.026-.01-.102-.036a127.785 127.785 0 01-1.916-.707 181.187 181.187 0 01-5.325-2.113c-4.359-1.808-10.043-4.359-15.357-7.332-5.326-2.98-10.229-6.356-13.073-9.803-1.42-1.72-2.294-3.42-2.486-5.063-.19-1.622.277-3.248 1.659-4.863l-.76-.65zm3.708 4.605l32.948 26.834.632-.775-32.948-26.835-.632.776zm33.392 26.548l.425.265v-.002l.004-.005.014-.023.057-.09.223-.352c.197-.308.487-.76.86-1.33.746-1.14 1.824-2.757 3.149-4.66 2.651-3.807 6.289-8.753 10.241-13.323 3.96-4.58 8.203-8.742 12.063-11.019 1.93-1.138 3.721-1.779 5.303-1.8 1.556-.02 2.948.555 4.129 1.938l.76-.65c-1.372-1.606-3.046-2.313-4.902-2.288-1.828.024-3.795.757-5.798 1.939-4.006 2.363-8.337 6.63-12.312 11.226-3.983 4.606-7.643 9.584-10.305 13.406a200.105 200.105 0 00-3.165 4.684 156.58 156.58 0 00-1.092 1.696l-.058.092a.395.395 0 00-.015.023l-.004.007-.001.001.424.265zm36.468-30.401c1.379 1.615 1.844 3.24 1.653 4.862-.194 1.644-1.07 3.343-2.49 5.064-2.846 3.447-7.748 6.823-13.073 9.803-5.312 2.973-10.993 5.524-15.35 7.332A182.136 182.136 0 01452.75 57c-.65.246-1.164.435-1.515.563l-.4.144-.103.037-.025.009-.007.002h-.001l.165.472.167.472h.001l.007-.003.027-.01.105-.037.406-.147c.355-.128.872-.319 1.526-.566a182.134 182.134 0 005.352-2.125c4.376-1.816 10.096-4.384 15.456-7.383 5.346-2.992 10.386-6.443 13.355-10.04 1.487-1.8 2.487-3.676 2.712-5.582.227-1.928-.346-3.826-1.885-5.63l-.761.65zm-3.605 3.18l-32.922 26.834.632.775 32.922-26.834-.632-.776z" fill="#EADDCF"/><path d="M452.506 0c-5.62 0-4.722 5.608-8.981 6.273-4.26.666-11.06-7.092-13.677-1.562-2.027 4.25 4.927 5.813 6.056 8.962 1.616 4.507-1.797 10.089 1.334 12.316 3.926 2.791 6.287-4.916 10.546-4.916 4.26 0 4.722 3.175 10.316 2.92 4.927-.231 6.21-5.327 8.519-7.836 2.925-3.124 9.546.333 9.879-5.608.436-8.296-11.213-2.688-14.806-4.48C457.304 3.84 459.024 0 452.506 0z" fill="#EADDCF"/><path d="M831.379 117.787l-.415.278.396.592.422-.574-.403-.296zm25.686.973l-.441.234.398.751.463-.713-.42-.272zm-408.767-13.085l.346.361.002-.002.008-.007.03-.029.125-.116c.11-.103.274-.254.488-.446a64.878 64.878 0 011.855-1.597 73.686 73.686 0 016.552-4.852c5.399-3.54 12.416-7.023 19.077-7.023v-1c-6.964 0-14.188 3.621-19.625 7.187a74.712 74.712 0 00-6.642 4.918 66.003 66.003 0 00-1.885 1.623 40.034 40.034 0 00-.63.578l-.034.032-.009.008-.002.002-.001.001.345.362zm28.483-13.712c6.683 0 11.236 2.267 15.314 4.57 4.057 2.292 7.747 4.7 12.553 4.7v-1c-4.483 0-7.913-2.227-12.061-4.57-4.127-2.331-8.863-4.7-15.806-4.7v1zm27.867 9.27c4.781 0 9.394-2.386 14.452-4.68 5.097-2.311 10.744-4.59 17.752-4.59v-1c-7.233 0-13.044 2.357-18.165 4.68-5.162 2.34-9.53 4.59-14.039 4.59v1zm32.204-9.27c6.973 0 13.684 3.335 18.686 6.713a58.996 58.996 0 015.979 4.634 48.527 48.527 0 012.082 1.95 7.623 7.623 0 01.135.138l.006.006.002.002.361-.346.361-.346v-.001l-.003-.002-.008-.008-.029-.031-.115-.117a49.737 49.737 0 00-2.13-1.994 60.107 60.107 0 00-6.081-4.714c-5.063-3.42-11.977-6.883-19.246-6.883v1zm25.147-27.692l.345.361.001-.001.005-.005.019-.018.081-.075c.071-.066.177-.164.316-.289a47.93 47.93 0 015.466-4.19c3.516-2.305 8.057-4.553 12.345-4.553v-1c-4.591 0-9.339 2.387-12.893 4.717a48.87 48.87 0 00-5.585 4.282 22.513 22.513 0 00-.415.38l-.023.021a.028.028 0 01-.006.006l-.001.001h-.001l.346.362zm18.578-8.77c4.309 0 7.245 1.46 9.896 2.957 2.629 1.485 5.082 3.086 8.271 3.086v-1c-2.867 0-5.059-1.42-7.779-2.957-2.7-1.524-5.819-3.086-10.388-3.086v1zm18.167 6.043c1.597 0 3.149-.398 4.706-.975 1.55-.575 3.144-1.343 4.796-2.09 3.323-1.506 6.981-2.978 11.514-2.978v-1c-4.757 0-8.579 1.55-11.927 3.066-1.684.763-3.224 1.506-4.731 2.064-1.499.556-2.927.913-4.358.913v1zm21.016-6.043c4.496 0 8.841 2.15 12.095 4.345a38.389 38.389 0 013.884 3.005 32.16 32.16 0 011.351 1.263l.07.07a.297.297 0 00.017.018l.004.004.361-.345.361-.346-.001-.001-.001-.002-.005-.005a.35.35 0 01-.02-.02l-.077-.078a32.77 32.77 0 00-1.398-1.307 39.46 39.46 0 00-3.987-3.086c-3.315-2.235-7.862-4.515-12.654-4.515v1zM90.877 117.428l.268.422.002-.001.006-.004a.425.425 0 01.028-.017l.113-.07a42.336 42.336 0 012.232-1.238 63.04 63.04 0 016.663-2.952c5.689-2.149 13.679-4.295 22.892-4.295v-1c-9.366 0-17.478 2.181-23.246 4.36a63.992 63.992 0 00-6.768 2.999c-.792.409-1.403.751-1.819.991-.207.12-.366.215-.473.28l-.122.075-.032.02-.008.006-.003.001v.001l.267.422zm32.204-8.155c9.221 0 17.996 1.996 24.473 3.998 3.237 1 5.895 2 7.743 2.749a68.956 68.956 0 012.689 1.157l.141.065.035.017.008.004.002.001.217-.451c.217-.45.216-.45.216-.451h-.001l-.002-.001-.01-.005-.038-.018-.147-.069a70.482 70.482 0 00-2.734-1.175 97.426 97.426 0 00-7.824-2.778c-6.532-2.019-15.412-4.043-24.768-4.043v1zm680.124 9.487l.419.272.002-.003.01-.015.044-.065a17.068 17.068 0 01.911-1.175 21.457 21.457 0 012.882-2.812c2.537-2.046 6.26-4.075 11.051-4.075v-1c-5.088 0-9.026 2.157-11.679 4.297a22.539 22.539 0 00-3.018 2.944 18.187 18.187 0 00-.971 1.254l-.051.076a.265.265 0 00-.014.02l-.004.006-.001.002v.001l.419.273zm15.319-7.873c3.791 0 6.895 1.775 9.072 3.584a20.452 20.452 0 012.505 2.483 17.353 17.353 0 01.812 1.038l.04.056.009.014.002.003.415-.278.416-.279h-.001l-.001-.002-.003-.005a.222.222 0 00-.013-.019l-.046-.067a17.806 17.806 0 00-.867-1.108 21.552 21.552 0 00-2.629-2.605c-2.275-1.891-5.599-3.815-9.711-3.815v1zm12.855 6.9l.403.296.001-.001.002-.002.01-.014.044-.057a18.88 18.88 0 01.883-1.042 22.758 22.758 0 012.675-2.488c2.303-1.814 5.531-3.592 9.326-3.592v-1c-4.109 0-7.552 1.921-9.945 3.807-1.2.945-2.147 1.89-2.794 2.599-.324.355-.574.651-.744.861-.084.104-.149.187-.194.244l-.05.067-.014.018a.022.022 0 01-.004.005l-.001.002.402.297zm13.344-6.9c3.766 0 6.731 1.994 8.782 4.04a20.065 20.065 0 012.925 3.729c.066.111.115.197.148.254l.036.065a.094.094 0 00.008.015l.002.004.441-.234.442-.235v-.001l-.001-.001-.003-.006a21.1 21.1 0 00-3.292-4.298c-2.145-2.14-5.351-4.332-9.488-4.332v1zm12.342 7.873l.42.272.002-.004.011-.016.044-.065a21.01 21.01 0 01.886-1.182 24.172 24.172 0 012.678-2.819c2.308-2.057 5.529-4.059 9.303-4.059v-1c-4.129 0-7.58 2.184-9.968 4.313a25.137 25.137 0 00-2.791 2.937 21.833 21.833 0 00-.935 1.247 1.91 1.91 0 00-.05.075l-.013.02-.004.006-.001.001-.001.001.419.273zm13.344-7.873c3.778 0 7.122 2.005 9.556 4.067a26.547 26.547 0 012.847 2.824 22.438 22.438 0 01.957 1.185 1.467 1.467 0 01.06.081l.002.004.001.001.408-.289c.408-.289.408-.289.407-.29l-.001-.002-.004-.005a.265.265 0 00-.014-.02l-.055-.075a15.382 15.382 0 00-.208-.275 24.427 24.427 0 00-.797-.969 27.394 27.394 0 00-2.957-2.932c-2.506-2.125-6.077-4.305-10.202-4.305v1z" fill="#1E1E1E"/></svg>