<svg width="170" height="26" fill="none" xmlns="http://www.w3.org/2000/svg"><path d="M161.052.265c-4.738 0-8.566 3.796-8.566 8.469s3.84 8.47 8.566 8.47c4.739 0 8.566-3.797 8.566-8.47s-3.839-8.47-8.566-8.47zm0 14.63c-3.442 0-6.232-2.757-6.232-6.161 0-3.404 2.79-6.162 6.232-6.162 3.443 0 6.232 2.758 6.232 6.162-.011 3.404-2.801 6.161-6.232 6.161zM64.771.265c-2.416 0-4.248 1.892-4.773 3.438V.933H52.89v2.32h4.785V14.33l-4.797.012v2.307l13.036-.011V14.33h-5.917V7.303c0-1.05.922-4.87 4.108-4.87.969 0 1.867.255 2.44.924-.223.3-.363.67-.363 1.073 0 1.004.829 1.823 1.844 1.823 1.097 0 1.797-.877 1.797-1.95.012-1.754-2.007-4.038-5.053-4.038zM125.457.265c-2.416 0-4.248 1.88-4.774 3.427V.934h-7.107v2.32h4.785v11.053l-4.797.011v2.308l13.036-.011v-2.308h-5.917V7.28c0-1.05.922-4.87 4.108-4.87.969 0 1.868.255 2.44.924a1.8 1.8 0 00-.362 1.073c0 1.004.828 1.823 1.844 1.823 1.097 0 1.797-.877 1.797-1.95.012-1.742-2.007-4.015-5.053-4.015zM86.688 7.672c1.015 0 1.843-.819 1.843-1.823 0-.08-.011-.15-.011-.23-.234-2.09-3.56-5.331-7.784-5.331-4.797 0-8.683 3.796-8.683 8.492 0 4.696 3.886 8.492 8.683 8.492 3.314 0 6.197-1.823 7.655-4.5l-1.879-1.258c-1.143 2.031-3.279 3.439-5.788 3.439-3.478 0-6.209-2.758-6.209-6.173s2.731-6.173 6.209-6.173c1.937 0 3.56.727 4.645 1.984a1.81 1.81 0 00-.514 1.258c-.011 1.016.817 1.823 1.832 1.823zM144.329 3.253h1.925l-4.166 10.673-4.54-10.673h1.973V.934h-6.839v2.32h2.369l5.823 13.788-3.209 8.238h2.486l8.589-22.027h2.428V.934h-6.839v2.32zM27.986 6.936c0-4.12-2.778-6.67-6.186-6.67-2.672 0-4.901 1.916-5.881 3.866-.946-2.423-3.14-3.865-5.684-3.865S5.52 2.147 4.843 3.694V.924L0 .936v2.32h2.51v13.36h2.333V7.27c0-1.073 1.307-4.88 5.054-4.88 1.774 0 4.201 1.592 4.201 4.834v9.393h2.334V7.224c0-1.073 1.155-4.834 5.042-4.834 1.774 0 4.201 1.43 4.201 4.684v9.554h4.832v-2.284h-2.51l-.011-7.408zM41.652.253c-4.738 0-8.59 3.738-8.59 8.423 0 .162.035.773.047.877.432 4.292 4.131 7.65 8.636 7.65 3.315 0 6.197-1.823 7.656-4.5l-1.879-1.258c-1.143 2.031-3.28 3.439-5.788 3.439-3.198 0-5.859-2.331-6.256-5.343l14.39.012a7.17 7.17 0 00.047-.865c0-4.697-3.525-8.435-8.263-8.435zm-6.092 6.98c.654-2.722 3.14-4.753 6.104-4.753s5.111 2.03 5.777 4.754H35.56zM107.52.934h-2.334v9.3c0 2.112-2.241 4.973-5.077 4.973-1.774 0-4.178-1.661-4.178-4.684V.934H91.1v2.32h2.509v7.396c0 4.119 2.777 6.553 6.185 6.553 2.416 0 4.272-1.477 5.404-3.011v2.446l4.843-.012V14.32h-2.509L107.52.934z" fill="#232323"/></svg>