<svg width="707" height="503" viewBox="0 0 707 503" fill="none" xmlns="http://www.w3.org/2000/svg">
<path d="M0 267.646C0 221.471 65.6625 191.319 97.588 143.875C120.457 109.919 96.576 33.0151 171.975 10.3248C226.995 -6.1772 270.972 40.2659 331.779 21.3199C407.79 -2.36347 450.05 -8.95694 552.846 15.1613C629.604 33.0914 707 138.472 707 251.766C707 348.566 679.989 500.735 533.365 500.735C420.15 500.735 381.774 459.521 297.092 459.521C209.692 459.521 183.71 514.699 118.048 500.735C56.0084 487.566 85.669 420.447 62.8009 384.746C39.9317 349.045 0 313.819 0 267.646Z" fill="#232323"/>
<mask id="mask0" mask-type="alpha" maskUnits="userSpaceOnUse" x="0" y="0" width="707" height="503">
<path d="M0 267.646C0 221.471 65.6625 191.319 97.588 143.875C120.457 109.919 96.576 33.0151 171.975 10.3248C226.995 -6.1772 270.972 40.2659 331.779 21.3199C407.79 -2.36347 450.05 -8.95694 552.846 15.1613C629.604 33.0914 707 138.472 707 251.766C707 348.566 679.989 500.735 533.365 500.735C420.15 500.735 381.774 459.521 297.092 459.521C209.692 459.521 183.71 514.699 118.048 500.735C56.0084 487.566 85.669 420.447 62.8009 384.746C39.9317 349.045 0 313.819 0 267.646Z" fill="#232323"/>
</mask>
<g mask="url(#mask0)">
<path d="M496.997 58.6198H498.341C499.684 65.5648 502.374 67.8782 508.909 69.4221V70.3876C502.374 71.9314 499.684 74.4361 498.341 81.3811H496.997C495.65 74.4361 493.154 71.9314 486.234 70.3876V69.4221C493.154 67.8782 495.654 65.5648 496.997 58.6198Z" fill="#FBFBFB"/>
<path d="M117.463 234.884L78.9169 220.847" stroke="#FBFBFB" stroke-width="2" stroke-miterlimit="10"/>
<path d="M75.4819 222.516C76.889 223.028 78.4439 222.3 78.955 220.889C79.4661 219.479 78.7397 217.92 77.3327 217.408L66.5767 213.491C65.1696 212.979 63.6147 213.707 63.1036 215.118C62.5925 216.528 63.3189 218.087 64.726 218.599L75.4819 222.516Z" stroke="#FBFBFB" stroke-width="2" stroke-miterlimit="10"/>
<path d="M108.026 211.766L95.4224 246.539" stroke="#FBFBFB" stroke-width="2" stroke-miterlimit="10"/>
<path d="M116.902 220.769L101.669 229.237L107.849 245.297" stroke="#FBFBFB" stroke-width="2" stroke-miterlimit="10"/>
<path d="M598.953 425.938L616.59 442.382" stroke="#FBFBFB" stroke-width="2" stroke-miterlimit="10"/>
<path d="M618.83 442.27C618.186 441.67 617.179 441.706 616.58 442.352C615.982 442.997 616.018 444.007 616.662 444.607L621.584 449.195C622.228 449.795 623.235 449.758 623.834 449.113C624.432 448.468 624.396 447.458 623.752 446.858L618.83 442.27Z" stroke="#FBFBFB" stroke-width="2" stroke-miterlimit="10"/>
<path d="M598.775 440.609L613.537 424.699" stroke="#FBFBFB" stroke-width="2" stroke-miterlimit="10"/>
<path d="M596.032 433.702L606.205 432.62L606.533 422.516" stroke="#FBFBFB" stroke-width="2" stroke-miterlimit="10"/>
<path d="M665.033 335.411C666.645 335.411 667.951 334.105 667.951 332.493C667.951 330.881 666.645 329.574 665.033 329.574C663.421 329.574 662.114 330.881 662.114 332.493C662.114 334.105 663.421 335.411 665.033 335.411Z" fill="#FBFBFB"/>
<path d="M22.9571 95.8839C24.604 95.8839 25.939 94.5456 25.939 92.8947C25.939 91.2438 24.604 89.9055 22.9571 89.9055C21.3103 89.9055 19.9753 91.2438 19.9753 92.8947C19.9753 94.5456 21.3103 95.8839 22.9571 95.8839Z" fill="#FBFBFB"/>
<path d="M143.551 469.673C145.163 469.673 146.47 468.367 146.47 466.755C146.47 465.143 145.163 463.836 143.551 463.836C141.939 463.836 140.632 465.143 140.632 466.755C140.632 468.367 141.939 469.673 143.551 469.673Z" fill="#FBFBFB"/>
<path d="M156.647 62.0223L150.361 68.3314L177.912 95.9867L184.197 89.6777L156.647 62.0223Z" stroke="#FBFBFB" stroke-width="2" stroke-miterlimit="10"/>
<path d="M390.335 24.9729L385 25.6141L391.658 82.4998L396.993 81.8585L390.335 24.9729Z" stroke="#FBFBFB" stroke-width="2" stroke-miterlimit="10"/>
<path d="M619.737 75.0343L615.718 70.0005L576.586 101.482L580.605 106.515L619.737 75.0343Z" stroke="#FBFBFB" stroke-width="2" stroke-miterlimit="10"/>
<path d="M479.486 430.159L472.959 428.089L459.053 472.329L465.58 474.399L479.486 430.159Z" stroke="#FBFBFB" stroke-width="2" stroke-miterlimit="10"/>
<path d="M643.637 216.459C643.637 216.459 650.063 239.432 673.06 245.551C685.448 248.873 698.888 243.297 704.387 236.788C708.58 231.817 707.777 226.404 704.272 225.009C700.226 223.336 696.116 227.24 695.454 231.689C694.329 239.273 699.716 250.59 711.305 252.703C723.892 255.004 731.511 245.053 731.511 245.053" stroke="#FBFBFB" stroke-width="2" stroke-miterlimit="10"/>
<path d="M112.335 293.778L49.4275 339.007" stroke="#FBFBFB" stroke-width="2" stroke-miterlimit="10"/>
<path d="M120.778 329.182L88.9615 358.042" stroke="#FBFBFB" stroke-width="2" stroke-miterlimit="10"/>
</g>
<path d="M324.517 105.804C325.592 105.804 326.463 104.933 326.463 103.858C326.463 102.783 325.592 101.912 324.517 101.912C323.443 101.912 322.572 102.783 322.572 103.858C322.572 104.933 323.443 105.804 324.517 105.804Z" fill="#FBFBFB"/>
<path d="M442.229 210.014C448.92 214.035 453.093 221.254 452.091 228.641C451.257 234.84 445.247 237.382 445.233 242.911C445.233 250.06 451.284 254.486 450.798 261.677C450.144 270.265 440.434 272.233 434.495 279.606C429.358 286.342 426.215 295.383 425.425 303.829C423.37 303.062 421.224 302.565 419.041 302.349C415.494 302.447 402.988 236.865 414.687 217.051C421.155 206.062 437.138 206.984 442.229 210.014Z" stroke="#FBFBFB" stroke-width="2" stroke-miterlimit="10"/>
<path d="M420.225 301.708C420.225 301.708 415.328 283.556 419.32 275.011C424.175 264.595 432.062 262.64 433.036 254.192C434.427 242.617 422.269 235.733 419.126 227.509C415.982 219.284 418.291 207.192 411.6 204.847C404.283 202.277 398.052 209.371 398.219 217.944C398.427 228.682 406.078 230.12 406.078 237.409C406.078 244.697 398.386 248.579 398.386 263.938C398.386 279.298 417.456 301.722 417.456 301.722L420.225 301.708Z" stroke="#FBFBFB" stroke-width="2" stroke-miterlimit="10"/>
<path d="M422.84 395.862L435.36 320.796C435.752 318.459 435.632 316.063 435.007 313.777C434.383 311.491 433.268 309.369 431.743 307.56C430.217 305.75 428.316 304.297 426.173 303.301C424.03 302.305 421.697 301.79 419.335 301.793C416.995 301.794 414.683 302.303 412.558 303.284C410.432 304.265 408.542 305.695 407.018 307.477C405.493 309.259 404.371 311.351 403.726 313.608C403.081 315.866 402.93 318.237 403.283 320.559L414.689 395.806C414.887 396.74 415.397 397.578 416.134 398.181C416.871 398.784 417.791 399.117 418.742 399.123C419.694 399.13 420.618 398.81 421.364 398.217C422.109 397.624 422.63 396.793 422.84 395.862Z" fill="#FF592C" stroke="#232323" stroke-width="2" stroke-miterlimit="10"/>
<path d="M454.473 192.88C454.473 192.88 449.299 202.724 443.234 213.824C440.632 218.53 438.101 222.886 438.101 225.204C438.101 229.491 441.787 230.119 445.96 230.119H458.479" fill="#FBFBFB"/>
<path d="M454.473 192.88C454.473 192.88 449.299 202.724 443.234 213.824C440.632 218.53 438.101 222.886 438.101 225.204C438.101 229.491 441.787 230.119 445.96 230.119H458.479" stroke="#232323" stroke-width="2" stroke-miterlimit="10"/>
<path d="M516.944 268.296C552.244 268.296 580.861 239.57 580.861 204.136C580.861 168.701 552.244 139.975 516.944 139.975C481.643 139.975 453.027 168.701 453.027 204.136C453.027 239.57 481.643 268.296 516.944 268.296Z" fill="#FBFBFB" stroke="#232323" stroke-width="2" stroke-miterlimit="10"/>
<mask id="mask1" mask-type="alpha" maskUnits="userSpaceOnUse" x="473" y="189" width="26" height="27">
<path d="M486.146 215.275C493.106 215.275 498.749 209.611 498.749 202.625C498.749 195.638 493.106 189.974 486.146 189.974C479.186 189.974 473.543 195.638 473.543 202.625C473.543 209.611 479.186 215.275 486.146 215.275Z" fill="#232323"/>
</mask>
<g mask="url(#mask1)">
<path d="M485.176 180.833L463.024 181.385L464.085 224.35L486.237 223.798L485.176 180.833Z" fill="#232323"/>
</g>
<path d="M546.299 210.368L546.299 210.368C550.61 212.165 552.802 215.287 553.938 219.06C555.092 222.895 555.138 227.355 555.119 231.744C555.118 232.003 555.117 232.261 555.116 232.52C555.094 236.552 555.073 240.552 556.042 243.58C556.569 245.228 557.412 246.674 558.773 247.7C560.137 248.727 561.914 249.251 564.157 249.251C582.408 249.251 605.847 229.399 602.451 193.11L602.45 193.107C601.913 187.549 599.338 181.882 596.433 176.387C595.555 174.727 594.65 173.087 593.755 171.465C591.647 167.645 589.595 163.925 588.09 160.292C584.05 150.537 579.989 141.42 574.082 134.38C568.135 127.293 560.333 122.326 548.886 120.815C541.509 119.842 534.508 121.088 528.256 122.752C525.788 123.408 523.42 124.135 521.193 124.818C520.602 124.999 520.021 125.177 519.451 125.35C516.716 126.18 514.237 126.888 512.014 127.282L512.014 127.282C505.998 128.349 500.796 128.238 495.15 128.118L495.105 128.117C489.447 127.996 483.37 127.871 475.744 128.966C468.423 129.971 459.772 132.56 452.923 137.554C446.038 142.574 440.97 150.039 440.97 160.675C440.97 166.41 443.695 171.253 447.286 174.642C450.855 178.012 455.395 180.05 459.191 180.05C467.831 180.05 474.568 176.383 480.741 173.023C482.099 172.284 483.429 171.559 484.747 170.892C488.443 169.021 492.053 167.572 495.984 167.282C499.892 166.994 504.204 167.846 509.303 170.732C513.154 172.925 515.2 175.711 516.351 178.805C517.52 181.948 517.779 185.437 517.971 189.08C517.987 189.388 518.003 189.697 518.019 190.007C518.367 196.89 518.741 204.269 525.934 208.97C529.832 211.517 533.606 211.105 537.004 210.507C537.366 210.443 537.721 210.378 538.071 210.314C541.096 209.762 543.707 209.285 546.299 210.368Z" fill="#FBFBFB" stroke="#232323" stroke-width="2" stroke-miterlimit="10"/>
<path d="M473.517 251.11C480.696 249.678 487.84 245.969 492.767 240.536" stroke="#232323" stroke-width="2" stroke-miterlimit="10"/>
<path d="M478.829 279.702L493.615 295.997L516.498 269.914L539.561 295.131L555.78 277.831M516.497 270.04V350.369" stroke="#FBFBFB" stroke-width="2" stroke-miterlimit="10"/>
<path d="M477.132 180.898C477.132 180.898 489.79 176.109 499.75 183.817" stroke="#232323" stroke-width="2" stroke-miterlimit="10"/>
<path d="M585.742 284.016C568.299 284.016 558.965 299.375 558.965 312.138C558.965 318.421 559.327 331.267 559.327 339.017C559.327 349.643 554.917 354.111 544.331 354.111C524.05 354.111 509.403 325.403 444.929 325.403L445.667 407.305C445.667 407.305 561.942 407.305 575.462 407.305C588.983 407.305 613.409 401.599 613.409 366.119V313.059C613.409 302.643 606.593 284.016 585.742 284.016Z" fill="#FBFBFB" stroke="#232323" stroke-width="2" stroke-miterlimit="10"/>
<path d="M388.883 370.838C388.883 378.348 391.855 385.551 397.145 390.861C402.436 396.172 409.611 399.155 417.093 399.155C424.574 399.155 431.75 396.172 437.04 390.861C442.33 385.551 445.303 378.348 445.303 370.838C445.303 365.993 445.497 333.138 445.497 319.649C445.497 312.821 442.437 307.892 437.151 307.892C432.589 307.892 429.264 311.983 429.264 319.649C429.264 322.637 429.139 330.094 429.139 332.216C429.139 340.021 422.073 342.465 417.107 342.465C413.396 342.463 409.722 343.196 406.294 344.622C402.866 346.047 399.752 348.138 397.131 350.774C394.509 353.409 392.431 356.538 391.016 359.981C389.6 363.424 388.876 367.113 388.883 370.838Z" fill="#FBFBFB" stroke="#232323" stroke-width="2" stroke-miterlimit="10"/>
<path d="M446.055 404.826C446.055 404.826 467.365 395.276 467.365 365.185C467.365 338.222 445.262 325.935 445.262 325.935" stroke="#232323" stroke-width="2" stroke-miterlimit="10"/>
<path d="M533.676 233.984C533.676 233.984 547.754 233.048 549.325 222.408C550.967 211.322 542.012 209.943 542.012 209.943" stroke="#232323" stroke-width="2" stroke-miterlimit="10"/>
<path d="M403.669 315.408H411.542" stroke="#232323" stroke-width="2" stroke-miterlimit="10"/>
<path d="M412.448 332.122H429.113" stroke="#232323" stroke-width="2" stroke-miterlimit="10"/>
<path d="M418.708 386.451H394.032" stroke="#232323" stroke-width="2" stroke-miterlimit="10"/>
<path d="M418.708 356.221H393.197" stroke="#232323" stroke-width="2" stroke-miterlimit="10"/>
<path d="M418.181 371.215H389.526" stroke="#232323" stroke-width="2" stroke-miterlimit="10"/>
<path d="M486.145 215.275C493.106 215.275 498.748 209.611 498.748 202.625C498.748 195.638 493.106 189.974 486.145 189.974C479.185 189.974 473.543 195.638 473.543 202.625C473.543 209.611 479.185 215.275 486.145 215.275Z" stroke="#232323" stroke-width="2" stroke-miterlimit="10"/>
<path d="M332.401 216.004C329.615 216.677 327.165 218.338 325.501 220.68C323.837 223.022 323.072 225.889 323.346 228.753C324 234.98 327.324 235.971 327.338 241.501C327.338 248.65 320.035 254.696 321.691 261.719C323.722 270.39 332.04 272.275 337.993 279.648C343.122 286.387 346.26 295.427 347.049 303.871C349.109 303.103 351.26 302.605 353.448 302.391C356.981 302.489 357.76 253.09 348.704 229.465C345.992 222.371 338.564 214.552 332.401 216.004Z" stroke="#FBFBFB" stroke-width="2" stroke-miterlimit="10"/>
<path d="M352.196 302.698C352.196 302.698 353.74 286.21 348.398 278.419C341.749 268.644 331.469 266.885 331.469 258.382C331.469 246.848 340.845 243.022 340.845 233.499C340.845 224.689 332.68 224.088 332.68 215.347C332.68 207.151 339.913 201.999 348.704 201.999C359.596 201.999 364.729 208.366 364.729 215.04C364.729 223.544 355.061 228.71 355.061 235.985C355.061 243.26 368.665 247.672 368.665 262.989C368.665 278.307 354.936 302.753 354.936 302.753L352.196 302.698Z" stroke="#FBFBFB" stroke-width="2" stroke-miterlimit="10"/>
<path d="M349.581 395.862L337.062 320.796C336.673 318.464 336.793 316.074 337.416 313.793C338.038 311.512 339.147 309.394 340.667 307.586C342.186 305.778 344.078 304.324 346.213 303.323C348.348 302.323 350.675 301.801 353.031 301.793C355.371 301.794 357.683 302.303 359.81 303.284C361.936 304.265 363.827 305.695 365.352 307.477C366.877 309.258 368.001 311.35 368.648 313.607C369.294 315.865 369.447 318.236 369.097 320.559L357.677 395.806C357.457 396.713 356.941 397.521 356.212 398.1C355.482 398.68 354.581 398.998 353.651 399.005C352.72 399.011 351.815 398.705 351.077 398.136C350.34 397.566 349.813 396.766 349.581 395.862Z" fill="#FF592C" stroke="#232323" stroke-width="2" stroke-miterlimit="10"/>
<path d="M352.293 325.139H368.332" stroke="#232323" stroke-width="2" stroke-miterlimit="10"/>
<path d="M340.482 314.805H348.662" stroke="#232323" stroke-width="2" stroke-miterlimit="10"/>
<path d="M300.089 191.302C300.089 191.302 301.758 200.937 305.277 206.061C309.77 212.638 313.735 212.959 315.654 216.799C317.574 220.639 315.167 227.229 308.602 228.472C306.627 228.907 304.58 228.881 302.617 228.397C300.654 227.913 298.828 226.983 297.279 225.679" fill="#FBFBFB"/>
<path d="M300.089 191.302C300.089 191.302 301.758 200.937 305.277 206.061C309.77 212.638 313.735 212.959 315.654 216.799C317.574 220.639 315.167 227.229 308.602 228.472C306.627 228.907 304.58 228.881 302.617 228.397C300.654 227.913 298.828 226.983 297.279 225.679" stroke="#232323" stroke-width="2" stroke-miterlimit="10"/>
<path d="M237.619 266.715C272.92 266.715 301.536 237.989 301.536 202.555C301.536 167.12 272.92 138.394 237.619 138.394C202.319 138.394 173.702 167.12 173.702 202.555C173.702 237.989 202.319 266.715 237.619 266.715Z" fill="#FBFBFB" stroke="#232323" stroke-width="2" stroke-miterlimit="10"/>
<path d="M268.415 213.698C275.375 213.698 281.018 208.034 281.018 201.047C281.018 194.061 275.375 188.397 268.415 188.397C261.455 188.397 255.813 194.061 255.813 201.047C255.813 208.034 261.455 213.698 268.415 213.698Z" stroke="#232323" stroke-width="2" stroke-miterlimit="10"/>
<mask id="mask2" mask-type="alpha" maskUnits="userSpaceOnUse" x="255" y="188" width="27" height="26">
<path d="M268.415 213.698C275.375 213.698 281.018 208.034 281.018 201.047C281.018 194.061 275.375 188.397 268.415 188.397C261.455 188.397 255.813 194.061 255.813 201.047C255.813 208.034 261.455 213.698 268.415 213.698Z" fill="#232323"/>
</mask>
<g mask="url(#mask2)">
<path d="M268.374 222.233L290.526 222.784L291.587 179.819L269.435 179.268L268.374 222.233Z" fill="#232323"/>
</g>
<path d="M295.318 333.991C295.318 303.635 252.433 299.083 237.619 267.917C205.125 267.917 161.072 305.701 161.072 329.676C161.072 358.077 166.669 371.275 166.669 398.112L295.165 406.318C295.165 406.318 295.318 370.141 295.318 333.991Z" fill="#FBFBFB" stroke="#232323" stroke-width="2" stroke-miterlimit="10"/>
<path d="M381.589 371.229C381.425 378.632 378.38 385.677 373.106 390.855C367.832 396.032 360.749 398.931 353.372 398.931C345.995 398.931 338.911 396.032 333.638 390.855C328.364 385.677 325.319 378.632 325.155 371.229C325.155 366.37 324.96 333.529 324.96 320.027C324.96 313.213 328.035 308.284 333.307 308.284C337.869 308.284 341.194 312.361 341.194 320.027C341.194 323.015 341.319 330.471 341.319 332.593C341.319 340.399 348.385 342.842 353.351 342.842C357.064 342.839 360.741 343.571 364.171 344.996C367.601 346.422 370.718 348.514 373.341 351.151C375.964 353.788 378.043 356.919 379.459 360.365C380.874 363.81 381.598 367.502 381.589 371.229Z" fill="#FBFBFB" stroke="#232323" stroke-width="2" stroke-miterlimit="10"/>
<path d="M182.173 307.754C174.915 307.923 168.015 310.959 162.973 316.203C157.931 321.448 155.154 328.477 155.243 335.764V372.068C155.243 381.144 156.634 407.307 178.571 407.307H324.989V338.585C280.699 338.585 239.928 370.588 219.494 370.588C210.995 370.588 206.641 364.849 206.641 357.212V307.615C206.641 298.064 194.331 307.754 182.173 307.754Z" fill="#FBFBFB" stroke="#232323" stroke-width="2" stroke-miterlimit="10"/>
<path d="M237.884 194.57C230.651 200.504 222.694 202.529 222.694 208.756C222.694 217.204 238.357 215.389 239.623 227.299C240.847 238.888 233.488 242.337 233.488 251.204C233.488 270.613 266.414 275.388 266.414 302.476C266.414 324.719 241.487 347.158 211.566 347.158C175.761 347.158 155.731 324.398 155.731 299.921C155.731 275.444 172.047 268.351 175.316 251.162C178.488 234.476 170.406 219.228 170.406 197.949C170.406 165.177 194.526 139.304 226.617 137.084C248.706 135.604 258.61 139.737 270.559 145.462C282.508 151.186 291.827 143.255 294.957 151.368C297.739 158.587 286.152 169.715 274.718 169.604C258.276 169.436 250.167 159.83 244.63 163.865C236.924 169.408 249.29 185.2 237.884 194.57Z" fill="#FBFBFB" stroke="#232323" stroke-width="2" stroke-miterlimit="10"/>
<path d="M223.123 178.945C222.776 187.7 201.646 193.425 202.648 204.539C203.649 215.654 217.072 218.684 218.422 231.823C219.771 244.963 200.339 253.382 201.298 267.541C202.258 281.699 227.143 289.77 225.46 311.664C224.069 329.495 205.332 333.223 205.332 333.223" stroke="#232323" stroke-width="2" stroke-miterlimit="10"/>
<path d="M324.988 338.585C319.062 341.904 314.143 346.772 310.754 352.673C307.364 358.573 305.63 365.286 305.736 372.096C305.736 393.795 324.988 405.901 324.988 405.901" stroke="#232323" stroke-width="2" stroke-miterlimit="10"/>
<path d="M351.318 356.221H377.581" stroke="#232323" stroke-width="2" stroke-miterlimit="10"/>
<path d="M351.318 386.451H376.829" stroke="#232323" stroke-width="2" stroke-miterlimit="10"/>
<path d="M351.847 371.455H380.516" stroke="#232323" stroke-width="2" stroke-miterlimit="10"/>
<path d="M280.808 249.628C273.63 248.184 266.723 244.39 261.793 238.958" stroke="#232323" stroke-width="2" stroke-miterlimit="10"/>
<path d="M277.429 179.295C277.429 179.295 264.77 174.505 254.811 182.213" stroke="#232323" stroke-width="2" stroke-miterlimit="10"/>
</svg>
