<svg width="195" height="48" viewBox="0 0 195 48" fill="none" xmlns="http://www.w3.org/2000/svg">
<g clip-path="url(#clip0)">
<path d="M40.7197 28.9288C41.4397 25.4932 43.9808 23.0163 47.7292 23.0163C51.4797 23.0163 53.9807 25.2365 54.6245 28.9288H40.7197ZM17.5309 40.3286C16.5101 40.5111 15.2706 40.5512 14.2598 40.5512H8.34529V25.1362H13.6381C15.3067 25.1362 17.196 25.3267 18.281 25.6055C21.9934 26.5862 24.1213 29.2436 24.1213 32.7715C24.1213 36.4157 22.1619 39.4923 17.5309 40.3286ZM8.34529 6.37981H10.6036C12.7837 6.37981 14.5045 6.61647 15.748 7.09581C18.1908 8.05047 19.356 9.98989 19.356 12.4247C19.362 14.4764 18.5718 17.7155 14.2478 18.5959C13.5238 18.7403 12.4828 18.8205 11.0087 18.8205H8.34529V6.37981ZM62.2578 27.7114C61.8206 25.5774 60.9782 23.8205 59.7628 22.226C57.2759 18.9389 53.2466 16.8671 47.7934 16.8671C39.3158 16.8671 34.1032 22.6191 32.5589 28.6961C31.177 24.4162 27.4647 21.5281 23.5437 20.3087C26.494 18.1587 28.0383 15.0801 28.0383 11.5683C28.0383 8.3092 26.6825 5.34493 24.4121 3.41153C21.0808 0.577618 16.5362 5.53846e-06 10.9405 5.53846e-06H0V47.2399C3.10066 47.2399 6.28554 47.2238 9.39422 47.2399C12.1539 47.2519 14.8535 47.2299 17.3705 47.1316C25.3387 46.8127 30.79 42.8055 32.5328 36.7847C33.1325 39.4642 34.2837 41.6443 35.7899 43.2969C38.8585 46.6783 43.3069 48 47.7834 48C53.2948 48 57.2839 46.3935 60.0075 43.9467L56.1106 39.3639C54.1492 40.844 51.6261 41.7165 48.7942 41.7165C43.2427 41.6984 40.7939 38.1806 40.5713 34.8072H62.2578V47.2399H70.3805V0.234656H62.2578V27.7114Z" fill="#FF592C"/>
<path d="M75.8029 47.2401H83.7831V0.23489H75.8029V47.2401Z" fill="#FF592C"/>
<path d="M116.379 19.9623C116.379 19.6695 116.253 19.4188 116.122 19.4188C115.91 19.4188 115.693 19.5411 115.394 20.3153L106.74 40.1386H104.179L95.5249 20.3153C95.3544 19.9262 95.1438 19.4188 94.843 19.4188C94.6685 19.4188 94.5461 19.5411 94.5461 19.9262V47.088H91.7704V19.9262C91.7704 18.0911 93.0098 16.8155 94.7567 16.8155C96.4655 16.8155 97.4863 17.8785 98.1682 19.503L105.463 36.3861L112.753 19.503C113.353 18.1773 114.373 16.8155 116.253 16.8155C118.17 16.8155 119.151 18.1773 119.151 20.0104V47.088H116.379V19.9623Z" fill="#FF592C"/>
<path d="M154.628 28.5859C149.811 28.5859 147.081 32.1659 147.081 36.7327C147.081 41.2493 149.468 45.0058 154.504 45.0058C157.533 45.0058 159.534 43.9829 161.241 42.7455V34.681C161.241 31.1872 158.555 28.5859 154.628 28.5859ZM164.015 47.0896H161.454V46.5361C161.454 45.5994 160.683 45.7699 160.088 46.0246C158.511 46.7527 156.377 47.3463 154.332 47.3463C147.846 47.3463 144.306 42.8257 144.306 36.7748C144.306 30.8041 148.405 26.1933 154.504 26.1933C157.747 26.1933 159.917 27.2622 161.454 28.7945V16.6827H164.015V47.0896Z" fill="#FF592C"/>
<path d="M168.849 26.6186H171.622V47.0897H168.849V26.6186ZM170.258 22.5652C169.025 22.5652 168.427 21.9335 168.427 20.692C168.427 19.4586 169.025 18.8569 170.258 18.8569C171.496 18.8569 172.051 19.4586 172.051 20.692C172.051 21.9335 171.496 22.5652 170.258 22.5652Z" fill="#FF592C"/>
<path d="M185.568 28.4588C180.324 28.4588 177.723 32.3396 177.723 36.9886C177.723 41.6797 180.368 45.005 185.446 45.005C187.877 45.005 190.264 44.1105 191.926 43.1719V34.981C191.926 30.8856 189.026 28.4588 185.568 28.4588ZM194.656 26.6177V47.0888H192.225L192.181 46.9243C192.012 46.0258 191.331 46.0258 190.771 46.1943C189.879 46.447 189.026 46.7519 188.128 47.0086C187.233 47.2212 186.297 47.3896 185.187 47.3896C178.962 47.3896 174.913 43.3805 174.913 37.0648C174.913 31.052 178.834 26.0701 185.446 26.0701C188.39 26.0701 190.605 27.091 192.053 28.7516V26.6177H194.656Z" fill="#FF592C"/>
<path d="M125.473 34.8535H139.075C138.608 31.097 136.431 28.4075 132.462 28.4075C128.67 28.4075 126.022 31.3096 125.473 34.8535ZM133.152 45.0479C135.88 45.0479 138.094 44.1915 140.186 42.6573L141.463 44.703C139.075 46.5361 136.389 47.4707 132.934 47.4707C126.327 47.4707 122.527 42.9521 122.527 36.7708C122.527 30.75 126.624 26.067 132.462 26.067C138.01 26.067 141.682 29.7713 141.977 35.2305C141.977 35.2305 142.105 36.8591 142.105 37.192H125.385C125.515 41.8029 128.245 45.0479 133.152 45.0479Z" fill="#FF592C"/>
</g>
<defs>
<clipPath id="clip0">
<rect width="194.656" height="48" fill="white"/>
</clipPath>
</defs>
</svg>
