<svg width="243" height="48" viewBox="0 0 243 48" fill="none" xmlns="http://www.w3.org/2000/svg">
<g clip-path="url(#clip0)">
<g clip-path="url(#clip1)">
<path d="M122.834 42.6074C122.834 43.4515 122.834 43.6433 123.404 44.1613L126.594 47.3074V47.4417H112.448V41.3988C111.024 45.3815 107.259 48.0153 103.068 47.9597C95.7951 47.9597 90.5164 42.2045 90.5164 31.615C90.5164 21.697 96.2129 15.0785 104.207 15.0785C107.75 14.8532 111.048 16.9151 112.429 20.2198V6.88701C112.534 6.26959 112.284 5.6453 111.783 5.27556L108.745 2.32125V2.18696L122.834 0.517964V42.6074ZM112.448 40.689V20.7953C111.423 19.5088 109.867 18.7725 108.232 18.8002C104.796 18.8002 101.473 21.9463 101.473 31.2889C101.473 40.0367 104.34 43.1253 107.91 43.1253C109.72 43.0879 111.404 42.1835 112.448 40.689ZM132.214 47.4417V20.5843C132.305 19.9845 132.091 19.379 131.645 18.9728L128.512 15.7116V15.5773H142.658V42.8184C142.658 43.6625 142.658 43.8543 143.227 44.3723L146.342 47.3266V47.4609L132.214 47.4417ZM131.702 5.75516C131.702 2.57667 134.252 0 137.398 0C140.544 0 143.095 2.57667 143.095 5.75516C143.095 8.93365 140.544 11.5103 137.398 11.5103C134.252 11.5103 131.702 8.93365 131.702 5.75516ZM180.824 42.5498C180.824 43.3939 180.824 43.6433 181.394 44.1613L184.584 47.3074V47.4417H170.362V40.5547C169.066 44.9093 165.121 47.9087 160.621 47.9597C154.317 47.9597 150.937 43.3172 150.937 34.531C150.937 30.2913 150.937 25.6488 151.07 20.4308C151.174 19.8467 150.956 19.2516 150.5 18.8769L147.367 15.7116V15.5773H161.399C161.399 15.7691 161.399 32.2481 161.399 33.0922C161.399 38.8473 162.235 42.6841 165.804 42.6841C167.722 42.563 169.449 41.4739 170.399 39.7873V20.6035C170.49 20.0037 170.276 19.3982 169.83 18.992L166.678 15.7116V15.5773H180.824V42.5498ZM228.978 47.4417C228.978 46.4058 229.168 33.2073 229.168 30.1762C229.168 24.4211 228.275 20.45 224.269 20.45C222.253 20.5128 220.386 21.5378 219.237 23.2125C219.639 25.006 219.83 26.8411 219.807 28.6799C219.807 32.6701 219.674 37.7538 219.617 42.8376C219.513 43.4217 219.731 44.0168 220.186 44.3915L223.376 47.3458V47.4801H209.097C209.097 46.5209 209.287 33.2456 209.287 30.2146C209.287 24.3635 208.395 20.4884 204.445 20.4884C202.498 20.5589 200.722 21.6299 199.736 23.3276V42.8951C199.736 43.7392 199.736 43.9311 200.306 44.449L203.42 47.4033V47.5376H189.293V20.6802C189.383 20.0804 189.169 19.4749 188.723 19.0688L185.59 15.7116V15.5773H199.736V22.4068C201.048 17.8977 205.228 14.8687 209.876 15.0593C214.585 15.0593 217.775 17.7067 219.123 22.7329C220.62 18.0974 224.931 14.9869 229.756 15.0593C236.06 15.0593 239.63 19.7594 239.63 28.6415C239.63 32.8811 239.497 37.7155 239.44 42.7992C239.33 43.4009 239.583 44.0115 240.086 44.3531L243.2 47.3074V47.4417H228.978ZM51.268 43.2596L55.4643 47.3074V47.4417H34.1786V47.3074L38.451 43.2596C38.9066 42.885 39.1248 42.2898 39.0206 41.7057V15.8267C39.0206 14.7332 39.0206 13.2561 39.2105 11.9899L24.8555 47.9597H24.6846L9.81686 14.8675C9.49407 14.0426 9.39913 13.985 9.19026 13.4287V35.1257C9.01226 36.5778 9.25637 38.0509 9.89282 39.3653L15.8741 47.3074V47.4417H0V47.3074L5.98126 39.3461C6.61301 38.0371 6.85698 36.5715 6.68382 35.1257V11.1458C6.78108 9.96511 6.42783 8.79151 5.69644 7.86539L1.46209 2.32125V2.18696H16.6526L29.3746 30.2146L40.5776 2.18696H55.4453V2.32125L51.268 7.02129C50.7674 7.39104 50.5173 8.01532 50.6224 8.63274V41.7057C50.5117 42.3074 50.7654 42.918 51.268 43.2596ZM67.9205 30.2913V30.4256C67.9205 38.6363 72.1169 41.9359 77.0349 41.9359C81.1414 42.0776 84.9419 39.7512 86.7188 36.0081H86.8517C85.1428 44.1229 80.1679 47.9597 72.7245 47.9597C64.6926 47.9597 57.1163 43.0678 57.1163 31.7301C57.1163 19.8169 64.7116 15.0593 73.1043 15.0593C79.8641 15.0593 87.0606 18.2822 87.0606 28.6415C87.0606 28.8333 87.0606 29.524 87.0606 30.2913H67.9205ZM67.9205 28.6415H77.2817C77.2817 27.7974 77.2817 27.2219 77.2817 26.9725C77.2817 18.5316 75.5538 16.2871 72.9524 16.2871C69.8004 16.2871 67.8826 19.6443 67.8826 28.6415H67.9205Z" fill="#FF592C"/>
</g>
</g>
<defs>
<clipPath id="clip0">
<rect width="243" height="48" fill="white"/>
</clipPath>
<clipPath id="clip1">
<rect width="243.2" height="47.9605" fill="white"/>
</clipPath>
</defs>
</svg>
