<svg width="212" height="48" viewBox="0 0 212 48" fill="none" xmlns="http://www.w3.org/2000/svg">
<g clip-path="url(#clip0)">
<g clip-path="url(#clip1)">
<path d="M76.3378 39.7763C67.4324 39.7763 61 32.5662 61 23.7017C61 14.8371 67.3378 7.22349 76.6081 7.22349C80.7162 7.22349 83.6351 8.17855 86.1757 9.75239V17.5408H93.8378V6.18772L92.3648 5.04434C88.1486 1.7487 81.7162 0 76.3378 0C63.2027 0 52.527 10.6267 52.527 23.7017C52.527 36.7766 63.2027 47.4033 76.3378 47.4033C84.5405 47.4033 90.7162 44.0001 95.2702 38.0814L89.1892 33.454C86.0946 37.4761 81.4189 39.7763 76.3378 39.7763ZM206.013 39.3727L205.743 28.4501V1.80251H189.77V9.42955H197.676V27.495C197.676 35.2835 191.689 40.7852 185.662 40.7852C179.635 40.7852 176.486 36.6286 176.486 28.8402V1.80251H161.568V9.42955H168.419V30.1853C168.419 40.7448 174.365 48.0086 184.986 48.0086C191.081 48.0086 195.73 44.6592 198.5 39.4534H198.622L199.716 46.7173H211.986V39.3593H206.013V39.3727ZM25.8784 34.5705H25.7027L14.1757 1.11648H0V8.74352H7.97297L21.7027 46.8787H29V46.8653L43.3108 8.74352H50.7567V1.11648H37.4594L25.8784 34.5705ZM101.324 46.9594H109.203V39.1172H101.324V46.9594ZM131.784 10.6402H131.689L131.189 1.80251H117.108V8.75697H124.608V39.3593H117.108V46.7173H151.892V39.4938H132.54V21.0248C133.419 14.3394 138.446 8.62245 145.324 8.62245H145.446L145.311 15.4559H152.973V1.65454H146.932C139.986 1.65454 134.838 5.39408 131.784 10.6402Z" fill="#FF592C"/>
</g>
</g>
<defs>
<clipPath id="clip0">
<rect width="212" height="48" fill="white"/>
</clipPath>
<clipPath id="clip1">
<rect width="211.986" height="48.0086" fill="white"/>
</clipPath>
</defs>
</svg>
