<svg width="323" height="48" viewBox="0 0 323 48" fill="none" xmlns="http://www.w3.org/2000/svg">
<g clip-path="url(#clip0)">
<path d="M8.26619 20.3059L14.2471 37.8289L18.1326 26.2104C18.8183 24.1915 19.4279 22.2105 19.9612 20.5348H27.9991L19.9994 40.1528C18.7041 43.353 17.9423 45.2191 17.2184 47.4289L11.1996 47.7718L3.23809 28.4206C2.28533 26.0197 1.06674 22.9723 0 20.6484L8.26619 20.3059Z" fill="#FF592C"/>
<path d="M35.9207 34.629C35.9207 26.1342 41.5584 19.8866 49.9773 19.8866C58.0153 19.8866 63.3101 25.7914 63.3101 33.2576C63.3101 41.7524 57.6346 48 49.2538 48C41.2158 47.9997 35.9207 42.057 35.9207 34.629ZM55.8818 34.0576C55.8818 28.9528 53.2912 25.8293 49.6724 25.8293C45.825 25.8293 43.3108 29.4481 43.3108 33.829C43.3108 38.9338 45.9396 42.0573 49.5581 42.0573C53.4058 42.057 55.8818 38.4382 55.8818 34.0576Z" fill="#FF592C"/>
<path d="M71.3456 47.3139L80.6024 33.6004L76.9836 28.3052L71.7645 20.6483L80.1832 20.344L85.6687 28.9151L87.5351 25.7149C88.4876 24.1535 89.8208 22.02 90.7732 20.5344H99.0776L90.24 33.7911L93.516 38.5906C95.0398 40.8762 97.6301 44.8379 99.3065 47.3142L90.8117 47.6189L85.174 38.5145L83.4216 41.3716C82.5834 42.7808 80.7549 45.714 79.7267 47.3142H71.3456V47.3139Z" fill="#FF592C"/>
<path d="M125.435 38.1335L126.578 29.7148C126.921 27.2767 127.53 22.4772 127.683 20.458L133.473 20.1915C134.159 21.6772 135.111 23.8864 135.911 25.601L140.864 36.6099L145.702 25.4106C146.425 23.7725 147.301 21.7536 147.911 20.2676H153.548C153.815 22.4772 154.425 27.2388 154.768 29.7148L155.949 38.1335C156.292 40.6098 157.053 45.3333 157.472 47.3139L149.968 47.6186C149.892 46.5137 149.549 43.3141 149.32 41.8281L148.215 33.3333C146.349 38.0189 143.035 46.2854 142.54 47.5804L138.578 47.7708L132.826 33.6762L131.912 41.8281C131.721 43.3138 131.454 46.2469 131.417 47.3136H123.912C124.369 45.333 125.093 40.6095 125.435 38.1335Z" fill="#FF592C"/>
<path d="M187.373 47.4661C184.859 47.314 181.735 47.2758 178.764 47.2758C175.411 47.2758 171.831 47.314 168.974 47.4661C169.164 45.6376 169.24 40.6095 169.24 38.1332V29.7146C169.24 27.2764 169.164 22.1341 168.974 20.3055C171.755 20.4198 174.764 20.4959 178.23 20.4959C181.354 20.4959 184.287 20.4198 186.878 20.3055C186.726 22.2101 186.573 24.0387 186.573 26.3625C184.63 26.3243 182.687 26.2864 180.364 26.2864C179.221 26.2864 177.964 26.2864 176.859 26.3243C176.783 26.8578 176.783 27.6578 176.783 28.0388V30.972L185.088 30.9338C185.012 32.5337 184.973 34.2861 184.973 36.2668H176.783V39.6953C176.783 40.1145 176.783 40.9145 176.859 41.4477C177.964 41.4477 179.221 41.4859 180.364 41.4859C183.069 41.4859 185.354 41.4477 187.64 41.3716C187.449 43.2759 187.373 45.1426 187.373 47.4661Z" fill="#FF592C"/>
<path d="M209.046 47.314H199.028C199.218 45.4855 199.294 40.6095 199.294 38.1335V29.7149C199.294 27.2767 199.218 22.439 199.028 20.6108C200.399 20.6108 203.789 20.3444 208.018 20.3444C218.112 20.3444 223.712 25.1821 223.712 33.3722C223.713 41.9427 217.999 47.314 209.046 47.314ZM208.894 26.1339C208.094 26.1339 207.599 26.1721 206.989 26.2482C206.951 26.7435 206.951 27.5435 206.951 27.9624V39.8096C206.951 40.2667 206.951 40.8381 206.989 41.4095C207.599 41.4856 208.056 41.5235 208.97 41.5235C214.037 41.5235 216.246 38.1714 216.246 33.6762C216.246 28.8767 213.465 26.1339 208.894 26.1339Z" fill="#FF592C"/>
<path d="M235.215 47.3139C235.405 45.4854 235.481 40.6095 235.481 38.1335V29.7148C235.481 27.2767 235.405 22.3629 235.215 20.5344C236.7 20.5344 242.071 20.4962 243.328 20.344C243.214 21.4486 243.176 24.496 243.176 25.9817V41.8284C243.176 43.2759 243.214 46.2472 243.328 47.3139H235.215Z" fill="#FF592C"/>
<path d="M262.031 27.8102C263.364 24.6482 264.24 22.6675 264.964 20.5344L271.097 20.1533L279.44 39.5046C280.43 41.8663 281.878 44.9519 282.945 47.3136L274.831 47.6183L272.773 42.5135H263.441C262.945 43.7706 261.841 46.7798 261.612 47.3133H253.688L262.031 27.8102ZM265.003 37.7906H271.136L268.05 29.5241L265.003 37.7906Z" fill="#FF592C"/>
<path d="M322.68 0V20.6248L304.379 10.3127L322.68 0Z" fill="#FF592C"/>
<path d="M286.077 0V20.6248L304.378 10.3127L286.077 0Z" fill="#FF592C"/>
<path d="M304.379 10.3108V30.9356L322.68 20.6232L304.379 10.3108Z" fill="#FF592C"/>
<path d="M304.378 10.3108V30.9356L286.077 20.6232L304.378 10.3108Z" fill="#FF592C"/>
<g opacity="0.79">
<path opacity="0.79" d="M304.379 10.3108V30.9356L322.68 20.6232L304.379 10.3108Z" fill="#FF592C"/>
</g>
<path opacity="0.79" d="M304.378 10.3108V30.9356L286.077 20.6232L304.378 10.3108Z" fill="#FF592C"/>
<path d="M322.574 0V20.6099L304.286 10.3053L322.574 0Z" fill="#FF592C"/>
<path opacity="0.2" d="M322.674 0.00744629V20.617L304.385 10.313L322.674 0.00744629Z" fill="#FF592C"/>
<path d="M285.997 0V20.6099L304.285 10.3053L285.997 0Z" fill="#FF592C"/>
<path opacity="0.2" d="M285.997 0V20.6099L304.285 10.3053L285.997 0Z" fill="#FF592C"/>
<path d="M304.286 10.3037V30.9136L322.574 20.6083L304.286 10.3037Z" fill="#FF592C"/>
<path d="M304.285 10.3037V30.9136L285.997 20.6083L304.285 10.3037Z" fill="#FF592C"/>
<g opacity="0.2">
<path opacity="0.2" d="M304.286 10.3037V30.9136L322.574 20.6083L304.286 10.3037Z" fill="#FF592C"/>
</g>
<path opacity="0.1" d="M304.285 10.3037V30.9136L285.997 20.6083L304.285 10.3037Z" fill="#FF592C"/>
</g>
<defs>
<clipPath id="clip0">
<rect width="322.68" height="48" fill="white"/>
</clipPath>
</defs>
</svg>
