<svg viewBox="0 0 1024 524" fill="none" xmlns="http://www.w3.org/2000/svg">
<g>
<path fill-rule="evenodd" clip-rule="evenodd" d="M-2.64056 323.115C19.2709 303.866 42.9662 307.165 64.6273 301.107C70.6031 299.435 80.0688 297.823 83.3522 305.011C83.3522 305.011 62.7622 322.162 37.5673 325.762C12.3724 329.361 -2.62471 335.66 -2.62471 335.66L-2.64056 323.115Z" fill="#EDE1D2"/>
<path d="M34.376 401.425C34.376 401.425 21.586 412.334 27.363 423.969C33.2474 435.845 60.4665 430.203 60.4665 430.203C38.8901 438.452 25.4552 447.131 15.6478 457.717C9.09154 464.811 9.14528 470.212 11.7516 472.549C16.8032 477.063 26.8256 469.54 35.7194 463.226C42.9743 458.067 74.0088 437.834 85.0523 430.633C87.4168 429.101 88.5722 426.253 87.9542 423.512C87.3631 420.825 85.1597 418.783 82.4459 418.299C79.9201 417.869 77.26 416.687 77.26 413.705C77.26 401.291 117.833 400.807 115.442 375.523C114.475 365.447 104.049 352.415 72.4772 359.401C37.4391 367.112 6.94196 391.86 6.94196 391.86C6.94196 391.86 11.5904 384.417 9.33337 376.141C6.94196 367.354 1.08436 364.157 1.08436 364.157C39.2662 364.533 68.4199 345.026 79.4634 335.809C92.0653 325.303 101.9 318.183 99.4007 310.014C97.7348 304.533 91.0711 301.9 80.7531 305.742C54.8776 315.442 25.7776 311.438 -2.73114 333.283V418.837C-2.73114 418.837 10.4888 432.621 34.779 435.63C56.3823 438.29 70.5157 436.839 77.3675 436.839C87.578 436.839 91.7697 446.136 104.372 446.136C113.534 446.136 125.249 437.162 128.957 430.552C128.957 430.552 126.029 424.023 118.451 426.065C110.659 428.161 108.644 439.553 102.867 438.371C94.1611 436.571 104.13 428.349 94.1611 414.376C89.6739 408.089 75.5673 408.976 64.7656 410.185C53.964 411.313 34.376 401.425 34.376 401.425Z" fill="#EDE1D3"/>
<path fill-rule="evenodd" clip-rule="evenodd" d="M33 117.903C33 66.903 98.9431 29.0019 156.943 30.9203C214.943 32.8387 238.827 52.8159 307.213 49.2167C364.835 46.1836 384.971 14.7898 426.89 12.3237C472.781 9.62438 490.258 31.6713 530.369 39.9184C594.556 53.1157 666.075 13.6629 711.533 30.9203C776.32 55.5152 782.74 105.005 818.912 105.005C875.901 105.005 896.587 55.5152 938.888 55.5152C971.882 55.5152 990.478 81.3101 990.478 117.903V197.087C990.478 244.478 974.281 269.673 949.686 269.673C912.493 269.673 889.098 213.284 833.309 213.284C786.38 213.284 766.813 246.197 745.727 273.872C716.932 311.665 676.14 342.859 601.755 356.656C542.313 367.681 486.292 359.483 425.39 372.253C351.005 387.849 324.01 402.846 280.219 402.846C225.017 402.846 178.401 372.254 156.943 316.464C138.947 269.673 142 246 95 220C61.1429 201.271 33 168.903 33 117.903Z" fill="#EDE1D2"/>
<path fill-rule="evenodd" clip-rule="evenodd" d="M1026.5 524.5L-2.02039 498.739V484.54C108.377 484.54 130.386 464.662 187.803 464.662C244.51 464.662 268.256 485.749 327.042 486.67C363.942 487.248 403.007 449.043 461.192 449.043C519.439 449.043 549.844 477.441 625.931 477.441C719.645 477.441 794.612 479.571 808.389 479.571C884.354 479.571 907.072 461.822 935.576 461.822C973.5 461.822 999 479.571 1035.5 464.662C1049.42 458.974 1026.5 524.5 1026.5 524.5Z" fill="#1D1D1B"/>
<path fill-rule="evenodd" clip-rule="evenodd" d="M817.043 480.991V283.967H783.73V263.028H817.519V241.137H837.142V263.504H849.991V240.185H869.979V263.028H878.199C901.184 263.028 921.804 281.652 921.804 306.875C921.804 342.55 897.353 355.416 897.353 355.416C897.353 355.416 928.766 369.472 928.766 412.303C928.766 455.134 902.404 480.458 866.196 480.458C847.56 480.458 817.043 480.991 817.043 480.991Z" fill="#1D1D1B"/>
<path fill-rule="evenodd" clip-rule="evenodd" d="M637.178 478.07V402.426H623.825V390.702H637.369V381.927H645.234V390.893H650.385V381.546H658.397V390.702H663.59C672.34 390.702 679.17 398.168 679.17 408.278C679.17 422.578 665.084 427.914 665.084 427.914C665.084 427.914 685.195 433.658 685.195 453.151C685.195 467.717 673.141 477.856 666.597 477.856C659.127 477.856 637.178 478.07 637.178 478.07Z" fill="#1D1D1B"/>
<path fill-rule="evenodd" clip-rule="evenodd" d="M512.96 474.315V417.562H503.364V411.53H513.097V405.224H518.75V411.667H522.451V404.95H528.209V411.53H531.941C538.229 411.53 543.137 416.895 543.137 424.161C543.137 434.437 533.014 438.271 533.014 438.271C533.014 438.271 544.163 442.192 544.163 454.529C544.163 466.867 535.315 474.162 524.885 474.162C519.517 474.162 512.96 474.315 512.96 474.315Z" fill="#1D1D1B"/>
<path fill-rule="evenodd" clip-rule="evenodd" d="M442.466 459.975V422.479H436.126V418.494H442.557V414.328H446.292V418.585H448.737V414.147H452.541V418.494H455.006C459.161 418.494 462.403 422.038 462.403 426.839C462.403 433.628 455.716 436.161 455.716 436.161C455.716 436.161 463.081 438.752 463.081 446.903C463.081 455.054 457.236 459.873 450.345 459.873C446.798 459.873 442.466 459.975 442.466 459.975Z" fill="#1D1D1B"/>
<path fill-rule="evenodd" clip-rule="evenodd" d="M374.582 480.231V442.735H368.242V438.75H374.673V434.584H378.407V438.841H380.853V434.403H384.657V438.75H387.122C391.277 438.75 394.519 442.294 394.519 447.095C394.519 453.884 387.832 456.418 387.832 456.418C387.832 456.418 395.197 459.008 395.197 467.159C395.197 475.31 389.351 480.13 382.461 480.13C378.914 480.13 374.582 480.231 374.582 480.231Z" fill="#1D1D1B"/>
<path fill-rule="evenodd" clip-rule="evenodd" d="M305.362 495.672V458.177H299.022V454.191H305.453V450.025H309.187V454.282H311.632V449.844H315.436V454.191H317.902C322.057 454.191 325.299 457.736 325.299 462.536C325.299 469.326 318.611 471.859 318.611 471.859C318.611 471.859 325.977 474.449 325.977 482.6C325.977 490.752 320.131 495.571 313.241 495.571C309.694 495.571 305.362 495.672 305.362 495.672Z" fill="#1D1D1B"/>
<path fill-rule="evenodd" clip-rule="evenodd" d="M717.127 289.153C704.38 294.554 705.222 308.825 709.282 318.408C714.537 330.809 725.549 328.137 729.848 338.284C734.147 348.43 717.453 358.163 724.141 373.947C730.828 389.73 747.258 382.104 751.319 391.687C755.379 401.27 750.268 415.9 764.256 435.789C772.298 447.226 816.909 480.458 816.909 480.458L819.205 469.064C819.205 469.064 811.063 426.28 801.146 411.992C792.131 399.002 775.781 395.663 770.527 383.261C765.273 370.86 780.584 369.313 773.419 352.403C766.254 335.492 748.604 342.97 743.827 331.696C739.05 320.422 749.836 315.852 744.104 302.324C738.372 288.795 726.932 284.998 717.127 289.153Z" fill="#1D1D1B"/>
<path d="M724.348 301.73C724.348 301.73 745.333 365.382 771.116 409.108C788.412 438.441 804.658 460.872 804.658 460.872" stroke="white"/>
<path fill-rule="evenodd" clip-rule="evenodd" d="M817.418 478.257C817.418 478.257 767.617 437.906 748.208 431.522C734.549 427.029 727.266 430.5 723.436 436.374C719.605 442.248 720.882 451.442 729.31 455.783C740.378 461.486 749.996 449.399 758.934 451.697C767.961 454.018 767.759 461.168 778.344 468.553C789.325 476.214 817.162 482.344 817.162 482.344L817.418 478.257Z" fill="#1D1D1B"/>
<path fill-rule="evenodd" clip-rule="evenodd" d="M890.968 477.492C890.968 477.492 945.876 428.968 951.75 424.626C957.624 420.285 965.541 411.857 973.713 416.709C979.256 420 978.566 429.479 972.947 434.331C967.329 439.184 957.624 434.331 951.239 438.417C944.854 442.503 953.027 449.399 945.621 455.017C939.339 459.782 932.416 456.11 924.847 461.527C913.393 469.726 904.248 477.236 904.248 477.236L890.968 477.492Z" fill="#1D1D1B"/>
<path fill-rule="evenodd" clip-rule="evenodd" d="M638.86 479.5C638.86 479.5 636.255 422.524 609.879 415.697C590.783 410.755 576.855 422.437 572.137 434.568C567.036 447.684 575.057 455.686 580.674 455.686C591.457 455.686 596.849 432.996 596.849 432.996C596.849 432.996 587.189 454.787 597.748 458.831C608.4 462.911 612.799 443.555 612.799 443.555C612.799 443.555 603.31 454.586 611.227 460.853C616.619 465.122 621.337 460.853 626.054 464.448C631.666 468.723 626.279 479.5 626.279 479.5H638.86Z" fill="#1D1D1B"/>
<path fill-rule="evenodd" clip-rule="evenodd" d="M666.044 487.138C666.044 470.963 679.074 456.585 699.068 456.585C719.062 456.585 721.084 461.752 721.309 465.122C721.534 468.492 717.04 470.738 712.548 470.513C708.054 470.289 701.09 462.651 701.09 462.651C701.09 462.651 700.011 470.156 694.8 472.086C688.734 474.333 687.756 471.209 680.422 473.209C673.008 475.231 674.805 485.565 674.805 485.565L666.044 487.138Z" fill="#1D1D1B"/>
<path fill-rule="evenodd" clip-rule="evenodd" d="M449.689 84.9451C452.03 102.631 439.591 118.866 421.905 121.207C404.218 123.548 387.984 111.109 385.642 93.4227C383.301 75.7366 395.741 59.5016 413.427 57.1604C431.113 54.8195 447.348 67.2591 449.689 84.9451Z" fill="white"/>
<path fill-rule="evenodd" clip-rule="evenodd" d="M449.689 84.9451C452.03 102.631 439.591 118.866 421.905 121.207C404.218 123.548 387.984 111.109 385.642 93.4227C383.301 75.7366 395.741 59.5016 413.427 57.1604C431.113 54.8195 447.348 67.2591 449.689 84.9451Z" stroke="#1D1D1B"/>
<path fill-rule="evenodd" clip-rule="evenodd" d="M296.723 362.49L502.978 251.856C516.799 244.442 521.994 227.228 514.58 213.407V213.407C507.166 199.586 489.953 194.391 476.132 201.805L269.876 312.439L296.723 362.49Z" fill="#1D1D1B"/>
<path fill-rule="evenodd" clip-rule="evenodd" d="M595.434 33.562L497.948 85.8527C484.127 93.2663 478.933 110.48 486.346 124.301C493.76 138.123 510.974 143.317 524.795 135.903L622.281 83.6125L595.434 33.562Z" fill="white"/>
<path fill-rule="evenodd" clip-rule="evenodd" d="M595.434 33.562L497.948 85.8527C484.127 93.2663 478.933 110.48 486.346 124.301C493.76 138.123 510.974 143.317 524.795 135.903L622.281 83.6125L595.434 33.562Z" stroke="#1D1D1B"/>
<path fill-rule="evenodd" clip-rule="evenodd" d="M279.543 259.529L377.029 207.238C390.85 199.825 396.044 182.61 388.631 168.79C381.217 154.968 364.003 149.774 350.182 157.187L252.696 209.478L279.543 259.529Z" fill="white"/>
<path fill-rule="evenodd" clip-rule="evenodd" d="M279.543 259.529L377.029 207.238C390.85 199.825 396.044 182.61 388.631 168.79C381.217 154.968 364.003 149.774 350.182 157.187L252.696 209.478L279.543 259.529Z" stroke="#1D1D1B"/>
<path fill-rule="evenodd" clip-rule="evenodd" d="M506.924 314.406L709.444 205.775L682.598 155.724L480.077 264.355C466.281 271.755 461.096 288.938 468.496 302.735L468.544 302.824C475.944 316.621 493.128 321.806 506.924 314.406Z" fill="#1D1D1B"/>
<path d="M120.75 398.801C154.676 435.771 226.689 445.651 286.22 440.168C436.018 426.371 621.52 313.242 740.944 242.305C799.87 207.304 848.268 191.33 889.324 191.33C956.947 191.33 978.777 242.447 978.777 277.944C978.777 342.55 979.487 391.537 979.487 391.537" stroke="#1D1D1B"/>
<path d="M169.153 271.25C169.153 271.25 110.606 307.264 106.966 345.403" stroke="#1D1D1B"/>
<path fill-rule="evenodd" clip-rule="evenodd" d="M698.347 183.521C707.645 197.223 737.137 187.518 771.827 172.516C798.096 161.157 814.192 139.921 810.165 129.564C805.195 116.786 778.572 123.885 758.338 133.824C739.597 143.03 713.256 156.543 713.256 156.543L709.707 145.893C709.707 145.893 684.858 163.642 698.347 183.521Z" fill="white"/>
<path fill-rule="evenodd" clip-rule="evenodd" d="M698.347 183.521C707.645 197.223 737.137 187.518 771.827 172.516C798.096 161.157 814.192 139.921 810.165 129.564C805.195 116.786 778.572 123.885 758.338 133.824C739.597 143.03 713.256 156.543 713.256 156.543L709.707 145.893C709.707 145.893 684.858 163.642 698.347 183.521Z" stroke="#1D1D1B"/>
<path fill-rule="evenodd" clip-rule="evenodd" d="M422.087 122.643C365.38 151.13 398.145 214.037 426.104 229.149L534.348 171.097C489.766 146.161 484.54 91.2699 422.087 122.643Z" fill="white"/>
<path fill-rule="evenodd" clip-rule="evenodd" d="M422.087 122.643C365.38 151.13 398.145 214.037 426.104 229.149L534.348 171.097C489.766 146.161 484.54 91.2699 422.087 122.643Z" stroke="#1D1D1B"/>
<path d="M810.164 129.565C806.437 138.972 800.354 145.978 775.021 155.478C755.143 162.933 741.356 159.311 718.535 173.312C716.508 168.541 713.277 156.547 713.277 156.547" stroke="#1D1D1B"/>
<path d="M682.61 155.83C682.61 155.83 664.766 176.095 674.719 193.311C685.129 211.317 709.421 205.775 709.421 205.775" stroke="white"/>
<path fill-rule="evenodd" clip-rule="evenodd" d="M281.606 337.58C271.683 324.533 244.688 336.87 224.1 350.36C209.798 359.73 179.342 384.651 187.892 397.926C197.501 412.845 267.407 367.576 267.407 367.576L263.857 380.887L281.606 372.368C281.606 372.368 290.641 349.461 281.606 337.58Z" fill="white"/>
<path fill-rule="evenodd" clip-rule="evenodd" d="M281.606 337.58C271.683 324.533 244.688 336.87 224.1 350.36C209.798 359.73 179.342 384.651 187.892 397.926C197.501 412.845 267.407 367.576 267.407 367.576L263.857 380.887L281.606 372.368C281.606 372.368 290.641 349.461 281.606 337.58Z" stroke="#1D1D1B"/>
<path fill-rule="evenodd" clip-rule="evenodd" d="M186.508 285.273C186.508 285.273 171.411 267.37 153.537 282.163C171.516 267.283 156.646 249.192 156.646 249.192C156.646 249.192 170.623 268.022 189.617 252.301C170.623 268.022 186.508 285.273 186.508 285.273Z" fill="#1D1D1B"/>
<path fill-rule="evenodd" clip-rule="evenodd" d="M1003.09 370.332C1003.09 370.332 979.672 370.548 979.672 393.75C979.672 370.412 956.255 370.332 956.255 370.332C956.255 370.332 979.672 371.57 979.672 346.915C979.672 371.57 1003.09 370.332 1003.09 370.332Z" fill="#1D1D1B"/>
<path fill-rule="evenodd" clip-rule="evenodd" d="M656.287 292.015C656.287 292.015 636.055 303.81 647.556 323.961C635.988 303.692 615.61 315.23 615.61 315.23C615.61 315.23 636.562 304.698 624.341 283.284C636.562 304.698 656.287 292.015 656.287 292.015Z" fill="#1D1D1B"/>
<path fill-rule="evenodd" clip-rule="evenodd" d="M699.964 242.183C699.964 242.183 687.62 249.666 694.921 261.964C687.577 249.594 675.139 256.92 675.139 256.92C675.139 256.92 687.942 250.208 680.183 237.139C687.942 250.208 699.964 242.183 699.964 242.183Z" fill="#1D1D1B"/>
<path fill-rule="evenodd" clip-rule="evenodd" d="M520.441 364.69C520.441 364.69 507.466 371.017 513.616 383.93C507.43 370.941 494.376 377.104 494.376 377.104C494.376 377.104 507.737 371.586 501.201 357.865C507.737 371.586 520.441 364.69 520.441 364.69Z" fill="#1D1D1B"/>
<path fill-rule="evenodd" clip-rule="evenodd" d="M923.815 232.473C923.815 232.473 909.896 232.601 909.896 246.392C909.896 232.52 895.977 232.473 895.977 232.473C895.977 232.473 909.896 233.209 909.896 218.554C909.896 233.209 923.815 232.473 923.815 232.473Z" fill="#1D1D1B"/>
<path fill-rule="evenodd" clip-rule="evenodd" d="M794.125 319.03C794.125 319.03 785.475 319.11 785.475 327.68C785.475 319.059 776.825 319.03 776.825 319.03C776.825 319.03 785.475 319.488 785.475 310.38C785.475 319.488 794.125 319.03 794.125 319.03Z" fill="#1D1D1B"/>
<path fill-rule="evenodd" clip-rule="evenodd" d="M598.638 394.572C598.638 394.572 589.988 394.652 589.988 403.222C589.988 394.602 581.338 394.572 581.338 394.572C581.338 394.572 589.988 395.03 589.988 385.923C589.988 395.03 598.638 394.572 598.638 394.572Z" fill="#1D1D1B"/>
<path fill-rule="evenodd" clip-rule="evenodd" d="M405.457 338.06C405.457 338.06 396.807 338.14 396.807 346.71C396.807 338.089 388.157 338.06 388.157 338.06C388.157 338.06 396.807 338.517 396.807 329.41C396.807 338.517 405.457 338.06 405.457 338.06Z" fill="#1D1D1B"/>
<path fill-rule="evenodd" clip-rule="evenodd" d="M178.83 354.206C178.83 354.206 174.217 354.249 174.217 358.82C174.217 354.222 169.603 354.206 169.603 354.206C169.603 354.206 174.217 354.45 174.217 349.593C174.217 354.45 178.83 354.206 178.83 354.206Z" fill="#1D1D1B"/>
<path fill-rule="evenodd" clip-rule="evenodd" d="M931.5 131.117C931.5 131.117 926.887 131.159 926.887 135.73C926.887 131.133 922.273 131.117 922.273 131.117C922.273 131.117 926.887 131.361 926.887 126.503C926.887 131.361 931.5 131.117 931.5 131.117Z" fill="#1D1D1B"/>
<path fill-rule="evenodd" clip-rule="evenodd" d="M955.17 117.318C955.17 117.318 950.557 117.36 950.557 121.931C950.557 117.334 945.944 117.318 945.944 117.318C945.944 117.318 950.557 117.562 950.557 112.705C950.557 117.562 955.17 117.318 955.17 117.318Z" fill="#1D1D1B"/>
<path fill-rule="evenodd" clip-rule="evenodd" d="M978.599 101.61C978.599 101.61 973.985 101.653 973.985 106.224C973.985 101.626 969.372 101.61 969.372 101.61C969.372 101.61 973.985 101.854 973.985 96.9971C973.985 101.854 978.599 101.61 978.599 101.61Z" fill="#1D1D1B"/>
<path fill-rule="evenodd" clip-rule="evenodd" d="M992.709 21.9206C992.709 21.9206 978.068 22.0554 978.068 36.5611C978.068 21.9703 963.428 21.9206 963.428 21.9206C963.428 21.9206 978.068 22.6947 978.068 7.27979C978.068 22.6947 992.709 21.9206 992.709 21.9206Z" fill="#1D1D1B"/>
<path fill-rule="evenodd" clip-rule="evenodd" d="M762.409 272.321C762.409 272.321 757.796 272.363 757.796 276.934C757.796 272.337 753.183 272.321 753.183 272.321C753.183 272.321 757.796 272.565 757.796 267.708C757.796 272.565 762.409 272.321 762.409 272.321Z" fill="#1D1D1B"/>
<path d="M395.973 65.3457C395.973 65.3457 394.144 77.3105 400.988 78.9955C406.756 80.4153 409.186 74.7952 413.922 75.7706C418.781 76.7712 417.457 82.2261 420.046 91.7597C423.951 106.136 438.505 109.331 447.379 101.699" stroke="#1D1D1B"/>
<path d="M411.12 91.9609C411.12 91.9609 417.207 87.7749 414.602 83.1229C412.809 79.9209 408.28 80.9567 405.574 84.3004" stroke="#1D1D1B"/>
<path d="M186.117 391.537C186.117 391.537 205.523 391.849 231.25 379.412C262.559 364.277 284.824 345.469 284.824 345.469" stroke="#1D1D1B"/>
<path fill-rule="evenodd" clip-rule="evenodd" d="M256.225 373.966L263.252 381.462L267.406 367.576L256.225 373.966Z" fill="#1D1D1B"/>
<path d="M269.876 312.439C269.876 312.439 299.354 304.745 307.874 323.381C316.393 342.017 296.723 362.49 296.723 362.49" stroke="white"/>
<path d="M595.434 33.562C595.434 33.562 586.884 47.2102 593.806 64.2491C600.728 81.2877 622.28 83.6125 622.28 83.6125" stroke="#1D1D1B"/>
<path d="M578.803 42.5894C578.803 42.5894 572.407 54.7509 579.329 71.7895C586.251 88.8285 605.166 92.6475 605.166 92.6475" stroke="#1D1D1B"/>
<path d="M252.696 209.479C252.696 209.479 272.368 205.101 282.574 225.028C291.197 241.863 279.543 259.529 279.543 259.529" stroke="#1D1D1B"/>
<path d="M270.515 199.748C270.515 199.748 285.971 197.992 296.177 217.919C304.8 234.753 297.66 249.816 297.66 249.816" stroke="#1D1D1B"/>
<path d="M295.918 392.687C295.918 392.687 351.802 418.199 463.886 367.043C553.315 326.228 718.936 231.265 746.092 216.889C773.247 202.512 947.895 99.7466 947.895 99.7466" stroke="#1D1D1B"/>
<path fill-rule="evenodd" clip-rule="evenodd" d="M948.427 314.152C948.427 316.357 946.639 318.145 944.434 318.145C942.228 318.145 940.44 316.357 940.44 314.152C940.44 311.946 942.228 310.158 944.434 310.158C946.639 310.158 948.427 311.946 948.427 314.152Z" fill="#1D1D1B"/>
<path fill-rule="evenodd" clip-rule="evenodd" d="M865.756 64.2493C865.756 65.7792 864.516 67.0198 862.986 67.0198C861.456 67.0198 860.215 65.7792 860.215 64.2493C860.215 62.7193 861.456 61.4785 862.986 61.4785C864.516 61.4785 865.756 62.7193 865.756 64.2493Z" fill="#1D1D1B"/>
<path fill-rule="evenodd" clip-rule="evenodd" d="M922.426 42.2409C922.426 44.4464 920.638 46.2343 918.432 46.2343C916.227 46.2343 914.439 44.4464 914.439 42.2409C914.439 40.0355 916.227 38.2476 918.432 38.2476C920.638 38.2476 922.426 40.0355 922.426 42.2409Z" fill="#1D1D1B"/>
<path fill-rule="evenodd" clip-rule="evenodd" d="M844.597 106.846C844.597 109.052 842.809 110.84 840.604 110.84C838.398 110.84 836.61 109.052 836.61 106.846C836.61 104.641 838.398 102.853 840.604 102.853C842.809 102.853 844.597 104.641 844.597 106.846Z" fill="#1D1D1B"/>
<path fill-rule="evenodd" clip-rule="evenodd" d="M715.58 413.544C715.58 415.749 713.792 417.537 711.587 417.537C709.381 417.537 707.593 415.749 707.593 413.544C707.593 411.338 709.381 409.551 711.587 409.551C713.792 409.551 715.58 411.338 715.58 413.544Z" fill="#1D1D1B"/>
<path fill-rule="evenodd" clip-rule="evenodd" d="M979.109 176.505C979.109 181.141 975.351 184.898 970.716 184.898C966.08 184.898 962.322 181.141 962.322 176.505C962.322 171.87 966.08 168.112 970.716 168.112C975.351 168.112 979.109 171.87 979.109 176.505Z" fill="#1D1D1B"/>
<path fill-rule="evenodd" clip-rule="evenodd" d="M681.594 332.78C681.594 337.438 677.818 341.214 673.16 341.214C668.502 341.214 664.726 337.438 664.726 332.78C664.726 328.122 668.502 324.346 673.16 324.346C677.818 324.346 681.594 328.122 681.594 332.78Z" fill="#1D1D1B"/>
<path fill-rule="evenodd" clip-rule="evenodd" d="M261.708 415.015C261.708 417.22 259.92 419.008 257.715 419.008C255.509 419.008 253.721 417.22 253.721 415.015C253.721 412.809 255.509 411.021 257.715 411.021C259.92 411.021 261.708 412.809 261.708 415.015Z" fill="#1D1D1B"/>
<path fill-rule="evenodd" clip-rule="evenodd" d="M462.436 346.078C462.436 347.586 461.214 348.808 459.707 348.808C458.199 348.808 456.977 347.586 456.977 346.078C456.977 344.571 458.199 343.349 459.707 343.349C461.214 343.349 462.436 344.571 462.436 346.078Z" fill="#1D1D1B"/>
<path fill-rule="evenodd" clip-rule="evenodd" d="M208.985 324.349C208.985 326.554 207.197 328.342 204.992 328.342C202.786 328.342 200.998 326.554 200.998 324.349C200.998 322.143 202.786 320.355 204.992 320.355C207.197 320.355 208.985 322.143 208.985 324.349Z" fill="#1D1D1B"/>
<path fill-rule="evenodd" clip-rule="evenodd" d="M295.313 243.215C295.313 244.959 293.9 246.372 292.157 246.372C290.413 246.372 289 244.959 289 243.215C289 241.472 290.413 240.059 292.157 240.059C293.9 240.059 295.313 241.472 295.313 243.215Z" fill="#1D1D1B"/>
<path fill-rule="evenodd" clip-rule="evenodd" d="M607.856 85.4381C607.856 87.1815 606.443 88.5948 604.699 88.5948C602.956 88.5948 601.543 87.1815 601.543 85.4381C601.543 83.6951 602.956 82.2817 604.699 82.2817C606.443 82.2817 607.856 83.6951 607.856 85.4381Z" fill="#1D1D1B"/>
<path d="M784.962 206.772L916.414 137.775" stroke="#1D1D1B"/>
<path d="M353.624 364.745C353.624 364.745 390.677 375.679 441.523 353.199" stroke="#1D1D1B"/>
<path fill-rule="evenodd" clip-rule="evenodd" d="M398.007 80.6733C399.789 83.6252 398.84 87.4627 395.888 89.2441C392.936 91.0259 389.099 90.0774 387.317 87.1255C385.536 84.1733 386.484 80.336 389.436 78.5543C392.388 76.7726 396.226 77.7214 398.007 80.6733Z" stroke="#1D1D1B"/>
<mask id="mask0" mask-type="alpha" maskUnits="userSpaceOnUse" x="386" y="77" width="13" height="14">
<path fill-rule="evenodd" clip-rule="evenodd" d="M389.436 78.5543C386.484 80.3361 385.536 84.1733 387.317 87.1255C389.099 90.0774 392.936 91.0262 395.889 89.2442C398.84 87.4627 399.789 83.6252 398.007 80.6733C396.835 78.7303 394.772 77.6553 392.656 77.6553C391.558 77.6555 390.445 77.9455 389.436 78.5543Z" fill="white"/>
</mask>
<g mask="url(#mask0)">
<path fill-rule="evenodd" clip-rule="evenodd" d="M398.026 93.2249L388.625 98.8998L377.664 80.7396L387.066 75.0649L398.026 93.2249Z" fill="#1D1D1B"/>
</g>
<path fill-rule="evenodd" clip-rule="evenodd" d="M385.779 83.8691L379.375 98.2004C378.116 101.284 381.22 104.348 384.287 103.05L388.872 100.956" fill="white"/>
<path d="M385.779 83.8691L379.375 98.2004C378.116 101.284 381.22 104.348 384.287 103.05L388.872 100.956" stroke="#1D1D1B"/>
<path d="M845.661 186.006L989.426 127.435" stroke="#1D1D1B"/>
<path fill-rule="evenodd" clip-rule="evenodd" d="M709.935 145.042L709.706 166.128L718.466 174.148L718.674 154.096L709.935 145.042Z" fill="black"/>
<path d="M433.225 117.65L439.989 133.173L420.016 123.757L392.338 139.736" stroke="#1D1D1B"/>
<path d="M420.016 123.757C420.016 123.757 401.061 139.166 413.453 173.406C424.296 203.366 453.545 214.672 453.545 214.672" stroke="#1D1D1B"/>
<path d="M201.953 368.013L216.538 368.056L213.65 358.404L230.425 360.534L227.685 348.522L246.049 351.854L242.791 340.304L263.698 344.043L255.844 334.592C255.844 334.592 240.694 335.447 232.083 330.368C227.667 327.764 225.275 323.19 227.557 319.439C229.551 316.161 233.889 315.256 238.265 317.673C246.494 322.218 255.708 334.232 255.708 334.232C255.708 334.232 248.532 321.095 249.305 310.608C249.679 305.532 252.911 301.309 257.916 301.776C262.811 302.233 264.981 306.744 264.319 312.264C263.191 321.665 255.597 334.564 255.597 334.564" stroke="#1D1D1B"/>
<path d="M514.583 213.762L308.236 324.086" stroke="white"/>
<path d="M674.616 192.823L468.269 303.147" stroke="white"/>
<path d="M392.528 109.478L409.009 100.217" stroke="#1D1D1B"/>
<path d="M723.726 189.135C723.726 189.135 717.247 202.199 718.21 211.389C719.043 219.346 723.954 219.968 726.349 219.616C729.325 219.178 733.001 215.94 731.688 207.713C730.884 202.674 724.559 189.135 724.559 189.135C724.559 189.135 732.658 200.141 735.799 203.706C741.49 210.164 748.674 210.344 751.38 207.013C754.086 203.682 752.43 198.436 746.207 194.755C739.499 190.787 724.424 189.246 724.424 189.246C724.424 189.246 759.758 196.3 776.148 177.869" stroke="#1D1D1B"/>
<path d="M252.741 334.958C252.741 334.958 227.157 332.193 215.125 350.309" stroke="#1D1D1B"/>
<path d="M826.848 34.431C826.848 34.431 879.384 21.6518 892.164 53.5999C901.586 77.1555 888.614 104.006 861.636 128.854C835.209 153.195 806.259 166.482 806.259 166.482" stroke="#1D1D1B"/>
<path d="M921.272 9.58301C921.272 9.58301 945.41 17.3924 945.41 45.0806C945.41 86.2579 887.194 119.626 887.194 119.626" stroke="#1D1D1B"/>
<path d="M34.454 401.653C34.454 401.653 21.6747 412.569 27.4281 424.186C33.3047 436.052 60.5447 430.406 60.5447 430.406C38.9799 438.659 25.5294 447.322 15.729 457.917C9.16201 465.016 9.23725 470.423 11.8243 472.737C16.8825 477.263 26.9108 469.72 35.7851 463.419C43.0456 458.264 74.065 438.022 85.1085 430.83C87.469 429.292 88.6263 426.453 88.015 423.703C87.4155 421.004 85.2273 418.971 82.503 418.5C79.9831 418.064 77.3171 416.896 77.3171 413.9C77.3171 401.476 117.883 400.998 115.487 375.706C114.532 365.634 104.085 352.61 72.5251 359.589C37.5182 367.33 7.03205 392.069 7.03205 392.069C7.03205 392.069 11.684 384.633 9.42829 376.361C7.03205 367.576 1.17499 364.381 1.17499 364.381C39.3665 364.754 67.9183 344.719 79.2587 335.884C92.1562 325.836 101.988 318.412 99.5032 310.247C97.8335 304.761 91.1727 302.138 80.8668 305.988C54.9634 315.664 25.8691 311.664 -2.64105 333.498" stroke="#1D1D1B"/>
<path d="M109.265 364.026C109.265 364.026 113.01 355.881 120.916 351.711C128.992 347.451 135.47 348.871 136.624 352.421C138.021 356.719 132.529 361.432 132.529 361.432C132.529 361.432 139.908 358.633 140.351 363.07C140.733 366.884 134.76 367.241 134.76 367.241C134.76 367.241 140.219 368.544 139.286 371.767C138.31 375.139 133.607 372.654 133.607 372.654C133.607 372.654 136.527 377.686 132.719 378.956C129.258 380.109 127.306 374.696 127.306 374.696C127.306 374.696 123.365 378.546 115.681 377.092" stroke="#1D1D1B"/>
<path d="M79.1514 409.522C79.1514 409.522 89.0317 408.043 94.3562 413.9C102.982 423.388 94.3562 436.263 102.875 438.127C108.322 439.318 109.392 430.949 115.951 426.797C120.625 423.839 126.304 425.348 129.233 429.874C129.233 429.874 116.72 447.711 101.278 446.114C89.6263 444.909 89.0317 436.53 76.2524 436.53" stroke="#1D1D1B"/>
<path d="M16.643 474.152L13.6365 467.709" stroke="#1D1D1B"/>
<path d="M20.6163 473.113L17.6099 466.67" stroke="#1D1D1B"/>
<path d="M24.2845 471.22L21.278 464.777" stroke="#1D1D1B"/>
<path fill-rule="evenodd" clip-rule="evenodd" d="M240.094 259.978C239.574 260.554 238.953 261.057 238.237 261.457L218.869 272.282C215.361 274.243 210.929 272.989 208.968 269.481L178.053 214.169C176.093 210.661 177.347 206.229 180.854 204.268L200.223 193.443C203.731 191.482 208.163 192.736 210.124 196.244L237.233 244.748" fill="white"/>
<path d="M240.094 259.978C239.574 260.554 238.953 261.057 238.237 261.457L218.869 272.282C215.361 274.243 210.929 272.989 208.968 269.481L178.053 214.169C176.093 210.661 177.347 206.229 180.854 204.268L200.223 193.443C203.731 191.482 208.163 192.736 210.124 196.244L237.233 244.748" stroke="#1D1D1B"/>
<path fill-rule="evenodd" clip-rule="evenodd" d="M177.134 211.112L183.034 207.755C183.495 207.493 184.081 207.656 184.34 208.119C185.149 209.567 186.978 210.086 188.427 209.279L201.057 202.243C202.509 201.434 203.03 199.601 202.218 198.15L202.205 198.125C201.948 197.665 202.112 197.084 202.572 196.826L207.988 193.799" fill="white"/>
<path d="M177.134 211.112L183.034 207.755C183.495 207.493 184.081 207.656 184.34 208.119C185.149 209.567 186.978 210.086 188.427 209.279L201.057 202.243C202.509 201.434 203.03 199.601 202.218 198.15L202.205 198.125C201.948 197.665 202.112 197.084 202.572 196.826L207.988 193.799" stroke="#1D1D1B"/>
<path fill-rule="evenodd" clip-rule="evenodd" d="M209.005 269.954L228.715 259.012L209.005 269.954Z" fill="white"/>
<path d="M209.005 269.954L228.715 259.012" stroke="#1D1D1B"/>
<path fill-rule="evenodd" clip-rule="evenodd" d="M695.589 67.796L747.459 25.2601L751.202 22.187C753.38 20.4002 764.006 29.7562 774.936 43.0833C785.865 56.411 792.959 68.6633 790.78 70.4499L786.842 73.76L734.973 116.296C734.973 116.296 721.132 114.153 707.485 96.3069C693.837 78.4603 695.589 67.796 695.589 67.796Z" fill="white"/>
<path fill-rule="evenodd" clip-rule="evenodd" d="M695.589 67.796L747.459 25.2601L751.202 22.187C753.38 20.4002 764.006 29.7562 774.936 43.0833C785.865 56.411 792.959 68.6633 790.78 70.4499L786.842 73.76L734.973 116.296C734.973 116.296 721.132 114.153 707.485 96.3069C693.837 78.4603 695.589 67.796 695.589 67.796Z" stroke="#1D1D1B"/>
<path d="M-2.64056 323.115C19.2709 303.866 42.9662 307.165 64.6273 301.107C70.6031 299.435 80.0688 297.823 83.3522 305.011" stroke="#1D1D1B"/>
<path fill-rule="evenodd" clip-rule="evenodd" d="M678.917 68.3048C677.912 64.776 677.989 62.2524 679.35 61.136C683.872 57.4282 700.851 70.657 717.274 90.6835C733.698 110.71 743.346 129.952 738.824 133.66C734.302 137.368 717.322 124.139 700.899 104.112C693.845 95.5104 688.041 87.0532 684.073 79.9098" fill="white"/>
<path d="M678.917 68.3048C677.912 64.776 677.989 62.2524 679.35 61.136C683.872 57.4282 700.851 70.657 717.274 90.6835C733.698 110.71 743.346 129.952 738.824 133.66C734.302 137.368 717.322 124.139 700.899 104.112C693.845 95.5104 688.041 87.0532 684.073 79.9098" stroke="#1D1D1B"/>
<path fill-rule="evenodd" clip-rule="evenodd" d="M713.124 94.0873C724.239 107.64 731.441 120.11 729.212 121.939C726.982 123.767 716.164 114.262 705.05 100.709C693.935 87.1557 686.733 74.6863 688.962 72.8575C691.192 71.0293 702.01 80.5339 713.124 94.0873Z" fill="#1D1D1B"/>
<path fill-rule="evenodd" clip-rule="evenodd" d="M713.124 94.0873C724.239 107.64 731.441 120.11 729.212 121.939C726.982 123.767 716.164 114.262 705.05 100.709C693.935 87.1557 686.733 74.6863 688.962 72.8575C691.192 71.0293 702.01 80.5339 713.124 94.0873Z" stroke="#1D1D1B"/>
<path fill-rule="evenodd" clip-rule="evenodd" d="M614.395 69.0414C607.105 55.4682 609.534 38.7638 614.09 27.5263C619.757 13.5476 629.378 3.18909 633.809 4.91761C639.602 7.17736 632.768 19.3262 628.771 25.9117C644.568 12.4226 664.979 2.66083 668.706 10.4702C671.293 15.8904 662.381 20.0853 653.725 24.489C647.891 27.4573 634.895 33.1451 634.895 33.1451C634.895 33.1451 662.977 24.3412 669.366 22.2115C675.756 20.0815 688.585 15.6174 690.005 22.7172C691.425 29.8167 679.085 34.3601 672.256 36.561C666.483 38.422 638.539 41.3454 638.539 41.3454C638.539 41.3454 656.155 38.4602 674.031 41.3532C694.787 44.7122 710.771 55.7296 701.719 62.6518C694.586 68.1066 677.692 54.4966 662.759 53.8474C650.513 53.3151 641.839 59.7241 642.372 67.7111C642.94 76.228 654.627 80.4291 666.044 77.0284C674.386 74.5435 679.356 64.9591 685.035 66.3789C690.715 67.799 687.875 84.4829 668.174 89.8074C646.597 95.6387 624.762 88.3419 614.395 69.0414Z" fill="white"/>
<path fill-rule="evenodd" clip-rule="evenodd" d="M614.395 69.0414C607.105 55.4682 609.534 38.7638 614.09 27.5263C619.757 13.5476 629.378 3.18909 633.809 4.91761C639.602 7.17736 632.768 19.3262 628.771 25.9117C644.568 12.4226 664.979 2.66083 668.706 10.4702C671.293 15.8904 662.381 20.0853 653.725 24.489C647.891 27.4573 634.895 33.1451 634.895 33.1451C634.895 33.1451 662.977 24.3412 669.366 22.2115C675.756 20.0815 688.585 15.6174 690.005 22.7172C691.425 29.8167 679.085 34.3601 672.256 36.561C666.483 38.422 638.539 41.3454 638.539 41.3454C638.539 41.3454 656.155 38.4602 674.031 41.3532C694.787 44.7122 710.771 55.7296 701.719 62.6518C694.586 68.1066 677.692 54.4966 662.759 53.8474C650.513 53.3151 641.839 59.7241 642.372 67.7111C642.94 76.228 654.627 80.4291 666.044 77.0284C674.386 74.5435 679.356 64.9591 685.035 66.3789C690.715 67.799 687.875 84.4829 668.174 89.8074C646.597 95.6387 624.762 88.3419 614.395 69.0414Z" stroke="#1D1D1B"/>
<path fill-rule="evenodd" clip-rule="evenodd" d="M230.188 231.386C231.502 231.15 232.863 230.968 234.271 230.863C243.463 230.179 249.135 232.037 249.135 236.437C249.135 245.34 227.347 244.068 225.147 252.064C223.626 257.592 230.134 260.905 237.944 260.196C245.023 259.552 271.768 252.766 266.443 236.437C263.45 227.257 255.41 219.056 234.467 218.347C230.564 218.214 226.731 218.411 223.175 218.903" fill="white"/>
<path d="M230.188 231.386C231.502 231.15 232.863 230.968 234.271 230.863C243.463 230.179 249.135 232.037 249.135 236.437C249.135 245.34 227.347 244.068 225.147 252.064C223.626 257.592 230.134 260.905 237.944 260.196C245.023 259.552 271.768 252.766 266.443 236.437C263.45 227.257 255.41 219.056 234.467 218.347C230.564 218.214 226.731 218.411 223.175 218.903" stroke="#1D1D1B"/>
<path d="M45.9019 436.53C11.4721 435.54 -2.62506 418.743 -2.62506 418.743" stroke="#1D1D1B"/>
<path fill-rule="evenodd" clip-rule="evenodd" d="M-2.72968 342.195C-2.72968 342.195 10.5827 342.928 23.3197 339.859C41.991 335.36 68.9418 319.687 81.0582 314.514C87.7321 311.664 91.4063 311.364 92.7586 313.886C93.9965 316.193 91.7811 319.713 87.882 322.612C67.0153 338.128 29.8434 359.655 -2.55019 355.156L-2.72968 342.195Z" fill="#FFD3E8"/>
<path fill-rule="evenodd" clip-rule="evenodd" d="M-2.72968 342.195C-2.72968 342.195 10.5827 342.928 23.3197 339.859C41.991 335.36 68.9418 319.687 81.0582 314.514C87.7321 311.664 91.4063 311.364 92.7586 313.886C93.9965 316.193 91.7811 319.713 87.882 322.612C67.0153 338.128 29.8434 359.655 -2.55019 355.156" fill="white"/>
<path d="M-2.72968 342.195C-2.72968 342.195 10.5827 342.928 23.3197 339.859C41.991 335.36 68.9418 319.687 81.0582 314.514C87.7321 311.664 91.4063 311.364 92.7586 313.886C93.9965 316.193 91.7811 319.713 87.8821 322.612C67.0153 338.128 29.8434 359.655 -2.55019 355.156" stroke="#1D1D1B"/>
<path d="M-3 498H1024V524C1024 524 898.78 524 729.786 524C560.793 524 457.967 524 222.78 524C82.8715 524 -3 524 -3 524V498Z" fill="#1D1D1B" stroke="#1D1D1B"/>
</g>
<defs>
<clipPath id="clip0">
<rect width="1024" height="524" fill="white"/>
</clipPath>
</defs>
</svg>
