<svg width="1347" height="228" viewBox="0 0 1347 228" fill="none" xmlns="http://www.w3.org/2000/svg">
<path d="M185 214.5C226 124 309 38.9999 368 174.5" stroke="#FF592C" stroke-linecap="round" stroke-linejoin="round"/>
<path d="M4.5 222.467C-2.50004 138.967 126 19.4667 183 212.467" stroke="#FF592C" stroke-linecap="round" stroke-linejoin="round"/>
<path d="M271.448 129.16C246.977 140.839 224.074 168.269 205.855 200.345" stroke="#FF592C" stroke-linecap="round" stroke-linejoin="round"/>
<circle cx="7" cy="220.967" r="7" fill="#FF592C"/>
<path d="M732.318 174.993C725.332 91.7673 835.113 7.63379 892 200" stroke="#FF592C" stroke-linecap="round" stroke-linejoin="round"/>
<circle cx="733" cy="179" r="7" fill="#FF592C"/>
<circle cx="187" cy="210.967" r="7" fill="#FF592C"/>
<g clip-path="url(#clip0)">
<path d="M174.345 154.274C174.345 154.274 162.171 161.188 168.91 173.312C162.133 161.12 149.872 167.877 149.872 167.877C149.872 167.877 162.47 161.727 155.307 148.838C162.47 161.727 174.345 154.274 174.345 154.274Z" fill="#FF592C"/>
</g>
<path d="M546 205C546 101 636 -7.49977 732 174.5" stroke="#FF592C" stroke-linecap="round" stroke-linejoin="round"/>
<path d="M583 76.1148C609.937 48.3048 651.735 46.6739 697.486 98.9668" stroke="#FF592C" stroke-linecap="round" stroke-linejoin="round"/>
<path d="M556.46 141.898C556.46 141.898 551.906 161.252 571.039 165.94C551.799 161.226 546.997 180.519 546.997 180.519C546.997 180.519 552.756 161.461 532.418 156.477C552.756 161.461 556.46 141.898 556.46 141.898Z" fill="#FF592C"/>
<path d="M368 174.5C394.5 20.0005 492 25 546 205" stroke="#FF592C" stroke-linecap="round" stroke-linejoin="round"/>
<path d="M483 148.351C485.209 148.351 487 146.56 487 144.351C487 142.142 485.209 140.351 483 140.351C480.791 140.351 479 142.142 479 144.351C479 146.56 480.791 148.351 483 148.351Z" fill="#FF592C"/>
<path d="M905 91C907.209 91 909 89.2091 909 87C909 84.7909 907.209 83 905 83C902.791 83 901 84.7909 901 87C901 89.2091 902.791 91 905 91Z" fill="#FF592C"/>
<circle cx="548" cy="206.967" r="7" fill="#FF592C"/>
<circle cx="1030" cy="221" r="7" fill="#232323"/>
<path d="M892 199.541C892 97.5 990 44.5 1030.5 218" stroke="#232323" stroke-linecap="round" stroke-linejoin="round"/>
<path d="M1030.5 221.5C1030.5 125.5 1100.5 93.5 1137 174.5" stroke="#232323" stroke-linecap="round" stroke-linejoin="round"/>
<path d="M1137 174.5C1153 102 1205 66 1257 45" stroke="#232323" stroke-linecap="round" stroke-linejoin="round"/>
<path d="M1286.54 36.1399C1286.54 36.1399 1277.04 36.2578 1277.08 46.2837C1277.04 36.1989 1267.54 36.1399 1267.54 36.1399C1267.54 36.1399 1277.04 36.6707 1277.01 25.9961C1277.1 36.6707 1286.54 36.1399 1286.54 36.1399Z" fill="#232323"/>
<path d="M1316.03 20.8892C1316.03 20.8892 1306.53 21.0071 1306.57 31.0327C1306.53 20.9481 1297.03 20.8892 1297.03 20.8892C1297.03 20.8892 1306.53 21.4199 1306.5 10.7456C1306.59 21.4199 1316.03 20.8892 1316.03 20.8892Z" fill="#232323"/>
<path d="M1346.03 10.1435C1346.03 10.1435 1336.53 10.2615 1336.57 20.2871C1336.53 10.2025 1327.03 10.1435 1327.03 10.1435C1327.03 10.1435 1336.53 10.6743 1336.5 0C1336.53 10.6743 1346.03 10.1435 1346.03 10.1435Z" fill="#232323"/>
<defs>
<clipPath id="clip0">
<rect width="28" height="28" fill="white" transform="matrix(0.886108 -0.463479 0.463476 0.88611 143.214 155.159)"/>
</clipPath>
</defs>
</svg>
