<svg width="1360" height="568" viewBox="0 0 1360 568" fill="none" xmlns="http://www.w3.org/2000/svg">
<g clip-path="url(#clip0)">
<path d="M990.607 496.66H368.967C355.167 496.66 344 485.493 344 471.693V97.4449C344 83.6731 355.167 72.5061 368.939 72.5061H990.607C1004.41 72.5061 1015.57 83.6731 1015.57 97.4726V471.693C1015.57 485.493 1004.41 496.66 990.607 496.66Z" fill="#FBFCFD"/>
<path d="M990.607 496.16H368.967C355.443 496.16 344.5 485.216 344.5 471.693V97.4449C344.5 83.9493 355.443 73.0061 368.939 73.0061H990.607C1004.13 73.0061 1015.07 83.9493 1015.07 97.4726V471.693C1015.07 485.216 1004.13 496.16 990.607 496.16Z" stroke="#232323" stroke-opacity="0.06"/>
<path d="M412.165 335.859C393.655 335.859 374.618 323.612 374.618 301.721C374.618 270.963 402.771 253.506 436.91 252.702C476.285 251.649 496.292 264.784 513.804 250.458C541.653 227.681 554.759 159.764 614.446 144.662C654.071 134.77 676.239 144.801 702.563 144.801C727.862 144.801 758.094 117.368 828.227 117.368C900.965 117.368 964.171 127.066 968.605 174.977C971.265 203.795 943.5 213.659 946.326 230.507C950.261 253.811 957.632 250.984 962.481 269.633C972.512 308.15 949.568 342.011 911.162 332.257C880.598 324.471 855.105 280.828 801.127 295.431C772.198 303.245 752.081 322.337 709.324 322.337C666.568 322.337 656.676 303.051 621.484 310.616C585.517 318.43 563.516 363.403 527.548 363.403C491.581 363.403 496.874 328.821 470.826 325.191C452.316 322.309 445.527 335.859 412.165 335.859Z" fill="#E3D3C5"/>
<path d="M509.537 190.301C511.865 190.301 513.749 188.416 513.749 186.089C513.749 183.761 511.865 181.877 509.537 181.877C507.209 181.877 505.325 183.761 505.325 186.089C505.325 188.416 507.209 190.301 509.537 190.301Z" fill="black"/>
<path d="M383.041 212.247C385.369 212.247 387.253 210.362 387.253 208.035C387.253 205.707 385.369 203.823 383.041 203.823C380.713 203.823 378.829 205.707 378.829 208.035C378.829 210.362 380.713 212.247 383.041 212.247Z" fill="black"/>
<path d="M703.949 127.038C704.947 127.038 705.723 126.235 705.723 125.265C705.723 124.267 704.919 123.491 703.949 123.491C702.952 123.491 702.176 124.295 702.176 125.265C702.176 126.262 702.979 127.038 703.949 127.038Z" fill="black"/>
<path d="M918.728 278.944C921.055 278.944 922.939 277.06 922.939 274.732C922.939 272.404 921.055 270.52 918.728 270.52C916.4 270.52 914.516 272.404 914.516 274.732C914.516 277.06 916.4 278.944 918.728 278.944Z" fill="black"/>
<path d="M624.211 355.93C626.539 355.93 628.423 354.046 628.423 351.718C628.423 349.39 626.539 347.506 624.211 347.506C621.883 347.506 619.999 349.39 619.999 351.718C619.999 354.046 621.883 355.93 624.211 355.93Z" fill="black"/>
<path d="M914.931 168.992C917.009 168.992 918.699 167.302 918.699 165.223C918.699 163.145 917.009 161.455 914.931 161.455C912.852 161.455 911.162 163.145 911.162 165.223C911.162 167.302 912.852 168.992 914.931 168.992Z" fill="black"/>
<path d="M719.495 106.451C720.492 106.451 721.268 105.648 721.268 104.678C721.268 103.708 720.465 102.904 719.495 102.904C718.525 102.904 717.721 103.708 717.721 104.678C717.694 105.648 718.497 106.451 719.495 106.451Z" fill="black"/>
<path d="M634.008 202.438C635.006 202.438 635.782 201.634 635.782 200.665C635.782 199.667 634.978 198.891 634.008 198.891C633.039 198.891 632.235 199.695 632.235 200.665C632.207 201.634 633.011 202.438 634.008 202.438Z" fill="black"/>
<path d="M656.773 336.053C657.771 336.053 658.547 335.249 658.547 334.28C658.547 333.282 657.743 332.506 656.773 332.506C655.803 332.506 655 333.31 655 334.28C654.972 335.249 655.776 336.053 656.773 336.053Z" fill="black"/>
<path d="M873.773 419.053C874.771 419.053 875.547 418.249 875.547 417.28C875.547 416.282 874.743 415.506 873.773 415.506C872.803 415.506 872 416.31 872 417.28C871.972 418.249 872.776 419.053 873.773 419.053Z" fill="black"/>
<path d="M903.773 392.053C904.771 392.053 905.547 391.249 905.547 390.28C905.547 389.282 904.743 388.506 903.773 388.506C902.803 388.506 902 389.31 902 390.28C901.972 391.249 902.776 392.053 903.773 392.053Z" fill="black"/>
<path d="M960.773 452.053C961.771 452.053 962.547 451.249 962.547 450.28C962.547 449.282 961.743 448.506 960.773 448.506C959.803 448.506 959 449.31 959 450.28C958.972 451.249 959.776 452.053 960.773 452.053Z" fill="black"/>
<path d="M860.037 98.3039C861.117 98.3039 862.004 97.4172 862.004 96.3365C862.004 95.2559 861.117 94.3691 860.037 94.3691C858.956 94.3691 858.069 95.2559 858.069 96.3365C858.069 97.4172 858.956 98.3039 860.037 98.3039Z" fill="black"/>
<path d="M960.707 224.965C961.677 224.965 962.48 224.162 962.48 223.192C962.48 222.194 961.677 221.418 960.707 221.418C959.709 221.418 958.934 222.222 958.934 223.192C958.934 224.162 959.709 224.965 960.707 224.965Z" fill="black"/>
<path d="M388.772 419.053C389.742 419.053 390.546 418.249 390.546 417.28C390.546 416.282 389.742 415.506 388.772 415.506C387.775 415.506 386.999 416.31 386.999 417.28C386.999 418.249 387.775 419.053 388.772 419.053Z" fill="black"/>
<path d="M667.955 299.255C660.64 299.477 655.513 296.346 655.347 291.025C655.181 285.373 659.891 281.41 668.481 281.188C678.734 280.884 686.105 284.791 693.864 281.964C704.366 278.113 700.015 267.915 708.716 263.51L733.932 262.374L707.912 289.945L682.669 301.971" fill="#FBFCFD"/>
<path d="M645.232 228.734C645.232 228.734 635.478 218.204 620.736 217.65C611.869 217.318 606.715 221.585 606.826 226.296C606.937 232.004 613.698 234.359 613.698 234.359C613.698 234.359 602.171 235.218 601.977 243.559C601.81 251.262 611.62 250.957 611.62 250.957C611.62 250.957 605.108 258.993 611.149 263.371C619.046 269.079 628.523 254.92 628.523 254.92C628.523 254.92 635.422 264.341 643.569 260.572" fill="#FBFCFD"/>
<path d="M750.278 285.372C734.04 281.52 743.794 261.736 749.974 252.869C756.181 244.001 773.111 258.992 773.111 258.992C773.111 258.992 780.787 262.955 779.374 272.432C779.374 272.432 806.973 279.137 815.036 281.049C826.868 283.848 828.808 294.073 826.674 299.366L807.859 296.262L750.278 285.372Z" fill="#FBFCFD"/>
<path d="M799.076 178.33C799.076 178.33 780.538 153.363 749.891 149.429C726.255 146.408 712.456 153.53 703.893 154.306C699.709 154.693 697.714 153.363 694.223 153.89C690.205 154.527 688.265 158.407 689.29 162.203C691.008 168.521 703.561 178.496 730.024 181.461C760.393 184.842 775.274 175.836 789.322 186.089" fill="#FBFCFD"/>
<path d="M667.955 299.256C660.639 299.477 655.513 296.346 655.347 291.026C655.18 285.373 659.891 281.41 668.481 281.189C678.734 280.884 686.105 284.791 693.863 281.965C704.365 278.113 700.015 267.916 708.716 263.51L733.932 262.374L707.912 289.945L682.669 301.971L667.955 299.256ZM645.233 228.734C645.233 228.734 635.479 218.205 620.737 217.65C611.87 217.318 606.716 221.585 606.827 226.296C606.938 232.004 613.699 234.359 613.699 234.359C613.699 234.359 602.172 235.218 601.978 243.559C601.811 251.262 611.621 250.957 611.621 250.957C611.621 250.957 605.109 258.993 611.15 263.371C619.047 269.08 628.524 254.92 628.524 254.92C628.524 254.92 635.423 264.341 643.57 260.573L645.233 228.734ZM799.077 178.33C799.077 178.33 780.539 153.364 749.892 149.429C726.256 146.408 712.457 153.53 703.894 154.306C699.71 154.694 697.715 153.364 694.224 153.89C690.206 154.527 688.266 158.407 689.291 162.203C691.009 168.521 703.562 178.496 730.025 181.461C760.394 184.842 775.275 175.836 789.323 186.089L799.077 178.33ZM750.28 285.373C734.042 281.521 743.796 261.737 749.976 252.869C756.183 244.002 773.113 258.993 773.113 258.993C773.113 258.993 780.789 262.956 779.376 272.433C779.376 272.433 806.975 279.138 815.038 281.05C826.87 283.849 828.81 294.074 826.676 299.366L807.861 296.263L750.28 285.373Z" stroke="black" stroke-width="1.38549" stroke-miterlimit="10"/>
<path d="M659.531 283.349C659.531 283.349 662.358 293.74 671.557 293.491C680.785 293.241 683.833 282.878 683.833 282.878" stroke="black" stroke-width="1.38549" stroke-miterlimit="10"/>
<path d="M740.858 273.208C740.858 273.208 709.324 301.417 689.29 305.352C677.374 307.679 668.009 303.855 667.815 297.122C667.676 291.829 672.276 288.144 681.115 287.895C689.955 287.645 696.466 291.746 702.036 288.421C707.827 284.985 709.379 265.838 731.547 256.97" fill="#FBFCFD"/>
<path d="M740.858 273.208C740.858 273.208 709.324 301.417 689.29 305.352C677.374 307.679 668.009 303.855 667.815 297.122C667.676 291.829 672.276 288.144 681.115 287.895C689.955 287.645 696.466 291.746 702.036 288.421C707.827 284.985 709.379 265.838 731.547 256.97" stroke="black" stroke-width="1.38549" stroke-miterlimit="10"/>
<path d="M671.28 290.555C671.28 290.555 672.943 297.427 682.364 297.15C691.786 296.873 693.254 289.502 693.254 289.502" stroke="black" stroke-width="1.38549" stroke-miterlimit="10"/>
<path d="M793.147 189.331C793.147 189.331 774.609 164.365 743.934 160.43C720.298 157.409 706.499 164.531 697.936 165.307C693.752 165.695 691.757 164.365 688.266 164.891C684.248 165.528 682.308 169.408 683.333 173.204C685.051 179.522 697.604 189.497 724.067 192.462C754.436 195.843 769.039 189.165 783.088 199.417" fill="#FBFCFD"/>
<path d="M793.147 189.331C793.147 189.331 774.609 164.365 743.934 160.43C720.298 157.409 706.499 164.531 697.936 165.307C693.752 165.695 691.757 164.365 688.266 164.891C684.248 165.528 682.308 169.408 683.333 173.204C685.051 179.522 697.604 189.497 724.067 192.462C754.436 195.843 769.039 189.165 783.088 199.417" stroke="black" stroke-width="1.38549" stroke-miterlimit="10"/>
<path d="M696.023 231.45C723.234 222.86 753.216 230.425 760.255 250.265C765.741 265.672 760.449 277.975 760.449 277.975C760.449 277.975 789.516 284.93 800.24 288.061C815.12 292.356 811.379 306.599 811.379 306.599L738.475 293.936C738.475 293.936 741.523 276.756 731.907 269.939C722.292 263.122 703.449 268.775 681.864 273.126C661.663 277.199 640.216 267.334 638.581 247.273C636.918 226.767 651.854 210.723 683.637 202.798C728.61 191.604 781.452 208.368 781.452 208.368C781.452 208.368 784.667 190.467 800.628 207.066C816.561 223.664 802.235 233.75 802.235 233.75C802.235 233.75 793.174 254.616 762.748 263.15" fill="#FBFCFD"/>
<path d="M696.023 231.45C723.234 222.86 753.216 230.425 760.255 250.265C765.741 265.672 760.449 277.975 760.449 277.975C760.449 277.975 789.516 284.93 800.24 288.061C815.12 292.356 811.379 306.599 811.379 306.599L738.475 293.936C738.475 293.936 741.523 276.756 731.907 269.939C722.292 263.122 703.449 268.775 681.864 273.126C661.663 277.199 640.216 267.334 638.581 247.273C636.918 226.767 651.854 210.723 683.637 202.798C728.61 191.604 781.452 208.368 781.452 208.368C781.452 208.368 784.667 190.467 800.628 207.066C816.561 223.664 802.235 233.75 802.235 233.75C802.235 233.75 793.174 254.616 762.748 263.15" stroke="black" stroke-width="1.38549" stroke-miterlimit="10"/>
<path d="M810.383 233.001C826.427 233.001 839.422 220.005 839.422 203.961C839.422 187.917 826.427 174.921 810.383 174.921C794.339 174.921 781.343 187.917 781.343 203.961C781.343 220.005 794.339 233.001 810.383 233.001Z" fill="#FBFCFD" stroke="black" stroke-width="1.38549" stroke-miterlimit="10"/>
<path d="M807.555 193.403C810.631 193.403 813.125 190.909 813.125 187.834C813.125 184.758 810.631 182.264 807.555 182.264C804.479 182.264 801.985 184.758 801.985 187.834C801.985 190.909 804.479 193.403 807.555 193.403Z" fill="#FBFCFD"/>
<path d="M833.354 192.683C836.43 192.683 838.924 190.189 838.924 187.113C838.924 184.038 836.43 181.544 833.354 181.544C830.278 181.544 827.784 184.038 827.784 187.113C827.784 190.189 830.278 192.683 833.354 192.683Z" fill="#FBFCFD"/>
<path d="M807.555 193.403C810.631 193.403 813.125 190.909 813.125 187.834C813.125 184.758 810.631 182.264 807.555 182.264C804.479 182.264 801.985 184.758 801.985 187.834C801.985 190.909 804.479 193.403 807.555 193.403Z" stroke="black" stroke-width="1.38549" stroke-miterlimit="10"/>
<path d="M833.354 192.683C836.43 192.683 838.924 190.189 838.924 187.113C838.924 184.038 836.43 181.544 833.354 181.544C830.278 181.544 827.784 184.038 827.784 187.113C827.784 190.189 830.278 192.683 833.354 192.683Z" stroke="black" stroke-width="1.38549" stroke-miterlimit="10"/>
<path d="M807.887 193.403C810.797 193.237 813.125 190.799 813.125 187.834C813.125 184.786 810.658 182.292 807.61 182.264L807.887 193.403Z" fill="black"/>
<path d="M833.658 192.655C836.595 192.489 838.923 190.078 838.923 187.086C838.923 184.01 836.429 181.516 833.381 181.516L833.658 192.655Z" fill="black"/>
<path d="M802.207 233.722H778.487V262.928H802.207V233.722Z" fill="#E3D3C5"/>
<path d="M871.454 207.12C871.925 208.894 871.731 210.75 870.9 212.385C870.069 214.02 868.656 215.267 866.965 215.932L810.964 237.296C809.218 237.906 807.362 238.183 805.505 238.044C803.649 237.906 801.847 237.407 800.212 236.52C798.578 235.661 797.109 234.47 795.973 233.001C794.809 231.56 793.978 229.87 793.479 228.069C792.98 226.268 792.869 224.384 793.146 222.555C793.424 220.698 794.089 218.952 795.058 217.373C796.056 215.794 797.358 214.436 798.91 213.383C800.462 212.33 802.18 211.609 804.009 211.277L863.169 201.772C864.97 201.468 866.827 201.856 868.351 202.853C869.875 203.823 870.983 205.347 871.454 207.12Z" fill="#FBFCFD" stroke="black" stroke-width="1.38549" stroke-miterlimit="10"/>
<path d="M814.512 236.437L812.323 228.374" stroke="black" stroke-width="1.38549" stroke-miterlimit="10"/>
<path d="M831.303 230.12L827.701 216.763" stroke="black" stroke-width="1.38549" stroke-miterlimit="10"/>
<path d="M855.465 220.698L853.525 213.493" stroke="black" stroke-width="1.38549" stroke-miterlimit="10"/>
<path d="M820.883 222.943L818.694 214.879" stroke="black" stroke-width="1.38549" stroke-miterlimit="10"/>
<path d="M815.37 216.957L813.485 209.642" stroke="black" stroke-width="1.38549" stroke-miterlimit="10"/>
<path d="M839.339 212.551L837.372 205.236" stroke="black" stroke-width="1.38549" stroke-miterlimit="10"/>
<path d="M842.856 215.627L841.831 211.831" stroke="black" stroke-width="1.38549" stroke-miterlimit="10"/>
<path d="M817.725 228.678L816.7 224.882" stroke="black" stroke-width="1.38549" stroke-miterlimit="10"/>
<path d="M864.747 208.257L863.722 204.46" stroke="black" stroke-width="1.38549" stroke-miterlimit="10"/>
<path d="M858.82 214.048L857.379 208.7" stroke="black" stroke-width="1.38549" stroke-miterlimit="10"/>
<path d="M794.727 227.487C789.628 223.802 772.808 235.606 772.808 235.606L759.536 246.967L754.188 260.13L760.09 268.11C760.09 268.11 772.033 272.239 776.743 266.697C781.454 261.155 776.799 252.814 779.293 248.214C781.98 243.199 787.605 243.67 790.986 240.511C794.367 237.352 796.14 234.193 796.306 231.616C796.389 230.536 795.669 228.18 794.727 227.487Z" fill="black" stroke="black" stroke-width="1.38549" stroke-miterlimit="10"/>
<path d="M793.368 226.406L786.829 226.822L771.45 229.288C771.45 229.288 763.331 231.588 757.733 228.374C751.942 225.049 751.139 220.144 746.566 217.705C742.161 215.295 738.697 221.585 731.797 219.34C726.227 217.539 723.817 211.305 725.562 207.896C727.918 203.324 735.039 201.911 740.082 205.319C746.123 209.365 747.952 211.914 752.413 214.741C756.874 217.567 764.439 214.269 773.196 214.159C781.952 214.048 792.232 218.232 794.089 223.635C794.283 224.3 793.368 226.406 793.368 226.406Z" fill="black" stroke="black" stroke-width="1.38549" stroke-miterlimit="10"/>
<path d="M794.088 226.323C794.005 225.908 793.811 225.547 793.534 225.215C793.285 224.882 792.952 224.605 792.592 224.411C789.101 222.555 780.233 218.814 775.107 220.947C767.044 224.245 771.754 231.283 765.991 234.026C760.753 236.465 754.713 229.537 750.445 235.079C745.818 241.12 752.912 247.105 750.861 252.592C749.254 256.887 743.352 260.185 741.578 264.895C739.722 269.855 743.379 276.727 749.67 278.916C757.068 281.549 763.663 278.307 764.716 273.042C766.074 266.308 756.736 260.295 758.204 256.388C759.645 252.481 767.847 257.164 771.117 253.34C774.83 249.045 768.041 244.141 771.449 240.15C773.888 237.324 778.654 239.707 782.533 237.379C785.914 235.384 785.775 231.2 791.733 229.953C792.121 229.87 792.509 229.704 792.841 229.482C793.174 229.26 793.451 228.956 793.673 228.623C793.894 228.291 794.033 227.903 794.116 227.487C794.171 227.127 794.171 226.711 794.088 226.323Z" fill="black" stroke="#FBFCFC" stroke-width="1.38549" stroke-miterlimit="10"/>
<path d="M753.437 271.324C750.944 265.311 750.888 253.784 760.725 242.922C769.398 233.445 780.593 227.404 793.367 226.407" stroke="#FBFCFC" stroke-width="1.38549" stroke-miterlimit="10"/>
<path d="M796.473 223.469C797.387 223.303 798.329 223.497 799.105 223.996C799.881 224.522 800.435 225.298 800.629 226.212C800.823 227.127 800.685 228.069 800.186 228.873C799.715 229.676 798.939 230.258 798.024 230.48" stroke="black" stroke-width="1.38549" stroke-miterlimit="10"/>
<path d="M822.796 205.679L823.018 213.438L830.804 213.216L830.555 204.875C830.555 204.875 826.564 202.16 826.398 196.562C826.564 202.16 822.796 205.679 822.796 205.679Z" fill="#FBFCFD" stroke="black" stroke-width="1.38549" stroke-miterlimit="10"/>
<path d="M801.129 295.403L801.406 304.825M796.307 294.766L796.584 304.187M805.895 296.456L806.144 305.878M817.034 297.675L816.757 288.254M812.212 297.038L811.935 287.617M821.523 289.307L821.772 298.728M630.187 219.451C627.25 218.62 619.075 218.813 618.161 225.436C617.302 231.699 625.088 235.55 625.088 235.55C625.088 235.55 612.176 234.414 610.956 242.007C609.987 248.047 617.607 249.183 617.607 249.183C617.607 249.183 611.788 256.083 615.362 260.018C618.687 263.648 624.368 260.018 625.837 258.189M826.4 198.142L826.843 213.327M822.631 207.563L817.727 209.06C817.727 209.06 826.594 205.956 826.317 196.563M833.161 206.427C830.445 205.18 826.677 202.382 826.511 196.369M785.86 188.36C785.86 188.36 770.592 172.483 740.971 168.049C721.712 165.167 704.92 167.938 704.283 175.198C703.673 182.292 716.78 184.98 729.804 184.62C742.799 184.259 753.773 183.345 766.048 185.811C778.822 188.36 783.394 193.237 783.394 193.237L785.86 188.36ZM829.531 193.182C829.531 194.928 828.118 196.341 826.372 196.341C824.626 196.341 823.213 194.928 823.213 193.182C823.213 191.436 824.626 190.023 826.372 190.023C828.118 190.023 829.531 191.436 829.531 193.182Z" stroke="black" stroke-width="1.38549" stroke-miterlimit="10"/>
<path d="M978.745 115.706V116.537C973.48 117.701 971.43 119.668 970.266 125.127H969.241C968.077 119.641 966.193 117.701 960.706 116.537V115.706C966.193 114.542 968.077 112.575 969.241 107.116H970.266C971.43 112.603 973.48 114.542 978.745 115.706Z" fill="black"/>
<path d="M496.458 298.091H428.514C422.778 298.091 418.095 293.408 418.095 287.672V226.627C418.095 220.891 422.778 216.208 428.514 216.208H496.458C502.194 216.208 506.877 220.891 506.877 226.627V287.672C506.877 293.408 502.194 298.091 496.458 298.091Z" fill="#989798" stroke="#010101" stroke-width="1.38549" stroke-miterlimit="10"/>
<path d="M481.8 237.323H506.877V236.214H483.379V215.931H482.271V236.214H481.8C476.978 236.214 473.071 240.122 473.071 244.943V245.109H451.901V244.943C451.901 240.122 447.994 236.214 443.172 236.214H442.674V215.931H441.565V236.214H418.067V237.323H443.145C447.357 237.323 450.765 240.731 450.765 244.943V256.332H418.095V257.44H450.82V268.829C450.82 273.041 447.412 276.449 443.2 276.449H418.123V277.557H441.621V297.841H442.729V277.557H443.228C448.049 277.557 451.956 273.65 451.956 268.829V268.663H473.127V268.829C473.127 273.65 477.034 277.557 481.855 277.557H482.354V297.841H483.462V277.557H506.96V276.449H481.8C477.588 276.449 474.18 273.041 474.18 268.829V257.44H506.905V256.332H474.18V244.943C474.18 240.759 477.588 237.323 481.8 237.323ZM451.901 267.554V246.218H473.071V267.554H451.901Z" fill="#010101"/>
<path d="M559.896 233.419C558.857 233.746 558.134 234.924 558.281 236.063C558.358 236.609 558.43 236.767 559.25 238.31C560.301 240.261 561.509 243.182 562.182 245.393C564.144 251.791 564.479 258.278 563.183 264.903C562.42 268.785 561.013 272.648 559.131 275.996C558.746 276.688 558.389 277.47 558.331 277.75C558.142 278.622 558.4 279.462 559.054 280.066C559.608 280.601 559.993 280.75 560.816 280.75C561.451 280.75 561.628 280.712 562.024 280.484C562.687 280.088 562.955 279.711 563.964 277.752C569.689 266.58 570.6 254.063 566.549 242.317C565.41 239.02 563.183 234.414 562.42 233.791C561.808 233.281 560.808 233.142 559.896 233.419Z" fill="#010101"/>
<path d="M550.776 238.153C549.579 238.599 548.864 239.857 549.133 241.046C549.191 241.314 549.529 242.046 549.886 242.681C552.253 246.929 553.491 251.853 553.491 257.032C553.491 262.064 552.303 266.688 549.767 271.579C549.144 272.776 549.094 272.906 549.105 273.491C549.105 274.214 549.274 274.669 549.728 275.195C550.252 275.78 550.737 275.996 551.61 275.996C553.095 275.996 553.58 275.481 555.184 272.283C557.681 267.301 558.878 261.764 558.701 256.04C558.551 250.849 557.404 246.225 555.165 241.749C553.599 238.629 553.145 238.125 551.837 238.056C551.399 238.025 551.022 238.064 550.776 238.153Z" fill="#010101"/>
<path d="M541.704 242.757C540.584 243.123 539.833 244.135 539.822 245.262C539.822 245.736 539.883 245.947 540.219 246.551C542.369 250.452 543.189 253.365 543.189 257.028C543.189 260.691 542.366 263.603 540.219 267.505C539.911 268.059 539.822 268.336 539.822 268.705C539.822 269.874 540.584 270.933 541.634 271.24C542.366 271.448 542.873 271.379 543.566 270.994C544.25 270.597 544.605 270.093 545.597 268.123C547.359 264.637 548.113 261.636 548.213 257.812C548.301 254.276 547.886 251.691 546.678 248.363C546.232 247.116 544.904 244.462 544.411 243.808C543.793 243.007 542.485 242.502 541.704 242.757Z" fill="#010101"/>
<path d="M532.305 247.482C531.394 247.939 530.948 248.779 531.039 249.868C531.078 250.353 531.158 250.611 531.385 250.968C532.97 253.384 533.325 254.515 533.325 257.028C533.325 259.544 532.968 260.664 531.374 263.108C531.086 263.554 531.058 263.662 531.058 264.405C531.058 265.128 531.089 265.255 531.355 265.693C531.79 266.397 532.425 266.763 533.286 266.813C534.087 266.862 534.564 266.724 535.04 266.308C535.556 265.851 536.307 264.684 537.011 263.227C538.069 261.03 538.327 259.999 538.407 257.721C538.468 255.939 538.307 254.612 537.833 252.908C537.379 251.245 536.16 248.926 535.229 247.926C534.533 247.175 533.295 246.989 532.305 247.482Z" fill="#010101"/>
<path d="M648.419 102.763C641.519 102.763 635.949 108.36 635.949 115.232C635.949 122.104 641.547 127.702 648.419 127.702C655.318 127.702 660.888 122.104 660.888 115.232C660.888 108.36 655.318 102.763 648.419 102.763ZM648.419 124.321C643.403 124.321 639.358 120.248 639.358 115.26C639.358 110.245 643.431 106.199 648.419 106.199C653.434 106.199 657.48 110.272 657.48 115.26C657.507 120.248 653.434 124.321 648.419 124.321Z" fill="#010101"/>
<path d="M508.235 102.763C504.716 102.763 502.056 105.562 501.28 107.806V103.733H490.916V107.141H497.872V123.462H490.889V126.843H509.87V123.462H501.252V113.126C501.252 111.575 502.582 105.95 507.237 105.95C508.651 105.95 509.953 106.338 510.784 107.307C510.452 107.751 510.258 108.305 510.258 108.887C510.258 110.355 511.449 111.575 512.946 111.575C514.525 111.575 515.578 110.272 515.578 108.693C515.578 106.116 512.669 102.763 508.235 102.763Z" fill="#010101"/>
<path d="M596.602 102.763C593.083 102.763 590.423 105.534 589.647 107.806V103.76H579.284V107.197H586.239V123.49H579.256V126.87H598.237V123.49H589.619V113.154C589.619 111.602 590.949 105.977 595.605 105.977C597.018 105.977 598.32 106.365 599.151 107.335C598.819 107.778 598.625 108.333 598.625 108.915C598.625 110.383 599.817 111.602 601.313 111.602C602.892 111.602 603.945 110.3 603.945 108.721C603.973 106.116 601.036 102.763 596.602 102.763Z" fill="#010101"/>
<path d="M540.128 113.681C541.597 113.681 542.816 112.49 542.816 110.993C542.816 110.883 542.816 110.772 542.788 110.661C542.456 107.585 537.607 102.819 531.455 102.819C524.472 102.819 518.819 108.416 518.819 115.316C518.819 122.216 524.472 127.813 531.455 127.813C536.276 127.813 540.488 125.125 542.594 121.191L539.851 119.334C538.188 122.327 535.057 124.405 531.427 124.405C526.356 124.405 522.366 120.332 522.366 115.316C522.366 110.301 526.356 106.227 531.427 106.227C534.254 106.227 536.609 107.308 538.188 109.137C537.717 109.608 537.44 110.273 537.44 110.993C537.44 112.49 538.66 113.681 540.128 113.681Z" fill="#010101"/>
<path d="M624.062 107.169H626.888L620.82 122.881L614.197 107.169H617.079V103.733H607.104V107.169H610.567L619.046 127.453L614.363 139.617H617.993L630.518 107.169H634.037V103.733H624.062V107.169Z" fill="#010101"/>
<path d="M454.644 112.574C454.644 106.505 450.599 102.737 445.639 102.737C441.732 102.737 438.49 105.563 437.076 108.417C435.691 104.843 432.504 102.737 428.791 102.737C425.078 102.737 421.919 105.508 420.949 107.78V103.707L413.911 103.734V107.143H417.569V126.817H420.949V113.073C420.949 111.493 422.861 105.868 428.32 105.868C430.897 105.868 434.444 108.196 434.444 112.989C434.444 115.4 434.444 126.817 434.444 126.817H437.825C437.825 126.817 437.825 113.211 437.825 112.989C437.825 111.41 439.515 105.868 445.168 105.868C447.745 105.868 451.292 107.974 451.292 112.768C451.292 115.178 451.292 126.844 451.292 126.844H458.33V123.464H454.644V112.574Z" fill="#010101"/>
<path d="M474.54 102.736C467.64 102.736 462.043 108.251 462.043 115.15C462.043 115.372 462.098 116.286 462.098 116.425C462.736 122.743 468.111 127.703 474.679 127.703C479.5 127.703 483.712 125.015 485.818 121.08L483.075 119.224C481.412 122.216 478.281 124.295 474.651 124.295C469.996 124.295 466.116 120.859 465.534 116.425H486.483C486.538 116.009 486.538 115.594 486.538 115.15C486.594 108.251 481.44 102.736 474.54 102.736ZM465.701 113.017C466.67 108.999 470.273 106.006 474.568 106.006C478.891 106.006 482.022 108.999 482.964 113.017H465.701Z" fill="#010101"/>
<path d="M570.472 103.733H567.092V117.422C567.092 120.525 563.85 124.737 559.693 124.737C557.116 124.737 553.597 122.299 553.597 117.837C553.597 115.427 553.597 103.733 553.597 103.733H546.559V107.141H550.216V118.031C550.216 124.1 554.262 127.674 559.222 127.674C562.741 127.674 565.457 125.513 567.092 123.241V126.843L574.13 126.815V123.435H570.472V103.733Z" fill="#010101"/>
<path d="M429.217 442.642C434.484 442.642 437.148 439.978 437.148 436.447C437.148 432.766 433.916 431.449 430.205 430.132L429.786 429.983C426.733 428.905 425.267 428.397 425.267 426.631C425.267 425.165 426.763 424.087 429.157 424.087C431.342 424.087 433.377 425.045 433.377 427.858H436.968C436.968 422.8 433.616 420.795 429.187 420.795C424.489 420.795 421.646 423.249 421.646 426.9C421.646 430.312 424.07 431.539 428.02 433.035L428.499 433.215C431.701 434.412 433.347 434.981 433.347 436.627C433.347 438.183 432 439.35 429.427 439.35C427.362 439.35 424.668 438.512 424.668 435.4H421.077C421.077 440.307 424.848 442.642 429.217 442.642ZM440.915 442.193H444.237L446.123 437.016H454.023L455.879 442.193H459.41V440.996L451.928 421.244H448.397L440.915 440.996V442.193ZM447.2 434.023L450.103 426.033L452.946 434.023H447.2ZM466.583 442.193H470.174V424.387H476.25V421.244H460.508V424.387H466.583V442.193ZM488.57 439.35C485.458 439.35 483.932 437.524 483.932 435.28V428.157C483.932 425.913 485.458 424.087 488.57 424.087C491.683 424.087 493.209 425.913 493.209 428.157V435.28C493.209 437.524 491.683 439.35 488.57 439.35ZM488.57 442.642C493.598 442.642 496.8 439.859 496.8 435.1V428.337C496.8 423.579 493.598 420.795 488.57 420.795C483.543 420.795 480.341 423.579 480.341 428.337V435.1C480.341 439.859 483.543 442.642 488.57 442.642ZM509.78 442.642C515.047 442.642 517.711 439.978 517.711 436.447C517.711 432.766 514.479 431.449 510.768 430.132L510.349 429.983C507.296 428.905 505.83 428.397 505.83 426.631C505.83 425.165 507.326 424.087 509.72 424.087C511.905 424.087 513.94 425.045 513.94 427.858H517.531C517.531 422.8 514.179 420.795 509.75 420.795C505.052 420.795 502.209 423.249 502.209 426.9C502.209 430.312 504.633 431.539 508.583 433.035L509.062 433.215C512.264 434.412 513.91 434.981 513.91 436.627C513.91 438.183 512.563 439.35 509.99 439.35C507.925 439.35 505.231 438.512 505.231 435.4H501.64C501.64 440.307 505.411 442.642 509.78 442.642ZM523.573 442.193H527.164V433.275H535.843V442.193H539.434V421.244H535.843V430.132H527.164V421.244H523.573V442.193ZM546.205 442.193H549.797V421.244H546.205V442.193ZM565.138 442.193H568.729V427.918L577.707 442.193H580.999V421.244H577.408V435.519L568.43 421.244H565.138V442.193ZM585.675 442.193H588.997L590.882 437.016H598.783L600.638 442.193H604.17V440.996L596.688 421.244H593.157L585.675 440.996V442.193ZM591.96 434.023L594.863 426.033L597.706 434.023H591.96ZM608.853 442.193H612.444V433.275H615.108L620.794 442.193H624.325V440.996L618.25 431.509L623.906 422.441V421.244H620.584L615.108 430.132H612.444V421.244H608.853V442.193ZM626.906 442.193H630.228L632.114 437.016H640.014L641.87 442.193H645.401V440.996L637.919 421.244H634.388L626.906 440.996V442.193ZM633.191 434.023L636.094 426.033L638.937 434.023H633.191ZM660.679 435.429L665.467 427.619V442.193H668.938V421.244H665.586L659.571 431.03L653.556 421.244H650.085V442.193H653.556V427.619L658.374 435.429H660.679ZM683.329 439.35C680.217 439.35 678.69 437.524 678.69 435.28V428.157C678.69 425.913 680.217 424.087 683.329 424.087C686.441 424.087 687.968 425.913 687.968 428.157V435.28C687.968 437.524 686.441 439.35 683.329 439.35ZM683.329 442.642C688.357 442.642 691.559 439.859 691.559 435.1V428.337C691.559 423.579 688.357 420.795 683.329 420.795C678.301 420.795 675.099 423.579 675.099 428.337V435.1C675.099 439.859 678.301 442.642 683.329 442.642ZM701.726 442.193H705.317V424.387H711.392V421.244H695.65V424.387H701.726V442.193ZM723.713 439.35C720.6 439.35 719.074 437.524 719.074 435.28V428.157C719.074 425.913 720.6 424.087 723.713 424.087C726.825 424.087 728.351 425.913 728.351 428.157V435.28C728.351 437.524 726.825 439.35 723.713 439.35ZM723.713 442.642C728.74 442.642 731.942 439.859 731.942 435.1V428.337C731.942 423.579 728.74 420.795 723.713 420.795C718.685 420.795 715.483 423.579 715.483 428.337V435.1C715.483 439.859 718.685 442.642 723.713 442.642Z" fill="#232323"/>
<path d="M251 224C253.209 224 255 222.209 255 220C255 217.791 253.209 216 251 216C248.791 216 247 217.791 247 220C247 222.209 248.791 224 251 224Z" fill="#232323"/>
<path d="M279 306C281.209 306 283 304.209 283 302C283 299.791 281.209 298 279 298C276.791 298 275 299.791 275 302C275 304.209 276.791 306 279 306Z" fill="#232323"/>
<path d="M243 455C245.209 455 247 453.209 247 451C247 448.791 245.209 447 243 447C240.791 447 239 448.791 239 451C239 453.209 240.791 455 243 455Z" fill="#232323"/>
<path d="M1173 383C1175.21 383 1177 381.209 1177 379C1177 376.791 1175.21 375 1173 375C1170.79 375 1169 376.791 1169 379C1169 381.209 1170.79 383 1173 383Z" fill="#232323"/>
<path d="M1169 432C1171.21 432 1173 430.209 1173 428C1173 425.791 1171.21 424 1169 424C1166.79 424 1165 425.791 1165 428C1165 430.209 1166.79 432 1169 432Z" fill="#232323"/>
<path d="M1227 101C1229.21 101 1231 99.2092 1231 97.0001C1231 94.7909 1229.21 93 1227 93C1224.79 93 1223 94.7909 1223 97.0001C1223 99.2092 1224.79 101 1227 101Z" fill="#232323"/>
<path d="M1181 204C1183.21 204 1185 202.209 1185 200C1185 197.791 1183.21 196 1181 196C1178.79 196 1177 197.791 1177 200C1177 202.209 1178.79 204 1181 204Z" fill="#232323"/>
<path d="M1102 434C1106.42 434 1110 430.418 1110 426C1110 421.582 1106.42 418 1102 418C1097.58 418 1094 421.582 1094 426C1094 430.418 1097.58 434 1102 434Z" fill="#232323"/>
<path d="M158 157C162.418 157 166 153.418 166 149C166 144.582 162.418 141 158 141C153.582 141 150 144.582 150 149C150 153.418 153.582 157 158 157Z" fill="#232323"/>
<path d="M1266.5 237C1269.54 237 1272 234.538 1272 231.5C1272 228.462 1269.54 226 1266.5 226C1263.46 226 1261 228.462 1261 231.5C1261 234.538 1263.46 237 1266.5 237Z" fill="#232323"/>
<path d="M1067.5 73C1070.54 73 1073 70.5376 1073 67.5001C1073 64.4625 1070.54 62 1067.5 62C1064.46 62 1062 64.4625 1062 67.5001C1062 70.5376 1064.46 73 1067.5 73Z" fill="#232323"/>
<path d="M92 255C94.2091 255 96 253.209 96 251C96 248.791 94.2091 247 92 247C89.7909 247 88 248.791 88 251C88 253.209 89.7909 255 92 255Z" fill="#232323"/>
<path d="M166 491.352V492.648C157.833 494.463 154.657 497.509 152.843 506H151.222C149.407 497.444 146.491 494.463 138 492.648V491.352C146.491 489.537 149.407 486.491 151.222 478H152.843C154.657 486.556 157.833 489.602 166 491.352Z" fill="#232323"/>
<path d="M297 134.352V135.648C288.833 137.463 285.657 140.509 283.843 149H282.222C280.407 140.444 277.491 137.463 269 135.648V134.352C277.491 132.537 280.407 129.491 282.222 121H283.843C285.657 129.556 288.833 132.602 297 134.352Z" fill="#232323"/>
<path d="M1110 245.352V246.648C1101.83 248.463 1098.66 251.509 1096.84 260H1095.22C1093.41 251.444 1090.49 248.463 1082 246.648V245.352C1090.49 243.537 1093.41 240.491 1095.22 232H1096.84C1098.66 240.556 1101.83 243.602 1110 245.352Z" fill="#232323"/>
</g>
<defs>
<clipPath id="clip0">
<rect width="1360" height="568" fill="white"/>
</clipPath>
</defs>
</svg>
