<svg width="137" height="136" viewBox="0 0 137 136" fill="none" xmlns="http://www.w3.org/2000/svg">
<path d="M68.0979 135.512C50.0132 135.512 32.9633 128.466 20.2005 115.653C7.38842 102.841 0.341797 85.8408 0.341797 67.7561C0.341797 49.6714 7.38842 32.6215 20.2005 19.8587C33.0125 7.04664 50.0132 0 68.0979 0C86.1826 0 103.233 7.04664 115.995 19.8587C128.807 32.6708 135.854 49.6714 135.854 67.7561C135.854 85.8408 128.807 102.891 115.995 115.653C103.233 128.416 86.1826 135.512 68.0979 135.512Z" fill="black"/>
<mask id="mask0" mask-type="alpha" maskUnits="userSpaceOnUse" x="0" y="0" width="136" height="136">
<path d="M68 136C49.8502 136 32.7389 128.928 19.9302 116.07C7.07199 103.212 0 86.1498 0 68C0 49.8502 7.07199 32.7389 19.9302 19.9302C32.7884 7.072 49.8502 0 68 0C86.1498 0 103.261 7.072 116.07 19.9302C128.928 32.7884 136 49.8502 136 68C136 86.1498 128.928 103.261 116.07 116.07C103.261 128.879 86.1498 136 68 136Z" fill="black"/>
</mask>
<g mask="url(#mask0)">
<path d="M70.0273 136.395H96.4855C96.4855 124.279 109.987 106.921 109.987 80.8086C109.987 58.554 106.278 46.5366 104.052 40.9482C102.222 36.2995 100.096 33.6289 95.5459 33.6289C90.9961 33.6289 86.5946 35.4093 85.3582 45.6464C81.7975 76.2093 68.148 93.8646 70.0273 136.395Z" fill="#FBFBFB"/>
<path d="M65.972 136.395H39.5138C39.5138 124.279 26.0127 106.921 26.0127 80.8086C26.0127 58.554 29.7218 46.5366 31.9472 40.9482C33.7771 36.2995 35.9036 33.6289 40.4534 33.6289C45.0032 33.6289 49.4047 35.4093 50.6411 45.6464C54.2018 76.2093 67.8513 93.8645 65.972 136.395Z" fill="#FBFBFB"/>
<path d="M68.1484 136.693H67.456C61.7193 136.693 56.8727 133.577 53.5098 127.642C50.5426 122.45 48.7622 115.328 48.3171 106.97C47.4269 90.7987 45.5971 60.038 44.5091 46.2401C44.0146 40.1572 42.0858 39.6627 40.3549 39.6627C38.2778 39.6627 37.0415 41.3442 35.8051 45.6962C34.7171 49.5536 31.008 67.8023 32.4916 86.3478C33.4313 97.6729 37.0909 107.218 40.3055 115.625C43.2727 123.29 45.7949 129.917 45.7949 136.396H44.4102C44.4102 130.214 41.888 123.686 39.0197 116.119C35.7557 107.613 32.0466 98.0191 31.1069 86.4467C29.5738 67.7034 33.3818 49.2569 34.4698 45.3005C35.5084 41.6409 36.9425 38.2285 40.3549 38.2285C43.8167 38.2285 45.4487 40.6023 45.8938 46.0918C46.9818 59.8896 48.8116 90.6998 49.7018 106.822C50.1469 114.982 51.8778 121.906 54.6967 126.901C57.8618 132.439 62.1149 135.258 67.456 135.258H68.1484C70.8684 135.258 73.3411 134.517 75.5666 133.033C77.6436 131.648 79.5229 129.571 81.1055 126.901C84.0233 121.906 85.9025 114.784 86.3476 106.822C87.2378 90.6503 89.0676 59.8896 90.1556 46.0918C90.6007 40.5529 92.2327 38.2285 95.6946 38.2285C99.1564 38.2285 100.591 41.6409 101.58 45.3005C102.668 49.2074 106.476 67.7034 104.943 86.4467C104.003 97.9696 100.294 107.663 97.0298 116.218C94.112 123.834 91.6393 130.412 91.6393 136.594H90.2546C90.2546 130.115 92.8262 123.439 95.744 115.674C98.9585 107.218 102.618 97.6234 103.558 86.2983C105.091 67.7529 101.332 49.5042 100.244 45.6467C99.008 41.2947 97.7717 39.6132 95.6946 39.6132C93.9142 39.6132 92.0349 40.1078 91.5404 46.1907C90.4524 59.9885 88.6226 90.7492 87.7324 106.921C87.2873 115.229 85.408 122.351 82.2924 127.642C78.8306 133.577 73.9346 136.693 68.1484 136.693Z" fill="black"/>
<path d="M78.5235 33.8268V34.8159C72.2923 36.2006 69.869 38.525 68.4843 45.0035H67.2479C65.8632 38.4755 63.6377 36.2006 57.1592 34.8159V33.8268C63.6377 32.4421 65.8632 30.1177 67.2479 23.6392H68.4843C69.869 30.1672 72.2923 32.4915 78.5235 33.8268Z" fill="#FBFBFB"/>
</g>
<path d="M68.0488 136C49.899 136 32.7877 128.928 19.979 116.07C7.12082 103.212 0.0488281 86.1498 0.0488281 68C0.0488281 49.8502 7.12082 32.7389 19.979 19.9302C32.8372 7.072 49.899 0 68.0488 0C86.1987 0 103.31 7.072 116.119 19.9302C128.977 32.7884 136.049 49.8502 136.049 68C136.049 86.1498 128.977 103.261 116.119 116.07C103.31 128.879 86.1987 136 68.0488 136ZM68.0488 1.58254C31.4525 1.58254 1.63138 31.3542 1.63138 68C1.63138 104.596 31.403 134.417 68.0488 134.417C104.695 134.417 134.466 104.646 134.466 68C134.466 31.3542 104.645 1.58254 68.0488 1.58254Z" fill="black"/>
</svg>
