<svg width="150" height="50" viewBox="0 0 150 50" fill="none" xmlns="http://www.w3.org/2000/svg">
<g clip-path="url(#clip0)">
<path d="M137.625 0H11.875C11.5 0 11 0 10.5 0C10.125 0 9.75 0 9.375 0C8.5 0 7.75 0.125 6.875 0.25C6.125 0.375 5.25 0.625 4.5 1C3.75 1.375 3.125 1.875 2.5 2.5C1.875 3.125 1.375 3.75 1 4.5C0.625 5.25 0.375 6.125 0.25 6.875C0.125 7.75 0 8.625 0 9.375C0 9.75 0 10.125 0 10.5V39.375C0 39.75 0 40.125 0 40.5C0 41.375 0.125 42.125 0.25 43C0.375 43.875 0.625 44.625 1 45.375C1.375 46.25 1.875 46.875 2.5 47.5C3.125 48.125 3.75 48.625 4.5 49C5.25 49.375 6 49.625 6.875 49.75C7.75 49.875 8.5 50 9.375 50C9.75 50 10.125 50 10.5 50C11 50 11.375 50 11.875 50H137.625C138.125 50 138.5 50 139 50C139.375 50 139.75 50 140.125 50C141 50 141.75 49.875 142.625 49.75C143.5 49.625 144.25 49.375 145 49C145.75 48.625 146.375 48.125 147 47.5C147.625 46.875 148.125 46.25 148.5 45.5C148.875 44.75 149.125 44 149.25 43.125C149.375 42.25 149.5 41.5 149.5 40.625C149.5 40.25 149.5 39.875 149.5 39.5C149.5 39 149.5 38.625 149.5 38.125V11.875C149.5 11.375 149.5 11 149.5 10.5C149.5 10.125 149.5 9.75 149.5 9.375C149.5 8.5 149.375 7.75 149.25 6.875C149.125 6 148.875 5.25 148.5 4.5C147.75 3 146.5 1.75 145 1C144.25 0.625 143.5 0.375 142.625 0.25C141.75 0.125 141 0 140.125 0C139.75 0 139.375 0 139 0C138.625 0 138.125 0 137.625 0Z" fill="#A6A6A6"/>
<path d="M10.4999 48.875C10.1249 48.875 9.74994 48.875 9.37494 48.875C8.62494 48.875 7.74994 48.75 6.99994 48.625C6.24994 48.5 5.62494 48.25 4.87494 48C4.24994 47.625 3.62494 47.25 3.12494 46.75C2.62494 46.25 2.12494 45.625 1.87494 45C1.49994 44.375 1.37494 43.625 1.24994 42.875C1.12494 42.125 0.999939 41.375 0.999939 40.5C0.999939 40.25 0.999939 39.375 0.999939 39.375V10.5C0.999939 10.5 0.999939 9.625 0.999939 9.375C0.999939 8.625 1.12494 7.75 1.24994 7C1.37494 6.375 1.62494 5.625 1.99994 5C2.37494 4.375 2.74994 3.75 3.24994 3.25C3.74994 2.75 4.37494 2.375 4.99994 2C5.62494 1.625 6.37494 1.5 7.12494 1.375C7.87494 1.25 8.62494 1.125 9.49994 1.125H10.6249H139.125H140.25C141 1.125 141.75 1.25 142.625 1.375C143.375 1.5 144 1.75 144.75 2C146 2.625 147.125 3.75 147.75 5C148.125 5.625 148.25 6.375 148.375 7C148.5 7.75 148.625 8.625 148.625 9.375C148.625 9.75 148.625 10.125 148.625 10.5C148.625 11 148.625 11.375 148.625 11.875V38C148.625 38.5 148.625 38.875 148.625 39.375C148.625 39.75 148.625 40.125 148.625 40.5C148.625 41.25 148.5 42 148.375 42.875C148.25 43.625 148 44.25 147.75 45C147.375 45.625 147 46.25 146.5 46.75C146 47.25 145.375 47.75 144.75 48C144.125 48.375 143.375 48.625 142.625 48.625C141.875 48.75 141.125 48.875 140.25 48.875C139.875 48.875 139.5 48.875 139.125 48.875H137.75H10.4999Z" fill="black"/>
<path d="M30.9999 25.375C30.9999 23.25 32.125 21.25 34 20.125C32.875 18.5 31 17.5 29 17.375C26.875 17.125 24.8749 18.625 23.7499 18.625C22.6249 18.625 20.9999 17.375 19.2499 17.375C16.8749 17.5 14.7499 18.75 13.6249 20.75C11.2499 24.875 12.9999 31.125 15.3749 34.5C16.4999 36.125 17.8749 38 19.6249 38C21.3749 37.875 21.9999 36.875 24.1249 36.875C26.2499 36.875 26.7499 38 28.6249 38C30.4999 38 31.625 36.375 32.75 34.625C33.625 33.5 34.25 32.125 34.625 30.75C32.375 30 30.9999 27.75 30.9999 25.375Z" fill="white"/>
<path d="M27.4999 15.25C28.4999 14 28.9999 12.5 28.8749 10.875C27.3749 11 25.8749 11.75 24.8749 13C23.8749 14.125 23.3749 15.625 23.4999 17.25C25.1249 17.25 26.4999 16.5 27.4999 15.25Z" fill="white"/>
<path d="M52.875 33.875H47L45.625 38.125H43.125L48.75 22.625H51.25L56.875 38.125H54.375L52.875 33.875ZM47.625 32H52.375L50 25.125H49.875L47.625 32Z" fill="white"/>
<path d="M68.9999 32.5C68.9999 36 67.1249 38.25 64.2499 38.25C62.7499 38.375 61.3749 37.5 60.7499 36.25V41.875H58.3749V26.875H60.6249V28.75C61.3749 27.5 62.7499 26.75 64.2499 26.75C66.9999 26.625 68.9999 29 68.9999 32.5ZM66.4999 32.5C66.4999 30.25 65.3749 28.75 63.4999 28.75C61.7499 28.75 60.4999 30.25 60.4999 32.5C60.4999 34.75 61.7499 36.25 63.4999 36.25C65.3749 36.25 66.4999 34.75 66.4999 32.5Z" fill="white"/>
<path d="M81.3749 32.5C81.3749 36 79.4999 38.25 76.6249 38.25C75.1249 38.375 73.7499 37.5 73.1249 36.25V41.875H70.7499V26.875H72.9999V28.75C73.7499 27.5 75.1249 26.75 76.6249 26.75C79.4999 26.625 81.3749 29 81.3749 32.5ZM78.9999 32.5C78.9999 30.25 77.8749 28.75 75.9999 28.75C74.2499 28.75 72.9999 30.25 72.9999 32.5C72.9999 34.75 74.2499 36.25 75.9999 36.25C77.8749 36.25 78.9999 34.75 78.9999 32.5Z" fill="white"/>
<path d="M89.625 33.75C89.75 35.25 91.25 36.25 93.375 36.25C95.375 36.25 96.75 35.25 96.75 33.875C96.75 32.625 95.875 32 93.875 31.5L91.875 31C89 30.25 87.75 29 87.75 26.875C87.75 24.25 90.125 22.375 93.375 22.375C96.625 22.375 98.875 24.25 99 26.875H96.625C96.5 25.375 95.25 24.375 93.375 24.375C91.5 24.375 90.25 25.375 90.25 26.75C90.25 27.875 91.125 28.5 93.125 29L94.875 29.375C98 30.125 99.375 31.375 99.375 33.625C99.375 36.5 97 38.375 93.375 38.375C89.875 38.375 87.625 36.625 87.5 33.75H89.625Z" fill="white"/>
<path d="M104.125 24.125V26.75H106.25V28.625H104.125V34.875C104.125 35.875 104.5 36.25 105.5 36.25C105.75 36.25 106 36.25 106.25 36.25V38.125C105.875 38.25 105.375 38.25 105 38.25C102.75 38.25 101.875 37.375 101.875 35.25V28.75H100.25V26.875H101.875V24.25H104.125V24.125Z" fill="white"/>
<path d="M107.625 32.5C107.625 29 109.75 26.75 113 26.75C116.25 26.75 118.375 29 118.375 32.5C118.375 36.125 116.25 38.25 113 38.25C109.625 38.25 107.625 36 107.625 32.5ZM116 32.5C116 30 114.875 28.625 113 28.625C111.125 28.625 110 30 110 32.5C110 35 111.125 36.375 113 36.375C114.875 36.375 116 34.875 116 32.5Z" fill="white"/>
<path d="M120.25 26.75H122.5V28.75C122.75 27.5 124 26.625 125.25 26.75C125.5 26.75 125.75 26.75 126 26.875V29C125.625 28.875 125.25 28.875 125 28.875C123.75 28.875 122.625 29.875 122.625 31.125C122.625 31.25 122.625 31.375 122.625 31.5V38.25H120.25V26.75Z" fill="white"/>
<path d="M136.75 34.75C136.5 36.75 134.375 38.25 131.875 38.25C128.625 38.25 126.5 36 126.5 32.5C126.5 29 128.5 26.625 131.75 26.625C134.875 26.625 136.875 28.75 136.875 32.25V33H128.875V33.125C128.75 34.75 129.875 36.125 131.5 36.375C131.625 36.375 131.75 36.375 131.875 36.375C133 36.5 134.125 35.875 134.5 34.75H136.75ZM128.875 31.375H134.5C134.625 29.875 133.375 28.625 131.875 28.5C131.75 28.5 131.75 28.5 131.625 28.5C130.125 28.5 128.875 29.75 128.875 31.375Z" fill="white"/>
<path d="M45.8749 14.125H46.8749C47.4999 14.25 48.1249 13.75 48.2499 13V12.875C48.2499 12.125 47.7499 11.75 46.8749 11.75C46.1249 11.625 45.4999 12.125 45.3749 12.875H44.2499C44.3749 11.625 45.3749 10.625 46.7499 10.625H46.8749C48.3749 10.625 49.3749 11.5 49.3749 12.625C49.3749 13.5 48.8749 14.125 47.9999 14.375V14.5C48.9999 14.5 49.7499 15.375 49.6249 16.25C49.4999 17.625 48.2499 18.625 46.8749 18.5C45.4999 18.625 44.2499 17.75 44.1249 16.375C44.1249 16.375 44.1249 16.375 44.1249 16.25H45.2499C45.3749 17 45.9999 17.375 46.9999 17.375C47.9999 17.375 48.6249 16.875 48.6249 16.125C48.6249 15.375 47.9999 14.875 46.9999 14.875H45.9999L45.8749 14.125Z" fill="white"/>
<path d="M50.9999 16.75C50.9999 15.75 51.7499 15.125 53.1249 15.125L54.6249 15V14.5C54.6249 13.875 54.2499 13.625 53.4999 13.625C52.8749 13.625 52.4999 13.875 52.3749 14.25H51.2499C51.3749 13.25 52.2499 12.625 53.4999 12.625C54.8749 12.625 55.7499 13.375 55.7499 14.5V18.375H54.6249V17.625H54.4999C54.1249 18.25 53.4999 18.5 52.7499 18.5C51.8749 18.625 50.9999 17.875 50.8749 17C50.9999 16.875 50.9999 16.875 50.9999 16.75ZM54.6249 16.25V15.75L53.2499 15.875C52.4999 15.875 52.1249 16.25 52.1249 16.625C52.1249 17.125 52.6249 17.375 53.1249 17.375C53.8749 17.625 54.6249 17.125 54.6249 16.25C54.6249 16.375 54.6249 16.375 54.6249 16.25Z" fill="white"/>
<path d="M58.7499 13.625V18.375H57.6249V12.75H61.3749V13.625H58.7499Z" fill="white"/>
<path d="M67.9999 15.5C67.9999 17.25 67.1249 18.375 65.6249 18.375C64.8749 18.375 64.2499 18 63.8749 17.375H63.7499V20.125H62.6249V12.625H63.7499V13.5H63.8749C64.2499 12.875 64.8749 12.5 65.6249 12.5C67.1249 12.625 67.9999 13.75 67.9999 15.5ZM66.8749 15.5C66.8749 14.25 66.2499 13.625 65.3749 13.625C64.4999 13.625 63.8749 14.375 63.8749 15.5C63.8749 16.625 64.4999 17.375 65.3749 17.375C66.3749 17.5 66.8749 16.75 66.8749 15.5Z" fill="white"/>
<path d="M69.4999 20.375V19.375C69.6249 19.375 69.7499 19.375 69.8749 19.375C70.3749 19.375 70.7499 19.125 70.8749 18.625L70.9999 18.375L68.9999 12.75H70.2499L71.6249 17.25H71.7499L73.1249 12.75H74.2499L72.1249 18.625C71.6249 20 71.1249 20.375 69.9999 20.375C69.8749 20.375 69.6249 20.375 69.4999 20.375Z" fill="white"/>
<path d="M75.1249 16.75H76.2499C76.3749 17.25 76.8749 17.5 77.4999 17.5C78.2499 17.5 78.7499 17.125 78.7499 16.625C78.7499 16.125 78.3749 15.875 77.4999 15.875H76.6249V15H77.4999C78.1249 15 78.4999 14.75 78.4999 14.25C78.4999 13.875 78.1249 13.5 77.4999 13.5C76.8749 13.5 76.3749 13.75 76.3749 14.25H75.2499C75.3749 13.25 76.3749 12.5 77.4999 12.625C78.8749 12.625 79.6249 13.25 79.6249 14.125C79.6249 14.625 79.2499 15.125 78.7499 15.25V15.375C79.3749 15.5 79.8749 16 79.8749 16.625C79.8749 17.75 78.9999 18.375 77.6249 18.375C76.2499 18.5 75.2499 17.875 75.1249 16.75Z" fill="white"/>
<path d="M81.3749 18.375V12.75H82.4999V16.625L85.1249 12.75H86.2499V18.375H85.1249V14.5H84.9999L82.3749 18.375H81.3749Z" fill="white"/>
<path d="M92.2499 13.625H90.4999V18.375H89.3749V13.625H87.6249V12.75H92.2499V13.625V13.625Z" fill="white"/>
<path d="M98.25 16.875C98 17.875 96.875 18.625 95.75 18.5C94.375 18.5 93.125 17.375 93.125 16C93.125 15.875 93.125 15.75 93.125 15.625C92.875 14.25 93.875 12.875 95.375 12.75C95.5 12.75 95.625 12.75 95.75 12.75C97.375 12.75 98.25 13.875 98.25 15.625V16H94.25C94.125 16.875 94.75 17.5 95.625 17.625H95.75C96.25 17.75 96.875 17.375 97.125 17L98.25 16.875ZM94.375 15H97.25C97.25 14.25 96.75 13.625 96 13.5H95.875C95 13.625 94.375 14.25 94.375 15Z" fill="white"/>
<path d="M103 12.75H105.5C106.625 12.75 107.25 13.25 107.25 14.125C107.25 14.75 106.875 15.25 106.25 15.375V15.5C106.875 15.5 107.5 16.125 107.5 16.75C107.5 17.75 106.75 18.375 105.5 18.375H102.875V12.75H103ZM104.125 13.625V15H105.25C105.875 15 106.25 14.75 106.25 14.25C106.25 13.75 106 13.5 105.375 13.5L104.125 13.625ZM104.125 15.875V17.5H105.5C106.125 17.5 106.5 17.25 106.5 16.625C106.5 16 106.125 15.75 105.375 15.75L104.125 15.875Z" fill="white"/>
</g>
<defs>
<clipPath id="clip0">
<rect width="149.625" height="50" fill="white"/>
</clipPath>
</defs>
</svg>
