<svg width="150" height="50" viewBox="0 0 150 50" fill="none" xmlns="http://www.w3.org/2000/svg">
<g clip-path="url(#clip0)">
<path d="M137.625 0H11.875C11.5 0 11 0 10.5 0C10.125 0 9.75 0 9.375 0C8.5 0 7.75 0.125 6.875 0.25C6.125 0.375 5.25 0.625 4.5 1C3.75 1.375 3.125 1.875 2.5 2.5C1.875 3.125 1.375 3.75 1 4.5C0.625 5.25 0.375 6.125 0.25 6.875C0.125 7.75 0 8.625 0 9.375C0 9.75 0 10.125 0 10.5V39.375C0 39.75 0 40.125 0 40.5C0 41.375 0.125 42.125 0.25 43C0.375 43.875 0.625 44.625 1 45.375C1.375 46.25 1.875 46.875 2.5 47.5C3.125 48.125 3.75 48.625 4.5 49C5.25 49.375 6 49.625 6.875 49.75C7.75 49.875 8.5 50 9.375 50C9.75 50 10.125 50 10.5 50C11 50 11.375 50 11.875 50H137.625C138.125 50 138.5 50 139 50C139.375 50 139.75 50 140.125 50C141 50 141.75 49.875 142.625 49.75C143.5 49.625 144.25 49.375 145 49C145.75 48.625 146.375 48.125 147 47.5C147.625 46.875 148.125 46.25 148.5 45.5C148.875 44.75 149.125 44 149.25 43.125C149.375 42.25 149.5 41.5 149.5 40.625C149.5 40.25 149.5 39.875 149.5 39.5C149.5 39 149.5 38.625 149.5 38.125V11.875C149.5 11.375 149.5 11 149.5 10.5C149.5 10.125 149.5 9.75 149.5 9.375C149.5 8.5 149.375 7.75 149.25 6.875C149.125 6 148.875 5.25 148.5 4.5C147.75 3 146.5 1.75 145 1C144.25 0.625 143.5 0.375 142.625 0.25C141.75 0.125 141 0 140.125 0C139.75 0 139.375 0 139 0C138.625 0 138.125 0 137.625 0Z" fill="#A6A6A6"/>
<path d="M10.4999 48.875C10.1249 48.875 9.74994 48.875 9.37494 48.875C8.62494 48.875 7.74994 48.75 6.99994 48.625C6.24994 48.5 5.62494 48.25 4.87494 48C4.24994 47.625 3.62494 47.25 3.12494 46.75C2.62494 46.25 2.12494 45.625 1.87494 45C1.49994 44.375 1.37494 43.625 1.24994 42.875C1.12494 42.125 0.999939 41.375 0.999939 40.5C0.999939 40.25 0.999939 39.375 0.999939 39.375V10.5C0.999939 10.5 0.999939 9.625 0.999939 9.375C0.999939 8.625 1.12494 7.75 1.24994 7C1.37494 6.375 1.62494 5.625 1.99994 5C2.37494 4.375 2.74994 3.75 3.24994 3.25C3.74994 2.75 4.37494 2.375 4.99994 2C5.62494 1.625 6.37494 1.5 7.12494 1.375C7.87494 1.25 8.62494 1.125 9.49994 1.125H10.6249H139.125H140.25C141 1.125 141.75 1.25 142.625 1.375C143.375 1.5 144 1.75 144.75 2C146 2.625 147.125 3.75 147.75 5C148.125 5.625 148.25 6.375 148.375 7C148.5 7.75 148.625 8.625 148.625 9.375C148.625 9.75 148.625 10.125 148.625 10.5C148.625 11 148.625 11.375 148.625 11.875V38C148.625 38.5 148.625 38.875 148.625 39.375C148.625 39.75 148.625 40.125 148.625 40.5C148.625 41.25 148.5 42 148.375 42.875C148.25 43.625 148 44.25 147.75 45C147.375 45.625 147 46.25 146.5 46.75C146 47.25 145.375 47.75 144.75 48C144.125 48.375 143.375 48.625 142.625 48.625C141.875 48.75 141.125 48.875 140.25 48.875C139.875 48.875 139.5 48.875 139.125 48.875H137.75H10.4999Z" fill="black"/>
<path d="M30.9999 25.375C30.9999 23.25 32.125 21.25 34 20.125C32.875 18.5 31 17.5 29 17.375C26.875 17.125 24.8749 18.625 23.7499 18.625C22.6249 18.625 20.9999 17.375 19.2499 17.375C16.8749 17.5 14.7499 18.75 13.6249 20.75C11.2499 24.875 12.9999 31.125 15.3749 34.5C16.4999 36.125 17.8749 38 19.6249 38C21.3749 37.875 21.9999 36.875 24.1249 36.875C26.2499 36.875 26.7499 38 28.6249 38C30.4999 38 31.625 36.375 32.75 34.625C33.625 33.5 34.25 32.125 34.625 30.75C32.375 30 30.9999 27.75 30.9999 25.375Z" fill="white"/>
<path d="M27.4999 15.25C28.4999 14 28.9999 12.5 28.8749 10.875C27.3749 11 25.8749 11.75 24.8749 13C23.8749 14.125 23.3749 15.625 23.4999 17.25C25.1249 17.25 26.4999 16.5 27.4999 15.25Z" fill="white"/>
<path d="M52.875 33.875H47L45.625 38.125H43.125L48.75 22.625H51.25L56.875 38.125H54.375L52.875 33.875ZM47.625 32H52.375L50 25.125H49.875L47.625 32Z" fill="white"/>
<path d="M68.9999 32.5C68.9999 36 67.1249 38.25 64.2499 38.25C62.7499 38.375 61.3749 37.5 60.7499 36.25V41.875H58.3749V26.875H60.6249V28.75C61.3749 27.5 62.7499 26.75 64.2499 26.75C66.9999 26.625 68.9999 29 68.9999 32.5ZM66.4999 32.5C66.4999 30.25 65.3749 28.75 63.4999 28.75C61.7499 28.75 60.4999 30.25 60.4999 32.5C60.4999 34.75 61.7499 36.25 63.4999 36.25C65.3749 36.25 66.4999 34.75 66.4999 32.5Z" fill="white"/>
<path d="M81.3749 32.5C81.3749 36 79.4999 38.25 76.6249 38.25C75.1249 38.375 73.7499 37.5 73.1249 36.25V41.875H70.7499V26.875H72.9999V28.75C73.7499 27.5 75.1249 26.75 76.6249 26.75C79.4999 26.625 81.3749 29 81.3749 32.5ZM78.9999 32.5C78.9999 30.25 77.8749 28.75 75.9999 28.75C74.2499 28.75 72.9999 30.25 72.9999 32.5C72.9999 34.75 74.2499 36.25 75.9999 36.25C77.8749 36.25 78.9999 34.75 78.9999 32.5Z" fill="white"/>
<path d="M89.625 33.75C89.75 35.25 91.25 36.25 93.375 36.25C95.375 36.25 96.75 35.25 96.75 33.875C96.75 32.625 95.875 32 93.875 31.5L91.875 31C89 30.25 87.75 29 87.75 26.875C87.75 24.25 90.125 22.375 93.375 22.375C96.625 22.375 98.875 24.25 99 26.875H96.625C96.5 25.375 95.25 24.375 93.375 24.375C91.5 24.375 90.25 25.375 90.25 26.75C90.25 27.875 91.125 28.5 93.125 29L94.875 29.375C98 30.125 99.375 31.375 99.375 33.625C99.375 36.5 97 38.375 93.375 38.375C89.875 38.375 87.625 36.625 87.5 33.75H89.625Z" fill="white"/>
<path d="M104.125 24.125V26.75H106.25V28.625H104.125V34.875C104.125 35.875 104.5 36.25 105.5 36.25C105.75 36.25 106 36.25 106.25 36.25V38.125C105.875 38.25 105.375 38.25 105 38.25C102.75 38.25 101.875 37.375 101.875 35.25V28.75H100.25V26.875H101.875V24.25H104.125V24.125Z" fill="white"/>
<path d="M107.625 32.5C107.625 29 109.75 26.75 113 26.75C116.25 26.75 118.375 29 118.375 32.5C118.375 36.125 116.25 38.25 113 38.25C109.625 38.25 107.625 36 107.625 32.5ZM116 32.5C116 30 114.875 28.625 113 28.625C111.125 28.625 110 30 110 32.5C110 35 111.125 36.375 113 36.375C114.875 36.375 116 34.875 116 32.5Z" fill="white"/>
<path d="M120.25 26.75H122.5V28.75C122.75 27.5 124 26.625 125.25 26.75C125.5 26.75 125.75 26.75 126 26.875V29C125.625 28.875 125.25 28.875 125 28.875C123.75 28.875 122.625 29.875 122.625 31.125C122.625 31.25 122.625 31.375 122.625 31.5V38.25H120.25V26.75Z" fill="white"/>
<path d="M136.75 34.75C136.5 36.75 134.375 38.25 131.875 38.25C128.625 38.25 126.5 36 126.5 32.5C126.5 29 128.5 26.625 131.75 26.625C134.875 26.625 136.875 28.75 136.875 32.25V33H128.875V33.125C128.75 34.75 129.875 36.125 131.5 36.375C131.625 36.375 131.75 36.375 131.875 36.375C133 36.5 134.125 35.875 134.5 34.75H136.75ZM128.875 31.375H134.5C134.625 29.875 133.375 28.625 131.875 28.5C131.75 28.5 131.75 28.5 131.625 28.5C130.125 28.5 128.875 29.75 128.875 31.375Z" fill="white"/>
<path d="M47.2499 10.875C49.1249 10.75 50.6249 12.125 50.7499 13.875C50.7499 14.125 50.7499 14.25 50.7499 14.5C50.7499 16.875 49.4999 18.25 47.2499 18.25H44.4999V10.75H47.2499V10.875ZM45.7499 17.375H47.1249C48.3749 17.5 49.4999 16.5 49.6249 15.125C49.6249 15 49.6249 14.75 49.6249 14.625C49.7499 13.375 48.8749 12.125 47.6249 12C47.4999 12 47.3749 12 47.1249 12H45.7499V17.375Z" fill="white"/>
<path d="M52.1249 15.5C51.9999 14 52.9999 12.75 54.4999 12.625C55.9999 12.5 57.2499 13.5 57.3749 15C57.3749 15.125 57.3749 15.375 57.3749 15.5C57.4999 17 56.4999 18.25 54.9999 18.375C53.4999 18.5 52.2499 17.5 52.1249 16C52.1249 15.875 52.1249 15.75 52.1249 15.5ZM56.2499 15.5C56.2499 14.25 55.7499 13.625 54.7499 13.625C53.7499 13.625 53.2499 14.375 53.2499 15.5C53.2499 16.75 53.7499 17.5 54.7499 17.5C55.7499 17.5 56.2499 16.75 56.2499 15.5Z" fill="white"/>
<path d="M64.4999 18.375H63.3749L62.2499 14.25H62.1249L60.9999 18.375H59.8749L58.3749 12.75H59.4999L60.4999 17H60.6249L61.7499 12.75H62.8749L63.9999 17H64.1249L65.1249 12.75H66.2499L64.4999 18.375Z" fill="white"/>
<path d="M67.375 12.75H68.5V13.625H68.625C68.875 13 69.625 12.625 70.25 12.625C71.25 12.5 72.125 13.25 72.25 14.375C72.25 14.5 72.25 14.625 72.25 14.75V18.375H71.125V15C71.125 14.125 70.75 13.625 69.875 13.625C69.125 13.625 68.5 14.125 68.5 14.875C68.5 15 68.5 15 68.5 15.125V18.375H67.375V12.75Z" fill="white"/>
<path d="M73.8749 10.5H74.9999V18.375H73.8749V10.5Z" fill="white"/>
<path d="M76.4999 15.5C76.3749 14 77.3749 12.75 78.8749 12.625C80.3749 12.5 81.6249 13.5 81.7499 15C81.7499 15.125 81.7499 15.375 81.7499 15.5C81.8749 17 80.8749 18.25 79.3749 18.375C77.8749 18.5 76.6249 17.5 76.4999 16C76.4999 15.875 76.4999 15.75 76.4999 15.5ZM80.7499 15.5C80.7499 14.25 80.2499 13.625 79.2499 13.625C78.2499 13.625 77.7499 14.375 77.7499 15.5C77.7499 16.75 78.2499 17.5 79.2499 17.5C80.1249 17.5 80.7499 16.75 80.7499 15.5Z" fill="white"/>
<path d="M82.9999 16.75C82.9999 15.75 83.7499 15.125 85.1249 15.125L86.6249 15V14.5C86.6249 13.875 86.2499 13.625 85.4999 13.625C84.8749 13.625 84.4999 13.875 84.3749 14.25H83.2499C83.3749 13.25 84.2499 12.625 85.4999 12.625C86.8749 12.625 87.7499 13.375 87.7499 14.5V18.375H86.6249V17.625H86.4999C86.1249 18.25 85.4999 18.5 84.7499 18.5C83.8749 18.625 82.9999 17.875 82.8749 17C82.9999 16.875 82.9999 16.875 82.9999 16.75ZM86.6249 16.25V15.75L85.2499 15.875C84.4999 15.875 84.1249 16.25 84.1249 16.625C84.1249 17.125 84.6249 17.375 85.1249 17.375C85.8749 17.625 86.4999 17.125 86.6249 16.25C86.6249 16.375 86.6249 16.375 86.6249 16.25Z" fill="white"/>
<path d="M89.1249 15.5C89.1249 13.75 89.9999 12.625 91.4999 12.625C92.2499 12.625 92.8749 13 93.2499 13.625H93.3749V10.5H94.4999V18.375H93.3749V17.5H93.2499C92.8749 18.125 92.2499 18.5 91.4999 18.5C90.1249 18.5 89.1249 17.375 89.1249 15.5ZM90.3749 15.5C90.3749 16.75 90.9999 17.375 91.8749 17.375C92.7499 17.375 93.3749 16.625 93.3749 15.5C93.3749 14.375 92.7499 13.625 91.8749 13.625C90.8749 13.625 90.3749 14.375 90.3749 15.5Z" fill="white"/>
<path d="M98.9999 15.5C98.8749 14 99.8749 12.75 101.375 12.625C102.875 12.5 104.125 13.5 104.25 15C104.25 15.125 104.25 15.375 104.25 15.5C104.375 17 103.375 18.25 101.875 18.375C100.375 18.5 99.1249 17.5 98.9999 16C98.9999 15.875 98.9999 15.75 98.9999 15.5ZM103.25 15.5C103.25 14.25 102.75 13.625 101.75 13.625C100.75 13.625 100.25 14.375 100.25 15.5C100.25 16.75 100.75 17.5 101.75 17.5C102.625 17.5 103.25 16.75 103.25 15.5Z" fill="white"/>
<path d="M105.875 12.75H107V13.625H107.125C107.375 13 108.125 12.625 108.75 12.625C109.75 12.5 110.625 13.25 110.75 14.375C110.75 14.5 110.75 14.625 110.75 14.75V18.375H109.625V15C109.625 14.125 109.25 13.625 108.375 13.625C107.625 13.625 107 14.125 107 14.875C107 15 107 15 107 15.125V18.375H105.875V12.75Z" fill="white"/>
<path d="M116.875 11.375V12.75H118.125V13.75H116.875V16.625C116.875 17.25 117.125 17.5 117.625 17.5C117.75 17.5 117.875 17.5 118 17.5V18.375C117.75 18.375 117.625 18.375 117.375 18.375C116.125 18.375 115.625 18 115.625 16.875V13.75H114.75V12.875H115.625V11.375H116.875Z" fill="white"/>
<path d="M119.625 10.5H120.75V13.625H120.875C121.125 13 121.875 12.5 122.625 12.625C123.625 12.625 124.5 13.375 124.625 14.375C124.625 14.5 124.625 14.625 124.625 14.75V18.375H123.5V15C123.5 14.125 123.125 13.625 122.25 13.625C121.5 13.625 120.875 14.125 120.875 14.875C120.875 15 120.875 15 120.875 15.125V18.375H119.75L119.625 10.5Z" fill="white"/>
<path d="M131 16.875C130.75 17.875 129.625 18.625 128.5 18.5C127.125 18.5 125.875 17.375 125.875 16C125.875 15.875 125.875 15.75 125.875 15.625C125.625 14.25 126.625 12.875 128.125 12.75C128.25 12.75 128.375 12.75 128.5 12.75C130.125 12.75 131 13.875 131 15.625V16H127C126.875 16.875 127.5 17.5 128.375 17.625H128.5C129 17.75 129.625 17.375 129.875 17L131 16.875ZM127 15H129.875C129.875 14.25 129.375 13.625 128.625 13.5H128.5C127.75 13.625 127 14.25 127 15Z" fill="white"/>
</g>
<defs>
<clipPath id="clip0">
<rect width="149.625" height="50" fill="white"/>
</clipPath>
</defs>
</svg>
