<svg width="1547" height="1078" viewBox="0 0 1547 1078" fill="none" xmlns="http://www.w3.org/2000/svg">
<g clip-path="url(#clip0)">
<path d="M130.4 393.4C96.3999 455.1 159.1 498.1 213.7 475.7C268.4 453.4 274 410.5 352.7 411.4C431.4 412.3 471.4 458.8 525.2 446.2C579 433.6 618.7 376.1 669.7 351.7C719.5 327.9 734.5 353.8 798.7 338.7C862.9 323.6 861.1 290.8 901.5 269C977.1 228.3 1023.6 247.3 1072.1 248.9C1113.4 250.2 1144.9 209.2 1124.1 173C1107.8 144.6 1071.4 142.1 1059.4 114.3C1048.7 89.7 1065.9 75 1055.7 31.7C1053.8 23.5 1045 12.4 1031.5 0H231.3C180.6 12.8 130.4 41.6 130.4 89.7C130.4 158 221.1 166 213.7 236.7C206.4 307.4 164.4 331.6 130.4 393.4Z" fill="#EADDCF"/>
<path d="M681.1 623.2C688.8 656 721.9 667.6 749.5 661.1C799.3 649.4 805 626.7 833.4 624.2C873.7 620.6 883.4 689.2 937.1 676.6C990.9 664 1003 574 1054 549.6C1103.8 525.8 1127.6 566 1189.6 536.2C1251.6 506.4 1293.9 522.3 1395.4 576.4C1496.9 630.5 1538.4 539.1 1545.4 474.7C1552.4 410.3 1534.7 353.7 1472.1 301.7C1409.4 249.7 1329.4 219.7 1260.4 229.4C1191.4 239.1 1184.1 259.1 1127.7 280.4C1071.3 301.7 1037.1 258.3 981.4 287.2C897.5 330.8 911.2 488.8 877.7 517.6C851.2 540.4 815.9 512.5 757 527.9C706.2 541.2 670.4 577.3 681.1 623.2Z" fill="#ABAAB5"/>
<path d="M46.1 804C18.5 810.3 -6.19997 835.3 1.30003 868.1C11.8 914.1 59.8 930.7 111.3 920.3C171 908.3 190.5 867.7 224.3 876.5C267 887.7 324.2 1075.7 418.7 1077.9C481.4 1079.4 507.4 1040 546.8 1031C584.9 1022.3 640.9 1058.9 746 1034.9C855 1010 887.6 907.3 877.7 863.9C867.8 820.6 845.9 814.9 844.7 788.1C843.3 757.8 874.8 739.6 877 706.9C879.8 665.2 833.5 642.2 796.9 661.6C754.1 684.3 720.6 721.9 634.8 718.5C588.9 716.7 551 703.8 486.7 718.5C422.4 733.2 409.9 769.1 354.7 769.6C298.2 770.1 261.6 695.2 207.8 707.5C154 719.8 175.4 785.7 137.7 800.2C111.1 810.5 96 792.5 46.1 804Z" fill="#5835FF"/>
</g>
<defs>
<clipPath id="clip0">
<rect width="1546.8" height="1077.9" fill="white"/>
</clipPath>
</defs>
</svg>
