<svg width="190" height="215" viewBox="0 0 190 215" fill="none" xmlns="http://www.w3.org/2000/svg">
<path d="M165.19 17.5599C165.19 18.3895 164.519 19.0599 163.693 19.0599C162.867 19.0599 162.195 18.3895 162.195 17.5599C162.195 16.7304 162.867 16.0599 163.693 16.0599C164.519 16.0599 165.19 16.7304 165.19 17.5599Z" fill="#212121" stroke="#212121" stroke-width="3" stroke-linecap="round" stroke-linejoin="round"/>
<path d="M4.49534 151C4.49534 151.83 3.82371 152.5 2.99767 152.5C2.17163 152.5 1.5 151.83 1.5 151C1.5 150.17 2.17163 149.5 2.99767 149.5C3.82371 149.5 4.49534 150.17 4.49534 151Z" fill="#212121" stroke="#212121" stroke-width="3" stroke-linecap="round" stroke-linejoin="round"/>
<path d="M3 151.5C3 151.5 37 -12 133.448 2.00003C154.598 5.07004 164.487 18.3468 164.487 18.3468" stroke="#212121" stroke-width="1.5" stroke-miterlimit="10" stroke-linecap="round" stroke-linejoin="round"/>
<path d="M2.99993 151.5C28 74 125 107 183.5 158" stroke="#212121" stroke-width="1.5" stroke-linecap="round"/>
<path d="M128.75 8.53602C128.75 8.53602 135.471 7.00054 143.862 9.55514C153.258 12.4155 157.746 17.117 157.746 17.117" stroke="#212121" stroke-width="1.5" stroke-miterlimit="10" stroke-linecap="round" stroke-linejoin="round"/>
<path d="M139.776 14.875C139.776 14.875 147.128 14.2635 154.888 19.7803" stroke="#212121" stroke-width="1.5" stroke-miterlimit="10" stroke-linecap="round" stroke-linejoin="round"/>
<path d="M151.77 145.992C151.77 145.992 156.848 137.874 148.839 132.77C156.882 137.895 162.061 129.839 162.061 129.839C162.061 129.839 156.488 137.636 164.992 143.061C156.488 137.636 151.77 145.992 151.77 145.992Z" fill="#212121"/>
</svg>
