<svg width="471" height="194" viewBox="0 0 471 194" fill="none" xmlns="http://www.w3.org/2000/svg">
<path d="M238 179.633C250 100.633 192.5 -1.3673 15 100.633" stroke="#212121" stroke-width="2.5" stroke-linecap="round"/>
<g clip-path="url(#clip0)">
<path d="M48.4727 83.6243C48.2552 83.8765 48.0406 84.1411 47.8316 84.418C46.6246 86.0169 45.5875 88.0488 45.2608 90.5067C45.1715 91.1783 45.1362 91.8753 45.163 92.597C44.6022 92.1283 44.0227 91.7255 43.4302 91.3823C41.282 90.1381 39.0391 89.7211 37.036 89.7049C36.6974 89.7021 36.3649 89.7108 36.0399 89.729C36.2496 89.4984 36.4563 89.2564 36.6578 89.0028C37.9009 87.4382 38.9562 85.4168 39.2655 82.9123C39.3497 82.2308 39.3777 81.5206 39.3415 80.7817C39.9042 81.2614 40.4835 81.6727 41.0745 82.0221C43.2468 83.3062 45.493 83.7035 47.4921 83.6731C47.8258 83.668 48.1531 83.6511 48.4727 83.6243Z" fill="#212121" stroke="#212121" stroke-width="2.5"/>
</g>
<path d="M243.75 186C243.75 189.728 240.728 192.75 237 192.75C233.272 192.75 230.25 189.728 230.25 186C230.25 182.272 233.272 179.25 237 179.25C240.728 179.25 243.75 182.272 243.75 186Z" fill="#212121" stroke="#212121" stroke-width="2.5" stroke-linecap="round" stroke-linejoin="round"/>
<path d="M469.75 36C469.75 39.7279 466.728 42.75 463 42.75C459.272 42.75 456.25 39.7279 456.25 36C456.25 32.2721 459.272 29.25 463 29.25C466.728 29.25 469.75 32.2721 469.75 36Z" fill="#212121" stroke="#212121" stroke-width="2.5" stroke-linecap="round" stroke-linejoin="round"/>
<path d="M238 179.633C238 179.633 287.5 3.13266 398.811 1.63264C441.55 1.05669 460.888 34.3261 460.888 34.3261" stroke="#212121" stroke-width="2.5" stroke-miterlimit="10" stroke-linecap="round" stroke-linejoin="round"/>
<path d="M389.415 14.7046C389.415 14.7046 402.857 11.6336 419.639 16.7428C438.431 22.4635 447.406 31.8666 447.406 31.8666" stroke="#212121" stroke-width="2.5" stroke-miterlimit="10" stroke-linecap="round" stroke-linejoin="round"/>
<path d="M411.465 27.3826C411.465 27.3826 426.17 26.1596 441.689 37.1933" stroke="#212121" stroke-width="2.5" stroke-miterlimit="10" stroke-linecap="round" stroke-linejoin="round"/>
<path d="M14.75 104C14.75 107.728 11.7279 110.75 8 110.75C4.27208 110.75 1.25 107.728 1.25 104C1.25 100.272 4.27208 97.25 8 97.25C11.7279 97.25 14.75 100.272 14.75 104Z" fill="#212121" stroke="#212121" stroke-width="2.5" stroke-linecap="round" stroke-linejoin="round"/>
<defs>
<clipPath id="clip0">
<rect width="23.7332" height="23.7332" fill="white" transform="matrix(-0.99992 0.0126819 0.0126819 0.99992 53.9034 74.5452)"/>
</clipPath>
</defs>
</svg>
