<svg width="630" height="771" viewBox="0 0 630 771" fill="none" xmlns="http://www.w3.org/2000/svg">
<path d="M630.467 105.755C534.275 21.3858 430.175 35.7616 335.045 9.24887C308.842 1.94315 267.179 -5.12691 252.779 26.3348C252.779 26.3348 343.188 101.513 453.898 117.303C564.608 133.21 630.467 160.784 630.467 160.784V105.755Z" fill="white"/>
<path d="M467.59 448.888C467.59 448.888 523.771 496.729 498.395 547.751C472.547 599.834 353.155 576.595 353.155 576.595C447.931 612.77 505.861 650.886 550.352 696.562C579.15 727.67 578.296 752.293 566.847 762.544C544.658 782.34 499.443 748.247 460.376 720.555C428.509 697.931 293.499 608.554 244.99 576.974C234.603 570.258 229.528 557.767 232.243 545.748C234.839 533.965 244.518 525.009 256.438 522.888C267.533 521.003 279.218 515.818 279.218 502.739C279.218 448.299 100.466 449.041 110.971 338.159C115.22 293.971 160.487 234.792 299.17 265.429C453.078 299.247 587.841 407.89 587.841 407.89C587.841 407.89 567.559 374.181 577.473 337.888C587.978 299.357 614.084 286.423 614.084 286.423C446.367 288.073 315.438 199.375 266.928 158.958C211.574 112.885 171.225 84.5592 182.201 48.7376C189.519 24.6994 220.106 14.642 265.429 31.4923C379.207 73.9126 505.358 54.0259 630.585 149.825V525.009C630.585 525.009 577.344 584.945 465.819 598.656C370.925 610.321 308.272 602.837 278.175 602.837C233.325 602.837 218.941 645.576 161.957 645.576C121.71 645.576 67.2747 603.332 50.9869 574.345C50.9869 574.345 64.9404 546.645 98.2241 555.6C132.452 564.791 141.362 615.859 166.737 610.675C204.978 602.78 166.737 552.601 202.446 505.364C222.156 477.791 286.653 481.764 334.1 487.067C381.429 492.251 467.59 448.888 467.59 448.888Z" fill="white"/>
<path d="M467.589 450.185C467.589 450.185 523.77 498.025 498.394 549.047C472.546 601.13 352.985 576.385 352.985 576.385C447.643 612.56 506.774 650.503 549.854 696.929C578.653 728.038 578.417 751.722 566.968 761.974C544.779 781.77 500.755 748.776 461.688 721.085C429.82 698.461 293.499 609.732 244.99 578.153C234.603 571.436 229.528 558.946 232.243 546.926C234.839 535.143 244.517 526.188 256.438 524.067C267.533 522.181 279.217 516.997 279.217 503.917C279.217 450.381 106.704 448.191 110.97 342.658M630.585 151.239C505.358 55.4399 377.534 72.9972 263.756 30.5769C218.433 13.7266 189.163 25.2743 181.845 49.3125C170.868 85.1341 214.066 117.656 270.719 161.726C320.527 200.494 445.99 288.398 613.707 286.748C613.707 286.748 587.977 300.771 577.473 339.302C567.559 375.595 587.977 408.236 587.977 408.236C587.977 408.236 454.134 299.71 300.226 265.774C254.748 255.727 219.259 255.121 191.949 260.402C168.931 264.853 151.946 274.236 139.463 284.924" stroke="#212121" stroke-width="2.5" stroke-miterlimit="10" stroke-linecap="round" stroke-linejoin="round"/>
<path d="M139.001 285.217C139.001 285.217 122.595 249.513 87.7768 231.249C52.2505 212.513 23.8059 218.758 18.7307 234.312C12.5933 253.166 36.6709 273.787 36.6709 273.787C36.6709 273.787 4.21334 261.532 2.3249 280.975C0.672515 297.707 26.8747 299.239 26.8747 299.239C26.8747 299.239 2.91503 304.895 7.04599 319.035C11.295 333.882 31.9498 322.924 31.9498 322.924C31.9498 322.924 19.0848 344.959 35.8447 350.497C51.0703 355.564 59.5683 331.761 59.5683 331.761C59.5683 331.761 77.2146 349.021 110.97 342.658" fill="white"/>
<path d="M139.001 285.217C139.001 285.217 122.595 249.513 87.7768 231.249C52.2505 212.513 23.8059 218.758 18.7307 234.312C12.5933 253.166 36.6709 273.787 36.6709 273.787C36.6709 273.787 4.21334 261.532 2.3249 280.975C0.672515 297.707 26.8747 299.239 26.8747 299.239C26.8747 299.239 2.91503 304.895 7.04599 319.035C11.295 333.882 31.9498 322.924 31.9498 322.924C31.9498 322.924 19.0848 344.959 35.8447 350.497C51.0703 355.564 59.5683 331.761 59.5683 331.761C59.5683 331.761 77.2146 349.021 110.97 342.658" stroke="#212121" stroke-width="2.5" stroke-miterlimit="10" stroke-linecap="round" stroke-linejoin="round"/>
<path d="M269.928 484.37C269.928 484.37 227.758 478.229 204.388 503.917C166.501 545.512 204.388 601.955 166.973 610.203C143.014 615.388 138.293 578.742 109.494 560.477C88.9573 547.516 64.0535 554.114 51.1885 573.91C51.1885 573.91 104.222 652.299 173.937 645.082C225.161 639.78 226.611 602.837 282.674 602.837" stroke="#212121" stroke-width="2.5" stroke-miterlimit="10" stroke-linecap="round" stroke-linejoin="round"/>
<path d="M630.467 105.755C534.275 21.3858 430.175 35.7616 335.045 9.24887C308.842 1.94315 267.179 -5.12691 252.779 26.3348" stroke="#212121" stroke-width="2.5" stroke-miterlimit="10" stroke-linecap="round" stroke-linejoin="round"/>
<path d="M417.31 603.133C568.503 598.774 630.467 525.127 630.467 525.127" stroke="#212121" stroke-width="2.5" stroke-miterlimit="10" stroke-linecap="round" stroke-linejoin="round"/>
<path d="M262.441 69.1985L262.439 69.1978C247.83 62.964 236.635 59.5907 228.421 59.1033C224.327 58.8603 221.053 59.34 218.489 60.4751C215.95 61.599 214.039 63.3947 212.691 65.9257L212.689 65.9283C210.273 70.4381 211.111 76.3333 214.898 82.8886C218.667 89.4132 225.228 96.3338 233.697 102.631C279.496 136.586 343.144 177.151 413.09 206.751C482.704 236.211 558.442 254.761 628.995 245.239L629.673 190.727C629.308 190.742 628.871 190.759 628.364 190.777C626.649 190.838 624.139 190.91 620.954 190.954C614.583 191.043 605.509 191.021 594.683 190.578C573.039 189.692 544.359 187.124 516.279 180.381C475.12 170.507 424.909 148.329 378.406 125.837C360.115 116.99 342.408 108.101 326.037 99.8824C300.713 87.1692 278.587 76.0609 262.441 69.1985Z" fill="#FFD4E8" stroke="#212121" stroke-width="2.5" stroke-linecap="round" stroke-linejoin="round"/>
<path d="M630.939 189.417C630.939 189.417 572.516 192.599 516.571 179.166C434.542 159.487 316.16 90.6723 262.93 68.0481C233.659 55.5577 217.489 54.2615 211.588 65.3379C206.158 75.4717 215.837 90.908 232.951 103.634C324.658 171.624 487.89 266.127 630.231 246.331" fill="#EADDCF"/>
<path d="M630.939 189.417C630.939 189.417 572.516 192.599 516.571 179.166C434.542 159.487 316.16 90.6723 262.93 68.0481C233.659 55.5577 217.489 54.2615 211.588 65.3379C206.158 75.4717 215.837 90.908 232.951 103.634C324.658 171.624 487.89 266.127 630.231 246.331" stroke="#212121" stroke-width="2.5" stroke-miterlimit="10" stroke-linecap="round" stroke-linejoin="round"/>
</svg>
