<svg width="301" height="345" viewBox="0 0 301 345" fill="none" xmlns="http://www.w3.org/2000/svg">
<path d="M121.329 12.2C121.329 12.2 109.129 12.3419 109.129 24.4C109.2 12.2 97 12.2 97 12.2C97 12.2 109.2 12.8384 109.2 0C109.2 12.8384 121.329 12.2 121.329 12.2Z" fill="#212121"/>
<path d="M300.3 71.2C300.3 71.2 283.1 71.4 283.1 88.4C283.2 71.2 266 71.2 266 71.2C266 71.2 283.2 72.1 283.2 54C283.2 72.1 300.3 71.2 300.3 71.2Z" fill="#212121"/>
<path d="M24.3291 332.2C24.3291 332.2 12.1291 332.342 12.1291 344.4C12.2 332.2 0 332.2 0 332.2C0 332.2 12.2 332.838 12.2 320C12.2 332.838 24.3291 332.2 24.3291 332.2Z" fill="#212121"/>
<path d="M103 278C108.523 278 113 273.523 113 268C113 262.477 108.523 258 103 258C97.4771 258 93 262.477 93 268C93 273.523 97.4771 278 103 278Z" fill="#212121"/>
<path d="M228.9 132.8C231.606 132.8 233.8 130.606 233.8 127.9C233.8 125.194 231.606 123 228.9 123C226.194 123 224 125.194 224 127.9C224 130.606 226.194 132.8 228.9 132.8Z" fill="#212121"/>
</svg>
