<svg width="1132" height="593" viewBox="0 0 1132 593" fill="none" xmlns="http://www.w3.org/2000/svg">
<path d="M1131.17 104.76C1131.17 104.76 1100.21 105.12 1100.21 135.72C1100.39 104.76 1069.43 104.76 1069.43 104.76C1069.43 104.76 1100.39 106.38 1100.39 73.8C1100.39 106.38 1131.17 104.76 1131.17 104.76Z" fill="#212121"/>
<path d="M378.772 561.96C378.772 561.96 347.812 562.32 347.812 592.92C347.992 561.96 317.032 561.96 317.032 561.96C317.032 561.96 347.992 563.58 347.992 531C347.992 563.58 378.772 561.96 378.772 561.96Z" fill="#212121"/>
<path d="M43.7923 34.74C43.7923 34.74 21.8323 34.9953 21.8323 56.7C21.96 34.74 0 34.74 0 34.74C0 34.74 21.96 35.8891 21.96 12.78C21.96 35.8891 43.7923 34.74 43.7923 34.74Z" fill="#212121"/>
<path d="M808.252 53.64C823.065 53.64 835.072 41.6323 835.072 26.82C835.072 12.0077 823.065 0 808.252 0C793.44 0 781.432 12.0077 781.432 26.82C781.432 41.6323 793.44 53.64 808.252 53.64Z" fill="#212121"/>
<path d="M239.452 345.24C244.324 345.24 248.272 341.291 248.272 336.42C248.272 331.549 244.324 327.6 239.452 327.6C234.581 327.6 230.632 331.549 230.632 336.42C230.632 341.291 234.581 345.24 239.452 345.24Z" fill="#212121"/>
</svg>
