<svg width="427" height="344" viewBox="0 0 427 344" fill="none" xmlns="http://www.w3.org/2000/svg">
<path d="M416.8 139.6C422.212 139.6 426.6 135.212 426.6 129.8C426.6 124.388 422.212 120 416.8 120C411.388 120 407 124.388 407 129.8C407 135.212 411.388 139.6 416.8 139.6Z" fill="#212121"/>
<path d="M29.8001 343.6C46.2582 343.6 59.6002 330.258 59.6002 313.8C59.6002 297.342 46.2582 284 29.8001 284C13.342 284 0 297.342 0 313.8C0 330.258 13.342 343.6 29.8001 343.6Z" fill="#212121"/>
<path d="M200.658 24.4C200.658 24.4 176.258 24.6837 176.258 48.8C176.4 24.4 152 24.4 152 24.4C152 24.4 176.4 25.6767 176.4 0C176.4 25.6767 200.658 24.4 200.658 24.4Z" fill="#212121"/>
</svg>
