<svg width="104" height="104" viewBox="0 0 104 104" fill="none" xmlns="http://www.w3.org/2000/svg">
<circle cx="52" cy="52" r="52" fill="#FF592C"/>
<g mask="url(#mask0)">
<path d="M36.8159 76.0901C34.4494 82.1309 23.2398 92.9668 23.2398 92.9668C22.6171 92.8422 33.2039 108.536 33.3284 123.669" stroke="#232323" stroke-width="1.5" stroke-miterlimit="10"/>
<path d="M3.25 96.6403C3.25 96.6403 4.49552 93.7756 8.79253 91.6583C13.0895 89.5409 29.9662 85.1194 33.8895 80.9469" stroke="#232323" stroke-width="1.5" stroke-miterlimit="10"/>
<path d="M69.8197 123.419L70.3179 86.6146C70.3179 85.4174 65.0868 78.7056 65.0868 64.32H38.1215C38.1215 78.7056 32.8904 84.7537 32.8904 86.6146L33.3886 123.419" fill="white"/>
<path d="M69.8197 123.419L70.3179 86.6146C70.3179 85.4174 65.0868 78.7056 65.0868 64.32H38.1215C38.1215 78.7056 32.8904 84.7537 32.8904 86.6146L33.3886 123.419" stroke="#232323" stroke-width="1.5" stroke-miterlimit="10"/>
<path d="M66.3345 76.0901C68.7009 82.1309 79.9106 92.9668 79.9106 92.9668C80.5333 92.8422 69.9465 108.536 69.8219 123.669" stroke="#232323" stroke-width="1.5" stroke-miterlimit="10"/>
<path d="M98.0317 96.6403C98.0317 96.6403 97.409 93.7756 93.1742 91.6583C88.8772 89.5409 73.2461 85.1194 69.3228 80.9469" stroke="#232323" stroke-width="1.5" stroke-miterlimit="10"/>
<path d="M70.3191 87.1751C65.6485 91.7212 59.0473 94.5236 51.6988 94.5236C44.288 94.5236 37.5622 91.6589 32.9539 86.9883" stroke="#232323" stroke-width="1.5" stroke-miterlimit="10"/>
<path d="M36.6935 38.6002L33.8289 37.9774C32.4588 37.666 31.2133 38.8493 31.4624 40.2816L32.8947 48.6888C33.2061 50.557 34.9498 51.8025 36.8181 51.4912H36.8804" fill="white"/>
<path d="M36.6935 38.6002L33.8289 37.9774C32.4588 37.666 31.2133 38.8493 31.4624 40.2816L32.8947 48.6888C33.2061 50.557 34.9498 51.8025 36.8181 51.4912H36.8804" stroke="#232323" stroke-width="1.5" stroke-miterlimit="10"/>
<path d="M66.4612 38.6002L69.3259 37.9774C70.696 37.666 71.9415 38.8493 71.6924 40.2816L70.2601 48.6888C69.9487 50.557 68.2049 51.8025 66.3367 51.4912H66.2744" fill="white"/>
<path d="M66.4612 38.6002L69.3259 37.9774C70.696 37.666 71.9415 38.8493 71.6924 40.2816L70.2601 48.6888C69.9487 50.557 68.2049 51.8025 66.3367 51.4912H66.2744" stroke="#232323" stroke-width="1.5" stroke-miterlimit="10"/>
<path d="M70.3191 90.3505C65.6485 94.8966 59.0473 97.699 51.6988 97.699C44.288 97.699 37.5622 94.8344 32.9539 90.1637" stroke="#232323" stroke-width="1.5" stroke-miterlimit="10"/>
<path d="M70.3191 90.2259C65.6485 94.772 59.0473 97.5744 51.6988 97.5744C44.288 97.5744 37.5622 94.7098 32.9539 90.0391L33.4521 123.73L69.5718 123.606L70.3191 90.2259Z" fill="#232323"/>
<path d="M66.6456 77.8962L50.7654 73.1633C50.7654 73.1633 60.169 74.222 64.7774 65.0052C65.0265 64.6938 65.0265 64.5693 65.0887 65.6279C65.151 66.6243 65.0265 71.2327 66.6456 77.8962Z" fill="#232323"/>
<path d="M51.5769 73.1007C43.4811 73.1007 36.8799 66.4995 36.8799 59.9605V27.5773C36.8799 17.8623 43.4811 11.3234 51.5769 11.3234C59.6727 11.3234 66.2739 17.9246 66.2739 27.5773V59.9605C66.2739 66.4995 59.735 73.1007 51.5769 73.1007Z" fill="white" stroke="#232323" stroke-width="1.5" stroke-miterlimit="10"/>
<path d="M47.2188 56.4108C47.2188 56.4108 49.087 58.5905 52.8235 58.2791" stroke="#232323" stroke-width="1.5" stroke-miterlimit="10"/>
<path d="M51.4541 53.6712L54.7547 53.9203L53.0732 40.967" stroke="#232323" stroke-width="1.5" stroke-miterlimit="10"/>
<path d="M40.4949 39.5968C40.4949 39.5968 43.5464 37.8531 46.6602 37.9154" stroke="#232323" stroke-width="1.5" stroke-miterlimit="10"/>
<path d="M57.3701 39.223C57.3701 39.223 61.4803 38.9116 63.3485 39.5966" stroke="#232323" stroke-width="1.5" stroke-miterlimit="10"/>
<path d="M60.3577 47.025C60.8736 47.025 61.2918 45.9337 61.2918 44.5875C61.2918 43.2413 60.8736 42.15 60.3577 42.15C59.8418 42.15 59.4236 43.2413 59.4236 44.5875C59.4236 45.9337 59.8418 47.025 60.3577 47.025Z" fill="#232323"/>
<path d="M43.5459 47.025C44.0619 47.025 44.4801 45.9337 44.4801 44.5875C44.4801 43.2413 44.0619 42.15 43.5459 42.15C43.03 42.15 42.6118 43.2413 42.6118 44.5875C42.6118 45.9337 43.03 47.025 43.5459 47.025Z" fill="#232323"/>
<path d="M34.3901 26.2697C34.3901 26.4565 35.8224 32.9955 44.9769 29.3835C54.1314 25.7715 59.238 20.6026 61.4176 18.9212C63.5973 17.2398 64.7805 15.3715 65.0918 15.3092C65.4032 15.2469 64.22 12.0709 64.22 12.0709C64.22 12.0709 66.2751 5.34515 60.1098 3.60143C53.9445 1.85772 47.2188 6.90204 43.0464 12.1332C38.8739 17.4889 33.8296 17.5511 34.3901 26.2697Z" fill="#232323"/>
<path d="M50.21 18.0497C50.21 18.0497 54.8184 17.7383 59.6758 18.5479C64.5333 19.3574 65.592 19.9802 65.9034 24.2149C66.2148 28.4497 66.2148 38.5383 66.2148 38.5383L68.2698 38.0401L70.574 15.8078C70.8854 12.8808 68.3321 10.3898 65.4051 10.8257C64.6578 10.9503 63.9106 11.1371 63.1632 11.4485" fill="#232323"/>
<path d="M32.0204 23.9037C32.5186 26.021 33.0791 28.2007 33.515 29.4462L34.7605 38.1647L36.8156 38.663C36.8156 38.663 36.8156 33.6809 36.8778 30.0689C36.8156 30.0689 36.691 30.0067 36.6288 30.0067C37.9365 28.3875 40.1162 27.3911 40.9257 27.2043C41.9844 26.9552 44.6 12.9432 44.8491 12.5073C44.6 12.6318 40.5521 14.0019 36.8156 15.2474C33.2036 16.4929 31.1485 20.2294 32.0204 23.9037Z" fill="#232323"/>
</g>
</svg>
