<svg width="104" height="104" viewBox="0 0 104 104" fill="none" xmlns="http://www.w3.org/2000/svg">
<circle cx="52" cy="52" r="52" fill="#5835FF"/>
<g mask="url(#mask0)">
<path d="M9.8103 116.479L13.0486 104.833C14.2318 100.536 17.5324 97.0487 21.8294 95.6787L37.7719 90.4475C41.0102 89.3888 43.1899 86.3996 43.1899 82.9745V71.0176H63.6162V82.9745C63.6162 86.3373 65.7959 89.3888 69.0342 90.4475L84.9767 95.6787C89.2738 97.111 92.5743 100.536 93.7576 104.833L96.9959 116.479" fill="white"/>
<path d="M9.8103 116.479L13.0486 104.833C14.2318 100.536 17.5324 97.0487 21.8294 95.6787L37.7719 90.4475C41.0102 89.3888 43.1899 86.3996 43.1899 82.9745V71.0176H63.6162V82.9745C63.6162 86.3373 65.7959 89.3888 69.0342 90.4475L84.9767 95.6787C89.2738 97.111 92.5743 100.536 93.7576 104.833L96.9959 116.479" stroke="#222221" stroke-width="1.5" stroke-miterlimit="10"/>
<path d="M76.3847 92.7512C67.5416 101.47 67.4802 111.932 54.091 111.932C40.3904 111.932 40.1404 101.843 31.235 92.7512C31.235 92.7512 15.6662 94.6194 13.5497 103.463C11.9305 107.012 9.99993 116.665 9.75083 116.727C9.43945 116.852 96.6251 116.727 96.6251 116.727L92.8886 102.964C91.6422 96.1763 76.3847 92.7512 76.3847 92.7512Z" fill="#222221"/>
<path d="M51.9111 97.7331C51.9111 97.7331 54.4022 100.286 56.8932 97.7331" stroke="#222221" stroke-width="1.5" stroke-miterlimit="10"/>
<path d="M88.4043 97.8576C79.5612 106.576 67.4798 111.932 54.0906 111.932C40.39 111.932 28.0594 106.327 19.1541 97.2348" stroke="#222221" stroke-width="1.5" stroke-miterlimit="10"/>
<path d="M48.9849 73.7573L63.3706 79.4243V71.8267C63.3706 71.8267 64.0556 70.083 62.4987 71.4531C61.0663 72.8231 56.8316 75.1896 48.9849 73.7573Z" fill="#222221"/>
<path d="M55.4586 69.8967C68.1155 69.8967 78.376 59.1344 78.376 45.8584C78.376 32.5824 68.1155 21.8201 55.4586 21.8201C42.8017 21.8201 32.5413 32.5824 32.5413 45.8584C32.5413 59.1344 42.8017 69.8967 55.4586 69.8967Z" fill="#222221"/>
<path d="M70.7803 46.6685L72.9599 46.2326C74.0186 45.9835 74.9528 46.9176 74.7659 47.9763L73.645 54.4529C73.3959 55.8853 72.0881 56.8194 70.6558 56.6326" fill="white"/>
<path d="M70.7803 46.6685L72.9599 46.2326C74.0186 45.9835 74.9528 46.9176 74.7659 47.9763L73.645 54.4529C73.3959 55.8853 72.0881 56.8194 70.6558 56.6326" stroke="#222221" stroke-width="1.5" stroke-miterlimit="10"/>
<path d="M48.4201 59.6832C62.4528 59.6832 73.8285 47.7778 73.8285 33.0916C73.8285 18.4055 62.4528 6.5 48.4201 6.5C34.3875 6.5 23.0117 18.4055 23.0117 33.0916C23.0117 47.7778 34.3875 59.6832 48.4201 59.6832Z" fill="#222221"/>
<path d="M35.8431 46.6685L33.6635 46.2326C32.6048 45.9835 31.6706 46.9176 31.8575 47.9763L32.9784 54.4529C33.2276 55.8853 34.5354 56.8194 35.9677 56.6326" fill="white"/>
<path d="M35.8431 46.6685L33.6635 46.2326C32.6048 45.9835 31.6706 46.9176 31.8575 47.9763L32.9784 54.4529C33.2276 55.8853 34.5354 56.8194 35.9677 56.6326" stroke="#222221" stroke-width="1.5" stroke-miterlimit="10"/>
<path d="M53.4046 74.0687C43.9388 74.0687 36.2166 66.3465 36.2166 56.8807V32.9669C36.2166 27.8603 40.3267 23.6879 45.4956 23.6879H60.2549C65.9843 23.6879 70.5926 28.3585 70.5926 34.0256V56.8184C70.5926 66.4088 62.8705 74.0687 53.4046 74.0687Z" fill="white" stroke="#222221" stroke-width="1.5" stroke-miterlimit="10"/>
<path d="M43.6273 54.9683C44.1776 54.9683 44.6236 53.877 44.6236 52.5308C44.6236 51.1846 44.1776 50.0933 43.6273 50.0933C43.077 50.0933 42.6309 51.1846 42.6309 52.5308C42.6309 53.877 43.077 54.9683 43.6273 54.9683Z" fill="#222221"/>
<path d="M63.305 54.9683C63.8553 54.9683 64.3015 53.877 64.3015 52.5308C64.3015 51.1846 63.8553 50.0933 63.305 50.0933C62.7547 50.0933 62.3086 51.1846 62.3086 52.5308C62.3086 53.877 62.7547 54.9683 63.305 54.9683Z" fill="#222221"/>
<path d="M35.6548 32.4689L39.329 29.7288C43.5014 26.5527 49.2931 27.1132 52.8428 31.0366C57.1398 35.7072 62.9314 41.8725 67.4775 46.73C71.65 51.1515 78.3757 51.2138 82.6728 46.9168C86.0356 43.5539 87.032 38.2605 85.1014 33.7767L81.5518 25.4941C77.8775 16.8378 69.9685 11.1084 61.0631 10.548L59.1949 10.4234C53.7146 10.112 48.2967 11.4821 43.5015 14.3468" fill="#222221"/>
<path d="M50.9749 59.3719L52.2826 59.9324C53.279 60.3683 54.4 60.306 55.3341 59.621L56.7664 58.6246" stroke="#222221" stroke-width="1.5" stroke-miterlimit="10"/>
<path d="M55.7086 62.8599C55.7086 62.8599 52.7193 64.6659 48.5469 62.1126" stroke="#222221" stroke-width="1.5" stroke-miterlimit="10"/>
<path d="M39.4539 47.2285C39.4539 47.2285 43.1904 44.3016 46.9269 47.2285" stroke="#222221" stroke-width="1.5" stroke-miterlimit="10"/>
<path d="M66.7919 47.2285C66.7919 47.2285 63.0554 44.3016 59.3188 47.2285" stroke="#222221" stroke-width="1.5" stroke-miterlimit="10"/>
</g>
</svg>
