<svg width="267" height="454" viewBox="0 0 267 454" fill="none" xmlns="http://www.w3.org/2000/svg">
<path d="M89.0708 441.04C90.1864 441.04 91.0908 440.136 91.0908 439.02C91.0908 437.904 90.1864 437 89.0708 437C87.9552 437 87.0508 437.904 87.0508 439.02C87.0508 440.136 87.9552 441.04 89.0708 441.04Z" fill="white"/>
<path d="M157.9 195.39C159.016 195.39 159.92 194.486 159.92 193.37C159.92 192.254 159.016 191.35 157.9 191.35C156.785 191.35 155.88 192.254 155.88 193.37C155.88 194.486 156.785 195.39 157.9 195.39Z" fill="white"/>
<path d="M197.88 81.6098C198.996 81.6098 199.9 80.7054 199.9 79.5898C199.9 78.4742 198.996 77.5698 197.88 77.5698C196.765 77.5698 195.86 78.4742 195.86 79.5898C195.86 80.7054 196.765 81.6098 197.88 81.6098Z" fill="white"/>
<path d="M136.5 261.56C137.616 261.56 138.52 260.656 138.52 259.54C138.52 258.424 137.616 257.52 136.5 257.52C135.385 257.52 134.48 258.424 134.48 259.54C134.48 260.656 135.385 261.56 136.5 261.56Z" fill="white"/>
<path d="M230.261 25.3901C231.376 25.3901 232.281 24.4857 232.281 23.3701C232.281 22.2545 231.376 21.3501 230.261 21.3501C229.145 21.3501 228.241 22.2545 228.241 23.3701C228.241 24.4857 229.145 25.3901 230.261 25.3901Z" fill="white"/>
<path d="M20.1306 21.5401C21.909 21.5401 23.3506 20.0985 23.3506 18.3201C23.3506 16.5417 21.909 15.1001 20.1306 15.1001C18.3523 15.1001 16.9106 16.5417 16.9106 18.3201C16.9106 20.0985 18.3523 21.5401 20.1306 21.5401Z" stroke="white" stroke-miterlimit="10"/>
<path d="M255.591 220.57C257.369 220.57 258.811 219.128 258.811 217.35C258.811 215.572 257.369 214.13 255.591 214.13C253.812 214.13 252.371 215.572 252.371 217.35C252.371 219.128 253.812 220.57 255.591 220.57Z" stroke="white" stroke-miterlimit="10"/>
<path d="M142.08 401.06C143.859 401.06 145.3 399.618 145.3 397.84C145.3 396.062 143.859 394.62 142.08 394.62C140.302 394.62 138.86 396.062 138.86 397.84C138.86 399.618 140.302 401.06 142.08 401.06Z" stroke="white" stroke-miterlimit="10"/>
<path d="M149.151 12.8501V13.1601C144.771 13.1601 142.221 15.8101 142.221 20.1601H141.781C141.781 15.7801 139.161 13.1601 134.831 13.1601V12.8501C139.161 12.8501 141.781 10.2001 141.781 5.8501H142.221C142.221 10.2001 144.771 12.8501 149.151 12.8501Z" fill="white"/>
<path d="M15.0006 280.21V280.52C10.6306 280.52 8.07063 283.17 8.07063 287.52H7.64062C7.64062 283.15 5.02063 280.52 0.640625 280.52V280.21C4.98063 280.21 7.64062 277.55 7.64062 273.21H8.00063C8.00063 277.55 10.6006 280.21 15.0006 280.21Z" fill="white"/>
<path d="M181.741 113.29L177.261 120.1C172.401 127.46 157.851 126.43 144.751 117.79C131.651 109.15 124.961 96.19 129.811 88.79L134.301 82" stroke="white" stroke-miterlimit="10"/>
<path d="M181.736 113.284C186.59 105.92 179.904 92.9503 166.804 84.3153C153.703 75.6803 139.148 74.6501 134.294 82.0143C129.44 89.3785 136.126 102.348 149.226 110.983C162.327 119.618 176.882 120.649 181.736 113.284Z" stroke="white" stroke-miterlimit="10"/>
<path d="M132.76 88.0801L128.23 94.9301" stroke="white" stroke-miterlimit="10"/>
<path d="M133.311 91.99L128.851 98.75" stroke="white" stroke-miterlimit="10"/>
<path d="M134.65 95.46L130.25 102.14" stroke="white" stroke-miterlimit="10"/>
<path d="M136.51 98.79L132.11 105.46" stroke="white" stroke-miterlimit="10"/>
<path d="M138.66 101.69L134.25 108.36" stroke="white" stroke-miterlimit="10"/>
<path d="M140.94 104.21L136.53 110.88" stroke="white" stroke-miterlimit="10"/>
<path d="M143.251 106.49L138.851 113.16" stroke="white" stroke-miterlimit="10"/>
<path d="M146.261 108.99L141.851 115.66" stroke="white" stroke-miterlimit="10"/>
<path d="M149.151 111.08L144.741 117.75" stroke="white" stroke-miterlimit="10"/>
<path d="M152.71 113.24L148.3 119.92" stroke="white" stroke-miterlimit="10"/>
<path d="M155.991 114.81L151.581 121.49" stroke="white" stroke-miterlimit="10"/>
<path d="M159.41 116.29L155.01 122.96" stroke="white" stroke-miterlimit="10"/>
<path d="M163.031 117.34L158.621 124.01" stroke="white" stroke-miterlimit="10"/>
<path d="M166.73 118.03L162.32 124.7" stroke="white" stroke-miterlimit="10"/>
<path d="M170.201 118.31L165.791 124.99" stroke="white" stroke-miterlimit="10"/>
<path d="M174.021 117.98L169.621 124.65" stroke="white" stroke-miterlimit="10"/>
<path d="M177.08 117.07L172.67 123.74" stroke="white" stroke-miterlimit="10"/>
<path d="M113.113 130.362L1.22119 161.708L32.5673 273.6L144.46 242.254L113.113 130.362Z" fill="white" stroke="#1F1F1F" stroke-miterlimit="10"/>
<path d="M113.101 130.35L1.10059 161.72L9.84059 149.38L121.741 118.04L113.101 130.35Z" fill="white" stroke="#1F1F1F" stroke-linejoin="bevel"/>
<path d="M153.201 229.81L144.461 242.26L113.121 130.37L121.861 117.92L153.201 229.81Z" fill="white" stroke="#1F1F1F" stroke-linejoin="bevel"/>
<path d="M223.131 208.24L136.101 150.02L238.821 90.6401L223.131 208.24Z" fill="white" stroke="#1F1F1F" stroke-miterlimit="10"/>
<path d="M238.82 90.6399L249.03 87.9399L233.56 202.82L223.13 208.24L238.82 90.6399Z" fill="white" stroke="#1F1F1F" stroke-miterlimit="10"/>
<path d="M176.77 332.51L250.8 373.17L172.44 428.13L176.77 332.51Z" fill="white" stroke="#1F1F1F" stroke-miterlimit="10"/>
<path d="M172.441 428.13L164.431 431.01L168.771 337.6L176.771 332.51L172.441 428.13Z" fill="white" stroke="#1F1F1F" stroke-miterlimit="10"/>
<path d="M133.981 293.35L71.8407 270.48L20.9707 312.85L32.2307 378.1L94.3607 400.97L145.241 358.6L133.981 293.35Z" stroke="white" stroke-miterlimit="10"/>
<path d="M150.32 285.84L88.1003 262.93L71.7803 270.47L134 293.37L150.32 285.84Z" stroke="white" stroke-linejoin="bevel"/>
<path d="M134 293.37L150.32 285.84L161.46 352.12L145.24 358.6" stroke="white" stroke-linejoin="bevel"/>
<path d="M94.3604 400.97L108.26 396.89L161.46 352.12" stroke="white" stroke-linejoin="bevel"/>
<path d="M62.7103 413.31L15.5703 421.69" stroke="white" stroke-miterlimit="10"/>
<path d="M87.9805 415.33L5.23047 452.61" stroke="white" stroke-miterlimit="10"/>
<path d="M159.021 67.05L221.54 1.05005" stroke="white" stroke-miterlimit="10"/>
<path d="M159.311 46.2301L184.931 1.05005" stroke="white" stroke-miterlimit="10"/>
<path d="M182.69 66.4799L224.88 49.1399" stroke="white" stroke-miterlimit="10"/>
<path d="M32.8203 194.3L45.3803 190.87C50.3803 189.51 54.1403 191.37 55.5503 196.54C56.5503 200.09 55.4703 202.54 53.4303 204.1C56.4303 204.15 59.2503 205.59 60.4903 210.1C61.9303 215.4 59.6403 219.1 54.6003 220.48L41.0003 224.2L32.8203 194.3ZM48.4203 204.22C51.5803 203.36 52.7903 201.06 51.9403 197.94C51.0903 194.82 48.8803 193.45 45.6303 194.34L37.4303 196.57L40.1303 206.48L48.4203 204.22ZM53.0603 217.37C56.3503 216.48 57.6003 214.16 56.7103 210.91C55.8203 207.66 53.5503 206.22 50.2603 207.12L41.0003 209.65L43.8003 219.9L53.0603 217.37Z" stroke="black"/>
<path d="M67.8003 188.29L58.7003 190.77L57.8003 187.49L79.6803 181.49L80.5803 184.78L71.5203 187.25L78.7703 213.87L75.0603 214.87L67.8003 188.29Z" stroke="black"/>
<path d="M89.1707 200.19L86.5407 190.53C84.6807 183.74 87.8307 178.61 95.0507 176.65C100.821 175.07 106.821 176.88 108.721 183.84L108.831 184.27L105.121 185.27L105.001 184.85C103.731 180.19 99.4007 179.12 95.9407 180.06C90.9407 181.44 88.9407 184.81 90.1807 189.25L93.0007 199.43C94.2107 203.87 97.5907 205.8 102.631 204.43C106.091 203.43 109.281 200.37 108.011 195.71L107.891 195.28L111.611 194.28L111.721 194.71C113.621 201.71 109.371 206.27 103.601 207.84C96.3307 209.8 91.0007 207 89.1707 200.19Z" stroke="black"/>
<path d="M183.86 372.44L193.14 370.79L193.43 372.43L186 373.75L186.88 378.69L193.31 377.55L193.6 379.19L187.17 380.33L188.06 385.33L195.51 384.01L195.81 385.65L186.5 387.3L183.86 372.44Z" fill="#1F1F1F"/>
<path d="M199.63 371.33L195.09 372.14L194.8 370.5L205.7 368.56L205.99 370.2L201.48 371L203.83 384.27L201.98 384.59L199.63 371.33Z" fill="#1F1F1F"/>
<path d="M208.181 368.12L210.031 367.8L211.201 374.4L218.461 373.11L217.291 366.51L219.141 366.18L221.791 381.08L219.931 381.41L218.751 374.75L211.491 376L212.671 382.67L210.821 383L208.181 368.12Z" fill="#1F1F1F"/>
<path d="M182.27 131.83L192.83 139.21L191.53 141.08L183.08 135.17L179.15 140.79L186.47 145.9L185.16 147.76L177.85 142.65L173.85 148.39L182.33 154.32L181 156.18L170.42 148.79L182.27 131.83Z" fill="#1F1F1F"/>
<path d="M198.58 146L193.42 142.4L194.72 140.53L207.12 149.19L205.82 151.06L200.69 147.47L190.15 162.56L188 161.09L198.58 146Z" fill="#1F1F1F"/>
<path d="M209.93 151.16L212.04 152.63L206.8 160.14L215.05 165.91L220.3 158.4L222.41 159.87L210.56 176.82L208.46 175.35L213.75 167.77L205.49 162L200.2 169.58L198.09 168.11L209.93 151.16Z" fill="#1F1F1F"/>
<path d="M151.54 87.83C152.275 86.9589 153.103 86.1709 154.01 85.48L147.01 80.21C145.993 80.8414 145.053 81.5898 144.21 82.44C139.82 86.92 143.91 94.65 152.07 101.33L149.23 105.17L157 110.27L159.49 106.38C167.55 110.85 174.49 111.38 176.85 106.49C177.314 105.532 177.673 104.526 177.92 103.49L172.32 99.27C171.994 100.275 171.572 101.246 171.06 102.17C169.06 105.7 165.17 106.1 160.83 104.24L166.04 96.1L159.5 91.21L153.59 99.21C150 95.51 148.69 91.19 151.54 87.83Z" fill="white"/>
<path d="M43.6573 355.701L59.3672 352.959L58.8818 350.178L46.2996 352.374L44.8056 343.814L55.6623 341.919L55.177 339.138L44.3203 341.033L42.8579 332.653L55.4042 330.464L54.9188 327.682L39.2449 330.418L43.6573 355.701Z" fill="white"/>
<path d="M73.4454 351.06C76.6449 350.502 78.7547 348.794 79.9205 346.134L81.3316 349.126L83.0931 348.818L80.8428 335.924L71.9634 337.474L72.4298 340.146L78.1817 339.143L78.8499 342.971C78.0158 345.834 76.0328 347.631 73.1209 348.139C69.0586 348.848 66.2214 346.813 65.5659 343.056L64.1035 334.677C63.4479 330.921 65.5735 328.242 69.6718 327.527C73.1229 326.925 76.2736 328.422 76.9336 331.991L76.9714 332.208L80.099 331.662L80.0612 331.445C79.023 325.709 74.0925 323.778 69.2394 324.625C63.128 325.691 60.0114 329.697 61.0137 335.44L62.4383 343.602C63.4216 349.237 67.6576 352.07 73.4454 351.06Z" fill="white"/>
<path d="M89.4365 347.711L105.434 344.919L104.949 342.138L92.0787 344.384L88.1517 321.883L85.0241 322.428L89.4365 347.711Z" fill="white"/>
<path d="M112.23 340.868L108.788 321.147L114.432 320.162C118.603 319.434 121.397 321.44 122.015 324.98L123.377 332.781C123.994 336.321 122.044 339.155 117.874 339.883L112.23 340.868ZM109.588 344.194L118.359 342.664C124.255 341.635 127.475 337.798 126.492 332.163L125.155 324.506C124.172 318.872 119.843 316.352 113.947 317.381L105.175 318.912L109.588 344.194Z" fill="white"/>
<path d="M120.43 33.9399L129.37 48.4999C139.04 64.2599 124.15 90.9799 96.1101 108.2C68.0701 125.42 37.5001 126.59 27.8301 110.83L18.8901 96.2699" stroke="white" stroke-miterlimit="10"/>
<path d="M87.1675 93.6372C115.207 76.4276 130.097 49.7013 120.424 33.9423C110.752 18.1833 80.1806 19.3592 52.1411 36.5688C24.1016 53.7784 9.21201 80.5047 18.8843 96.2637C28.5565 112.023 59.128 110.847 87.1675 93.6372Z" stroke="white" stroke-miterlimit="10"/>
<path d="M29.0298 104.57L38.0298 119.26" stroke="white" stroke-miterlimit="10"/>
<path d="M36.9502 106.99L45.8202 121.48" stroke="white" stroke-miterlimit="10"/>
<path d="M44.73 107.53L53.49 121.83" stroke="white" stroke-miterlimit="10"/>
<path d="M52.71 106.96L61.47 121.25" stroke="white" stroke-miterlimit="10"/>
<path d="M60.1099 105.46L68.8699 119.76" stroke="white" stroke-miterlimit="10"/>
<path d="M66.9199 103.37L75.6899 117.67" stroke="white" stroke-miterlimit="10"/>
<path d="M73.3101 100.99L82.0801 115.29" stroke="white" stroke-miterlimit="10"/>
<path d="M80.7402 97.5L89.5002 111.8" stroke="white" stroke-miterlimit="10"/>
<path d="M87.2798 93.87L96.0398 108.17" stroke="white" stroke-miterlimit="10"/>
<path d="M94.54 89.03L103.3 103.33" stroke="white" stroke-miterlimit="10"/>
<path d="M100.44 84.2L109.2 98.49" stroke="white" stroke-miterlimit="10"/>
<path d="M106.29 79L115.05 93.3" stroke="white" stroke-miterlimit="10"/>
<path d="M111.49 73.0801L120.25 87.3701" stroke="white" stroke-miterlimit="10"/>
<path d="M116.08 66.6599L124.84 80.9599" stroke="white" stroke-miterlimit="10"/>
<path d="M119.7 60.3201L128.46 74.6201" stroke="white" stroke-miterlimit="10"/>
<path d="M122.47 52.76L131.24 67.06" stroke="white" stroke-miterlimit="10"/>
<path d="M123.46 46.1401L132.22 60.4401" stroke="white" stroke-miterlimit="10"/>
<path d="M74.7 71.38C82.76 75.72 95.52 71.97 103.01 64.64C109.74 58.06 111.53 49.2 101.61 43.95L80.09 32.77L70.94 40L79.41 44.45L53.93 65.58L44.84 60.66L33.28 69.8L42.65 74.94L32 83.75L38.63 87.43L49.07 78.49L64.87 87.16L75.5 77.28L60.2 69L64.07 65.67L74.7 71.38ZM85.24 47.52L95.6 53C101.37 56 98.69 59.81 96.7 61.69C95.3218 62.9926 93.5779 63.8421 91.7027 64.1245C89.8275 64.407 87.9108 64.1088 86.21 63.27L74.3 56.89L85.24 47.52Z" fill="white"/>
<path d="M235.48 326L219.77 332.74C202.77 340.02 178.49 321.41 165.53 291.17C152.57 260.93 155.84 230.51 172.84 223.23L188.54 216.5" stroke="white" stroke-miterlimit="10"/>
<path d="M235.483 325.965C252.478 318.681 255.749 288.263 242.788 258.023C229.828 227.784 205.544 209.175 188.549 216.46C171.553 223.744 168.282 254.163 181.243 284.402C194.204 314.641 218.488 333.25 235.483 325.965Z" stroke="white" stroke-miterlimit="10"/>
<path d="M178.86 225.29L163.02 232.06" stroke="white" stroke-miterlimit="10"/>
<path d="M175.31 232.77L159.69 239.45" stroke="white" stroke-miterlimit="10"/>
<path d="M173.65 240.4L158.23 246.99" stroke="white" stroke-miterlimit="10"/>
<path d="M173.06 248.37L157.64 254.96" stroke="white" stroke-miterlimit="10"/>
<path d="M173.47 255.92L158.05 262.51" stroke="white" stroke-miterlimit="10"/>
<path d="M174.55 262.96L159.13 269.55" stroke="white" stroke-miterlimit="10"/>
<path d="M175.97 269.63L160.55 276.22" stroke="white" stroke-miterlimit="10"/>
<path d="M178.35 277.48L162.93 284.07" stroke="white" stroke-miterlimit="10"/>
<path d="M180.99 284.48L165.57 291.07" stroke="white" stroke-miterlimit="10"/>
<path d="M184.73 292.37L169.31 298.96" stroke="white" stroke-miterlimit="10"/>
<path d="M188.65 298.9L173.23 305.49" stroke="white" stroke-miterlimit="10"/>
<path d="M192.94 305.44L177.52 312.03" stroke="white" stroke-miterlimit="10"/>
<path d="M198.05 311.45L182.63 318.04" stroke="white" stroke-miterlimit="10"/>
<path d="M203.73 316.92L188.31 323.51" stroke="white" stroke-miterlimit="10"/>
<path d="M209.48 321.43L194.06 328.02" stroke="white" stroke-miterlimit="10"/>
<path d="M216.56 325.27L201.14 331.86" stroke="white" stroke-miterlimit="10"/>
<path d="M222.96 327.2L207.54 333.79" stroke="white" stroke-miterlimit="10"/>
<path d="M207.74 247.34C209.916 246.425 212.186 245.754 214.51 245.34L206.58 229C204.106 229.198 201.665 229.695 199.31 230.48C186.98 234.62 187.25 252.73 196.02 272.76L187.16 277.19L196.7 293.92L204.97 289.09C215.65 304.93 227.97 312.4 236.97 305.63C238.701 304.32 240.293 302.836 241.72 301.2L235.36 288.13C233.81 289.682 232.112 291.078 230.29 292.3C223.29 296.96 215.73 294.01 209.45 286.48L226.74 276.36L219.26 261.17L200.81 270.39C197.61 260.06 199.31 250.86 207.74 247.34Z" fill="white"/>
</svg>
