<svg width="323" height="318" viewBox="0 0 323 318" fill="none" xmlns="http://www.w3.org/2000/svg">
<rect width="322" height="318" fill="black"/>
<path d="M157.901 195.39C159.016 195.39 159.921 194.486 159.921 193.37C159.921 192.254 159.016 191.35 157.901 191.35C156.785 191.35 155.881 192.254 155.881 193.37C155.881 194.486 156.785 195.39 157.901 195.39Z" fill="white"/>
<path d="M197.88 81.6099C198.996 81.6099 199.9 80.7056 199.9 79.5899C199.9 78.4743 198.996 77.5699 197.88 77.5699C196.765 77.5699 195.86 78.4743 195.86 79.5899C195.86 80.7056 196.765 81.6099 197.88 81.6099Z" fill="white"/>
<path d="M230.26 25.3901C231.376 25.3901 232.28 24.4857 232.28 23.3701C232.28 22.2545 231.376 21.3501 230.26 21.3501C229.145 21.3501 228.24 22.2545 228.24 23.3701C228.24 24.4857 229.145 25.3901 230.26 25.3901Z" fill="white"/>
<path d="M20.1302 21.5401C21.9085 21.5401 23.3502 20.0985 23.3502 18.3201C23.3502 16.5417 21.9085 15.1001 20.1302 15.1001C18.3518 15.1001 16.9102 16.5417 16.9102 18.3201C16.9102 20.0985 18.3518 21.5401 20.1302 21.5401Z" stroke="white" stroke-miterlimit="10"/>
<path d="M149.15 12.8501V13.1601C144.77 13.1601 142.22 15.8101 142.22 20.1601H141.78C141.78 15.7801 139.16 13.1601 134.83 13.1601V12.8501C139.16 12.8501 141.78 10.2001 141.78 5.8501H142.22C142.22 10.2001 144.77 12.8501 149.15 12.8501Z" fill="white"/>
<path d="M15.0006 280.21V280.52C10.6306 280.52 8.07063 283.17 8.07063 287.52H7.64062C7.64062 283.15 5.02063 280.52 0.640625 280.52V280.21C4.98063 280.21 7.64062 277.55 7.64062 273.21H8.00063C8.00063 277.55 10.6006 280.21 15.0006 280.21Z" fill="white"/>
<path d="M181.741 113.29L177.261 120.1C172.401 127.46 157.851 126.43 144.751 117.79C131.651 109.15 124.961 96.19 129.811 88.79L134.301 82" stroke="white" stroke-miterlimit="10"/>
<path d="M181.736 113.284C186.59 105.92 179.905 92.9503 166.804 84.3153C153.704 75.6803 139.149 74.6501 134.295 82.0143C129.441 89.3785 136.126 102.348 149.227 110.983C162.327 119.618 176.882 120.649 181.736 113.284Z" stroke="white" stroke-miterlimit="10"/>
<path d="M132.76 88.08L128.23 94.93" stroke="white" stroke-miterlimit="10"/>
<path d="M133.311 91.99L128.851 98.75" stroke="white" stroke-miterlimit="10"/>
<path d="M134.65 95.46L130.25 102.14" stroke="white" stroke-miterlimit="10"/>
<path d="M136.51 98.79L132.11 105.46" stroke="white" stroke-miterlimit="10"/>
<path d="M138.66 101.69L134.25 108.36" stroke="white" stroke-miterlimit="10"/>
<path d="M140.94 104.21L136.53 110.88" stroke="white" stroke-miterlimit="10"/>
<path d="M143.251 106.49L138.851 113.16" stroke="white" stroke-miterlimit="10"/>
<path d="M146.261 108.99L141.851 115.66" stroke="white" stroke-miterlimit="10"/>
<path d="M149.15 111.08L144.74 117.75" stroke="white" stroke-miterlimit="10"/>
<path d="M152.711 113.24L148.301 119.92" stroke="white" stroke-miterlimit="10"/>
<path d="M155.99 114.81L151.58 121.49" stroke="white" stroke-miterlimit="10"/>
<path d="M159.41 116.29L155.01 122.96" stroke="white" stroke-miterlimit="10"/>
<path d="M163.031 117.34L158.621 124.01" stroke="white" stroke-miterlimit="10"/>
<path d="M166.73 118.03L162.32 124.7" stroke="white" stroke-miterlimit="10"/>
<path d="M170.201 118.31L165.791 124.99" stroke="white" stroke-miterlimit="10"/>
<path d="M174.021 117.98L169.621 124.65" stroke="white" stroke-miterlimit="10"/>
<path d="M177.08 117.07L172.67 123.74" stroke="white" stroke-miterlimit="10"/>
<path d="M113.113 130.362L1.2207 161.708L32.5668 273.6L144.459 242.254L113.113 130.362Z" fill="white" stroke="#1F1F1F" stroke-miterlimit="10"/>
<path d="M113.101 130.35L1.10059 161.72L9.84059 149.38L121.741 118.04L113.101 130.35Z" fill="white" stroke="#1F1F1F" stroke-linejoin="bevel"/>
<path d="M153.201 229.81L144.461 242.26L113.121 130.37L121.861 117.92L153.201 229.81Z" fill="white" stroke="#1F1F1F" stroke-linejoin="bevel"/>
<path d="M159.021 67.05L221.54 1.05005" stroke="white" stroke-miterlimit="10"/>
<path d="M159.311 46.2301L184.931 1.05005" stroke="white" stroke-miterlimit="10"/>
<path d="M182.69 66.4799L224.88 49.1399" stroke="white" stroke-miterlimit="10"/>
<path d="M32.8203 194.3L45.3803 190.87C50.3803 189.51 54.1403 191.37 55.5503 196.54C56.5503 200.09 55.4703 202.54 53.4303 204.1C56.4303 204.15 59.2503 205.59 60.4903 210.1C61.9303 215.4 59.6403 219.1 54.6003 220.48L41.0003 224.2L32.8203 194.3ZM48.4203 204.22C51.5803 203.36 52.7903 201.06 51.9403 197.94C51.0903 194.82 48.8803 193.45 45.6303 194.34L37.4303 196.57L40.1303 206.48L48.4203 204.22ZM53.0603 217.37C56.3503 216.48 57.6003 214.16 56.7103 210.91C55.8203 207.66 53.5503 206.22 50.2603 207.12L41.0003 209.65L43.8003 219.9L53.0603 217.37Z" stroke="black"/>
<path d="M67.8008 188.29L58.7008 190.77L57.8008 187.49L79.6808 181.49L80.5808 184.78L71.5208 187.25L78.7708 213.87L75.0608 214.87L67.8008 188.29Z" stroke="black"/>
<path d="M89.1707 200.19L86.5407 190.53C84.6807 183.74 87.8307 178.61 95.0507 176.65C100.821 175.07 106.821 176.88 108.721 183.84L108.831 184.27L105.121 185.27L105.001 184.85C103.731 180.19 99.4007 179.12 95.9407 180.06C90.9407 181.44 88.9407 184.81 90.1807 189.25L93.0007 199.43C94.2107 203.87 97.5907 205.8 102.631 204.43C106.091 203.43 109.281 200.37 108.011 195.71L107.891 195.28L111.611 194.28L111.721 194.71C113.621 201.71 109.371 206.27 103.601 207.84C96.3307 209.8 91.0007 207 89.1707 200.19Z" stroke="black"/>
<path d="M285.01 167.42L222.87 144.55L172 186.92L183.26 252.17L245.39 275.04L296.27 232.67L285.01 167.42Z" stroke="white" stroke-miterlimit="10"/>
<path d="M301.35 159.91L239.13 137L222.81 144.54L285.03 167.44L301.35 159.91Z" stroke="white" stroke-linejoin="bevel"/>
<path d="M285.029 167.44L301.349 159.91L312.489 226.19L296.269 232.67" stroke="white" stroke-linejoin="bevel"/>
<path d="M245.39 275.04L259.29 270.96L312.49 226.19" stroke="white" stroke-linejoin="bevel"/>
<path d="M296.03 144.3L209 86.0801L311.72 26.7001L296.03 144.3Z" fill="white" stroke="#1F1F1F" stroke-miterlimit="10"/>
<path d="M311.72 26.7L321.93 24L306.46 138.88L296.03 144.3L311.72 26.7Z" fill="white" stroke="#1F1F1F" stroke-miterlimit="10"/>
<path d="M255.169 67.89L265.729 75.27L264.429 77.14L255.979 71.23L252.049 76.85L259.369 81.96L258.059 83.82L250.749 78.71L246.749 84.45L255.229 90.38L253.899 92.24L243.319 84.85L255.169 67.89Z" fill="#1F1F1F"/>
<path d="M271.479 82.0601L266.319 78.4601L267.619 76.5901L280.019 85.2501L278.719 87.1201L273.589 83.5301L263.049 98.6201L260.899 97.1501L271.479 82.0601Z" fill="#1F1F1F"/>
<path d="M282.829 87.2201L284.939 88.6901L279.699 96.2001L287.949 101.97L293.199 94.4601L295.309 95.9301L283.459 112.88L281.359 111.41L286.649 103.83L278.389 98.0601L273.099 105.64L270.989 104.17L282.829 87.2201Z" fill="#1F1F1F"/>
<path d="M120.431 33.9401L129.371 48.5001C139.041 64.2601 124.151 90.9801 96.1106 108.2C68.0706 125.42 37.5006 126.59 27.8306 110.83L18.8906 96.2701" stroke="white" stroke-miterlimit="10"/>
<path d="M87.1675 93.6373C115.207 76.4277 130.097 49.7014 120.424 33.9424C110.752 18.1834 80.1806 19.3593 52.1411 36.5689C24.1016 53.7785 9.21201 80.5048 18.8843 96.2638C28.5565 112.023 59.128 110.847 87.1675 93.6373Z" stroke="white" stroke-miterlimit="10"/>
<path d="M29.0293 104.57L38.0293 119.26" stroke="white" stroke-miterlimit="10"/>
<path d="M36.9502 106.99L45.8202 121.48" stroke="white" stroke-miterlimit="10"/>
<path d="M44.7305 107.53L53.4905 121.83" stroke="white" stroke-miterlimit="10"/>
<path d="M52.71 106.96L61.47 121.25" stroke="white" stroke-miterlimit="10"/>
<path d="M60.1094 105.46L68.8694 119.76" stroke="white" stroke-miterlimit="10"/>
<path d="M66.9199 103.37L75.6899 117.67" stroke="white" stroke-miterlimit="10"/>
<path d="M73.3105 100.99L82.0806 115.29" stroke="white" stroke-miterlimit="10"/>
<path d="M80.7402 97.5L89.5002 111.8" stroke="white" stroke-miterlimit="10"/>
<path d="M87.2793 93.87L96.0393 108.17" stroke="white" stroke-miterlimit="10"/>
<path d="M94.54 89.03L103.3 103.33" stroke="white" stroke-miterlimit="10"/>
<path d="M100.439 84.2L109.199 98.49" stroke="white" stroke-miterlimit="10"/>
<path d="M106.29 79L115.05 93.3" stroke="white" stroke-miterlimit="10"/>
<path d="M111.49 73.0801L120.25 87.3701" stroke="white" stroke-miterlimit="10"/>
<path d="M116.08 66.66L124.84 80.96" stroke="white" stroke-miterlimit="10"/>
<path d="M119.7 60.3201L128.46 74.6201" stroke="white" stroke-miterlimit="10"/>
<path d="M122.471 52.76L131.241 67.06" stroke="white" stroke-miterlimit="10"/>
<path d="M123.46 46.14L132.22 60.44" stroke="white" stroke-miterlimit="10"/>
<path d="M74.7 71.38C82.76 75.72 95.52 71.97 103.01 64.64C109.74 58.06 111.53 49.2 101.61 43.95L80.09 32.77L70.94 40L79.41 44.45L53.93 65.58L44.84 60.66L33.28 69.8L42.65 74.94L32 83.75L38.63 87.43L49.07 78.49L64.87 87.16L75.5 77.28L60.2 69L64.07 65.67L74.7 71.38ZM85.24 47.52L95.6 53C101.37 56 98.69 59.81 96.7 61.69C95.3218 62.9926 93.5779 63.8421 91.7027 64.1245C89.8275 64.407 87.9108 64.1088 86.21 63.27L74.3 56.89L85.24 47.52Z" fill="white"/>
<path d="M151.54 87.83C152.275 86.9589 153.103 86.1709 154.01 85.48L147.01 80.21C145.993 80.8414 145.053 81.5898 144.21 82.44C139.82 86.92 143.91 94.65 152.07 101.33L149.23 105.17L157 110.27L159.49 106.38C167.55 110.85 174.49 111.38 176.85 106.49C177.314 105.532 177.673 104.526 177.92 103.49L172.32 99.27C171.994 100.275 171.572 101.246 171.06 102.17C169.06 105.7 165.17 106.1 160.83 104.24L166.04 96.1L159.5 91.21L153.59 99.21C150 95.51 148.69 91.19 151.54 87.83Z" fill="white"/>
<path d="M176.629 283.918C177.737 283.794 178.535 282.794 178.41 281.685C178.286 280.577 177.286 279.779 176.177 279.904C175.069 280.028 174.271 281.028 174.396 282.137C174.52 283.245 175.52 284.043 176.629 283.918Z" fill="white"/>
<path d="M147.335 259.308L101.427 272.904" stroke="white" stroke-miterlimit="10"/>
<path d="M172.672 258.492L94.6069 304.786" stroke="white" stroke-miterlimit="10"/>
<path d="M193.506 228.545L209.33 225.784L208.841 222.983L196.168 225.194L194.663 216.573L205.598 214.664L205.109 211.863L194.174 213.771L192.701 205.332L205.338 203.126L204.849 200.325L189.062 203.08L193.506 228.545Z" fill="white"/>
<path d="M223.509 223.872C226.732 223.309 228.857 221.589 230.031 218.91L231.453 221.923L233.227 221.613L230.96 208.626L222.017 210.187L222.486 212.879L228.28 211.868L228.953 215.724C228.113 218.607 226.115 220.418 223.183 220.93C219.091 221.644 216.233 219.593 215.573 215.81L214.1 207.37C213.44 203.587 215.581 200.889 219.708 200.168C223.185 199.562 226.358 201.07 227.023 204.665L227.061 204.883L230.211 204.333L230.173 204.115C229.127 198.337 224.161 196.392 219.273 197.245C213.117 198.32 209.978 202.354 210.988 208.138L212.423 216.36C213.413 222.035 217.68 224.889 223.509 223.872Z" fill="white"/>
<path d="M239.616 220.498L255.729 217.686L255.24 214.885L242.277 217.147L238.322 194.483L235.172 195.033L239.616 220.498Z" fill="white"/>
<path d="M262.574 213.605L259.107 193.742L264.792 192.75C268.992 192.017 271.808 194.037 272.43 197.603L273.801 205.46C274.423 209.026 272.459 211.88 268.259 212.613L262.574 213.605ZM259.913 216.956L268.748 215.414C274.686 214.378 277.929 210.513 276.939 204.838L275.593 197.126C274.602 191.45 270.242 188.913 264.303 189.949L255.468 191.491L259.913 216.956Z" fill="white"/>
</svg>
