<svg width="1024" height="132" viewBox="0 0 1024 132" fill="none" xmlns="http://www.w3.org/2000/svg">
<mask id="mask0" mask-type="alpha" maskUnits="userSpaceOnUse" x="0" y="0" width="1024" height="132">
<rect width="1024" height="132" fill="#C4C4C4"/>
</mask>
<g mask="url(#mask0)">
<path d="M41.6966 -983.555C-25.1992 -994.416 -70.6411 -904.814 -85 -858.656V-834.219V-33.2393C-85 42.7859 16.3573 118.811 135.452 105.235C254.547 91.6593 335.633 91.6593 462.329 118.811C589.026 145.963 713.189 91.6593 814.546 31.9252C915.903 -27.809 943.776 45.5011 1057.8 91.6593C1171.83 137.818 1283.32 107.95 1384.68 -76.6823C1486.04 -261.315 1399.88 -817.928 1354.27 -926.536C1308.66 -1035.14 1151.56 -956.403 1017.26 -959.118C882.962 -961.833 794.274 -921.105 692.917 -983.555C591.56 -1046 436.99 -983.555 295.09 -942.827C153.19 -902.099 125.316 -969.979 41.6966 -983.555Z" fill="black"/>
<path fill-rule="evenodd" clip-rule="evenodd" d="M921 63.4216L920.998 64.5881C904.507 64.5881 894.871 74.581 894.871 91L893.224 90.9993C893.224 74.5047 883.347 64.5881 867.001 64.5881L867 63.4216C883.347 63.4216 893.228 53.419 893.228 37H894.871C894.871 53.419 904.507 63.4216 921 63.4216Z" fill="black"/>
<circle cx="819" cy="91" r="8" fill="black"/>
</g>
</svg>
