<svg width="300" height="213" viewBox="0 0 300 213" fill="none" xmlns="http://www.w3.org/2000/svg">
<path d="M71.8964 128.243C75.0615 128.171 78.252 125.738 80.0359 123.086C83.626 117.736 79.7488 111.15 82.073 103.843C85.2808 93.6345 93.6081 87.3958 93.6081 87.3958" stroke="white" stroke-width="0.889213" stroke-miterlimit="10"/>
<path d="M154.912 44.2044L110.123 86.164C108.728 87.4697 107.066 88.4556 105.252 89.0532C103.437 89.6508 101.514 89.8457 99.6167 89.6242C97.7193 89.4028 95.893 88.7704 94.2649 87.771C92.6368 86.7717 91.2462 85.4294 90.1898 83.8377V83.8377C89.1419 82.2604 88.4472 80.4752 88.1533 78.6044C87.8594 76.7336 87.9733 74.8214 88.4871 72.9987C89.001 71.176 89.9027 69.4859 91.1305 68.0441C92.3582 66.6023 93.8831 65.4428 95.6006 64.6452L151.231 38.7872C151.943 38.4802 152.74 38.4308 153.484 38.6475C154.228 38.8643 154.874 39.3337 155.31 39.9749C155.745 40.6162 155.944 41.3892 155.872 42.1612C155.799 42.9331 155.46 43.6556 154.912 44.2044V44.2044Z" stroke="white" stroke-width="0.889213" stroke-miterlimit="10"/>
<path d="M26.527 115.476C32.2371 111.686 40.1798 115.109 45.0674 111.855C49.955 108.602 46.8259 97.4737 57.1226 90.6381C67.4192 83.8026 89.291 82.6041 89.291 82.6041L90.5189 84.4485C90.5189 84.4485 79.4217 90.3267 76.6084 97.387C73.0668 106.208 76.4588 113.941 70.7398 117.733C62.9923 122.878 56.1931 118.278 49.8269 122.482C48.5789 123.304 47.5747 124.447 46.9194 125.79" stroke="white" stroke-width="0.889213" stroke-miterlimit="10"/>
<path d="M106.214 73.9248L99.0322 63.1084" stroke="white" stroke-width="0.889213" stroke-miterlimit="10"/>
<path d="M105.912 88.3945L100.898 80.9824" stroke="white" stroke-width="0.889213" stroke-miterlimit="10"/>
<path d="M134.698 63.146L131.839 59.4436" stroke="white" stroke-width="0.889213" stroke-miterlimit="10"/>
<path d="M139.623 44.0103L142.029 47.9183" stroke="white" stroke-width="0.889213" stroke-miterlimit="10"/>
<path d="M19.2947 166.327L19.3148 166.531C16.607 166.799 15.185 168.592 15.452 171.291L15.1865 171.317C15.1831 170.731 15.051 170.153 14.7997 169.624C14.5483 169.095 14.1837 168.627 13.7318 168.254C13.2798 167.881 12.7515 167.612 12.1841 167.466C11.6167 167.32 11.0241 167.3 10.4482 167.408L10.4289 167.213C11.0143 167.204 11.5907 167.068 12.1177 166.813C12.6446 166.558 13.1094 166.19 13.4792 165.736C13.849 165.283 14.115 164.753 14.2584 164.186C14.4019 163.618 14.4193 163.026 14.3094 162.451L14.5749 162.425C14.841 165.115 16.5869 166.595 19.2947 166.327Z" stroke="white" stroke-width="0.889213" stroke-miterlimit="10"/>
<path d="M93.4402 11.948L93.4603 12.1515C90.7525 12.4194 89.3305 14.2131 89.5975 16.912L89.332 16.9383C89.3286 16.3523 89.1965 15.7743 88.9452 15.245C88.6938 14.7157 88.3293 14.2481 87.8773 13.8752C87.4253 13.5022 86.897 13.2331 86.3296 13.0868C85.7622 12.9405 85.1696 12.9207 84.5937 13.0286L84.5744 12.8339C85.1598 12.8253 85.7362 12.6887 86.2632 12.4336C86.7902 12.1785 87.2549 11.8111 87.6247 11.3573C87.9945 10.9034 88.2605 10.3741 88.4039 9.80648C88.5474 9.23886 88.5648 8.64671 88.4549 8.07165L88.7204 8.04539C88.9865 10.7355 90.7324 12.2158 93.4402 11.948Z" stroke="white" stroke-width="0.889213" stroke-miterlimit="10"/>
<path d="M185.029 4.83433L185.049 5.03787C182.341 5.30571 180.919 7.09944 181.186 9.79837L180.921 9.82463C180.917 9.23869 180.785 8.66066 180.534 8.13136C180.283 7.60207 179.918 7.13444 179.466 6.76152C179.014 6.3886 178.486 6.11946 177.918 5.97318C177.351 5.82689 176.758 5.80702 176.183 5.91493L176.163 5.72025C176.749 5.7117 177.325 5.57507 177.852 5.31997C178.379 5.06487 178.844 4.6975 179.214 4.24364C179.583 3.78978 179.849 3.26045 179.993 2.69283C180.136 2.12521 180.154 1.53307 180.044 0.958001L180.309 0.931741C180.575 3.62182 182.321 5.10218 185.029 4.83433Z" stroke="white" stroke-width="0.889213" stroke-miterlimit="10"/>
<path d="M270.753 100.03L270.775 100.251C268.058 100.52 266.646 102.322 266.912 105.012L266.638 105.039C266.37 102.331 264.589 100.863 261.899 101.129L261.88 100.935C264.535 100.672 266.028 98.8714 265.761 96.1725L266.035 96.1453C266.299 98.8177 268.036 100.299 270.753 100.03Z" fill="white"/>
<path d="M134.004 109.876L134.058 110.424C126.333 111.188 122.291 116.306 123.054 124.023L122.284 124.099C121.52 116.374 116.431 112.168 108.786 112.924L108.731 112.376C116.377 111.619 120.542 106.48 119.779 98.773L120.549 98.6969C121.312 106.404 126.279 110.64 134.004 109.876Z" fill="white"/>
<path d="M239.545 76.7584L239.589 77.1993C233.368 77.8147 230.112 81.9283 230.725 88.1293L230.105 88.1907C229.491 81.9825 225.394 78.6035 219.236 79.2125L219.193 78.7716C225.35 78.1626 228.705 74.032 228.092 67.8381L228.712 67.7768C229.325 73.9707 233.324 77.3738 239.545 76.7584Z" fill="white"/>
<path d="M259.202 192.378C260.238 192.275 260.995 191.352 260.893 190.316C260.79 189.28 259.867 188.523 258.831 188.626C257.795 188.728 257.038 189.651 257.141 190.688C257.243 191.724 258.166 192.48 259.202 192.378Z" fill="white"/>
<path d="M17.8285 77.5641C18.8696 77.5641 19.7136 76.7201 19.7136 75.6789C19.7136 74.6378 18.8696 73.7938 17.8285 73.7938C16.7874 73.7938 15.9434 74.6378 15.9434 75.6789C15.9434 76.7201 16.7874 77.5641 17.8285 77.5641Z" fill="white"/>
<path d="M140.645 88.8457C141.681 88.7432 142.437 87.8202 142.335 86.7841C142.232 85.7481 141.31 84.9912 140.273 85.0937C139.237 85.1962 138.481 86.1192 138.583 87.1553C138.686 88.1914 139.608 88.9482 140.645 88.8457Z" fill="white"/>
<path d="M153.554 134.436C154.59 134.333 155.347 133.41 155.244 132.374C155.142 131.338 154.219 130.581 153.183 130.684C152.147 130.786 151.39 131.709 151.492 132.745C151.595 133.781 152.518 134.538 153.554 134.436Z" fill="white"/>
<path d="M215.329 17.1791C216.365 17.0766 217.122 16.1536 217.02 15.1175C216.917 14.0815 215.994 13.3246 214.958 13.4271C213.922 13.5296 213.165 14.4526 213.268 15.4887C213.37 16.5247 214.293 17.2815 215.329 17.1791Z" fill="white"/>
<path d="M285.19 40.4056C284.789 36.5695 280.51 27.0898 274.892 26.9709C269.878 26.8518 268.716 29.4254 264.294 28.8766C258.567 28.1764 254.48 21.6845 248.698 22.3003C241.559 23.0586 239.204 29.5498 232.7 33.573C223.586 39.2183 213.203 38.5007 213.203 38.5007" fill="black"/>
<path d="M285.19 40.4056C284.789 36.5695 280.51 27.0898 274.892 26.9709C269.878 26.8518 268.716 29.4254 264.294 28.8766C258.567 28.1764 254.48 21.6845 248.698 22.3003C241.559 23.0586 239.204 29.5498 232.7 33.573C223.586 39.2183 213.203 38.5007 213.203 38.5007" stroke="white" stroke-width="0.889213" stroke-miterlimit="10"/>
<path d="M138.583 31.123L199.904 28.6936C201.806 28.6222 203.701 28.9646 205.458 29.6971C207.215 30.4295 208.792 31.5347 210.08 32.9362C211.368 34.3377 212.337 36.0021 212.919 37.8144C213.501 39.6268 213.682 41.5439 213.451 43.4333C213.214 45.3126 212.573 47.1185 211.573 48.7271C210.573 50.3358 209.237 51.7093 207.657 52.7535C206.076 53.7976 204.289 54.4879 202.417 54.7768C200.545 55.0658 198.632 54.9467 196.811 54.4276L137.81 37.6678C137.043 37.4545 136.378 36.974 135.934 36.3131C135.491 35.6522 135.299 34.8546 135.392 34.0642C135.485 33.2739 135.858 32.543 136.443 32.0036C137.029 31.4642 137.787 31.1518 138.583 31.123Z" fill="black" stroke="white" stroke-width="0.889213" stroke-miterlimit="10"/>
<path d="M213.618 42.7467C213.618 42.7467 225.893 45.5362 232.624 42.0552C241.074 37.6982 243.574 29.6292 250.369 30.4872C259.596 31.6548 261.769 39.5544 269.327 40.5326C276.364 41.42 277.682 34.9342 284.719 35.8216C291.271 36.6503 294.667 42.9868 293.768 50.0399C292.667 58.7778 287.05 62.2659 281.709 61.584C274.906 60.7299 271.765 52.4345 265.94 51.6939C260.115 50.9533 255.209 61.4449 242.946 59.8884C230.684 58.3318 213.342 44.9441 213.342 44.9441L213.618 42.7467Z" fill="black" stroke="white" stroke-width="0.889213" stroke-miterlimit="10"/>
<path d="M194.878 40.4533L193.246 53.3277" stroke="white" stroke-width="0.889213" stroke-miterlimit="10"/>
<path d="M204.557 29.6938L203.507 38.5752" stroke="white" stroke-width="0.889213" stroke-miterlimit="10"/>
<path d="M166.263 29.9971L166.015 34.6682" stroke="white" stroke-width="0.889213" stroke-miterlimit="10"/>
<path d="M123.496 43.8861L124.22 39.3571" stroke="white" stroke-width="0.889213" stroke-miterlimit="10"/>
<path d="M289.414 160.403C291.372 157.073 293.556 146.902 289.114 143.455C285.118 140.365 282.691 141.758 279.457 138.691C275.275 134.718 275.841 127.066 270.823 124.132C264.629 120.5 258.885 124.312 251.264 123.689C240.589 122.815 232.64 116.069 232.64 116.069" fill="black"/>
<path d="M289.414 160.403C291.372 157.073 293.556 146.902 289.114 143.455C285.118 140.365 282.691 141.758 279.457 138.691C275.275 134.718 275.841 127.066 270.823 124.132C264.629 120.5 258.885 124.312 251.264 123.689C240.589 122.815 232.64 116.069 232.64 116.069" stroke="white" stroke-width="0.889213" stroke-miterlimit="10"/>
<path d="M177.021 65.804L227.787 100.259C229.367 101.333 230.694 102.737 231.677 104.375C232.659 106.014 233.272 107.846 233.475 109.745C233.677 111.645 233.463 113.565 232.848 115.374C232.233 117.182 231.232 118.835 229.913 120.217C228.605 121.586 227.017 122.657 225.257 123.356C223.496 124.055 221.606 124.365 219.715 124.266C217.824 124.166 215.976 123.658 214.299 122.778C212.622 121.898 211.155 120.666 209.999 119.166L172.509 70.6019C172.024 69.9741 171.779 69.194 171.817 68.4017C171.855 67.6093 172.175 66.8566 172.718 66.2786C173.262 65.7007 173.993 65.3354 174.782 65.2484C175.57 65.1614 176.364 65.3584 177.021 65.804Z" fill="black" stroke="white" stroke-width="0.889213" stroke-miterlimit="10"/>
<path d="M230.464 119.742C230.464 119.742 238.645 129.271 246.155 130.485C255.535 131.997 262.385 126.995 267.32 131.725C274.041 138.146 271.061 145.786 276.596 151.064C281.728 155.971 286.641 151.527 291.772 156.425C296.557 160.992 295.518 168.1 290.603 173.241C284.523 179.615 277.937 179.069 274.04 175.353C269.104 170.623 271.485 162.087 267.233 158.031C262.98 153.975 252.818 159.456 243.882 150.958C234.946 142.46 228.928 121.369 228.928 121.369L230.464 119.742Z" fill="black" stroke="white" stroke-width="0.889213" stroke-miterlimit="10"/>
<path d="M216.751 106.757L207.78 116.151" stroke="white" stroke-width="0.889213" stroke-miterlimit="10"/>
<path d="M230.931 103.862L224.803 110.384" stroke="white" stroke-width="0.889213" stroke-miterlimit="10"/>
<path d="M199.959 81.3523L196.973 84.9538" stroke="white" stroke-width="0.889213" stroke-miterlimit="10"/>
<path d="M180.208 80.7685L183.482 77.5584" stroke="white" stroke-width="0.889213" stroke-miterlimit="10"/>
<path d="M18.2155 140.21C18.0437 142.522 18.7143 144.818 20.1035 146.675C21.4926 148.531 23.5065 149.822 25.7732 150.31C30.7182 151.34 32.2938 149.022 36.5465 150.37C42.0791 152.101 44.8754 159.232 50.6756 159.695C57.8782 160.243 61.33 154.308 68.4627 151.529C78.435 147.647 88.5296 150.241 88.5296 150.241" stroke="white" stroke-width="0.889213" stroke-miterlimit="10"/>
<path d="M160.549 171.103L99.8145 162.341C97.9254 162.065 96.119 161.381 94.521 160.337C92.9229 159.293 91.5716 157.913 90.561 156.293C89.5503 154.674 88.9047 152.853 88.6689 150.959C88.4331 149.064 88.6129 147.141 89.1957 145.323V145.323C89.7716 143.519 90.7305 141.861 92.0068 140.462C93.2832 139.063 94.8468 137.957 96.5906 137.218C98.3343 136.48 100.217 136.127 102.11 136.183C104.003 136.24 105.861 136.705 107.557 137.547L162.474 164.819C163.176 165.173 163.73 165.764 164.039 166.488C164.347 167.211 164.39 168.02 164.16 168.772C163.93 169.524 163.441 170.17 162.78 170.597C162.12 171.024 161.329 171.203 160.549 171.103V171.103Z" stroke="white" stroke-width="0.889213" stroke-miterlimit="10"/>
<path d="M88.8906 145.943C88.8906 145.943 77.3749 140.997 70.0862 143.192C60.984 145.933 57.051 153.417 50.527 151.328C41.6687 148.496 41.0121 140.323 33.723 137.997C26.9681 135.832 24.4841 141.975 17.73 139.82C11.4325 137.762 9.25872 130.963 11.4205 124.181C14.1042 115.811 20.265 113.415 25.3933 115.034C31.9174 117.123 33.5219 125.846 39.0606 127.64C39.2446 127.693 39.4188 127.738 39.6011 127.774C45.068 128.841 51.7664 120.137 63.1623 123.781C74.927 127.541 89.544 143.877 89.544 143.877L88.8906 145.943Z" stroke="white" stroke-width="0.889213" stroke-miterlimit="10"/>
<path d="M106.907 151.658L110.858 139.294" stroke="white" stroke-width="0.889213" stroke-miterlimit="10"/>
<path d="M95.4208 160.47L98.0782 151.924" stroke="white" stroke-width="0.889213" stroke-miterlimit="10"/>
<path d="M133.129 167.159L134.226 162.618" stroke="white" stroke-width="0.889213" stroke-miterlimit="10"/>
<path d="M151.136 159.051L149.597 163.367" stroke="white" stroke-width="0.889213" stroke-miterlimit="10"/>
<path d="M238.647 181.589C240.34 180.005 241.403 177.862 241.639 175.556C241.876 173.25 241.27 170.936 239.934 169.041C236.99 164.936 234.229 165.566 232.059 161.698C229.187 156.692 231.928 149.531 227.968 145.268C223.079 140.015 216.478 142.026 209.357 139.236C199.384 135.335 192.161 126.998 192.161 126.998" stroke="white" stroke-width="0.889213" stroke-miterlimit="10"/>
<path d="M154.852 62.4658L193.593 110.04C194.798 111.522 195.667 113.248 196.137 115.1C196.608 116.951 196.669 118.883 196.318 120.761C195.966 122.638 195.209 124.417 194.1 125.972C192.992 127.528 191.557 128.823 189.897 129.769C188.251 130.704 186.422 131.274 184.535 131.437C182.649 131.601 180.749 131.355 178.966 130.717C177.183 130.079 175.559 129.064 174.205 127.74C172.851 126.416 171.799 124.816 171.12 123.048L149.146 65.7644C148.858 65.0226 148.845 64.2023 149.109 63.4516C149.373 62.701 149.897 62.0695 150.586 61.6712C151.275 61.2729 152.083 61.1341 152.866 61.2798C153.648 61.4255 154.352 61.8462 154.852 62.4658Z" fill="white"/>
<path d="M190.156 128.501C190.156 128.501 195.685 140.946 202.536 144.254C211.085 148.394 219.044 145.561 222.438 151.515C227.035 159.594 221.982 166.054 225.767 172.703C229.281 178.869 235.264 176.026 238.769 182.193C242.018 187.939 239.007 194.447 232.824 197.972C225.21 202.299 219.015 199.927 216.355 195.249C212.963 189.33 217.705 181.802 214.806 176.7C211.906 171.599 200.551 173.964 194.482 163.198C188.413 152.433 188.253 129.583 188.253 129.583L190.156 128.501Z" stroke="white" stroke-width="0.889213" stroke-miterlimit="10"/>
<path d="M181.153 113.093L169.105 120.111" stroke="#1F1F1F" stroke-width="0.889213" stroke-miterlimit="10"/>
<path d="M196.96 113.638L187.829 118.884" stroke="#1F1F1F" stroke-width="0.889213" stroke-miterlimit="10"/>
<path d="M173.001 83.4382L168.464 86.5319" stroke="#1F1F1F" stroke-width="0.889213" stroke-miterlimit="10"/>
<path d="M152.886 78.1812L157.668 75.5726" stroke="#1F1F1F" stroke-width="0.889213" stroke-miterlimit="10"/>
<path d="M179.832 179.588C179.391 177.311 178.143 175.269 176.317 173.839C174.491 172.409 172.21 171.687 169.894 171.805C164.858 172.116 163.932 174.763 159.49 174.577C153.721 174.334 149.119 168.195 143.409 169.278C136.393 170.616 134.535 177.304 128.378 181.818C119.768 188.183 108.622 189.134 108.622 189.134" stroke="white" stroke-width="0.889213" stroke-miterlimit="10"/>
<path d="M34.3788 187.078L95.2982 179.64C97.196 179.405 99.1221 179.587 100.942 180.173C102.763 180.759 104.433 181.735 105.837 183.033C107.242 184.331 108.346 185.92 109.074 187.688C109.801 189.456 110.135 191.362 110.05 193.273C109.96 195.161 109.464 197.009 108.595 198.688C107.727 200.368 106.506 201.84 105.017 203.005C103.527 204.17 101.804 205.001 99.9647 205.439C98.1254 205.878 96.2131 205.915 94.3582 205.547L34.2046 193.627C33.4541 193.452 32.7868 193.024 32.3156 192.414C31.8444 191.805 31.5983 191.051 31.6188 190.281C31.6393 189.511 31.9252 188.771 32.4281 188.188C32.931 187.604 33.6201 187.212 34.3788 187.078Z" fill="white"/>
<path d="M108.989 192.305C108.989 192.305 122.538 194.316 128.992 190.282C137.054 185.249 138.893 177.008 145.741 177.313C155.03 177.726 157.804 185.44 165.451 185.782C172.54 186.091 173.32 179.517 180.41 179.835C187.007 180.129 190.865 186.163 190.585 193.268C190.195 202.063 184.874 205.994 179.498 205.758C172.659 205.451 168.847 197.447 162.977 197.178C157.107 196.91 153.078 207.763 140.737 207.215C128.397 206.666 108.887 194.523 108.887 194.523L108.989 192.305Z" stroke="white" stroke-width="0.889213" stroke-miterlimit="10"/>
<path d="M91.2418 191.755L89.7564 205.645" stroke="#1F1F1F" stroke-width="0.889213" stroke-miterlimit="10"/>
<path d="M100.124 178.662L99.6908 189.186" stroke="#1F1F1F" stroke-width="0.889213" stroke-miterlimit="10"/>
<path d="M61.7947 182.855L61.3394 188.28" stroke="#1F1F1F" stroke-width="0.889213" stroke-miterlimit="10"/>
<path d="M46.9303 197.443L47.6521 191.823" stroke="#1F1F1F" stroke-width="0.889213" stroke-miterlimit="10"/>
<path d="M35.9108 64.3858L35.9301 64.5805C33.2223 64.8483 31.8003 66.642 32.0673 69.341L31.7929 69.3681C31.5251 66.6603 29.7447 65.1923 27.0546 65.4584L27.0353 65.2637C27.6207 65.2552 28.1972 65.1185 28.7241 64.8634C29.2511 64.6083 29.7158 64.241 30.0856 63.7871C30.4555 63.3332 30.7214 62.8039 30.8649 62.2363C31.0083 61.6687 31.0257 61.0765 30.9159 60.5015L31.1902 60.4743C31.4537 63.1379 33.2031 64.6536 35.9108 64.3858Z" fill="white"/>
<path d="M149.544 18.4935C150.58 18.391 151.337 17.468 151.234 16.432C151.132 15.3959 150.209 14.6391 149.173 14.7416C148.137 14.844 147.38 15.767 147.482 16.8031C147.585 17.8392 148.508 18.596 149.544 18.4935Z" fill="white"/>
<path d="M11.5269 42.5476C11.6221 44.8633 12.5508 47.0667 14.1419 48.7519C15.7331 50.4371 17.8795 51.4907 20.186 51.7186C25.2183 52.1652 26.5121 49.6725 30.8966 50.5343C36.5183 51.6425 40.1943 58.3882 46.0013 58.1708C53.1803 57.8954 55.9723 51.5901 62.7266 48.012C72.197 43.0126 83.6881 42.9976 83.6881 42.9976" stroke="white" stroke-width="0.889213" stroke-miterlimit="10"/>
<path d="M156.461 56.8914L95.136 55.153C93.2248 55.1003 91.3482 54.6312 89.637 53.7785C87.9258 52.9258 86.4212 51.71 85.2283 50.2159C84.0353 48.7219 83.1827 46.9856 82.7299 45.1281C82.2771 43.2706 82.235 41.3367 82.6066 39.4612C82.9712 37.6032 83.733 35.8458 84.8398 34.3094C85.9467 32.7731 87.3724 31.4941 89.0194 30.5599C90.6665 29.6258 92.496 29.0585 94.3826 28.8971C96.2692 28.7356 98.1684 28.9837 99.9503 29.6245L157.681 50.3909C158.439 50.6532 159.077 51.1787 159.479 51.8719C159.881 52.565 160.021 53.3797 159.873 54.1673C159.725 54.955 159.299 55.6634 158.673 56.1634C158.047 56.6634 157.262 56.9217 156.461 56.8914Z" fill="white"/>
<path d="M83.1245 40.3798C83.1245 40.3798 70.3751 36.5287 63.3853 39.553C54.6687 43.3229 51.6187 51.2019 44.8933 49.8863C35.7769 48.09 34.1846 40.0735 26.6745 38.5653C19.7129 37.1931 17.9572 43.5823 10.9869 42.2116C4.50483 40.9425 1.55954 34.3902 2.89207 27.4087C4.62185 18.7742 10.4776 15.6746 15.7534 16.7188C22.4804 18.0431 25.0512 26.5244 30.8137 27.6614C36.5761 28.7984 42.1849 18.6773 54.3078 21.0602C66.4307 23.4431 83.5542 38.2059 83.5542 38.2059L83.1245 40.3798Z" stroke="white" stroke-width="0.889213" stroke-miterlimit="10"/>
<path d="M100.945 43.7399L103.502 30.0313" stroke="#1F1F1F" stroke-width="0.889213" stroke-miterlimit="10"/>
<path d="M90.2023 55.3571L92.2013 45.0114" stroke="#1F1F1F" stroke-width="0.889213" stroke-miterlimit="10"/>
<path d="M128.726 56.93L129.341 51.4787" stroke="#1F1F1F" stroke-width="0.889213" stroke-miterlimit="10"/>
<path d="M145.729 45.6097L144.689 50.46" stroke="#1F1F1F" stroke-width="0.889213" stroke-miterlimit="10"/>
</svg>
