<svg width="1024" height="1136" viewBox="0 0 1024 1136" fill="none" xmlns="http://www.w3.org/2000/svg">
<path d="M94.8526 26.4452C30.5144 15.5844 -13.19 105.186 -27 151.344V175.781V976.761C-27 1052.79 70.4821 1128.81 185.023 1115.24C299.565 1101.66 377.551 1101.66 499.403 1128.81C621.256 1155.96 740.671 1101.66 838.153 1041.93C935.635 982.191 962.443 1055.5 1072.11 1101.66C1181.78 1147.82 1289.01 1117.95 1386.49 933.318C1483.97 748.685 1401.11 192.072 1357.25 83.4642C1313.38 -25.1433 1162.28 53.5971 1033.12 50.8819C903.954 48.1667 818.657 88.8945 721.175 26.4452C623.693 -36.0042 475.033 26.4452 338.558 67.173C202.083 107.901 175.275 40.0211 94.8526 26.4452Z" fill="black"/>
</svg>
