<svg width="267" height="349" viewBox="0 0 267 349" fill="none" xmlns="http://www.w3.org/2000/svg">
<path d="M156.552 261.231C156.298 257.68 153.39 254.23 150.313 252.371C144.107 248.632 136.922 253.349 128.587 251.139C116.943 248.096 109.479 239.085 109.479 239.085" stroke="white" stroke-miterlimit="10"/>
<path d="M57.6 172.594L107.189 220.601C108.732 222.096 109.931 223.909 110.702 225.914C111.473 227.919 111.797 230.069 111.652 232.212C111.508 234.356 110.898 236.442 109.864 238.325C108.831 240.209 107.4 241.844 105.67 243.118V243.118C103.956 244.382 101.989 245.26 99.9035 245.693C97.8182 246.126 95.6641 246.103 93.5885 245.626C91.513 245.149 89.5651 244.229 87.8782 242.929C86.1913 241.629 84.8053 239.979 83.815 238.094L51.7172 177.026C51.3332 176.243 51.234 175.351 51.4366 174.503C51.6392 173.655 52.131 172.904 52.8274 172.38C53.5238 171.855 54.3812 171.589 55.2522 171.629C56.1233 171.668 56.9534 172.009 57.6 172.594V172.594Z" stroke="white" stroke-miterlimit="10"/>
<path d="M144.702 312.892C140.131 306.686 143.54 297.577 139.617 292.265C135.694 286.954 123.367 291.079 115.123 279.889C106.88 268.698 104.334 244.196 104.334 244.196L106.338 242.716C106.338 242.716 113.55 254.858 121.635 257.631C131.738 261.125 140.238 256.89 144.81 263.106C151.014 271.526 146.221 279.416 151.293 286.336C152.285 287.693 153.623 288.758 155.168 289.42" stroke="white" stroke-miterlimit="10"/>
<path d="M93.6558 225.664L81.9004 234.324" stroke="white" stroke-miterlimit="10"/>
<path d="M109.925 225.209L101.875 231.247" stroke="white" stroke-miterlimit="10"/>
<path d="M79.9852 194.261L75.9834 197.676" stroke="white" stroke-miterlimit="10"/>
<path d="M58.2207 189.779L62.4784 186.862" stroke="white" stroke-miterlimit="10"/>
<path d="M257.204 268.719L257.431 268.685C257.881 271.712 259.973 273.21 262.99 272.762L263.034 273.059C262.376 273.095 261.734 273.275 261.154 273.587C260.573 273.898 260.068 274.333 259.674 274.861C259.279 275.389 259.006 275.998 258.873 276.643C258.74 277.288 258.75 277.955 258.903 278.596L258.685 278.628C258.643 277.971 258.458 277.331 258.143 276.753C257.827 276.176 257.389 275.674 256.859 275.283C256.329 274.893 255.72 274.623 255.075 274.493C254.429 274.363 253.763 274.376 253.123 274.531L253.079 274.234C256.086 273.788 257.653 271.745 257.204 268.719Z" stroke="white" stroke-miterlimit="10"/>
<path d="M24.7412 243.413L24.9687 243.379C25.4181 246.406 27.511 247.905 30.5279 247.457L30.572 247.754C29.914 247.79 29.272 247.97 28.6912 248.281C28.1105 248.593 27.6053 249.028 27.2112 249.556C26.8171 250.084 26.5438 250.692 26.4106 251.338C26.2774 251.983 26.2876 252.65 26.4404 253.291L26.2228 253.323C26.1811 252.666 25.996 252.026 25.6805 251.448C25.3651 250.87 24.9269 250.368 24.3968 249.978C23.8667 249.587 23.2576 249.318 22.6121 249.188C21.9667 249.058 21.3006 249.071 20.6607 249.226L20.6166 248.929C23.6236 248.482 25.1906 246.44 24.7412 243.413Z" stroke="white" stroke-miterlimit="10"/>
<path d="M11.7246 140.926L11.9521 140.893C12.4015 143.919 14.4944 145.418 17.5113 144.97L17.5554 145.267C16.8974 145.303 16.2554 145.483 15.6746 145.794C15.0939 146.106 14.5887 146.541 14.1946 147.069C13.8005 147.597 13.5272 148.205 13.394 148.851C13.2608 149.496 13.271 150.163 13.4238 150.804L13.2062 150.836C13.1645 150.179 12.9794 149.539 12.6639 148.961C12.3485 148.383 11.9103 147.881 11.3802 147.491C10.8501 147.1 10.241 146.831 9.59551 146.701C8.95006 146.571 8.28398 146.584 7.64406 146.739L7.6 146.442C10.607 145.995 12.174 143.953 11.7246 140.926Z" stroke="white" stroke-miterlimit="10"/>
<path d="M113.949 39.413L114.197 39.3763C114.648 42.413 116.749 43.9005 119.756 43.454L119.801 43.7606C116.775 44.2101 115.223 46.2905 115.67 49.2975L115.452 49.3298C115.012 46.3624 112.907 44.7844 109.89 45.2324L109.845 44.9257C112.832 44.4822 114.4 42.4497 113.949 39.413Z" fill="white"/>
<path d="M132.513 192.476L133.126 192.385C134.408 201.021 140.379 205.28 149.004 203.999L149.132 204.86C140.496 206.142 136.052 212.089 137.321 220.636L136.708 220.727C135.438 212.18 129.438 207.784 120.822 209.063L120.694 208.203C129.31 206.924 133.795 201.112 132.513 192.476Z" fill="white"/>
<path d="M89.5216 75.745L90.0144 75.6718C91.0471 82.626 95.8463 86.0574 102.778 85.0281L102.881 85.7211C95.9413 86.7516 92.3707 91.5398 93.3927 98.4223L92.8998 98.4955C91.8778 91.613 87.0541 88.0713 80.1304 89.0994L80.0274 88.4064C86.9512 87.3783 90.5542 82.6992 89.5216 75.745Z" fill="white"/>
<path d="M218.313 47.3196C218.141 46.1615 217.063 45.362 215.904 45.534C214.746 45.706 213.947 46.7843 214.119 47.9424C214.291 49.1005 215.369 49.9 216.527 49.728C217.685 49.5561 218.485 48.4778 218.313 47.3196Z" fill="white"/>
<path d="M102.594 324.744C102.537 323.574 101.543 322.672 100.373 322.73C99.204 322.787 98.3023 323.781 98.3594 324.951C98.4166 326.12 99.4109 327.022 100.58 326.965C101.75 326.907 102.652 325.913 102.594 324.744Z" fill="white"/>
<path d="M108.526 186.171C108.354 185.013 107.276 184.214 106.118 184.386C104.96 184.558 104.16 185.636 104.332 186.794C104.504 187.952 105.582 188.752 106.741 188.58C107.899 188.408 108.698 187.329 108.526 186.171Z" fill="white"/>
<path d="M159.027 169.169C158.855 168.011 157.776 167.212 156.618 167.384C155.46 167.555 154.661 168.634 154.833 169.792C155.005 170.95 156.083 171.75 157.241 171.578C158.399 171.406 159.199 170.327 159.027 169.169Z" fill="white"/>
<path d="M23.928 106.215C23.7561 105.057 22.6778 104.257 21.5196 104.429C20.3615 104.601 19.562 105.68 19.734 106.838C19.906 107.996 20.9843 108.795 22.1424 108.623C23.3006 108.451 24.1 107.373 23.928 106.215Z" fill="white"/>
<path d="M46.1833 26.4685C41.8964 27.1299 31.4831 32.4564 31.6578 38.7738C31.7993 44.4123 34.7538 45.5757 34.3801 50.5736C33.9078 57.0439 26.84 61.9908 27.849 68.4518C29.0926 76.4292 36.5131 78.7186 41.3891 85.8028C48.2304 95.7309 47.9941 107.433 47.9941 107.433" fill="black"/>
<path d="M46.1833 26.4685C41.8964 27.1299 31.4831 32.4564 31.6578 38.7738C31.7993 44.4123 34.7538 45.5757 34.3801 50.5736C33.9078 57.0439 26.84 61.9908 27.849 68.4518C29.0926 76.4292 36.5131 78.7186 41.3891 85.8028C48.2304 95.7309 47.9941 107.433 47.9941 107.433" stroke="white" stroke-miterlimit="10"/>
<path d="M43.8024 191.656L37.7084 122.91C37.5238 120.778 37.8044 118.63 38.5307 116.617C39.2571 114.603 40.4119 112.771 41.9154 111.247C43.4189 109.723 45.2353 108.544 47.2391 107.791C49.2429 107.038 51.3863 106.728 53.5213 106.884C55.6452 107.048 57.7088 107.668 59.5706 108.703C61.4325 109.738 63.0485 111.164 64.3082 112.881C65.5678 114.599 66.4411 116.569 66.8684 118.656C67.2958 120.743 67.2669 122.898 66.7839 124.972L51.1963 192.165C50.9988 193.038 50.4955 193.811 49.7775 194.346C49.0595 194.88 48.1741 195.14 47.2813 195.078C46.3884 195.017 45.547 194.638 44.9089 194.011C44.2709 193.383 43.8785 192.548 43.8024 191.656Z" fill="black" stroke="white" stroke-miterlimit="10"/>
<path d="M52.7411 106.734C52.7411 106.734 55.2007 92.7934 50.9213 85.4241C45.5635 76.1715 36.3628 73.8057 36.9537 66.1263C37.7589 55.6983 46.5128 52.8237 47.1968 44.2809C47.8074 36.3276 40.45 35.2037 41.0605 27.2504C41.6317 19.8449 48.5628 15.6826 56.5345 16.3058C66.4099 17.0629 70.6361 23.1811 70.1633 29.2172C69.5773 36.9054 60.4318 40.8888 59.9196 47.4727C59.4075 54.0566 71.4614 58.9912 70.3859 72.8505C69.3104 86.7098 55.2245 106.924 55.2245 106.924L52.7411 106.734Z" fill="black" stroke="white" stroke-miterlimit="10"/>
<path d="M51.1933 127.909L65.744 129.036" stroke="white" stroke-miterlimit="10"/>
<path d="M38.5765 117.627L48.6102 118.319" stroke="white" stroke-miterlimit="10"/>
<path d="M41.0186 160.625L46.2791 160.647" stroke="white" stroke-miterlimit="10"/>
<path d="M58.9668 207.901L53.8399 207.336" stroke="white" stroke-miterlimit="10"/>
<path d="M180.738 15.1396C176.89 13.1229 165.347 11.2279 161.718 16.4071C158.467 21.0651 160.165 23.7145 156.897 27.5156C152.663 32.4308 144.038 32.2153 141.017 38.012C137.278 45.1688 141.874 51.4114 141.594 60.0058C141.198 72.0445 134.056 81.3444 134.056 81.3444" fill="black"/>
<path d="M180.738 15.1396C176.89 13.1229 165.347 11.2279 161.718 16.4071C158.467 21.0651 160.165 23.7145 156.897 27.5156C152.663 32.4308 144.038 32.2153 141.017 38.012C137.278 45.1688 141.874 51.4114 141.594 60.0058C141.198 72.0445 134.056 81.3444 134.056 81.3444" stroke="white" stroke-miterlimit="10"/>
<path d="M80.6482 146.577L116.564 87.6622C117.683 85.8285 119.188 84.2605 120.974 83.0673C122.76 81.8741 124.785 81.0843 126.907 80.7528C129.03 80.4213 131.199 80.5561 133.264 81.1477C135.329 81.7394 137.24 82.7738 138.865 84.1789C140.475 85.5727 141.765 87.2981 142.647 89.2369C143.528 91.1757 143.98 93.2821 143.972 95.4119C143.964 97.5417 143.495 99.6445 142.599 101.576C141.702 103.508 140.399 105.224 138.778 106.605L86.285 151.381C85.6066 151.96 84.7438 152.279 83.8516 152.279C82.9595 152.279 82.0964 151.962 81.4175 151.383C80.7385 150.804 80.288 150.002 80.147 149.122C80.0061 148.241 80.1838 147.338 80.6482 146.577Z" fill="black" stroke="white" stroke-miterlimit="10"/>
<path d="M138.301 83.5852C138.301 83.5852 148.556 73.8736 149.508 65.3716C150.691 54.7527 144.696 47.3328 149.738 41.5292C156.582 33.6283 165.327 36.5556 170.952 30.0488C176.183 24.0151 170.921 18.7407 176.141 12.7085C181.008 7.08269 189.049 7.86 195.094 13.0989C202.587 19.5786 202.336 27.0061 198.376 31.5875C193.333 37.391 183.614 35.1847 179.291 40.1839C174.969 45.183 181.684 56.2972 172.629 66.8011C163.573 77.3051 140.213 85.2222 140.213 85.2222L138.301 83.5852Z" fill="black" stroke="white" stroke-miterlimit="10"/>
<path d="M124.469 99.7018L135.513 109.263" stroke="white" stroke-miterlimit="10"/>
<path d="M120.439 83.9326L128.1 90.4581" stroke="white" stroke-miterlimit="10"/>
<path d="M96.854 119.958L101.063 123.114" stroke="white" stroke-miterlimit="10"/>
<path d="M97.2824 142.175L93.4969 138.673" stroke="white" stroke-miterlimit="10"/>
<path d="M172.94 320.871C175.546 320.937 178.089 320.058 180.098 318.396C182.107 316.733 183.447 314.4 183.87 311.827C184.755 306.217 182.065 304.574 183.346 299.723C184.987 293.414 192.844 289.881 193.045 283.341C193.265 275.221 186.409 271.669 182.897 263.81C177.989 252.821 180.349 241.34 180.349 241.34" stroke="white" stroke-miterlimit="10"/>
<path d="M199.83 159.299L193.321 228C193.115 230.137 192.446 232.204 191.361 234.056C190.275 235.908 188.799 237.502 187.035 238.726C185.272 239.95 183.262 240.775 181.148 241.144C179.033 241.513 176.863 241.417 174.789 240.862V240.862C172.731 240.314 170.815 239.328 169.174 237.971C167.532 236.614 166.204 234.918 165.278 233C164.353 231.082 163.853 228.987 163.813 226.857C163.773 224.728 164.194 222.615 165.046 220.664L192.666 157.482C193.025 156.674 193.659 156.019 194.454 155.633C195.25 155.246 196.156 155.154 197.014 155.371C197.871 155.589 198.624 156.102 199.139 156.821C199.654 157.54 199.899 158.417 199.83 159.299V159.299Z" stroke="white" stroke-miterlimit="10"/>
<path d="M175.501 241.17C175.501 241.17 170.578 254.377 173.444 262.443C177.022 272.517 185.644 276.524 183.656 283.967C180.961 294.072 171.816 295.258 169.603 303.574C167.543 311.28 174.579 313.733 172.529 321.438C170.563 328.624 163.045 331.439 155.309 329.383C145.76 326.828 142.73 320.039 144.268 314.19C146.256 306.747 155.966 304.466 157.677 298.146C157.726 297.937 157.768 297.739 157.798 297.532C158.697 291.333 148.552 284.286 152.02 271.286C155.598 257.865 173.145 240.55 173.145 240.55L175.501 241.17Z" stroke="white" stroke-miterlimit="10"/>
<path d="M180.932 220.62L166.827 216.861" stroke="white" stroke-miterlimit="10"/>
<path d="M191.46 233.038L181.715 230.522" stroke="white" stroke-miterlimit="10"/>
<path d="M196.904 190.315L191.743 189.332" stroke="white" stroke-miterlimit="10"/>
<path d="M186.809 170.533L191.741 172.025" stroke="white" stroke-miterlimit="10"/>
<path d="M207.322 71.0008C205.45 69.186 202.985 68.1097 200.381 67.9704C197.778 67.8312 195.212 68.6384 193.157 70.2432C188.707 73.775 189.567 76.842 185.34 79.4915C179.875 82.9922 171.682 80.3066 167.11 84.9889C161.478 90.7688 164.099 98.073 161.357 106.224C157.522 117.641 148.554 126.212 148.554 126.212" stroke="white" stroke-miterlimit="10"/>
<path d="M78.1157 171.661L129.427 125.534C131.025 124.098 132.917 123.028 134.971 122.398C137.025 121.768 139.191 121.593 141.32 121.885C143.448 122.177 145.487 122.929 147.296 124.089C149.104 125.249 150.638 126.789 151.79 128.602C152.932 130.4 153.672 132.423 153.959 134.533C154.246 136.643 154.075 138.791 153.456 140.828C152.837 142.866 151.785 144.746 150.373 146.34C148.96 147.933 147.22 149.203 145.272 150.062L82.134 177.888C81.3165 178.252 80.3958 178.312 79.5382 178.056C78.6805 177.801 77.9424 177.248 77.4573 176.496C76.9721 175.744 76.7718 174.843 76.8925 173.956C77.0133 173.07 77.4471 172.255 78.1157 171.661Z" fill="white"/>
<path d="M150.352 128.381C150.352 128.381 164.028 121.488 167.367 113.612C171.549 103.781 167.929 94.9973 174.432 90.8573C183.254 85.2507 190.787 90.5719 198.048 85.9553C204.781 81.6698 201.259 75.106 207.994 70.8304C214.27 66.8656 221.745 69.8904 226.044 76.6423C231.322 84.9571 228.998 92.0454 223.889 95.291C217.426 99.4251 208.71 94.512 203.139 98.0486C197.568 101.585 200.848 114.21 189.089 121.618C177.329 129.026 151.672 130.46 151.672 130.46L150.352 128.381Z" stroke="white" stroke-miterlimit="10"/>
<path d="M133.539 139.339L142.083 152.487" stroke="#1F1F1F" stroke-miterlimit="10"/>
<path d="M133.284 121.554L139.678 131.523" stroke="#1F1F1F" stroke-miterlimit="10"/>
<path d="M100.677 150.123L104.401 155.05" stroke="#1F1F1F" stroke-miterlimit="10"/>
<path d="M95.8758 173.007L92.6833 167.779" stroke="#1F1F1F" stroke-miterlimit="10"/>
<path d="M208.302 137.175C205.768 137.794 203.544 139.308 202.038 141.437C200.531 143.567 199.845 146.169 200.105 148.764C200.731 154.404 203.755 155.299 203.79 160.298C203.834 166.792 197.19 172.298 198.72 178.652C200.608 186.459 208.223 188.179 213.631 194.847C221.253 204.169 222.932 216.637 222.932 216.637" stroke="white" stroke-miterlimit="10"/>
<path d="M224.697 300.144L212.999 232.124C212.631 230.006 212.73 227.832 213.289 225.755C213.847 223.679 214.852 221.749 216.233 220.1C217.613 218.451 219.337 217.124 221.283 216.209C223.23 215.295 225.352 214.816 227.503 214.806C229.629 214.804 231.731 215.26 233.665 216.143C235.6 217.027 237.321 218.317 238.711 219.926C240.101 221.535 241.129 223.425 241.722 225.467C242.316 227.509 242.462 229.655 242.151 231.759L232.063 299.98C231.908 300.833 231.464 301.606 230.805 302.169C230.146 302.731 229.313 303.049 228.446 303.068C227.58 303.088 226.734 302.807 226.051 302.274C225.367 301.741 224.889 300.989 224.697 300.144Z" fill="white"/>
<path d="M226.475 216.051C226.475 216.051 227.99 200.722 223.104 193.693C217.009 184.914 207.65 183.301 207.617 175.592C207.571 165.135 216.084 161.597 216.049 152.988C216.006 145.008 208.58 144.493 208.547 136.511C208.516 129.085 215.082 124.42 223.078 124.345C232.979 124.3 237.686 130.061 237.715 136.113C237.746 143.812 228.965 148.533 228.985 155.141C229.006 161.75 241.418 165.68 241.479 179.571C241.54 193.463 228.971 216.044 228.971 216.044L226.475 216.051Z" stroke="white" stroke-miterlimit="10"/>
<path d="M226.831 236.015L242.514 236.921" stroke="#1F1F1F" stroke-miterlimit="10"/>
<path d="M211.636 226.756L223.481 226.666" stroke="#1F1F1F" stroke-miterlimit="10"/>
<path d="M218.45 269.58L224.568 269.794" stroke="#1F1F1F" stroke-miterlimit="10"/>
<path d="M235.651 285.476L229.298 284.974" stroke="#1F1F1F" stroke-miterlimit="10"/>
<path d="M86.7994 305.155L87.017 305.123C87.4665 308.15 89.5593 309.649 92.5763 309.201L92.6218 309.507C89.595 309.957 88.0437 312.037 88.4903 315.044L88.2726 315.076C88.2309 314.419 88.0458 313.779 87.7303 313.201C87.4149 312.624 86.9767 312.122 86.4466 311.731C85.9165 311.341 85.3074 311.071 84.6619 310.941C84.0165 310.811 83.3504 310.824 82.7105 310.979L82.6649 310.672C85.6423 310.23 87.2489 308.182 86.7994 305.155Z" fill="white"/>
<path d="M29.015 180.036C28.843 178.878 27.7647 178.078 26.6066 178.25C25.4484 178.422 24.649 179.5 24.8209 180.658C24.9929 181.817 26.0712 182.616 27.2293 182.444C28.3875 182.272 29.1869 181.194 29.015 180.036Z" fill="white"/>
<path d="M63.6078 333.744C66.2037 333.51 68.6277 332.346 70.4333 330.467C72.2389 328.587 73.3045 326.118 73.4339 323.515C73.6594 317.838 70.7885 316.521 71.5159 311.549C72.4522 305.174 79.8275 300.674 79.2647 294.164C78.5614 286.115 71.3257 283.325 66.9359 275.934C60.8006 265.571 60.1532 252.665 60.1532 252.665" stroke="white" stroke-miterlimit="10"/>
<path d="M71.7654 170.16L73.1783 239.139C73.2239 241.288 72.8 243.422 71.9361 245.391C71.0722 247.36 69.7891 249.116 68.1764 250.538C66.5637 251.96 64.6602 253.013 62.5986 253.624C60.537 254.234 58.367 254.388 56.2401 254.073C54.133 253.766 52.1172 253.007 50.3308 251.848C48.5443 250.689 47.0294 249.157 45.8897 247.359C44.7501 245.56 44.0125 243.536 43.7276 241.426C43.4427 239.315 43.6172 237.168 44.2391 235.132L64.3968 169.146C64.6498 168.281 65.2052 167.535 65.9617 167.045C66.7182 166.555 67.6255 166.353 68.5184 166.476C69.4113 166.599 70.2303 167.039 70.8263 167.715C71.4223 168.391 71.7556 169.259 71.7654 170.16Z" fill="white"/>
<path d="M57.2438 253.441C57.2438 253.441 53.6177 267.973 57.3984 275.658C62.1113 285.242 71.1287 288.236 70.0201 295.862C68.5026 306.201 59.5855 308.429 58.3036 316.948C57.1442 324.843 64.4173 326.464 63.2602 334.369C62.1904 341.72 54.9921 345.387 47.0771 344.274C37.2834 342.805 33.4804 336.397 34.3638 330.414C35.4821 322.785 44.8677 319.432 45.8286 312.897C46.7895 306.362 35.1131 300.617 37.1245 286.87C39.1358 273.122 54.7783 253.078 54.7783 253.078L57.2438 253.441Z" stroke="white" stroke-miterlimit="10"/>
<path d="M60.0396 233.24L44.5011 231.12" stroke="#1F1F1F" stroke-miterlimit="10"/>
<path d="M73.6784 244.668L61.9478 242.991" stroke="#1F1F1F" stroke-miterlimit="10"/>
<path d="M73.331 201.31L67.1741 200.918" stroke="#1F1F1F" stroke-miterlimit="10"/>
<path d="M59.6825 182.832L65.1877 183.734" stroke="#1F1F1F" stroke-miterlimit="10"/>
</svg>
