<svg width="1024" height="120" viewBox="0 0 1024 120" fill="none" xmlns="http://www.w3.org/2000/svg">
<mask id="mask0" mask-type="alpha" maskUnits="userSpaceOnUse" x="0" y="0" width="1024" height="120">
<rect width="1024" height="120" fill="#C4C4C4"/>
</mask>
<g mask="url(#mask0)">
<path d="M41.6966 34.4452C-25.1992 23.5844 -70.6411 113.186 -85 159.344V183.781V984.761C-85 1060.79 16.3573 1136.81 135.452 1123.24C254.547 1109.66 335.633 1109.66 462.329 1136.81C589.026 1163.96 713.189 1109.66 814.546 1049.93C915.903 990.191 943.776 1063.5 1057.8 1109.66C1171.83 1155.82 1283.32 1125.95 1384.68 941.318C1486.04 756.685 1399.88 200.072 1354.27 91.4642C1308.66 -17.1433 1151.56 61.5971 1017.26 58.8819C882.962 56.1667 794.274 96.8945 692.917 34.4452C591.56 -28.0042 436.99 34.4452 295.09 75.173C153.19 115.901 125.316 48.0211 41.6966 34.4452Z" fill="black"/>
<path fill-rule="evenodd" clip-rule="evenodd" d="M198 52.743L197.999 53.2614C190.67 53.2614 186.387 57.7027 186.387 65L185.655 64.9997C185.655 57.6687 181.265 53.2614 174 53.2614L174 52.743C181.265 52.743 185.657 48.2973 185.657 41H186.387C186.387 48.2973 190.67 52.743 198 52.743Z" fill="black"/>
<path d="M214 50L330 8" stroke="black"/>
<path d="M227.128 57.1335L306.872 47.8663" stroke="black"/>
</g>
</svg>
