<svg width="476" height="467" viewBox="0 0 476 467" fill="none" xmlns="http://www.w3.org/2000/svg">
<g clip-path="url(#clip0)">
<path d="M263.11 -9.76585e-06C214.36 -9.76585e-06 108.73 0.0299902 66.7 0.0299902C19.63 0.0299902 0 30.25 0 57.16C0 89.1 23.53 106.76 23.53 137.02C23.53 169.8 2.52 167.28 2.52 205.95C2.52 233.69 19.33 244.62 19.33 284.13C19.33 305.99 0.75 331.6 0.75 388.76C0.75 416.55 17.65 466.42 76.49 466.42C135.33 466.42 154.67 449.73 189.13 449.73C225.28 449.73 241.24 466.54 294.2 466.54C350.52 466.54 394.23 465.7 426.18 465.7C458.13 465.7 473.25 448.89 473.25 411.06C473.25 326.16 456.44 301.06 456.44 254.7C456.44 191.65 471.57 118.52 471.57 80.69C471.57 42.86 454.76 -0.0100098 392.55 -0.0100098L263.11 -9.76585e-06Z" fill="#FF592C"/>
<path d="M165.76 136.44C165.76 141.68 161.51 145.92 156.28 145.92C154.63 145.92 153.07 145.5 151.72 144.75C148.79 143.14 146.8 140.03 146.8 136.44C146.8 131.21 151.04 126.96 156.28 126.96C158.06 126.96 159.73 127.45 161.15 128.3C163.92 129.97 165.76 132.99 165.76 136.44Z" fill="white" stroke="#0C1414" stroke-width="1.2009" stroke-miterlimit="10"/>
<path d="M304.79 314.3C305.5 320.84 317.88 327.52 326.69 318.19C337.67 306.55 358.35 283.04 362.15 278.76C365.96 274.48 366.38 264.61 361.4 260.27" fill="white"/>
<path d="M304.79 314.3C305.5 320.84 317.88 327.52 326.69 318.19C337.67 306.55 358.35 283.04 362.15 278.76C365.96 274.48 366.38 264.61 361.4 260.27" stroke="#0C1414" stroke-width="1.2009" stroke-miterlimit="10"/>
<path d="M287.98 212.18C287.98 212.18 283.73 219.98 277 219.98C270.27 219.98 259.88 207.29 259.88 207.29V250.36L219.56 308.7C219.56 308.7 182.17 349.62 219.56 349.62C256.95 349.62 300.82 322.42 319.29 300.18C338.57 276.96 287.98 212.18 287.98 212.18Z" fill="white"/>
<path d="M18.3301 334.92C18.3301 334.92 41.3101 271.34 55.5201 231.74C63.9201 208.34 77.8801 201.68 99.3101 201.68H152.34C165.98 201.68 181.55 209.41 191.46 218.64C202.74 229.14 231.78 259.42 231.78 259.42L236.03 277.48L219.35 280.05V354.06H19.0801L18.3301 334.92Z" fill="#0C1414"/>
<path d="M182.87 341.33C182.87 341.33 189.48 349.53 218.73 349.53C234.64 349.53 241.96 360.28 241.96 369.32C241.96 380.93 231.97 389 216.05 389H182.93" fill="white"/>
<path d="M182.87 341.33C182.87 341.33 189.48 349.53 218.73 349.53C234.64 349.53 241.96 360.28 241.96 369.32C241.96 380.93 231.97 389 216.05 389H182.93" stroke="#0C1414" stroke-width="1.2009" stroke-miterlimit="10"/>
<path d="M195.18 362.49H33.48V388.87H195.17V362.49H195.18Z" fill="white"/>
<path d="M292.9 284.48C291.61 290.54 293.55 297.11 298.52 301.45L300.51 303.19C307.81 309.56 318.99 308.81 325.37 301.51L361.4 260.25C367.77 252.95 367.02 241.77 359.72 235.39L356.03 232.67" fill="white"/>
<path d="M292.9 284.48C291.61 290.54 293.55 297.11 298.52 301.45L300.51 303.19C307.81 309.56 318.99 308.81 325.37 301.51L361.4 260.25C367.77 252.95 367.02 241.77 359.72 235.39L356.03 232.67" stroke="#0C1414" stroke-width="1.2009" stroke-miterlimit="10"/>
<path d="M288.04 254.19L285.72 257.11C279.93 264.88 281.54 275.97 289.31 281.76L291.43 283.34C299.2 289.13 310.29 287.52 316.08 279.75C316.08 279.75 357.1 231.93 360.34 227.32C364.45 221.48 367.21 212.29 356.89 202.16C352.75 198.1 346.74 197.89 346.74 197.89" fill="white"/>
<path d="M288.04 254.19L285.72 257.11C279.93 264.88 281.54 275.97 289.31 281.76L291.43 283.34C299.2 289.13 310.29 287.52 316.08 279.75C316.08 279.75 357.1 231.93 360.34 227.32C364.45 221.48 367.21 212.29 356.89 202.16C352.75 198.1 346.74 197.89 346.74 197.89" stroke="#0C1414" stroke-width="1.2009" stroke-miterlimit="10"/>
<path d="M439.32 258.96L420.46 259.44C423.54 241.82 402.32 219.92 403.82 189.95C405.15 163.35 413.2 152.15 417.36 146.06C420.58 141.35 425.16 139.05 430.3 139.53C436.46 140.1 440.6 143.51 441.06 154.16C442.57 189.47 450.97 215.44 439.32 258.96Z" fill="white" stroke="#0E1517" stroke-width="1.2009" stroke-miterlimit="10"/>
<path d="M427.03 260.58C428.51 245.2 412.61 223.39 411.53 198.52C410.41 172.51 417.44 158.12 420.45 152.63C422.87 148.23 425 145.89 428.29 145.85C431.01 145.82 433.83 148.01 433.67 154.04C433.24 170.18 430.81 196.18 430.8 213.63C430.79 232.34 438.97 261.33 444.49 269.43" fill="white"/>
<path d="M427.03 260.58C428.51 245.2 412.61 223.39 411.53 198.52C410.41 172.51 417.44 158.12 420.45 152.63C422.87 148.23 425 145.89 428.29 145.85C431.01 145.82 433.83 148.01 433.67 154.04C433.24 170.18 430.81 196.18 430.8 213.63C430.79 232.34 438.97 261.33 444.49 269.43" stroke="#0C1414" stroke-width="1.2009" stroke-miterlimit="10"/>
<path d="M447.19 303.35L438.04 268.84C439.37 254.99 427.14 233 430.01 203.13C432.46 177.7 439.13 164.12 443.29 158.03C446.51 153.32 449.64 150.59 454.78 151.08C460.54 151.63 464 155.22 464.32 165.87C465.62 208.93 497.08 241.81 447.19 303.35Z" fill="white" stroke="#0E1517" stroke-width="1.2009" stroke-miterlimit="10"/>
<path d="M443.03 271.75C444.51 256.36 435.53 234.98 435.91 210.1C436.23 189.21 444.43 169.88 446.41 164.73C448.15 160.21 450.37 157.08 453.64 157.49C456.52 157.84 458.33 160.45 458.05 166.48C456.94 190.96 466.64 203.11 466.22 228.38C465.62 264.22 442.07 278.54 447.59 286.65" fill="white"/>
<path d="M443.03 271.75C444.51 256.36 435.53 234.98 435.91 210.1C436.23 189.21 444.43 169.88 446.41 164.73C448.15 160.21 450.37 157.08 453.64 157.49C456.52 157.84 458.33 160.45 458.05 166.48C456.94 190.96 466.64 203.11 466.22 228.38C465.62 264.22 442.07 278.54 447.59 286.65" stroke="#0C1414" stroke-width="1.2009" stroke-miterlimit="10"/>
<path d="M151.39 144.66C153.57 145.91 156.16 146.24 158.58 145.59C161.01 144.93 163.07 143.34 164.32 141.16C166.92 136.62 165.36 130.07 160.8 128.16C157.74 126.88 155.49 127.82 155.49 127.82" stroke="#0C1414" stroke-width="1.2009" stroke-miterlimit="10"/>
<path d="M165.76 136.44C165.76 141.68 161.51 145.92 156.28 145.92C154.63 145.92 153.07 145.5 151.72 144.75L161.15 128.3C163.92 129.97 165.76 132.99 165.76 136.44Z" fill="#0C1414"/>
<path d="M456.77 388.86C456.77 361.99 442.61 327.11 409.57 327.11C363.4 327.11 338.24 358.58 306.64 388.73" fill="white"/>
<path d="M456.77 388.86C456.77 361.99 442.61 327.11 409.57 327.11C363.4 327.11 338.24 358.58 306.64 388.73" stroke="#0C1414" stroke-width="1.2009" stroke-miterlimit="10"/>
<path d="M148.9 384.38V373.26C148.9 371.54 149.24 369.83 149.9 368.24C150.56 366.65 151.53 365.2 152.75 363.98C153.97 362.76 155.42 361.8 157.01 361.14C158.6 360.48 160.31 360.14 162.03 360.14C163.75 360.14 165.46 360.48 167.05 361.14C168.64 361.8 170.09 362.77 171.31 363.98C172.53 365.2 173.49 366.64 174.15 368.24C174.81 369.83 175.15 371.54 175.15 373.26V383.72" stroke="#0C1414" stroke-width="1.2009" stroke-miterlimit="10"/>
<path d="M406.46 336.32C431.22 336.32 451.29 316.25 451.29 291.49C451.29 266.73 431.22 246.66 406.46 246.66C381.7 246.66 361.63 266.73 361.63 291.49C361.63 316.25 381.7 336.32 406.46 336.32Z" fill="white" stroke="#0E1517" stroke-width="1.2009" stroke-miterlimit="10"/>
<path d="M422.36 296.84C422.36 300.8 419.14 304.02 415.18 304.02C414.14 304.02 413.16 303.8 412.27 303.4C409.75 302.29 407.99 299.77 407.99 296.84C407.99 292.87 411.21 289.65 415.18 289.65C416.04 289.65 416.87 289.8 417.63 290.09C420.38 291.09 422.36 293.73 422.36 296.84Z" fill="white" stroke="#0C1414" stroke-width="1.2009" stroke-miterlimit="10"/>
<path d="M417.62 290.09L412.26 303.4C409.74 302.29 407.98 299.77 407.98 296.84C407.98 292.87 411.2 289.65 415.17 289.65C416.04 289.65 416.87 289.8 417.62 290.09Z" fill="#0C1414"/>
<path d="M392.14 277.39C392.14 281.35 388.92 284.57 384.96 284.57C383.93 284.57 382.94 284.35 382.05 283.96C379.53 282.84 377.77 280.32 377.77 277.39C377.77 273.42 380.99 270.2 384.96 270.2C385.82 270.2 386.65 270.35 387.41 270.64C390.18 271.64 392.14 274.28 392.14 277.39Z" fill="white" stroke="#0C1414" stroke-width="1.2009" stroke-miterlimit="10"/>
<path d="M387.42 270.64L382.06 283.96C379.54 282.84 377.78 280.32 377.78 277.39C377.78 273.42 381 270.2 384.97 270.2C385.82 270.2 386.65 270.35 387.42 270.64Z" fill="#0C1414"/>
<path d="M398.01 292.32C400.26 292.32 402.08 290.5 402.08 288.25C402.08 286 400.26 284.18 398.01 284.18C395.76 284.18 393.94 286 393.94 288.25C393.94 290.5 395.76 292.32 398.01 292.32Z" fill="white" stroke="#0C1414" stroke-width="1.2009" stroke-miterlimit="10"/>
<path d="M395.95 292.06C391.39 300.51 395.73 307.28 399.83 310.01C404.58 313.17 410.69 313.93 415.06 311.52" stroke="#0C1414" stroke-width="1.2009" stroke-miterlimit="10"/>
<path d="M378.49 298.21C378.49 298.21 389.7 302.14 395.87 291.74" stroke="#0C1414" stroke-width="1.2009" stroke-miterlimit="10"/>
<path d="M306.57 388.84H466.82" stroke="#0C1414" stroke-width="1.3101" stroke-miterlimit="10"/>
<path d="M76.4502 388.84H241.93" stroke="#0C1414" stroke-width="1.3101" stroke-miterlimit="10"/>
<path d="M9.72998 388.84H55.94" stroke="#0C1414" stroke-width="1.3101" stroke-miterlimit="10"/>
<path d="M112.72 201.35C139.85 201.35 161.85 179.36 161.85 152.22C161.85 125.09 139.85 103.09 112.72 103.09C85.5898 103.09 63.5898 125.09 63.5898 152.22C63.5998 179.35 85.5898 201.35 112.72 201.35Z" fill="white" stroke="#0C1414" stroke-width="1.2009" stroke-miterlimit="10"/>
<path d="M77.8301 186.73C85.3601 187.66 90.0401 182.08 91.2201 174.43C92.9101 163.42 88.1601 153.8 93.7701 150.29C99.8901 146.46 109.07 163.35 114.81 160.67C120.07 158.22 108 145.38 119.02 133.32C123.57 128.34 139.97 119.1 141.24 112.42" stroke="#0C1414" stroke-width="1.2009" stroke-miterlimit="10"/>
<path d="M155.92 158.79L163.49 159.95C168.51 160.58 171.77 154.82 168.66 150.83L153.65 131.98" fill="white"/>
<path d="M155.92 158.79L163.49 159.95C168.51 160.58 171.77 154.82 168.66 150.83L153.65 131.98" stroke="#0C1414" stroke-width="1.2009" stroke-miterlimit="10"/>
<path d="M157.48 172.8C157.48 172.8 142.73 171.04 134.87 162.84C134.87 162.84 143.36 176.86 154.09 178.33" stroke="#0C1414" stroke-width="1.2009" stroke-linejoin="bevel"/>
<path d="M147.62 136.44C147.62 141.68 143.38 145.92 138.14 145.92C136.54 145.92 135.04 145.53 133.72 144.83C130.71 143.24 128.66 140.08 128.66 136.44C128.66 131.21 132.91 126.96 138.14 126.96C139.98 126.96 141.69 127.48 143.14 128.38C145.84 130.06 147.62 133.04 147.62 136.44Z" stroke="#0C1414" stroke-width="1.2009" stroke-miterlimit="10"/>
<path d="M20.4801 87.29C18.9101 85.18 17.9301 82.69 17.6201 80.08C17.3101 77.47 17.69 74.82 18.72 72.4C22.08 64.54 28.62 52.84 40.1 44.49C51.3 36.35 63.2801 33.94 71.1501 33.32C73.7001 33.12 76.26 33.57 78.59 34.63C80.92 35.69 82.9401 37.33 84.4701 39.39L128.28 98.57L64.0401 146.13L20.4801 87.29Z" fill="#0E1517"/>
<path d="M106.68 137.63C134.34 117.16 151.53 93.5 145.09 84.8C138.65 76.09 111 85.63 83.3398 106.1C55.6798 126.57 38.4898 150.23 44.9298 158.93C51.3798 167.63 79.0298 158.1 106.68 137.63Z" fill="#0E1517"/>
<path d="M120.39 98.1899C113.94 105.13 105.79 112.41 96.4501 119.33C85.8501 127.17 75.2601 133.42 65.8501 137.64" stroke="white" stroke-width="1.2009" stroke-miterlimit="10"/>
<path d="M78.6001 41.71C78.6001 41.71 69.5001 56.88 55.2401 67.07C38.7601 78.85 24.0601 81.16 24.0601 81.16" stroke="white" stroke-width="1.2009" stroke-miterlimit="10"/>
<path d="M313.35 182.49L278.55 224.8C272.37 232.31 273.45 243.42 280.96 249.59L283.01 251.27C290.52 257.45 301.62 256.37 307.81 248.86L342.61 206.55C348.79 199.04 347.71 187.94 340.2 181.75L338.15 180.07C330.64 173.89 319.54 174.97 313.35 182.49Z" fill="white" stroke="#0C1414" stroke-width="1.2009" stroke-miterlimit="10"/>
<path d="M276.96 147.29C324.78 147.29 363.54 133.56 363.54 116.62C363.54 99.69 324.78 85.96 276.96 85.96C229.14 85.96 190.38 99.69 190.38 116.62C190.38 133.56 229.14 147.29 276.96 147.29Z" stroke="#0C1414" stroke-width="1.2009" stroke-miterlimit="10"/>
<path d="M192.87 124L268.17 215.76C269.24 217.07 270.58 218.13 272.11 218.86C273.64 219.59 275.31 219.97 277 219.97C278.68 219.97 280.33 219.61 281.85 218.9C283.37 218.19 284.71 217.16 285.78 215.87L360.01 125.31" stroke="#0C1414" stroke-width="1.2009" stroke-miterlimit="10"/>
<path d="M282.26 250.55V311.04C282.26 311.04 280.68 314.63 277.19 314.63C273.7 314.63 271.66 311.04 271.66 311.04V218.83" stroke="#0C1414" stroke-width="1.2009" stroke-miterlimit="10"/>
<path d="M282.23 311.01C282.23 318.37 286.17 323.12 295.67 323.12C300.59 323.12 311.11 323.11 315.76 323.11C321.64 323.11 332.36 322.84 332.36 330.98H277.06L219.49 330.94C219.49 330.94 219.84 322.97 229.2 322.97C235.49 322.97 248.88 323.14 256.58 323.14C267.51 323.14 271.63 317.55 271.63 310.87" stroke="#0C1414" stroke-width="1.2009" stroke-miterlimit="10"/>
<path d="M219.35 280.05C222.33 280.05 231.35 272.94 231.7 262.57C232.2 247.7 225.64 233.49 222.16 224.37C216.57 209.75 219.15 200.71 226.89 194.69C234.63 188.67 247.91 190.91 254.24 198.99C260.56 207.07 271.59 218.53 271.59 255.14C271.59 279.38 260.54 294.93 250.12 303.18C236.87 313.67 219.59 312.98 219.59 312.98" fill="white"/>
<path d="M219.35 280.05C222.33 280.05 231.35 272.94 231.7 262.57C232.2 247.7 225.64 233.49 222.16 224.37C216.57 209.75 219.15 200.71 226.89 194.69C234.63 188.67 247.91 190.91 254.24 198.99C260.56 207.07 271.59 218.53 271.59 255.14C271.59 279.38 260.54 294.93 250.12 303.18C236.87 313.67 219.59 312.98 219.59 312.98" stroke="#0C1414" stroke-width="1.2009" stroke-miterlimit="10"/>
<path d="M202.68 388.94H74.23V417.87H202.69V388.94H202.68Z" fill="white" stroke="#0C1414" stroke-width="1.2009" stroke-miterlimit="10"/>
<path d="M74.4101 388.94V417.87L54.0801 401.13V370.36" fill="white"/>
<path d="M74.4101 388.94V417.87L54.0801 401.13V370.36" stroke="#0C1414" stroke-width="1.2009" stroke-miterlimit="10"/>
<path d="M45.8901 446.89L25.5601 430.65V401.72L45.8901 417.96V446.89Z" fill="white" stroke="#0C1414" stroke-width="1.2009" stroke-miterlimit="10"/>
<path d="M174.33 417.94H45.8701V446.87H174.33V417.94Z" fill="white" stroke="#0C1414" stroke-width="1.2009" stroke-miterlimit="10"/>
<path d="M273 124.85C258.01 124.85 256.04 133.6 239.98 133.6C220.72 133.6 212.31 138.06 212.31 145.02C212.31 154 233.02 165.73 271.75 165.73C294.24 165.73 297.76 160.91 311.38 156.63C323.88 152.7 343.22 151.87 346.01 140.92C348.33 131.82 341.37 125.21 328.87 126.82C321.6 127.75 311.69 131.11 304.41 131.11C291.34 131.1 287.46 124.85 273 124.85Z" stroke="#0C1414" stroke-width="1.2009" stroke-miterlimit="10"/>
<path d="M287.77 152.44C295.96 154.69 302.15 150.64 304.59 145.98C308.76 138.03 304.68 128.11 295.4 123.25L299.07 116.23L292.56 112.82L288.88 119.84L285.39 118.01L289.06 110.99L282.55 107.58L278.88 114.61L269.37 109.62L264.09 119.7L273.6 124.69L256.2 157.9L246.77 152.96L241.42 163.17L250.85 168.11L247.24 175.01L253.75 178.42L257.36 171.52L260.9 173.37L257.26 180.31L263.77 183.72L267.41 176.78C280.5 183.63 289.5 179.77 293.9 171.38C297.48 164.58 294.12 156.57 287.77 152.44ZM291.61 134.12C297.95 137.44 296.95 141.64 295.76 143.91C294.57 146.17 290.62 148.54 285.53 145.87L273.99 139.83L280.13 128.11L291.61 134.12ZM276.03 168.28L262.73 161.31L268.64 150.02L282.09 157.07C286.79 159.53 287.64 162.81 285.7 166.51C283.98 169.78 280.46 170.6 276.03 168.28Z" fill="#0C1414"/>
<path d="M281.49 331.05C267.13 337.7 247.22 349.07 219.35 349.41" stroke="#0C1414" stroke-width="1.2009" stroke-miterlimit="10"/>
<path d="M312.33 307.58C312.33 307.58 295.93 323.09 281.11 331.08" stroke="#0C1414" stroke-width="1.2009" stroke-miterlimit="10"/>
<path d="M349.81 79.77L296.38 191.84C296.22 192.17 296.13 192.53 296.11 192.9C296.09 193.27 296.14 193.64 296.27 193.98C296.39 194.33 296.58 194.65 296.83 194.92C297.08 195.19 297.37 195.42 297.71 195.58C298.04 195.74 298.4 195.83 298.77 195.85C299.14 195.87 299.51 195.82 299.85 195.69C300.2 195.57 300.52 195.38 300.79 195.13C301.06 194.88 301.29 194.59 301.44 194.25L354.65 82.62" stroke="#0C1414" stroke-width="1.2009" stroke-miterlimit="10"/>
<path d="M370.24 49.9699L378.11 33.4299C378.43 32.7599 378.47 31.9899 378.22 31.2799C377.97 30.5799 377.46 29.9999 376.78 29.6799C376.11 29.3599 375.34 29.3199 374.63 29.5699C373.93 29.8199 373.35 30.3399 373.03 31.0099L365.19 47.4199" stroke="#0C1414" stroke-width="1.2009" stroke-miterlimit="10"/>
<path d="M75.7701 388.83C87.5801 388.83 97.1501 379.26 97.1501 367.45V341.26C97.1501 329.45 87.5801 319.88 75.7701 319.88C63.9601 319.88 54.3901 329.45 54.3901 341.26V367.45C54.3901 379.26 63.9601 388.83 75.7701 388.83Z" fill="white" stroke="#0C1414" stroke-width="1.2009" stroke-miterlimit="10"/>
<path d="M32.7599 388.87C44.5699 388.87 54.1399 379.3 54.1399 367.49V350.73C54.1399 338.92 44.5699 329.35 32.7599 329.35C20.9499 329.35 11.3799 338.92 11.3799 350.73V367.49C11.3799 379.3 20.9499 388.87 32.7599 388.87Z" fill="white" stroke="#0C1414" stroke-width="1.2009" stroke-miterlimit="10"/>
<path d="M118.61 388.63C130.42 388.63 139.99 379.06 139.99 367.25V331.87C139.99 320.06 130.42 310.49 118.61 310.49C106.8 310.49 97.23 320.06 97.23 331.87V367.25C97.23 379.06 106.8 388.63 118.61 388.63Z" fill="white" stroke="#0C1414" stroke-width="1.2009" stroke-miterlimit="10"/>
<path d="M161.49 388.55C173.3 388.55 182.87 378.98 182.87 367.17V341.33C182.87 329.52 173.3 319.95 161.49 319.95C149.68 319.95 140.11 329.52 140.11 341.33V367.17C140.11 378.98 149.68 388.55 161.49 388.55Z" fill="white" stroke="#0C1414" stroke-width="1.2009" stroke-miterlimit="10"/>
<path d="M19.5801 384.38V373.26C19.5801 371.54 19.9201 369.83 20.5801 368.24C21.2401 366.65 22.2101 365.2 23.4301 363.98C24.6501 362.76 26.1001 361.8 27.6901 361.14C29.2801 360.48 30.9901 360.14 32.7101 360.14C34.4301 360.14 36.1401 360.48 37.7301 361.14C39.3201 361.8 40.7701 362.76 41.9901 363.98C43.2101 365.2 44.1701 366.64 44.8301 368.24C45.4901 369.83 45.8301 371.54 45.8301 373.26V384.41" stroke="#0C1414" stroke-width="1.2009" stroke-miterlimit="10"/>
<path d="M62.8701 384.38V373.26C62.8701 369.78 64.2501 366.44 66.7101 363.98C69.1701 361.52 72.5101 360.14 75.9901 360.14C79.4701 360.14 82.8101 361.52 85.2701 363.98C87.7301 366.44 89.1101 369.78 89.1101 373.26V384.41" stroke="#0C1414" stroke-width="1.2009" stroke-miterlimit="10"/>
<path d="M105.88 384.38V373.26C105.88 369.78 107.26 366.44 109.72 363.98C112.18 361.52 115.52 360.14 119 360.14C122.48 360.14 125.82 361.52 128.28 363.98C130.74 366.44 132.12 369.78 132.12 373.26V383.79" stroke="#0C1414" stroke-width="1.2009" stroke-miterlimit="10"/>
<path d="M148.9 384.38V373.26C148.9 371.54 149.24 369.83 149.9 368.24C150.56 366.65 151.53 365.2 152.75 363.98C153.97 362.76 155.42 361.8 157.01 361.14C158.6 360.48 160.31 360.14 162.03 360.14C163.75 360.14 165.46 360.48 167.05 361.14C168.64 361.8 170.09 362.77 171.31 363.98C172.53 365.2 173.49 366.64 174.15 368.24C174.81 369.83 175.15 371.54 175.15 373.26V383.72" stroke="#0C1414" stroke-width="1.2009" stroke-miterlimit="10"/>
<path d="M385.63 298.9L380.33 306.01L387.5 311.9L394.83 304.39" stroke="#0C1414" stroke-width="1.2009" stroke-miterlimit="10"/>
<path d="M394.17 294.94L384.2 308.65" stroke="#0C1414" stroke-width="1.2009" stroke-miterlimit="10"/>
<path d="M456.76 388.76H414.51C414.51 377.09 423.97 367.64 435.63 367.64C447.3 367.64 456.76 377.09 456.76 388.76Z" fill="white" stroke="#0C1414" stroke-width="1.2009" stroke-miterlimit="10"/>
<path d="M425.81 378.82V388.85" stroke="#0C1414" stroke-width="1.2009" stroke-miterlimit="10"/>
<path d="M435.64 378.82V388.85" stroke="#0C1414" stroke-width="1.2009" stroke-miterlimit="10"/>
<path d="M445.46 378.82V388.85" stroke="#0C1414" stroke-width="1.2009" stroke-miterlimit="10"/>
<path d="M77.0098 230.99L152.15 321.75" stroke="white" stroke-width="1.2009" stroke-miterlimit="10"/>
<path d="M152.17 322.48C152.17 322.48 140.41 301 104.34 301C65.3698 301 47.2998 300.49 47.2998 300.49" stroke="white" stroke-width="1.2009" stroke-miterlimit="10"/>
<path d="M229.34 152.54C230.86 152.54 232.1 151.31 232.1 149.78C232.1 148.26 230.87 147.02 229.34 147.02C227.82 147.02 226.58 148.26 226.58 149.78C226.59 151.3 227.82 152.54 229.34 152.54Z" stroke="#0C1414" stroke-width="1.2009" stroke-miterlimit="10"/>
<path d="M218.66 66.74C220.18 66.74 221.42 65.51 221.42 63.98C221.42 62.46 220.19 61.22 218.66 61.22C217.14 61.22 215.9 62.45 215.9 63.98C215.91 65.51 217.14 66.74 218.66 66.74Z" stroke="#0C1414" stroke-width="1.2009" stroke-miterlimit="10"/>
<path d="M388.67 143.45C390.19 143.45 391.43 142.21 391.43 140.69C391.43 139.17 390.2 137.93 388.67 137.93C387.15 137.93 385.91 139.16 385.91 140.69C385.91 142.22 387.15 143.45 388.67 143.45Z" stroke="#0C1414" stroke-width="1.2009" stroke-miterlimit="10"/>
<path d="M439.39 97.74C440.91 97.74 442.15 96.51 442.15 94.98C442.15 93.46 440.92 92.22 439.39 92.22C437.87 92.22 436.63 93.45 436.63 94.98C436.63 96.51 437.86 97.74 439.39 97.74Z" stroke="#0C1414" stroke-width="1.2009" stroke-miterlimit="10"/>
<path d="M274.45 200.14C275.5 200.14 276.35 199.29 276.35 198.25C276.35 197.2 275.5 196.36 274.45 196.36C273.4 196.36 272.56 197.21 272.56 198.25C272.55 199.29 273.4 200.14 274.45 200.14Z" stroke="#0C1414" stroke-width="1.2009" stroke-miterlimit="10"/>
<path d="M246.16 110.5C247.27 110.5 248.16 109.6 248.16 108.5C248.16 107.39 247.26 106.5 246.16 106.5C245.05 106.5 244.16 107.4 244.16 108.5C244.16 109.6 245.06 110.5 246.16 110.5Z" stroke="#0C1414" stroke-width="1.2009" stroke-miterlimit="10"/>
<path d="M172.33 98.73C173.44 98.73 174.33 97.83 174.33 96.73C174.33 95.62 173.43 94.73 172.33 94.73C171.22 94.73 170.33 95.63 170.33 96.73C170.32 97.83 171.22 98.73 172.33 98.73Z" stroke="#0C1414" stroke-width="1.2009" stroke-miterlimit="10"/>
<path d="M376.34 117.02C377.45 117.02 378.34 116.12 378.34 115.02C378.34 113.91 377.44 113.02 376.34 113.02C375.23 113.02 374.34 113.92 374.34 115.02C374.34 116.13 375.24 117.02 376.34 117.02Z" stroke="#0C1414" stroke-width="1.2009" stroke-miterlimit="10"/>
<path d="M210.35 181.2C211.46 181.2 212.35 180.3 212.35 179.2C212.35 178.09 211.45 177.2 210.35 177.2C209.24 177.2 208.35 178.1 208.35 179.2C208.35 180.3 209.25 181.2 210.35 181.2Z" stroke="#0C1414" stroke-width="1.2009" stroke-miterlimit="10"/>
<path d="M374.66 163.88C375.77 163.88 376.66 162.98 376.66 161.88C376.66 160.77 375.76 159.88 374.66 159.88C373.55 159.88 372.66 160.78 372.66 161.88C372.65 162.98 373.55 163.88 374.66 163.88Z" stroke="#0C1414" stroke-width="1.2009" stroke-miterlimit="10"/>
<path d="M383.75 178.93C384.64 178.93 385.37 178.2 385.37 177.31C385.37 176.42 384.64 175.69 383.75 175.69C382.86 175.69 382.13 176.41 382.13 177.31C382.13 178.21 382.86 178.93 383.75 178.93Z" stroke="#0C1414" stroke-width="1.2009" stroke-miterlimit="10"/>
<path d="M315.6 112.36C317.12 112.36 318.36 111.13 318.36 109.6C318.36 108.08 317.13 106.84 315.6 106.84C314.08 106.84 312.84 108.07 312.84 109.6C312.85 111.12 314.08 112.36 315.6 112.36Z" stroke="#0C1414" stroke-width="1.2009" stroke-miterlimit="10"/>
<path d="M219.35 266.26V349.22" stroke="#0C1414" stroke-width="1.2009" stroke-miterlimit="10"/>
<path d="M149.95 203.67L172.96 228.93C173.35 229.27 173.62 229.73 173.72 230.24C173.82 230.75 173.74 231.28 173.49 231.74L161.27 254.82C161.09 255.17 160.99 255.56 161.01 255.96C161.02 256.36 161.13 256.74 161.34 257.08C161.55 257.42 161.83 257.7 162.18 257.89C162.53 258.09 162.91 258.19 163.31 258.19H174.31C174.68 258.19 175.05 258.28 175.38 258.46C175.71 258.64 175.99 258.89 176.2 259.2C176.41 259.51 176.54 259.87 176.58 260.24C176.62 260.61 176.57 260.99 176.43 261.34L152.51 321.7" stroke="white" stroke-width="1.2009" stroke-miterlimit="10"/>
<path d="M122.7 203.67L99.6901 228.93C99.3001 229.27 99.0301 229.73 98.9301 230.24C98.8301 230.75 98.9101 231.28 99.1601 231.74L111.38 254.82C111.57 255.17 111.66 255.56 111.65 255.96C111.64 256.35 111.53 256.74 111.32 257.08C111.11 257.42 110.83 257.7 110.48 257.9C110.13 258.09 109.75 258.2 109.35 258.2H99.5001" stroke="white" stroke-width="1.2009" stroke-miterlimit="10"/>
<path d="M137.16 205.75L114.98 211.73C114.22 211.97 113.42 212.03 112.64 211.9C111.86 211.77 111.11 211.46 110.47 210.99C109.83 210.52 109.31 209.91 108.95 209.2C108.59 208.49 108.4 207.71 108.4 206.91V197.46C108.4 196.69 108.58 195.93 108.92 195.24C109.26 194.55 109.75 193.94 110.36 193.47C110.97 193 111.68 192.67 112.43 192.52C113.19 192.36 113.97 192.38 114.71 192.58L137.15 199.19V205.75H137.16Z" fill="white" stroke="#0C1414" stroke-width="1.2009" stroke-miterlimit="10"/>
<path d="M137.39 198.64L159.57 192.66C160.33 192.42 161.13 192.36 161.91 192.49C162.69 192.62 163.43 192.93 164.08 193.4C164.72 193.87 165.24 194.48 165.6 195.19C165.96 195.9 166.15 196.68 166.15 197.47V206.92C166.15 207.69 165.97 208.45 165.63 209.14C165.29 209.83 164.8 210.44 164.19 210.91C163.58 211.38 162.87 211.71 162.12 211.86C161.37 212.01 160.58 211.99 159.84 211.8L137.4 205.19V198.64H137.39Z" fill="white" stroke="#0C1414" stroke-width="1.2009" stroke-miterlimit="10"/>
<path d="M136.87 208.98C140.94 208.98 144.24 205.68 144.24 201.61C144.24 197.54 140.94 194.24 136.87 194.24C132.8 194.24 129.5 197.54 129.5 201.61C129.51 205.68 132.8 208.98 136.87 208.98Z" fill="white" stroke="#0C1414" stroke-width="1.2009" stroke-miterlimit="10"/>
<path d="M114.98 211.73L136.77 303.21V208.97" stroke="white" stroke-width="1.2009" stroke-linejoin="bevel"/>
<path d="M136.92 303.27L156.04 211.12" stroke="white" stroke-width="1.2009" stroke-miterlimit="10"/>
<path d="M132.74 128.62L144.71 121.44" stroke="#0C1414" stroke-width="1.2009" stroke-miterlimit="10"/>
<path d="M155.1 127.25L164.82 121.44" stroke="#0C1414" stroke-width="1.2009" stroke-miterlimit="10"/>
<path d="M208.23 349.43C208.23 349.43 206.46 360.93 217.07 360.93H239.77" stroke="#0C1414" stroke-width="1.2009" stroke-miterlimit="10"/>
<path d="M125.37 144.94C125.37 144.94 135.05 141.31 143.35 150.99L125.37 144.94Z" fill="white"/>
<path d="M125.37 144.94C125.37 144.94 135.05 141.31 143.35 150.99" stroke="#0C1414" stroke-width="1.2009" stroke-miterlimit="10"/>
<path d="M404.63 206.57C404.63 218.18 395.22 227.59 383.61 227.59C372 227.59 362.59 218.18 362.59 206.57C362.59 194.96 371.8 186.46 383.41 186.46C395.03 186.46 404.63 194.96 404.63 206.57Z" fill="white" stroke="#0C1414" stroke-width="1.2009" stroke-miterlimit="10"/>
<path d="M195.24 151.26V151.59C190.62 151.59 187.91 154.39 187.91 159H187.45C187.45 154.38 184.68 151.6 180.1 151.6V151.27C184.68 151.27 187.45 148.46 187.45 143.86H187.91C187.91 148.46 190.61 151.26 195.24 151.26Z" stroke="#0C1414" stroke-width="1.2009" stroke-miterlimit="10"/>
<path d="M185.45 35.7099V36.2099C178.39 36.2099 174.27 40.4899 174.27 47.5099H173.56C173.56 40.4499 169.33 36.2099 162.34 36.2099V35.7099C169.34 35.7099 173.56 31.4299 173.56 24.3999H174.26C174.27 31.4299 178.39 35.7099 185.45 35.7099Z" stroke="#0C1414" stroke-width="1.2009" stroke-miterlimit="10"/>
<path d="M276.58 70.1399V70.8099C267.06 70.8099 261.49 76.5799 261.49 86.0599H260.54C260.54 76.5299 254.84 70.8099 245.39 70.8099V70.1399C254.83 70.1399 260.54 64.3699 260.54 54.8799H261.49C261.49 64.3699 267.06 70.1399 276.58 70.1399Z" stroke="#0C1414" stroke-width="1.2009" stroke-miterlimit="10"/>
<path d="M224.69 197.1C224.69 197.1 229.58 209.9 231.23 216.6C232.72 222.59 231.95 229.13 225.21 231.3" fill="white"/>
<path d="M224.69 197.1C224.69 197.1 229.58 209.9 231.23 216.6C232.72 222.59 231.95 229.13 225.21 231.3" stroke="#0C1414" stroke-width="1.2009" stroke-miterlimit="10"/>
<path d="M215.36 103.25C215.36 103.25 239.17 92.74 275.77 93.23C316 93.76 331.98 100.69 331.98 100.69" stroke="#0C1414" stroke-width="1.2009" stroke-miterlimit="10"/>
<path d="M380.21 333.73L361.67 332.83C361.03 332.83 360.4 332.67 359.83 332.38C359.26 332.09 358.77 331.66 358.39 331.14C358.01 330.62 357.77 330.02 357.66 329.39C357.56 328.76 357.61 328.11 357.81 327.5L360.16 320.23C360.35 319.64 360.68 319.1 361.11 318.65C361.54 318.2 362.07 317.86 362.66 317.65C363.24 317.44 363.87 317.36 364.49 317.43C365.11 317.5 365.7 317.71 366.23 318.04L381.85 328.69L380.21 333.73Z" fill="white" stroke="#0C1414" stroke-width="1.2009" stroke-miterlimit="10"/>
<path d="M382.15 328.32L400.69 329.22C401.33 329.22 401.96 329.38 402.53 329.67C403.1 329.96 403.59 330.39 403.97 330.91C404.35 331.43 404.59 332.03 404.7 332.66C404.8 333.29 404.75 333.94 404.55 334.55L402.21 341.82C402.02 342.41 401.69 342.95 401.26 343.4C400.83 343.85 400.3 344.19 399.71 344.4C399.12 344.61 398.5 344.69 397.88 344.62C397.26 344.55 396.67 344.34 396.14 344.01L380.52 333.36L382.15 328.32Z" fill="white" stroke="#0C1414" stroke-width="1.2009" stroke-miterlimit="10"/>
<path d="M381.02 336.43C384.31 336.43 386.97 333.76 386.97 330.48C386.97 327.2 384.3 324.53 381.02 324.53C377.74 324.53 375.07 327.2 375.07 330.48C375.07 333.76 377.73 336.43 381.02 336.43Z" fill="white" stroke="#0C1414" stroke-width="1.2009" stroke-miterlimit="10"/>
<path d="M382.8 155.45C402.46 155.45 418.39 149.81 418.39 142.85C418.39 135.89 402.46 130.24 382.8 130.24C363.14 130.24 347.21 135.88 347.21 142.85C347.21 149.81 363.14 155.45 382.8 155.45Z" stroke="#0C1414" stroke-width="1.2009" stroke-miterlimit="10"/>
<path d="M348.23 145.88L379.79 184.71C380.23 185.25 380.78 185.68 381.41 185.98C382.04 186.28 382.73 186.44 383.42 186.44C384.11 186.44 384.79 186.29 385.41 186C386.03 185.71 386.59 185.28 387.03 184.76L416.94 146.42" stroke="#0C1414" stroke-width="1.2009" stroke-miterlimit="10"/>
<path d="M385.46 227.56C385.46 230.58 387.08 232.54 390.98 232.54C393 232.54 397.33 232.54 399.24 232.54C401.66 232.54 406.06 231.84 406.06 235.78H383.33L360.34 235.76C360.34 235.76 359.82 232.48 363.66 232.48C366.24 232.48 371.75 232.55 374.91 232.55C379.4 232.55 381.1 230.25 381.1 227.51" stroke="#0C1414" stroke-width="1.2009" stroke-miterlimit="10"/>
<path d="M152.77 123.95C152.77 123.95 156.33 117.18 148.37 109.73C143.03 104.74 134.49 105.16 134.49 105.16" stroke="#0C1414" stroke-width="1.2009" stroke-miterlimit="10"/>
<path d="M91.4199 164.81C91.4199 164.81 95.8999 174.71 103.2 174.43C108.3 174.23 109.28 166.97 109.28 166.97" stroke="#0C1414" stroke-width="1.2009" stroke-miterlimit="10"/>
<path d="M274.6 237.73L282.15 229.56C284.51 227.01 287.79 225.49 291.27 225.36C294.75 225.22 298.14 226.47 300.69 228.83C303.24 231.19 304.76 234.47 304.89 237.95C305.03 241.43 303.78 244.81 301.42 247.37L294.32 255.05" stroke="#0C1414" stroke-width="1.2009" stroke-miterlimit="10"/>
<path d="M282.5 269.39L290.05 261.22C292.41 258.67 295.69 257.15 299.17 257.02C302.65 256.88 306.03 258.13 308.59 260.49C309.86 261.66 310.88 263.07 311.6 264.63C312.32 266.19 312.73 267.88 312.8 269.61C312.87 271.33 312.6 273.05 312 274.66C311.4 276.28 310.49 277.76 309.33 279.02L302.23 286.7" stroke="#0C1414" stroke-width="1.2009" stroke-miterlimit="10"/>
<path d="M316.27 279.4C317.2 279.91 318.06 280.54 318.83 281.25C321.38 283.61 322.9 286.89 323.03 290.37C323.17 293.85 321.92 297.23 319.56 299.79L312.46 307.47" stroke="#0C1414" stroke-width="1.2009" stroke-miterlimit="10"/>
<path d="M292.75 290.15L296.6 285.98" stroke="#0C1414" stroke-width="1.2009" stroke-miterlimit="10"/>
<path d="M381.19 227.51V186.49" stroke="#0C1414" stroke-width="1.2009" stroke-miterlimit="10"/>
<path d="M385.51 186.6V227.66" stroke="#0C1414" stroke-width="1.2009" stroke-miterlimit="10"/>
<path d="M371.29 217.46H381.31" stroke="#0C1414" stroke-width="1.2009" stroke-miterlimit="10"/>
<path d="M371.29 207.64H381.31" stroke="#0C1414" stroke-width="1.2009" stroke-miterlimit="10"/>
<path d="M371.29 197.82H381.31" stroke="#0C1414" stroke-width="1.2009" stroke-miterlimit="10"/>
<path d="M364.3 165.43C366.56 169.07 372.86 173.28 378.63 171.44C385.05 169.39 386.14 165.71 390.51 164.34C395.5 162.78 399.25 166.11 403.61 163.25C405.83 161.8 409.59 153.74 402.38 150.56C397.74 148.51 393.24 152.47 387.36 152.2C382.18 151.96 377.67 145.65 369.89 147.15C364.3 148.22 358.3 155.74 364.3 165.43Z" stroke="#0C1414" stroke-width="1.2009" stroke-miterlimit="10"/>
<path d="M124.79 388.46V417.91" stroke="#0C1414" stroke-width="1.2009" stroke-miterlimit="10"/>
<path d="M140.69 388.46V417.91" stroke="#0C1414" stroke-width="1.2009" stroke-miterlimit="10"/>
<path d="M96.7402 417.83V447.28" stroke="#0C1414" stroke-width="1.2009" stroke-miterlimit="10"/>
<path d="M112.64 417.83V447.28" stroke="#0C1414" stroke-width="1.2009" stroke-miterlimit="10"/>
<path d="M74.2002 393.95H124.7" stroke="#0C1414" stroke-width="1.2009" stroke-miterlimit="10"/>
<path d="M74.2002 398.74H124.7" stroke="#0C1414" stroke-width="1.2009" stroke-miterlimit="10"/>
<path d="M74.2002 403.54H124.7" stroke="#0C1414" stroke-width="1.2009" stroke-miterlimit="10"/>
<path d="M74.2002 408.33H124.7" stroke="#0C1414" stroke-width="1.2009" stroke-miterlimit="10"/>
<path d="M74.2002 413.12H124.7" stroke="#0C1414" stroke-width="1.2009" stroke-miterlimit="10"/>
<path d="M140.95 393.95H202.73" stroke="#0C1414" stroke-width="1.2009" stroke-miterlimit="10"/>
<path d="M140.95 398.74H202.73" stroke="#0C1414" stroke-width="1.2009" stroke-miterlimit="10"/>
<path d="M140.95 403.54H202.73" stroke="#0C1414" stroke-width="1.2009" stroke-miterlimit="10"/>
<path d="M140.95 408.33H202.73" stroke="#0C1414" stroke-width="1.2009" stroke-miterlimit="10"/>
<path d="M140.95 413.12H202.73" stroke="#0C1414" stroke-width="1.2009" stroke-miterlimit="10"/>
<path d="M46.4102 423.11H96.9102" stroke="#0C1414" stroke-width="1.2009" stroke-miterlimit="10"/>
<path d="M46.4102 427.91H96.9102" stroke="#0C1414" stroke-width="1.2009" stroke-miterlimit="10"/>
<path d="M46.4102 432.7H96.9102" stroke="#0C1414" stroke-width="1.2009" stroke-miterlimit="10"/>
<path d="M46.4102 437.49H96.9102" stroke="#0C1414" stroke-width="1.2009" stroke-miterlimit="10"/>
<path d="M46.4102 442.29H96.9102" stroke="#0C1414" stroke-width="1.2009" stroke-miterlimit="10"/>
<path d="M112.67 423.11H174.45" stroke="#0C1414" stroke-width="1.2009" stroke-miterlimit="10"/>
<path d="M112.67 427.91H174.45" stroke="#0C1414" stroke-width="1.2009" stroke-miterlimit="10"/>
<path d="M112.67 432.7H174.45" stroke="#0C1414" stroke-width="1.2009" stroke-miterlimit="10"/>
<path d="M112.67 437.49H174.45" stroke="#0C1414" stroke-width="1.2009" stroke-miterlimit="10"/>
<path d="M112.67 442.29H174.45" stroke="#0C1414" stroke-width="1.2009" stroke-miterlimit="10"/>
<path d="M25.1001 401.25H54.0801" stroke="#0C1414" stroke-width="1.2009" stroke-miterlimit="10"/>
<path d="M172.02 272.35H207.09V301.2L184.89 315.58L160.98 300.57" stroke="white" stroke-width="1.2009" stroke-miterlimit="10"/>
<path d="M241.99 432.73V352.24" stroke="#0C1414" stroke-width="1.2009" stroke-miterlimit="10"/>
<path d="M274.24 352.24V375.86" stroke="#0C1414" stroke-width="1.2009" stroke-miterlimit="10"/>
<path d="M274.3 451.12V375.77" stroke="#0C1414" stroke-width="1.2009" stroke-miterlimit="10"/>
<path d="M306.54 375.77V451.12" stroke="#0C1414" stroke-width="1.2009" stroke-miterlimit="10"/>
<path d="M258.12 361.31C267 361.31 274.2 357.26 274.2 352.27C274.2 347.28 267 343.23 258.12 343.23C249.24 343.23 242.04 347.28 242.04 352.27C242.04 357.26 249.24 361.31 258.12 361.31Z" stroke="#0C1414" stroke-width="1.2009" stroke-miterlimit="10"/>
<path d="M274.23 432.68C274.23 437.67 267 441.98 258.12 441.98C249.24 441.98 242 437.67 242 432.68" stroke="#0C1414" stroke-width="1.2009" stroke-miterlimit="10"/>
<path d="M290.44 384.68C299.32 384.68 306.52 380.63 306.52 375.64C306.52 370.65 299.32 366.6 290.44 366.6C281.56 366.6 274.36 370.65 274.36 375.64C274.35 380.64 281.56 384.68 290.44 384.68Z" stroke="#0C1414" stroke-width="1.2009" stroke-miterlimit="10"/>
<path d="M306.53 451.12C306.53 456.11 299.32 460.25 290.43 460.25C281.54 460.25 274.3 456.12 274.3 451.12" stroke="#0C1414" stroke-width="1.2009" stroke-miterlimit="10"/>
<path d="M348.58 428.55V433.16C348.58 438.15 341.38 442.2 332.5 442.2C323.62 442.2 316.42 438.15 316.42 433.16V428.55" stroke="#0C1414" stroke-width="1.2009" stroke-miterlimit="10"/>
<path d="M332.49 437.59C341.37 437.59 348.57 433.54 348.57 428.55C348.57 423.56 341.37 419.51 332.49 419.51C323.61 419.51 316.41 423.56 316.41 428.55C316.41 433.54 323.61 437.59 332.49 437.59Z" stroke="#0C1414" stroke-width="1.2009" stroke-miterlimit="10"/>
<path d="M228.8 424.78V429.39C228.8 434.38 221.6 438.43 212.72 438.43C203.84 438.43 196.64 434.38 196.64 429.39V424.78" stroke="#0C1414" stroke-width="1.2009" stroke-miterlimit="10"/>
<path d="M212.72 433.82C221.6 433.82 228.8 429.77 228.8 424.78C228.8 419.79 221.6 415.74 212.72 415.74C203.84 415.74 196.64 419.79 196.64 424.78C196.63 429.78 203.83 433.82 212.72 433.82Z" stroke="#0C1414" stroke-width="1.2009" stroke-miterlimit="10"/>
<path d="M205.04 451.26V455.87C205.04 460.86 197.84 464.91 188.96 464.91C180.08 464.91 172.88 460.86 172.88 455.87V451.26" stroke="#0C1414" stroke-width="1.2009" stroke-miterlimit="10"/>
<path d="M188.96 460.3C197.84 460.3 205.04 456.25 205.04 451.26C205.04 446.27 197.84 442.22 188.96 442.22C180.08 442.22 172.88 446.27 172.88 451.26C172.87 456.25 180.07 460.3 188.96 460.3Z" stroke="#0C1414" stroke-width="1.2009" stroke-miterlimit="10"/>
<path d="M374.49 444.39V449C374.49 453.99 367.29 458.04 358.41 458.04C349.53 458.04 342.33 453.99 342.33 449V444.39" stroke="#0C1414" stroke-width="1.2009" stroke-miterlimit="10"/>
<path d="M358.4 453.43C367.28 453.43 374.48 449.38 374.48 444.39C374.48 439.4 367.28 435.35 358.4 435.35C349.52 435.35 342.32 439.4 342.32 444.39C342.32 449.38 349.52 453.43 358.4 453.43Z" stroke="#0C1414" stroke-width="1.2009" stroke-miterlimit="10"/>
<path d="M299.43 54.09C301 54.88 302.32 56.1 303.23 57.6C304.14 59.11 304.6 60.84 304.57 62.6C304.54 63.91 304.88 65.21 305.56 66.34C306.23 67.47 307.22 68.38 308.39 68.98C309.57 69.57 310.89 69.81 312.19 69.68C313.5 69.55 314.74 69.05 315.78 68.24C317.17 67.16 318.84 66.5 320.59 66.33C322.34 66.16 324.1 66.49 325.68 67.28C327.25 68.07 328.57 69.29 329.48 70.79C330.39 72.3 330.85 74.03 330.82 75.79C330.79 77.1 331.13 78.4 331.81 79.53C332.49 80.66 333.46 81.57 334.64 82.17C335.82 82.76 337.13 83 338.44 82.87C339.75 82.74 340.99 82.24 342.03 81.43C343.42 80.35 345.09 79.6899 346.84 79.52C348.59 79.35 350.36 79.68 351.93 80.47C353.5 81.26 354.82 82.48 355.73 83.99C356.64 85.5 357.1 87.23 357.07 88.99C357.04 90.31 357.38 91.6 358.05 92.73C358.73 93.86 359.71 94.77 360.88 95.37C362.06 95.96 363.37 96.2 364.68 96.07C365.99 95.94 367.23 95.44 368.27 94.63C369.66 93.5499 371.33 92.89 373.08 92.72C374.83 92.55 376.59 92.88 378.17 93.67C379.74 94.46 381.06 95.68 381.97 97.19C382.88 98.7 383.34 100.43 383.31 102.19C383.28 103.51 383.62 104.8 384.3 105.93C384.97 107.06 385.96 107.97 387.13 108.57C388.31 109.16 389.62 109.4 390.93 109.27C392.24 109.14 393.48 108.64 394.52 107.83C395.63 106.97 396.92 106.37 398.29 106.08C399.66 105.79 401.08 105.81 402.44 106.14C403.8 106.47 405.07 107.11 406.15 108C407.23 108.89 408.1 110.02 408.68 111.29C409.31 112.66 411.3 112.49 411.7 111.03C417.25 90.85 408.01 68.9 388.59 59.15L347.11 38.3C327.59 28.49 304.32 34.29 291.48 50.99C290.53 52.23 291.72 53.95 293.22 53.52C295.22 52.93 297.34 53.05 299.43 54.09Z" fill="white" stroke="#0C1414" stroke-width="1.2009" stroke-miterlimit="10"/>
<path d="M306.46 381.84C306.46 386.86 299.25 390.92 290.36 390.92C281.46 390.92 274.25 386.85 274.25 381.84" stroke="#0C1414" stroke-width="1.2009" stroke-miterlimit="10"/>
<path d="M306.46 389.87C306.46 394.89 299.25 398.95 290.36 398.95C281.46 398.95 274.25 394.88 274.25 389.87" stroke="#0C1414" stroke-width="1.2009" stroke-miterlimit="10"/>
<path d="M306.46 397.9C306.46 402.92 299.25 406.98 290.36 406.98C281.46 406.98 274.25 402.91 274.25 397.9" stroke="#0C1414" stroke-width="1.2009" stroke-miterlimit="10"/>
<path d="M306.46 413.97C306.46 418.99 299.25 423.05 290.36 423.05C281.46 423.05 274.25 418.98 274.25 413.97" stroke="#0C1414" stroke-width="1.2009" stroke-miterlimit="10"/>
<path d="M306.46 422C306.46 427.02 299.25 431.08 290.36 431.08C281.46 431.08 274.25 427.01 274.25 422" stroke="#0C1414" stroke-width="1.2009" stroke-miterlimit="10"/>
<path d="M306.46 405.94C306.46 410.96 299.25 415.02 290.36 415.02C281.46 415.02 274.25 410.95 274.25 405.94" stroke="#0C1414" stroke-width="1.2009" stroke-miterlimit="10"/>
<path d="M306.46 430.04C306.46 435.06 299.25 439.12 290.36 439.12C281.46 439.12 274.25 435.05 274.25 430.04" stroke="#0C1414" stroke-width="1.2009" stroke-miterlimit="10"/>
<path d="M306.46 438.07C306.46 443.09 299.25 447.15 290.36 447.15C281.46 447.15 274.25 443.08 274.25 438.07" stroke="#0C1414" stroke-width="1.2009" stroke-miterlimit="10"/>
<path d="M306.46 446.11C306.46 451.13 299.25 455.19 290.36 455.19C281.46 455.19 274.25 451.12 274.25 446.11" stroke="#0C1414" stroke-width="1.2009" stroke-miterlimit="10"/>
<path d="M274.17 359.76C274.17 364.78 266.96 368.85 258.07 368.85C249.18 368.85 241.97 364.78 241.97 359.76" stroke="#0C1414" stroke-width="1.2009" stroke-miterlimit="10"/>
<path d="M274.17 367.79C274.17 372.81 266.96 376.87 258.07 376.87C249.18 376.87 241.97 372.8 241.97 367.79" stroke="#0C1414" stroke-width="1.2009" stroke-miterlimit="10"/>
<path d="M274.17 375.83C274.17 380.85 266.96 384.91 258.07 384.91C249.18 384.91 241.97 380.84 241.97 375.83" stroke="#0C1414" stroke-width="1.2009" stroke-miterlimit="10"/>
<path d="M274.17 391.89C274.17 396.91 266.96 400.98 258.07 400.98C249.18 400.98 241.97 396.91 241.97 391.89" stroke="#0C1414" stroke-width="1.2009" stroke-miterlimit="10"/>
<path d="M274.17 399.93C274.17 404.95 266.96 409.01 258.07 409.01C249.18 409.01 241.97 404.94 241.97 399.93" stroke="#0C1414" stroke-width="1.2009" stroke-miterlimit="10"/>
<path d="M274.17 383.86C274.17 388.88 266.96 392.94 258.07 392.94C249.18 392.94 241.97 388.87 241.97 383.86" stroke="#0C1414" stroke-width="1.2009" stroke-miterlimit="10"/>
<path d="M274.17 407.96C274.17 412.98 266.96 417.04 258.07 417.04C249.18 417.04 241.97 412.97 241.97 407.96" stroke="#0C1414" stroke-width="1.2009" stroke-miterlimit="10"/>
<path d="M274.17 415.99C274.17 421.01 266.96 425.07 258.07 425.07C249.18 425.07 241.97 421 241.97 415.99" stroke="#0C1414" stroke-width="1.2009" stroke-miterlimit="10"/>
<path d="M274.17 424.03C274.17 429.05 266.96 433.11 258.07 433.11C249.18 433.11 241.97 429.04 241.97 424.03" stroke="#0C1414" stroke-width="1.2009" stroke-miterlimit="10"/>
<path d="M332.69 390.45L353.26 376.07L370.74 379.7L361.01 408.3L330.15 408.09L332.69 390.45Z" fill="white" stroke="black" stroke-width="1.2009" stroke-miterlimit="10"/>
<path d="M330.16 408.08L370.75 379.7" stroke="black" stroke-width="1.2009" stroke-miterlimit="10"/>
<path d="M361.02 408.29L343.34 383.01" stroke="black" stroke-width="1.2009" stroke-miterlimit="10"/>
<path d="M332.69 390.45L341.07 392.52L352.38 384.61L353.32 376.03" stroke="black" stroke-width="1.2009" stroke-miterlimit="10"/>
<path d="M341.07 392.52L339.65 400.85L360.55 407.63L361.33 386.18L352.38 384.61" stroke="black" stroke-width="1.2009" stroke-miterlimit="10"/>
<path d="M454.77 396.85H403.44C398.92 396.85 395.25 400.52 395.25 405.04V430.91C395.25 435.43 398.92 439.1 403.44 439.1H454.77C459.29 439.1 462.96 435.43 462.96 430.91V405.04C462.96 400.52 459.3 396.85 454.77 396.85Z" stroke="#0C1414" stroke-width="1.2009" stroke-miterlimit="10"/>
<path d="M395.09 405.93H462.93" stroke="#0C1414" stroke-width="1.2009" stroke-miterlimit="10"/>
<path d="M395.09 412.86H462.93" stroke="#0C1414" stroke-width="1.2009" stroke-miterlimit="10"/>
<path d="M438.83 402.52H387.5C382.98 402.52 379.31 406.19 379.31 410.71V436.58C379.31 441.1 382.98 444.77 387.5 444.77H438.83C443.35 444.77 447.02 441.1 447.02 436.58V410.71C447.02 406.19 443.36 402.52 438.83 402.52Z" fill="white" stroke="#0C1414" stroke-width="1.2009" stroke-miterlimit="10"/>
<path d="M379.15 411.61H446.99" stroke="#0C1414" stroke-width="1.2009" stroke-miterlimit="10"/>
<path d="M379.15 418.54H446.99" stroke="#0C1414" stroke-width="1.2009" stroke-miterlimit="10"/>
<path d="M385.83 436.16H421.51" stroke="#0C1414" stroke-width="1.2009" stroke-miterlimit="10"/>
<path d="M386.1 61.3501C386.1 61.3501 398.15 80.6801 389.86 103.78" stroke="#0C1414" stroke-width="1.2009" stroke-miterlimit="10"/>
<path d="M370.28 55.0701C370.28 55.0701 374.3 72.8901 364 89.4601" stroke="#0C1414" stroke-width="1.2009" stroke-miterlimit="10"/>
<path d="M358.73 50.3C358.73 50.3 342.41 57.3301 336.89 76.4101" stroke="#0C1414" stroke-width="1.2009" stroke-miterlimit="10"/>
<path d="M311.03 62.35C311.03 62.35 322.33 42.02 342.66 42.77" stroke="#0C1414" stroke-width="1.2009" stroke-miterlimit="10"/>
<path d="M181.19 79.6001L107.95 17.5701" stroke="#0C1414" stroke-width="1.2009" stroke-miterlimit="10"/>
<path d="M240.42 47.9201L217.72 16.8201" stroke="#0C1414" stroke-width="1.2009" stroke-miterlimit="10"/>
<path d="M284.18 31.8401L284.13 10.0901" stroke="#0C1414" stroke-width="1.2009" stroke-miterlimit="10"/>
<path d="M406.86 51.2799L440.48 25.8799" stroke="#0C1414" stroke-width="1.2009" stroke-miterlimit="10"/>
<path d="M426.19 78.18L463.18 69.77" stroke="#0C1414" stroke-width="1.2009" stroke-miterlimit="10"/>
<path d="M432.92 112.65L459.83 114.45" stroke="#0C1414" stroke-width="1.2009" stroke-miterlimit="10"/>
<path d="M354.15 8.76001L350.43 25.13" stroke="#0C1414" stroke-width="1.2009" stroke-miterlimit="10"/>
<path d="M17.8501 194.47L63.6201 196.27" stroke="#0C1414" stroke-width="1.2009" stroke-miterlimit="10"/>
<path d="M25.0298 231.27L47.4698 224.99" stroke="#0C1414" stroke-width="1.2009" stroke-miterlimit="10"/>
<path d="M147.62 136.44C147.62 141.68 143.38 145.92 138.14 145.92C136.54 145.92 135.04 145.53 133.72 144.83L143.14 128.38C145.84 130.06 147.62 133.04 147.62 136.44Z" fill="#0C1414"/>
</g>
<defs>
<clipPath id="clip0">
<rect width="475.9" height="466.54" fill="white"/>
</clipPath>
</defs>
</svg>
