<svg width="765" height="651" viewBox="0 0 765 651" fill="none" xmlns="http://www.w3.org/2000/svg">
<path d="M65.677 564.003V564.351C60.7837 564.351 57.9351 567.328 57.9351 572.172H57.4487C57.4487 567.289 54.471 564.351 49.677 564.351V564.003C54.5207 564.003 57.4487 561.026 57.4487 556.172H57.9351C57.9351 561.036 60.7837 564.003 65.677 564.003Z" fill="#1F1F1F"/>
<path d="M677.744 41.153C670.798 42.9779 548.891 118.202 488.805 155.587M745.781 58.2606C740.409 62.8134 641.232 104.174 582.707 133.235" stroke="#232323" stroke-width="2"/>
<path d="M128.09 606.45C128.09 606.45 116.618 553.89 171.021 529.7C239.677 499.172 304.016 564.283 276.218 588.37C248.421 612.458 199.062 509.611 249.408 478.172" stroke="#232323" stroke-width="2"/>
<path d="M274.677 31.8346V32.5294C264.89 32.5294 259.193 38.4848 259.193 48.1721H258.22C258.22 38.4054 252.265 32.5294 242.677 32.5294V31.8346C252.364 31.8346 258.22 25.8793 258.22 16.1721H259.193C259.193 25.8992 264.89 31.8346 274.677 31.8346Z" stroke="#1F1F1F" stroke-width="2" stroke-miterlimit="10"/>
<circle cx="466.677" cy="548.172" r="7" stroke="#232323" stroke-width="2"/>
<circle cx="489.677" cy="446.172" r="4" fill="#232323"/>
<circle cx="100.677" cy="394.172" r="2" fill="#232323"/>
<circle cx="479.677" cy="57.1721" r="4" stroke="#232323" stroke-width="2"/>
<circle cx="542.677" cy="2.17212" r="2" fill="#232323"/>
<circle cx="684.677" cy="362.172" r="2" fill="#232323"/>
<circle cx="762.677" cy="290.172" r="2" fill="#232323"/>
<circle cx="576.677" cy="41.1721" r="1" fill="#232323"/>
<circle cx="19.677" cy="273.172" r="1" fill="#232323"/>
<circle cx="1.677" cy="409.172" r="1" fill="#232323"/>
</svg>
