<svg width="563" height="582" viewBox="0 0 563 582" fill="none" xmlns="http://www.w3.org/2000/svg">
<path d="M562 122.641V123.38C551.602 123.38 545.548 129.707 545.548 140H544.515C544.515 129.623 538.187 123.38 528 123.38V122.641C538.293 122.641 544.515 116.314 544.515 106H545.548C545.548 116.335 551.602 122.641 562 122.641Z" stroke="#1F1F1F" stroke-width="2" stroke-miterlimit="10"/>
<path d="M78 89.8313V90.1787C73.1067 90.1787 70.2581 93.1563 70.2581 98H69.7717C69.7717 93.1166 66.794 90.1787 62 90.1787V89.8313C66.8437 89.8313 69.7717 86.8536 69.7717 82H70.2581C70.2581 86.8635 73.1067 89.8313 78 89.8313Z" fill="#1F1F1F"/>
<path d="M374 389.831V390.179C369.107 390.179 366.258 393.156 366.258 398H365.772C365.772 393.117 362.794 390.179 358 390.179V389.831C362.844 389.831 365.772 386.854 365.772 382H366.258C366.258 386.864 369.107 389.831 374 389.831Z" fill="#1F1F1F"/>
<circle cx="280" cy="2" r="2" fill="#232323"/>
<circle cx="2" cy="484" r="2" fill="#232323"/>
<circle cx="142" cy="580" r="2" fill="#232323"/>
<circle cx="483" cy="450" r="4" stroke="#232323" stroke-width="2"/>
<circle cx="516" cy="376" r="2" fill="#232323"/>
<circle cx="381" cy="113" r="1" fill="#232323"/>
<circle cx="165" cy="59" r="1" fill="#232323"/>
<circle cx="1" cy="59" r="1" fill="#232323"/>
<circle cx="319" cy="187" r="1" fill="#232323"/>
</svg>
