<svg width="224" height="470" viewBox="0 0 224 470" fill="none" xmlns="http://www.w3.org/2000/svg">
<path d="M17.7952 457.601V457.971C12.596 457.971 9.56936 461.134 9.56936 466.281H9.05261C9.05261 461.092 5.88884 457.971 0.795166 457.971V457.601C5.94157 457.601 9.05261 454.438 9.05261 449.281H9.56936C9.56936 454.448 12.596 457.601 17.7952 457.601Z" stroke="#1F1F1F" stroke-miterlimit="10"/>
<path d="M190.795 93.1965V93.3702C188.349 93.3702 186.924 94.859 186.924 97.2809H186.681C186.681 94.8392 185.192 93.3702 182.795 93.3702V93.1965C185.217 93.1965 186.681 91.7077 186.681 89.2809H186.924C186.924 91.7126 188.349 93.1965 190.795 93.1965Z" fill="#1F1F1F"/>
<circle cx="113.295" cy="417.781" r="2.5" stroke="#232323"/>
<circle cx="101.795" cy="468.281" r="1" fill="#232323"/>
<circle cx="222.795" cy="56.2809" r="1" fill="#232323"/>
<circle cx="166.795" cy="1.28088" r="1" fill="#232323"/>
</svg>
