<svg width="81" height="218" viewBox="0 0 81 218" fill="none" xmlns="http://www.w3.org/2000/svg">
<path d="M38 3.91563V4.08933C35.5534 4.08933 34.129 5.57816 34.129 8H33.8859C33.8859 5.55831 32.397 4.08933 30 4.08933V3.91563C32.4218 3.91563 33.8859 2.4268 33.8859 0H34.129C34.129 2.43176 35.5534 3.91563 38 3.91563Z" fill="#1F1F1F"/>
<path d="M18 208.321V208.69C12.8009 208.69 9.77419 211.854 9.77419 217H9.25744C9.25744 211.811 6.09367 208.69 1 208.69V208.321C6.1464 208.321 9.25744 205.157 9.25744 200H9.77419C9.77419 205.167 12.8009 208.321 18 208.321Z" stroke="#1F1F1F" stroke-miterlimit="10"/>
<circle cx="80" cy="119" r="1" fill="#232323"/>
</svg>
