<svg width="346" height="440" viewBox="0 0 346 440" fill="none" xmlns="http://www.w3.org/2000/svg">
<path d="M309.714 3.77742C306.388 4.65131 248.01 40.674 219.237 58.5761M342.295 11.9697C339.722 14.1499 292.23 33.9561 264.204 47.8725" stroke="#232323" stroke-width="2"/>
<path d="M185.303 17.7024V18.0498C180.715 18.0498 178.045 21.0274 178.045 25.8711H177.589C177.589 20.9877 174.797 18.0498 170.303 18.0498V17.7024C174.844 17.7024 177.589 14.7247 177.589 9.87109H178.045C178.045 14.7346 180.715 17.7024 185.303 17.7024Z" stroke="#1F1F1F" stroke-width="2" stroke-miterlimit="10"/>
<path d="M159.303 53.3184V53.4269C157.774 53.4269 156.883 54.3574 156.883 55.8711H156.731C156.731 54.345 155.801 53.4269 154.303 53.4269V53.3184C155.816 53.3184 156.731 52.3878 156.731 50.8711H156.883C156.883 52.3909 157.774 53.3184 159.303 53.3184Z" fill="#1F1F1F"/>
<path d="M105.303 35.4082V35.5168C103.774 35.5168 102.883 36.4473 102.883 37.9609H102.731C102.731 36.4349 101.801 35.5168 100.303 35.5168V35.4082C101.816 35.4082 102.731 34.4777 102.731 32.9609H102.883C102.883 34.4808 103.774 35.4082 105.303 35.4082Z" fill="#1F1F1F"/>
<path d="M8.73458 62.6361C8.73458 62.6361 31.9905 73.5537 53.0265 58.938C64.3789 51.084 69.1938 36.0861 67.7081 26.9665C66.5698 20.0077 61.5861 16.8499 58.0011 18.7511C53.813 20.902 54.1379 27.0393 57.3126 30.7235C62.7261 37.0004 75.7314 40.5493 85.5391 32.4999C96.1956 23.7618 93.3755 10.4682 93.3755 10.4682" stroke="#232323" stroke-width="2" stroke-miterlimit="10"/>
<path d="M49.3027 303.192V303.561C44.1036 303.561 41.0769 306.725 41.0769 311.871H40.5602C40.5602 306.683 37.3964 303.561 32.3027 303.561V303.192C37.4491 303.192 40.5602 300.028 40.5602 294.871H41.0769C41.0769 300.039 44.1036 303.192 49.3027 303.192Z" stroke="#1F1F1F" stroke-width="2" stroke-miterlimit="10"/>
<path d="M219.068 384.324C213.479 358.284 230.118 344.561 245.324 337.385C282.037 320.059 326.662 358.535 309.662 373.267C292.661 387.998 262.474 325.099 293.265 305.871" stroke="#232323" stroke-width="2"/>
<circle cx="112.803" cy="350.371" r="2.5" stroke="#232323" stroke-width="2"/>
<circle cx="101.303" cy="400.871" r="1" fill="#232323"/>
<circle cx="21.3027" cy="342.871" r="1" fill="#232323"/>
<circle cx="191.303" cy="386.871" r="1" fill="#232323"/>
<circle cx="294.303" cy="437.871" r="2" fill="#232323"/>
</svg>
