<svg viewBox="0 0 1150 586" fill="none" xmlns="http://www.w3.org/2000/svg">
<path d="M1076.07 66.9809C1069.12 68.8058 947.214 144.03 887.128 181.414M1144.1 84.0884C1138.73 88.6413 1039.55 130.002 981.03 159.063" stroke="#232323" stroke-width="2"/>
<path d="M881 24.9832V26.0471C866.014 26.0471 857.29 35.1663 857.29 50H855.801C855.801 35.0447 846.682 26.0471 832 26.0471V24.9832C846.834 24.9832 855.801 15.8641 855.801 1H857.29C857.29 15.8945 866.014 24.9832 881 24.9832Z" stroke="#1F1F1F" stroke-width="2" stroke-miterlimit="10"/>
<path d="M77 425.663V426.357C67.2134 426.357 61.5161 432.313 61.5161 442H60.5434C60.5434 432.233 54.5881 426.357 45 426.357V425.663C54.6873 425.663 60.5434 419.707 60.5434 410H61.5161C61.5161 419.727 67.2134 425.663 77 425.663Z" stroke="#1F1F1F" stroke-width="2" stroke-miterlimit="10"/>
<path d="M544 173.916V174.089C541.553 174.089 540.129 175.578 540.129 178H539.886C539.886 175.558 538.397 174.089 536 174.089V173.916C538.422 173.916 539.886 172.427 539.886 170H540.129C540.129 172.432 541.553 173.916 544 173.916Z" fill="#1F1F1F"/>
<path d="M329 86.8313V87.1787C324.107 87.1787 321.259 90.1563 321.259 95H320.772C320.772 90.1166 317.795 87.1787 313 87.1787V86.8313C317.844 86.8313 320.772 83.8536 320.772 79H321.259C321.259 83.8635 324.107 86.8313 329 86.8313Z" fill="#1F1F1F"/>
<path d="M800 137.831V138.179C795.107 138.179 792.258 141.156 792.258 146H791.772C791.772 141.117 788.794 138.179 784 138.179V137.831C788.844 137.831 791.772 134.854 791.772 130H792.258C792.258 134.864 795.107 137.831 800 137.831Z" fill="#1F1F1F"/>
<path d="M24.3432 172.732C24.3432 172.732 97.3891 207.024 163.462 161.117C199.119 136.448 214.243 89.34 209.576 60.6958C206.001 38.8382 190.347 28.9198 179.087 34.8915C165.932 41.6474 166.953 60.9243 176.924 72.4963C193.928 92.2116 234.777 103.358 265.583 78.0758C299.054 50.6297 290.197 8.87517 290.197 8.87517" stroke="#232323" stroke-width="2" stroke-miterlimit="10"/>
<path d="M908.413 542.278C899.274 499.7 926.481 477.262 951.344 465.528C1011.37 437.198 1084.34 500.111 1056.54 524.198C1028.74 548.286 979.385 445.439 1029.73 414" stroke="#232323" stroke-width="2"/>
<circle cx="408" cy="482" r="7" stroke="#232323" stroke-width="2"/>
<circle cx="372" cy="438" r="4" fill="#232323"/>
<circle cx="114" cy="542" r="2" fill="#232323"/>
<circle cx="606" cy="429" r="2" fill="#232323"/>
<circle cx="934" cy="432.999" r="2" fill="#232323"/>
</svg>
