<svg width="1023" height="656" viewBox="0 0 1023 656" fill="none" xmlns="http://www.w3.org/2000/svg">
<g clip-path="url(#clip0)">
<path d="M933.006 422.712C933.006 422.712 964.001 449.106 950.001 477.255C935.741 505.989 869.778 492.337 869.778 492.337C922.001 512.295 954.624 533.228 978.392 558.841C994.28 576.004 994.15 589.071 987.833 594.727C975.592 605.648 951.303 587.445 929.75 572.168C912.316 559.791 838.212 511.55 810.878 493.755L810.197 493.312C804.467 489.607 801.667 482.716 803.165 476.085C804.597 469.584 809.937 464.643 816.514 463.473C822.634 462.433 829.081 459.572 829.081 452.356C829.081 422.821 733.905 421.612 736.259 363.39C717.636 366.9 707.9 357.378 707.9 357.378C707.9 357.378 703.212 370.51 694.812 367.714C685.566 364.659 692.663 352.502 692.663 352.502C692.663 352.502 681.268 358.548 678.924 350.357C676.645 342.556 689.863 339.435 689.863 339.435C689.863 339.435 675.408 338.59 676.319 329.359C677.361 318.632 695.268 325.393 695.268 325.393C695.268 325.393 681.984 314.017 685.37 303.615C688.17 295.034 703.863 291.588 723.463 301.925C742.672 312.001 751.723 331.699 751.723 331.699M1022.93 257.784C953.843 204.931 883.322 214.618 820.551 191.214C795.546 181.918 779.398 188.289 775.36 201.551C769.305 221.313 793.137 239.256 824.393 263.569C851.871 284.958 921.09 333.454 1013.62 332.544C1013.62 332.544 999.424 340.28 993.629 361.538C988.159 381.561 999.424 399.569 999.424 399.569C999.424 399.569 925.583 339.695 840.672 320.973C815.581 315.43 796.002 315.095 780.935 318.009C768.236 320.464 758.865 325.641 751.978 331.537M823.956 441.572C823.956 441.572 800.69 438.184 787.797 452.356C766.895 475.305 787.797 506.444 767.156 510.995C753.937 513.855 751.333 493.637 735.444 483.561C724.114 476.41 710.375 480.05 703.277 490.972C703.277 490.972 732.536 534.219 770.998 530.237C799.258 527.312 800.058 506.931 830.988 506.931M1022.87 232.69C969.796 186.143 912.364 194.075 859.881 179.448C845.425 175.417 822.439 171.516 814.495 188.874M905.267 507.094C988.68 504.689 1022.87 464.058 1022.87 464.058" stroke="#443D35" stroke-width="2" stroke-miterlimit="10" stroke-linecap="round" stroke-linejoin="round"/>
<path d="M1023.13 278.847C1023.13 278.847 990.894 280.602 960.029 273.191C914.773 262.334 849.462 224.369 820.095 211.887C803.946 204.996 795.025 204.281 791.77 210.392C788.774 215.983 794.114 224.499 803.555 231.52C854.151 269.03 944.206 321.168 1022.74 310.246" fill="#443D35"/>
<path d="M293.29 634.877C293.094 635.393 293.354 635.97 293.871 636.166C294.387 636.362 294.965 636.101 295.16 635.585L293.29 634.877ZM580.365 400.646L580.355 399.646L580.365 400.646ZM690.037 444.35C690.378 444.784 691.007 444.86 691.441 444.519C691.876 444.178 691.951 443.549 691.61 443.115L690.037 444.35ZM596.28 416.899C595.742 417.022 595.405 417.558 595.528 418.097C595.651 418.635 596.187 418.972 596.726 418.849L596.28 416.899ZM636.326 420.56L636.035 421.517V421.517L636.326 420.56ZM672.188 441.183C672.57 441.582 673.203 441.597 673.602 441.216C674.002 440.835 674.017 440.202 673.635 439.802L672.188 441.183ZM625.474 433.586C624.923 433.632 624.514 434.115 624.56 434.666C624.606 435.216 625.089 435.625 625.639 435.579L625.474 433.586ZM664.801 448.328C665.251 448.648 665.875 448.542 666.195 448.092C666.515 447.642 666.41 447.018 665.96 446.698L664.801 448.328ZM290.601 635.09C290.518 635.636 290.894 636.146 291.44 636.229C291.986 636.312 292.496 635.937 292.578 635.391L290.601 635.09ZM-2.7343 530.256C-3.21312 530.531 -3.37817 531.142 -3.10294 531.621C-2.82772 532.1 -2.21644 532.265 -1.73762 531.99L-2.7343 530.256ZM294.225 635.231C295.16 635.585 295.16 635.584 295.161 635.583C295.162 635.581 295.162 635.579 295.164 635.576C295.166 635.569 295.17 635.559 295.175 635.545C295.186 635.518 295.201 635.477 295.223 635.422C295.265 635.312 295.329 635.147 295.415 634.929C295.586 634.492 295.844 633.843 296.189 632.995C296.879 631.299 297.918 628.807 299.312 625.634C302.1 619.287 306.304 610.213 311.969 599.316C323.3 577.519 340.465 548.44 363.802 519.305C410.49 461.018 481.772 402.63 580.375 401.646L580.355 399.646C480.897 400.638 409.109 459.543 362.241 518.054C338.801 547.318 321.568 576.515 310.195 598.394C304.507 609.334 300.284 618.448 297.481 624.83C296.079 628.021 295.033 630.529 294.336 632.241C293.988 633.097 293.727 633.754 293.553 634.198C293.466 634.42 293.4 634.589 293.356 634.703C293.335 634.759 293.318 634.802 293.307 634.832C293.301 634.846 293.297 634.857 293.294 634.865C293.293 634.868 293.292 634.871 293.291 634.873C293.29 634.875 293.29 634.877 294.225 635.231ZM580.375 401.646C618.195 401.268 645.63 411.979 663.598 422.762C672.585 428.155 679.208 433.568 683.579 437.626C685.764 439.655 687.385 441.344 688.457 442.523C688.993 443.112 689.391 443.573 689.654 443.885C689.786 444.04 689.883 444.159 689.947 444.237C689.979 444.276 690.002 444.306 690.017 444.324C690.025 444.334 690.03 444.341 690.034 444.345C690.035 444.347 690.036 444.348 690.037 444.349C690.037 444.35 690.037 444.35 690.037 444.35C690.037 444.35 690.037 444.35 690.824 443.732C691.61 443.115 691.61 443.114 691.609 443.113C691.609 443.113 691.608 443.112 691.608 443.111C691.606 443.109 691.604 443.107 691.602 443.104C691.596 443.097 691.589 443.088 691.58 443.076C691.561 443.053 691.534 443.019 691.499 442.976C691.428 442.888 691.323 442.761 691.183 442.595C690.905 442.265 690.49 441.785 689.936 441.177C688.829 439.96 687.169 438.23 684.939 436.16C680.481 432.021 673.749 426.52 664.627 421.047C646.378 410.096 618.584 399.264 580.355 399.646L580.375 401.646ZM596.503 417.874C596.726 418.849 596.726 418.849 596.725 418.849C596.725 418.849 596.725 418.849 596.725 418.849C596.726 418.849 596.726 418.849 596.727 418.849C596.728 418.848 596.73 418.848 596.734 418.847C596.741 418.845 596.752 418.843 596.768 418.839C596.798 418.833 596.846 418.823 596.91 418.809C597.039 418.783 597.233 418.744 597.489 418.696C598.002 418.602 598.765 418.472 599.751 418.337C601.725 418.068 604.592 417.776 608.146 417.692C615.257 417.523 625.103 418.188 636.035 421.517L636.618 419.604C625.438 416.199 615.372 415.52 608.099 415.692C604.461 415.778 601.519 416.077 599.48 416.356C598.461 416.495 597.667 416.63 597.125 416.73C596.854 416.78 596.646 416.821 596.504 416.851C596.433 416.866 596.379 416.877 596.341 416.885C596.323 416.889 596.308 416.893 596.298 416.895C596.293 416.896 596.289 416.897 596.286 416.898C596.284 416.898 596.283 416.898 596.282 416.899C596.282 416.899 596.281 416.899 596.281 416.899C596.281 416.899 596.28 416.899 596.503 417.874ZM636.035 421.517C648.311 425.255 657.369 430.192 663.349 434.185C666.339 436.182 668.559 437.942 670.027 439.198C670.761 439.826 671.307 440.328 671.666 440.67C671.846 440.841 671.979 440.972 672.066 441.059C672.109 441.102 672.141 441.135 672.162 441.156C672.172 441.166 672.179 441.174 672.184 441.178C672.186 441.18 672.187 441.182 672.188 441.183C672.189 441.183 672.189 441.183 672.189 441.183C672.189 441.183 672.189 441.183 672.189 441.183C672.188 441.183 672.188 441.183 672.912 440.493C673.635 439.802 673.635 439.802 673.635 439.802C673.634 439.801 673.634 439.801 673.634 439.801C673.633 439.8 673.632 439.799 673.631 439.798C673.629 439.796 673.626 439.793 673.623 439.789C673.615 439.782 673.605 439.771 673.592 439.758C673.567 439.731 673.529 439.693 673.48 439.644C673.381 439.546 673.236 439.403 673.044 439.221C672.661 438.856 672.089 438.33 671.327 437.679C669.804 436.375 667.521 434.566 664.459 432.522C658.337 428.434 649.102 423.405 636.618 419.604L636.035 421.517ZM625.557 434.583C625.639 435.579 625.639 435.579 625.639 435.579C625.639 435.579 625.639 435.579 625.639 435.579C625.639 435.579 625.639 435.579 625.64 435.579C625.641 435.579 625.643 435.579 625.647 435.579C625.654 435.578 625.666 435.577 625.682 435.576C625.715 435.574 625.766 435.57 625.835 435.567C625.973 435.559 626.181 435.549 626.456 435.541C627.007 435.526 627.822 435.52 628.868 435.557C630.959 435.632 633.969 435.88 637.612 436.577C644.899 437.97 654.714 441.155 664.801 448.328L665.96 446.698C655.597 439.329 645.501 436.049 637.988 434.612C634.232 433.894 631.119 433.636 628.939 433.559C627.849 433.52 626.991 433.526 626.401 433.542C626.107 433.55 625.879 433.561 625.723 433.57C625.645 433.574 625.585 433.578 625.543 433.581C625.522 433.582 625.506 433.584 625.494 433.584C625.488 433.585 625.484 433.585 625.48 433.586C625.479 433.586 625.477 433.586 625.476 433.586C625.476 433.586 625.475 433.586 625.475 433.586C625.474 433.586 625.474 433.586 625.557 434.583ZM292.578 635.391C300.519 583.105 285.499 522.994 238.851 492.886C192.174 462.758 114.312 462.977 -2.7343 530.256L-1.73762 531.99C115.091 464.837 192.048 465.057 237.767 494.566C283.516 524.094 298.472 583.258 290.601 635.09L292.578 635.391Z" fill="#443D35"/>
<path d="M40.5012 526.746L39.1673 527.4C33.1934 519.943 28.4619 518.224 18.8125 520.648L17.9977 518.987C25.8887 512.808 27.4899 508.313 25.0879 498.692L26.4218 498.038C32.5586 505.828 37.1598 507.281 46.8092 504.856L47.6239 506.518C39.733 512.696 38.1954 517.489 40.5012 526.746Z" fill="#443D35"/>
<path d="M262.577 354.613V356.62C249.978 359.43 245.078 364.147 242.278 377.293H239.778C236.979 364.046 232.479 359.43 219.38 356.62V354.613C232.479 351.803 236.979 347.086 239.778 333.94H242.278C245.078 347.187 249.978 351.903 262.577 354.613Z" fill="#443D35"/>
<path d="M136.891 30.657V32.214C127.117 34.3939 123.316 38.0529 121.144 48.2515H119.205C117.033 37.975 113.542 34.3939 103.38 32.214V30.657C113.542 28.4771 117.033 24.8181 119.205 14.6194H121.144C123.316 24.8959 127.117 28.555 136.891 30.657Z" fill="#443D35"/>
<path d="M927 29.9897V32.8814C908.848 36.9297 901.789 43.7251 897.755 62.6656H894.154C890.12 43.5805 883.637 36.9297 864.765 32.8814V29.9897C883.637 25.9413 890.12 19.1459 894.154 0.205414H897.755C901.789 19.2905 908.848 26.0859 927 29.9897Z" fill="#443D35"/>
</g>
<defs>
<clipPath id="clip0">
<path d="M0 0H1023V656H0V0Z" fill="white"/>
</clipPath>
</defs>
</svg>
