<svg width="417" height="219" viewBox="0 0 417 219" fill="none" xmlns="http://www.w3.org/2000/svg">
<path d="M326.786 97.4394C326.786 151.064 281.029 194.563 224.551 194.563C168.073 194.563 122.316 151.064 122.316 97.4394C122.316 43.8147 168.073 0.316151 224.551 0.316151C281.029 0.316151 326.786 43.8147 326.786 97.4394Z" fill="#EDE1D2"/>
<path d="M326.786 97.4394C326.786 151.064 281.029 194.563 224.551 194.563C168.073 194.563 122.316 151.064 122.316 97.4394C122.316 43.8147 168.073 0.316151 224.551 0.316151C281.029 0.316151 326.786 43.8147 326.786 97.4394Z" stroke="#EDE1D2" stroke-width="0.632302"/>
<path d="M326.786 97.4394C326.786 151.064 281.029 194.563 224.551 194.563C168.073 194.563 122.316 151.064 122.316 97.4394C122.316 43.8147 168.073 0.316151 224.551 0.316151C281.029 0.316151 326.786 43.8147 326.786 97.4394Z" stroke="url(#paint0_linear)" stroke-width="0.632302"/>
<path d="M232.65 119.579C240.849 154.387 288.997 222.751 416 217.739" stroke="black" stroke-width="0.5"/>
<path fill-rule="evenodd" clip-rule="evenodd" d="M30.058 160.722L30.0567 161.328C20.8774 161.328 15.5141 166.524 15.5141 175.061L14.5971 175.06C14.5971 166.484 9.09932 161.328 0.000579279 161.328L0 160.722C9.09932 160.722 14.5992 155.521 14.5992 146.985H15.5141C15.5141 155.521 20.8774 160.722 30.058 160.722Z" fill="black"/>
<defs>
<linearGradient id="paint0_linear" x1="224.551" y1="0" x2="224.551" y2="194.879" gradientUnits="userSpaceOnUse">
<stop stop-color="white"/>
<stop offset="1" stop-color="white" stop-opacity="0"/>
</linearGradient>
</defs>
</svg>
