<svg width="434" height="248" viewBox="0 0 434 248" fill="none" xmlns="http://www.w3.org/2000/svg">
<path d="M365.81 123.559C365.81 157.562 347.392 188.368 317.567 210.685C287.743 233.002 246.526 246.814 200.987 246.814C155.448 246.814 114.232 233.002 84.4073 210.685C54.5829 188.368 36.1649 157.562 36.1649 123.559C36.1649 89.5571 54.5829 58.7504 84.4073 36.4337C114.232 14.117 155.448 0.304802 200.987 0.304802C246.526 0.304802 287.743 14.117 317.567 36.4337C347.392 58.7504 365.81 89.5571 365.81 123.559Z" fill="#EDE1D2"/>
<path d="M365.81 123.559C365.81 157.562 347.392 188.368 317.567 210.685C287.743 233.002 246.526 246.814 200.987 246.814C155.448 246.814 114.232 233.002 84.4073 210.685C54.5829 188.368 36.1649 157.562 36.1649 123.559C36.1649 89.5571 54.5829 58.7504 84.4073 36.4337C114.232 14.117 155.448 0.304802 200.987 0.304802C246.526 0.304802 287.743 14.117 317.567 36.4337C347.392 58.7504 365.81 89.5571 365.81 123.559Z" stroke="#EDE1D2" stroke-width="0.609603"/>
<path d="M365.81 123.559C365.81 157.562 347.392 188.368 317.567 210.685C287.743 233.002 246.526 246.814 200.987 246.814C155.448 246.814 114.232 233.002 84.4073 210.685C54.5829 188.368 36.1649 157.562 36.1649 123.559C36.1649 89.5571 54.5829 58.7504 84.4073 36.4337C114.232 14.117 155.448 0.304802 200.987 0.304802C246.526 0.304802 287.743 14.117 317.567 36.4337C347.392 58.7504 365.81 89.5571 365.81 123.559Z" stroke="url(#paint0_linear)" stroke-width="0.609603"/>
<path d="M1 237.073C26.4147 238.246 81.0092 230.914 96.0697 192.203" stroke="black" stroke-width="0.5"/>
<path fill-rule="evenodd" clip-rule="evenodd" d="M434 191.762L433.998 192.652C420.551 192.652 412.694 200.274 412.694 212.797L411.35 212.796C411.35 200.215 403.296 192.652 389.967 192.652L389.966 191.762C403.296 191.762 411.353 184.133 411.353 171.61H412.694C412.694 184.133 420.551 191.762 434 191.762Z" fill="black"/>
<defs>
<linearGradient id="paint0_linear" x1="200.987" y1="0" x2="200.987" y2="247.119" gradientUnits="userSpaceOnUse">
<stop stop-color="white"/>
<stop offset="1" stop-color="white" stop-opacity="0"/>
</linearGradient>
</defs>
</svg>
