<svg width="569" height="477" viewBox="0 0 569 477" fill="none" xmlns="http://www.w3.org/2000/svg">
<path d="M401.239 91.3654C447.241 114.24 484.97 142.778 508.786 170.406C520.695 184.221 529.108 197.789 533.349 210.29C537.589 222.789 537.647 234.184 532.912 243.707C528.176 253.231 519.056 260.061 506.531 264.223C494.003 268.386 478.107 269.867 459.905 268.709C423.502 266.394 377.978 253.534 331.975 230.659C285.973 207.784 248.244 179.246 224.428 151.618C212.519 137.803 204.106 124.235 199.865 111.734C195.625 99.2351 195.567 87.8407 200.302 78.3172C205.038 68.7937 214.158 61.9637 226.683 57.8012C239.211 53.6379 255.107 52.1575 273.309 53.3153C309.712 55.6307 355.236 68.4906 401.239 91.3654Z" fill="#EDE1D2"/>
<path d="M401.239 91.3654C447.241 114.24 484.97 142.778 508.786 170.406C520.695 184.221 529.108 197.789 533.349 210.29C537.589 222.789 537.647 234.184 532.912 243.707C528.176 253.231 519.056 260.061 506.531 264.223C494.003 268.386 478.107 269.867 459.905 268.709C423.502 266.394 377.978 253.534 331.975 230.659C285.973 207.784 248.244 179.246 224.428 151.618C212.519 137.803 204.106 124.235 199.865 111.734C195.625 99.2351 195.567 87.8407 200.302 78.3172C205.038 68.7937 214.158 61.9637 226.683 57.8012C239.211 53.6379 255.107 52.1575 273.309 53.3153C309.712 55.6307 355.236 68.4906 401.239 91.3654Z" stroke="#EDE1D2"/>
<path d="M401.239 91.3654C447.241 114.24 484.97 142.778 508.786 170.406C520.695 184.221 529.108 197.789 533.349 210.29C537.589 222.789 537.647 234.184 532.912 243.707C528.176 253.231 519.056 260.061 506.531 264.223C494.003 268.386 478.107 269.867 459.905 268.709C423.502 266.394 377.978 253.534 331.975 230.659C285.973 207.784 248.244 179.246 224.428 151.618C212.519 137.803 204.106 124.235 199.865 111.734C195.625 99.2351 195.567 87.8407 200.302 78.3172C205.038 68.7937 214.158 61.9637 226.683 57.8012C239.211 53.6379 255.107 52.1575 273.309 53.3153C309.712 55.6307 355.236 68.4906 401.239 91.3654Z" stroke="url(#paint0_linear)"/>
<path d="M306.829 182.939C292.612 259.668 211.482 408.115 0.702405 388.072" stroke="black"/>
<path fill-rule="evenodd" clip-rule="evenodd" d="M358 367.632L357.996 369.382C333.26 369.382 318.807 384.372 318.807 409L316.336 408.999C316.336 384.257 301.521 369.382 277.002 369.382L277 367.632C301.521 367.632 316.342 352.628 316.342 328H318.807C318.807 352.628 333.26 367.632 358 367.632Z" fill="black"/>
<path fill-rule="evenodd" clip-rule="evenodd" d="M527 18.593L526.998 19.4138C515.394 19.4138 508.613 26.4459 508.613 38L507.454 37.9995C507.454 26.3922 500.504 19.4138 489.001 19.4138L489 18.593C500.504 18.593 507.457 11.5541 507.457 0H508.613C508.613 11.5541 515.394 18.593 527 18.593Z" fill="black"/>
<circle cx="471" cy="346" r="19.5" stroke="black"/>
<circle cx="405" cy="314" r="6" fill="black"/>
<defs>
<linearGradient id="paint0_linear" x1="199.854" y1="78.0946" x2="533.36" y2="243.93" gradientUnits="userSpaceOnUse">
<stop stop-color="white"/>
<stop offset="1" stop-color="white" stop-opacity="0"/>
</linearGradient>
</defs>
</svg>
