<svg width="969" height="430" viewBox="0 0 969 430" fill="none" xmlns="http://www.w3.org/2000/svg">
<path d="M89.2566 15.1411C40.9232 15.1411 20.1528 51.5453 20.1528 87.6172V194.604C20.1528 221.946 41.0376 228.034 50.6771 228.034C55.4647 228.034 103.139 228.187 108.514 228.187C120.585 228.187 134.07 225.397 141.848 215.648C160.324 192.498 189.731 218.333 187.017 157.792C187.017 157.792 211.13 259.777 299.742 259.777C328.786 259.777 354.047 252.45 375.334 239.018C396.054 225.942 428.814 204.731 448.871 191.953C470.682 178.059 480.747 177.35 505.599 177.35H634.678C661.147 177.35 667.586 207.328 693.031 207.328C708.25 207.328 722.161 202.371 736.233 194.767C747.226 188.829 768.738 177.537 780.185 171.579C799.082 161.745 807.635 169.726 807.635 169.726C807.635 169.726 851.623 208.958 883.563 238.597C897.785 251.794 907.991 258.163 924.146 258.163C939.779 258.163 948.845 245.548 948.845 224.84V65.3442C948.845 44.6367 938.486 15.1411 901.662 15.1411C887.853 15.1411 862.405 22.4634 837.051 34.069C795.197 53.2271 748.606 74.9622 748.606 74.9622C748.606 74.9622 748.526 69.5024 748.526 62.2941C748.526 34.9343 721.721 15.1411 694.537 15.1411H89.2566Z" fill="#EDE1D2"/>
<path d="M386.101 144.399V144.755C381.066 144.755 378.124 147.804 378.124 152.815H377.622C377.622 147.781 374.606 144.755 369.616 144.755V144.399C374.607 144.399 377.623 141.347 377.623 136.337H378.125C378.124 141.346 381.066 144.399 386.101 144.399Z" fill="black"/>
<path d="M923.773 90.1995V90.5558C918.738 90.5558 915.797 93.605 915.797 98.6152H915.295C915.295 93.5819 912.281 90.5563 907.29 90.5563V90.2C912.281 90.2 915.297 87.1479 915.297 82.1377H915.799C915.796 87.1474 918.738 90.1995 923.773 90.1995Z" fill="black"/>
<path d="M151.796 107.478V107.834C146.762 107.834 143.82 110.884 143.82 115.894H143.318C143.318 110.86 140.302 107.834 135.312 107.834V107.478C140.303 107.478 143.319 104.426 143.319 99.4158H143.821C143.818 104.425 146.76 107.478 151.796 107.478Z" fill="black"/>
<path d="M240.564 165.898V166.04C238.561 166.04 237.391 167.253 237.391 169.247H237.19C237.19 167.244 235.99 166.04 234.005 166.04V165.898C235.99 165.898 237.191 164.684 237.191 162.69H237.391C237.39 164.684 238.561 165.898 240.564 165.898Z" fill="black"/>
<path d="M776.422 112.16V112.301C774.419 112.301 773.248 113.515 773.248 115.508H773.048C773.048 113.505 771.849 112.301 769.863 112.301V112.16C771.849 112.16 773.05 110.945 773.05 108.952H773.249C773.248 110.945 774.418 112.16 776.422 112.16Z" fill="black"/>
<path d="M109.507 62.0697V62.2115C107.503 62.2115 106.333 63.4247 106.333 65.4182H106.133C106.133 63.4154 104.933 62.2115 102.948 62.2115V62.0697C104.933 62.0697 106.133 60.8556 106.133 58.8621H106.333C106.333 60.8551 107.503 62.0697 109.507 62.0697Z" fill="black"/>
<path d="M919.465 226.808C920.283 226.808 920.946 226.146 920.946 225.328C920.946 224.511 920.283 223.848 919.465 223.848C918.648 223.848 917.985 224.511 917.985 225.328C917.985 226.146 918.648 226.808 919.465 226.808Z" fill="black"/>
<path d="M885.932 40.5191C886.75 40.5191 887.413 39.8565 887.413 39.039C887.413 38.2215 886.75 37.5588 885.932 37.5588C885.115 37.5588 884.452 38.2215 884.452 39.039C884.452 39.8565 885.115 40.5191 885.932 40.5191Z" fill="black"/>
<path d="M848.972 103.676C851.037 103.676 852.71 102.003 852.71 99.9389C852.71 97.8751 851.037 96.2021 848.972 96.2021C846.908 96.2021 845.234 97.8751 845.234 99.9389C845.234 102.003 846.908 103.676 848.972 103.676Z" stroke="black" stroke-miterlimit="10"/>
<path d="M569.853 113.105C571.917 113.105 573.591 111.432 573.591 109.369C573.591 107.305 571.917 105.632 569.853 105.632C567.788 105.632 566.115 107.305 566.115 109.369C566.115 111.432 567.788 113.105 569.853 113.105Z" stroke="black" stroke-miterlimit="10"/>
<path d="M152.258 62.8521C153.178 62.8521 153.925 62.1061 153.925 61.1859C153.925 60.2657 153.178 59.5198 152.258 59.5198C151.337 59.5198 150.591 60.2657 150.591 61.1859C150.591 62.1061 151.337 62.8521 152.258 62.8521Z" stroke="black" stroke-miterlimit="10"/>
<path d="M346.008 122.599C346.929 122.599 347.675 121.853 347.675 120.933C347.675 120.013 346.929 119.267 346.008 119.267C345.088 119.267 344.342 120.013 344.342 120.933C344.342 121.853 345.088 122.599 346.008 122.599Z" stroke="black" stroke-miterlimit="10"/>
<path d="M921.118 165.911C922.471 165.911 923.569 164.814 923.569 163.461C923.569 162.108 922.471 161.011 921.118 161.011C919.764 161.011 918.667 162.108 918.667 163.461C918.667 164.814 919.764 165.911 921.118 165.911Z" stroke="black" stroke-miterlimit="10"/>
<path d="M660.994 52.2629C662.348 52.2629 663.445 51.166 663.445 49.8129C663.445 48.4599 662.348 47.363 660.994 47.363C659.641 47.363 658.543 48.4599 658.543 49.8129C658.543 51.166 659.641 52.2629 660.994 52.2629Z" stroke="black" stroke-miterlimit="10"/>
<path d="M123.977 186.926C125.33 186.926 126.427 185.829 126.427 184.476C126.427 183.123 125.33 182.026 123.977 182.026C122.623 182.026 121.526 183.123 121.526 184.476C121.526 185.829 122.623 186.926 123.977 186.926Z" stroke="black" stroke-miterlimit="10"/>
<path d="M597.581 127.851C598.935 127.851 600.032 126.754 600.032 125.401C600.032 124.048 598.935 122.951 597.581 122.951C596.228 122.951 595.13 124.048 595.13 125.401C595.13 126.754 596.228 127.851 597.581 127.851Z" stroke="black" stroke-miterlimit="10"/>
<path d="M70.6487 111.031C72.7132 111.031 74.3867 109.358 74.3867 107.295C74.3867 105.231 72.7132 103.558 70.6487 103.558C68.5843 103.558 66.9108 105.231 66.9108 107.295C66.9108 109.358 68.5843 111.031 70.6487 111.031Z" stroke="black" stroke-miterlimit="10"/>
<path d="M391.378 52.9758C393.443 52.9758 395.116 51.3029 395.116 49.2391C395.116 47.1754 393.443 45.5024 391.378 45.5024C389.314 45.5024 387.64 47.1754 387.64 49.2391C387.64 51.3029 389.314 52.9758 391.378 52.9758Z" stroke="black" stroke-miterlimit="10"/>
<path d="M272.81 38.0316C273.627 38.0316 274.29 37.3689 274.29 36.5514C274.29 35.734 273.627 35.0713 272.81 35.0713C271.992 35.0713 271.329 35.734 271.329 36.5514C271.329 37.3689 271.992 38.0316 272.81 38.0316Z" fill="black"/>
<path d="M85.2083 179.05C86.0261 179.05 86.689 178.387 86.689 177.57C86.689 176.753 86.0261 176.09 85.2083 176.09C84.3906 176.09 83.7277 176.753 83.7277 177.57C83.7277 178.387 84.3906 179.05 85.2083 179.05Z" fill="black"/>
<path d="M222.546 122.206C223.364 122.206 224.027 121.543 224.027 120.726C224.027 119.908 223.364 119.246 222.546 119.246C221.729 119.246 221.066 119.908 221.066 120.726C221.066 121.543 221.729 122.206 222.546 122.206Z" fill="black"/>
<path d="M112.316 131.311C113.134 131.311 113.797 130.648 113.797 129.83C113.797 129.013 113.134 128.35 112.316 128.35C111.498 128.35 110.835 129.013 110.835 129.83C110.835 130.648 111.498 131.311 112.316 131.311Z" fill="black"/>
<path d="M17.6211 413.644H958.792" stroke="black" stroke-miterlimit="10"/>
<path d="M661.965 412.993H681.789C685.449 412.993 689.061 412.16 692.352 410.558C695.642 408.955 698.524 406.625 700.78 403.744C703.036 400.863 704.607 397.507 705.373 393.929C706.139 390.351 706.08 386.646 705.202 383.095L680.135 281.774H629.501L661.965 412.993Z" fill="black" stroke="black" stroke-miterlimit="10"/>
<path d="M636.313 281.776V211.042C636.313 203.406 640.893 199.808 645.935 199.808C650.89 199.808 655.792 203.508 655.792 211.525V247.256C655.792 256.038 658.084 262.486 662.285 268.595C666.487 274.703 671.753 281.776 671.753 281.776H636.313Z" fill="white" stroke="black" stroke-miterlimit="10"/>
<path d="M661.671 267.665C658.342 262.34 653.763 258.531 653.497 253.074C653.231 247.617 653.497 238.699 653.497 234.439C653.497 230.18 651.176 224.653 644.906 224.653C639.639 224.653 636.322 228.316 636.322 235.371" stroke="black" stroke-miterlimit="10"/>
<path d="M649.597 200.535V210.561C649.597 214.416 652.068 217.284 655.716 217.284" stroke="black" stroke-miterlimit="10"/>
<path d="M638.739 227.274V234.116C638.739 235.725 639.378 237.269 640.517 238.407C641.656 239.546 643.2 240.185 644.81 240.185V240.185C645.607 240.185 646.397 240.028 647.134 239.723C647.87 239.418 648.54 238.971 649.104 238.408C649.667 237.844 650.115 237.175 650.42 236.438C650.725 235.702 650.882 234.913 650.882 234.116V227.191" stroke="black" stroke-miterlimit="10"/>
<path d="M397.364 413.55V299.433H436.622L443.131 325.58V413.571H391.583" fill="white"/>
<path d="M397.364 413.551V299.433H436.622L443.131 325.58V413.571H391.583" stroke="black" stroke-miterlimit="10"/>
<path d="M851.322 297.303C851.322 297.303 898.212 345.976 905.805 353.945C913.397 361.914 923.478 371.613 923.478 389.281C923.478 402.531 912.776 413.426 901.386 413.426H852.082C852.082 413.426 850.943 297.682 851.322 297.303Z" fill="white" stroke="black" stroke-miterlimit="10"/>
<path d="M116.801 350.162C145.044 350.162 167.939 327.274 167.939 299.041C167.939 270.808 145.044 247.921 116.801 247.921C88.5589 247.921 65.6638 270.808 65.6638 299.041C65.6638 327.274 88.5589 350.162 116.801 350.162Z" fill="white" stroke="black" stroke-miterlimit="10"/>
<path d="M128.959 275.44C133.477 275.44 137.141 271.778 137.141 267.261C137.141 262.743 133.477 259.082 128.959 259.082C124.44 259.082 120.777 262.743 120.777 267.261C120.777 271.778 124.44 275.44 128.959 275.44Z" stroke="black" stroke-miterlimit="10"/>
<path d="M125.076 260.061C124.989 260.11 124.909 260.164 124.823 260.214L132.573 274.587C132.662 274.544 132.753 274.508 132.841 274.46C134.751 273.431 136.174 271.685 136.797 269.607C137.419 267.529 137.191 265.289 136.161 263.38C135.131 261.47 133.385 260.048 131.306 259.425C129.228 258.803 126.987 259.031 125.076 260.061Z" fill="black"/>
<path d="M158.458 266.099C161.56 266.099 164.075 263.585 164.075 260.484C164.075 257.383 161.56 254.869 158.458 254.869C155.356 254.869 152.842 257.383 152.842 260.484C152.842 263.585 155.356 266.099 158.458 266.099Z" fill="white" stroke="black" stroke-miterlimit="10"/>
<path d="M124.085 288.685C123.529 287.573 123.198 286.363 123.111 285.123C123.024 283.884 123.183 282.639 123.578 281.461C123.974 280.283 124.598 279.194 125.416 278.258C126.234 277.322 127.228 276.557 128.343 276.006C129.457 275.455 130.669 275.13 131.91 275.049C133.15 274.968 134.394 275.133 135.571 275.534C136.748 275.935 137.833 276.565 138.766 277.387C139.698 278.208 140.459 279.206 141.005 280.323" stroke="black" stroke-miterlimit="10"/>
<path d="M155.454 265.543C156.482 266.971 156.901 268.749 156.618 270.486C156.335 272.222 155.373 273.775 153.945 274.803C152.516 275.831 150.738 276.25 149.001 275.967C147.263 275.684 145.71 274.723 144.681 273.295" stroke="black" stroke-miterlimit="10"/>
<path d="M416.943 413.656H238.044V339.541C238.044 325.2 243.742 311.448 253.886 301.308C264.029 291.168 277.787 285.471 292.132 285.471H331.06C342.035 285.471 352.75 288.808 361.783 295.04C370.815 301.272 377.738 310.103 381.631 320.361L416.943 413.656Z" fill="white" stroke="black" stroke-miterlimit="10"/>
<path d="M677.001 413.409H479.494L496.261 329.755C498.455 318.808 504.374 308.958 513.012 301.88C521.65 294.803 532.474 290.936 543.642 290.935H612.855C624.024 290.936 634.848 294.803 643.486 301.88C652.124 308.958 658.043 318.808 660.237 329.755L677.001 413.409Z" fill="black" stroke="black" stroke-miterlimit="10"/>
<path d="M864.131 413.409H707.455L750.047 310.479C752.948 303.472 757.862 297.482 764.169 293.268C770.476 289.053 777.892 286.804 785.478 286.804H824.721C835.173 286.804 845.197 290.955 852.588 298.343C859.979 305.732 864.131 315.752 864.131 326.201V413.409Z" fill="white" stroke="black" stroke-miterlimit="10"/>
<path d="M737.917 208.103L769.097 189.92C779.606 183.35 792.107 180.722 804.373 182.505C816.639 184.288 827.874 190.367 836.076 199.657C844.277 208.948 848.914 220.847 849.159 233.235C849.404 245.624 845.241 257.697 837.413 267.304C829.585 276.912 818.6 283.429 806.414 285.695C794.227 287.962 781.632 285.83 770.872 279.68C760.111 273.53 751.884 263.761 747.655 252.113C743.427 240.466 743.472 227.695 747.783 216.078L738.775 213.919C738.159 213.771 737.602 213.443 737.175 212.977C736.748 212.51 736.471 211.926 736.379 211.301C736.286 210.675 736.384 210.036 736.658 209.466C736.932 208.896 737.37 208.422 737.917 208.103Z" fill="white" stroke="black" stroke-miterlimit="10"/>
<path d="M780.021 222.672C785.237 222.672 789.465 218.445 789.465 213.231C789.465 208.017 785.237 203.79 780.021 203.79C774.805 203.79 770.577 208.017 770.577 213.231C770.577 218.445 774.805 222.672 780.021 222.672Z" stroke="black" stroke-miterlimit="10"/>
<path d="M782.482 204.116C782.594 204.146 782.698 204.188 782.807 204.222L777.895 222.418C777.783 222.392 777.672 222.376 777.561 222.346C775.143 221.694 773.083 220.108 771.834 217.937C770.586 215.766 770.251 213.189 770.904 210.771C771.556 208.354 773.143 206.295 775.314 205.047C777.486 203.799 780.064 203.464 782.482 204.116Z" fill="black" stroke="black" stroke-miterlimit="10"/>
<path d="M787.996 232.75C788.183 231.647 788.151 230.517 787.9 229.426C787.65 228.335 787.187 227.305 786.537 226.393C785.888 225.481 785.065 224.706 784.116 224.113C783.166 223.52 782.109 223.119 781.005 222.935C779.9 222.75 778.771 222.786 777.68 223.038C776.589 223.291 775.559 223.756 774.648 224.408C773.738 225.059 772.965 225.883 772.373 226.834C771.782 227.784 771.384 228.842 771.202 229.946" fill="white"/>
<path d="M787.996 232.75C788.183 231.647 788.151 230.517 787.9 229.426C787.65 228.335 787.187 227.305 786.537 226.393C785.888 225.481 785.065 224.706 784.116 224.113C783.166 223.52 782.109 223.119 781.005 222.935C779.9 222.75 778.771 222.786 777.68 223.038C776.589 223.291 775.559 223.756 774.648 224.408C773.738 225.059 772.965 225.883 772.373 226.834C771.782 227.784 771.384 228.842 771.202 229.946" stroke="black" stroke-miterlimit="10"/>
<path d="M760.55 227.118C760.55 227.118 753.75 233.528 744.856 228.404" stroke="black" stroke-miterlimit="10"/>
<path d="M805.327 237.433C806.539 236.37 807.905 235.217 809.199 234.087C811.92 231.71 815.159 231.212 818.114 234.042C821.391 237.183 820.553 241.14 818.627 243.537C817.83 244.53 814.726 248.287 813.854 249.389C807.963 256.845 811.47 264.843 815.671 270.261C819.872 275.68 826.266 277.554 826.266 277.554C826.266 277.554 839.816 268.195 845.174 254.383C850.567 240.483 854.006 218.478 831.964 195.485C805.538 167.921 774.297 187.036 774.297 187.036C774.297 187.036 771.175 196.903 786.25 202.495C796.543 206.314 806.129 209.832 806.129 209.832C806.129 209.832 789.235 225.053 794.716 234.812C796.784 238.494 801.733 240.585 805.327 237.433Z" fill="white" stroke="black" stroke-miterlimit="10"/>
<path d="M814.621 248.437C811.567 252.39 804.932 256.51 800.833 252.234C797.315 248.565 799.868 245.167 799.868 245.167" fill="white"/>
<path d="M814.621 248.437C811.567 252.39 804.932 256.51 800.833 252.234C797.315 248.565 799.868 245.167 799.868 245.167" stroke="black" stroke-miterlimit="10"/>
<path d="M809.493 238.876C809.493 238.876 812.36 235.954 814.517 238.205C816.263 240.026 815.492 241.84 814.037 243.234L809.261 247.809C807.99 249.026 805.582 250.116 804.015 248.48C802.447 246.844 803.818 244.308 803.818 244.308" stroke="black" stroke-miterlimit="10"/>
<path d="M775.187 172.661L862.631 237.214" stroke="black" stroke-miterlimit="10"/>
<path d="M840.881 121.574L890.447 158.163C891.935 159.261 892.925 160.905 893.2 162.733C893.475 164.56 893.012 166.422 891.914 167.909L848.455 226.742L787.676 181.874L831.136 123.041C832.234 121.554 833.879 120.564 835.707 120.289C837.535 120.014 839.398 120.476 840.885 121.574L840.881 121.574Z" fill="black" stroke="black" stroke-miterlimit="10"/>
<path d="M886.301 163.762C880.154 172.203 864.023 170.931 850.272 160.923C836.52 150.914 830.356 135.96 836.503 127.52" stroke="white" stroke-miterlimit="10"/>
<path d="M634.647 216.219H522.307L538.564 177.015C546.124 158.781 561.576 147.265 578.477 147.265C595.378 147.265 610.829 158.781 618.39 177.015L634.647 216.219Z" fill="white" stroke="black" stroke-miterlimit="10"/>
<path d="M578.247 284.275C610.35 284.275 636.375 258.259 636.375 226.167C636.375 194.074 610.35 168.058 578.247 168.058C546.144 168.058 520.119 194.074 520.119 226.167C520.119 258.259 546.144 284.275 578.247 284.275Z" fill="white" stroke="black" stroke-miterlimit="10"/>
<path d="M636.375 221.614C636.375 247.194 610.35 267.93 578.248 267.93C546.147 267.93 520.122 247.194 520.122 221.614C520.122 196.035 542.52 164.681 578.248 164.681C613.976 164.681 636.375 196.035 636.375 221.614Z" fill="white" stroke="black" stroke-miterlimit="10"/>
<path d="M561.548 255.866C572.641 258.912 584.356 258.863 595.423 255.724C595.404 251.234 593.601 246.935 590.412 243.773C587.222 240.611 582.907 238.845 578.415 238.864C573.922 238.882 569.622 240.684 566.459 243.873C563.296 247.061 561.529 251.376 561.548 255.866Z" fill="white" stroke="black" stroke-miterlimit="10"/>
<path d="M561.553 255.845V266.021" stroke="black" stroke-miterlimit="10"/>
<path d="M573.104 257.799V267.975" stroke="black" stroke-miterlimit="10"/>
<path d="M595.418 255.724V265.899" stroke="black" stroke-miterlimit="10"/>
<path d="M578.478 192.993V238.958" stroke="black" stroke-miterlimit="10"/>
<path d="M578.478 164.689V182.722" stroke="black" stroke-miterlimit="10"/>
<path d="M522.762 235.411C524.408 221.838 530.991 209.344 541.255 200.309C551.52 191.273 564.75 186.327 578.427 186.412C592.104 186.497 605.272 191.607 615.424 200.769C625.575 209.931 632.002 222.506 633.48 236.098" stroke="black" stroke-miterlimit="10"/>
<path d="M536.266 183.012C536.266 183.012 556.462 175.012 578.247 186.487C593.22 194.374 616.609 226.653 616.609 256.242" stroke="black" stroke-miterlimit="10"/>
<path d="M620.441 183.012C620.441 183.012 600.246 175.012 578.46 186.487C563.486 194.374 540.098 226.653 540.098 256.242" stroke="black" stroke-miterlimit="10"/>
<path d="M584.886 189.268C584.886 191.351 581.914 193.039 578.247 193.039C574.58 193.039 571.607 191.351 571.607 189.268V186.487H584.886V189.268Z" fill="white" stroke="black" stroke-miterlimit="10"/>
<path d="M578.247 190.258C581.914 190.258 584.886 188.57 584.886 186.487C584.886 184.405 581.914 182.716 578.247 182.716C574.58 182.716 571.607 184.405 571.607 186.487C571.607 188.57 574.58 190.258 578.247 190.258Z" fill="white" stroke="black" stroke-miterlimit="10"/>
<path d="M612.956 284.194H543.538V291.715H612.956V284.194Z" fill="black" stroke="black" stroke-miterlimit="10"/>
<path d="M768.273 352.65L746.169 413.439H658.692L625.841 324.091H681.738L703.977 384.576L737.49 301.461C739.228 297.15 742.216 293.457 746.07 290.856C749.924 288.256 754.467 286.866 759.117 286.866H797.606" fill="white"/>
<path d="M768.273 352.65L746.169 413.439H658.692L625.841 324.091H681.738L703.977 384.576L737.49 301.461C739.228 297.15 742.216 293.457 746.07 290.856C749.924 288.256 754.467 286.866 759.117 286.866H797.606" stroke="black" stroke-miterlimit="10"/>
<path d="M703.971 384.323V406.755" stroke="black" stroke-miterlimit="10"/>
<path d="M691.922 398.201L703.971 384.237L716.792 397.973" stroke="black" stroke-miterlimit="10"/>
<path d="M625.841 324.091C625.841 324.091 630.309 329.774 633.903 334.419C637.03 338.461 642.454 342.771 656.335 342.771H688.571" stroke="black" stroke-miterlimit="10"/>
<path d="M646.12 336.023C648.045 336.023 649.606 334.463 649.606 332.539C649.606 330.615 648.045 329.055 646.12 329.055C644.196 329.055 642.635 330.615 642.635 332.539C642.635 334.463 644.196 336.023 646.12 336.023Z" stroke="black" stroke-miterlimit="10"/>
<path d="M836.806 371.839C836.806 371.839 827.92 381.301 827.92 403.365V413.529" fill="white"/>
<path d="M836.806 371.839C836.806 371.839 827.92 381.301 827.92 403.365V413.529" stroke="black" stroke-miterlimit="10"/>
<path d="M864.187 364.194L881.714 378.269" stroke="black" stroke-miterlimit="10"/>
<path d="M768.197 286.63L782.284 284.765C783.051 284.765 791.851 286.63 792.652 286.63H824.721C830.941 286.63 840.244 290.703 843.426 300.481C846.762 310.733 843.064 320.138 847.3 326.008C851.973 332.483 868.542 335.517 874.645 344.749C881.459 355.055 877.069 370.52 883.881 379.487C890.298 387.937 904.199 390.129 911.551 396.449C915.102 399.502 917.659 406.319 914.826 413.631L768.195 413.533L768.197 286.63Z" fill="black"/>
<path d="M640.598 324.035L623.498 291.947H612.792C612.792 291.947 613.676 280.523 627.069 280.523H645.553C645.553 280.523 653.661 279.929 657.392 287.544C661.123 295.158 665.303 303.837 665.303 303.837V282.846C665.303 275.232 669.76 272.667 674.27 272.667C679.032 272.667 681.622 276.632 681.622 281.63V324.082L640.598 324.035Z" fill="white" stroke="black" stroke-miterlimit="10"/>
<path d="M675.553 272.748V281.769C675.553 285.032 678.187 287.048 679.956 287.048H681.698" stroke="black" stroke-miterlimit="10"/>
<path d="M627.363 280.498C631.37 280.498 633.219 282.479 634.404 285.036C635.495 287.387 637.52 291.841 637.52 291.841" stroke="black" stroke-miterlimit="10"/>
<path d="M637.907 280.498C641.913 280.498 643.763 282.479 644.948 285.036C646.039 287.387 648.064 291.841 648.064 291.841" stroke="black" stroke-miterlimit="10"/>
<path d="M664.848 302.714L670.512 314.443" stroke="black" stroke-miterlimit="10"/>
<path d="M237.969 413.597C237.969 407.758 235.649 402.158 231.518 398.029C227.388 393.9 221.786 391.58 215.944 391.58C210.103 391.58 204.501 393.9 200.37 398.029C196.24 402.158 193.92 407.758 193.92 413.597H237.969Z" fill="white" stroke="black" stroke-miterlimit="10"/>
<path d="M206.187 403.746V413.684" stroke="black" stroke-miterlimit="10"/>
<path d="M215.944 403.746V413.684" stroke="black" stroke-miterlimit="10"/>
<path d="M225.701 403.746V413.684" stroke="black" stroke-miterlimit="10"/>
<path d="M238.064 313.589C232.222 313.589 226.62 315.909 222.49 320.038C218.359 324.167 216.039 329.767 216.039 335.606C216.039 341.446 218.359 347.046 222.49 351.175C226.62 355.304 232.222 357.624 238.064 357.624V313.589Z" fill="white" stroke="black" stroke-miterlimit="10"/>
<path d="M228.209 345.36H238.151" stroke="black" stroke-miterlimit="10"/>
<path d="M228.209 335.606H238.151" stroke="black" stroke-miterlimit="10"/>
<path d="M228.209 325.853H238.151" stroke="black" stroke-miterlimit="10"/>
<path d="M45.5217 413.64H193.697C190.952 395.966 181.976 379.856 168.389 368.22C154.802 356.584 137.501 350.188 119.609 350.188C101.718 350.188 84.4167 356.584 70.8299 368.22C57.243 379.856 48.2666 395.966 45.5217 413.64Z" fill="white" stroke="black" stroke-miterlimit="10"/>
<path d="M378.876 189.128L357.053 183.141C353.237 182.07 349.61 180.415 346.301 178.233C336.88 172.097 325.875 168.838 314.63 168.856C282.364 168.856 256.088 195.481 256.507 227.733C256.71 243.094 262.99 257.749 273.973 268.494C284.956 279.239 299.749 285.198 315.115 285.07C346.87 284.811 372.739 258.744 372.758 226.999C372.77 219.766 371.428 212.595 368.801 205.855L380.369 197.289C381.064 196.775 381.6 196.076 381.917 195.273C382.235 194.469 382.321 193.593 382.165 192.743C382.01 191.894 381.619 191.104 381.038 190.465C380.456 189.826 379.707 189.363 378.876 189.128Z" fill="white" stroke="black" stroke-miterlimit="10"/>
<path d="M121.098 269.48C121.098 269.48 118.167 263.819 120.067 259.392C122.17 254.49 126.839 255.423 126.839 255.423" stroke="black" stroke-miterlimit="10"/>
<path d="M344.694 206.712C349.91 206.712 354.138 202.486 354.138 197.271C354.138 192.057 349.91 187.831 344.694 187.831C339.479 187.831 335.25 192.057 335.25 197.271C335.25 202.486 339.479 206.712 344.694 206.712Z" stroke="black" stroke-miterlimit="10"/>
<path d="M350.344 204.836C350.252 204.906 350.154 204.962 350.06 205.027L338.781 189.927C338.87 189.855 338.952 189.78 339.044 189.709C341.051 188.211 343.571 187.571 346.05 187.931C348.529 188.29 350.763 189.619 352.262 191.626C353.76 193.632 354.4 196.151 354.04 198.629C353.681 201.107 352.351 203.341 350.344 204.839V204.836Z" fill="black" stroke="black" stroke-miterlimit="10"/>
<path d="M339.387 219.572C338.143 217.883 337.62 215.769 337.933 213.695C338.246 211.621 339.369 209.756 341.056 208.508C342.743 207.261 344.856 206.734 346.931 207.042C349.007 207.35 350.875 208.469 352.127 210.152" fill="white"/>
<path d="M339.387 219.572C338.143 217.883 337.62 215.769 337.933 213.695C338.246 211.621 339.369 209.756 341.056 208.508C342.743 207.261 344.856 206.734 346.931 207.042C349.007 207.35 350.875 208.469 352.127 210.152" stroke="black" stroke-miterlimit="10"/>
<path d="M371.44 214.876C368.306 223.053 355.652 224.801 355.652 224.801C355.652 224.801 363.538 229.478 372.76 225.603" stroke="black" stroke-miterlimit="10"/>
<path d="M494.407 412.993H474.585C470.925 412.993 467.312 412.161 464.021 410.558C460.731 408.956 457.848 406.626 455.592 403.745C453.335 400.864 451.765 397.507 450.999 393.929C450.233 390.351 450.291 386.645 451.17 383.093L476.237 281.772H526.869L494.407 412.993Z" fill="black" stroke="black" stroke-miterlimit="10"/>
<path d="M520.059 281.776V211.042C520.059 203.406 515.479 199.808 510.437 199.808C505.482 199.808 500.579 203.508 500.579 211.525V247.256C500.579 256.038 498.288 262.486 494.087 268.595C489.885 274.703 484.619 281.776 484.619 281.776H520.059Z" fill="white" stroke="black" stroke-miterlimit="10"/>
<path d="M494.701 267.665C498.03 262.34 502.609 258.531 502.875 253.074C503.141 247.617 502.875 238.699 502.875 234.439C502.875 230.18 505.196 224.653 511.466 224.653C516.733 224.653 520.05 228.316 520.05 235.371" stroke="black" stroke-miterlimit="10"/>
<path d="M506.775 200.535V210.561C506.775 214.416 504.303 217.284 500.656 217.284" stroke="black" stroke-miterlimit="10"/>
<path d="M517.633 227.274V234.116C517.632 235.725 516.992 237.268 515.854 238.405C514.715 239.543 513.172 240.182 511.562 240.182V240.182C510.765 240.182 509.975 240.025 509.238 239.72C508.502 239.415 507.832 238.968 507.268 238.404C506.705 237.84 506.257 237.171 505.952 236.435C505.647 235.699 505.49 234.909 505.49 234.112V227.191" stroke="black" stroke-miterlimit="10"/>
<path d="M342.244 275.114H292.963C290.089 275.114 287.76 277.442 287.76 280.314C287.76 283.186 290.089 285.514 292.963 285.514H342.244C345.118 285.514 347.447 283.186 347.447 280.314C347.447 277.442 345.118 275.114 342.244 275.114Z" fill="white" stroke="black" stroke-miterlimit="10"/>
<path d="M378.532 267.959C378.532 267.959 374.708 274.29 367.834 277.533C360.96 280.776 353.64 279.701 353.64 279.701C353.64 279.701 357.465 273.37 364.339 270.127C371.213 266.884 378.532 267.959 378.532 267.959Z" fill="white" stroke="black" stroke-miterlimit="10"/>
<path d="M376.343 296.794C376.343 296.794 368.944 296.79 362.616 292.58C356.289 288.371 353.428 281.55 353.428 281.55C353.428 281.55 360.827 281.554 367.155 285.764C373.483 289.973 376.343 296.794 376.343 296.794Z" fill="white" stroke="black" stroke-miterlimit="10"/>
<path d="M351.656 284.745C353.918 284.745 355.752 282.912 355.752 280.651C355.752 278.389 353.918 276.556 351.656 276.556C349.394 276.556 347.56 278.389 347.56 280.651C347.56 282.912 349.394 284.745 351.656 284.745Z" fill="white" stroke="black" stroke-miterlimit="10"/>
<path d="M287.771 280.282H347.157" stroke="black" stroke-miterlimit="10"/>
<path d="M449.676 351.394H397.335V299.392H436.59L449.676 351.394Z" fill="white" stroke="black" stroke-miterlimit="10"/>
<path d="M425.755 299.394L438.698 351.391" stroke="black" stroke-miterlimit="10"/>
<path d="M343.472 293.332C322.084 293.332 314.781 315.755 320.519 329.835C326.257 343.914 353.879 413.524 353.879 413.524" fill="white"/>
<path d="M343.472 293.332C322.084 293.332 314.781 315.755 320.519 329.835C326.257 343.914 353.879 413.524 353.879 413.524" stroke="black" stroke-miterlimit="10"/>
<path d="M269.68 340.625V353.835C269.68 380.627 291.382 391.526 291.382 413.527" fill="white"/>
<path d="M269.68 340.625V353.835C269.68 380.627 291.382 391.526 291.382 413.527" stroke="black" stroke-miterlimit="10"/>
<path d="M338.391 164.638C338.391 157.124 331.454 152.95 323.938 152.95C311.69 152.95 306.831 163.589 306.831 163.589C306.831 163.589 299.332 156.142 289.313 159.815C279.677 163.348 278.97 174.188 278.97 174.188C278.97 174.188 266.451 170.275 258.281 180.634C250.111 190.993 257.683 204.338 257.683 204.338C257.683 204.338 243.365 207.092 243.365 219.72C243.365 232.409 256.476 238.165 256.476 238.165C256.476 238.165 248.043 245.837 251.108 256.019C254.877 268.541 270.34 267.85 270.34 267.85C270.34 267.85 258.64 269.808 257.878 279.202C257.298 286.344 263.294 293.852 261.814 299.768C260.334 305.683 252.012 307.382 251.354 314.68C250.639 322.617 259.491 326.512 259.491 326.512C259.491 326.512 259.199 319.743 263.436 315.911C268.799 311.063 276.477 311.512 278.45 305.35C280.422 299.188 274.405 291.578 277.307 286.816C280.404 281.733 287.868 284.023 287.732 276.461C287.634 271.018 283.161 268.095 283.161 268.095C283.161 268.095 296.399 250.2 301.653 243.446C304.716 239.51 306.794 237.729 306.794 233.575C306.794 227.146 299.373 222.299 299.373 216.76C299.373 212.309 302.44 209.185 307.289 209.185C311.48 209.185 314.968 212.636 314.968 218.798V224.963L318.558 217.871C320.49 214.049 321.139 209.707 320.408 205.488C319.677 201.269 317.606 197.398 314.501 194.448L314.347 194.301C311.104 191.212 308.118 187.827 308.118 183.455C308.118 177.444 312.056 175.173 316.991 175.173H329.514C335.212 175.174 338.391 169.368 338.391 164.638Z" fill="white" stroke="black" stroke-miterlimit="10"/>
<path d="M472.004 387.762L496.801 322.116C500.424 313.184 508.878 302.802 515.88 299.181" stroke="white" stroke-miterlimit="10"/>
<path d="M548.968 290.796H606.695" stroke="white" stroke-miterlimit="10"/>
<path d="M528.961 362.674L515.441 399.207" stroke="white" stroke-miterlimit="10"/>
<path d="M397.286 361.182L423.31 398.106" stroke="black" stroke-miterlimit="10"/>
<path d="M422.058 376.238L397.34 361.11" stroke="black" stroke-miterlimit="10"/>
<path d="M426.002 345.414C428.625 345.414 430.751 343.288 430.751 340.666C430.751 338.044 428.625 335.918 426.002 335.918C423.379 335.918 421.252 338.044 421.252 340.666C421.252 343.288 423.379 345.414 426.002 345.414Z" stroke="black" stroke-miterlimit="10"/>
<path d="M426.002 343.02C427.302 343.02 428.357 341.966 428.357 340.666C428.357 339.366 427.302 338.312 426.002 338.312C424.701 338.312 423.647 339.366 423.647 340.666C423.647 341.966 424.701 343.02 426.002 343.02Z" stroke="black" stroke-miterlimit="10"/>
<path d="M422.248 330.674C424.87 330.674 426.997 328.549 426.997 325.927C426.997 323.305 424.87 321.179 422.248 321.179C419.625 321.179 417.498 323.305 417.498 325.927C417.498 328.549 419.625 330.674 422.248 330.674Z" stroke="black" stroke-miterlimit="10"/>
<path d="M422.248 328.281C423.548 328.281 424.603 327.227 424.603 325.926C424.603 324.626 423.548 323.572 422.248 323.572C420.947 323.572 419.893 324.626 419.893 325.926C419.893 327.227 420.947 328.281 422.248 328.281Z" stroke="black" stroke-miterlimit="10"/>
<path d="M418.493 315.935C421.116 315.935 423.243 313.809 423.243 311.187C423.243 308.565 421.116 306.439 418.493 306.439C415.87 306.439 413.744 308.565 413.744 311.187C413.744 313.809 415.87 315.935 418.493 315.935Z" stroke="black" stroke-miterlimit="10"/>
<path d="M418.493 313.541C419.794 313.541 420.848 312.487 420.848 311.187C420.848 309.887 419.794 308.833 418.493 308.833C417.193 308.833 416.138 309.887 416.138 311.187C416.138 312.487 417.193 313.541 418.493 313.541Z" stroke="black" stroke-miterlimit="10"/>
<path d="M304.929 227.689C307.279 231.997 308.585 234.738 311.459 234.738C314.332 234.738 314.723 231.474 314.723 231.474" fill="white"/>
<path d="M304.929 227.689C307.279 231.997 308.585 234.738 311.459 234.738C314.332 234.738 314.723 231.474 314.723 231.474" stroke="black" stroke-miterlimit="10"/>
<path d="M284.437 266.892H266.076C265.393 266.892 264.839 267.446 264.839 268.129V268.129C264.839 268.813 265.393 269.367 266.076 269.367H284.437C285.121 269.367 285.675 268.813 285.675 268.129V268.129C285.675 267.446 285.121 266.892 284.437 266.892Z" fill="black" stroke="black" stroke-miterlimit="10"/>
<path d="M311.621 218.926C311.621 218.926 311.068 213.486 307.046 213.486C304.203 213.486 303.34 215.495 303.34 217.034C303.34 218.217 304.129 220.03 305.39 221.922C306.652 223.814 309.333 227.598 309.333 227.598" stroke="black" stroke-miterlimit="10"/>
<path d="M306.96 163.348L300.175 176.159" stroke="black" stroke-miterlimit="10"/>
<path d="M279.036 173.69L277.764 188.796" stroke="black" stroke-miterlimit="10"/>
<path d="M257.683 204.338L264.809 217.349" stroke="black" stroke-miterlimit="10"/>
<path d="M256.364 238.178L270.111 243.369" stroke="black" stroke-miterlimit="10"/>
<path d="M335.326 198.34L333.411 180.284" stroke="black" stroke-miterlimit="10"/>
<path d="M397.335 299.392V289.547C397.335 282.169 402.002 276.888 412.131 276.888H436.009C436.009 276.888 446.501 252.296 448.672 247.232C450.842 242.169 453.335 239.916 457.55 239.916C463.338 239.916 465.661 245.134 462.462 252.79C460.432 257.648 451.928 277.974 449.395 283.398C446.862 288.823 439.741 299.328 426.413 299.328C417.368 299.328 397.335 299.392 397.335 299.392Z" fill="white" stroke="black" stroke-miterlimit="10"/>
<path d="M461.182 240.933C461.182 240.933 458.792 247.279 457.973 249.493C457.236 251.487 456.696 255.939 460.114 258.179" stroke="black" stroke-miterlimit="10"/>
<path d="M434.095 252.535H404.674V258.62H434.095V252.535Z" fill="white" stroke="black" stroke-miterlimit="10"/>
<path d="M407.351 252.648V258.662" stroke="black" stroke-miterlimit="10"/>
<path d="M411.362 252.648V258.662" stroke="black" stroke-miterlimit="10"/>
<path d="M415.373 252.648V258.662" stroke="black" stroke-miterlimit="10"/>
<path d="M419.384 252.648V258.662" stroke="black" stroke-miterlimit="10"/>
<path d="M423.395 252.648V258.662" stroke="black" stroke-miterlimit="10"/>
<path d="M427.407 252.648V258.662" stroke="black" stroke-miterlimit="10"/>
<path d="M431.417 252.648V258.662" stroke="black" stroke-miterlimit="10"/>
<path d="M436.906 258.607H407.485V264.692H436.906V258.607Z" fill="white" stroke="black" stroke-miterlimit="10"/>
<path d="M410.162 258.72V264.735" stroke="black" stroke-miterlimit="10"/>
<path d="M414.173 258.72V264.735" stroke="black" stroke-miterlimit="10"/>
<path d="M418.184 258.72V264.735" stroke="black" stroke-miterlimit="10"/>
<path d="M422.195 258.72V264.735" stroke="black" stroke-miterlimit="10"/>
<path d="M426.206 258.72V264.735" stroke="black" stroke-miterlimit="10"/>
<path d="M430.217 258.72V264.735" stroke="black" stroke-miterlimit="10"/>
<path d="M434.229 258.72V264.735" stroke="black" stroke-miterlimit="10"/>
<path d="M438.572 264.738H409.15V270.823H438.572V264.738Z" fill="white" stroke="black" stroke-miterlimit="10"/>
<path d="M411.827 264.851V270.865" stroke="black" stroke-miterlimit="10"/>
<path d="M415.838 264.851V270.865" stroke="black" stroke-miterlimit="10"/>
<path d="M419.85 264.851V270.865" stroke="black" stroke-miterlimit="10"/>
<path d="M423.861 264.851V270.865" stroke="black" stroke-miterlimit="10"/>
<path d="M427.872 264.851V270.865" stroke="black" stroke-miterlimit="10"/>
<path d="M431.883 264.851V270.865" stroke="black" stroke-miterlimit="10"/>
<path d="M435.895 264.851V270.865" stroke="black" stroke-miterlimit="10"/>
<path d="M430.54 270.763H401.119V276.849H430.54V270.763Z" fill="white" stroke="black" stroke-miterlimit="10"/>
<path d="M403.796 270.876V276.891" stroke="black" stroke-miterlimit="10"/>
<path d="M407.808 270.876V276.891" stroke="black" stroke-miterlimit="10"/>
<path d="M411.819 270.876V276.891" stroke="black" stroke-miterlimit="10"/>
<path d="M415.83 270.876V276.891" stroke="black" stroke-miterlimit="10"/>
<path d="M419.841 270.876V276.891" stroke="black" stroke-miterlimit="10"/>
<path d="M423.852 270.876V276.891" stroke="black" stroke-miterlimit="10"/>
<path d="M427.863 270.876V276.891" stroke="black" stroke-miterlimit="10"/>
<path d="M65.6637 299.041C65.6637 270.535 35.6442 246.767 35.6442 222.998C35.6442 199.23 57.3365 178.445 57.3365 164.199C57.3365 155.35 51.7399 152.031 51.7399 145.123C51.7399 138.305 57.6983 134.424 63.9553 134.424C76.8845 134.424 90.7043 147.938 90.0788 167.328C89.4534 186.717 69.5431 210.042 69.5431 228.673C69.5431 248.215 81.3191 261.151 81.3191 271.784" fill="white"/>
<path d="M65.6637 299.041C65.6637 270.535 35.6442 246.767 35.6442 222.998C35.6442 199.23 57.3365 178.445 57.3365 164.199C57.3365 155.35 51.7399 152.031 51.7399 145.123C51.7399 138.305 57.6983 134.424 63.9553 134.424C76.8845 134.424 90.7043 147.938 90.0788 167.328C89.4534 186.717 69.5431 210.042 69.5431 228.673C69.5431 248.215 81.3191 261.151 81.3191 271.784" stroke="black" stroke-miterlimit="10"/>
<path d="M63.9562 134.427C63.9562 134.427 78.0553 145.668 78.0553 162.155C78.0553 187.863 51.108 202.994 51.108 221.949C51.108 244.024 71.3428 259.877 71.3428 280.836" stroke="black" stroke-miterlimit="10"/>
<path d="M71.8068 289.87C71.8068 262.394 47.2366 248.222 47.2366 224.56C47.2366 204.912 63.2984 196.038 80.2057 196.038C102.548 196.038 114.442 207.393 126.898 207.393C141.833 207.393 138.259 189.614 150.358 189.614C157.939 189.614 164.929 197.237 164.929 210.183C164.929 226.406 149.906 236.284 129.121 236.284H93.8664C90.8037 236.284 87.8665 237.501 85.7009 239.665C83.5353 241.83 82.3186 244.766 82.3186 247.828V289.892" fill="white"/>
<path d="M71.8068 289.87C71.8068 262.394 47.2366 248.222 47.2366 224.56C47.2366 204.912 63.2984 196.038 80.2057 196.038C102.548 196.038 114.442 207.393 126.898 207.393C141.833 207.393 138.259 189.614 150.358 189.614C157.939 189.614 164.929 197.237 164.929 210.183C164.929 226.406 149.906 236.284 129.121 236.284H93.8664C90.8037 236.284 87.8665 237.501 85.7009 239.665C83.5353 241.83 82.3186 244.766 82.3186 247.828V289.892" stroke="black" stroke-miterlimit="10"/>
<path d="M164.668 213.073C162.745 224.124 152.873 229.514 134.656 229.514H101.642C94.6533 229.514 82.3191 231.827 82.3191 247.829" stroke="black" stroke-miterlimit="10"/>
<path d="M285.727 64.8442L147.643 38.0605" stroke="black" stroke-miterlimit="10"/>
<path d="M698.948 78.8398L832.91 17.458" stroke="black" stroke-miterlimit="10"/>
<path d="M694.83 110.025L914.317 60.7236" stroke="black" stroke-miterlimit="10"/>
<path d="M681.815 152.801L719.943 176.494" stroke="black" stroke-miterlimit="10"/>
<path d="M669.526 167.124L735.014 271.9" stroke="black" stroke-miterlimit="10"/>
<path d="M492.712 151.375L422.639 227.604" stroke="black" stroke-miterlimit="10"/>
<path d="M472.658 150.235L404.232 193.61" stroke="black" stroke-miterlimit="10"/>
<path d="M308.398 117.381L116.729 164.766" stroke="black" stroke-miterlimit="10"/>
<path d="M291.91 88.5369L50.7787 80.2959" stroke="black" stroke-miterlimit="10"/>
<path d="M508.985 152.083L474.222 220.562" stroke="black" stroke-miterlimit="10"/>
<path d="M687.175 134.978H802.32" stroke="black" stroke-miterlimit="10"/>
<path d="M326.06 285.527H287.694V268.115H313.229L326.06 285.527Z" fill="white" stroke="black" stroke-miterlimit="10"/>
<path d="M186.849 118.134C190.3 118.134 192.752 115.042 192.751 111.557C192.751 108.257 190.537 104.886 185.844 104.851H175.596V109.033H179.546L179.55 119.668H175.6V123.85H179.55V127.531H182.25V123.85H188.794V119.668H182.25V118.134L186.849 118.134ZM182.25 109.034H187.017C189.651 109.034 190.04 110.731 190.04 111.672C190.04 112.613 189.376 113.898 187.551 113.899H182.249L182.25 109.034Z" fill="black" stroke="black" stroke-miterlimit="10"/>
<path d="M336.096 78.437L336.055 78.4633C336.07 78.4787 336.084 78.4688 336.096 78.437Z" fill="white" stroke="black" stroke-miterlimit="10"/>
<path d="M342.806 67.2959C342.806 60.0649 337.68 57.6872 332.358 57.2455C328.953 56.9633 326.324 56.8107 323.7 56.5344C320.83 56.2325 317.719 54.9776 317.719 52.4188C317.719 49.3824 321.309 48.3798 324.093 48.3788C333.458 48.3758 339.045 52.435 339.045 52.435L339.042 44.8281C336.422 42.8159 331.501 41.3927 331.501 41.3927V37.655H326.988V41.3927H324.57V37.655H320.057V41.5517C316.13 43.2405 312.546 45.925 312.551 52.3535C312.551 59.584 319.089 62.7838 324.664 63.277C328.6 63.6255 331.749 63.6382 333.934 63.9734C336.208 64.3224 337.558 65.1841 337.559 67.5997C337.559 70.6547 334.315 71.4409 330.189 71.4424C320.045 71.4458 314.279 67.8063 314.279 67.8063V75.4132C316.684 77.4229 320.941 78.0015 320.941 78.0015V83.449H325.454V78.4329H327.872V83.5634H332.384V78.4324C339.012 77.7866 342.809 73.4634 342.806 67.2959Z" fill="white" stroke="black" stroke-miterlimit="10"/>
<path d="M448.816 110.657C455.208 109.261 457.984 104.288 457.982 100.239C457.982 93.3263 451.649 88.0221 443.585 88.0251V81.9209H437.926V88.0251H434.894V81.9209H429.235V88.0251L420.963 88.028L420.966 96.7867L429.238 96.7838L429.248 125.654L421.046 125.657L421.049 134.529L429.252 134.526V140.521H434.911V134.526H437.989V140.562H443.648V134.526C455.028 134.522 459.79 128.669 459.788 121.371C459.785 115.463 454.629 111.204 448.816 110.657ZM444.883 96.7833C450.399 96.7833 451.211 100.007 451.212 101.976C451.213 103.946 449.365 106.969 444.932 106.971L434.9 106.975L434.897 96.7867L444.883 96.7833ZM446.473 125.653L434.907 125.657L434.903 115.846L446.599 115.842C450.688 115.842 452.434 117.77 452.435 120.988C452.436 123.835 450.325 125.652 446.473 125.653Z" fill="black" stroke="black" stroke-miterlimit="10"/>
<path d="M814.618 107.741C817.475 107.117 818.715 104.895 818.715 103.085C818.715 99.9929 815.885 97.6249 812.28 97.6259V94.8977H809.751V97.6259H808.396V94.8977H805.866V97.6259H802.169V101.541H805.866L805.871 114.444H802.205V118.408H805.871V121.089H808.4V118.409H809.775V121.108H812.304V118.409C817.39 118.409 819.518 115.791 819.517 112.53C819.52 109.889 817.216 107.985 814.618 107.741ZM812.86 101.54C815.325 101.54 815.689 102.981 815.689 103.861C815.689 104.741 814.863 106.093 812.882 106.094H808.399V101.54H812.86ZM813.571 114.443H808.402V110.058H813.629C815.456 110.058 816.236 110.921 816.237 112.359C816.236 113.63 815.292 114.443 813.571 114.443Z" fill="black" stroke="black" stroke-miterlimit="10"/>
<path d="M491.034 34.3351L469.813 55.5491L491.034 76.7631L512.255 55.5491L491.034 34.3351Z" fill="white" stroke="black" stroke-miterlimit="10"/>
<path d="M469.812 55.5496L491.02 62.2157L512.255 55.5496" stroke="black" stroke-miterlimit="10"/>
<path d="M491.034 34.5933V76.6839" stroke="black" stroke-miterlimit="10"/>
<path d="M377.153 81.2893H374.163C367.873 81.2893 362.775 86.3859 362.775 92.6729C362.775 98.9599 367.873 104.057 374.163 104.057H377.153C383.442 104.057 388.541 98.9599 388.541 92.6729C388.541 86.3859 383.442 81.2893 377.153 81.2893Z" fill="white" stroke="black" stroke-miterlimit="10"/>
<path d="M373.286 81.2893H370.295C364.006 81.2893 358.908 86.3859 358.908 92.6729C358.908 98.9599 364.006 104.057 370.295 104.057H373.286C379.575 104.057 384.673 98.9599 384.673 92.6729C384.673 86.3859 379.575 81.2893 373.286 81.2893Z" fill="white" stroke="black" stroke-miterlimit="10"/>
<path d="M896.585 115.066H894.324C889.57 115.066 885.715 118.919 885.715 123.672C885.715 128.425 889.57 132.278 894.324 132.278H896.585C901.34 132.278 905.194 128.425 905.194 123.672C905.194 118.919 901.34 115.066 896.585 115.066Z" fill="white" stroke="black" stroke-miterlimit="10"/>
<path d="M893.661 115.066H891.401C886.646 115.066 882.792 118.919 882.792 123.672C882.792 128.425 886.646 132.278 891.401 132.278H893.661C898.416 132.278 902.27 128.425 902.27 123.672C902.27 118.919 898.416 115.066 893.661 115.066Z" fill="white" stroke="black" stroke-miterlimit="10"/>
<path d="M630.209 69.8784L617.44 57.114L612.096 62.456L606.752 57.114L601.409 62.456L596.065 57.114L583.296 69.8784L596.065 82.6428L601.409 77.3012L606.752 82.6428L612.096 77.3012L617.44 82.6428L630.209 69.8784Z" fill="white" stroke="black" stroke-miterlimit="10"/>
<path d="M597.483 66.2777L601.673 62.2" stroke="black" stroke-miterlimit="10"/>
<path d="M608.24 66.3259L612.359 62.1946" stroke="black" stroke-miterlimit="10"/>
<path d="M601.092 77.6193L605.284 73.542" stroke="black" stroke-miterlimit="10"/>
<path d="M611.693 77.6957L615.811 73.5645" stroke="black" stroke-miterlimit="10"/>
<path d="M525.411 115.86H516.475L512.007 123.596L516.475 131.332H525.411L529.879 123.596L525.411 115.86Z" fill="white" stroke="black" stroke-miterlimit="10"/>
<path d="M523.025 115.86H514.089L509.621 123.596L514.089 131.332H523.025L527.493 123.596L523.025 115.86Z" fill="white" stroke="black" stroke-miterlimit="10"/>
<path d="M80.6181 40.085H71.6821L67.2141 47.8209L71.6821 55.5574H80.6181L85.086 47.8209L80.6181 40.085Z" fill="white" stroke="black" stroke-miterlimit="10"/>
<path d="M78.2321 40.085H69.2961L64.8281 47.8209L69.2961 55.5574H78.2321L82.7001 47.8209L78.2321 40.085Z" fill="white" stroke="black" stroke-miterlimit="10"/>
<path d="M643.987 154.243V145.31L636.248 140.844L628.51 145.31V154.243L636.248 158.709L643.987 154.243Z" fill="black" stroke="black" stroke-miterlimit="10"/>
<path d="M643.987 151.858V142.925L636.248 138.458L628.51 142.925V151.858L636.248 156.324L643.987 151.858Z" fill="black" stroke="black" stroke-miterlimit="10"/>
<path d="M548.103 78.8065H543.852C543.559 78.8066 543.269 78.749 542.998 78.637C542.728 78.525 542.482 78.3608 542.275 78.1538C542.068 77.9468 541.904 77.701 541.791 77.4305C541.679 77.1601 541.622 76.8702 541.622 76.5774V72.3274H538.198V76.5774C538.198 76.8702 538.14 77.1601 538.028 77.4305C537.916 77.701 537.752 77.9468 537.545 78.1538C537.338 78.3608 537.092 78.525 536.821 78.637C536.551 78.749 536.261 78.8066 535.968 78.8065H531.716V82.2296H535.968C536.261 82.2295 536.551 82.2871 536.821 82.3991C537.092 82.5111 537.338 82.6753 537.545 82.8823C537.752 83.0893 537.916 83.3351 538.028 83.6056C538.14 83.876 538.198 84.1659 538.198 84.4587V88.7087H541.622V84.4611C541.622 84.1684 541.679 83.8785 541.791 83.608C541.904 83.3375 542.068 83.0918 542.275 82.8848C542.482 82.6778 542.728 82.5136 542.998 82.4016C543.269 82.2896 543.559 82.232 543.852 82.2321H548.103V78.8065Z" fill="black" stroke="black" stroke-miterlimit="10"/>
<path d="M753.664 159.975L750.658 156.97C750.451 156.763 750.287 156.517 750.175 156.247C750.063 155.976 750.005 155.686 750.005 155.394C750.005 155.101 750.063 154.811 750.175 154.54C750.287 154.27 750.451 154.024 750.658 153.817L753.664 150.812L751.243 148.392L748.237 151.397C747.819 151.815 747.251 152.05 746.66 152.05C746.069 152.05 745.502 151.815 745.083 151.397L742.077 148.392L739.656 150.812L742.662 153.817C742.869 154.024 743.034 154.27 743.146 154.54C743.258 154.811 743.315 155.101 743.315 155.394C743.315 155.686 743.258 155.976 743.146 156.247C743.034 156.517 742.869 156.763 742.662 156.97L739.656 159.975L742.077 162.395L745.083 159.39C745.502 158.972 746.069 158.737 746.66 158.737C747.251 158.737 747.819 158.972 748.237 159.39L751.243 162.395L753.664 159.975Z" fill="black" stroke="black" stroke-miterlimit="10"/>
<path d="M197.812 69.2713L194.806 66.2659C194.599 66.0589 194.434 65.8132 194.322 65.5428C194.21 65.2723 194.152 64.9825 194.152 64.6898C194.152 64.3971 194.21 64.1072 194.322 63.8368C194.434 63.5663 194.599 63.3206 194.806 63.1137L197.812 60.1082L195.391 57.6877L192.385 60.6932C192.178 60.9002 191.932 61.0644 191.662 61.1765C191.391 61.2885 191.101 61.3462 190.808 61.3462C190.515 61.3462 190.225 61.2885 189.955 61.1765C189.684 61.0644 189.439 60.9002 189.232 60.6932L186.225 57.6877L183.804 60.1082L186.81 63.1137C187.017 63.3206 187.182 63.5663 187.294 63.8368C187.406 64.1072 187.464 64.3971 187.464 64.6898C187.464 64.9825 187.406 65.2723 187.294 65.5428C187.182 65.8132 187.017 66.0589 186.81 66.2659L183.804 69.2713L186.225 71.6918L189.232 68.6863C189.439 68.4793 189.684 68.3151 189.955 68.2031C190.225 68.091 190.515 68.0333 190.808 68.0333C191.101 68.0333 191.391 68.091 191.662 68.2031C191.932 68.3151 192.178 68.4793 192.385 68.6863L195.391 71.6918L197.812 69.2713Z" fill="black" stroke="black" stroke-miterlimit="10"/>
<path d="M557.611 38.1941C556.796 38.1933 555.997 38.4222 555.306 38.8545C554.616 39.2867 554.061 39.9049 553.705 40.638C553.35 41.3712 553.209 42.1896 553.297 42.9994C553.386 43.8092 553.701 44.5776 554.207 45.2165C553.701 45.8554 553.386 46.6238 553.297 47.4336C553.209 48.2434 553.35 49.0618 553.705 49.795C554.061 50.5281 554.616 51.1462 555.306 51.5785C555.997 52.0108 556.796 52.2397 557.611 52.2389H559.58V38.1941H557.611Z" fill="white" stroke="black" stroke-miterlimit="10"/>
<path d="M563.918 42.5315C563.919 41.8393 563.754 41.1569 563.438 40.5414C563.121 39.9259 562.661 39.3951 562.097 38.9934C561.533 38.5918 560.882 38.3308 560.196 38.2325C559.511 38.1341 558.812 38.2012 558.157 38.4281C557.503 38.655 556.913 39.0351 556.436 39.5366C555.958 40.0382 555.608 40.6467 555.414 41.3112C555.22 41.9757 555.188 42.6769 555.321 43.3564C555.454 44.0358 555.747 44.6736 556.176 45.2165C555.671 45.8557 555.356 46.6244 555.267 47.4345C555.178 48.2446 555.319 49.0633 555.675 49.7968C556.03 50.5303 556.584 51.1489 557.275 51.5818C557.966 52.0146 558.765 52.2442 559.58 52.2442C560.395 52.2442 561.194 52.0146 561.884 51.5818C562.575 51.1489 563.13 50.5303 563.485 49.7968C563.84 49.0633 563.982 48.2446 563.893 47.4345C563.804 46.6244 563.489 45.8557 562.983 45.2165C563.59 44.4529 563.919 43.5064 563.918 42.5315Z" fill="white" stroke="black" stroke-miterlimit="10"/>
<path d="M554.179 45.2129H556.029" stroke="black" stroke-miterlimit="10"/>
<path d="M252.4 101.147C251.585 101.147 250.786 101.375 250.096 101.808C249.405 102.24 248.85 102.858 248.495 103.591C248.14 104.324 247.998 105.143 248.087 105.953C248.176 106.762 248.491 107.531 248.997 108.17C248.491 108.808 248.176 109.577 248.087 110.387C247.998 111.196 248.14 112.015 248.495 112.748C248.85 113.481 249.405 114.099 250.096 114.531C250.786 114.964 251.585 115.193 252.4 115.192H254.369V101.147H252.4Z" fill="white" stroke="black" stroke-miterlimit="10"/>
<path d="M258.708 105.486C258.709 104.793 258.544 104.111 258.228 103.496C257.911 102.88 257.451 102.349 256.887 101.948C256.323 101.546 255.671 101.285 254.986 101.187C254.301 101.088 253.602 101.155 252.947 101.382C252.293 101.609 251.703 101.989 251.226 102.491C250.748 102.992 250.398 103.601 250.204 104.265C250.01 104.93 249.978 105.631 250.111 106.31C250.243 106.99 250.537 107.628 250.966 108.171C250.461 108.81 250.145 109.579 250.057 110.389C249.968 111.199 250.109 112.017 250.464 112.751C250.82 113.484 251.374 114.103 252.065 114.536C252.756 114.969 253.555 115.198 254.37 115.198C255.185 115.198 255.984 114.969 256.674 114.536C257.365 114.103 257.92 113.484 258.275 112.751C258.63 112.017 258.772 111.199 258.683 110.389C258.594 109.579 258.279 108.81 257.773 108.171C258.379 107.407 258.709 106.46 258.708 105.486Z" fill="white" stroke="black" stroke-miterlimit="10"/>
<path d="M248.969 108.167H250.819" stroke="black" stroke-miterlimit="10"/>
<path d="M857.693 42.8965C856.878 42.8957 856.08 43.1246 855.389 43.5569C854.698 43.9891 854.143 44.6073 853.788 45.3404C853.432 46.0736 853.291 46.892 853.38 47.7018C853.469 48.5116 853.784 49.28 854.289 49.9189C853.784 50.5577 853.469 51.3262 853.38 52.136C853.291 52.9458 853.432 53.7642 853.788 54.4973C854.143 55.2305 854.698 55.8486 855.389 56.2809C856.08 56.7132 856.878 56.9421 857.693 56.9413H859.663V42.8965H857.693Z" fill="white" stroke="black" stroke-miterlimit="10"/>
<path d="M864.001 47.2339C864.002 46.5417 863.837 45.8593 863.52 45.2438C863.204 44.6283 862.744 44.0975 862.18 43.6958C861.616 43.2942 860.964 43.0332 860.279 42.9349C859.593 42.8365 858.894 42.9036 858.24 43.1305C857.586 43.3573 856.996 43.7375 856.518 44.239C856.041 44.7406 855.691 45.3491 855.497 46.0136C855.303 46.6781 855.271 47.3793 855.404 48.0587C855.536 48.7381 855.83 49.376 856.259 49.9189C855.754 50.5581 855.438 51.3268 855.35 52.1369C855.261 52.947 855.402 53.7657 855.757 54.4992C856.112 55.2327 856.667 55.8513 857.358 56.2842C858.049 56.717 858.847 56.9466 859.663 56.9466C860.478 56.9466 861.277 56.717 861.967 56.2842C862.658 55.8513 863.213 55.2327 863.568 54.4992C863.923 53.7657 864.064 52.947 863.976 52.1369C863.887 51.3268 863.572 50.5581 863.066 49.9189C863.672 49.1553 864.002 48.2088 864.001 47.2339Z" fill="white" stroke="black" stroke-miterlimit="10"/>
<path d="M854.262 49.916H856.111" stroke="black" stroke-miterlimit="10"/>
<path d="M897.09 195.508C896.275 195.507 895.476 195.736 894.785 196.168C894.094 196.6 893.539 197.218 893.184 197.951C892.829 198.685 892.687 199.503 892.776 200.313C892.865 201.123 893.181 201.891 893.686 202.53C893.181 203.169 892.865 203.937 892.776 204.747C892.687 205.557 892.829 206.375 893.184 207.108C893.539 207.842 894.094 208.46 894.785 208.892C895.476 209.324 896.275 209.553 897.09 209.552H899.059V195.508H897.09Z" fill="white" stroke="black" stroke-miterlimit="10"/>
<path d="M903.398 199.845C903.399 199.153 903.234 198.47 902.917 197.855C902.601 197.239 902.141 196.709 901.577 196.307C901.013 195.905 900.361 195.644 899.676 195.546C898.99 195.448 898.291 195.515 897.637 195.742C896.983 195.968 896.393 196.349 895.915 196.85C895.438 197.352 895.088 197.96 894.894 198.625C894.7 199.289 894.668 199.99 894.801 200.67C894.933 201.349 895.227 201.987 895.656 202.53C895.151 203.169 894.835 203.938 894.747 204.748C894.658 205.558 894.799 206.377 895.154 207.11C895.509 207.844 896.064 208.462 896.755 208.895C897.446 209.328 898.244 209.558 899.06 209.558C899.875 209.558 900.673 209.328 901.364 208.895C902.055 208.462 902.61 207.844 902.965 207.11C903.32 206.377 903.461 205.558 903.373 204.748C903.284 203.938 902.969 203.169 902.463 202.53C903.069 201.766 903.398 200.82 903.398 199.845Z" fill="white" stroke="black" stroke-miterlimit="10"/>
<path d="M893.658 202.527H895.508" stroke="black" stroke-miterlimit="10"/>
<path d="M837.927 229.455C837.927 229.455 840.295 242.08 836.104 251.664C833.816 256.783 829.976 261.053 825.127 263.87" stroke="black" stroke-miterlimit="10"/>
<path d="M777.854 185.314C777.854 185.314 776.695 191.194 783.386 194.896" stroke="black" stroke-miterlimit="10"/>
<path d="M780.924 183.94C780.924 183.94 780.43 191.099 790.732 193.074" stroke="black" stroke-miterlimit="10"/>
<path d="M756.528 275.056C755.785 274.89 755.017 274.872 754.268 275.002C753.518 275.132 752.801 275.409 752.159 275.816C751.516 276.223 750.96 276.753 750.522 277.375C750.084 277.997 749.773 278.699 749.607 279.441C749.441 280.183 749.422 280.951 749.553 281.7C749.683 282.45 749.96 283.166 750.367 283.808C750.774 284.451 751.304 285.007 751.926 285.444C752.549 285.882 753.251 286.193 753.993 286.359C757.116 287.059 788.306 287.112 788.306 287.112C788.306 287.112 759.649 275.756 756.528 275.056ZM751.044 279.763C751.168 279.209 751.399 278.685 751.725 278.221C752.051 277.756 752.466 277.361 752.946 277.057C753.425 276.753 753.96 276.547 754.519 276.451C755.079 276.354 755.652 276.368 756.205 276.493C758.098 276.917 770.98 281.892 780.462 285.606C768.986 285.527 756.069 285.315 754.315 284.922C753.198 284.671 752.226 283.986 751.612 283.019C750.999 282.052 750.794 280.881 751.043 279.763H751.044Z" fill="black"/>
<path d="M804.062 293.689L883.582 403.606" stroke="white" stroke-miterlimit="10"/>
<path d="M798.907 293.689L841.859 407.286" stroke="white" stroke-miterlimit="10"/>
<path d="M793.017 293.689L804.307 408.022" stroke="white" stroke-miterlimit="10"/>
<path d="M675.419 115.457L675.41 115.508L675.41 115.508C674.362 121.411 672.588 125.726 670.189 128.404L670.189 128.404C667.762 131.114 664.473 132.5 660.362 132.5C657.138 132.5 654.481 131.727 652.43 130.242L652.43 130.242C650.372 128.756 648.702 126.769 647.472 124.325C646.253 121.9 645.394 119.085 644.926 115.953L644.926 115.952C644.686 114.362 644.507 112.742 644.388 111.099L644.355 110.636H643.89H638.5V106.185H643.721H644.217L644.221 105.69C644.231 104.533 644.268 103.396 644.33 102.282L644.36 101.754H643.831H639.912V97.3071H644.378H644.81L644.872 96.8791C644.948 96.3611 645.031 95.8503 645.121 95.3453L645.121 95.3447C645.719 91.9663 646.686 89.0015 647.984 86.5266C649.291 84.0352 650.987 82.0605 653.019 80.6426C655.049 79.2291 657.566 78.5 660.522 78.5C662.739 78.5 664.66 78.925 666.249 79.7423C667.85 80.5666 669.175 81.6781 670.194 83.0474L670.194 83.0476C671.207 84.4075 671.976 86.0178 672.475 87.839C672.969 89.6558 673.22 91.5797 673.22 93.5583V93.6129L667.799 93.9233V93.858C667.799 92.6312 667.718 91.3898 667.563 90.1677L667.563 90.1673C667.41 88.9701 667.071 87.8694 666.551 86.8987L666.55 86.8979C666.036 85.9407 665.291 85.1583 664.343 84.5745C663.371 83.9733 662.071 83.6933 660.522 83.6933C658.451 83.6933 656.705 84.1984 655.376 85.2396C654.053 86.2774 652.996 87.7323 652.225 89.5419L652.225 89.5422C651.442 91.3842 650.905 93.5551 650.622 95.9877L650.622 95.9879C650.592 96.2418 650.565 96.4961 650.538 96.7552L650.483 97.3055H651.036H667.189V101.753H650.708H650.218L650.208 102.242C650.197 102.799 650.19 103.361 650.19 103.93C650.19 104.53 650.197 105.117 650.207 105.694L650.215 106.185H650.707H665.701V110.636H650.992H650.445L650.494 111.181C650.884 115.475 651.654 119.023 652.812 121.754C653.664 123.767 654.708 125.306 655.981 126.343C657.264 127.388 658.753 127.903 660.443 127.903C661.861 127.903 663.138 127.55 664.221 126.838L664.222 126.838C665.311 126.12 666.278 125.145 667.101 123.946L667.102 123.945C667.937 122.722 668.632 121.295 669.17 119.703C669.715 118.097 670.149 116.405 670.46 114.672L675.419 115.457ZM675.419 115.457L670.472 114.603L670.46 114.672L675.419 115.457Z" fill="white" stroke="black"/>
</svg>
