<svg viewBox="0 0 15 19" fill="none" xmlns="http://www.w3.org/2000/svg">
<path fill-rule="evenodd" clip-rule="evenodd" d="M5.04228 18.1034H5.01728C3.74728 18.0914 2.83828 16.9644 2.11728 15.8634C0.352275 13.1684 -0.0137246 9.80037 1.24528 7.85437C2.07628 6.57337 3.40728 5.77737 4.72128 5.77737C5.40228 5.77737 5.95028 5.97337 6.43328 6.14537C6.85428 6.29637 7.21828 6.42637 7.62028 6.42637C7.98528 6.42637 8.30028 6.30737 8.66428 6.16837C9.14928 5.98437 9.69928 5.77637 10.5093 5.77637C11.6663 5.77637 12.8563 6.40137 13.6943 7.44737L13.9603 7.78037L13.5863 7.98637C12.5503 8.55537 11.9803 9.59337 12.0623 10.7624C12.1463 11.9554 12.8823 12.9554 13.9823 13.3724L14.3383 13.5074L14.1823 13.8544C13.8183 14.6614 13.6373 15.0344 13.1723 15.7424C12.4133 16.9024 11.4683 18.0904 10.2253 18.1014C9.69128 18.1114 9.33228 17.9434 8.98928 17.7854C8.62428 17.6174 8.27728 17.4474 7.63628 17.4624C6.99528 17.4664 6.64228 17.6234 6.26828 17.7904C5.92428 17.9444 5.56828 18.1034 5.04228 18.1034ZM4.72128 6.49437C3.64828 6.49437 2.54728 7.16437 1.84728 8.24437C0.916276 9.68237 0.904275 12.7034 2.71728 15.4704C3.29828 16.3584 4.08628 17.3784 5.02428 17.3864C5.39728 17.3784 5.65828 17.2784 5.97628 17.1364C6.38128 16.9554 6.84028 16.7504 7.63228 16.7454C8.43828 16.7504 8.90828 16.9594 9.28928 17.1344C9.59228 17.2734 9.83328 17.3844 10.2013 17.3844H10.2183C11.1303 17.3764 11.9553 16.2924 12.5733 15.3494C12.9453 14.7824 13.1183 14.4554 13.3783 13.8894C12.2093 13.3064 11.4423 12.1584 11.3473 10.8124C11.2553 9.50537 11.8173 8.33037 12.8663 7.59137C12.1933 6.89737 11.3363 6.49237 10.5093 6.49237C9.83128 6.49237 9.36728 6.66937 8.91828 6.83937C8.52428 6.98837 8.11728 7.14337 7.62028 7.14337C7.09328 7.14337 6.63528 6.97937 6.19228 6.82037C5.74228 6.66037 5.27728 6.49437 4.72128 6.49437Z" fill="#FBFBFB" stroke="#FBFBFB" stroke-width="0.5"/>
<path fill-rule="evenodd" clip-rule="evenodd" d="M7.76826 4.6573C7.74126 4.6573 7.71426 4.6573 7.68826 4.6563L7.40626 4.6493L7.34726 4.3733C7.17126 3.5573 7.51226 2.6093 8.25926 1.8363C8.93226 1.1413 10.0353 0.636303 11.0043 0.579303L11.3243 0.560303L11.3783 0.876303C11.5283 1.7303 11.2043 2.6673 10.4913 3.4463C9.81326 4.1873 8.75326 4.6573 7.76826 4.6573ZM10.6983 1.3393C10.0003 1.4703 9.23526 1.8593 8.77526 2.3353C8.58226 2.5343 8.01526 3.1843 8.01626 3.9273C8.72826 3.8563 9.48026 3.4903 9.96226 2.9633C10.1943 2.7093 10.6803 2.0903 10.6983 1.3393Z" fill="#FBFBFB" stroke="#FBFBFB" stroke-width="0.5"/>
</svg>
