<svg viewBox="0 0 991 132" fill="none" xmlns="http://www.w3.org/2000/svg">
<path d="M990.5 132H0C57 132 73.7975 86.2679 136.819 86.2679C189.243 86.2679 195.442 114.844 242.862 114.844C290.282 114.844 517.837 19.9487 678.265 19.9487C751 19.9487 797.967 83.8609 824.166 91.3378C845.798 97.5088 857.858 80.5578 888.855 80.5578C917.492 80.5578 928 132 990.5 132Z" fill="#EADDCF"/>
<path d="M126.914 89.1338H135.613C135.613 89.1338 145.287 83.6797 145.287 72.746C145.287 64.7057 139.488 63.7327 139.488 57.3056C139.488 50.8785 146.903 50.8785 146.903 41.8652C146.903 32.8519 140.463 29.6511 134.664 29.6511C130.147 29.6511 123.707 33.1848 123.707 39.9447C123.707 46.7047 130.147 46.7047 130.147 52.1588C130.147 57.6128 122.424 56.7422 122.424 62.8365C122.424 68.9307 127.581 67.2663 127.581 72.746C127.581 77.8928 119.858 75.3065 119.858 81.7592C119.832 86.2403 126.914 89.1338 126.914 89.1338Z" fill="#EADDCF"/>
<path d="M131.866 88.6982C131.866 88.6982 159.374 38.2544 168.535 40.815C177.696 43.3756 147.904 88.6982 147.904 88.6982H131.866Z" fill="#EADDCF"/>
<path d="M134.484 88.6987C134.484 88.6987 112.955 52.8247 104.923 57.9715C96.8915 63.1183 118.42 88.6987 118.42 88.6987H134.484Z" fill="#EADDCF"/>
<path d="M346.786 94.2849C346.786 94.2849 340.781 60.2031 346.067 57.9754C351.353 55.7477 355.433 91.1353 355.433 91.1353L346.786 94.2849Z" fill="#EADDCF"/>
<path d="M349.66 90.2388C349.66 90.2388 336.676 68.6273 331.852 71.7256C327.028 74.8239 339.986 90.2388 339.986 90.2388H349.66Z" fill="#EADDCF"/>
<path d="M351.841 89.9829C351.841 89.9829 364.825 68.3713 369.649 71.4696C374.473 74.568 361.515 89.9829 361.515 89.9829H351.841Z" fill="#EADDCF"/>
<path d="M887.418 83.1158C887.418 83.1158 877.821 79.9151 877.821 68.7765C877.821 57.6379 882.902 56.6136 885.288 50.6987C887.418 45.3726 883.159 34.7461 891.139 34.7461C899.119 34.7461 897.272 46.781 895.399 51.7485C892.191 60.2497 900.736 61.9653 898.606 69.8263C904.457 64.5003 910.282 55.8967 912.976 63.9882C916.183 73.5648 897.528 84.1913 897.528 84.1913L887.418 83.1158Z" fill="#EADDCF"/>
<path d="M866.868 22.02V22.4041C861.428 22.4041 858.272 25.6817 858.272 31.0845H857.733C857.733 25.6561 854.474 22.4041 849.085 22.4041V22.02C854.474 22.02 857.733 18.7424 857.733 13.3396H858.272C858.272 18.7168 861.428 22.02 866.868 22.02Z" fill="#1D1D1B"/>
<path d="M714.087 104.293V78.4564M680.96 77.4062L713.882 104.215M677.162 104.599H750.858M747.189 77.5088L714.267 104.318M714.138 104.216C714.138 104.216 687.503 61.5308 677.29 73.4887C665.589 87.1622 714.138 104.216 714.138 104.216ZM714.01 104.318C714.01 104.318 740.645 61.6334 750.858 73.5913C762.533 87.2903 714.01 104.318 714.01 104.318Z" stroke="#1E1E1E" stroke-miterlimit="10"/>
<path d="M734.025 57.971V58.8416C721.836 58.8416 714.703 66.2161 714.703 78.3277H713.497C713.497 66.1649 706.184 58.8416 694.098 58.8416V57.971C706.184 57.971 713.497 50.5965 713.497 38.4593H714.703C714.703 50.5965 721.836 57.971 734.025 57.971Z" fill="#1E1E1E" stroke="#1E1E1E" stroke-miterlimit="10"/>
<path d="M450.915 58.1755V19.2041M417.788 31.2899L450.736 58.1244M484.043 31.392L451.121 58.2265M450.992 58.1243C450.992 58.1243 424.357 15.4401 414.144 27.3978C402.443 41.0711 450.992 58.1243 450.992 58.1243ZM450.864 58.2264C450.864 58.2264 477.499 15.5422 487.712 27.4999C499.388 41.1732 450.864 58.2264 450.864 58.2264Z" stroke="#EADDCF" stroke-miterlimit="10"/>
<path d="M452.506 0C446.886 0 447.784 5.60757 443.525 6.27331C439.265 6.93904 432.465 -0.819371 429.848 4.71138C427.821 8.96187 434.775 10.5238 435.904 13.6732C437.52 18.1798 434.107 23.7617 437.238 25.9894C441.164 28.7804 443.525 21.0732 447.784 21.0732C452.044 21.0732 452.506 24.2482 458.1 23.9922C463.027 23.7617 464.31 18.6663 466.619 16.157C469.544 13.0331 476.165 16.4898 476.498 10.5494C476.934 2.25327 465.285 7.86084 461.692 6.06846C457.304 3.8408 459.024 0 452.506 0Z" fill="#EADDCF"/>
<path d="M448.298 105.675C448.298 105.675 463.156 91.4634 476.781 91.4634C490.407 91.4634 495.359 100.733 504.648 100.733C513.937 100.733 522.611 91.4634 536.852 91.4634C551.093 91.4634 564.103 105.06 564.103 105.06M561.999 64.2704C561.999 64.2704 571.698 55.0011 580.577 55.0011C589.455 55.0011 592.688 61.0441 598.744 61.0441C604.8 61.0441 610.471 55.0011 619.76 55.0011C629.049 55.0011 637.542 63.8607 637.542 63.8607M90.877 117.428C90.877 117.428 104.503 108.773 123.081 108.773C141.659 108.773 158.389 116.813 158.389 116.813M803.205 118.76C803.205 118.76 808.645 110.386 818.524 110.386C826.427 110.386 831.379 117.787 831.379 117.787C831.379 117.787 836.819 110.386 844.723 110.386C852.626 110.386 857.065 118.76 857.065 118.76C857.065 118.76 862.505 110.386 870.409 110.386C878.312 110.386 884.24 118.76 884.24 118.76" stroke="#1E1E1E" stroke-miterlimit="10"/>
</svg>
