<svg viewBox="0 0 162 226" fill="none" xmlns="http://www.w3.org/2000/svg">
<path d="M102.614 21.4727V22.4255C89.222 22.4255 81.4083 30.536 81.4083 43.8761H80.0802C80.0802 30.4695 72.0672 22.4255 58.8081 22.4255V21.4727C72.0672 21.4727 80.1023 13.3401 80.1023 0H81.4304C81.4083 13.3401 89.222 21.4727 102.614 21.4727Z" fill="black"/>
<path d="M73.3735 224.189L45.4608 224.61C45.1288 200.722 1.78781 167.195 1.03521 115.718C0.37115 71.8862 9.24742 47.4663 15.224 36.2978C19.8502 27.6555 24.72 22.4037 33.6405 22.2708C43.6457 22.1156 50.0207 27.6112 52.8319 45.6713C62.173 105.591 85.0831 147.783 73.3735 224.189Z" fill="white" stroke="#1D1D1B" stroke-width="2" stroke-miterlimit="10"/>
<path d="M66.8845 224.422C58.591 207.454 53.1015 175.476 50.109 148.514C46.7887 118.754 44.5087 75.4982 42.1624 47.9095C41.277 37.5831 37.8681 33.4836 32.8656 33.4171C27.1768 33.3506 23.9672 39.0899 21.8422 47.1339C19.4294 56.2858 9.02582 90.8105 12.4789 126.487C16.3827 167.005 52.4526 198.581 56.1387 224.422" stroke="#1D1D1B" stroke-width="2" stroke-miterlimit="10"/>
<path d="M88.0048 224.189L115.917 224.61C116.272 200.744 159.613 167.194 160.365 115.717C161.007 71.8857 152.153 47.4879 146.154 36.2973C141.528 27.6551 136.658 22.4032 127.738 22.2703C117.733 22.1151 111.358 27.6107 108.546 45.6708C99.2275 105.59 76.2953 147.782 88.0048 224.189Z" fill="white" stroke="#1D1D1B" stroke-width="2" stroke-miterlimit="10"/>
<path d="M94.4937 224.422C102.787 207.454 108.277 175.476 111.269 148.514C114.589 118.754 116.869 75.4982 119.216 47.9095C120.101 37.5831 123.51 33.4836 128.513 33.4171C134.201 33.3506 137.411 39.0899 139.536 47.1339C141.971 56.2858 152.352 90.8105 148.921 126.487C145.018 167.005 108.948 198.581 105.242 224.422" stroke="#1D1D1B" stroke-width="2" stroke-miterlimit="10"/>
</svg>
