<svg viewBox="0 0 264 48" fill="none" xmlns="http://www.w3.org/2000/svg">
<path d="M139.321 16.5196C136.55 16.5196 134.316 17.9037 133.307 19.7626V17.245H124.211V21.3361H129.278V32.1026H124.179V36.1937L140.044 36.1297V32.0999H133.686V25.3339C133.686 21.9655 135.921 20.6747 137.873 20.6747C138.471 20.6747 139.071 20.8 139.289 20.9894C139.132 21.3974 139.068 21.7761 139.068 22.1869C139.068 23.667 140.108 24.9578 141.9 24.9578C143.349 24.9578 144.89 23.7604 144.89 21.4641C144.893 18.4691 142.186 16.5196 139.321 16.5196Z" fill="white"/>
<path d="M110.894 16.4876C105.102 16.4876 100.696 20.9574 100.696 26.6247C100.696 32.0386 105.104 36.8231 110.958 36.8231C114.548 36.8231 117.412 35.6896 119.333 33.4867L116.658 30.1824C115.431 31.4412 113.54 32.4493 110.961 32.4493C108.129 32.4493 105.766 30.4038 105.483 28.0408L120.562 28.0728C120.626 27.7901 120.687 27.5368 120.687 26.6247C120.685 21.0508 116.719 16.4876 110.894 16.4876ZM105.481 24.5471C106.078 22.1229 108.377 20.6427 110.862 20.6427C113.255 20.6427 115.522 22.0589 115.93 24.5471H105.481Z" fill="white"/>
<path d="M94.3674 24.2004C94.3674 19.6053 91.3137 16.4876 86.9372 16.4876C83.6942 16.4876 81.1766 17.9998 80.0112 20.328C79.0031 17.9678 76.7068 16.4876 73.8719 16.4876C70.9755 16.4876 69.1487 18.0611 68.3619 19.7626H68.2979V17.245L60.3958 17.277V21.3388H63.9535V36.135H68.3619V25.5846C68.3619 22.6883 70.2501 20.8001 72.7704 20.8001C75.2907 20.8001 76.9575 22.3736 76.9575 25.5526V36.1297H81.366V25.5526C81.366 22.6883 83.3795 20.8001 85.8998 20.8001C88.3881 20.8001 89.9616 22.3736 89.9616 25.3659V36.1324H97.8957V32.1026H94.37V24.2004H94.3674Z" fill="white"/>
<path d="M232.155 21.3361H234.172L230.078 31.5666L225.672 21.3361H227.971V17.2424H218.682V21.3361H221.231L227.653 36.1297L224.224 44.7573H229.008L238.295 21.3361H241.066V17.2424H232.155V21.3361Z" fill="white"/>
<path d="M211.444 16.5196C208.673 16.5196 206.438 17.9037 205.43 19.7626V17.245H196.333V21.3361H201.4V32.1026H196.301V36.1937L212.167 36.1297V32.0999H205.809V25.3339C205.809 21.9655 208.043 20.6747 209.996 20.6747C210.593 20.6747 211.193 20.8 211.412 20.9894C211.254 21.3974 211.19 21.7761 211.19 22.1869C211.19 23.667 212.231 24.9578 214.023 24.9578C215.471 24.9578 217.012 23.7604 217.012 21.4641C217.015 18.4691 214.308 16.5196 211.444 16.5196Z" fill="white"/>
<path d="M252.933 16.4876C247.266 16.4876 242.607 21.0534 242.607 26.6567C242.607 32.26 247.266 36.8258 252.933 36.8258C258.63 36.8258 263.26 32.26 263.26 26.6567C263.26 21.0534 258.63 16.4876 252.933 16.4876ZM252.933 32.5747C249.658 32.5747 247.016 29.929 247.016 26.6567C247.016 23.3843 249.661 20.7387 252.933 20.7387C256.209 20.7387 258.851 23.3843 258.851 26.6567C258.851 29.929 256.209 32.5747 252.933 32.5747Z" fill="white"/>
<path d="M163.783 26.4673C165.482 26.4673 166.9 25.2085 166.9 23.099C166.9 20.1707 163.468 16.4876 157.675 16.4876C151.883 16.4876 147.477 20.9574 147.477 26.6247C147.477 32.0386 151.885 36.8231 157.739 36.8231C161.895 36.8231 164.697 35.1243 166.554 33.0467L163.94 29.8357C162.428 31.5665 160.572 32.4813 158.022 32.4813C155.19 32.4813 152.261 30.4038 152.261 26.5313C152.261 22.5976 155.19 20.8347 157.771 20.8347C159.66 20.8347 160.793 21.2748 161.676 22.0002C161.204 22.5042 160.982 23.259 160.982 23.8271C160.98 25.3632 162.271 26.4673 163.783 26.4673Z" fill="white"/>
<path d="M190.194 17.2424H185.785V27.7875C185.785 30.6838 183.897 32.572 181.377 32.572C178.856 32.572 177.189 30.9985 177.189 27.8195V17.2424H169.255V21.2721H172.781V28.1342C172.781 32.7934 175.395 36.7911 180.083 36.7911C183.043 36.7911 185.057 35.311 185.844 33.5801H185.876V36.1297L193.746 36.0977V32.0359H190.188V17.2424H190.194Z" fill="white"/>
<path d="M24.0193 0.18988C10.885 0.18988 0.237366 10.8375 0.237366 23.9718C0.237366 37.1062 10.885 47.7538 24.0193 47.7538C37.1537 47.7538 47.8013 37.1062 47.8013 23.9718C47.8013 10.8375 37.1537 0.18988 24.0193 0.18988Z" fill="white"/>
<mask id="mask0" mask-type="alpha" maskUnits="userSpaceOnUse" x="0" y="0" width="48" height="49">
<path d="M24.0193 0.18988C10.885 0.18988 0.237366 10.8375 0.237366 23.9718C0.237366 35.0164 7.76627 44.3026 17.9717 46.978C19.9027 47.4843 21.9295 48.5509 24.0193 48.5509C26.1091 48.5509 28.1359 47.4843 30.067 46.978C40.2724 44.3026 47.8013 35.0164 47.8013 23.9718C47.8013 10.8375 37.1537 0.18988 24.0193 0.18988Z" fill="#FBFBFB"/>
</mask>
<g mask="url(#mask0)">
<path d="M8.08948 28.3306C8.08948 33.8318 9.73357 38.2594 11.1253 41.7999C12.3274 44.8985 12.3274 45.4047 12.3274 47.8074H13.2129C13.2129 45.5943 13.2129 44.7715 11.8854 41.4833C10.4937 38.0055 8.91382 33.7049 8.91382 28.3306C8.91382 22.6398 9.60969 17.8329 10.9372 14.482C11.6331 12.711 12.3916 12.0794 13.7192 12.0794C15.1109 12.0794 16.5653 12.5856 17.0073 16.0634C17.5136 20.1102 18.4618 23.4626 19.4742 27.0031C21.0556 32.5043 22.6997 38.0697 22.3831 46.9234C18.5887 46.1006 17.2612 44.2041 16.8819 37.6278L15.6171 17.2013C15.4902 15.3675 14.9212 14.5447 13.7834 14.5447C12.6455 14.5447 12.1393 15.6826 11.8227 16.8847C11.4434 18.2122 10.1786 24.4093 10.6848 30.7333C11.0014 34.5904 12.2662 37.8786 13.3414 40.7248C14.9855 44.7715 14.9855 45.0881 15.0482 47.8074H15.9337C15.9337 45.4047 15.871 44.7088 14.1627 40.4082C13.0875 37.6262 11.8854 34.4007 11.5704 30.669C11.0641 24.472 12.2662 18.4003 12.6455 17.1355C13.0875 15.6184 13.4683 15.4287 13.7834 15.4287C14.1 15.4287 14.6062 15.4287 14.7316 17.2624L15.9964 37.6247C16.3757 44.2011 17.7032 47.8058 23.9645 47.8058C30.2258 47.8058 31.5533 44.2011 31.9326 37.6247L33.1974 17.2624C33.3244 15.4287 33.8291 15.4287 34.1456 15.4287C34.4622 15.4287 34.8415 15.6184 35.2835 17.1355C35.6628 18.4003 36.8649 24.4704 36.3587 30.669C36.0421 34.4007 34.8415 37.6247 33.7664 40.4082C32.0596 44.7088 31.9953 45.4047 31.9953 47.8074H32.8808C32.9435 45.0881 32.9435 44.7715 34.5876 40.7248C35.6628 37.8786 36.9276 34.5904 37.2442 30.7333C37.7504 24.4093 36.4856 18.2122 36.1063 16.8847C35.7897 15.6826 35.2835 14.5447 34.1456 14.5447C33.0078 14.5447 32.4388 15.3675 32.3119 17.2013L31.0471 37.6278C30.6678 44.2041 29.3403 46.1021 25.5459 46.9234C25.2293 38.0697 26.8734 32.5058 28.4548 27.0031C29.4672 23.461 30.4155 20.1102 30.9217 16.0634C31.3637 12.5856 32.8181 12.0794 34.2099 12.0794C35.5374 12.0794 36.2975 12.711 36.9918 14.482C38.3193 17.8329 39.0152 22.6398 39.0152 28.3306C39.0152 33.7064 37.4338 38.0055 36.0436 41.4833C34.7161 44.7715 34.7161 45.5943 34.7161 47.8074H35.6016C35.6016 45.4047 35.6016 44.8985 36.8037 41.7999C38.1955 38.2579 39.8396 33.8318 39.8396 28.3306C39.8396 22.5128 39.1437 17.6433 37.7519 14.1654C37.1203 12.6483 36.2975 11.2565 34.2099 11.2565C31.4906 11.2565 30.4155 13.0903 30.0989 15.9992C29.6569 19.9832 28.7071 23.2714 27.6962 26.7492C26.0521 32.3147 24.408 38.1325 24.7246 47.0488C24.535 47.0488 24.2826 47.0488 23.966 47.0488H23.2075C23.5241 38.1325 21.88 32.3147 20.2359 26.7492C19.2234 23.2714 18.2752 19.9832 17.8332 15.9992C17.5166 13.0903 16.4415 11.2565 13.7222 11.2565C11.6346 11.2565 10.8133 12.6483 10.1801 14.1654C8.78535 17.6433 8.08948 22.5128 8.08948 28.3306ZM24.1526 8.03107H23.7106C23.2686 10.3083 22.4458 11.0669 20.1686 11.5731V11.8897C22.4458 12.3959 23.2671 13.2172 23.7106 15.4945H24.1526C24.5946 13.2172 25.4801 12.3959 27.6305 11.8897V11.5731C25.4801 11.0669 24.5946 10.3083 24.1526 8.03107Z" fill="black"/>
</g>
</svg>
