<svg xmlns="http://www.w3.org/2000/svg" width="56" height="18" viewBox="0 0 56 18">
    <g fill="#BA9E82" fill-rule="evenodd">
        <path d="M48.674.31h3.678c.122.568.244 1.128.361 1.69.961 4.608 1.92 9.216 2.883 13.823.123.59.269 1.176.404 1.764v.123h-4.19c-.153-.737-.317-1.458-.447-2.186-.054-.301-.15-.418-.487-.414-1.68.022-3.36.016-5.04.003-.254-.002-.355.082-.433.314-.231.693-.484 1.38-.743 2.063-.036.092-.152.22-.232.22-1.514.013-3.028.01-4.586.01.283-.684.552-1.338.825-1.99l5.86-13.987C46.948.733 47.582.31 48.673.31zm.461 4.836l-2.31 6.381h3.692l-1.328-6.37a8.372 8.372 0 0 0-.054-.01zM35.645 0h2.104c.553.103 1.11.187 1.657.314.5.115.99.276 1.52.427l-.784 3.671c-.7-.205-1.37-.442-2.058-.594-.942-.208-1.906-.287-2.848-.025-.383.107-.77.312-1.071.57-.517.444-.524 1.082-.03 1.547.34.321.743.585 1.147.827.916.552 1.879 1.032 2.77 1.621 1.049.694 1.814 1.649 1.975 2.939.284 2.282-.56 4.08-2.474 5.351-1.205.8-2.568 1.157-3.987 1.289a14.23 14.23 0 0 1-5.821-.66c-.127-.042-.251-.094-.375-.145-.037-.015-.069-.042-.125-.077l.81-3.803c.324.142.627.283.937.408 1.48.597 3.008.87 4.592.573.413-.077.833-.26 1.182-.494.758-.509.831-1.465.14-2.062-.453-.393-.998-.683-1.515-.998-.808-.492-1.665-.912-2.43-1.463-.979-.706-1.688-1.648-1.823-2.9-.201-1.873.494-3.395 1.931-4.577C32.319.71 33.804.253 35.386.062c.087-.01.173-.041.26-.062zM16.609.577c.08-.203.177-.273.392-.273h.008c.992.008 1.985.007 2.977.007h1.168c.089 0 .178.007.305.013l-.684 1.647c-2.156 5.148-4.315 10.295-6.463 15.447-.102.246-.227.31-.476.308a184.486 184.486 0 0 0-4.082.003c-.289.004-.383-.097-.45-.356-1.153-4.5-2.326-8.996-3.466-13.499-.21-.826-.629-1.39-1.414-1.737-1.26-.555-2.567-.945-3.9-1.262L.349.832C.356.31.356.31.852.31h7.145c1.13 0 1.945.657 2.159 1.776.604 3.169 1.196 6.34 1.793 9.509.026.138.056.276.096.471.061-.116.104-.181.133-.252 1.479-3.745 2.958-7.49 4.43-11.237zm6.764-.249h4.513l-.557 2.613c-1.022 4.786-2.048 9.57-3.06 14.357-.07.333-.187.439-.532.432-1.237-.024-2.474-.01-3.711-.01h-.371L23.372.329z"/>
        <path d="M16.608.577c-1.472 3.747-2.951 7.492-4.43 11.237-.029.07-.072.136-.133.252-.04-.195-.07-.333-.096-.471-.597-3.17-1.189-6.34-1.793-9.509C9.942.967 9.126.31 7.997.31H.852C.356.31.356.31.35.832c.056.014.115.03.174.043 1.333.317 2.64.707 3.9 1.262.785.347 1.204.91 1.414 1.737 1.14 4.503 2.313 8.999 3.467 13.499.066.259.16.36.449.356 1.36-.019 2.721-.014 4.082-.003.249.002.374-.062.476-.308 2.148-5.152 4.307-10.3 6.463-15.447l.684-1.647C21.33.318 21.242.31 21.153.31h-1.168C18.993.312 18 .313 17.008.305H17c-.215 0-.313.07-.392.273z"/>
    </g>
</svg>
