<svg viewBox="0 0 51 32" fill="none" xmlns="http://www.w3.org/2000/svg">
<path d="M19.4734 16.024C19.4734 11.1425 21.7047 6.4828 25.5112 3.46512C18.6858 -1.99334 8.75408 -0.79514 3.37256 6.12778C-2.00896 13.0507 -0.827649 23.1244 6.04144 28.5385C11.773 33.1094 19.7796 33.1094 25.5112 28.5829C21.7047 25.5208 19.4734 20.9055 19.4734 16.024Z" fill="#BA9E82"/>
<path d="M50.9748 16.024C50.9748 24.8552 43.9307 32 35.224 32C31.6801 32 28.2675 30.8018 25.5112 28.5829C32.3365 23.1244 33.5177 13.0507 28.1799 6.12781C27.3924 5.10713 26.5173 4.21957 25.511 3.42078C32.3364 -2.03768 42.2681 -0.839482 47.6496 6.12781C49.7935 8.92361 50.9748 12.4294 50.9748 16.024Z" fill="#BA9E82"/>
<path d="M25.4892 26.6667C28.3815 24.1037 30.0769 20.1461 30.0769 16C30.0769 11.8539 28.3815 7.93404 25.4892 5.33333C20.3031 9.96938 19.4055 18.5253 23.4613 24.4052C24.0597 25.2721 24.7246 25.9882 25.4892 26.6667Z" fill="#BA9E82"/>
</svg>
