<svg width="280" height="280" viewBox="0 0 280 280" fill="none" xmlns="http://www.w3.org/2000/svg">
<circle cx="140" cy="140" r="140" fill="#EEFF2D"/>
<g mask="url(#mask0)">
<path d="M256.526 311.187L247.807 279.834C244.622 268.265 235.736 258.876 224.167 255.187L181.245 241.103C172.526 238.253 166.658 230.205 166.658 220.983V188.792H111.664V220.983C111.664 230.037 105.795 238.253 97.0768 241.103L54.1547 255.187C42.5858 259.043 33.6997 268.265 30.514 279.834L21.7953 311.187" fill="white"/>
<path d="M256.526 311.187L247.807 279.834C244.622 268.265 235.736 258.876 224.167 255.187L181.245 241.103C172.526 238.253 166.658 230.205 166.658 220.983V188.792H111.664V220.983C111.664 230.037 105.795 238.253 97.0768 241.103L54.1547 255.187C42.5858 259.043 33.6997 268.265 30.514 279.834L21.7953 311.187" stroke="#222221" stroke-width="1.5" stroke-miterlimit="10"/>
<path d="M77.2936 247.305C101.102 270.778 101.267 298.946 137.315 298.946C174.201 298.946 174.874 271.784 198.851 247.305C198.851 247.305 240.767 252.335 246.465 276.144C250.824 285.701 256.022 311.689 256.693 311.856C257.531 312.192 22.8003 311.856 22.8003 311.856L32.8602 274.803C36.2158 256.527 77.2936 247.305 77.2936 247.305Z" fill="#222221"/>
<path d="M143.18 260.719C143.18 260.719 136.474 267.593 129.767 260.719" stroke="#222221" stroke-width="1.5" stroke-miterlimit="10"/>
<path d="M44.9322 261.053C68.7406 284.526 101.268 298.945 137.315 298.945C174.202 298.945 207.399 283.856 231.375 259.377" stroke="#222221" stroke-width="1.5" stroke-miterlimit="10"/>
<path d="M151.062 196.168L112.332 211.425V190.97C112.332 190.97 110.488 186.276 114.679 189.964C118.535 193.653 129.937 200.024 151.062 196.168Z" fill="#222221"/>
<path d="M71.9275 193.846C16.1357 169.686 71.9275 156.795 71.9275 121.052C71.9275 85.3085 99.5518 56.333 133.628 56.333C167.704 56.333 195.329 85.3085 195.329 121.052C195.329 156.795 127.884 218.077 71.9275 193.846Z" fill="#222221"/>
<path d="M92.3803 123.234L86.5121 122.06C83.6618 121.389 81.1468 123.904 81.6498 126.755L84.6676 144.192C85.3382 148.048 88.8593 150.563 92.7156 150.06" fill="white"/>
<path d="M92.3803 123.234L86.5121 122.06C83.6618 121.389 81.1468 123.904 81.6498 126.755L84.6676 144.192C85.3382 148.048 88.8593 150.563 92.7156 150.06" stroke="#222221" stroke-width="1.5" stroke-miterlimit="10"/>
<path d="M83.995 125.079C83.995 125.079 89.0249 120.384 92.5459 140.672L83.995 125.079Z" fill="white"/>
<path d="M83.995 125.079C83.995 125.079 89.0249 120.384 92.5459 140.672" stroke="#222221" stroke-width="1.5" stroke-miterlimit="10"/>
<path d="M89.8647 139.162C89.8647 139.497 84.8347 132.958 89.5293 129.605L89.8647 139.162Z" fill="white"/>
<path d="M89.8647 139.162C89.8647 139.497 84.8347 132.958 89.5293 129.605" stroke="#222221" stroke-width="1.5" stroke-miterlimit="10"/>
<path d="M89.1917 146.706C88.3583 146.706 87.6826 145.955 87.6826 145.029C87.6826 144.103 88.3583 143.353 89.1917 143.353C90.025 143.353 90.7007 144.103 90.7007 145.029C90.7007 145.955 90.025 146.706 89.1917 146.706Z" fill="white" stroke="#222221" stroke-width="1.5" stroke-miterlimit="10"/>
<path d="M195.194 196.538C39.0387 170.962 84.1651 126.221 84.1651 86.6818C84.1651 47.1422 114.792 15.089 152.572 15.089C190.352 15.089 218.077 58.7296 218.077 98.2692C218.077 137.809 261.155 203.269 195.194 196.538Z" fill="#222221"/>
<path d="M139.156 197.006C164.641 197.006 185.432 176.215 185.432 150.73V86.347C185.432 72.5985 174.366 61.365 160.45 61.365H120.713C105.288 61.365 92.8806 73.9398 92.8806 89.1973V150.563C92.8806 176.383 113.671 197.006 139.156 197.006Z" fill="white" stroke="#222221" stroke-width="1.5" stroke-miterlimit="10"/>
<path d="M186.442 123.234L192.31 122.06C195.161 121.389 197.676 123.904 197.173 126.755L194.154 144.192C193.484 148.048 189.963 150.563 186.107 150.06" fill="white"/>
<path d="M186.442 123.234L192.31 122.06C195.161 121.389 197.676 123.904 197.173 126.755L194.154 144.192C193.484 148.048 189.963 150.563 186.107 150.06" stroke="#222221" stroke-width="1.5" stroke-miterlimit="10"/>
<path d="M194.829 125.079C194.829 125.079 189.799 120.384 186.278 140.672L194.829 125.079Z" fill="white"/>
<path d="M194.829 125.079C194.829 125.079 189.799 120.384 186.278 140.672" stroke="#222221" stroke-width="1.5" stroke-miterlimit="10"/>
<path d="M188.957 139.162C188.957 139.497 193.987 132.958 189.292 129.605L188.957 139.162Z" fill="white"/>
<path d="M188.957 139.162C188.957 139.497 193.987 132.958 189.292 129.605" stroke="#222221" stroke-width="1.5" stroke-miterlimit="10"/>
<path d="M165.481 143.519C163.999 143.519 162.798 141.643 162.798 139.328C162.798 137.013 163.999 135.136 165.481 135.136C166.962 135.136 168.163 137.013 168.163 139.328C168.163 141.643 166.962 143.519 165.481 143.519Z" fill="#222221"/>
<path d="M167.658 144.694H162.796" stroke="#222221" stroke-width="1.5" stroke-miterlimit="10"/>
<path d="M112.502 143.519C111.021 143.519 109.819 141.643 109.819 139.328C109.819 137.013 111.021 135.136 112.502 135.136C113.984 135.136 115.185 137.013 115.185 139.328C115.185 141.643 113.984 143.519 112.502 143.519Z" fill="#222221"/>
<path d="M114.68 144.694H109.817" stroke="#222221" stroke-width="1.5" stroke-miterlimit="10"/>
<path d="M186.941 85.0054L177.049 77.6282C165.816 69.0773 150.223 70.5862 140.666 81.1491C129.097 93.724 113.504 110.323 101.265 123.401C90.031 135.305 71.9232 135.472 60.3543 123.904C51.3004 114.85 48.618 100.598 53.8156 88.5264L63.3724 66.227C73.2646 42.9216 94.5581 27.4964 118.534 25.9875L123.564 25.6521C138.319 24.8138 152.905 28.5024 165.815 36.215" fill="#222221"/>
<path d="M145.7 157.436L142.179 158.945C139.496 160.118 136.478 159.951 133.963 158.106L130.107 155.424" stroke="#222221" stroke-width="1.5" stroke-miterlimit="10"/>
<path d="M132.954 166.828C132.954 166.828 141.002 171.69 152.236 164.816" stroke="#222221" stroke-width="1.5" stroke-miterlimit="10"/>
<path d="M189.46 146.706C188.626 146.706 187.951 145.955 187.951 145.029C187.951 144.103 188.626 143.353 189.46 143.353C190.293 143.353 190.969 144.103 190.969 145.029C190.969 145.955 190.293 146.706 189.46 146.706Z" fill="white" stroke="#222221" stroke-width="1.5" stroke-miterlimit="10"/>
<path d="M176.714 124.741C176.714 124.741 166.654 116.86 156.594 124.741" stroke="#222221" stroke-width="1.5" stroke-miterlimit="10"/>
<path d="M103.11 124.741C103.11 124.741 113.17 116.86 123.23 124.741" stroke="#222221" stroke-width="1.5" stroke-miterlimit="10"/>
<path d="M166.99 36.5502C166.99 36.5502 147.708 22.634 115.852 26.3227L166.99 36.5502Z" fill="#222221"/>
<path d="M166.99 36.5502C166.99 36.5502 147.708 22.634 115.852 26.3227" stroke="white" stroke-width="1.5" stroke-miterlimit="10"/>
<path d="M114.513 90.3722C114.513 90.3722 97.9138 112.001 89.6982 115.857L114.513 90.3722Z" fill="#222221"/>
<path d="M114.513 90.3722C114.513 90.3722 97.9138 112.001 89.6982 115.857" stroke="white" stroke-width="1.5" stroke-miterlimit="10"/>
<path d="M84.6683 107.641L89.6982 103.45" stroke="white" stroke-width="1.5" stroke-miterlimit="10"/>
</g>
</svg>
