<svg width="591" height="603" viewBox="0 0 591 603" fill="none" xmlns="http://www.w3.org/2000/svg">
<path d="M402.677 103.691V104.256C394.725 104.256 390.096 109.094 390.096 116.965H389.306C389.306 109.03 384.467 104.256 376.677 104.256V103.691C384.548 103.691 389.306 98.8524 389.306 90.9653H390.096C390.096 98.8686 394.725 103.691 402.677 103.691Z" stroke="#1F1F1F" stroke-width="2" stroke-miterlimit="10"/>
<path d="M186.677 472.797V473.144C181.783 473.144 178.935 476.122 178.935 480.965H178.448C178.448 476.082 175.471 473.144 170.677 473.144V472.797C175.52 472.797 178.448 469.819 178.448 464.965H178.935C178.935 469.829 181.783 472.797 186.677 472.797Z" fill="#1F1F1F"/>
<circle cx="276.677" cy="4.96533" r="4" fill="#232323"/>
<circle cx="588.677" cy="105.965" r="2" fill="#232323"/>
<circle cx="80.6768" cy="70.9653" r="2" fill="#232323"/>
<circle cx="228.677" cy="522.965" r="2" fill="#232323"/>
<circle cx="575.677" cy="601.965" r="1" fill="#232323"/>
<circle cx="539.677" cy="552.965" r="1" fill="#232323"/>
<circle cx="337.677" cy="23.9653" r="1" fill="#232323"/>
<circle cx="305.677" cy="168.965" r="1" fill="#232323"/>
<circle cx="1.67676" cy="81.9653" r="1" fill="#232323"/>
<circle cx="91.6768" cy="175.965" r="1" fill="#232323"/>
<circle cx="217.677" cy="441.965" r="1" fill="#232323"/>
<path d="M123.177 152.223C119.321 123.682 138.182 93.7348 165.649 84.7827C193.117 75.8305 226.089 88.9037 239.893 114.201C253.697 139.498 246.767 174.179 224.301 192.292C217.776 197.554 208.234 201.439 201.276 196.761C194.724 192.361 194.43 182.114 199.069 175.738C203.693 169.362 211.699 166.312 219.495 165.059C236.959 162.247 255.527 167.176 269.275 178.244C283.023 189.312 291.769 206.367 292.677 223.965" stroke="#1F1F1F" stroke-width="2" stroke-miterlimit="10"/>
</svg>
