<svg width="257" height="269" viewBox="0 0 257 269" fill="none" xmlns="http://www.w3.org/2000/svg">
<circle cx="247.295" cy="33.2505" r="4" fill="#232323"/>
<path d="M19.2952 78.5712V78.9403C13.7902 78.9403 10.5855 82.1041 10.5855 87.2505H10.0383C10.0383 82.0619 6.68847 78.9403 1.29517 78.9403V78.5712C6.7443 78.5712 10.0383 75.4074 10.0383 70.2505H10.5855C10.5855 75.418 13.7902 78.5712 19.2952 78.5712Z" stroke="#1F1F1F" stroke-width="2" stroke-miterlimit="10"/>
<path d="M235.295 263.656V263.851C232.849 263.851 231.424 265.526 231.424 268.25H231.181C231.181 265.504 229.692 263.851 227.295 263.851V263.656C229.717 263.656 231.181 261.981 231.181 259.25H231.424C231.424 261.986 232.849 263.656 235.295 263.656Z" fill="#1F1F1F"/>
<circle cx="186.295" cy="4.25049" r="3" stroke="#232323" stroke-width="2"/>
<ellipse cx="44.7952" cy="10.2505" rx="2.5" ry="2" fill="#232323"/>
<circle cx="255.295" cy="111.25" r="1" fill="#232323"/>
</svg>
