<svg width="1440" height="103" viewBox="0 0 1440 103" fill="none" xmlns="http://www.w3.org/2000/svg">
  <path d="M1351.39 28.231C1408.47 28.231 1440 66 1440 102.707L-2.31577e-06 102.707C-1.41341e-06 62.6862 59.4739 31.9415 109.614 31.9415C232.264 31.9415 245.736 58.6672 332.208 76.9019C399.396 91.0551 476.226 81.1956 531.303 51.3521C569.024 30.944 610.447 -0.224729 655.111 11.8611C680.798 18.8052 695.377 38.4711 720.756 45.8393C759.556 57.13 800.208 35.7677 835.847 20.3424C868.785 6.08323 908.28 -4.0413 946.309 1.57755C989.275 7.93852 1023.68 33.2234 1067.42 35.8207C1133.76 39.7964 1284.82 28.231 1351.39 28.231Z" fill="#232323"/>
</svg>
