<svg width="674" height="455" viewBox="0 0 674 455" fill="none" xmlns="http://www.w3.org/2000/svg">
<g clip-path="url(#clip0)">
<g clip-path="url(#clip1)">
<path d="M17.4907 97.1482C16.4129 84.8289 15.874 78.6693 18.0955 73.8394C19.596 70.5771 21.945 67.7777 24.8972 65.7335C29.2679 62.707 35.4275 62.1681 47.7468 61.0904L590.167 13.6348C602.486 12.557 608.645 12.0181 613.475 14.2396C616.738 15.74 619.537 18.0891 621.581 21.0412C624.608 25.412 625.147 31.5716 626.224 43.8909L653.708 358.036C654.786 370.355 655.325 376.514 653.104 381.344C651.603 384.607 649.254 387.406 646.302 389.45C641.931 392.477 635.772 393.016 623.452 394.093L81.0327 441.549C68.7134 442.627 62.5537 443.166 57.7238 440.944C54.4616 439.444 51.6621 437.095 49.6179 434.142C46.5915 429.772 46.0526 423.612 44.9748 411.293L17.4907 97.1482Z" fill="#F1F1F1"/>
<g clip-path="url(#clip2)">
<g clip-path="url(#clip3)">
<rect x="14.3457" y="63.252" width="610.695" height="384.892" rx="22.6765" transform="rotate(-5 14.3457 63.252)" fill="#232323"/>
<g clip-path="url(#clip4)">
<mask id="mask0" mask-type="alpha" maskUnits="userSpaceOnUse" x="14" y="10" width="643" height="437">
<rect x="14.3438" y="63.2529" width="610.695" height="384.892" rx="22.6765" transform="rotate(-5 14.3438 63.2529)" fill="#F1F1F1"/>
</mask>
<g mask="url(#mask0)">
</g>
<g clip-path="url(#clip5)">
<g clip-path="url(#clip6)">
<path d="M98.0341 314.955C95.9036 316.667 92.9677 316.444 91.0695 314.546L61.2436 284.146C57.5027 280.089 57.9299 273.671 62.2187 270.116C66.6371 266.589 73.0737 267.563 76.1569 272.157L99.119 308C100.647 310.362 100.165 313.242 98.0341 314.955Z" stroke="#FBFBFB" stroke-width="1.41127" stroke-miterlimit="10"/>
<path d="M63.3474 269.273C63.8198 268.968 64.2182 268.375 64.311 267.31C64.6357 264.532 64.5349 258.679 61.7384 255.91C57.2473 251.556 53.3107 254.102 51.0975 252.407C48.4213 250.341 50.3672 245.063 45.5977 243.905C40.3096 242.635 38.4381 246.301 34.3906 247.467C30.9451 248.355 27.1482 246.456 23.5825 246.64C19.8593 246.927 14.2924 250.75 14.7544 256.816C15.1979 262.335 20.9949 266.29 24.8481 264.134C29.1459 261.801 29.5085 254.421 33.8149 255.209C37.8899 255.812 36.0921 261.664 39.5094 262.804C43.3157 264.027 44.1131 259.045 47.2989 260C49.8642 260.686 50.3915 263.918 53.1233 265.724C55.3643 267.29 57.2911 265.262 59.7911 268.781C60.43 269.597 62.2174 270.116 63.3474 269.273Z" stroke="#FBFBFB" stroke-width="1.41127" stroke-miterlimit="10"/>
<path d="M62.7246 286.091L67.458 282.36" stroke="#FBFBFB" stroke-width="1.41127" stroke-miterlimit="10"/>
<path d="M71.9102 295.113L79.302 289.105" stroke="#FBFBFB" stroke-width="1.41127" stroke-miterlimit="10"/>
<path d="M84.8359 308.191L88.7819 304.97" stroke="#FBFBFB" stroke-width="1.41127" stroke-miterlimit="10"/>
<path d="M73.3027 282.936L79.8238 277.825" stroke="#FBFBFB" stroke-width="1.41127" stroke-miterlimit="10"/>
<path d="M85.377 295.561L89.2952 292.469" stroke="#FBFBFB" stroke-width="1.41127" stroke-miterlimit="10"/>
<path d="M26.5351 262.597C26.5351 262.597 27.4417 268.487 33.4059 269.766C38.4625 270.851 41.39 266.055 45.1039 266.445C49.1048 266.76 50.4563 270.576 53.429 271.892C56.4017 273.207 59.6803 273.097 59.6803 273.097" stroke="#FBFBFB" stroke-width="1.41127" stroke-miterlimit="10"/>
<path d="M43.2616 252.898C57.681 257.754 63.1154 269.09 63.1154 269.09" stroke="#FBFBFB" stroke-width="1.41127" stroke-miterlimit="10"/>
<path d="M55.5354 253.224C55.5354 253.224 53.0355 249.704 53.2399 246.222C53.5277 242.352 56.214 239.945 56.474 236.203C56.7062 232.592 53.576 231.378 53.049 226.248C52.5867 222.08 56.0141 218.747 58.6907 218.915C62.3027 219.147 65.3119 223.454 64.5516 227.63C63.5968 232.714 60.6974 235.482 60.1781 239.168C59.6587 242.853 63.9461 246.892 66.3901 252.569C68.9638 258.274 66.3039 268.145 66.3039 268.145" stroke="#FBFBFB" stroke-width="1.41127" stroke-miterlimit="10"/>
<path d="M66.0159 270.118C66.8585 271.248 66.6545 272.831 65.5244 273.674C64.3943 274.516 62.8107 274.312 61.9681 273.182" stroke="#FBFBFB" stroke-width="1.41127" stroke-miterlimit="10"/>
<path d="M389.652 385.045C387.194 386.241 384.381 385.372 382.952 383.099L360.623 346.834C357.877 342.047 359.719 335.885 364.69 333.371C369.782 330.914 375.841 333.293 377.827 338.457L392.254 378.505C393.219 381.147 392.109 383.848 389.652 385.045Z" stroke="#FBFBFB" stroke-width="1.41127" stroke-miterlimit="10"/>
<path d="M365.98 332.801C366.508 332.608 367.028 332.118 367.355 331.101C368.289 328.464 369.491 322.735 367.379 319.414C363.967 314.171 359.563 315.779 357.782 313.635C355.631 311.026 358.701 306.312 354.308 304.123C349.434 301.71 346.795 304.87 342.59 305.108C339.033 305.208 335.753 302.513 332.235 301.901C328.541 301.353 322.264 303.844 321.368 309.861C320.574 315.341 325.348 320.485 329.584 319.238C334.292 317.918 336.285 310.803 340.309 312.528C344.148 314.021 341.095 319.328 344.174 321.198C347.614 323.236 349.498 318.556 352.392 320.194C354.741 321.433 354.537 324.701 356.799 327.069C358.637 329.093 360.966 327.544 362.621 331.531C363.063 332.468 364.691 333.371 365.98 332.801Z" stroke="#FBFBFB" stroke-width="1.41127" stroke-miterlimit="10"/>
<path d="M361.635 349.058L367.079 346.471" stroke="#FBFBFB" stroke-width="1.41127" stroke-miterlimit="10"/>
<path d="M368.59 359.896L377.132 355.679" stroke="#FBFBFB" stroke-width="1.41127" stroke-miterlimit="10"/>
<path d="M378.287 375.519L382.85 373.254" stroke="#FBFBFB" stroke-width="1.41127" stroke-miterlimit="10"/>
<path d="M372.65 348.33L380.144 344.796" stroke="#FBFBFB" stroke-width="1.41127" stroke-miterlimit="10"/>
<path d="M381.619 363.323L386.126 361.179" stroke="#FBFBFB" stroke-width="1.41127" stroke-miterlimit="10"/>
<path d="M331.569 318.114C331.569 318.114 331.145 324.058 336.676 326.63C341.365 328.811 345.285 324.784 348.819 325.989C352.65 327.186 353.12 331.206 355.726 333.15C358.333 335.093 361.554 335.713 361.554 335.713" stroke="#FBFBFB" stroke-width="1.41127" stroke-miterlimit="10"/>
<path d="M350.033 312.37C363.014 320.308 365.795 332.568 365.795 332.568" stroke="#FBFBFB" stroke-width="1.41127" stroke-miterlimit="10"/>
<path d="M361.926 315.415C361.926 315.415 360.27 311.428 361.243 308.078C362.383 304.368 365.537 302.618 366.622 299.028C367.65 295.558 364.868 293.679 365.494 288.56C365.969 284.394 370.051 281.906 372.623 282.664C376.093 283.692 378.071 288.56 376.402 292.463C374.342 297.208 370.9 299.263 369.575 302.741C368.25 306.219 371.533 311.109 372.655 317.187C373.897 323.321 369.112 332.355 369.112 332.355" stroke="#FBFBFB" stroke-width="1.41127" stroke-miterlimit="10"/>
<path d="M368.391 334.215C368.962 335.504 368.411 337.002 367.122 337.573C365.833 338.143 364.334 337.592 363.764 336.303" stroke="#FBFBFB" stroke-width="1.41127" stroke-miterlimit="10"/>
<path d="M48.5186 180.54C48.257 184.698 51.1215 188.349 55.2477 188.992L119.857 199.828C128.296 201.012 136.055 194.788 136.662 186.182C137.269 177.576 130.349 170.323 121.772 170.431L56.323 173.074C52.0391 173.247 48.7384 176.527 48.5186 180.54Z" fill="white" stroke="#1F1F1F" stroke-width="1.41127" stroke-miterlimit="10"/>
<path d="M135.593 184.46C135.648 183.457 136.044 182.63 136.832 182.074C140.152 179.27 148.83 173.39 154.838 174.578C164.206 176.345 160.64 184.879 167.432 186.607C173.594 188.075 178.536 179.389 184.314 184.352C190.587 189.772 184.281 197.75 187.647 203.192C190.344 207.421 197.3 209.667 200.255 214.362C203.312 219.245 200.875 227.4 194.635 231.084C187.233 235.531 179.521 233.458 177.252 228.02C174.398 221.08 183.023 212.675 180.625 208.767C178.227 204.859 170.445 211.705 166.162 208.35C161.291 204.589 167.551 197.853 162.927 194.321C159.728 191.828 155.154 195.446 150.462 193.776C146.4 192.367 145.597 187.822 139.017 187.802C137.062 187.786 135.525 186.322 135.593 184.46Z" fill="#1F1F1F" stroke="white" stroke-width="1.41127" stroke-miterlimit="10"/>
<path d="M115.844 199.608L116.432 190.527" stroke="#1F1F1F" stroke-width="1.41127" stroke-miterlimit="10"/>
<path d="M96.3587 197.581L97.4244 181.425" stroke="#1F1F1F" stroke-width="1.41127" stroke-miterlimit="10"/>
<path d="M68.5527 192.603L69.1406 183.521" stroke="#1F1F1F" stroke-width="1.41127" stroke-miterlimit="10"/>
<path d="M106.119 186.604L106.707 177.523" stroke="#1F1F1F" stroke-width="1.41127" stroke-miterlimit="10"/>
<path d="M110.77 178.931L111.357 169.849" stroke="#1F1F1F" stroke-width="1.41127" stroke-miterlimit="10"/>
<path d="M84.1348 179.388L84.7226 170.306" stroke="#1F1F1F" stroke-width="1.41127" stroke-miterlimit="10"/>
<path d="M80.9146 183.474L81.2181 179.172" stroke="#1F1F1F" stroke-width="1.41127" stroke-miterlimit="10"/>
<path d="M110.674 191.998L111.029 187.788" stroke="#1F1F1F" stroke-width="1.41127" stroke-miterlimit="10"/>
<path d="M55.9497 180.335L56.2533 176.032" stroke="#1F1F1F" stroke-width="1.41127" stroke-miterlimit="10"/>
<path d="M63.5379 185.272L63.9609 179.201" stroke="#1F1F1F" stroke-width="1.41127" stroke-miterlimit="10"/>
<path d="M177.097 221.782C177.097 221.782 168.543 227.229 162.248 222.43C155.993 217.486 159.755 209.086 156.097 204.657C152.139 199.907 146.153 201.626 141.899 198.985C137.593 196.251 134.269 190.665 134.269 190.665" stroke="white" stroke-width="1.41127" stroke-miterlimit="10"/>
<path d="M188.76 223.742C190.148 216.773 187.695 204.382 174.823 194.938C156.099 181.058 135.509 184.75 135.509 184.75" stroke="white" stroke-width="1.41127" stroke-miterlimit="10"/>
<path d="M161.836 180.206C161.836 180.206 169.207 182.102 174.55 177.452C180.028 172.607 179.859 167.227 184.196 163.619C188.49 160.156 192.899 163.077 199.75 159.177C205.296 155.998 206.581 148.842 203.922 145.565C200.408 141.178 192.493 141.164 187.822 145.929C182.186 151.591 181.38 157.631 177.249 161.611C173.119 165.592 164.32 163.754 154.858 165.566C145.395 167.379 134.563 180.163 134.563 180.163" stroke="white" stroke-width="1.41127" stroke-miterlimit="10"/>
<path d="M132.436 181.824C130.242 181.817 128.498 183.509 128.44 185.609C128.382 187.709 130.124 189.545 132.224 189.603" stroke="#1F1F1F" stroke-width="1.41127" stroke-miterlimit="10"/>
<path d="M375.433 119.023C379.233 110.064 389.182 105.285 398.587 108.18L546.849 153.713C566.021 160.186 575.763 181.557 567.988 200.263C560.073 219.094 537.863 227.199 519.782 217.73L383.842 142.979C375.331 138.273 371.766 127.989 375.433 119.023Z" fill="#FBFBFB" stroke="#232323" stroke-width="1.41127" stroke-miterlimit="10"/>
<path d="M538.769 150.89L529.92 169.803" stroke="#232323" stroke-width="1.41127" stroke-miterlimit="10"/>
<path d="M493.709 136.919L480.172 168.994" stroke="#232323" stroke-width="1.41127" stroke-miterlimit="10"/>
<path d="M429.7 117.285L422.268 134.549" stroke="#232323" stroke-width="1.41127" stroke-miterlimit="10"/>
<path d="M491.376 158.175L483 178.176" stroke="#232323" stroke-width="1.41127" stroke-miterlimit="10"/>
<path d="M505.568 188.151L498.107 205.944" stroke="#232323" stroke-width="1.41127" stroke-miterlimit="10"/>
<path d="M449.77 158.998L442.645 175.481" stroke="#232323" stroke-width="1.41127" stroke-miterlimit="10"/>
<path d="M430.837 130.759L426.883 140.108" stroke="#232323" stroke-width="1.41127" stroke-miterlimit="10"/>
<path d="M527.433 164.226L523.479 173.575" stroke="#232323" stroke-width="1.41127" stroke-miterlimit="10"/>
<path d="M390.917 127.423L387.096 136.779" stroke="#232323" stroke-width="1.41127" stroke-miterlimit="10"/>
<path d="M567.818 188.567C567.818 188.567 580.9 179.84 592.769 178.883C611.44 177.361 625.241 194.834 638.808 189.453C652.242 184.065 656.42 173.001 668.677 167.284C681.617 161.205 695.421 168.718 702.054 183.682C709.285 199.872 706.721 220.451 682.497 228.979C664.637 235.192 650.996 217.197 633.308 225.146C625.82 228.595 610.474 222.593 596.545 214.941C582.615 207.288 567.818 188.567 567.818 188.567Z" fill="#FBFBFB" stroke="#232323" stroke-width="1.41127" stroke-miterlimit="10"/>
<path d="M556.224 201.756C555.602 203.449 556.165 205.339 557.432 206.469C571.002 218.352 564.341 231.141 576.841 240.709C590.865 251.554 603.102 251.148 619.971 253.513C634.868 255.507 657.27 278.487 679.915 274.655C695.194 272.022 707.538 254.757 698.378 237.4C691.506 224.416 676.876 219.913 663.253 226.353C650.996 232.07 640.758 239.755 631.103 236.581C618.055 232.296 617.335 220.969 599.899 206.887C589.086 198.074 567.691 198.387 559.963 198.903C558.374 198.817 556.853 199.931 556.224 201.756Z" fill="#FBFBFB" stroke="#232323" stroke-width="1.41127" stroke-miterlimit="10"/>
<path d="M554.531 193.699C555.167 191.741 556.709 190.23 558.612 189.403C567.431 185.892 589.005 179.745 602.233 185.634C617.669 192.437 618.593 202.447 632.745 210.908C645.608 218.636 658.642 215.749 664.791 227.367C672.519 241.725 656.869 253.767 662.651 262.31C669.29 272.228 680.648 265.931 689.991 274.931C697.322 281.832 699.886 295.913 691.278 305.411C682.104 315.543 662.884 314.91 655.352 306.804C645.315 295.908 648.595 284.265 641.467 276.047C632.961 266.296 614.438 279.91 607.041 269.288C598.656 257.285 617.301 246.333 609.528 235.292C603.975 227.425 592.894 228.557 583.437 221.676C575.137 215.521 577.355 206.344 560.396 203.177C555.658 202.391 552.973 197.998 554.531 193.699Z" fill="#FBFBFB" stroke="#232323" stroke-width="1.41127" stroke-miterlimit="10"/>
<path d="M649.431 261.202C614.722 190.419 554.34 194.751 554.34 194.751L649.431 261.202Z" fill="#FBFBFB"/>
<path d="M649.431 261.202C614.722 190.419 554.34 194.751 554.34 194.751" stroke="#232323" stroke-width="1.41127" stroke-miterlimit="10"/>
<path d="M308.402 121.935C314.292 125.581 316.478 133.155 313.39 139.465L264.477 238.559C257.759 251.305 241.523 255.71 229.299 248.103C216.962 240.391 213.86 223.896 222.462 212.187L290.493 125.08C294.805 119.606 302.513 118.289 308.402 121.935Z" fill="#FBFBFB" stroke="#232323" stroke-width="1.41127" stroke-miterlimit="10"/>
<path d="M268.241 232.992L255.129 224.866" stroke="#1F1F1F" stroke-width="1.41127" stroke-miterlimit="10"/>
<path d="M284.53 204.362L261.303 189.877" stroke="#1F1F1F" stroke-width="1.41127" stroke-miterlimit="10"/>
<path d="M305.19 161.201L292.078 153.075" stroke="#1F1F1F" stroke-width="1.41127" stroke-miterlimit="10"/>
<path d="M259.946 206.83L246.83 198.595" stroke="#1F1F1F" stroke-width="1.41127" stroke-miterlimit="10"/>
<path d="M244.964 205.633L231.852 197.507" stroke="#1F1F1F" stroke-width="1.41127" stroke-miterlimit="10"/>
<path d="M271.835 169.6L258.723 161.474" stroke="#1F1F1F" stroke-width="1.41127" stroke-miterlimit="10"/>
<path d="M280.447 169.347L274.225 165.492" stroke="#1F1F1F" stroke-width="1.41127" stroke-miterlimit="10"/>
<path d="M262.797 218.532L256.684 214.674" stroke="#1F1F1F" stroke-width="1.41127" stroke-miterlimit="10"/>
<path d="M300.73 131.872L294.619 128.123" stroke="#1F1F1F" stroke-width="1.41127" stroke-miterlimit="10"/>
<path d="M299.978 147.169L291.309 141.75" stroke="#1F1F1F" stroke-width="1.41127" stroke-miterlimit="10"/>
<path d="M223.271 284.288C223.271 284.288 222.944 295.428 207.538 302.099C196.227 307.014 187.215 304.769 178.35 311.249C170.873 316.706 169.459 320.567 159.577 329.586C151.61 336.912 135.756 335.741 130.713 327.487C124.757 317.842 127.8 306.295 139.692 298.854C151.583 291.412 162.984 293.26 172.641 287.739C182.08 282.224 181.984 267.824 191.677 256.082C199.577 246.466 212.552 246.194 226.387 238.041C228.641 236.775 231.51 237.891 232.882 240.033L234.251 242.066L213.32 279.779" fill="#FBFBFB"/>
<path d="M223.271 284.288C223.271 284.288 222.944 295.428 207.538 302.099C196.227 307.014 187.215 304.769 178.35 311.249C170.873 316.706 169.459 320.567 159.577 329.586C151.61 336.912 135.756 335.741 130.713 327.487C124.757 317.842 127.8 306.295 139.692 298.854C151.583 291.412 162.984 293.26 172.641 287.739C182.08 282.224 181.984 267.824 191.677 256.082C199.577 246.466 212.552 246.194 226.387 238.041C228.641 236.775 231.51 237.891 232.882 240.033L234.251 242.066L213.32 279.779" stroke="#232323" stroke-width="1.41127" stroke-miterlimit="10"/>
<path d="M233.751 239.897C232.213 239.506 230.581 239.663 229.298 240.574C223.085 244.466 209.112 255.351 207.771 265.429C205.731 281.42 221.297 280.199 220.44 291.9C219.661 302.507 204.457 308.627 209.497 320.482C215.004 333.414 229.589 324.802 236.488 333.11C241.916 339.607 241.735 352.051 247.727 359.186C254.056 366.638 268.249 366.986 277.505 358.967C288.464 349.479 289.266 335.925 281.768 329.49C272.252 321.258 254.093 330.739 249.117 324.774C244.142 318.81 259.159 310.076 256.066 301.329C252.504 291.504 238.51 297.916 235.298 288.845C233.034 282.364 241.165 276.888 240.919 268.493C240.813 261.186 233.946 257.677 237.451 246.99C238.455 244.015 236.832 240.789 233.751 239.897Z" fill="#FBFBFB" stroke="#232323" stroke-width="1.41127" stroke-miterlimit="10"/>
<path d="M268.829 345.909C256.896 344.514 238.478 334.034 229.983 308.532C217.648 271.14 234.305 240.208 234.305 240.208" stroke="#232323" stroke-width="1.41127" stroke-miterlimit="10"/>
<path d="M208.785 274.019C208.785 274.019 187.961 296.781 175.329 301.298C162.697 305.816 148.15 308.316 141.905 318.538" stroke="#232323" stroke-width="1.41127" stroke-miterlimit="10"/>
<path d="M169.547 279.157C170.495 279.075 171.197 278.238 171.114 277.29C171.031 276.341 170.195 275.64 169.246 275.723C168.298 275.806 167.597 276.642 167.68 277.59C167.763 278.539 168.599 279.24 169.547 279.157Z" fill="#FBFBFB"/>
<path d="M602.303 102.85C603.251 102.767 603.953 101.931 603.87 100.982C603.787 100.034 602.951 99.3322 602.002 99.4152C601.054 99.4982 600.352 100.334 600.435 101.283C600.518 102.231 601.354 102.933 602.303 102.85Z" fill="#FBFBFB"/>
<path d="M415.211 67.4122C416.962 67.259 418.257 65.7154 418.104 63.9644C417.951 62.2134 416.407 60.9181 414.656 61.0713C412.906 61.2245 411.611 62.7681 411.764 64.5191C411.917 66.2701 413.46 67.5653 415.211 67.4122Z" fill="#FBFBFB"/>
<path d="M437.112 391.328C438.862 391.175 440.157 389.631 440.004 387.88C439.851 386.129 438.308 384.834 436.557 384.987C434.806 385.14 433.511 386.684 433.664 388.435C433.817 390.186 435.361 391.481 437.112 391.328Z" fill="#FBFBFB"/>
<path d="M495.656 287.683C497.407 287.529 498.702 285.986 498.549 284.235C498.396 282.484 496.852 281.189 495.102 281.342C493.351 281.495 492.056 283.039 492.209 284.79C492.362 286.541 493.906 287.836 495.656 287.683Z" fill="#FBFBFB"/>
<path d="M333.738 218.138C335.489 217.985 336.784 216.441 336.631 214.69C336.478 212.939 334.934 211.644 333.184 211.797C331.433 211.95 330.138 213.494 330.291 215.245C330.444 216.996 331.988 218.291 333.738 218.138Z" fill="#FBFBFB"/>
<path d="M286.389 282.458C287.337 282.375 288.039 281.539 287.956 280.591C287.873 279.642 287.037 278.941 286.088 279.024C285.14 279.107 284.438 279.943 284.521 280.891C284.604 281.84 285.44 282.541 286.389 282.458Z" fill="#FBFBFB"/>
<path d="M72.1328 335.975C73.0811 335.892 73.7826 335.056 73.6997 334.107C73.6167 333.159 72.7807 332.457 71.8323 332.54C70.884 332.623 70.1825 333.459 70.2655 334.408C70.3485 335.356 71.1845 336.058 72.1328 335.975Z" fill="#FBFBFB"/>
<path d="M237.91 140.525C238.858 140.442 239.56 139.606 239.477 138.657C239.394 137.709 238.558 137.007 237.61 137.09C236.661 137.173 235.96 138.009 236.043 138.958C236.126 139.906 236.962 140.608 237.91 140.525Z" fill="#FBFBFB"/>
<path d="M375.295 165.21C376.243 165.127 376.945 164.291 376.862 163.343C376.779 162.394 375.943 161.693 374.994 161.776C374.046 161.859 373.345 162.695 373.428 163.643C373.511 164.592 374.347 165.293 375.295 165.21Z" fill="#FBFBFB"/>
<path d="M284.229 398.419C286.199 398.247 287.656 396.51 287.484 394.54C287.311 392.571 285.575 391.113 283.605 391.286C281.636 391.458 280.179 393.195 280.351 395.164C280.523 397.134 282.26 398.591 284.229 398.419Z" stroke="#FBFBFB" stroke-width="1.41127" stroke-miterlimit="10"/>
<path d="M603.691 155.53C604.64 155.448 605.341 154.611 605.258 153.663C605.175 152.714 604.339 152.013 603.391 152.096C602.443 152.179 601.741 153.015 601.824 153.963C601.907 154.912 602.743 155.613 603.691 155.53Z" fill="#FBFBFB"/>
<path d="M412.951 227.597C413.899 227.514 414.601 226.678 414.518 225.729C414.435 224.781 413.599 224.079 412.651 224.162C411.702 224.245 411.001 225.081 411.084 226.03C411.167 226.978 412.003 227.68 412.951 227.597Z" fill="#FBFBFB"/>
<path d="M510.35 244.19C511.298 244.107 511.999 243.271 511.916 242.322C511.833 241.374 510.997 240.672 510.049 240.755C509.101 240.838 508.399 241.674 508.482 242.623C508.565 243.571 509.401 244.273 510.35 244.19Z" fill="#FBFBFB"/>
<path d="M129.27 241.373L129.317 241.901C121.656 242.572 117.569 247.588 118.24 255.25L117.447 255.319C116.777 247.657 111.749 243.438 104.221 244.097L104.174 243.569C111.835 242.898 115.922 237.882 115.251 230.22L116.044 230.151C116.714 237.813 121.609 242.043 129.27 241.373Z" fill="#FBFBFB"/>
<path d="M481.52 86.1235L481.555 86.5198C476.8 86.9358 474.28 90.0847 474.696 94.8404L474.168 94.8866C473.752 90.1309 470.592 87.4789 465.969 87.8834L465.934 87.4871C470.689 87.0711 473.208 83.9222 472.792 79.1665L473.321 79.1203C473.737 83.8759 476.765 86.5395 481.52 86.1235Z" fill="#FBFBFB"/>
<path d="M418.657 288.38L418.68 288.644C414.453 289.014 412.295 291.732 412.665 295.959L412.269 295.994C411.899 291.766 409.17 289.476 405.075 289.834L405.052 289.57C409.147 289.212 411.437 286.482 411.067 282.255L411.463 282.221C411.822 286.316 414.562 288.738 418.657 288.38Z" fill="#FBFBFB"/>
<path d="M569.729 253.771L569.752 254.035C565.526 254.405 563.368 257.122 563.738 261.35L563.341 261.384C562.972 257.157 560.242 254.867 556.148 255.225L556.125 254.961C560.219 254.603 562.509 251.873 562.139 247.646L562.536 247.611C562.905 251.838 565.503 254.14 569.729 253.771Z" fill="#FBFBFB"/>
<path d="M108.962 141.612L108.985 141.877C104.758 142.246 102.6 144.964 102.97 149.192L102.574 149.226C102.204 144.999 99.4747 142.709 95.3801 143.067L95.357 142.803C99.4516 142.444 101.742 139.715 101.372 135.488L101.768 135.453C102.138 139.68 104.735 141.982 108.962 141.612Z" fill="#FBFBFB"/>
<path d="M348.672 103.789C349.62 103.706 350.322 102.87 350.239 101.922C350.156 100.973 349.32 100.272 348.371 100.355C347.423 100.438 346.722 101.274 346.805 102.222C346.888 103.171 347.724 103.872 348.672 103.789Z" fill="white"/>
</g>
</g>
</g>
</g>
<path d="M297.446 69.7154C290.402 70.3316 285.045 76.7153 285.662 83.7595C286.278 90.8036 292.662 96.1602 299.706 95.5439C306.75 94.9276 312.107 88.5439 311.49 81.4998C310.874 74.4556 304.49 69.0991 297.446 69.7154ZM299.398 92.0218C294.232 92.4738 289.636 88.617 289.184 83.4513C288.732 78.2856 292.589 73.6894 297.754 73.2374C302.92 72.7855 307.516 76.6422 307.968 81.8079C308.42 86.9736 304.563 91.5699 299.398 92.0218Z" fill="#FBFBFB"/>
<path d="M160.384 87.8582C160.364 87.6234 160.364 87.6234 160.364 87.6234C159.689 85.3164 156.114 82.3167 151.418 82.7276C148.6 82.9741 146.651 85.0374 145.427 87.2739L145.16 84.2214L134.359 85.1664L134.647 88.4537L141.926 87.8169L143.405 104.723L136.126 105.36L136.434 108.882L153.81 107.362L153.502 103.839L146.927 104.415L145.9 92.6744C145.736 90.796 146.754 86.2114 151.45 85.8006C152.859 85.6773 154.309 86.0237 155.33 86.8807C155.137 87.3709 154.943 87.861 155.004 88.5654C155.148 90.2091 156.425 91.2804 158.069 91.1366C159.712 90.9928 160.784 89.7161 160.64 88.0724C160.405 88.093 160.384 87.8582 160.384 87.8582Z" fill="#FBFBFB"/>
<path d="M186.43 90.7848C188.074 90.641 189.145 89.3642 189.001 87.7206C188.981 87.4858 188.981 87.4858 188.96 87.251C188.203 84.0048 182.841 79.5053 176.501 80.06C169.222 80.6968 163.865 87.0805 164.482 94.1246C165.098 101.169 171.482 106.525 178.761 105.888C183.691 105.457 187.906 102.249 189.67 98.0726L186.688 96.4406C185.312 99.6369 182.209 102.038 178.452 102.366C173.287 102.818 168.69 98.9616 168.239 93.7959C167.787 88.6302 171.643 84.034 176.809 83.582C179.627 83.3355 182.312 84.2836 184.12 86.0182C183.692 86.5289 183.519 87.2539 183.58 87.9583C183.51 89.8573 184.786 90.9286 186.43 90.7848Z" fill="#FBFBFB"/>
<path d="M272.947 76.3541L275.765 76.1076L270.863 93.0986L262.616 77.258L265.668 76.9909L265.36 73.4688L255.029 74.3727L255.337 77.8948L258.859 77.5866L269.63 97.9385L265.809 111.049L269.566 110.721L279.522 75.7789L283.279 75.4502L282.97 71.9281L272.639 72.832L272.947 76.3541Z" fill="#FBFBFB"/>
<path d="M252.193 79.8259C252.172 79.5911 252.172 79.5911 252.172 79.5911C251.497 77.2842 247.923 74.2845 243.226 74.6954C240.409 74.9419 238.46 77.0052 237.236 79.2417L236.989 76.424L226.188 77.369L226.455 80.4215L233.734 79.7846L235.214 96.6906L227.935 97.3274L228.243 100.85L245.618 99.3293L245.31 95.8073L238.736 96.3825L237.708 84.6422C237.544 82.7638 238.563 78.1792 243.259 77.7684C244.668 77.6451 246.117 77.9915 247.139 78.8485C246.945 79.3387 246.751 79.8288 246.813 80.5332C246.957 82.1769 248.234 83.2482 249.877 83.1044C251.521 82.9606 252.592 81.6838 252.448 80.0402C252.214 80.0608 252.193 79.8259 252.193 79.8259Z" fill="#FBFBFB"/>
<path d="M217.225 77.6801L213.703 77.9883L215.058 93.4854C214.988 95.3844 212.285 99.6431 207.823 100.033C205.241 100.259 201.319 98.7096 200.888 93.7787C200.662 91.1959 199.614 79.2208 199.614 79.2208L192.335 79.8577L192.644 83.3797L196.4 83.051L197.386 94.3217C197.941 100.661 202.496 104.049 207.662 103.597C210.949 103.309 213.817 100.929 215.469 98.1815L215.798 101.938L223.077 101.302L222.769 97.7795L219.012 98.1082L217.225 77.6801Z" fill="#FBFBFB"/>
<path d="M97.8059 97.3555C97.2513 91.0158 92.6961 87.6287 87.5304 88.0806C83.7735 88.4093 80.7328 91.5146 79.1214 94.7314C77.3839 91.0977 73.9117 89.2721 69.92 89.6213C66.6328 89.9089 63.7652 92.2892 62.1127 95.0364L61.784 91.2795L54.5051 91.9164L54.8132 95.4384L58.5701 95.1097L60.3573 115.538L63.8794 115.23L62.5236 99.7325C62.594 97.8335 65.2973 93.5748 69.7585 93.1845C72.3414 92.9585 76.2626 94.5083 76.694 99.4392C76.92 102.022 77.9677 113.997 77.9677 113.997L81.4898 113.689L80.1956 98.8962C80.175 98.6614 80.1545 98.4266 80.1339 98.1918C80.2044 96.2928 82.9076 92.0341 87.1341 91.6643C89.717 91.4383 93.6382 92.9881 94.0696 97.919C94.2956 100.502 95.3432 112.477 95.3432 112.477L102.622 111.84L102.314 108.318L98.5572 108.647L97.8059 97.3555Z" fill="#FBFBFB"/>
<path d="M117.371 85.7063C110.092 86.3431 104.97 92.7063 105.587 99.7504C105.607 99.9852 105.689 100.924 105.71 101.159C106.99 107.672 113.077 112.345 119.886 111.749C124.817 111.318 129.032 108.11 130.796 103.933L127.814 102.301C126.437 105.497 123.335 107.898 119.578 108.227C114.647 108.658 110.347 105.486 109.467 100.831L131.304 98.9201C131.263 98.4505 131.221 97.9809 131.18 97.5112C130.329 90.4876 124.415 85.09 117.371 85.7063ZM109.159 97.3085C109.728 92.9998 113.218 89.6187 117.679 89.2284C122.14 88.838 125.695 91.6029 127.004 95.7472L109.159 97.3085Z" fill="#FBFBFB"/>
</g>
<path d="M94.002 29.7457L94.002 30.2698C86.6755 30.2698 82.3876 34.7091 82.3876 42L81.6626 42C81.6626 34.6782 77.2667 30.2698 70.002 30.2698L70.002 29.7457C77.2667 29.7457 81.6626 25.3064 81.6626 18L82.3876 18C82.3876 25.3064 86.66 29.7457 94.002 29.7457Z" fill="#232323"/>
</g>
</g>
<defs>
<clipPath id="clip0">
<rect width="674" height="455" fill="white"/>
</clipPath>
<clipPath id="clip1">
<rect width="678.64" height="491.378" fill="white" transform="translate(-23.9414 13.3193) rotate(-5)"/>
</clipPath>
<clipPath id="clip2">
<rect width="611" height="384.892" fill="white" transform="translate(14.3457 63.252) rotate(-5)"/>
</clipPath>
<clipPath id="clip3">
<rect width="610.054" height="384.83" fill="white" transform="translate(14.3457 63.252) rotate(-5)"/>
</clipPath>
<clipPath id="clip4">
<rect width="737.739" height="477.048" fill="white" transform="translate(-47.9727 22.4189) rotate(-5)"/>
</clipPath>
<clipPath id="clip5">
<rect width="704.044" height="455.767" fill="white" transform="translate(-18.4707 34.0801) rotate(-5)"/>
</clipPath>
<clipPath id="clip6">
<rect width="702.698" height="468.111" fill="white" transform="translate(-18.252 29.5156) rotate(-5)"/>
</clipPath>
</defs>
</svg>
