<svg width="721" height="519" viewBox="0 0 721 519" fill="none" xmlns="http://www.w3.org/2000/svg">
<g clip-path="url(#clip0)">
<rect x="77.1753" y="28.5459" width="638.4" height="354.4" transform="rotate(10 77.1753 28.5459)" fill="#232323" stroke="#EADDCF" stroke-width="1.6"/>
<path d="M94.5791 164.336C98.1651 164.968 100.842 163.269 101.404 160.081L101.434 159.91L99.1571 159.509L99.122 159.708C98.7958 161.558 97.2792 162.67 94.9455 162.258C92.4979 161.827 91.4865 160.24 91.8277 158.305L92.6307 153.751C92.9719 151.816 94.465 150.67 96.9126 151.102C99.2179 151.509 100.296 153.049 99.9751 154.87L99.945 155.041L102.222 155.442L102.247 155.3C102.814 152.084 100.893 149.662 97.279 149.024C93.5222 148.362 90.9159 150.162 90.3438 153.407L89.561 157.846C88.9889 161.091 90.8224 163.674 94.5791 164.336ZM109.754 167.012C113.34 167.644 116.017 165.945 116.579 162.757L116.609 162.586L114.332 162.185L114.297 162.384C113.971 164.234 112.454 165.346 110.121 164.934C107.673 164.503 106.662 162.916 107.003 160.98L107.806 156.427C108.147 154.492 109.64 153.346 112.088 153.778C114.393 154.184 115.471 155.724 115.15 157.546L115.12 157.717L117.397 158.118L117.422 157.976C117.989 154.76 116.069 152.338 112.454 151.7C108.697 151.038 106.091 152.838 105.519 156.082L104.736 160.522C104.164 163.767 105.997 166.349 109.754 167.012ZM125.41 167.63C122.905 167.189 121.862 165.449 122.203 163.514L122.956 159.245C123.297 157.31 124.872 156.032 127.377 156.474C129.938 156.925 130.891 158.678 130.555 160.585L129.802 164.854C129.466 166.761 127.971 168.082 125.41 167.63ZM125.043 169.708C129.085 170.42 131.522 168.414 132.064 165.341L132.847 160.901C133.389 157.827 131.784 155.109 127.743 154.396C123.702 153.683 121.236 155.684 120.694 158.758L119.911 163.198C119.369 166.272 121.002 168.995 125.043 169.708ZM132.898 173.793L134.72 174.114L138.076 168.895L138.266 167.814L135.762 167.372L132.898 173.793ZM153.973 174.809C157.559 175.441 160.236 173.742 160.798 170.554L160.828 170.383L158.551 169.982L158.516 170.181C158.19 172.031 156.673 173.143 154.34 172.731C151.892 172.3 150.881 170.713 151.222 168.778L152.025 164.224C152.366 162.289 153.859 161.143 156.307 161.575C158.612 161.981 159.69 163.521 159.369 165.343L159.339 165.514L161.616 165.915L161.641 165.773C162.208 162.557 160.288 160.135 156.673 159.497C152.916 158.835 150.31 160.635 149.738 163.879L148.955 168.319C148.383 171.564 150.217 174.146 153.973 174.809ZM169.629 175.427C167.124 174.986 166.081 173.246 166.422 171.311L167.175 167.042C167.516 165.107 169.091 163.829 171.596 164.271C174.157 164.722 175.11 166.475 174.774 168.382L174.021 172.651C173.685 174.558 172.19 175.879 169.629 175.427ZM169.262 177.505C173.304 178.217 175.741 176.211 176.283 173.138L177.066 168.698C177.608 165.624 176.003 162.906 171.962 162.193C167.921 161.48 165.455 163.481 164.913 166.555L164.13 170.995C163.588 174.069 165.221 176.792 169.262 177.505ZM180.267 170.994L189.175 172.564L189.546 170.458L180.638 168.888L180.267 170.994ZM192.471 181.245L194.748 181.646L196.976 169.01L200.505 169.632L200.856 167.64L197.327 167.018L197.412 166.534C197.799 164.342 198.925 163.778 200.861 164.119C201.117 164.165 201.482 164.258 201.596 164.278L201.957 162.229C201.706 162.156 201.341 162.062 200.971 161.997C197.1 161.314 195.597 163.514 195.05 166.616L192.659 166.195L192.308 168.187L194.699 168.608L192.471 181.245ZM207.177 182.048C204.673 181.606 203.63 179.867 203.971 177.932L204.724 173.663C205.065 171.727 206.64 170.45 209.144 170.892C211.706 171.343 212.659 173.096 212.322 175.003L211.57 179.272C211.234 181.179 209.739 182.5 207.177 182.048ZM206.811 184.126C210.852 184.838 213.29 182.832 213.831 179.759L214.614 175.319C215.156 172.245 213.552 169.527 209.511 168.814C205.469 168.101 203.004 170.102 202.462 173.176L201.679 177.616C201.137 180.689 202.77 183.413 206.811 184.126ZM231.418 173.029L229.142 172.628L227.275 183.215C226.207 184.112 224.449 185.093 222.628 184.772C220.835 184.456 219.641 183.072 220.087 180.539L221.713 171.318L219.437 170.916L217.766 180.394C217.138 183.951 218.903 186.258 221.806 186.77C223.969 187.151 225.787 186.327 226.989 185.336L227.473 187.417L228.839 187.658L231.418 173.029ZM233.564 188.491L235.841 188.892L237.708 178.305C238.776 177.408 240.534 176.426 242.355 176.747C244.176 177.069 245.399 178.458 244.952 180.991L243.326 190.212L245.603 190.614L247.274 181.136C247.901 177.579 246.108 175.267 243.177 174.75C241.014 174.369 239.196 175.193 237.965 176.179L237.51 174.103L236.144 173.862L233.564 188.491ZM254.821 192.591C257.041 192.982 258.864 192.13 260.061 191.167L260.516 193.243L261.882 193.484L265.42 173.42L263.144 173.018L261.869 180.247C261.172 179.038 259.769 177.676 257.606 177.294C254.533 176.752 252.038 178.249 251.421 181.75L250.618 186.304C250.001 189.804 251.861 192.069 254.821 192.591ZM255.614 190.589C253.651 190.242 252.559 188.612 252.925 186.534L253.668 182.322C254.034 180.245 255.618 179.086 257.553 179.427C259.374 179.748 260.644 181.205 261.472 182.495L260.318 189.041C259.098 189.97 257.436 190.91 255.614 190.589ZM271.986 195.618C275.515 196.24 277.891 194.751 278.654 191.922L276.377 191.521C275.845 193.041 274.544 193.927 272.352 193.54C269.848 193.099 268.785 191.473 269.131 189.509L269.387 188.058L279.12 189.774L279.657 186.729C280.234 183.456 278.386 180.958 274.686 180.306C270.872 179.634 268.209 181.424 267.637 184.668L266.844 189.165C266.267 192.438 268.172 194.945 271.986 195.618ZM269.713 186.208L269.924 185.013C270.265 183.077 271.815 181.942 274.234 182.369C276.71 182.805 277.717 184.421 277.38 186.327L277.17 187.523L269.713 186.208ZM282.008 197.033L284.285 197.434L286.172 186.733C287.551 185.568 289.18 185.151 291.115 185.492L291.428 185.547L291.82 183.327L291.45 183.262C289.4 182.901 287.459 183.761 286.267 184.696L285.783 182.615L284.587 182.404L282.008 197.033Z" fill="#FBFBFB"/>
<path d="M63.7005 308.332L65.9773 308.734L67.8441 298.146C68.8217 297.262 70.4136 296.223 72.1782 296.534C73.8288 296.825 74.9189 298.132 74.5023 300.494L72.8363 309.943L75.1131 310.345L76.6387 301.693C76.7541 301.038 76.8595 300.44 76.9129 299.804C78.1968 298.681 79.7201 297.864 81.3139 298.145C82.9646 298.436 84.0546 299.743 83.6381 302.105L81.972 311.554L84.2488 311.955L85.9601 302.25C86.5623 298.835 85.1239 296.674 82.221 296.162C80.0011 295.771 78.0342 296.774 76.7218 297.892C76.3164 296.031 74.9921 294.888 73.0852 294.551C71.0076 294.185 69.332 295.034 68.1017 296.02L67.646 293.944L66.2799 293.704L63.7005 308.332ZM94.3158 314.083C97.8449 314.705 100.22 313.216 100.983 310.387L98.7064 309.986C98.1742 311.506 96.8736 312.391 94.6822 312.005C92.1776 311.563 91.1144 309.938 91.4606 307.974L91.7166 306.523L101.45 308.239L101.987 305.194C102.564 301.921 100.716 299.423 97.0157 298.771C93.202 298.099 90.5388 299.889 89.9667 303.133L89.1738 307.63C88.5967 310.903 90.5021 313.41 94.3158 314.083ZM92.0428 304.673L92.2535 303.478C92.5948 301.542 94.1448 300.407 96.564 300.834C99.04 301.27 100.046 302.885 99.7101 304.792L99.4994 305.988L92.0428 304.673ZM104.48 315.523L106.757 315.924L108.644 305.223C110.023 304.058 111.652 303.641 113.587 303.982L113.9 304.037L114.292 301.817L113.922 301.752C111.872 301.391 109.931 302.251 108.739 303.186L108.255 301.105L107.059 300.894L104.48 315.523ZM120.084 318.626C123.67 319.259 126.347 317.559 126.909 314.371L126.939 314.201L124.662 313.799L124.627 313.998C124.301 315.848 122.784 316.96 120.451 316.549C118.003 316.117 116.992 314.53 117.333 312.595L118.136 308.041C118.477 306.106 119.97 304.961 122.418 305.392C124.723 305.799 125.801 307.339 125.48 309.16L125.45 309.331L127.727 309.732L127.752 309.59C128.319 306.374 126.398 303.952 122.784 303.315C119.027 302.652 116.421 304.452 115.849 307.697L115.066 312.137C114.494 315.381 116.327 317.964 120.084 318.626ZM144.559 307.506L142.282 307.105L140.415 317.692C139.347 318.589 137.589 319.571 135.768 319.25C133.975 318.933 132.781 317.549 133.228 315.016L134.854 305.795L132.577 305.394L130.906 314.871C130.278 318.428 132.043 320.735 134.946 321.247C137.109 321.628 138.927 320.804 140.129 319.813L140.613 321.894L141.979 322.135L144.559 307.506ZM146.847 322.993L149.124 323.395L151.011 312.694C152.39 311.528 154.019 311.111 155.954 311.452L156.267 311.508L156.658 309.288L156.288 309.222C154.239 308.861 152.297 309.722 151.106 310.656L150.622 308.575L149.426 308.365L146.847 322.993ZM159.383 329.899L161.29 330.235L171.767 313.419L171.958 312.338L169.881 311.971L163.46 322.753L161.029 310.41L158.895 310.034L158.704 311.116L161.808 325.631L159.534 329.045L159.383 329.899ZM178.276 326.745C175.772 326.303 174.729 324.564 175.07 322.629L175.823 318.36C176.164 316.424 177.739 315.147 180.244 315.589C182.805 316.04 183.758 317.793 183.422 319.7L182.669 323.969C182.333 325.876 180.838 327.197 178.276 326.745ZM177.91 328.823C181.952 329.535 184.389 327.529 184.931 324.456L185.714 320.016C186.256 316.942 184.651 314.224 180.61 313.511C176.569 312.798 174.103 314.799 173.561 317.873L172.778 322.313C172.236 325.386 173.869 328.11 177.91 328.823ZM187.596 330.178L190.272 330.65L190.934 326.893L188.259 326.422L187.596 330.178ZM194.887 331.464L197.164 331.865L199.743 317.237L197.466 316.835L194.887 331.464ZM197.873 314.53L200.15 314.931L200.702 311.801L198.425 311.399L197.873 314.53ZM207.775 331.946C205.271 331.505 204.227 329.766 204.569 327.83L205.321 323.561C205.663 321.626 207.238 320.348 209.742 320.79C212.304 321.242 213.257 322.994 212.92 324.901L212.168 329.17C211.831 331.077 210.337 332.398 207.775 331.946ZM207.409 334.024C211.45 334.737 213.887 332.731 214.429 329.657L215.212 325.217C215.754 322.143 214.15 319.425 210.109 318.712C206.067 318 203.602 320.001 203.06 323.074L202.277 327.514C201.735 330.588 203.367 333.311 207.409 334.024ZM61.5784 342.835C63.8552 343.236 65.859 342.357 66.9169 341.516L67.4445 343.517L68.8106 343.758L70.6021 333.597C71.0889 330.837 69.6003 328.461 65.7866 327.789C62.0014 327.122 59.8471 328.855 59.3653 331.587L61.5852 331.978C61.8562 330.441 63.1719 329.47 65.4203 329.867C67.7256 330.273 68.6013 331.631 68.3002 333.338L68.0443 334.79L64.3729 334.142C60.36 333.435 58.0148 334.753 57.4879 337.741C56.981 340.615 58.9885 342.378 61.5784 342.835ZM62.4001 340.837C60.6925 340.536 59.5138 339.565 59.8099 337.886C60.0758 336.378 61.343 335.516 64.0467 335.992L67.7181 336.64L67.2012 339.571C66.0964 340.345 64.3354 341.179 62.4001 340.837ZM84.8978 351.025L85.6093 351.151L85.9204 349.386L85.2089 349.261C79.0615 348.177 75.4782 343.202 76.5973 336.855C77.7315 330.423 82.7901 327.031 88.9375 328.115C94.4019 329.078 98.2948 333.462 97.256 339.354C96.5735 343.224 94.8862 344.805 93.1217 344.494C91.8979 344.278 91.4977 343.386 91.7135 342.162L93.2189 333.624L92.1944 333.443L91.0613 335.209C90.3931 334.006 89.0905 332.573 87.0698 332.217C84.3092 331.73 82.0242 333.205 81.4873 336.25L80.9804 339.125C80.4435 342.17 82.0911 344.309 84.8517 344.796C86.8724 345.152 88.5715 344.337 89.7549 343.284C89.9092 345.072 91.1883 345.972 92.7252 346.243C95.8558 346.795 98.3984 344.192 99.1913 339.695C100.406 332.807 95.9033 327.553 89.2436 326.379C81.9009 325.084 75.9333 329.138 74.6336 336.509C73.3589 343.738 77.555 349.731 84.8978 351.025ZM85.5479 343.011C83.6695 342.68 82.6682 341.036 83.0044 339.13L83.3958 336.91C83.732 335.003 85.2302 333.829 87.1086 334.16C88.9016 334.476 89.8593 335.702 90.5794 336.944L89.7463 341.668C88.6499 342.561 87.227 343.308 85.5479 343.011ZM102.161 349.638L104.438 350.04L106.305 339.453C107.282 338.569 108.874 337.529 110.639 337.84C112.29 338.131 113.38 339.438 112.963 341.8L111.297 351.249L113.574 351.651L115.099 342.999C115.215 342.344 115.32 341.746 115.374 341.11C116.657 339.987 118.181 339.17 119.775 339.451C121.425 339.742 122.515 341.049 122.099 343.411L120.433 352.86L122.71 353.262L124.421 343.557C125.023 340.141 123.585 337.98 120.682 337.468C118.462 337.077 116.495 338.08 115.183 339.199C114.777 337.337 113.453 336.194 111.546 335.858C109.468 335.491 107.793 336.34 106.562 337.326L106.107 335.251L104.741 335.01L102.161 349.638ZM132.776 355.389C136.306 356.011 138.681 354.522 139.444 351.693L137.167 351.292C136.635 352.812 135.334 353.698 133.143 353.311C130.638 352.87 129.575 351.244 129.921 349.28L130.177 347.829L139.911 349.545L140.448 346.5C141.025 343.227 139.176 340.73 135.476 340.077C131.663 339.405 128.999 341.195 128.427 344.439L127.634 348.936C127.057 352.209 128.963 354.716 132.776 355.389ZM130.503 345.979L130.714 344.784C131.055 342.848 132.605 341.713 135.025 342.14C137.501 342.576 138.507 344.192 138.171 346.098L137.96 347.294L130.503 345.979ZM142.941 356.829L145.217 357.23L147.104 346.529C148.484 345.364 150.112 344.947 152.048 345.288L152.361 345.343L152.752 343.123L152.382 343.058C150.333 342.697 148.391 343.558 147.199 344.492L146.715 342.411L145.52 342.2L142.941 356.829ZM158.545 359.932C162.131 360.565 164.807 358.865 165.37 355.678L165.4 355.507L163.123 355.105L163.088 355.305C162.761 357.155 161.245 358.266 158.911 357.855C156.464 357.423 155.452 355.836 155.793 353.901L156.596 349.347C156.938 347.412 158.431 346.267 160.878 346.698C163.184 347.105 164.262 348.645 163.941 350.466L163.911 350.637L166.188 351.039L166.213 350.896C166.78 347.68 164.859 345.258 161.245 344.621C157.488 343.958 154.882 345.758 154.31 349.003L153.527 353.443C152.955 356.687 154.788 359.27 158.545 359.932ZM183.019 348.812L180.742 348.411L178.876 358.998C177.808 359.896 176.05 360.877 174.229 360.556C172.436 360.24 171.242 358.855 171.688 356.322L173.314 347.101L171.038 346.7L169.366 356.177C168.739 359.734 170.504 362.041 173.407 362.553C175.57 362.934 177.388 362.111 178.59 361.119L179.074 363.2L180.44 363.441L183.019 348.812ZM185.307 364.299L187.584 364.701L189.471 354C190.85 352.834 192.479 352.417 194.415 352.758L194.728 352.814L195.119 350.594L194.749 350.529C192.7 350.167 190.758 351.028 189.566 351.962L189.082 349.881L187.887 349.671L185.307 364.299ZM197.844 371.205L199.751 371.541L210.228 354.725L210.419 353.644L208.341 353.277L201.921 364.059L199.49 351.717L197.356 351.34L197.165 352.422L200.269 366.937L197.994 370.351L197.844 371.205ZM216.737 368.051C214.233 367.61 213.189 365.87 213.531 363.935L214.283 359.666C214.625 357.731 216.2 356.453 218.704 356.895C221.266 357.346 222.219 359.099 221.882 361.006L221.13 365.275C220.793 367.182 219.299 368.503 216.737 368.051ZM216.371 370.129C220.412 370.841 222.849 368.835 223.391 365.762L224.174 361.322C224.716 358.248 223.112 355.53 219.071 354.817C215.029 354.104 212.564 356.105 212.022 359.179L211.239 363.619C210.697 366.693 212.329 369.416 216.371 370.129ZM226.057 371.485L228.732 371.956L229.395 368.199L226.719 367.728L226.057 371.485ZM233.348 372.77L235.624 373.171L238.204 358.543L235.927 358.141L233.348 372.77ZM236.333 355.836L238.61 356.238L239.162 353.107L236.885 352.706L236.333 355.836ZM246.236 373.253C243.731 372.811 242.688 371.072 243.029 369.136L243.782 364.867C244.123 362.932 245.698 361.654 248.203 362.096C250.764 362.548 251.717 364.3 251.381 366.207L250.628 370.476C250.292 372.383 248.797 373.704 246.236 373.253ZM245.869 375.33C249.911 376.043 252.348 374.037 252.89 370.963L253.673 366.523C254.215 363.45 252.611 360.731 248.569 360.018C244.528 359.306 242.062 361.307 241.52 364.38L240.737 368.82C240.195 371.894 241.828 374.618 245.869 375.33Z" fill="#FBFBFB"/>
<path d="M120.562 73.6309L122.689 74.006L122.547 77.5755L103.592 113.896L99.2194 113.125L120.562 73.6309ZM121.059 78.4099L122.512 73.9747L124.639 74.3498L131.245 118.772L126.932 118.011L121.059 78.4099ZM96.2539 108.52L111.085 111.135L110.387 115.094L95.5559 112.479L96.2539 108.52ZM109.193 98.3725L125.206 101.196L126.103 105.436L108.495 102.331L109.193 98.3725ZM121.071 112.896L135.43 115.428L134.732 119.387L120.373 116.855L121.071 112.896ZM142.438 77.4882L148.937 78.6343L148.323 82.1205L141.823 80.9744L142.438 77.4882ZM135.655 115.955L149.836 118.455L149.222 121.942L135.04 119.441L135.655 115.955ZM147.578 78.3947L151.419 79.0719L144.022 121.025L140.181 120.347L147.578 78.3947ZM163.512 124.827C161.464 124.466 159.753 123.799 158.382 122.826C157.01 121.853 155.936 120.688 155.159 119.333C154.422 117.985 153.953 116.5 153.751 114.881C153.588 113.268 153.657 111.615 153.955 109.921C154.24 108.306 154.738 106.749 155.449 105.249C156.16 103.75 157.1 102.454 158.267 101.36C159.435 100.266 160.837 99.4569 162.473 98.933C164.148 98.4161 166.088 98.3521 168.294 98.7411C170.343 99.1023 172.014 99.7624 173.307 100.722C174.6 101.681 175.569 102.867 176.213 104.28C176.864 105.654 177.195 107.236 177.204 109.024C177.253 110.82 177.041 112.712 176.569 114.7L156.538 111.168L157.09 108.037L172.985 110.839C173.191 109.901 173.252 108.977 173.169 108.069C173.131 107.128 172.876 106.271 172.404 105.497C171.977 104.691 171.346 104.011 170.509 103.457C169.68 102.864 168.615 102.453 167.315 102.224C166.527 102.085 165.659 102.054 164.711 102.13C163.771 102.168 162.847 102.452 161.941 102.982C161.082 103.481 160.292 104.276 159.571 105.367C158.89 106.465 158.383 107.96 158.05 109.851C157.8 111.269 157.721 112.636 157.814 113.952C157.953 115.236 158.278 116.39 158.788 117.414C159.344 118.406 160.109 119.251 161.082 119.951C162.055 120.65 163.29 121.132 164.787 121.396C166.442 121.688 168.001 121.597 169.465 121.124C170.937 120.612 172.263 119.77 173.445 118.597L175.572 121.044C175.139 121.658 174.548 122.244 173.8 122.803C173.051 123.361 172.156 123.833 171.113 124.218C170.071 124.602 168.907 124.864 167.624 125.004C166.34 125.143 164.97 125.084 163.512 124.827ZM177.619 123.354L189.201 125.396L188.586 128.883L177.005 126.84L177.619 123.354ZM191.549 116.915L183.789 101.839L188.162 102.61L194.117 114.444L202.708 131.373L198.336 130.602L191.549 116.915ZM182.135 101.547L193.539 103.558L192.924 107.044L181.52 105.033L182.135 101.547ZM192.185 114.347L201.811 105.017L205.888 105.735L193.954 117.096L183.091 127.914L178.955 127.184L192.185 114.347ZM196.789 104.131L208.134 106.131L207.519 109.618L196.174 107.617L196.789 104.131ZM193.101 126.084L204.446 128.084L203.831 131.571L192.486 129.57L193.101 126.084ZM214.534 133.823C213.194 133.587 212.063 133.205 211.141 132.677C210.265 132.116 209.568 131.465 209.048 130.724C208.569 129.989 208.264 129.184 208.134 128.308C208.011 127.393 208.036 126.443 208.21 125.458C208.627 123.095 209.823 121.376 211.8 120.303C213.783 119.191 216.784 118.989 220.802 119.697L226.002 120.614L225.481 123.569L218.804 122.391C216.676 122.016 215.054 122.116 213.938 122.691C212.867 123.233 212.21 124.194 211.967 125.572C211.745 126.833 211.942 127.903 212.559 128.784C213.221 129.632 214.38 130.202 216.035 130.493C218.556 130.938 220.589 130.464 222.134 129.071C223.68 127.678 224.661 125.8 225.077 123.437L225.911 118.709C226.126 117.488 226.142 116.476 225.959 115.672C225.822 114.835 225.516 114.152 225.041 113.621C224.606 113.097 224.008 112.687 223.248 112.391C222.494 112.055 221.645 111.804 220.7 111.637C220.03 111.519 219.37 111.463 218.719 111.471C218.074 111.438 217.469 111.534 216.901 111.759C216.373 111.991 215.915 112.398 215.528 112.979C215.188 113.529 215.006 114.329 214.983 115.381L211.17 114.892C211.2 113.8 211.44 112.787 211.889 111.85C212.345 110.875 213.014 110.079 213.894 109.462C214.781 108.806 215.877 108.35 217.182 108.092C218.526 107.842 220.084 107.873 221.857 108.186C223.157 108.415 224.354 108.768 225.447 109.245C226.548 109.683 227.469 110.333 228.211 111.195C228.992 112.063 229.527 113.173 229.817 114.524C230.107 115.875 230.075 117.555 229.72 119.564L227.991 129.373C227.789 130.515 227.83 131.436 228.113 132.136C228.403 132.796 228.882 133.185 229.552 133.303C230.182 133.415 230.752 133.292 231.262 132.935C231.772 132.578 232.174 132.141 232.468 131.624L234.668 133.657C233.749 134.957 232.771 135.78 231.735 136.125C230.746 136.438 229.68 136.494 228.537 136.293C224.953 135.661 223.476 133.552 224.109 129.967L224.213 129.377L224.095 129.356C223.057 131.325 221.726 132.655 220.102 133.343C218.477 134.031 216.621 134.192 214.534 133.823ZM243.767 112.415L247.549 113.081L246.517 118.931L246.636 118.952C247.136 118.187 247.728 117.479 248.411 116.828C249.095 116.177 249.859 115.641 250.705 115.222C251.558 114.763 252.485 114.459 253.486 114.311C254.533 114.13 255.647 114.144 256.829 114.352C259.311 114.79 261.027 115.884 261.977 117.636C262.928 119.388 263.142 121.741 262.621 124.695L259.673 141.417L255.832 140.74L258.395 126.204C258.805 123.88 258.747 122.022 258.22 120.629C257.734 119.243 256.604 118.394 254.831 118.082C253.846 117.908 252.847 117.935 251.832 118.162C250.824 118.35 249.873 118.792 248.978 119.487C248.123 120.189 247.345 121.148 246.643 122.365C245.988 123.549 245.503 125.028 245.191 126.8L243.128 138.5L239.287 137.823L243.767 112.415ZM238.568 111.498L245.067 112.644L244.453 116.13L237.953 114.984L238.568 111.498ZM234.702 133.419L248.883 135.92L248.269 139.406L234.087 136.906L234.702 133.419ZM251.247 136.337L265.428 138.837L264.813 142.324L250.632 139.823L251.247 136.337ZM295.934 148.176L289.434 147.03L290.049 143.544L296.549 144.69L295.934 148.176ZM294.353 104.275L298.194 104.952L290.734 147.26L286.952 146.593L287.911 141.157L287.793 141.136C286.753 142.658 285.259 143.756 283.313 144.428C281.406 145.107 279.468 145.273 277.498 144.926C275.962 144.655 274.619 144.093 273.47 143.241C272.327 142.349 271.404 141.252 270.699 139.949C270.001 138.608 269.536 137.104 269.301 135.438C269.113 133.74 269.186 131.945 269.519 130.054C269.832 128.282 270.403 126.656 271.232 125.178C272.062 123.699 273.073 122.456 274.266 121.448C275.466 120.4 276.815 119.663 278.311 119.237C279.855 118.778 281.473 118.698 283.167 118.996C285.018 119.323 286.597 120.048 287.901 121.171C289.245 122.302 290.141 123.557 290.588 124.935L290.707 124.956L294.353 104.275ZM289.227 133.347C289.456 132.047 289.432 130.803 289.154 129.617C288.882 128.391 288.422 127.315 287.773 126.388C287.131 125.422 286.34 124.613 285.399 123.959C284.458 123.306 283.436 122.882 282.333 122.688C280.285 122.326 278.432 122.812 276.776 124.145C275.119 125.477 274.038 127.581 273.53 130.457C273.253 132.033 273.203 133.466 273.382 134.756C273.607 136.015 273.981 137.116 274.505 138.062C275.075 138.975 275.775 139.728 276.604 140.321C277.441 140.874 278.352 141.238 279.336 141.412C280.164 141.557 281.074 141.576 282.068 141.467C283.069 141.318 284.046 140.963 284.998 140.399C285.957 139.797 286.817 138.953 287.577 137.869C288.344 136.745 288.883 135.296 289.196 133.524L289.227 133.347ZM288.976 103.327L295.476 104.473L294.872 107.9L288.372 106.754L288.976 103.327ZM310.252 150.701C308.204 150.34 306.494 149.673 305.122 148.7C303.75 147.727 302.676 146.563 301.899 145.207C301.162 143.859 300.693 142.375 300.491 140.755C300.329 139.142 300.397 137.489 300.695 135.795C300.98 134.18 301.478 132.623 302.189 131.124C302.9 129.624 303.84 128.328 305.008 127.234C306.175 126.14 307.577 125.331 309.213 124.807C310.888 124.29 312.829 124.226 315.035 124.615C317.083 124.977 318.754 125.637 320.047 126.596C321.34 127.555 322.309 128.741 322.953 130.154C323.604 131.528 323.935 133.11 323.944 134.899C323.993 136.694 323.781 138.586 323.309 140.575L303.278 137.043L303.83 133.911L319.725 136.714C319.931 135.775 319.992 134.852 319.909 133.943C319.872 133.003 319.617 132.145 319.144 131.372C318.717 130.565 318.086 129.885 317.249 129.332C316.42 128.738 315.355 128.327 314.055 128.098C313.267 127.959 312.399 127.928 311.452 128.005C310.511 128.042 309.588 128.326 308.682 128.857C307.822 129.355 307.032 130.15 306.312 131.241C305.63 132.34 305.123 133.834 304.79 135.725C304.54 137.143 304.461 138.51 304.554 139.826C304.693 141.11 305.018 142.264 305.528 143.288C306.084 144.28 306.849 145.125 307.822 145.825C308.795 146.525 310.03 147.007 311.527 147.27C313.182 147.562 314.741 147.472 316.206 146.999C317.677 146.486 319.003 145.644 320.185 144.471L322.312 146.918C321.879 147.532 321.288 148.118 320.54 148.677C319.792 149.235 318.896 149.707 317.854 150.092C316.811 150.477 315.648 150.739 314.364 150.878C313.08 151.017 311.71 150.958 310.252 150.701ZM334.708 128.45L338.49 129.117L337.5 134.73L337.618 134.751C338.392 132.897 339.42 131.555 340.704 130.726C342.027 129.903 343.614 129.655 345.466 129.981C347.593 130.356 349.069 131.429 349.894 133.199C350.766 134.937 350.826 137.242 350.076 140.116L346.322 139.637C346.551 139.027 346.682 138.4 346.715 137.756C346.793 137.079 346.74 136.461 346.554 135.9C346.415 135.307 346.117 134.808 345.661 134.402C345.251 133.964 344.671 133.679 343.923 133.547C342.899 133.367 341.957 133.526 341.097 134.024C340.238 134.522 339.458 135.258 338.758 136.231C338.105 137.172 337.539 138.311 337.059 139.648C336.587 140.946 336.222 142.323 335.965 143.781L334.069 154.535L330.228 153.858L334.708 128.45ZM329.508 127.533L336.008 128.679L335.393 132.165L328.894 131.019L329.508 127.533ZM325.643 149.455L341.183 152.195L340.568 155.681L325.028 152.941L325.643 149.455ZM380.304 162.688L378.176 162.312L378.318 158.743L397.982 122.548L402.355 123.319L380.304 162.688ZM379.806 157.909L378.354 162.344L376.227 161.969L370.329 117.672L374.642 118.432L379.806 157.909ZM405.32 127.924L390.489 125.308L391.187 121.349L406.018 123.965L405.32 127.924ZM380.503 123.548L366.145 121.016L366.843 117.057L381.201 119.589L380.503 123.548ZM401.782 166.84C400.442 166.604 399.311 166.222 398.389 165.694C397.513 165.133 396.816 164.482 396.297 163.741C395.817 163.006 395.512 162.201 395.382 161.325C395.259 160.41 395.285 159.46 395.458 158.475C395.875 156.112 397.071 154.393 399.048 153.32C401.031 152.208 404.032 152.006 408.05 152.714L413.25 153.631L412.729 156.585L406.052 155.408C403.924 155.033 402.303 155.133 401.186 155.708C400.115 156.25 399.459 157.211 399.215 158.589C398.993 159.85 399.19 160.92 399.807 161.801C400.47 162.649 401.628 163.219 403.283 163.51C405.804 163.955 407.837 163.481 409.382 162.088C410.928 160.695 411.909 158.817 412.325 156.453L413.159 151.726C413.374 150.505 413.39 149.493 413.207 148.689C413.07 147.852 412.764 147.169 412.289 146.638C411.854 146.114 411.256 145.704 410.496 145.408C409.743 145.072 408.893 144.821 407.948 144.654C407.278 144.536 406.618 144.48 405.967 144.487C405.323 144.455 404.717 144.551 404.149 144.776C403.621 145.008 403.163 145.415 402.776 145.996C402.436 146.546 402.254 147.346 402.231 148.398L398.418 147.909C398.448 146.817 398.688 145.803 399.137 144.867C399.593 143.892 400.262 143.096 401.142 142.479C402.03 141.823 403.125 141.367 404.43 141.109C405.774 140.859 407.332 140.89 409.105 141.202C410.405 141.432 411.602 141.785 412.695 142.262C413.796 142.7 414.717 143.35 415.459 144.212C416.24 145.08 416.775 146.19 417.065 147.541C417.355 148.892 417.323 150.572 416.968 152.581L415.239 162.389C415.038 163.532 415.078 164.453 415.361 165.153C415.651 165.813 416.13 166.202 416.8 166.32C417.43 166.431 418 166.309 418.51 165.952C419.02 165.595 419.422 165.158 419.716 164.641L421.916 166.674C420.997 167.974 420.019 168.797 418.983 169.142C417.994 169.455 416.928 169.511 415.786 169.31C412.201 168.677 410.725 166.569 411.357 162.984L411.461 162.393L411.343 162.373C410.305 164.342 408.974 165.671 407.35 166.36C405.725 167.048 403.869 167.208 401.782 166.84ZM430.727 171.944C429.939 171.805 429.119 171.62 428.266 171.388C427.453 171.164 426.679 170.946 425.944 170.735C425.217 170.485 424.568 170.249 423.998 170.026C423.428 169.804 422.976 169.603 422.642 169.422L423.309 165.64C424.676 166.409 426.17 167.038 427.79 167.527C429.416 167.976 430.761 168.295 431.825 168.482C432.14 168.538 432.636 168.605 433.313 168.684C433.989 168.762 434.66 168.759 435.325 168.673C436.029 168.594 436.656 168.38 437.205 168.03C437.801 167.647 438.171 167.042 438.317 166.215C438.491 165.23 438.256 164.376 437.611 163.654C437.006 162.938 436.191 162.266 435.164 161.638C434.177 161.017 433.065 160.415 431.827 159.831C430.629 159.254 429.527 158.593 428.522 157.847C427.562 157.069 426.785 156.18 426.189 155.181C425.633 154.19 425.483 152.965 425.74 151.508C426.136 149.262 427.331 147.666 429.326 146.718C431.321 145.77 433.737 145.546 436.573 146.046C437.203 146.157 437.866 146.314 438.561 146.518C439.303 146.69 439.998 146.893 440.647 147.13C441.342 147.334 441.975 147.547 442.545 147.769C443.122 147.952 443.577 148.134 443.911 148.314L443.286 151.86C441.687 151.253 440.29 150.763 439.097 150.39C437.904 150.017 436.775 149.737 435.712 149.549C433.584 149.174 432.091 149.236 431.231 149.734C430.418 150.2 429.939 150.847 429.793 151.674C429.619 152.659 429.838 153.489 430.45 154.166C431.101 154.849 431.924 155.482 432.918 156.063C433.952 156.652 435.064 157.254 436.255 157.87C437.492 158.454 438.594 159.115 439.561 159.854C440.566 160.6 441.344 161.489 441.893 162.52C442.482 163.558 442.648 164.806 442.391 166.263C442.231 167.169 441.894 168.044 441.38 168.888C440.912 169.699 440.221 170.389 439.309 170.959C438.396 171.529 437.228 171.933 435.805 172.169C434.429 172.373 432.736 172.298 430.727 171.944ZM438.997 154.759L440.247 147.668L443.911 148.314L442.66 155.405L438.997 154.759ZM422.642 169.422L423.997 161.74L427.66 162.386L426.306 170.068L422.642 169.422ZM457.272 142.141C456.366 141.981 455.67 141.554 455.183 140.859C454.743 140.131 454.599 139.334 454.752 138.467C454.904 137.601 455.309 136.921 455.964 136.427C456.666 135.901 457.47 135.718 458.376 135.877C459.361 136.051 460.074 136.502 460.514 137.229C461.001 137.924 461.168 138.705 461.015 139.572C460.862 140.438 460.435 141.135 459.733 141.661C459.077 142.154 458.257 142.314 457.272 142.141ZM449.359 148.666L455.858 149.812L455.244 153.298L448.744 152.152L449.359 148.666ZM445.493 170.588L459.674 173.088L459.06 176.574L444.879 174.074L445.493 170.588ZM454.558 149.583L458.399 150.26L453.919 175.668L450.078 174.991L454.558 149.583ZM467.309 134.772L473.809 135.918L473.194 139.404L466.694 138.258L467.309 134.772ZM460.526 173.238L474.707 175.739L474.093 179.225L459.911 176.725L460.526 173.238ZM472.45 135.678L476.29 136.355L468.893 178.308L465.052 177.631L472.45 135.678ZM488.49 147.645C487.584 147.486 486.887 147.058 486.4 146.363C485.96 145.636 485.816 144.838 485.969 143.972C486.122 143.105 486.526 142.425 487.182 141.931C487.884 141.405 488.688 141.222 489.594 141.382C490.579 141.556 491.291 142.006 491.732 142.734C492.218 143.429 492.385 144.21 492.233 145.076C492.08 145.943 491.652 146.639 490.95 147.165C490.295 147.659 489.474 147.819 488.49 147.645ZM480.576 154.17L487.076 155.316L486.461 158.803L479.962 157.657L480.576 154.17ZM476.711 176.092L490.892 178.593L490.277 182.079L476.096 179.578L476.711 176.092ZM485.776 155.087L489.617 155.764L485.137 181.172L481.296 180.495L485.776 155.087ZM504.598 184.97C502.549 184.608 500.839 183.941 499.467 182.968C498.096 181.995 497.021 180.831 496.245 179.476C495.508 178.127 495.039 176.643 494.837 175.023C494.674 173.411 494.742 171.757 495.041 170.064C495.326 168.448 495.824 166.891 496.535 165.392C497.246 163.893 498.186 162.596 499.353 161.502C500.521 160.408 501.923 159.6 503.558 159.076C505.234 158.559 507.174 158.495 509.38 158.884C511.429 159.245 513.099 159.905 514.393 160.864C515.686 161.823 516.654 163.01 517.299 164.423C517.95 165.797 518.28 167.378 518.29 169.167C518.339 170.963 518.127 172.855 517.655 174.843L497.624 171.311L498.176 168.179L514.071 170.982C514.277 170.044 514.338 169.12 514.255 168.212C514.217 167.271 513.962 166.414 513.489 165.64C513.063 164.834 512.432 164.154 511.595 163.6C510.765 163.007 509.701 162.596 508.401 162.366C507.613 162.228 506.745 162.196 505.797 162.273C504.857 162.31 503.933 162.594 503.027 163.125C502.168 163.623 501.378 164.418 500.657 165.51C499.976 166.608 499.469 168.103 499.135 169.993C498.885 171.412 498.807 172.779 498.9 174.095C499.039 175.379 499.363 176.532 499.873 177.557C500.43 178.548 501.194 179.394 502.168 180.093C503.141 180.793 504.376 181.275 505.873 181.539C507.527 181.831 509.087 181.74 510.551 181.267C512.023 180.755 513.349 179.912 514.531 178.74L516.658 181.186C516.225 181.8 515.634 182.387 514.886 182.945C514.137 183.504 513.242 183.975 512.199 184.36C511.156 184.745 509.993 185.007 508.71 185.146C507.426 185.285 506.055 185.227 504.598 184.97ZM524.048 161.836L528.243 162.575L532.869 186.786L531.534 186.064L543.724 165.305L547.801 166.024L533.04 189.619L529.495 188.994L524.048 161.836ZM522.039 161.481L533.679 163.534L533.065 167.02L521.424 164.968L522.039 161.481ZM538.052 164.305L549.751 166.368L549.137 169.854L537.437 167.791L538.052 164.305Z" fill="#FBFBFB"/>
<path d="M316.303 266.145C316.303 266.145 305.018 264.268 303.051 275.424C305.031 264.195 293.772 262.172 293.772 262.172C293.772 262.172 304.934 264.745 307.024 252.893C304.934 264.745 316.303 266.145 316.303 266.145Z" fill="#FBFBFB"/>
<path d="M632.951 266.344C635.244 266.748 637.43 265.218 637.834 262.926C638.238 260.633 636.707 258.448 634.415 258.043C632.123 257.639 629.937 259.17 629.533 261.462C629.129 263.754 630.659 265.94 632.951 266.344Z" fill="#FBFBFB"/>
<g clip-path="url(#clip1)">
<path d="M534.014 287.79L533.867 288.622C522.118 286.55 514.015 292.421 511.962 304.067L510.796 303.861C512.86 292.158 507.068 283.896 495.436 281.845L495.582 281.013C507.215 283.064 515.516 277.208 517.569 265.563L518.735 265.768C516.662 277.41 522.265 285.718 534.014 287.79Z" fill="#FBFBFB"/>
<path d="M477.158 460.23L452.605 456.279C455.99 435.375 423.127 399.402 430.391 354.348C436.555 315.982 448.101 296.038 455.063 287.213C460.452 280.384 465.533 276.553 473.38 277.817C482.181 279.229 486.928 285.013 486.615 301.213C485.587 354.966 499.192 395.341 477.158 460.23Z" fill="#FBFBFB" stroke="#FBFBFB" stroke-width="0.60207" stroke-miterlimit="10"/>
<path d="M471.429 459.429C466.764 443.334 466.871 414.57 468.395 390.57C470.063 364.077 474.721 325.964 476.909 301.517C477.722 292.366 475.363 288.26 470.984 287.428C466.003 286.49 462.304 291.003 459.202 297.697C455.676 305.313 441.235 333.842 438.772 365.521C435.961 401.495 462.745 434.639 462.001 457.767" stroke="#232323" stroke-width="1.20414" stroke-miterlimit="10"/>
<path d="M489.994 462.494L514.418 467.179C518.402 446.4 561.59 423.817 570.174 378.996C577.484 340.832 573.472 318.165 569.931 307.468C567.203 299.208 563.739 293.87 555.933 292.374C547.179 290.691 540.741 294.502 535.494 309.833C518.096 360.698 491.482 393.983 489.994 462.494Z" fill="#FBFBFB" stroke="#FBFBFB" stroke-width="0.60207" stroke-miterlimit="10"/>
<path d="M495.651 463.7C505.539 450.171 515.277 423.105 522.053 400.031C529.547 374.565 538.205 337.158 544.51 313.437C546.876 304.56 550.498 301.508 554.897 302.224C559.898 303.046 561.831 308.553 562.457 315.903C563.184 324.269 566.978 356.014 558.476 386.628C548.814 421.394 512.309 443.378 505.081 465.363" stroke="#232323" stroke-width="1.20414" stroke-miterlimit="10"/>
</g>
</g>
<defs>
<clipPath id="clip0">
<rect width="763.045" height="577.289" fill="white" transform="translate(35.2451 -91.4004) rotate(10)"/>
</clipPath>
<clipPath id="clip1">
<rect width="142" height="198" fill="white" transform="translate(448.172 253.326) rotate(10)"/>
</clipPath>
</defs>
</svg>
