<svg width="443" height="200" viewBox="0 0 443 200" fill="none" xmlns="http://www.w3.org/2000/svg">
  <path d="M0 7.10971C0 4.46814 0 3.14735 0.562645 2.16093C0.942677 1.49466 1.49466 0.942677 2.16093 0.562645C3.14735 0 4.46814 0 7.10971 0H384.637C406.322 0 417.164 0 425.261 4.6187C430.73 7.73834 435.262 12.2695 438.381 17.7388C443 25.8363 443 36.6785 443 58.3629V192.89C443 195.532 443 196.853 442.437 197.839C442.057 198.505 441.505 199.057 440.839 199.437C439.853 200 438.532 200 435.89 200H58.3628C36.6785 200 25.8363 200 17.7388 195.381C12.2695 192.262 7.73834 187.73 4.6187 182.261C0 174.164 0 163.322 0 141.637V7.10971Z" fill="#FBFBFB"/>
  <path d="M24.598 57H26.678L28.55 52.164H36.402L38.222 57H40.458V56.246L33.646 38.8H31.384L24.598 56.246V57ZM29.226 50.24L32.476 41.816L35.7 50.24H29.226ZM43.2205 57H45.3005V47.224C46.3405 45.976 47.7185 45.352 49.4865 45.352H49.7725V43.324H49.4345C47.5625 43.324 45.9765 44.39 45.0665 45.404L44.3125 43.636H43.2205V57ZM57.5049 57.312C60.7289 57.312 62.6009 55.622 62.8349 52.996H60.7549C60.5209 54.426 59.5069 55.414 57.5049 55.414C55.2169 55.414 54.0209 54.14 54.0209 52.346V51.02H62.9129V48.238C62.9129 45.248 60.8849 43.324 57.5049 43.324C54.0209 43.324 51.9409 45.326 51.9409 48.29V52.398C51.9409 55.388 54.0209 57.312 57.5049 57.312ZM54.0209 49.33V48.238C54.0209 46.47 55.2169 45.222 57.4269 45.222C59.6889 45.222 60.8329 46.496 60.8329 48.238V49.33H54.0209ZM75.0559 61.16H76.7979L83.4539 44.624V43.636H81.5559L77.5519 54.192L73.4699 43.636H71.5199V44.624L76.5379 57L75.0559 60.38V61.16ZM91.1728 55.414C88.8848 55.414 87.6888 54.036 87.6888 52.268V48.368C87.6888 46.6 88.8848 45.222 91.1728 45.222C93.5128 45.222 94.6308 46.626 94.6308 48.368V52.268C94.6308 54.01 93.5128 55.414 91.1728 55.414ZM91.1728 57.312C94.8648 57.312 96.7108 55.154 96.7108 52.346V48.29C96.7108 45.482 94.8648 43.324 91.1728 43.324C87.4808 43.324 85.6088 45.482 85.6088 48.29V52.346C85.6088 55.154 87.4808 57.312 91.1728 57.312ZM111.242 43.636H109.162V53.308C108.356 54.27 106.952 55.414 105.288 55.414C103.65 55.414 102.376 54.374 102.376 52.06V43.636H100.296V52.294C100.296 55.544 102.22 57.312 104.872 57.312C106.848 57.312 108.33 56.298 109.24 55.232L109.994 57H111.242V43.636ZM127.077 57.312C130.405 57.312 132.433 55.648 132.433 53.23C132.433 51.098 131.081 50.214 129.001 49.694L125.751 48.888C124.373 48.524 123.853 48.056 123.853 47.12C123.853 46.106 124.763 45.222 126.791 45.222C128.715 45.222 130.145 46.106 130.145 48.03H132.225C132.225 44.884 130.119 43.324 126.947 43.324C123.697 43.324 121.773 44.988 121.773 47.25C121.773 49.382 123.151 50.214 124.971 50.682L128.273 51.54C129.755 51.93 130.353 52.424 130.353 53.386C130.353 54.556 129.183 55.414 127.233 55.414C125.153 55.414 123.333 54.504 123.333 52.476H121.253C121.253 55.7 123.775 57.312 127.077 57.312ZM147.042 43.636H144.962V53.308C144.156 54.27 142.752 55.414 141.088 55.414C139.45 55.414 138.176 54.374 138.176 52.06V43.636H136.096V52.294C136.096 55.544 138.02 57.312 140.672 57.312C142.648 57.312 144.13 56.298 145.04 55.232L145.794 57H147.042V43.636ZM151.359 57H153.439V47.224C154.479 45.976 155.857 45.352 157.625 45.352H157.911V43.324H157.573C155.701 43.324 154.115 44.39 153.205 45.404L152.451 43.636H151.359V57ZM165.644 57.312C168.868 57.312 170.74 55.622 170.974 52.996H168.894C168.66 54.426 167.646 55.414 165.644 55.414C163.356 55.414 162.16 54.14 162.16 52.346V51.02H171.052V48.238C171.052 45.248 169.024 43.324 165.644 43.324C162.16 43.324 160.08 45.326 160.08 48.29V52.398C160.08 55.388 162.16 57.312 165.644 57.312ZM162.16 49.33V48.238C162.16 46.47 163.356 45.222 165.566 45.222C167.828 45.222 168.972 46.496 168.972 48.238V49.33H162.16ZM183.195 61.16H184.937L191.593 44.624V43.636H189.695L185.691 54.192L181.609 43.636H179.659V44.624L184.677 57L183.195 60.38V61.16ZM199.312 55.414C197.024 55.414 195.828 54.036 195.828 52.268V48.368C195.828 46.6 197.024 45.222 199.312 45.222C201.652 45.222 202.77 46.626 202.77 48.368V52.268C202.77 54.01 201.652 55.414 199.312 55.414ZM199.312 57.312C203.004 57.312 204.85 55.154 204.85 52.346V48.29C204.85 45.482 203.004 43.324 199.312 43.324C195.619 43.324 193.748 45.482 193.748 48.29V52.346C193.748 55.154 195.619 57.312 199.312 57.312ZM219.38 43.636H217.3V53.308C216.494 54.27 215.09 55.414 213.426 55.414C211.788 55.414 210.514 54.374 210.514 52.06V43.636H208.434V52.294C208.434 55.544 210.358 57.312 213.01 57.312C214.986 57.312 216.468 56.298 217.378 55.232L218.132 57H219.38V43.636ZM238.024 46.158H236.516L233.682 54.192L231.16 43.636H229.262V44.624L232.356 57H234.41L237.27 49.382L240.104 57H242.132L245.226 44.624V43.636H243.354L240.858 54.192L238.024 46.158ZM252.166 57.312C254.246 57.312 255.884 56.22 256.69 55.31L257.47 57H258.718V47.718C258.718 45.196 257.028 43.324 253.544 43.324C250.086 43.324 248.448 45.196 248.448 47.692H250.476C250.476 46.288 251.49 45.222 253.544 45.222C255.65 45.222 256.638 46.288 256.638 47.848V49.174H253.284C249.618 49.174 247.746 50.708 247.746 53.438C247.746 56.064 249.8 57.312 252.166 57.312ZM252.582 55.414C251.022 55.414 249.826 54.738 249.826 53.204C249.826 51.826 250.814 50.864 253.284 50.864H256.638V53.542C255.78 54.4 254.35 55.414 252.582 55.414ZM262.875 57H264.955V47.328C265.761 46.366 267.165 45.222 268.829 45.222C270.493 45.222 271.793 46.262 271.793 48.576V57H273.873V48.342C273.873 45.092 271.923 43.324 269.245 43.324C267.269 43.324 265.787 44.338 264.851 45.404L264.123 43.636H262.875V57ZM282.921 57H284.169V55.102H282.921C281.569 55.102 280.737 54.4 280.737 52.606V45.456H284.169V43.636H280.737V40.854H278.657V43.636H276.473V45.456H278.657V52.658C278.657 54.816 279.567 57 282.921 57ZM298.942 57H300.19V55.102H298.942C297.59 55.102 296.758 54.4 296.758 52.606V45.456H300.19V43.636H296.758V40.854H294.678V43.636H292.494V45.456H294.678V52.658C294.678 54.816 295.588 57 298.942 57ZM308.567 55.414C306.279 55.414 305.083 54.036 305.083 52.268V48.368C305.083 46.6 306.279 45.222 308.567 45.222C310.907 45.222 312.025 46.626 312.025 48.368V52.268C312.025 54.01 310.907 55.414 308.567 55.414ZM308.567 57.312C312.259 57.312 314.105 55.154 314.105 52.346V48.29C314.105 45.482 312.259 43.324 308.567 43.324C304.875 43.324 303.003 45.482 303.003 48.29V52.346C303.003 55.154 304.875 57.312 308.567 57.312ZM329.183 57H330.431V55.102H329.183C327.831 55.102 326.999 54.4 326.999 52.606V45.456H330.431V43.636H326.999V40.854H324.919V43.636H322.735V45.456H324.919V52.658C324.919 54.816 325.829 57 329.183 57ZM344.658 43.636H342.578V53.308C341.772 54.27 340.368 55.414 338.704 55.414C337.066 55.414 335.792 54.374 335.792 52.06V43.636H333.712V52.294C333.712 55.544 335.636 57.312 338.288 57.312C340.264 57.312 341.746 56.298 342.656 55.232L343.41 57H344.658V43.636ZM348.974 57H351.054V47.224C352.094 45.976 353.472 45.352 355.24 45.352H355.526V43.324H355.188C353.316 43.324 351.73 44.39 350.82 45.404L350.066 43.636H348.974V57ZM358.547 57H360.627V47.328C361.433 46.366 362.837 45.222 364.501 45.222C366.165 45.222 367.465 46.262 367.465 48.576V57H369.545V48.342C369.545 45.092 367.595 43.324 364.917 43.324C362.941 43.324 361.459 44.338 360.523 45.404L359.795 43.636H358.547V57ZM31.124 89.414C28.836 89.414 27.64 88.036 27.64 86.268V82.368C27.64 80.6 28.836 79.222 31.124 79.222C33.464 79.222 34.582 80.626 34.582 82.368V86.268C34.582 88.01 33.464 89.414 31.124 89.414ZM31.124 91.312C34.816 91.312 36.662 89.154 36.662 86.346V82.29C36.662 79.482 34.816 77.324 31.124 77.324C27.432 77.324 25.56 79.482 25.56 82.29V86.346C25.56 89.154 27.432 91.312 31.124 91.312ZM40.8708 91H42.9508V79.456H46.1748V77.636H42.9508V77.194C42.9508 75.192 43.8608 74.516 45.6288 74.516C45.8627 74.516 46.2008 74.542 46.3048 74.542V72.67C46.0708 72.644 45.7328 72.618 45.3948 72.618C41.8588 72.618 40.8708 74.802 40.8708 77.636H38.6868V79.456H40.8708V91ZM49.5543 91H51.6343V79.456H54.8583V77.636H51.6343V77.194C51.6343 75.192 52.5443 74.516 54.3123 74.516C54.5463 74.516 54.8843 74.542 54.9883 74.542V72.67C54.7543 72.644 54.4163 72.618 54.0783 72.618C50.5423 72.618 49.5543 74.802 49.5543 77.636H47.3703V79.456H49.5543V91ZM63.5165 91H74.9305V89.102H66.3505L70.5625 84.864C72.6425 82.758 74.6965 80.782 74.6965 77.844C74.6965 74.776 72.6685 72.41 69.1065 72.41C65.8565 72.41 63.4645 74.568 63.4385 78.39H65.5185C65.5445 75.92 66.7925 74.308 69.1325 74.308C71.3945 74.308 72.6165 75.79 72.6165 77.896C72.6165 80.054 71.0825 81.588 69.0025 83.694L63.5165 89.284V91ZM79.0274 91H81.3154V82.966H89.2454V80.964H81.3154V74.802H90.4934V72.8H79.0274V91ZM92.2132 91H94.2932L96.1652 86.164H104.017L105.837 91H108.073V90.246L101.261 72.8H98.9992L92.2132 90.246V91ZM96.8412 84.24L100.091 75.816L103.315 84.24H96.8412ZM120.82 91.312C122.9 91.312 124.538 90.22 125.344 89.31L126.124 91H127.372V81.718C127.372 79.196 125.682 77.324 122.198 77.324C118.74 77.324 117.102 79.196 117.102 81.692H119.13C119.13 80.288 120.144 79.222 122.198 79.222C124.304 79.222 125.292 80.288 125.292 81.848V83.174H121.938C118.272 83.174 116.4 84.708 116.4 87.438C116.4 90.064 118.454 91.312 120.82 91.312ZM121.236 89.414C119.676 89.414 118.48 88.738 118.48 87.204C118.48 85.826 119.468 84.864 121.938 84.864H125.292V87.542C124.434 88.4 123.004 89.414 121.236 89.414ZM142.345 77.636H140.265V87.308C139.459 88.27 138.055 89.414 136.391 89.414C134.753 89.414 133.479 88.374 133.479 86.06V77.636H131.399V86.294C131.399 89.544 133.323 91.312 135.975 91.312C137.951 91.312 139.433 90.298 140.343 89.232L141.097 91H142.345V77.636ZM151.55 91H152.798V89.102H151.55C150.198 89.102 149.366 88.4 149.366 86.606V79.456H152.798V77.636H149.366V74.854H147.286V77.636H145.102V79.456H147.286V86.658C147.286 88.816 148.196 91 151.55 91ZM156.209 91H158.289V81.328C159.095 80.366 160.525 79.222 162.163 79.222C163.827 79.222 165.127 80.262 165.127 82.576V91H167.207V82.342C167.207 79.092 165.205 77.324 162.605 77.324C160.655 77.324 159.199 78.286 158.289 79.274V72.67H156.209V91ZM176.333 91.312C179.557 91.312 181.429 89.622 181.663 86.996H179.583C179.349 88.426 178.335 89.414 176.333 89.414C174.045 89.414 172.849 88.14 172.849 86.346V85.02H181.741V82.238C181.741 79.248 179.713 77.324 176.333 77.324C172.849 77.324 170.769 79.326 170.769 82.29V86.398C170.769 89.388 172.849 91.312 176.333 91.312ZM172.849 83.33V82.238C172.849 80.47 174.045 79.222 176.255 79.222C178.517 79.222 179.661 80.496 179.661 82.238V83.33H172.849ZM185.433 91H187.513V81.328C188.319 80.366 189.723 79.222 191.387 79.222C193.051 79.222 194.351 80.262 194.351 82.576V91H196.431V82.342C196.431 79.092 194.481 77.324 191.803 77.324C189.827 77.324 188.345 78.338 187.409 79.404L186.681 77.636H185.433V91ZM205.48 91H206.728V89.102H205.48C204.128 89.102 203.296 88.4 203.296 86.606V79.456H206.728V77.636H203.296V74.854H201.216V77.636H199.032V79.456H201.216V86.658C201.216 88.816 202.126 91 205.48 91ZM210.138 91H212.218V77.636H210.138V91ZM210.138 75.53H212.218V72.67H210.138V75.53ZM217.031 91H219.111V79.456H225.221V91H227.301V77.636H219.111V77.194C219.111 75.192 220.021 74.516 221.789 74.516C222.075 74.516 222.335 74.542 222.465 74.542V72.67C222.231 72.644 221.893 72.618 221.555 72.618C218.019 72.618 217.031 74.802 217.031 77.636H214.847V79.456H217.031V91ZM225.221 75.53H227.301V72.67H225.221V75.53ZM236.481 91.312C239.757 91.312 241.863 89.388 241.863 86.476V86.32H239.783V86.502C239.783 88.192 238.613 89.414 236.481 89.414C234.245 89.414 233.101 88.166 233.101 86.398V82.238C233.101 80.47 234.245 79.222 236.481 79.222C238.587 79.222 239.783 80.418 239.783 82.082V82.238H241.863V82.108C241.863 79.17 239.783 77.324 236.481 77.324C233.049 77.324 231.021 79.326 231.021 82.29V86.346C231.021 89.31 233.049 91.312 236.481 91.312ZM248.992 91.312C251.072 91.312 252.71 90.22 253.516 89.31L254.296 91H255.544V81.718C255.544 79.196 253.854 77.324 250.37 77.324C246.912 77.324 245.274 79.196 245.274 81.692H247.302C247.302 80.288 248.316 79.222 250.37 79.222C252.476 79.222 253.464 80.288 253.464 81.848V83.174H250.11C246.444 83.174 244.572 84.708 244.572 87.438C244.572 90.064 246.626 91.312 248.992 91.312ZM249.408 89.414C247.848 89.414 246.652 88.738 246.652 87.204C246.652 85.826 247.64 84.864 250.11 84.864H253.464V87.542C252.606 88.4 251.176 89.414 249.408 89.414ZM264.589 91H265.837V89.102H264.589C263.237 89.102 262.405 88.4 262.405 86.606V79.456H265.837V77.636H262.405V74.854H260.325V77.636H258.141V79.456H260.325V86.658C260.325 88.816 261.235 91 264.589 91ZM269.248 91H271.328V77.636H269.248V91ZM269.248 75.53H271.328V72.67H269.248V75.53ZM280.612 89.414C278.324 89.414 277.128 88.036 277.128 86.268V82.368C277.128 80.6 278.324 79.222 280.612 79.222C282.952 79.222 284.07 80.626 284.07 82.368V86.268C284.07 88.01 282.952 89.414 280.612 89.414ZM280.612 91.312C284.304 91.312 286.15 89.154 286.15 86.346V82.29C286.15 79.482 284.304 77.324 280.612 77.324C276.92 77.324 275.048 79.482 275.048 82.29V86.346C275.048 89.154 276.92 91.312 280.612 91.312ZM289.865 91H291.945V81.328C292.751 80.366 294.155 79.222 295.819 79.222C297.483 79.222 298.783 80.262 298.783 82.576V91H300.863V82.342C300.863 79.092 298.913 77.324 296.235 77.324C294.259 77.324 292.777 78.338 291.841 79.404L291.113 77.636H289.865V91ZM308.273 85.28H310.353V83.226L311.549 82.42C312.979 81.484 315.085 80.106 315.085 77.35C315.085 74.802 313.291 72.41 309.573 72.41C306.271 72.41 303.723 74.49 303.723 78.312H305.699C305.699 75.79 307.259 74.308 309.573 74.308C311.939 74.308 313.005 75.842 313.005 77.376C313.005 79.248 311.913 79.976 310.457 80.99L308.273 82.498V85.28ZM308.221 91H310.431V87.802H308.221V91Z" fill="#232323"/>
  <path d="M330.986 171H334.678V156.024H339.774V152.8H325.864V156.024H330.986V171ZM351.966 157.376H348.586V166.84C348.17 167.308 347.104 168.244 345.804 168.244C344.66 168.244 343.75 167.516 343.75 165.878V157.376H340.37V166.086C340.37 169.362 342.138 171.312 345.05 171.312C346.922 171.312 348.17 170.48 349.028 169.674L350.016 171H351.966V157.376ZM356.013 171H359.393V161.562C360.147 160.652 361.057 160.314 362.487 160.314H363.189V157.064H362.487C360.693 157.064 359.601 157.974 358.951 158.728L357.963 157.376H356.013V171ZM365.941 171H369.321V161.562C369.737 161.094 370.829 160.132 372.155 160.132C373.325 160.132 374.261 160.886 374.261 162.55V171H377.641V162.342C377.641 159.04 375.847 157.064 372.909 157.064C371.011 157.064 369.737 157.896 368.879 158.728L367.891 157.376H365.941V171ZM392.98 168.244C391.238 168.244 390.432 167.256 390.432 166.112V162.264C390.432 161.12 391.238 160.132 392.98 160.132C394.67 160.132 395.502 161.094 395.502 162.264V166.112C395.502 167.282 394.67 168.244 392.98 168.244ZM392.98 171.312C396.906 171.312 398.882 169.102 398.882 166.268V162.108C398.882 159.274 396.906 157.064 392.98 157.064C389.028 157.064 387.052 159.274 387.052 162.108V166.268C387.052 169.102 389.028 171.312 392.98 171.312ZM402.663 171H406.043V160.314H408.799V157.376H406.043C406.147 156.128 406.823 155.686 408.461 155.686H409.007V152.67C408.695 152.644 408.305 152.618 408.019 152.618C404.093 152.618 402.663 154.932 402.663 157.376H400.661V160.314H402.663V171ZM411.804 171H415.184V160.314H417.94V157.376H415.184C415.288 156.128 415.964 155.686 417.602 155.686H418.148V152.67C417.836 152.644 417.446 152.618 417.16 152.618C413.234 152.618 411.804 154.932 411.804 157.376H409.802V160.314H411.804V171Z" fill="#FF592C"/>
  <path d="M202.15 171.39C205.738 171.39 208.91 169.518 208.91 165.02V164.76H205.218V165.02C205.218 167.23 203.606 168.01 201.916 168.01C199.732 168.01 198.692 166.892 198.692 165.098V158.702C198.692 156.908 199.732 155.79 201.916 155.79C203.606 155.79 205.218 156.622 205.218 158.78V159.04H208.91V158.78C208.91 154.282 205.738 152.41 202.15 152.41C197.522 152.41 195 154.828 195 158.962V164.838C195 168.972 197.522 171.39 202.15 171.39ZM216.116 171.312C218.144 171.312 219.314 170.584 220.302 169.674L221.29 171H223.24V161.744C223.24 159.014 221.42 157.064 217.676 157.064C213.932 157.064 212.19 159.014 212.19 161.692H215.492C215.492 160.808 216.142 160.132 217.676 160.132C219.184 160.132 219.86 160.808 219.86 161.978V162.836H217.052C213.36 162.836 211.54 164.448 211.54 167.256C211.54 169.934 213.672 171.312 216.116 171.312ZM216.818 168.244C215.596 168.244 214.92 167.724 214.92 166.814C214.92 166.242 215.284 165.41 217.052 165.41H219.86V166.918C219.054 167.802 218.118 168.244 216.818 168.244ZM227.176 171H230.556V161.562C230.972 161.094 232.064 160.132 233.39 160.132C234.56 160.132 235.496 160.886 235.496 162.55V171H238.876V162.342C238.876 159.04 237.082 157.064 234.144 157.064C232.246 157.064 230.972 157.896 230.114 158.728L229.126 157.376H227.176V171ZM247.966 171.312C251.242 171.312 253.556 169.362 253.556 166.164V165.982H250.176V166.242C250.176 167.438 249.396 168.244 247.966 168.244C246.302 168.244 245.574 167.464 245.574 166.32V162.056C245.574 160.912 246.302 160.132 247.966 160.132C249.396 160.132 250.176 160.938 250.176 162.16V162.316H253.556V162.16C253.556 158.91 251.346 157.064 247.966 157.064C244.482 157.064 242.194 158.988 242.194 162.108V166.268C242.194 169.388 244.482 171.312 247.966 171.312ZM262.239 171.312C265.567 171.312 267.621 169.648 267.881 166.866H264.501C264.267 167.724 263.539 168.244 262.239 168.244C260.497 168.244 259.691 167.412 259.691 166.268V165.306H267.907V162.056C267.907 158.858 265.593 157.064 262.239 157.064C258.677 157.064 256.311 158.988 256.311 162.108V166.32C256.311 169.518 258.677 171.312 262.239 171.312ZM259.691 162.732V162.056C259.691 160.912 260.497 160.132 262.109 160.132C263.669 160.132 264.527 160.886 264.527 162.056V162.732H259.691ZM271.356 171H274.736V152.67H271.356V171Z" fill="#232323"/>
</svg>
