<svg width="285" height="287" viewBox="0 0 285 287" fill="none" xmlns="http://www.w3.org/2000/svg">
  <path d="M84.8902 1.98819C86.3345 2.62675 87.2973 3.58459 88.902 2.46711C89.5439 1.98819 91.3091 2.46711 92.272 3.10567C93.8767 3.90387 95.4814 4.86171 96.9257 3.74423C98.8513 5.65991 100.617 7.41596 102.221 9.33164C104.307 11.8859 106.875 13.8016 108.159 16.9944C110.084 22.2625 112.01 27.371 112.01 33.118C112.171 39.1844 112.652 45.0911 112.973 51.1574C113.133 54.0309 112.973 57.0641 113.615 59.778C114.096 61.8533 112.973 64.2479 114.738 66.1636C115.22 66.6425 114.899 67.6003 115.059 68.3985C115.22 69.6757 115.38 70.7931 115.541 72.0703C115.701 75.4227 115.861 78.9348 116.182 82.4469C116.182 83.5644 116.182 84.8415 116.503 85.959C117.787 90.9078 116.824 95.8567 116.182 100.806C115.861 103.04 115.701 105.275 115.541 107.51C115.38 111.821 115.38 116.131 115.22 120.441C115.22 121.559 114.578 122.517 114.417 123.634C114.257 125.39 114.257 127.146 114.096 128.902C113.936 130.339 113.615 131.616 113.454 133.053C113.454 133.532 112.973 134.011 113.133 134.33C114.417 137.523 113.775 140.875 113.454 144.228C113.294 146.622 113.294 148.857 114.096 151.092C114.257 151.252 113.775 151.731 113.454 152.369C113.775 154.285 114.257 156.839 114.578 158.755C114.257 159.872 113.775 160.351 113.775 160.99C114.096 163.384 114.899 165.619 115.059 168.014C115.22 170.728 114.899 173.601 115.059 176.315C115.22 178.391 116.022 180.466 116.503 182.382C116.503 182.701 116.664 183.02 116.664 183.18C116.503 187.171 116.182 191.322 116.182 195.313C116.182 197.069 116.824 198.984 116.824 200.74C116.985 204.252 116.985 207.605 117.306 211.117C117.466 213.352 117.787 215.427 118.108 217.662C118.269 218.141 118.75 218.62 119.071 219.099C119.231 219.099 119.392 218.939 119.552 218.939C119.552 217.503 119.392 216.066 119.552 214.629C119.713 212.713 120.034 210.798 120.194 208.882C120.355 207.126 120.515 205.53 120.515 203.773C120.515 200.261 120.515 196.909 120.676 193.397C120.676 191.322 120.676 189.087 120.997 187.011C121.318 183.978 121.959 181.105 122.441 178.071C123.243 172.803 124.367 167.535 124.687 162.267C124.687 160.351 125.49 158.436 125.971 156.52C126.613 153.646 127.095 150.773 127.897 147.899C129.02 143.749 130.304 139.598 131.267 135.607C132.39 131.456 133.193 127.146 134.316 122.995C134.958 120.282 135.439 117.408 137.044 114.854C137.846 113.417 137.686 111.342 137.846 109.586C138.488 105.595 138.97 101.604 140.735 97.7723C141.056 96.9741 140.895 96.0163 141.056 95.2181C141.216 94.1006 141.537 92.9831 141.858 92.0253C142.5 90.4289 143.623 88.8325 144.105 87.0764C144.426 85.959 144.105 84.5222 143.784 83.4047C143.142 80.6908 144.265 78.2962 145.228 75.9016C146.512 72.8685 147.154 69.6757 148.277 66.4828C148.598 65.525 149.24 64.5672 149.561 63.6093C150.363 61.3744 150.684 58.8201 151.647 56.7448C152.931 53.7116 155.177 50.9977 156.301 47.8049C157.264 45.4103 158.226 43.0157 159.51 40.7808C159.992 39.8229 160.152 38.5458 160.794 37.588C161.757 35.9916 162.88 34.3952 163.843 32.7988C164.966 30.8831 166.09 28.8078 167.213 26.8921C168.176 25.2957 169.139 23.6993 170.262 22.2625C171.385 20.8257 172.508 19.5486 173.632 18.1119C175.397 16.0365 177.323 14.1208 178.767 12.0455C180.211 9.9702 182.779 9.33164 184.704 7.89488C186.309 6.61776 188.074 5.65991 189.679 4.70207C190.642 4.22315 191.926 4.06351 192.888 3.58459C194.493 2.78639 196.419 2.30747 197.703 1.18999C199.307 -0.0871347 201.073 -0.0871348 202.517 0.0725055C206.529 0.711066 210.38 1.50927 213.75 4.22315C215.034 5.18099 216.639 5.65991 217.922 6.29848C218.404 6.61776 218.885 6.93704 219.206 7.41596C222.255 10.1298 223.699 13.8016 225.946 16.9944C228.032 20.0275 228.353 23.5396 228.995 26.8921C229.476 29.127 230.118 31.2024 230.439 33.4373C230.6 36.3108 230.279 39.0247 230.439 41.8983C230.6 44.1332 231.081 46.2085 231.402 48.4435C231.563 49.2417 231.242 50.1995 231.402 51.1574C231.563 53.552 231.723 55.9466 231.883 58.3412C231.883 59.299 231.563 60.2569 231.723 61.2147C232.044 65.2057 232.686 69.0371 232.846 73.0281C233.007 74.9438 233.649 77.0191 232.525 78.9348C232.204 79.4137 232.686 80.3716 232.846 81.1698C233.328 85.48 233.809 89.7903 233.97 94.1006C234.13 97.6127 233.649 101.125 233.488 104.797C233.167 110.065 233.007 115.333 232.686 120.761C232.525 123.634 232.204 126.508 232.204 129.541C232.204 130.499 232.686 131.616 232.686 132.574C232.686 134.33 232.525 136.246 232.365 138.002C232.365 139.438 232.204 140.716 232.204 142.152C232.204 144.707 232.044 147.261 232.044 149.975C232.044 151.092 232.044 152.21 232.044 153.327C231.883 154.445 231.562 155.562 231.562 156.68C231.562 161.628 229.797 166.418 230.76 171.207C231.242 173.601 231.883 175.996 232.204 178.391C232.365 179.987 232.204 181.743 232.044 183.499C232.044 183.978 231.723 184.457 231.883 184.776C233.649 187.49 231.563 189.885 231.723 192.439C231.723 194.035 231.242 195.632 231.242 197.388C231.242 202.017 231.402 206.487 231.562 211.117C231.562 211.596 231.562 212.394 231.883 212.554C233.649 213.99 232.846 215.906 232.846 217.662C232.846 220.536 233.167 223.409 233.488 226.442C233.488 226.602 233.328 227.081 233.167 227.72C232.846 229.476 232.846 231.391 232.365 233.147C232.044 234.584 231.562 235.702 232.365 236.979C232.525 237.298 232.365 237.777 232.525 238.096C233.007 239.214 231.402 241.289 233.97 241.608C235.253 241.768 236.698 241.608 237.981 241.449C240.389 241.289 242.956 240.331 244.882 241.129C246.968 242.087 248.894 241.927 250.98 241.927C252.745 241.768 254.35 241.289 256.115 240.97C258.682 240.491 261.25 239.373 264.139 240.012C265.422 240.331 266.867 239.373 268.311 239.373C271.199 239.533 273.927 239.852 276.495 237.936C277.618 237.138 279.383 237.298 280.828 236.979C282.111 236.659 283.395 236.34 285 236.021C284.679 238.575 284.519 241.129 284.037 243.524C283.877 244.322 282.593 244.961 281.63 245.28C278.421 246.078 275.211 246.717 272.002 247.355C270.557 247.675 269.274 247.834 267.829 247.834C266.225 249.271 264.299 249.431 262.052 248.632C261.25 248.313 260.448 248.313 259.645 248.473C255.473 249.111 251.461 249.75 247.289 250.229C246.166 250.388 245.042 249.59 243.919 249.431C242.154 249.271 240.389 249.75 238.784 249.271C236.698 248.792 234.772 250.388 232.686 249.271C232.365 249.111 231.723 249.431 231.242 249.59C229.637 250.708 228.032 249.909 226.427 249.59C224.341 249.111 222.095 249.75 220.008 249.909C218.083 250.069 216.318 250.388 214.392 250.548C211.343 250.867 208.454 251.027 205.566 252.144C204.122 252.783 202.356 252.464 200.752 252.144C198.184 251.666 195.937 252.464 193.53 253.102C192.407 253.422 191.123 253.262 190 253.262C188.877 253.102 187.753 251.985 186.791 253.581C186.791 253.741 186.309 253.581 186.149 253.581C181.816 253.262 177.483 253.102 173.311 254.539C172.348 254.858 171.064 254.539 170.101 254.699C169.299 254.858 168.497 255.337 167.534 255.657C166.892 255.816 166.09 255.816 165.448 255.816C159.831 256.295 154.215 256.774 148.598 257.413C143.623 258.051 138.488 258.69 133.514 259.488C131.106 259.807 128.699 260.446 126.453 261.244C123.404 262.202 120.515 261.883 117.466 261.563C113.454 261.244 109.443 260.126 105.431 260.126C101.258 260.126 97.2466 259.328 93.0743 260.765C91.7905 261.244 89.8649 260.446 88.2601 260.286C87.6182 260.286 86.8159 260.126 86.4949 260.446C84.2483 262.042 82.0017 261.563 79.5946 261.084C77.9899 260.765 76.3851 260.126 74.9409 260.126C71.0895 260.126 67.0777 260.446 63.2263 260.605C59.375 260.765 55.3632 260.765 51.5118 260.765C49.1047 260.765 46.5372 260.605 44.1301 260.605C43.8091 260.605 43.3277 260.765 43.0068 260.925C41.5625 262.042 39.9578 262.361 38.1926 262.202C37.3902 262.202 36.7483 262.521 35.9459 262.681C32.7365 262.84 29.6875 263 26.478 263C22.3057 263 17.973 263 13.8007 262.84C12.6774 262.84 11.3936 262.521 10.2703 262.202C8.34459 261.723 6.41892 261.723 4.49324 261.883C3.04899 262.042 1.28378 260.925 0 260.446C0 258.69 0 256.934 0 255.337C0 253.422 0.641892 252.943 2.56757 253.422C7.22128 254.539 12.0355 255.018 16.8497 254.858C19.0963 254.699 19.5777 254.06 19.4172 251.666C19.2568 250.388 19.7382 248.952 19.8986 247.675C20.2196 245.759 20.3801 243.843 20.8615 241.927C21.1824 240.491 21.9848 239.214 22.4662 237.777C22.6267 237.138 22.9476 236.34 22.7872 235.702C21.5034 231.711 22.3057 227.72 23.5895 224.207C24.5524 221.334 23.75 218.46 24.3919 215.746C25.1943 211.596 25.9966 207.445 26.799 203.454C26.9595 202.975 27.1199 202.656 27.1199 202.177C27.4409 199.782 27.9223 197.388 28.0828 194.834C28.4037 192.12 28.4037 189.565 28.7247 186.852C29.0456 183.659 29.6875 180.466 29.848 177.273C30.1689 173.601 30.0084 169.93 30.0084 166.098C30.0084 165.779 29.848 165.619 30.0084 165.3C31.2922 160.83 31.2922 156.36 31.1318 151.89C31.1318 148.698 30.3294 145.345 31.9341 142.312C32.2551 141.673 31.6132 140.556 31.7736 139.758C32.2551 136.086 32.897 132.255 33.5388 128.583C33.8598 126.188 34.3412 123.634 34.6622 121.239C35.1436 117.887 35.4645 114.535 35.9459 111.342C36.5878 106.393 36.9088 101.444 37.8716 96.4952C38.5135 92.3446 39.7973 88.3536 40.5997 84.2029C41.2416 81.1697 41.8834 77.9769 42.8463 74.9438C43.6486 71.9106 44.451 68.8775 45.5743 66.0039C46.6976 63.29 46.8581 60.4165 47.6605 57.7026C48.6233 54.5098 49.7466 51.317 51.0304 48.2839C52.3142 45.2507 53.9189 42.3772 55.2027 39.1844C55.6841 37.9072 56.4865 36.4705 55.2027 35.0337C55.0422 34.8741 55.5236 33.7566 56.0051 33.2777C58.5726 30.0849 60.8192 26.8921 62.103 22.9011C62.424 22.1029 62.9054 21.4643 64.1892 20.9854C65.6334 20.5065 66.5963 18.9101 67.7196 17.6329C69.8057 15.398 71.5709 13.0034 73.8176 10.7684C73.4966 9.49128 75.1013 9.01236 76.3851 8.21416C77.8294 7.25632 79.1132 6.13883 80.5574 5.18099C80.8784 5.02135 81.3598 4.86171 81.8412 4.86171C83.6064 4.86171 85.0507 4.54243 84.8902 1.98819ZM191.123 176.794C191.444 176.794 191.605 176.954 191.926 176.954C194.012 175.357 194.012 175.357 196.419 175.836C198.986 176.315 200.912 179.029 200.431 181.424C200.27 182.541 200.27 183.659 200.11 184.936C199.949 189.087 199.789 193.237 199.468 197.228C199.147 201.06 198.024 204.891 197.863 208.882C197.542 213.352 197.863 217.662 195.937 221.813C195.777 221.972 195.777 222.292 195.777 222.611C196.419 225.485 196.419 228.358 196.098 231.391C195.777 233.786 196.098 236.34 196.098 238.894C196.098 241.289 196.9 242.885 199.147 243.364C201.073 243.684 203.159 243.364 205.084 243.684C206.689 243.843 207.492 242.566 208.775 242.406C211.022 242.087 213.269 241.927 215.515 241.768C217.12 241.608 218.725 241.768 220.329 241.768C222.736 241.768 223.86 240.65 224.02 238.256C224.02 237.617 224.181 236.979 224.341 236.34C224.502 234.903 224.662 233.467 224.823 232.03C224.983 229.316 225.144 226.602 225.304 223.888C225.304 221.334 225.465 218.78 225.144 216.385C224.983 214.629 224.02 212.873 223.86 211.117C223.699 207.605 223.699 204.093 223.699 200.581C223.699 196.909 224.181 193.237 224.181 189.725C224.181 185.415 224.341 181.105 223.699 176.954C222.897 172.005 221.774 167.216 223.218 162.267C223.378 161.948 223.218 161.628 223.218 161.309C223.378 159.872 223.539 158.276 223.699 156.839C223.86 154.924 224.181 152.848 224.181 150.933C224.181 147.101 224.02 143.429 224.02 139.598C224.02 137.044 224.181 134.649 224.181 132.095C224.181 130.818 224.341 129.7 224.341 128.423C224.341 126.987 224.341 125.39 224.502 123.953C224.662 121.08 224.823 118.366 224.983 115.492C225.144 113.257 225.625 111.182 225.785 108.947C225.946 104.956 224.983 100.806 225.785 96.6549C226.106 94.5795 226.267 92.3446 225.785 90.4289C224.823 87.3957 224.823 84.5222 224.983 81.489C225.144 78.9348 224.983 76.2209 224.983 73.6667C224.983 71.9106 225.144 69.9949 224.983 68.2389C224.823 66.0039 224.181 63.9286 224.02 61.6936C223.86 58.9798 223.86 56.1062 223.86 53.3923C223.86 51.1574 223.86 49.0821 223.86 46.8471C223.699 43.6543 223.539 40.3018 223.539 37.109C223.539 35.9916 223.699 34.7144 223.539 33.7566C223.057 30.8831 222.255 28.0096 221.613 25.136C220.971 22.2625 219.687 19.7083 217.601 17.6329C217.12 17.154 216.959 16.5155 216.639 16.0365C216.157 15.2383 215.836 14.2805 215.034 13.8016C213.269 12.6841 211.503 11.407 209.578 10.6088C206.368 9.33164 203.801 7.41596 200.431 7.41596C199.789 7.41596 199.147 7.73524 198.666 8.05452C198.024 8.3738 197.542 8.85272 196.9 9.01236C195.296 9.172 193.691 9.01236 193.049 11.0877C192.888 11.5666 192.407 12.0455 191.926 12.3648C189.519 13.6419 187.111 14.7594 184.704 16.0365C183.421 16.6751 181.976 17.3137 181.013 18.2715C179.569 19.8679 178.285 21.6239 177.002 23.5396C175.076 26.4131 173.311 29.2867 171.546 32.1602C171.064 32.9584 171.064 33.7566 170.583 34.5548C168.978 37.109 167.213 39.6633 165.769 42.2175C164.164 45.2507 162.72 48.4435 161.275 51.4767C160.152 53.7116 158.547 55.787 157.584 58.0219C156.622 60.4165 156.14 62.9708 155.338 65.3654C154.215 68.7178 153.252 72.2299 151.968 75.5823C150.042 79.8926 149.24 84.3626 148.758 89.1518C148.598 92.1849 147.475 95.2181 147.314 98.2513C147.154 101.125 145.228 103.679 145.389 106.553C145.389 106.712 145.228 106.872 145.068 107.031C144.265 109.266 143.302 111.661 142.66 113.896C142.019 115.971 141.858 118.206 141.377 120.282C140.735 123.794 139.932 127.465 139.13 130.978C138.97 132.255 138.97 133.532 138.488 134.649C137.044 138.002 136.883 141.673 135.279 144.866C134.316 146.622 134.155 148.698 133.834 150.773C133.032 154.924 131.748 159.074 131.427 163.384C131.106 167.216 130.625 170.888 130.144 174.719C129.823 176.954 129.02 179.029 129.02 181.264C129.02 184.138 127.255 186.692 128.057 189.565C128.057 189.725 127.897 189.725 127.897 189.885C127.576 192.599 126.453 195.153 126.934 198.026C127.416 200.261 126.774 202.656 126.613 205.051C126.613 206.008 126.292 207.126 126.774 207.764C127.736 209.361 126.934 210.798 126.453 212.234C126.132 213.192 125.811 214.31 125.971 215.268C126.774 219.578 126.613 223.888 125.65 228.358C125.169 230.753 124.687 233.147 124.206 235.542C123.885 237.298 124.046 239.214 123.885 240.97C123.885 242.726 123.564 244.641 123.725 246.397C123.885 248.473 124.527 250.548 125.008 252.783C127.255 253.262 129.823 253.262 132.551 252.464C134.797 251.666 137.686 252.464 140.093 252.144C141.056 251.985 142.821 250.867 142.821 250.229C142.5 247.355 145.068 244.162 141.698 241.768C141.537 241.768 141.537 241.449 141.537 241.449C141.858 239.533 142.179 237.617 142.821 235.861C142.981 235.382 144.265 235.382 144.747 234.903C145.228 234.584 145.709 233.786 145.709 233.307C145.709 231.232 145.388 228.997 145.709 226.921C146.351 221.494 146.993 216.066 147.956 210.638C148.598 207.126 149.561 203.614 150.363 200.261C150.845 198.505 151.005 196.749 151.647 194.993C152.449 192.599 153.412 190.364 154.215 188.129C154.535 187.331 155.177 186.852 155.338 186.053C156.301 183.499 156.943 180.945 158.066 178.55C159.189 176.156 160.473 173.761 161.917 171.366C162.399 170.409 163.201 169.61 164.645 170.089C167.855 171.207 168.818 172.324 168.657 175.836C168.497 178.071 168.497 180.306 168.336 182.541C168.336 183.02 168.657 183.659 168.978 183.978C169.138 184.138 170.101 183.978 170.262 183.659C171.385 182.382 172.669 181.105 173.311 179.508C174.755 176.156 177.483 173.761 179.73 171.207C181.014 169.77 182.618 168.333 183.742 166.897C184.704 165.619 186.309 165.141 187.593 165.939C188.877 166.577 189.84 167.375 190.802 168.653C191.765 170.249 192.247 171.366 191.605 173.123C191.284 174.08 191.284 175.517 191.123 176.794ZM113.775 252.464C113.454 251.666 113.294 251.187 113.133 250.708C112.652 249.431 112.01 248.313 111.368 247.036C111.208 246.717 111.368 246.238 111.208 246.078C109.443 244.322 110.245 242.247 110.084 240.171C109.924 237.138 110.245 234.105 110.245 231.072C110.405 226.762 108.801 222.451 110.084 218.141C110.084 217.981 109.924 217.822 109.924 217.662C109.764 215.427 109.603 213.192 109.603 210.957C109.443 208.243 109.603 205.53 109.282 202.816C108.961 199.463 107.677 196.111 108.159 192.918C108.961 187.49 106.875 182.382 107.356 177.114C107.677 174.08 107.196 171.047 106.715 168.174C106.073 164.502 105.591 160.99 105.752 157.159C105.752 155.402 105.591 153.806 105.431 152.05C105.27 149.815 104.789 147.58 104.789 145.345C104.789 143.908 105.431 142.472 105.591 141.194C105.752 137.363 105.752 133.532 105.912 129.86C106.073 127.306 105.752 124.592 106.554 122.197C107.517 119.483 107.356 116.929 107.517 114.215C107.677 110.544 107.838 106.872 108.159 103.2C108.48 98.4109 109.282 93.6217 108.319 88.8325C107.998 86.7572 107.196 84.6818 107.677 82.7662C108.319 79.2541 107.998 76.0613 107.196 72.7088C107.035 72.2299 107.035 71.751 107.035 71.2721C107.035 69.3564 107.196 67.4407 107.035 65.6846C106.715 61.6936 106.073 57.7026 105.752 53.552C105.431 50.3592 105.431 47.1664 105.27 43.9736C105.11 40.9404 104.628 37.9072 105.11 35.0337C105.431 32.1602 104.789 29.4463 104.147 26.7324C103.345 23.6993 101.579 20.9854 100.135 18.2715C99.9747 17.9522 99.8142 17.7926 99.4932 17.4733C97.4071 15.5576 95.1605 13.8016 93.2348 12.0455C90.6672 9.65092 86.6554 9.49128 83.9274 11.407C83.125 12.0455 82.0017 12.5244 81.0388 12.6841C78.6318 13.3226 76.8665 14.919 75.1013 16.6751C73.1757 18.5908 71.5709 20.8257 69.8057 22.9011C68.0405 24.9764 65.9544 26.8921 65.3125 29.7656C65.3125 30.0849 64.9915 30.2445 64.8311 30.4042C64.3497 31.0427 64.0287 31.6813 63.7078 32.4795C63.3868 33.2777 63.2263 34.0759 62.9054 34.7144C60.8192 39.0247 57.4493 42.6965 56.4865 47.6453C56.326 48.7628 55.5236 49.7206 55.2027 50.6785C54.8818 51.6363 54.4003 52.5941 54.0794 53.552C53.9189 54.1906 54.0794 54.8291 53.9189 55.4677C53.1165 57.8623 51.8328 60.0972 51.1909 62.4918C50.7095 64.2479 50.549 66.1636 49.9071 68.0793C48.7838 70.9528 47.9814 74.1456 47.1791 77.1787C46.6976 79.0944 46.3767 81.0101 45.8953 82.7662C45.7348 83.724 45.5743 84.8415 45.4139 85.7993C45.0929 86.9168 44.772 88.1939 44.451 89.3114C43.8091 92.1849 43.3277 95.0585 42.6858 97.932C42.3649 99.8477 41.723 101.763 41.723 103.839C41.5625 107.191 41.5625 110.703 41.402 114.056C41.402 114.215 41.402 114.375 41.402 114.375C40.9206 117.248 40.2787 119.962 39.7973 122.836C39.4764 124.752 38.674 126.667 38.674 128.423C38.8345 132.734 36.5878 136.725 37.3902 141.354C38.0321 145.185 36.2669 149.017 36.9088 153.008C37.0693 153.806 36.7483 154.604 36.7483 155.402C36.5878 157.797 36.2669 160.192 36.1064 162.586C35.9459 164.502 36.1064 166.577 35.9459 168.493C35.7855 170.089 35.4645 171.526 35.3041 173.123C35.1436 175.358 34.8226 177.592 34.6622 179.987C34.6622 180.945 34.8226 181.903 34.8226 182.861C34.8226 183.978 34.9831 185.255 34.8226 186.373C34.5017 188.608 33.6993 191.002 33.3784 193.237C33.0574 194.674 33.2179 196.27 33.0574 197.707C32.576 200.74 31.6132 203.773 31.2922 206.807C30.9713 209.999 31.4527 213.352 30.8108 216.704C30.3294 219.418 30.0084 222.292 29.6875 225.006C29.3666 227.56 29.2061 229.954 29.2061 232.509C29.2061 233.626 29.6875 234.903 29.3666 236.021C28.7247 239.852 27.9223 243.524 27.1199 247.196C26.9595 247.994 26.799 248.632 26.6385 249.431C26.478 250.708 25.9966 251.825 26.1571 253.102C26.3176 253.741 27.4409 254.539 28.2432 254.539C30.1689 254.539 32.2551 254.22 34.3412 254.22C37.2297 254.06 38.5135 252.783 37.8716 250.548C36.7483 247.036 35.9459 243.364 36.2669 239.693C36.5878 234.584 37.3902 229.476 37.3902 224.527C37.3902 219.259 38.5135 214.31 39.7973 209.201C40.2787 207.764 40.1182 206.008 40.4392 204.572C40.9206 202.337 41.723 200.261 42.3649 198.026C42.8463 196.27 43.1672 194.514 43.6486 192.758C44.1301 190.843 44.6115 188.927 45.4139 187.171C46.2162 185.096 47.6605 183.34 48.6233 181.264C49.4257 179.508 49.9071 177.433 50.8699 175.677C51.3513 174.719 52.4747 173.761 53.4375 173.442C54.7213 173.123 56.1655 173.123 57.2888 174.559C58.4122 175.836 57.9307 177.273 58.4122 178.55C59.6959 182.062 59.6959 185.734 59.6959 189.406C59.6959 190.523 59.8564 191.481 60.0169 193.078C60.4983 192.279 60.6588 191.96 60.8193 191.481C61.1402 191.641 61.4611 191.96 61.7821 192.12C64.3497 186.692 66.7567 181.424 69.3243 176.315C70.7686 176.475 72.0524 176.315 73.1757 176.635C75.1013 177.114 75.9037 178.55 76.2247 180.626C76.8666 183.818 78.1503 186.692 77.8294 190.044C77.8294 191.162 77.9899 193.397 80.2365 193.397C81.0388 191.96 81.6807 190.364 82.4831 188.927C82.804 188.448 83.4459 188.129 83.9274 187.969C86.6554 187.65 89.3834 189.885 89.5439 192.599C89.5439 193.716 90.0253 194.834 90.0253 195.951C90.1858 196.749 90.3463 197.707 90.0253 198.186C88.902 199.304 89.223 200.421 89.3834 201.698C89.5439 202.656 89.3834 203.773 89.223 204.731C89.0625 206.966 88.2601 209.201 88.7415 211.277C89.7044 215.427 89.223 219.578 88.902 223.569C88.7415 226.602 88.2601 229.476 87.9392 232.509C87.7787 233.786 88.2601 235.063 88.2601 236.34C87.9392 238.735 87.4578 241.129 87.1368 243.524C86.8159 245.44 86.4949 247.355 86.174 249.271C86.6554 249.59 87.2973 250.069 87.7787 250.708C89.3834 252.783 91.6301 252.943 93.7162 252.304C97.5676 251.027 101.419 251.666 105.27 252.144C107.517 252.464 109.764 252.464 112.01 252.623C112.331 252.943 112.973 252.623 113.775 252.464ZM159.029 195.153C158.066 197.547 157.103 199.304 156.622 201.219C155.98 203.295 155.819 205.37 155.338 207.445C154.696 210.798 154.054 213.99 153.412 217.343C153.252 218.301 153.412 219.418 153.412 220.376C153.252 222.771 152.61 225.006 152.77 227.4C153.091 230.274 153.733 233.307 154.696 236.021C155.819 238.894 154.375 241.449 154.375 244.162C154.375 245.12 153.091 245.919 152.449 247.036C152.128 247.515 151.968 248.153 151.968 248.632C152.128 248.952 152.77 249.271 153.252 249.431C154.375 249.59 155.498 249.431 156.622 249.75C159.189 250.388 160.794 248.153 163.041 247.994V247.675C163.361 247.355 163.682 247.036 164.003 247.036C166.571 246.717 169.139 246.717 171.546 246.238C172.99 246.078 174.434 245.12 175.878 245.12C179.088 245.12 182.297 245.44 185.507 245.44C186.149 245.44 187.111 244.801 187.272 244.162C187.593 242.726 187.753 241.129 187.753 239.693C188.074 235.223 188.235 230.753 188.556 226.283C188.716 223.888 188.877 221.334 189.198 218.939C189.679 215.746 190.321 212.554 190.642 209.361C190.963 206.168 190.963 202.816 191.284 199.623C191.444 198.346 191.444 197.388 190.321 197.069C189.037 199.304 187.914 201.698 186.63 203.773C185.667 205.53 183.421 205.53 182.297 203.933C181.174 202.337 180.372 200.581 180.853 198.505C181.174 196.909 181.334 194.993 181.013 193.397C180.532 190.204 181.174 187.011 181.816 183.818C181.976 182.861 181.976 181.743 182.137 180.626C181.976 180.626 181.816 180.466 181.655 180.466C180.693 181.583 179.569 182.541 178.606 183.818C178.285 184.297 178.285 185.255 177.965 185.734C176.52 188.129 175.076 190.523 173.632 192.918C173.471 193.237 173.311 193.716 173.15 194.195C172.829 195.313 172.669 196.59 172.187 197.707C170.743 201.06 169.299 204.252 167.855 207.445C167.052 209.201 166.09 209.68 164.164 208.882C161.917 207.924 160.794 206.008 160.633 203.454C160.473 201.06 159.992 198.825 159.671 196.43C159.831 196.111 159.51 195.791 159.029 195.153ZM51.1909 191.641C50.3885 194.355 49.7466 196.27 49.1047 198.346C48.4628 200.261 47.6605 202.177 47.1791 204.093C46.8581 205.689 47.0186 207.445 46.6976 209.201C46.2162 211.915 43.8091 214.31 45.2534 217.503C45.4139 217.662 45.0929 217.981 45.0929 218.301C44.6115 221.334 43.8091 224.367 43.6486 227.4C43.4882 231.232 43.6486 235.223 43.6486 239.054C43.6486 240.491 43.9696 242.087 44.1301 243.524C44.1301 244.162 44.1301 244.801 44.1301 245.28C44.451 247.036 44.9324 248.632 44.9324 250.229C45.0929 251.825 45.8953 253.102 47.5 253.422C49.4257 253.741 51.1909 253.422 53.1165 253.262C56.1655 252.943 59.375 253.102 62.424 252.943C63.2263 252.943 64.0287 252.943 64.6706 252.943C68.0405 252.943 71.5709 252.623 74.9409 252.783C76.8665 252.783 78.6318 252.144 78.7922 250.548C78.7922 250.069 78.3108 249.431 78.3108 248.792C78.7922 245.44 78.3108 241.927 79.7551 238.735C79.9155 238.256 80.076 237.777 80.076 237.298C80.2365 234.903 80.397 232.349 80.5574 229.954C80.8784 226.602 81.3598 223.09 81.3598 219.737C81.3598 218.62 80.7179 217.503 80.397 216.545C80.2365 216.545 80.076 216.704 79.9155 216.704C80.076 218.78 76.2247 223.569 74.1385 224.048C73.6571 224.207 72.6943 224.048 72.3733 223.569C71.5709 222.451 70.6081 221.015 70.6081 219.737C70.4476 216.545 70.929 213.192 70.929 209.999C70.929 208.243 70.6081 206.647 70.4476 204.891C70.2872 203.295 70.2872 201.698 70.2872 199.942C70.2872 197.228 70.2872 194.674 70.2872 191.96C70.1267 191.96 69.8057 191.8 69.6453 191.8C69.0034 192.758 68.3615 193.716 67.8801 194.834C67.2382 196.43 66.7568 198.186 66.2753 199.942C65.6334 202.017 64.6706 204.093 64.1892 206.328C63.7078 209.361 63.7078 212.394 63.0659 215.427C62.5845 218.141 61.4611 220.695 60.4983 223.25C60.0169 224.367 56.647 224.846 56.1655 223.888C55.2027 221.972 54.4003 220.057 54.0794 218.141C53.7584 215.268 54.0794 212.394 53.9189 209.521C53.4375 204.252 52.6351 198.984 51.9932 193.716C52.4747 192.918 51.8328 192.439 51.1909 191.641Z" fill="#232323"/>
</svg>
