<svg width="40" height="40" viewBox="0 0 40 40" fill="none" xmlns="http://www.w3.org/2000/svg">
  <path d="M22.3184 30.9091C22.3184 26.0944 26.0945 22.3182 30.9093 22.3182C35.724 22.3182 39.5002 26.0944 39.5002 30.9091C39.5002 35.7239 35.724 39.5001 30.9093 39.5001C26.0945 39.5001 22.3184 35.7239 22.3184 30.9091Z" stroke="#FF592C"/>
  <path d="M17.6818 9.09091C17.6818 13.9057 13.9057 17.6818 9.09092 17.6818C4.27615 17.6818 0.500013 13.9057 0.500008 9.09091C0.500004 4.27614 4.27614 0.5 9.0909 0.5C13.9057 0.5 17.6818 4.27614 17.6818 9.09091Z" stroke="#FF592C"/>
  <path d="M9.34602 21.7307C9.34602 21.4546 9.12216 21.2307 8.84602 21.2307C8.56988 21.2307 8.34602 21.4546 8.34602 21.7307L9.34602 21.7307ZM7.97976 25.459C7.36919 32.0138 12.0585 37.6503 18.6265 38.2621L18.7192 37.2664C12.6988 36.7056 8.41632 31.5543 8.97544 25.5517L7.97976 25.459ZM8.34602 21.7307C8.34602 22.0032 8.29263 22.5446 8.21649 23.2383C8.14214 23.9156 8.04919 24.7136 7.97976 25.459L8.97544 25.5517C9.04386 24.8172 9.13512 24.0342 9.21052 23.3474C9.28412 22.6769 9.34602 22.071 9.34602 21.7307L8.34602 21.7307Z" fill="#FF592C"/>
  <path d="M9.12047 22.0685C9.29461 21.8542 9.26203 21.5393 9.04771 21.3652C8.83339 21.191 8.51849 21.2236 8.34436 21.4379L9.12047 22.0685ZM8.34436 21.4379L2.36997 28.791L3.14609 29.4216L9.12047 22.0685L8.34436 21.4379Z" fill="#FF592C"/>
  <path d="M22.3182 30.9091C22.3182 26.0943 26.0943 22.3182 30.9091 22.3182C35.7238 22.3182 39.5 26.0943 39.5 30.9091C39.5 35.7239 35.7239 39.5 30.9091 39.5C26.0943 39.5 22.3182 35.7239 22.3182 30.9091Z" stroke="#FF592C"/>
  <path d="M30.654 18.2693C30.654 18.5454 30.8778 18.7693 31.154 18.7693C31.4301 18.7693 31.654 18.5454 31.654 18.2693L30.654 18.2693ZM32.0202 14.541C32.6308 7.98621 27.9415 2.34967 21.3735 1.73787L21.2808 2.73356C27.3012 3.29435 31.5837 8.44568 31.0246 14.4483L32.0202 14.541ZM31.654 18.2693C31.654 17.9968 31.7074 17.4554 31.7835 16.7617C31.8579 16.0844 31.9508 15.2864 32.0202 14.541L31.0246 14.4483C30.9561 15.1828 30.8649 15.9658 30.7895 16.6526C30.7159 17.3231 30.654 17.929 30.654 18.2693L31.654 18.2693Z" fill="#FF592C"/>
  <path d="M30.8795 17.9315C30.7054 18.1458 30.738 18.4607 30.9523 18.6348C31.1666 18.809 31.4815 18.7764 31.6556 18.5621L30.8795 17.9315ZM31.6556 18.5621L37.63 11.209L36.8539 10.5784L30.8795 17.9315L31.6556 18.5621Z" fill="#FF592C"/>
</svg>
