<svg width="375" height="291" viewBox="0 0 375 291" fill="none" xmlns="http://www.w3.org/2000/svg">
  <g clip-path="url(#clip0)">
    <path d="M32.1576 66.2435C22.2884 62.3106 14.5697 51.6249 19.2449 39.9048C25.7929 23.4897 44.5654 20.1081 63.0755 26.9423C84.5158 34.8538 89.414 51.0214 102.463 49.706C118.942 48.0405 148.694 -3.47103 183.899 1.18135C207.252 4.2732 214.626 20.3631 228.722 25.9806C242.349 31.4112 265.262 21.1058 302.847 36.0833C341.846 51.6247 350.336 76.7432 344.161 92.2227C337.986 107.702 329.555 108.539 327.546 118.39C325.278 129.523 330.715 130.284 329.648 142.518C328.279 158.106 309.774 163.943 297.326 154.646C282.739 143.753 277.693 135.709 245.682 131.978C228.552 129.98 217.528 131.591 194.508 122.417C171.489 113.244 170.335 100.777 149.872 97.4015C128.929 93.9445 105.862 118.986 86.6008 111.311C67.3398 103.635 79.0917 80.4794 65.9376 72.9284C56.6282 67.5922 50.0123 73.3587 32.1576 66.2435Z" fill="#F4EEE7"/>
    <path d="M44.2705 99.1685C47.7223 99.1685 50.5205 96.3717 50.5205 92.9217C50.5205 89.4716 47.7223 86.6748 44.2705 86.6748C40.8187 86.6748 38.0205 89.4716 38.0205 92.9217C38.0205 96.3717 40.8187 99.1685 44.2705 99.1685Z" fill="#FF2100"/>
    <path fill-rule="evenodd" clip-rule="evenodd" d="M3.03069 135.615C-1.72612 150.105 7.04867 163.193 8.91821 169.945C12.2133 181.847 3.90959 190.879 11.3819 203.233C15.6632 210.31 23.1271 212.389 31.518 211.893C45.744 211.051 56.3199 202.003 66.1851 202.849C82.1287 204.215 86.7186 220.185 104.452 218.239C116.973 216.864 118.926 202.629 129.383 199.077C134.45 197.356 142.215 198.816 153.256 198.825C165.649 198.836 184.698 185.54 183.309 164.497C182.342 149.846 170.59 137.6 152.002 133.206C135.896 129.399 112.872 134.162 101.336 137.577C84.217 142.645 70.0167 131.879 57.8306 126.351C35.4147 116.184 8.9506 117.581 3.03069 135.615Z" fill="#232323"/>
    <path d="M66.9268 268.344C66.9268 257.963 80.64 245.19 95.6717 245.19C110.703 245.19 120.052 251.648 120.052 264.298C120.052 276.949 111.539 291 99.1094 291C86.6795 291 85.0503 286.087 80.64 281.788C76.4104 277.665 66.9268 278.725 66.9268 268.344Z" fill="#FF592C"/>
    <path d="M125 240.199C125 227.809 140.363 218.414 145.142 216.57C149.921 214.726 167.532 209.289 175.058 217.889C178.598 221.934 179.257 231.354 177.21 240.199C175.163 249.044 168.952 259.518 159.423 259.518C137.269 259.518 125 252.589 125 240.199Z" fill="#5835FF"/>
    <path d="M62.2167 239.203C62.2167 251.853 46.6891 262.108 33.4066 262.108C20.1241 262.108 8.9992 245.841 8.85544 232.045C8.71169 218.25 24.884 216.298 38.1665 216.298C51.449 216.298 62.2167 226.553 62.2167 239.203Z" fill="#EADDCF"/>
  </g>
  <defs>
    <clipPath id="clip0">
      <rect width="375" height="291" fill="white"/>
    </clipPath>
  </defs>
</svg>
