<svg width="1440" height="1118" viewBox="0 0 1440 1118" fill="none" xmlns="http://www.w3.org/2000/svg">
  <g clip-path="url(#clip0)">
    <path d="M93.4848 254.503C55.5872 239.393 25.9474 198.34 43.9001 153.312C69.0444 90.2465 141.131 77.2546 212.21 103.511C294.541 133.907 313.35 196.021 363.458 190.968C426.736 184.569 540.986 -13.3345 676.172 4.5396C765.847 16.4182 794.162 78.2345 848.292 99.8162C900.622 120.68 988.606 81.088 1132.93 138.63C1282.69 198.339 1315.29 294.842 1291.58 354.314C1267.87 413.785 1235.49 416.998 1227.78 454.846C1219.07 497.619 1239.95 500.541 1235.85 547.544C1230.59 607.43 1159.53 629.858 1111.73 594.138C1055.72 552.288 1036.34 521.383 913.417 507.049C847.639 499.375 805.306 505.562 716.912 470.319C628.517 435.076 624.088 387.18 545.51 374.21C465.086 360.928 376.509 457.137 302.547 427.648C228.585 398.159 273.712 309.196 223.2 280.186C187.452 259.685 162.047 281.839 93.4848 254.503Z" fill="#F4EEE7"/>
    <path d="M140 381C153.255 381 164 370.255 164 357C164 343.745 153.255 333 140 333C126.745 333 116 343.745 116 357C116 370.255 126.745 381 140 381Z" fill="#FF2100"/>
    <path fill-rule="evenodd" clip-rule="evenodd" d="M6.01838 533.462C-11.5868 587.119 20.8891 635.581 27.8084 660.584C40.0036 704.654 9.27124 738.102 36.9266 783.844C52.7719 810.052 80.3961 817.75 111.451 815.911C164.102 812.794 203.244 779.29 239.755 782.422C298.764 787.483 315.751 846.618 381.384 839.41C427.724 834.321 434.951 781.61 473.655 768.457C492.406 762.085 521.146 767.488 562.01 767.523C607.874 767.563 678.375 718.33 673.235 640.409C669.656 586.16 626.162 540.813 557.367 524.544C497.757 510.447 412.545 528.083 369.85 540.728C306.492 559.494 253.936 519.628 208.835 499.161C125.873 461.513 27.9282 466.686 6.01838 533.462Z" fill="#232323"/>
    <path d="M227 1030.96C227 991.073 279.659 942 337.38 942C395.102 942 431 966.813 431 1015.41C431 1064.02 398.312 1118 350.581 1118C302.85 1118 296.594 1099.12 279.659 1082.61C263.417 1066.77 227 1070.84 227 1030.96Z" fill="#FF592C"/>
    <path d="M450 922.825C450 875.223 508.994 839.13 527.344 832.046C545.695 824.962 613.322 804.072 642.224 837.112C655.816 852.651 658.348 888.843 650.488 922.825C642.627 956.807 618.777 997.046 582.186 997.046C497.112 997.046 450 970.428 450 922.825Z" fill="#5835FF"/>
    <path d="M208.911 919C208.911 967.601 149.285 1007 98.2801 1007C47.2753 1007 4.55567 944.501 4.00365 891.5C3.45164 838.499 65.5534 831 116.558 831C167.563 831 208.911 870.399 208.911 919Z" fill="#EADDCF"/>
  </g>
  <defs>
    <clipPath id="clip0">
      <rect width="1440" height="1118" fill="white"/>
    </clipPath>
  </defs>
</svg>
