<svg width="720" height="241" viewBox="0 0 720 241" fill="none" xmlns="http://www.w3.org/2000/svg">
  <path d="M575 150C577.209 150 579 148.209 579 146C579 143.791 577.209 142 575 142C572.791 142 571 143.791 571 146C571 148.209 572.791 150 575 150Z" stroke="#FBFBFB" stroke-width="2" stroke-miterlimit="10"/>
  <path d="M627 219.572V220.437C614.785 220.437 607.646 227.833 607.646 240H606.426C606.426 227.782 599.108 220.437 587 220.437V219.572C599.108 219.572 606.428 212.162 606.428 200H607.646C607.644 212.162 614.783 219.572 627 219.572Z" stroke="#FBFBFB" stroke-width="2" stroke-miterlimit="10"/>
  <path d="M452 113C454.209 113 456 111.209 456 109C456 106.791 454.209 105 452 105C449.791 105 448 106.791 448 109C448 111.209 449.791 113 452 113Z" fill="#FBFBFB"/>
</svg>
