<svg width="720" height="290" viewBox="0 0 720 290" fill="none" xmlns="http://www.w3.org/2000/svg">
  <g clip-path="url(#clip0)">
    <path d="M67.2617 118.775L95.4002 149.965" stroke="#FBFBFB" stroke-width="2" stroke-miterlimit="10"/>
    <path d="M99.2875 150.086C98.2605 148.947 96.5051 148.857 95.3668 149.884C94.2285 150.911 94.1383 152.667 95.1654 153.805L103.018 162.508C104.045 163.647 105.801 163.737 106.939 162.71C108.078 161.683 108.168 159.927 107.141 158.789L99.2875 150.086Z" stroke="#FBFBFB" stroke-width="2" stroke-miterlimit="10"/>
    <path d="M64.7178 144.174L92.7865 118.851" stroke="#FBFBFB" stroke-width="2" stroke-miterlimit="10"/>
    <path d="M61 131.783L78.8377 131.461L80.9455 114.001" stroke="#FBFBFB" stroke-width="2" stroke-miterlimit="10"/>
    <path d="M229.606 66.9179C229.606 66.9179 223.224 43.7814 200.212 49.9473C223.395 43.7357 217.183 20.5535 217.183 20.5535C217.183 20.5535 222.201 44.0554 246.577 37.524C222.156 43.8849 229.606 66.9179 229.606 66.9179Z" fill="#FBFBFB"/>
    <path d="M321.427 191.017C344.001 186.655 348.637 205.831 369.616 197.037C391.282 187.956 383.375 160.906 411.14 153.096" stroke="#FBFBFB" stroke-width="2" stroke-miterlimit="10"/>
    <path d="M369.75 249.881C369.75 249.881 360.787 232.435 376.888 212.353C392.539 192.84 430.541 190.394 413.566 139.014" stroke="#FBFBFB" stroke-width="2" stroke-miterlimit="10"/>
    <path d="M408.369 144.11C408.369 144.11 379.558 168.572 345.809 158.166C299.738 143.955 288.679 101.157 224.278 117.287C217.964 101.882 251.637 57.5703 292.4 69.1306C346.341 84.4291 351.907 149.511 402.455 132.708" stroke="#FBFBFB" stroke-width="2" stroke-miterlimit="10"/>
    <path d="M246.93 96.9948C246.93 96.9948 270.131 82.4005 295.156 94.1597C324.655 108.021 340.185 155.233 395.792 142.42" stroke="#FBFBFB" stroke-width="2" stroke-miterlimit="10"/>
  </g>
  <defs>
    <clipPath id="clip0">
      <rect width="533" height="250" fill="white"/>
    </clipPath>
  </defs>
</svg>
