<svg width="720" height="689" viewBox="0 0 720 689" fill="none" xmlns="http://www.w3.org/2000/svg">
  <g clip-path="url(#clip0)">
    <path d="M643.691 59.3926L596.906 101.6" stroke="#FBFBFB" stroke-width="2" stroke-miterlimit="10"/>
    <path d="M596.726 107.432C598.433 105.891 598.569 103.258 597.028 101.551C595.487 99.8432 592.854 99.7079 591.147 101.249L578.092 113.028C576.384 114.569 576.249 117.202 577.79 118.909C579.33 120.617 581.963 120.752 583.671 119.211L596.726 107.432Z" stroke="#FBFBFB" stroke-width="2" stroke-miterlimit="10"/>
    <path d="M605.594 55.5762L643.578 97.6792" stroke="#FBFBFB" stroke-width="2" stroke-miterlimit="10"/>
    <path d="M624.18 50L624.663 76.7566L650.854 79.9182" stroke="#FBFBFB" stroke-width="2" stroke-miterlimit="10"/>
    <path d="M341.456 353.062C341.456 353.062 419.228 329.549 456.548 247.928C496.003 161.649 469.273 110.504 469.273 110.504" stroke="#FBFBFB" stroke-width="2" stroke-miterlimit="10"/>
    <path d="M457.857 55.8031C445.148 58.4045 438.963 34.9127 416.5 39.978C405.393 42.4802 399.524 53.2857 402.896 68.3719C406.132 82.863 414.98 95.4666 427.494 103.41C440.008 111.354 455.162 113.987 469.624 110.73C484.085 107.473 496.669 98.5928 504.606 86.043C512.544 73.4932 515.185 58.3018 511.95 43.8107C509.421 32.4924 498.23 22.9839 485.602 25.8659C468.477 29.7633 470.213 53.2877 457.857 55.8031Z" stroke="#FBFBFB" stroke-width="2" stroke-miterlimit="10"/>
    <path d="M512.994 52.9961C512.994 52.9961 490.788 73.5392 463.682 79.0613C439.07 84.0748 405.835 73.5597 405.835 73.5597" stroke="#FBFBFB" stroke-width="2" stroke-miterlimit="10"/>
    <path d="M457.293 56.0737L446.165 9.97416" stroke="#FBFBFB" stroke-width="2" stroke-miterlimit="10"/>
    <path d="M459.452 55.4857L469.306 11.5664" stroke="#FBFBFB" stroke-width="2" stroke-miterlimit="10"/>
    <path d="M425.561 21.1296L454.55 54.5011" stroke="#FBFBFB" stroke-width="2" stroke-miterlimit="10"/>
    <path d="M451.189 258.85C451.189 258.85 465.196 185.4 418.351 158.402" stroke="#FBFBFB" stroke-width="2" stroke-miterlimit="10"/>
    <path d="M393.769 125.355C395.458 126.334 396.938 127.629 398.127 129.168C400.685 132.48 404.365 134.832 408.539 135.339C410.997 135.642 413.343 136.541 415.368 137.958C417.394 139.374 419.037 141.263 420.151 143.456C421.264 145.65 421.814 148.08 421.751 150.53C421.688 152.98 421.014 155.374 419.789 157.499C418.565 159.624 416.827 161.415 414.731 162.71C412.636 164.006 410.247 164.767 407.778 164.926C405.309 165.085 402.836 164.636 400.579 163.62C398.323 162.604 396.353 161.053 394.844 159.103C392.241 155.718 388.395 153.485 384.146 152.891C380.243 152.332 376.711 150.282 374.307 147.18C371.749 143.865 368.068 141.516 363.895 141.006C361.436 140.705 359.088 139.806 357.059 138.39C355.031 136.974 353.386 135.085 352.271 132.89C351.156 130.695 350.605 128.264 350.668 125.812C350.73 123.36 351.405 120.964 352.63 118.838C353.856 116.711 355.595 114.92 357.692 113.624C359.79 112.328 362.18 111.567 364.651 111.409C367.122 111.252 369.597 111.702 371.854 112.72C374.112 113.738 376.082 115.293 377.589 117.245C380.194 120.629 384.04 122.861 388.288 123.454C390.222 123.726 392.084 124.372 393.769 125.355V125.355Z" stroke="#FBFBFB" stroke-width="2" stroke-miterlimit="10"/>
    <path d="M621.631 458.665C629.156 455.689 635.427 449.787 639.959 441.178C636.911 450.438 637.02 459.059 640.119 466.537C643.593 474.92 650.763 481.721 661.114 486.346L660.966 486.7C650.418 482.418 640.522 482.062 632.076 485.453C624.454 488.512 618.127 494.576 613.602 503.315C616.71 493.986 616.652 485.229 613.55 477.628C610.112 469.205 602.992 462.342 592.621 457.727L592.762 457.41C603.293 461.601 613.181 462.007 621.631 458.665Z" stroke="#FBFBFB" stroke-width="2" stroke-miterlimit="10" stroke-linecap="round" stroke-linejoin="round"/>
    <path d="M546.394 445.537C547.741 447.188 549.53 448.443 551.685 449.276C549.389 449.632 547.365 450.485 545.691 451.82C544.109 453.08 542.881 454.737 542.036 456.729C541.634 454.62 540.793 452.75 539.53 451.183C538.165 449.489 536.345 448.194 534.146 447.333C536.461 446.991 538.51 446.151 540.208 444.819C541.789 443.578 543.023 441.944 543.875 439.968C544.273 442.097 545.118 443.973 546.394 445.537Z" fill="#FBFBFB" stroke="#FBFBFB" stroke-width="2" stroke-miterlimit="10" stroke-linecap="round" stroke-linejoin="round"/>
    <path d="M298.305 407.088C298.305 407.088 357.798 374.285 424.102 405.297C480.198 431.578 484.739 494.606 519.773 525.925C551.375 554.254 597.696 535.701 613.555 504.375" stroke="#FBFBFB" stroke-width="2" stroke-miterlimit="10" stroke-linecap="round" stroke-linejoin="round"/>
    <path d="M305.975 416.898C305.975 416.898 369.693 396.246 412.45 435.918C447.707 468.62 454.855 529.227 493.916 559.944C542.423 598.124 597.646 587.339 597.646 587.339C597.646 587.339 542.569 675.618 471.095 634.02C416.013 601.927 407.385 515.157 382.142 478.243C353.097 435.848 326.348 453.062 326.348 453.062" stroke="#FBFBFB" stroke-width="2" stroke-miterlimit="10" stroke-linecap="round" stroke-linejoin="round"/>
    <path d="M323.454 369.418C323.454 369.418 360.756 349.514 395.354 349.476C460.801 349.369 491.049 387.274 515.021 372.181C550.527 349.795 558.769 287.188 593.11 280.069C616.78 275.15 643.538 301.365 624.371 333.443C607.033 362.427 571.111 367.022 571.111 367.022C571.111 367.022 591.189 394.062 562.045 412.943C530.678 433.234 508.126 402.506 508.126 402.506C508.126 402.506 492.378 419.795 468.906 416.185C447.431 412.88 430.419 382.683 390.977 380.607C334.516 377.637 293.455 406.09 293.455 406.09" stroke="#FBFBFB" stroke-width="2" stroke-miterlimit="10" stroke-linecap="round" stroke-linejoin="round"/>
    <path d="M498.119 497.633C519.795 525.678 549.234 520.288 554.26 502.291C557.971 489.004 536.901 476.975 542.201 456.361" stroke="#FBFBFB" stroke-width="2" stroke-miterlimit="10" stroke-linecap="round" stroke-linejoin="round"/>
    <path d="M358.272 430.234C358.272 430.234 387.281 434.933 405.909 463.346C424.503 491.699 447.644 558.144 468.805 582.033C492.224 608.381 518.469 604.791 518.469 604.791" stroke="#FBFBFB" stroke-width="2" stroke-miterlimit="10" stroke-linecap="round" stroke-linejoin="round"/>
  </g>
  <defs>
    <clipPath id="clip0">
      <rect width="435" height="683" fill="white" transform="translate(285 6)"/>
    </clipPath>
  </defs>
</svg>
