<svg width="720" height="620" viewBox="0 0 720 620" fill="none" xmlns="http://www.w3.org/2000/svg">
  <g clip-path="url(#clip0)">
    <path d="M125 105.572V106.437C112.785 106.437 105.646 113.833 105.646 126H104.426C104.426 113.782 97.1084 106.437 85 106.437V105.572C97.1084 105.572 104.428 98.1623 104.428 86H105.646C105.644 98.1623 112.783 105.572 125 105.572Z" stroke="#FBFBFB" stroke-width="2" stroke-miterlimit="10"/>
    <path d="M269.546 243.287C269.546 243.287 262.799 257.251 276.609 264.05C262.696 257.2 255.847 271.113 255.847 271.113C255.847 271.113 263.412 257.553 248.783 250.351C263.362 257.655 269.546 243.287 269.546 243.287Z" stroke="#FBFBFB" stroke-width="2"/>
    <path d="M493.706 417.73C493.706 417.73 476.188 457.545 429.145 458.94C387.863 460.12 356.001 434.91 334.004 445.584C307.304 458.557 313.175 514.947 269.149 516.562C237.48 517.712 203.111 478.098 167.609 477.361C140.707 476.84 134.182 512.915 102.104 520.487C79.1197 525.913 40.6241 509.342 46.6237 470.404C53.5991 425.101 105.257 402.391 162.949 418.814C220.641 435.237 255.182 459.386 295.731 406.949C350.318 336.274 408.676 412.403 437.411 400.284C466.146 388.015 493.706 417.73 493.706 417.73Z" stroke="#FBFBFB" stroke-width="2" stroke-miterlimit="10"/>
    <path d="M176.145 239.665C176.145 239.665 150.738 307.443 192.699 338.891C233.97 369.775 272.388 344.639 305.576 347.808C338.705 350.947 357.025 376.338 385.5 385" stroke="#FBFBFB" stroke-width="2" stroke-miterlimit="10"/>
    <path d="M220.768 223.68C229.155 206.646 222.144 186.037 205.109 177.651C188.074 169.264 167.466 176.275 159.08 193.31C150.693 210.345 157.704 230.953 174.739 239.339C191.774 247.726 212.382 240.715 220.768 223.68Z" stroke="#FBFBFB" stroke-width="2" stroke-miterlimit="10"/>
    <path d="M77.4044 485.558C77.4044 485.558 91.6562 453.435 121.826 446.412C166.425 436.076 231.077 487.029 267.98 482.502C301.154 478.446 304.16 433.346 338.202 424.956C386.971 412.952 404.121 453.838 451.919 419.926" stroke="#FBFBFB" stroke-width="2" stroke-miterlimit="10"/>
    <path d="M126.525 351.774C126.525 351.774 110.026 319.692 128.662 306.172C155.085 286.961 179.189 327.475 185.971 333.195" stroke="#FBFBFB" stroke-width="2" stroke-miterlimit="10"/>
    <path d="M154.322 381.011C159.696 370.095 155.204 356.89 144.288 351.516C133.373 346.142 120.168 350.635 114.794 361.55C109.42 372.466 113.912 385.671 124.828 391.045C135.743 396.419 148.948 391.926 154.322 381.011Z" stroke="#FBFBFB" stroke-width="2" stroke-miterlimit="10"/>
    <path d="M422.272 511.737C402.663 527.233 392.947 505.708 369.977 513.522C347.007 521.337 340.432 554.039 306.537 581.625C272.643 609.211 227.394 591.696 214.684 559.173C202.004 526.59 225.859 502.469 225.859 502.469" stroke="#FBFBFB" stroke-width="2" stroke-miterlimit="10"/>
    <path d="M202.905 387.517C202.905 387.517 210.358 414.699 231.559 410.628C260.335 405.076 244.818 357.852 285.333 348.407" stroke="#FBFBFB" stroke-width="2" stroke-miterlimit="10"/>
    <path d="M379 382.499C379 382.499 319.812 357.272 302.765 308.922C287.116 264.535 298.28 206.189 269.815 160.328C241.349 114.467 209.66 112.334 204.067 81.6773C198.97 53.9436 232.874 32.8362 259.296 57.0051C277.911 74.057 272.409 106.543 272.409 106.543C272.409 106.543 307.881 97.6667 323.746 128.618C340.638 161.563 315.256 204.203 315.256 204.203C315.256 204.203 341.41 194.757 349.973 222.858C358.689 251.704 322.777 281.273 331.25 304.567C338.538 324.525 381.968 332.736 381.968 332.736" stroke="#FBFBFB" stroke-width="2" stroke-miterlimit="10"/>
    <path d="M235.368 354.536C202.798 349.96 184.392 313.59 202.99 293.95C218.918 277.163 240.181 307.275 240.181 307.275" stroke="#FBFBFB" stroke-width="2" stroke-miterlimit="10"/>
    <path d="M251.613 317C253.55 313.064 251.93 308.302 247.994 306.364C244.058 304.426 239.296 306.046 237.358 309.982C235.421 313.919 237.041 318.68 240.977 320.618C244.913 322.556 249.675 320.936 251.613 317Z" stroke="#FBFBFB" stroke-width="2" stroke-miterlimit="10"/>
    <path d="M207.454 383.875C209.392 379.939 207.772 375.177 203.836 373.239C199.9 371.301 195.138 372.921 193.2 376.857C191.262 380.794 192.882 385.555 196.819 387.493C200.755 389.431 205.517 387.811 207.454 383.875Z" stroke="#FBFBFB" stroke-width="2" stroke-miterlimit="10"/>
    <path d="M177.692 176.51C177.692 176.51 173.776 194.894 191.899 204.784C207.805 213.434 223.923 203.213 223.923 203.213" stroke="#FBFBFB" stroke-width="2" stroke-miterlimit="10"/>
    <path d="M156.19 214.439C156.19 214.439 171.717 209.954 183.547 216.002C198.761 223.79 203.725 239.552 203.725 239.552" stroke="#FBFBFB" stroke-width="2" stroke-miterlimit="10"/>
    <path d="M171.527 212.764C171.527 212.764 183.051 207.796 181.481 195.416" stroke="#FBFBFB" stroke-width="2" stroke-miterlimit="10"/>
    <path d="M197.628 228.214C197.628 228.214 193.711 222.417 196.447 215.802C198.917 209.726 203.12 208.595 207.326 208.062" stroke="#FBFBFB" stroke-width="2" stroke-miterlimit="10"/>
    <path d="M113.833 379.23C113.833 379.23 120.766 385.248 131.668 385.927C145.317 386.768 151.673 381.415 155.833 378.254" stroke="#FBFBFB" stroke-width="2" stroke-miterlimit="10"/>
  </g>
  <defs>
    <clipPath id="clip0">
      <rect width="533" height="592" fill="white" transform="translate(0 6)"/>
    </clipPath>
  </defs>
</svg>
