<svg width="375" height="224" viewBox="0 0 375 224" fill="none" xmlns="http://www.w3.org/2000/svg">
  <g clip-path="url(#clip0)">
    <g clip-path="url(#clip1)">
      <path d="M288.238 214.361C287.831 218.122 280.695 221.971 275.614 216.597C269.282 209.899 257.366 196.362 255.171 193.896C252.976 191.431 252.736 185.753 255.604 183.25" fill="#FBFBFB"/>
      <path d="M288.238 214.361C287.831 218.122 280.695 221.971 275.614 216.597C269.282 209.899 257.366 196.362 255.171 193.896C252.976 191.431 252.736 185.753 255.604 183.25" stroke="#232323" stroke-miterlimit="10"/>
      <path d="M298.113 156.75C298.113 156.75 301.488 161.288 305.363 160.125C309.238 158.963 312.488 153.875 312.488 153.875L327.613 210.997H404.363V224C392.702 224 319.863 224 301.613 224C292.45 218.74 284.583 211.932 279.75 206.104C268.695 192.77 298.113 156.75 298.113 156.75Z" fill="#FBFBFB"/>
      <path d="M295.017 197.261C295.754 200.741 294.644 204.518 291.792 207.012L290.648 208.014C286.462 211.676 280.046 211.241 276.39 207.049L255.721 183.343C252.065 179.15 252.498 172.724 256.684 169.062L258.801 167.5" fill="#FBFBFB"/>
      <path d="M295.017 197.261C295.754 200.741 294.644 204.518 291.792 207.012L290.648 208.014C286.462 211.676 280.046 211.241 276.39 207.049L255.721 183.343C252.065 179.15 252.498 172.724 256.684 169.062L258.801 167.5" stroke="#232323" stroke-miterlimit="10"/>
      <path d="M297.675 179.78L299.001 181.457C302.312 185.911 301.39 192.274 296.95 195.597L295.737 196.505C291.298 199.828 284.958 198.903 281.646 194.448C281.646 194.448 258.203 167.021 256.348 164.376C253.997 161.026 252.42 155.753 258.321 149.946C260.689 147.616 264.122 147.5 264.122 147.5" fill="#FBFBFB"/>
      <path d="M297.675 179.78L299.001 181.457C302.312 185.911 301.39 192.274 296.95 195.597L295.737 196.505C291.298 199.828 284.958 198.903 281.646 194.448C281.646 194.448 258.203 167.021 256.348 164.376C253.997 161.026 252.42 155.753 258.321 149.946C260.689 147.616 264.122 147.5 264.122 147.5" stroke="#232323" stroke-miterlimit="10"/>
      <path d="M283.232 138.631L303.206 162.914C306.753 167.226 306.133 173.598 301.821 177.145L300.647 178.111C296.334 181.658 289.963 181.038 286.415 176.725L266.441 152.443C262.894 148.131 263.514 141.759 267.827 138.212L269.001 137.246C273.313 133.699 279.685 134.319 283.232 138.631Z" fill="#FBFBFB" stroke="#232323" stroke-miterlimit="10"/>
      <path d="M304.113 118.5C276.706 118.5 254.488 110.609 254.488 100.875C254.488 91.141 276.706 83.25 304.113 83.25C331.52 83.25 353.738 91.141 353.738 100.875C353.738 110.609 331.52 118.5 304.113 118.5Z" stroke="#232323" stroke-miterlimit="10"/>
      <path d="M352.488 105L309.24 157.826C308.627 158.582 307.853 159.191 306.976 159.61C306.099 160.03 305.14 160.248 304.168 160.25V160.25C303.206 160.252 302.255 160.042 301.384 159.634C300.512 159.227 299.74 158.632 299.124 157.892L256.488 105.763" stroke="#232323" stroke-miterlimit="10"/>
      <path d="M300.988 177.709V212.437C300.988 212.437 301.922 214.5 303.98 214.5C306.037 214.5 307.238 212.437 307.238 212.437V159.5" stroke="#232323" stroke-miterlimit="10"/>
      <path d="M300.988 212.327C300.988 216.537 298.74 219.256 293.288 219.256C290.467 219.256 284.431 219.248 281.761 219.248C278.386 219.248 272.238 219.096 272.238 223.75H303.963L336.988 223.728C336.988 223.728 336.788 219.168 331.417 219.168C327.809 219.168 320.124 219.268 315.712 219.268C309.441 219.268 307.238 216.071 307.238 212.25" stroke="#232323" stroke-miterlimit="10"/>
      <path d="M306.401 105.5C315.008 105.5 316.135 110.529 325.357 110.529C336.409 110.529 341.238 113.094 341.238 117.096C341.238 122.255 329.353 129 307.119 129C294.208 129 292.192 126.228 284.37 123.767C277.198 121.509 266.095 121.033 264.493 114.737C263.16 109.503 267.154 105.706 274.329 106.63C278.499 107.167 284.188 109.094 288.366 109.094C295.873 109.091 298.102 105.5 306.401 105.5Z" stroke="#232323" stroke-miterlimit="10"/>
      <path d="M300.904 109.24L300.428 107.963L311.921 103.673L309.014 95.8831L287.181 111.452L291.47 122.945C293.568 128.564 299.881 131.445 305.5 129.348L325.932 121.722L318.783 102.567L300.904 109.24ZM320.042 113.736L314.934 115.643L313.98 113.089L319.088 111.182L320.042 113.736Z" fill="#232323"/>
      <path d="M283.738 210.5C283.738 210.5 292.82 219.16 301.363 223.75" stroke="#232323" stroke-miterlimit="10"/>
      <path d="M262.287 79.75L293.081 143.95C293.172 144.14 293.225 144.347 293.236 144.558C293.247 144.769 293.216 144.98 293.145 145.179C293.074 145.378 292.965 145.561 292.823 145.718C292.68 145.875 292.508 146.003 292.317 146.093C292.125 146.184 291.917 146.237 291.705 146.248C291.493 146.259 291.28 146.228 291.08 146.158C290.88 146.087 290.695 145.978 290.538 145.837C290.38 145.696 290.251 145.525 290.16 145.334L259.488 81.3868" stroke="#232323" stroke-miterlimit="10"/>
      <path d="M250.624 62.5L246.144 53.0452C245.961 52.661 245.939 52.2198 246.08 51.8187C246.221 51.4176 246.516 51.0893 246.898 50.9061V50.9061C247.28 50.723 247.72 50.7 248.119 50.8422C248.518 50.9845 248.845 51.2802 249.027 51.6645L253.488 61.0493" stroke="#232323" stroke-miterlimit="10"/>
      <path d="M331.488 121.5C330.66 121.5 329.988 120.772 329.988 119.875C329.988 118.978 330.66 118.25 331.488 118.25C332.317 118.25 332.988 118.978 332.988 119.875C332.988 120.772 332.317 121.5 331.488 121.5Z" stroke="#232323" stroke-miterlimit="10"/>
      <path d="M337.613 72.25C336.716 72.25 335.988 71.5225 335.988 70.625C335.988 69.7275 336.716 69 337.613 69C338.511 69 339.238 69.7275 339.238 70.625C339.238 71.5225 338.511 72.25 337.613 72.25Z" stroke="#232323" stroke-miterlimit="10"/>
      <path d="M210.863 90C209.966 90 209.238 89.2725 209.238 88.375C209.238 87.4775 209.966 86.75 210.863 86.75C211.761 86.75 212.488 87.4775 212.488 88.375C212.488 89.2725 211.761 90 210.863 90Z" stroke="#232323" stroke-miterlimit="10"/>
      <path d="M305.613 148.75C304.992 148.75 304.488 148.246 304.488 147.625C304.488 147.004 304.992 146.5 305.613 146.5C306.235 146.5 306.738 147.004 306.738 147.625C306.738 148.246 306.235 148.75 305.613 148.75Z" stroke="#232323" stroke-miterlimit="10"/>
      <path d="M321.863 97.25C321.242 97.25 320.738 96.7463 320.738 96.125C320.738 95.5037 321.242 95 321.863 95C322.485 95 322.988 95.5037 322.988 96.125C322.988 96.7463 322.485 97.25 321.863 97.25Z" stroke="#232323" stroke-miterlimit="10"/>
      <path d="M364.113 90.5C363.492 90.5 362.988 89.9963 362.988 89.375C362.988 88.7537 363.492 88.25 364.113 88.25C364.735 88.25 365.238 88.7537 365.238 89.375C365.238 89.9963 364.735 90.5 364.113 90.5Z" stroke="#232323" stroke-miterlimit="10"/>
      <path d="M247.113 101C246.492 101 245.988 100.496 245.988 99.875C245.988 99.2537 246.492 98.75 247.113 98.75C247.735 98.75 248.238 99.2537 248.238 99.875C248.238 100.496 247.735 101 247.113 101Z" stroke="#232323" stroke-miterlimit="10"/>
      <path d="M342.362 138C341.741 138 341.237 137.44 341.237 136.75C341.237 136.06 341.741 135.5 342.362 135.5C342.984 135.5 343.487 136.06 343.487 136.75C343.487 137.44 342.984 138 342.362 138Z" stroke="#232323" stroke-miterlimit="10"/>
      <path d="M281.863 98.5C280.966 98.5 280.238 97.7724 280.238 96.875C280.238 95.9775 280.966 95.25 281.863 95.25C282.761 95.25 283.488 95.9775 283.488 96.875C283.488 97.7724 282.761 98.5 281.863 98.5Z" stroke="#232323" stroke-miterlimit="10"/>
      <path d="M350.988 120.781V120.97C353.662 120.97 355.223 122.588 355.223 125.25H355.49C355.49 122.577 357.091 120.971 359.738 120.971V120.781C357.089 120.781 355.487 119.16 355.487 116.5H355.224C355.224 119.16 353.662 120.781 350.988 120.781Z" stroke="#232323" stroke-miterlimit="10"/>
      <path d="M356.738 54.4833V54.7697C360.784 54.7697 363.148 57.2217 363.148 61.25H363.555C363.555 57.2026 365.978 54.7697 369.988 54.7697V54.4833C365.976 54.4833 363.554 52.0288 363.554 48H363.153C363.149 52.0288 360.785 54.4833 356.738 54.4833Z" stroke="#232323" stroke-miterlimit="10"/>
      <path d="M304.238 74.1853V74.5682C309.736 74.5682 312.948 77.8549 312.948 83.25H313.497C313.497 77.828 316.789 74.5682 322.238 74.5682V74.1848C316.789 74.1848 313.496 70.8981 313.496 65.5H312.948C312.948 70.8976 309.736 74.1853 304.238 74.1853Z" stroke="#232323" stroke-miterlimit="10"/>
      <path d="M404.5 194.621C404.352 194.621 336.808 194.591 336.614 194.531C334.567 193.903 330.243 190.035 330.06 184.606C329.773 176.083 333.526 167.942 335.521 162.716C338.72 154.336 337.244 149.159 332.814 145.709C328.384 142.258 320.785 143.544 317.166 148.175C313.547 152.806 307.239 159.374 307.239 180.35C307.239 194.244 313.563 203.154 319.522 207.879C325.777 212.839 333.598 213.437 336.147 213.495C336.688 213.507 404.363 213.495 404.363 213.495" fill="white"/>
      <path d="M404.5 194.621L404.363 213.495C404.363 213.495 336.688 213.507 336.147 213.495C333.598 213.437 325.777 212.839 319.522 207.879C313.563 203.154 307.239 194.244 307.239 180.35C307.239 159.374 313.547 152.806 317.166 148.175C320.785 143.544 328.384 142.258 332.814 145.709C337.244 149.159 338.72 154.336 335.521 162.716C333.526 167.942 329.773 176.083 330.06 184.606C330.243 190.035 334.567 193.903 336.614 194.531C336.808 194.591 404.352 194.621 404.5 194.621Z" stroke="#232323" stroke-miterlimit="10"/>
      <path d="M337.128 194.621C335.422 194.621 330.26 190.548 330.059 184.606C329.772 176.083 333.525 167.942 335.52 162.716C338.719 154.336 337.243 149.159 332.813 145.709C328.383 142.258 320.784 143.544 317.165 148.175C313.546 152.806 307.238 159.374 307.238 180.35C307.238 194.244 313.562 203.154 319.521 207.879C327.104 213.892 336.991 213.495 336.991 213.495" fill="#FBFBFB"/>
      <path d="M336.991 213.495C336.991 213.495 327.104 213.892 319.521 207.879C313.562 203.154 307.238 194.244 307.238 180.35C307.238 159.374 313.546 152.806 317.165 148.175C320.784 143.544 328.383 142.258 332.813 145.709C337.243 149.159 338.719 154.336 335.52 162.716C333.525 167.942 329.772 176.083 330.059 184.606C330.26 190.548 335.422 194.621 337.128 194.621H404.363" stroke="#232323" stroke-miterlimit="10"/>
      <path d="M334.238 147C334.238 147 331.347 154.392 330.366 158.261C329.486 161.723 329.938 165.496 333.93 166.75" stroke="#232323" stroke-miterlimit="10"/>
      <path d="M339.488 93.25C339.488 93.25 325.808 87.2317 304.78 87.5093C281.671 87.8145 272.488 91.7813 272.488 91.7813" stroke="#232323" stroke-miterlimit="10"/>
      <path d="M305.488 170.337L301.129 165.662C299.764 164.2 297.87 163.334 295.863 163.256C293.855 163.177 291.898 163.892 290.422 165.243V165.243C288.947 166.595 288.073 168.472 287.994 170.462C287.915 172.452 288.636 174.391 289.999 175.854L294.098 180.25" stroke="#232323" stroke-miterlimit="10"/>
      <path d="M300.988 188.587L296.629 183.912C295.265 182.45 293.371 181.584 291.363 181.506C289.356 181.427 287.399 182.142 285.923 183.493V183.493C285.192 184.162 284.601 184.968 284.185 185.863C283.768 186.759 283.533 187.727 283.494 188.712C283.455 189.697 283.612 190.681 283.956 191.606C284.301 192.531 284.825 193.38 285.501 194.104L289.599 198.5" stroke="#232323" stroke-miterlimit="10"/>
      <path d="M281.582 194.25C281.057 194.542 280.568 194.897 280.128 195.307V195.307C278.679 196.653 277.822 198.522 277.744 200.503C277.666 202.484 278.374 204.415 279.713 205.871L283.738 210.25" stroke="#232323" stroke-miterlimit="10"/>
      <path d="M294.988 200.5L292.738 198" stroke="#232323" stroke-miterlimit="10"/>
      <path d="M291.236 65.0193C290.335 65.4709 289.58 66.1679 289.059 67.0296C288.539 67.8914 288.273 68.8826 288.294 69.8886C288.312 70.6404 288.116 71.3818 287.729 72.027C287.342 72.6722 286.78 73.1949 286.107 73.5345C285.433 73.8701 284.677 74.0083 283.927 73.933C283.177 73.8577 282.464 73.5721 281.87 73.1092C281.074 72.4927 280.118 72.1139 279.114 72.0165C278.111 71.9192 277.1 72.1073 276.199 72.559C275.298 73.0108 274.544 73.7078 274.023 74.5694C273.502 75.4311 273.237 76.4222 273.257 77.4281C273.275 78.1798 273.079 78.9211 272.692 79.5663C272.305 80.2115 271.743 80.7343 271.071 81.074C270.396 81.4097 269.641 81.5479 268.891 81.4726C268.141 81.3974 267.428 81.1117 266.834 80.6486C266.037 80.0314 265.081 79.652 264.077 79.5543C263.073 79.4566 262.062 79.6446 261.16 80.0965C260.259 80.5484 259.504 81.2458 258.983 82.1079C258.462 82.97 258.197 83.9617 258.217 84.9681C258.236 85.7198 258.04 86.4612 257.653 87.1065C257.266 87.7517 256.704 88.2744 256.031 88.6139C255.357 88.9495 254.601 89.0877 253.851 89.0124C253.102 88.9372 252.388 88.6515 251.795 88.1886C250.998 87.572 250.042 87.193 249.038 87.0956C248.035 86.9982 247.024 87.1862 246.123 87.638C245.222 88.0898 244.467 88.7869 243.946 89.6486C243.426 90.5103 243.16 91.5015 243.181 92.5075C243.199 93.2592 243.003 94.0007 242.616 94.6459C242.229 95.2912 241.667 95.8139 240.994 96.1534C240.32 96.4891 239.564 96.6273 238.814 96.5521C238.065 96.4768 237.351 96.1911 236.758 95.7281C236.122 95.2367 235.383 94.8948 234.597 94.728C233.81 94.5612 232.996 94.5738 232.215 94.7648C231.434 94.9557 230.706 95.3202 230.086 95.831C229.466 96.3418 228.969 96.9857 228.633 97.7146C228.273 98.4978 227.129 98.3987 226.902 97.568C223.72 86.0269 229.019 73.472 240.148 67.8946L263.903 55.9851C275.092 50.3747 288.433 53.6893 295.792 63.2409C296.34 63.9514 295.656 64.9362 294.793 64.687C293.649 64.3528 292.431 64.4198 291.236 65.0193Z" fill="#FBFBFB" stroke="#232323" stroke-miterlimit="10"/>
      <path d="M241.488 69C241.488 69 234.715 80.1639 239.374 93.5" stroke="#232323" stroke-miterlimit="10"/>
      <path d="M250.676 65.5C250.676 65.5 248.397 75.7355 254.238 85.25" stroke="#232323" stroke-miterlimit="10"/>
      <path d="M257.238 62.75C257.238 62.75 266.577 66.7878 269.738 77.75" stroke="#232323" stroke-miterlimit="10"/>
      <path d="M284.488 69.75C284.488 69.75 278.06 58.0794 266.488 58.5117" stroke="#232323" stroke-miterlimit="10"/>
      <path d="M358.988 79.5L401.238 44" stroke="#232323" stroke-miterlimit="10"/>
      <path d="M324.988 61.5L338.238 43.5" stroke="#232323" stroke-miterlimit="10"/>
      <path d="M299.988 52.25V39.75" stroke="#232323" stroke-miterlimit="10"/>
      <path d="M229.488 63.25L210.238 48.75" stroke="#232323" stroke-miterlimit="10"/>
      <path d="M218.488 78.75L197.238 74" stroke="#232323" stroke-miterlimit="10"/>
      <path d="M214.488 98.5L199.238 99.5" stroke="#232323" stroke-miterlimit="10"/>
      <path d="M259.738 39L261.988 48.25" stroke="#232323" stroke-miterlimit="10"/>
    </g>
  </g>
  <g clip-path="url(#clip2)">
    <g clip-path="url(#clip3)">
      <path d="M151.75 69.2499L151.75 223.75L92 223.75L92 69.2499" stroke="#232323" stroke-miterlimit="10"/>
      <path d="M121.897 99.0192C138.384 99.0192 151.749 85.6537 151.749 69.1665C151.749 52.6794 138.384 39.3138 121.897 39.3138C105.409 39.3138 92.0439 52.6794 92.0439 69.1665C92.0439 85.6537 105.409 99.0192 121.897 99.0192Z" stroke="#232323" stroke-miterlimit="10"/>
      <path d="M121.897 172.243C138.384 172.243 151.749 158.878 151.749 142.39C151.749 125.903 138.384 112.538 121.897 112.538C105.409 112.538 92.0439 125.903 92.0439 142.39C92.0439 158.878 105.409 172.243 121.897 172.243Z" stroke="#232323" stroke-miterlimit="10"/>
      <path d="M124.882 201.927L150.792 4.22302" stroke="#232323" stroke-miterlimit="10"/>
      <path d="M144.652 3.43469L118.742 201.139" stroke="#232323" stroke-miterlimit="10"/>
      <path d="M147.75 6.64508C149.461 6.64508 150.848 5.25809 150.848 3.54715C150.848 1.83621 149.461 0.449219 147.75 0.449219C146.039 0.449219 144.652 1.83621 144.652 3.54715C144.652 5.25809 146.039 6.64508 147.75 6.64508Z" stroke="#232323" stroke-miterlimit="10"/>
      <path d="M121.784 204.912C123.495 204.912 124.882 203.525 124.882 201.814C124.882 200.103 123.495 198.716 121.784 198.716C120.074 198.716 118.687 200.103 118.687 201.814C118.687 203.525 120.074 204.912 121.784 204.912Z" stroke="#232323" stroke-miterlimit="10"/>
      <path d="M104.38 139.969C106.309 139.969 107.872 138.405 107.872 136.476C107.872 134.548 106.309 132.984 104.38 132.984C102.451 132.984 100.888 134.548 100.888 136.476C100.888 138.405 102.451 139.969 104.38 139.969Z" stroke="#232323" stroke-miterlimit="10"/>
      <path d="M112.435 157.373C114.363 157.373 115.927 155.81 115.927 153.881C115.927 151.952 114.363 150.389 112.435 150.389C110.506 150.389 108.942 151.952 108.942 153.881C108.942 155.81 110.506 157.373 112.435 157.373Z" stroke="#232323" stroke-miterlimit="10"/>
      <path d="M139.302 204.912C141.23 204.912 142.794 203.349 142.794 201.42C142.794 199.491 141.23 197.928 139.302 197.928C137.373 197.928 135.81 199.491 135.81 201.42C135.81 203.349 137.373 204.912 139.302 204.912Z" stroke="#232323" stroke-miterlimit="10"/>
      <path d="M141.668 149.15C143.597 149.15 145.16 147.586 145.16 145.658C145.16 143.729 143.597 142.166 141.668 142.166C139.739 142.166 138.176 143.729 138.176 145.658C138.176 147.586 139.739 149.15 141.668 149.15Z" stroke="#232323" stroke-miterlimit="10"/>
      <path d="M104.421 189.443L92.9385 194.104L97.599 205.586L109.081 200.925L104.421 189.443Z" stroke="#232323" stroke-miterlimit="10"/>
      <path d="M115.26 179.644L103.846 174.821L99.0228 186.235L110.437 191.058L115.26 179.644Z" stroke="#232323" stroke-miterlimit="10"/>
      <path d="M146.489 171.919L135.007 176.579L139.667 188.061L151.15 183.401L146.489 171.919Z" stroke="#232323" stroke-miterlimit="10"/>
      <path d="M116.542 208.147L105.128 203.324L100.305 214.738L111.719 219.561L116.542 208.147Z" stroke="#232323" stroke-miterlimit="10"/>
      <path d="M89.1717 9.91233C112.941 0.393255 125.446 21.5154 125.446 21.5154C125.446 21.5154 120.883 19.713 114.744 22.135C108.604 24.6134 107.534 28.7815 107.534 28.7815C107.534 28.7815 101.563 27.2044 96.4941 29.2321C90.1856 31.7668 87.9889 36.5545 87.9889 36.5545C87.9889 36.5545 83.0886 34.5831 77.456 36.8361C71.8234 39.0891 69.5704 43.7079 69.5704 43.7079C69.5704 43.7079 63.7688 20.051 89.1717 9.91233Z" fill="#FBFBFB" stroke="#232323" stroke-miterlimit="10" stroke-linejoin="bevel"/>
      <path d="M86.2422 3.54712L124.938 99.0759" stroke="#232323" stroke-miterlimit="10" stroke-linejoin="bevel"/>
      <path d="M135.345 185.352L135.345 185.351C135.345 178.361 141.011 172.695 148.001 172.695L163.507 172.695C170.497 172.695 176.163 178.361 176.163 185.351L176.163 185.352C176.163 192.342 170.497 198.008 163.507 198.008L148.001 198.008C141.011 198.008 135.345 192.342 135.345 185.352Z" fill="#FBFBFB" stroke="#232323" stroke-miterlimit="10"/>
      <path d="M135.323 210.815L135.323 210.814C135.323 203.824 140.99 198.157 147.98 198.157L157.904 198.157C164.894 198.157 170.561 203.824 170.561 210.814L170.561 210.815C170.561 217.805 164.894 223.471 157.904 223.471L147.98 223.471C140.99 223.471 135.323 217.805 135.323 210.815Z" fill="#FBFBFB" stroke="#232323" stroke-miterlimit="10"/>
      <path d="M135.465 159.991L135.465 159.991C135.465 153.001 141.131 147.334 148.121 147.334L169.065 147.334C176.056 147.334 181.722 153.001 181.722 159.991L181.722 159.991C181.722 166.981 176.056 172.648 169.065 172.648L148.121 172.648C141.131 172.648 135.465 166.981 135.465 159.991Z" fill="#FBFBFB" stroke="#232323" stroke-miterlimit="10"/>
      <path d="M135.51 134.608L135.51 134.607C135.51 127.617 141.176 121.95 148.166 121.95L163.463 121.95C170.453 121.95 176.12 127.617 176.12 134.607L176.12 134.608C176.12 141.598 170.453 147.264 163.463 147.264L148.166 147.264C141.176 147.264 135.51 141.598 135.51 134.608Z" fill="#FBFBFB" stroke="#232323" stroke-miterlimit="10"/>
      <path d="M137.981 218.617L144.566 218.617C145.586 218.617 146.596 218.416 147.538 218.026C148.481 217.636 149.337 217.063 150.058 216.342C150.78 215.62 151.352 214.764 151.742 213.821C152.132 212.879 152.332 211.869 152.332 210.848C152.332 209.829 152.131 208.819 151.741 207.876C151.351 206.934 150.778 206.078 150.057 205.357C149.336 204.636 148.48 204.064 147.538 203.674C146.595 203.283 145.586 203.082 144.566 203.083L137.962 203.083" fill="#FBFBFB"/>
      <path d="M137.981 218.617L144.566 218.617C145.586 218.617 146.596 218.416 147.538 218.026C148.481 217.636 149.337 217.063 150.058 216.342C150.78 215.62 151.352 214.764 151.742 213.821C152.132 212.879 152.332 211.869 152.332 210.848V210.848C152.332 209.829 152.131 208.819 151.741 207.876C151.351 206.934 150.778 206.078 150.057 205.357C149.336 204.636 148.48 204.064 147.538 203.674C146.595 203.283 145.586 203.082 144.566 203.083L137.962 203.083" stroke="#232323" stroke-miterlimit="10"/>
      <path d="M137.981 192.985L144.566 192.985C146.625 192.985 148.6 192.166 150.057 190.71C151.513 189.254 152.331 187.279 152.332 185.219C152.332 183.159 151.514 181.183 150.057 179.727C148.601 178.27 146.626 177.451 144.566 177.45L137.962 177.45" fill="#FBFBFB"/>
      <path d="M137.981 192.985L144.566 192.985C146.625 192.985 148.6 192.166 150.057 190.71C151.513 189.254 152.331 187.279 152.332 185.219V185.219C152.332 183.159 151.514 181.183 150.057 179.727C148.601 178.27 146.626 177.451 144.566 177.45L137.962 177.45" stroke="#232323" stroke-miterlimit="10"/>
      <path d="M137.981 167.523L144.566 167.523C146.626 167.523 148.601 166.704 150.057 165.247C151.514 163.79 152.332 161.814 152.332 159.754C152.331 157.695 151.513 155.72 150.057 154.264C148.6 152.807 146.625 151.989 144.566 151.988L138.334 151.988" fill="#FBFBFB"/>
      <path d="M137.981 167.523L144.566 167.523C146.626 167.523 148.601 166.704 150.057 165.247C151.514 163.79 152.332 161.814 152.332 159.754V159.754C152.331 157.695 151.513 155.72 150.057 154.264C148.6 152.807 146.625 151.989 144.566 151.988L138.334 151.988" stroke="#232323" stroke-miterlimit="10"/>
      <path d="M137.981 142.061L144.566 142.061C145.586 142.061 146.596 141.86 147.538 141.469C148.481 141.079 149.337 140.507 150.058 139.785C150.78 139.064 151.352 138.207 151.742 137.265C152.132 136.322 152.332 135.312 152.332 134.292C152.332 133.272 152.131 132.262 151.741 131.32C151.35 130.378 150.778 129.522 150.057 128.801C149.336 128.08 148.48 127.508 147.538 127.117C146.595 126.727 145.586 126.526 144.566 126.526L138.376 126.526" fill="#FBFBFB"/>
      <path d="M137.981 142.061L144.566 142.061C145.586 142.061 146.596 141.86 147.538 141.469C148.481 141.079 149.337 140.507 150.058 139.785C150.78 139.064 151.352 138.207 151.742 137.265C152.132 136.322 152.332 135.312 152.332 134.292C152.332 133.272 152.131 132.262 151.741 131.32C151.35 130.378 150.778 129.522 150.057 128.801C149.336 128.08 148.48 127.508 147.538 127.117C146.595 126.727 145.586 126.526 144.566 126.526L138.376 126.526" stroke="#232323" stroke-miterlimit="10"/>
      <path d="M72.875 165.375L73.25 157.875L96.375 156C96.375 167.125 96.75 181.625 95.875 186.375C94.6645 192.946 91.625 195.875 91.625 202.125C91.625 208.75 91.9999 224 91.75 224C73.5 223.982 -0.0887251 224 -11.75 224L-11.75 194.5L47.625 194.5C47.625 194.5 57.25 196.181 64.375 188.5C72.375 179.875 72.875 165.375 72.875 165.375Z" fill="#FBFBFB"/>
      <path d="M73.1061 162.625C73.1061 162.625 73.1061 155.563 73.1061 138.25C73.1061 128.829 79.472 124.5 84.819 124.5C91.694 124.5 96.4724 130.417 96.4724 139.838L96.4724 165" fill="#FBFBFB"/>
      <path d="M55.6225 212.375C55.6225 212.375 71.7784 212.803 80.25 208.125C88.625 203.5 96.4724 193.768 96.4724 179.875L96.4724 165L96.4724 139.838C96.4724 130.417 91.694 124.5 84.819 124.5C79.472 124.5 73.1061 128.829 73.1061 138.25C73.1061 155.563 73.1061 162.625 73.1061 162.625C73.1061 162.625 73.3561 167.625 70.25 178.25C67.1439 188.875 57.75 194.621 51.5 194.621L-11.75 194.621" stroke="#232323" stroke-miterlimit="10"/>
      <path d="M73.0449 144.461C73.0449 144.461 79.8515 145.508 79.8515 139.226L79.8515 125.788" stroke="#232323" stroke-miterlimit="10"/>
      <path d="M108.956 108.787C110.993 112.087 110.003 116.271 106.703 118.308C103.403 120.345 99.2197 119.355 97.1826 116.055C95.1454 112.755 96.1353 108.572 99.4351 106.535C102.735 104.497 106.919 105.487 108.956 108.787ZM121.684 121.852C119.647 118.552 120.636 114.368 123.936 112.331C127.236 110.294 131.42 111.284 133.457 114.584C135.494 117.884 134.504 122.067 131.204 124.105C127.905 126.142 123.721 125.152 121.684 121.852Z" fill="#232323" stroke="#232323"/>
      <path d="M109.092 103.435C113.713 101.144 119.14 102.966 121.425 107.576C121.964 108.663 122.332 109.44 122.594 109.865" stroke="#232323" stroke-linecap="round" stroke-linejoin="round"/>
      <path d="M115.558 107.746C119.537 107.052 122.004 108.908 122.858 110.291C122.004 108.908 122.146 104.854 123.854 102.624" stroke="#232323" stroke-linecap="round" stroke-linejoin="round"/>
      <path d="M122.013 128.223C117.391 130.514 111.964 128.691 109.679 124.081C109.14 122.995 108.773 122.218 108.51 121.792" stroke="#232323" stroke-linecap="round" stroke-linejoin="round"/>
      <path d="M115.547 123.911C111.568 124.605 109.1 122.75 108.247 121.367C109.1 122.75 108.959 126.803 107.25 129.033" stroke="#232323" stroke-linecap="round" stroke-linejoin="round"/>
    </g>
  </g>
  <defs>
    <clipPath id="clip0">
      <rect width="178" height="185" fill="white" transform="matrix(-1 0 0 1 375 39)"/>
    </clipPath>
    <clipPath id="clip1">
      <rect width="208" height="185.25" fill="white" transform="matrix(-1 0 0 1 405 38.75)"/>
    </clipPath>
    <clipPath id="clip2">
      <rect width="224" height="182" fill="white" transform="translate(0 224) rotate(-90)"/>
    </clipPath>
    <clipPath id="clip3">
      <rect width="224" height="193.75" fill="white" transform="translate(-11.75 224) rotate(-90)"/>
    </clipPath>
  </defs>
</svg>
