<svg width="728" height="955" viewBox="0 0 728 955" fill="none" xmlns="http://www.w3.org/2000/svg">
  <g clip-path="url(#clip0)">
    <g clip-path="url(#clip1)">
      <g clip-path="url(#clip2)">
        <path d="M607 336V954H368V336" stroke="#232323" stroke-width="2" stroke-miterlimit="10"/>
        <path d="M487.589 455.078C553.537 455.078 607 401.616 607 335.667C607 269.718 553.537 216.256 487.589 216.256C421.64 216.256 368.178 269.718 368.178 335.667C368.178 401.616 421.64 455.078 487.589 455.078Z" stroke="#232323" stroke-width="2" stroke-miterlimit="10"/>
        <path d="M487.589 747.974C553.537 747.974 607 694.512 607 628.563C607 562.614 553.537 509.152 487.589 509.152C421.64 509.152 368.178 562.614 368.178 628.563C368.178 694.512 421.64 747.974 487.589 747.974Z" stroke="#232323" stroke-width="2" stroke-miterlimit="10"/>
        <path d="M499.529 866.708L603.169 75.8921" stroke="#232323" stroke-width="2" stroke-miterlimit="10"/>
        <path d="M578.611 72.7388L474.971 863.554" stroke="#232323" stroke-width="2" stroke-miterlimit="10"/>
        <path d="M591.001 85.5808C597.845 85.5808 603.393 80.0328 603.393 73.1891C603.393 66.3453 597.845 60.7974 591.001 60.7974C584.157 60.7974 578.609 66.3453 578.609 73.1891C578.609 80.0328 584.157 85.5808 591.001 85.5808Z" stroke="#232323" stroke-width="2" stroke-miterlimit="10"/>
        <path d="M487.138 878.649C493.981 878.649 499.529 873.101 499.529 866.257C499.529 859.414 493.981 853.866 487.138 853.866C480.294 853.866 474.746 859.414 474.746 866.257C474.746 873.101 480.294 878.649 487.138 878.649Z" stroke="#232323" stroke-width="2" stroke-miterlimit="10"/>
        <path d="M417.519 618.875C425.234 618.875 431.488 612.621 431.488 604.906C431.488 597.192 425.234 590.938 417.519 590.938C409.805 590.938 403.551 597.192 403.551 604.906C403.551 612.621 409.805 618.875 417.519 618.875Z" stroke="#232323" stroke-width="2" stroke-miterlimit="10"/>
        <path d="M449.738 688.493C457.453 688.493 463.707 682.239 463.707 674.524C463.707 666.809 457.453 660.555 449.738 660.555C442.023 660.555 435.77 666.809 435.77 674.524C435.77 682.239 442.023 688.493 449.738 688.493Z" stroke="#232323" stroke-width="2" stroke-miterlimit="10"/>
        <path d="M557.207 878.65C564.922 878.65 571.176 872.396 571.176 864.681C571.176 856.966 564.922 850.712 557.207 850.712C549.492 850.712 543.238 856.966 543.238 864.681C543.238 872.396 549.492 878.65 557.207 878.65Z" stroke="#232323" stroke-width="2" stroke-miterlimit="10"/>
        <path d="M566.672 655.6C574.387 655.6 580.641 649.345 580.641 641.631C580.641 633.916 574.387 627.662 566.672 627.662C558.957 627.662 552.703 633.916 552.703 641.631C552.703 649.345 558.957 655.6 566.672 655.6Z" stroke="#232323" stroke-width="2" stroke-miterlimit="10"/>
        <path d="M417.684 816.775L371.756 835.417L390.398 881.345L436.326 862.703L417.684 816.775Z" stroke="#232323" stroke-width="2" stroke-miterlimit="10"/>
        <path d="M461.037 777.576L415.381 758.284L396.089 803.94L441.745 823.232L461.037 777.576Z" stroke="#232323" stroke-width="2" stroke-miterlimit="10"/>
        <path d="M585.956 746.675L540.027 765.316L558.67 811.244L604.598 792.603L585.956 746.675Z" stroke="#232323" stroke-width="2" stroke-miterlimit="10"/>
        <path d="M466.166 891.589L420.51 872.297L401.218 917.954L446.874 937.245L466.166 891.589Z" stroke="#232323" stroke-width="2" stroke-miterlimit="10"/>
        <path d="M356.687 98.6498C451.765 60.5735 501.782 145.062 501.782 145.062C501.782 145.062 483.533 137.853 458.975 147.541C434.417 157.454 430.136 174.127 430.136 174.127C430.136 174.127 406.254 167.818 385.976 175.929C360.742 186.068 351.956 205.218 351.956 205.218C351.956 205.218 332.354 197.333 309.824 206.345C287.294 215.357 278.281 233.832 278.281 233.832C278.281 233.832 255.075 139.204 356.687 98.6498Z" fill="#FBFBFB" stroke="#232323" stroke-width="2" stroke-miterlimit="10" stroke-linejoin="bevel"/>
        <path d="M344.971 73.1895L499.754 455.305" stroke="#232323" stroke-width="2" stroke-miterlimit="10" stroke-linejoin="bevel"/>
        <path d="M541.377 801.523L541.377 801.521C541.377 773.56 564.043 750.894 592.003 750.894L654.024 750.894C681.985 750.894 704.651 773.56 704.651 801.521L704.651 801.523C704.651 829.483 681.985 852.149 654.024 852.149L592.003 852.149C564.043 852.149 541.377 829.483 541.377 801.523Z" fill="#FBFBFB" stroke="#232323" stroke-width="2" stroke-miterlimit="10"/>
        <path d="M541.295 903.374L541.295 903.372C541.295 875.411 563.961 852.745 591.921 852.745L631.618 852.745C659.578 852.745 682.244 875.411 682.244 903.372L682.244 903.374C682.244 931.334 659.578 954 631.618 954L591.921 954C563.961 954 541.295 931.334 541.295 903.374Z" fill="#FBFBFB" stroke="#232323" stroke-width="2" stroke-miterlimit="10"/>
        <path d="M541.859 700.08L541.859 700.078C541.859 672.118 564.526 649.452 592.486 649.452L676.262 649.452C704.222 649.452 726.888 672.118 726.888 700.078L726.888 700.08C726.888 728.04 704.222 750.707 676.262 750.707L592.486 750.707C564.526 750.707 541.859 728.04 541.859 700.08Z" fill="#FBFBFB" stroke="#232323" stroke-width="2" stroke-miterlimit="10"/>
        <path d="M542.041 598.546L542.041 598.543C542.041 570.583 564.707 547.917 592.668 547.917L653.856 547.917C681.816 547.917 704.482 570.583 704.482 598.543L704.482 598.546C704.482 626.506 681.816 649.172 653.856 649.172L592.668 649.172C564.707 649.172 542.041 626.506 542.041 598.546Z" fill="#FBFBFB" stroke="#232323" stroke-width="2" stroke-miterlimit="10"/>
        <path d="M551.927 934.584L578.265 934.584C582.345 934.585 586.386 933.781 590.156 932.219C593.925 930.658 597.351 928.368 600.235 925.483C603.12 922.597 605.408 919.171 606.969 915.4C608.529 911.63 609.332 907.589 609.33 903.509V903.509C609.33 899.429 608.527 895.39 606.965 891.621C605.404 887.852 603.116 884.427 600.231 881.543C597.346 878.658 593.922 876.37 590.153 874.809C586.384 873.248 582.344 872.445 578.265 872.445L551.85 872.445" stroke="#232323" stroke-width="2" stroke-miterlimit="10"/>
        <path d="M551.927 832.057L578.265 832.057C586.503 832.054 594.403 828.781 600.228 822.955C606.053 817.13 609.327 809.23 609.33 800.992V800.992C609.33 792.752 606.057 784.849 600.232 779.022C594.406 773.194 586.505 769.919 578.265 769.916L551.85 769.916" stroke="#232323" stroke-width="2" stroke-miterlimit="10"/>
        <path d="M551.927 730.208L578.265 730.208C586.505 730.206 594.406 726.93 600.232 721.103C606.057 715.275 609.33 707.373 609.33 699.133V699.133C609.327 690.895 606.053 682.995 600.228 677.169C594.403 671.344 586.503 668.07 578.265 668.067L553.34 668.067" stroke="#232323" stroke-width="2" stroke-miterlimit="10"/>
        <path d="M551.927 628.358L578.265 628.358C582.345 628.358 586.386 627.554 590.156 625.993C593.925 624.431 597.351 622.142 600.235 619.256C603.12 616.37 605.408 612.944 606.969 609.174C608.529 605.404 609.332 601.363 609.33 597.282C609.33 593.203 608.526 589.164 606.965 585.395C605.403 581.626 603.115 578.202 600.23 575.318C597.346 572.433 593.921 570.146 590.152 568.585C586.383 567.024 582.344 566.221 578.265 566.221L553.506 566.221" stroke="#232323" stroke-width="2" stroke-miterlimit="10"/>
        <path d="M291.5 720.499L293 690.499L385.5 682.999C385.5 727.499 387 785.499 383.5 804.499C378.658 830.785 366.5 842.499 366.5 867.499C366.5 894 368 955.001 367 955C294 954.929 -0.354904 955 -47 955V836.999H190.5C190.5 836.999 229 843.726 257.5 812.999C289.5 778.499 291.5 720.499 291.5 720.499Z" fill="#FBFBFB"/>
        <path d="M292.424 709.499C292.424 709.499 292.424 681.25 292.424 611.999C292.424 574.314 317.888 556.999 339.276 556.999C366.776 556.999 385.89 580.666 385.89 618.353L385.89 718.999" fill="#FBFBFB"/>
        <path d="M222.49 908.499C222.49 908.499 287.114 910.212 321 891.499C354.5 872.999 385.89 834.073 385.89 778.499L385.89 718.999L385.89 618.353C385.89 580.666 366.776 556.999 339.276 556.999C317.888 556.999 292.424 574.314 292.424 611.999C292.424 681.25 292.424 709.499 292.424 709.499C292.424 709.499 293.424 729.499 281 771.999C268.576 814.499 231 837.483 206 837.483H-47" stroke="#232323" stroke-width="2" stroke-miterlimit="10"/>
        <path d="M292.18 636.844C292.18 636.844 319.406 641.033 319.406 615.903L319.406 562.15" stroke="#232323" stroke-width="2" stroke-miterlimit="10"/>
        <path d="M436.249 493.886C444.542 507.32 440.51 524.363 427.076 532.657C413.642 540.95 396.598 536.918 388.305 523.484C380.011 510.05 384.044 493.006 397.478 484.713C410.912 476.419 427.955 480.452 436.249 493.886ZM486.309 546.671C478.016 533.237 482.048 516.193 495.482 507.9C508.917 499.606 525.96 503.639 534.253 517.073C542.547 530.507 538.515 547.55 525.08 555.844C511.646 564.137 494.603 560.105 486.309 546.671Z" fill="#232323" stroke="#232323" stroke-width="3"/>
        <path d="M438.862 547.081C438.585 546.602 437.974 546.438 437.496 546.714C437.017 546.991 436.853 547.602 437.129 548.081L438.862 547.081ZM441.556 557.839C449.292 574.674 468.645 581.811 485.515 574.06L484.68 572.242C468.809 579.535 450.646 572.831 443.374 557.004L441.556 557.839ZM437.129 548.081C437.532 548.778 438.183 550.216 438.979 552.027C439.762 553.809 440.667 555.905 441.556 557.839L443.374 557.004C442.494 555.09 441.601 553.021 440.81 551.222C440.032 549.454 439.332 547.895 438.862 547.081L437.129 548.081Z" fill="#232323"/>
        <path d="M438.734 547.956C438.821 547.411 438.45 546.898 437.904 546.811C437.359 546.723 436.846 547.095 436.759 547.64L438.734 547.956ZM436.759 547.64L432.491 574.302L434.466 574.618L438.734 547.956L436.759 547.64Z" fill="#232323"/>
        <path d="M487.256 496.749C487.532 497.227 488.143 497.391 488.622 497.115C489.1 496.839 489.264 496.227 488.988 495.749L487.256 496.749ZM484.561 485.99C476.826 469.156 457.472 462.018 440.602 469.77L441.437 471.587C457.308 464.295 475.471 470.999 482.743 486.825L484.561 485.99ZM488.988 495.749C488.585 495.052 487.935 493.614 487.138 491.802C486.355 490.021 485.45 487.925 484.561 485.99L482.743 486.825C483.623 488.74 484.516 490.808 485.307 492.607C486.085 494.376 486.785 495.934 487.256 496.749L488.988 495.749Z" fill="#232323"/>
        <path d="M487.383 495.873C487.296 496.419 487.667 496.932 488.213 497.019C488.758 497.106 489.271 496.735 489.358 496.19L487.383 495.873ZM489.358 496.19L493.626 469.527L491.651 469.211L487.383 495.873L489.358 496.19Z" fill="#232323"/>
      </g>
    </g>
    <g opacity="0.3" clip-path="url(#clip3)">
      <path d="M171.194 367.575C148.923 389.859 123.537 404.737 100.536 410.812C77.5078 416.895 57.0783 414.115 44.4063 401.436C31.7343 388.757 28.9565 368.316 35.0353 345.274C41.1068 322.261 55.9768 296.86 78.2478 274.576C100.519 252.293 125.905 237.414 148.906 231.34C171.934 225.257 192.364 228.037 205.036 240.716C217.708 253.395 220.486 273.836 214.407 296.877C208.335 319.891 193.465 345.292 171.194 367.575Z" fill="#F4EEE7" stroke="#232323" stroke-width="2"/>
      <path d="M206.556 243.25L179.604 214.239L17.0331 371.243L43.9855 400.254L206.556 243.25Z" fill="#F4EEE7"/>
      <path d="M179.604 214.239L206.556 243.25" stroke="#232323" stroke-width="2" stroke-linecap="round" stroke-linejoin="round"/>
      <path d="M17.0314 371.243L43.9838 400.254" stroke="#232323" stroke-width="2" stroke-linecap="round" stroke-linejoin="round"/>
      <g clip-path="url(#clip4)">
        <path d="M147.217 341.789C124.968 364.051 99.6203 378.928 76.6647 385.019C53.6809 391.118 33.3042 388.371 20.6802 375.74C8.05634 363.109 5.31091 342.721 11.4061 319.724C17.4937 296.755 32.3627 271.394 54.6118 249.132C76.8608 226.87 102.208 211.993 125.164 205.902C148.147 199.803 168.524 202.55 181.148 215.181C193.772 227.812 196.517 248.2 190.422 271.197C184.335 294.166 169.466 319.527 147.217 341.789Z" fill="#F4EEE7" stroke="#232323" stroke-width="2"/>
        <path d="M139.292 337.574C120.289 356.587 98.7092 369.351 79.2193 374.652C59.6985 379.96 42.4942 377.74 31.9188 367.159C21.3434 356.577 19.1243 339.363 24.43 319.831C29.7273 300.331 42.4843 278.738 61.4866 259.725C80.4889 240.712 102.069 227.948 121.559 222.647C141.08 217.339 158.284 219.559 168.86 230.14C179.435 240.722 181.654 257.936 176.348 277.468C171.051 296.969 158.294 318.561 139.292 337.574Z" fill="#F4EEE7" stroke="#232323" stroke-width="2"/>
        <path d="M130.548 249.505L55.5882 324.507M136.547 255.507L125.263 266.797M72.8713 319.218L61.587 330.509M114.673 302.977C117.552 308.041 117.256 314.095 109.43 321.926C99.7579 331.603 88.4017 333.144 79.6762 324.414L59.4984 304.225M114.758 303.063C119.086 303.375 124.353 301.538 129.272 296.616C138.944 286.939 134.99 276.53 130.171 271.708L109.993 251.519M114.976 303.281L96.4346 284.729" stroke="#232323" stroke-width="2"/>
      </g>
    </g>
    <path d="M97 755H1V955H97V755Z" fill="#FBFBFB"/>
    <path d="M97 955V755H1V955" stroke="#232323" stroke-width="2"/>
    <circle cx="53" cy="791" r="11" fill="#232323" stroke="#232323" stroke-width="2"/>
    <path d="M0 954H369" stroke="#232323" stroke-width="2"/>
  </g>
  <defs>
    <clipPath id="clip0">
      <rect width="728" height="955" fill="white"/>
    </clipPath>
    <clipPath id="clip1">
      <rect width="896" height="728" fill="white" transform="translate(0 955) rotate(-90)"/>
    </clipPath>
    <clipPath id="clip2">
      <rect width="896" height="775" fill="white" transform="translate(-47 955) rotate(-90)"/>
    </clipPath>
    <clipPath id="clip3">
      <rect width="178.527" height="234.554" fill="white" transform="translate(169.129 172) rotate(60)"/>
    </clipPath>
    <clipPath id="clip4">
      <rect width="133.092" height="229.377" fill="white" transform="matrix(0.706907 0.707307 -0.706907 0.707307 134.846 167.438)"/>
    </clipPath>
  </defs>
</svg>
