<svg width="712" height="955" viewBox="0 0 712 955" fill="none" xmlns="http://www.w3.org/2000/svg">
  <g clip-path="url(#clip0)">
    <g opacity="0.3" clip-path="url(#clip1)">
      <path d="M171.224 118.066C154.422 105.038 142.328 89.3082 136.328 74.4511C130.317 59.5672 130.486 45.7607 137.82 36.3125C145.154 26.8642 158.493 23.2697 174.412 25.3891C190.303 27.5047 208.554 35.3033 225.356 48.3309C242.159 61.3584 254.253 77.0884 260.253 91.9456C266.264 106.829 266.095 120.636 258.761 130.084C251.427 139.532 238.087 143.127 222.168 141.008C206.278 138.892 188.026 131.093 171.224 118.066Z" fill="#F4EEE7" stroke="#232323" stroke-width="2"/>
      <path d="M257.444 131.516L274.627 110.973L155.504 15.1877L138.321 35.7306L257.444 131.516Z" fill="#F4EEE7"/>
      <path d="M274.627 110.973L257.444 131.516" stroke="#232323" stroke-width="2" stroke-linecap="round" stroke-linejoin="round"/>
      <path d="M155.504 15.1878L138.321 35.7308" stroke="#232323" stroke-width="2" stroke-linecap="round" stroke-linejoin="round"/>
      <g clip-path="url(#clip2)">
        <path d="M186.419 99.7925C169.621 86.7676 157.52 71.0522 151.507 56.2166C145.484 41.3537 145.634 27.577 152.943 18.1603C160.253 8.74373 173.568 5.17437 189.47 7.3117C205.343 9.44513 223.582 17.2534 240.38 30.2783C257.179 43.3031 269.28 59.0185 275.292 73.8542C281.316 88.717 281.166 102.494 273.856 111.91C266.547 121.327 253.232 124.896 237.33 122.759C221.457 120.626 203.218 112.817 186.419 99.7925Z" fill="#F4EEE7" stroke="#232323" stroke-width="2"/>
        <path d="M188.653 94.1174C174.321 83.0055 163.967 69.6495 158.785 57.0816C153.59 44.4841 153.66 32.8909 159.762 25.0294C165.865 17.1678 177.083 14.2193 190.584 16.1171C204.053 18.0104 219.57 24.7139 233.902 35.8258C248.233 46.9376 258.587 60.2937 263.769 72.8616C268.964 85.4591 268.895 97.0523 262.792 104.914C256.69 112.775 245.471 115.724 231.97 113.826C218.502 111.933 202.984 105.229 188.653 94.1174Z" fill="#F4EEE7" stroke="#232323" stroke-width="2"/>
        <path d="M246.809 81.0447L190.132 37.0997M243.29 85.5784L234.758 78.9631M195.144 48.2488L186.612 41.6334M209.583 74.9222C206.429 77.2833 202.342 77.5975 196.425 73.0095C189.112 67.3392 187.116 59.8496 192.235 53.2551L204.072 38.0053M209.533 74.9868C209.69 77.917 211.37 81.2958 215.089 84.1794C222.402 89.8498 229.051 86.3145 231.878 82.6725L243.716 67.4227M209.405 75.1515L220.283 61.1382" stroke="#232323" stroke-width="2"/>
      </g>
    </g>
    <g clip-path="url(#clip3)">
      <path d="M364.951 916.443C363.323 931.49 334.777 946.883 314.455 925.39C289.126 898.597 241.462 844.446 232.683 834.585C223.903 824.724 222.941 802.012 234.415 792" fill="#FBFBFB"/>
      <path d="M364.951 916.443C363.323 931.49 334.777 946.883 314.455 925.39C289.126 898.597 241.462 844.446 232.683 834.585C223.903 824.724 222.941 802.012 234.415 792" stroke="#232323" stroke-width="2" stroke-miterlimit="10"/>
      <path d="M404.451 686C404.451 686 417.951 704.15 433.451 699.5C448.951 694.85 461.951 674.5 461.951 674.5L522.451 902.986H829.451V955C782.806 955 491.451 955 418.451 955C381.797 933.961 350.328 906.727 330.998 883.416C286.777 830.079 404.451 686 404.451 686Z" fill="#FBFBFB"/>
      <path d="M392.065 848.043C395.014 861.963 390.574 877.071 379.167 887.05L374.59 891.055C357.848 905.703 332.182 903.965 317.558 887.194L234.881 792.372C220.256 775.601 221.991 749.895 238.733 735.247L247.201 729" fill="#FBFBFB"/>
      <path d="M392.065 848.043C395.014 861.963 390.574 877.071 379.167 887.05L374.59 891.055C357.848 905.703 332.182 903.965 317.558 887.194L234.881 792.372C220.256 775.601 221.991 749.895 238.733 735.247L247.201 729" stroke="#232323" stroke-width="2" stroke-miterlimit="10"/>
      <path d="M402.7 778.12L408.001 784.829C421.246 802.645 417.557 828.095 399.8 841.389L394.945 845.022C377.192 858.313 351.829 854.612 338.584 836.792C338.584 836.792 244.809 727.086 237.389 716.502C227.988 703.105 221.677 682.014 245.283 658.785C254.754 649.464 268.485 649 268.485 649" fill="#FBFBFB"/>
      <path d="M402.7 778.12L408.001 784.829C421.246 802.645 417.557 828.095 399.8 841.389L394.945 845.022C377.192 858.313 351.829 854.612 338.584 836.792C338.584 836.792 244.809 727.086 237.389 716.502C227.988 703.105 221.677 682.014 245.283 658.785C254.754 649.464 268.485 649 268.485 649" stroke="#232323" stroke-width="2" stroke-miterlimit="10"/>
      <path d="M344.928 613.526L424.824 710.654C439.013 727.904 436.532 753.39 419.282 767.58L414.587 771.442C397.337 785.631 371.851 783.15 357.661 765.901L277.766 668.772C263.576 651.522 266.057 626.036 283.307 611.847L288.003 607.984C305.252 593.795 330.739 596.276 344.928 613.526Z" fill="#FBFBFB" stroke="#232323" stroke-width="2" stroke-miterlimit="10"/>
      <path d="M428.451 533C318.823 533 229.951 501.436 229.951 462.5C229.951 423.564 318.823 392 428.451 392C538.08 392 626.951 423.564 626.951 462.5C626.951 501.436 538.08 533 428.451 533Z" stroke="#232323" stroke-width="2" stroke-miterlimit="10"/>
      <path d="M621.951 479L448.957 690.304C446.504 693.326 443.411 695.764 439.902 697.441C436.393 699.118 432.556 699.992 428.669 700V700C424.821 700.007 421.019 699.166 417.533 697.536C414.046 695.906 410.96 693.527 408.493 690.568L237.951 482.05" stroke="#232323" stroke-width="2" stroke-miterlimit="10"/>
      <path d="M415.951 769.836V908.747C415.951 908.747 419.688 917 427.918 917C436.148 917 440.951 908.747 440.951 908.747V697" stroke="#232323" stroke-width="2" stroke-miterlimit="10"/>
      <path d="M415.951 908.306C415.951 925.148 406.957 936.024 385.15 936.024C373.865 936.024 349.721 935.994 339.04 935.994C325.541 935.994 300.951 935.383 300.951 954H427.848L559.951 953.914C559.951 953.914 559.148 935.671 537.666 935.671C523.235 935.671 492.494 936.072 474.845 936.072C449.764 936.072 440.951 923.286 440.951 908" stroke="#232323" stroke-width="2" stroke-miterlimit="10"/>
      <path d="M437.604 481C472.031 481 476.539 501.117 513.424 501.117C557.634 501.117 576.951 511.376 576.951 527.385C576.951 548.021 529.409 575 440.472 575C388.831 575 380.766 563.912 349.479 554.066C320.788 545.036 276.378 543.133 269.968 517.947C264.639 497.013 280.614 481.825 309.313 485.52C325.995 487.669 348.751 495.378 365.462 495.378C395.492 495.363 404.406 481 437.604 481Z" stroke="#232323" stroke-width="2" stroke-miterlimit="10"/>
      <path d="M415.617 495.959L413.711 490.85L459.684 473.692L448.054 442.532L360.723 504.807L377.882 550.78C386.27 573.256 411.523 584.782 433.998 576.393L515.728 545.889L487.131 469.268L415.617 495.959ZM492.167 513.946L471.734 521.572L467.921 511.355L488.354 503.729L492.167 513.946Z" fill="#232323"/>
      <path d="M346.951 901C346.951 901 383.277 935.641 417.451 954" stroke="#232323" stroke-width="2" stroke-miterlimit="10"/>
      <path d="M261.144 378L384.321 634.799C384.687 635.562 384.898 636.388 384.942 637.232C384.987 638.075 384.864 638.919 384.58 639.716C384.296 640.512 383.857 641.245 383.288 641.872C382.72 642.5 382.032 643.01 381.265 643.373C380.498 643.737 379.666 643.947 378.817 643.991C377.969 644.035 377.119 643.913 376.318 643.631C375.517 643.349 374.78 642.913 374.148 642.348C373.517 641.782 373.003 641.099 372.638 640.336L249.951 384.547" stroke="#232323" stroke-width="2" stroke-miterlimit="10"/>
      <path d="M214.495 309L196.573 271.181C195.844 269.644 195.752 267.879 196.318 266.275C196.884 264.67 198.061 263.357 199.59 262.624V262.624C201.12 261.892 202.876 261.8 204.473 262.369C206.07 262.938 207.377 264.121 208.107 265.658L225.951 303.197" stroke="#232323" stroke-width="2" stroke-miterlimit="10"/>
      <path d="M537.951 545C534.637 545 531.951 542.09 531.951 538.5C531.951 534.91 534.637 532 537.951 532C541.265 532 543.951 534.91 543.951 538.5C543.951 542.09 541.265 545 537.951 545Z" stroke="#232323" stroke-width="2" stroke-miterlimit="10"/>
      <path d="M562.451 348C558.861 348 555.951 345.09 555.951 341.5C555.951 337.91 558.861 335 562.451 335C566.041 335 568.951 337.91 568.951 341.5C568.951 345.09 566.041 348 562.451 348Z" stroke="#232323" stroke-width="2" stroke-miterlimit="10"/>
      <path d="M55.4512 419C51.8614 419 48.9512 416.09 48.9512 412.5C48.9512 408.91 51.8614 406 55.4512 406C59.0411 406 61.9512 408.91 61.9512 412.5C61.9512 416.09 59.0411 419 55.4512 419Z" stroke="#232323" stroke-width="2" stroke-miterlimit="10"/>
      <path d="M434.451 654C431.966 654 429.951 651.985 429.951 649.5C429.951 647.015 431.966 645 434.451 645C436.936 645 438.951 647.015 438.951 649.5C438.951 651.985 436.936 654 434.451 654Z" stroke="#232323" stroke-width="2" stroke-miterlimit="10"/>
      <path d="M499.451 448C496.966 448 494.951 445.985 494.951 443.5C494.951 441.015 496.966 439 499.451 439C501.936 439 503.951 441.015 503.951 443.5C503.951 445.985 501.936 448 499.451 448Z" stroke="#232323" stroke-width="2" stroke-miterlimit="10"/>
      <path d="M668.451 421C665.966 421 663.951 418.985 663.951 416.5C663.951 414.015 665.966 412 668.451 412C670.936 412 672.951 414.015 672.951 416.5C672.951 418.985 670.936 421 668.451 421Z" stroke="#232323" stroke-width="2" stroke-miterlimit="10"/>
      <path d="M200.451 463C197.966 463 195.951 460.985 195.951 458.5C195.951 456.015 197.966 454 200.451 454C202.936 454 204.951 456.015 204.951 458.5C204.951 460.985 202.936 463 200.451 463Z" stroke="#232323" stroke-width="2" stroke-miterlimit="10"/>
      <path d="M581.451 611C578.966 611 576.951 608.761 576.951 606C576.951 603.239 578.966 601 581.451 601C583.936 601 585.951 603.239 585.951 606C585.951 608.761 583.936 611 581.451 611Z" stroke="#232323" stroke-width="2" stroke-miterlimit="10"/>
      <path d="M339.451 453C335.861 453 332.951 450.09 332.951 446.5C332.951 442.91 335.861 440 339.451 440C343.041 440 345.951 442.91 345.951 446.5C345.951 450.09 343.041 453 339.451 453Z" stroke="#232323" stroke-width="2" stroke-miterlimit="10"/>
      <path d="M615.951 542.124V542.88C626.644 542.88 632.891 549.352 632.891 560H633.959C633.959 549.309 640.363 542.882 650.951 542.882V542.126C640.353 542.126 633.947 535.642 633.947 525H632.893C632.893 535.64 626.646 542.124 615.951 542.124Z" stroke="#232323" stroke-width="2" stroke-miterlimit="10"/>
      <path d="M638.951 276.933V278.079C655.134 278.079 664.59 287.887 664.59 304H666.218C666.218 287.81 675.91 278.079 691.951 278.079V276.933C675.9 276.933 666.214 267.115 666.214 251H664.608C664.592 267.115 655.136 276.933 638.951 276.933Z" stroke="#232323" stroke-width="2" stroke-miterlimit="10"/>
      <path d="M428.951 355.741V357.273C450.941 357.273 463.789 370.42 463.789 392H465.986C465.986 370.312 479.155 357.273 500.951 357.273V355.739C479.153 355.739 465.98 342.592 465.98 321H463.789C463.791 342.59 450.943 355.741 428.951 355.741Z" stroke="#232323" stroke-width="2" stroke-miterlimit="10"/>
      <path d="M830 837.484C829.41 837.484 559.232 837.362 558.457 837.124C550.268 834.611 532.974 819.139 532.24 797.424C531.091 763.331 546.105 730.767 554.084 709.865C566.881 676.342 560.976 655.638 543.256 641.835C525.537 628.031 495.141 633.177 480.665 651.701C466.189 670.225 440.957 696.497 440.957 780.402C440.957 835.976 466.253 871.614 490.089 890.518C515.107 910.355 546.393 912.749 556.588 912.978C558.753 913.027 829.451 912.978 829.451 912.978" fill="white"/>
      <path d="M830 837.484L829.451 912.978C829.451 912.978 558.753 913.027 556.588 912.978C546.393 912.748 515.107 910.355 490.089 890.518C466.253 871.614 440.957 835.976 440.957 780.402C440.957 696.497 466.189 670.225 480.665 651.701C495.141 633.177 525.537 628.031 543.256 641.835C560.976 655.638 566.881 676.342 554.084 709.865C546.106 730.767 531.091 763.331 532.24 797.424C532.974 819.139 550.268 834.611 558.457 837.124C559.232 837.362 829.41 837.484 830 837.484Z" stroke="#232323" stroke-width="2" stroke-miterlimit="10"/>
      <path d="M560.51 837.484C553.684 837.484 533.037 821.194 532.234 797.424C531.085 763.331 546.1 730.767 554.079 709.865C566.875 676.342 560.97 655.638 543.251 641.835C525.531 628.031 495.135 633.177 480.659 651.701C466.183 670.225 440.951 696.497 440.951 780.402C440.951 835.976 466.247 871.614 490.084 890.518C520.415 914.569 559.961 912.978 559.961 912.978" fill="#FBFBFB"/>
      <path d="M559.961 912.978C559.961 912.978 520.415 914.569 490.084 890.518C466.247 871.614 440.951 835.976 440.951 780.402C440.951 696.497 466.183 670.225 480.659 651.701C495.135 633.177 525.531 628.031 543.251 641.835C560.97 655.638 566.875 676.342 554.079 709.865C546.1 730.767 531.085 763.331 532.234 797.424C533.037 821.194 553.684 837.484 560.51 837.484H829.451" stroke="#232323" stroke-width="2" stroke-miterlimit="10"/>
      <path d="M548.951 647C548.951 647 537.387 676.569 533.463 692.043C529.943 705.891 531.751 720.985 547.717 726" stroke="#232323" stroke-width="2" stroke-miterlimit="10"/>
      <path d="M569.951 432C569.951 432 515.229 407.927 431.118 409.037C338.681 410.258 301.951 426.125 301.951 426.125" stroke="#232323" stroke-width="2" stroke-miterlimit="10"/>
      <path d="M433.951 740.348L416.512 721.647C411.055 715.799 403.479 712.337 395.448 712.023C387.418 711.709 379.59 714.568 373.685 719.972V719.972C367.784 725.38 364.292 732.889 363.975 740.848C363.658 748.807 366.543 756.565 371.995 762.416L388.391 780" stroke="#232323" stroke-width="2" stroke-miterlimit="10"/>
      <path d="M415.951 813.349L398.515 794.648C393.059 788.799 385.482 785.337 377.451 785.023C369.421 784.709 361.593 787.569 355.688 792.973V792.973C352.765 795.65 350.403 798.871 348.737 802.453C347.07 806.035 346.131 809.907 345.975 813.848C345.818 817.79 346.446 821.723 347.823 825.424C349.2 829.124 351.299 832.52 354.001 835.417L370.394 853" stroke="#232323" stroke-width="2" stroke-miterlimit="10"/>
      <path d="M338.325 836C336.225 837.169 334.272 838.588 332.51 840.226V840.226C326.715 845.61 323.285 853.086 322.974 861.011C322.663 868.935 325.496 876.659 330.85 882.485L346.951 900" stroke="#232323" stroke-width="2" stroke-miterlimit="10"/>
      <path d="M391.951 861L382.951 851" stroke="#232323" stroke-width="2" stroke-miterlimit="10"/>
      <path d="M376.941 319.077C373.336 320.883 370.318 323.671 368.235 327.118C366.153 330.565 365.091 334.53 365.174 338.555C365.245 341.561 364.461 344.527 362.913 347.108C361.366 349.689 359.117 351.78 356.427 353.138C353.73 354.48 350.706 355.033 347.707 354.732C344.708 354.431 341.855 353.288 339.48 351.437C336.292 348.971 332.47 347.456 328.456 347.066C324.441 346.677 320.398 347.429 316.794 349.236C313.19 351.043 310.172 353.831 308.09 357.278C306.007 360.724 304.945 364.689 305.026 368.712C305.097 371.719 304.314 374.684 302.766 377.265C301.219 379.846 298.97 381.937 296.281 383.296C293.584 384.639 290.561 385.192 287.561 384.891C284.562 384.589 281.709 383.447 279.334 381.595C276.146 379.126 272.323 377.608 268.306 377.217C264.29 376.826 260.245 377.578 256.639 379.386C253.033 381.194 250.014 383.983 247.931 387.432C245.848 390.88 244.786 394.847 244.868 398.872C244.94 401.879 244.157 404.845 242.61 407.426C241.062 410.007 238.813 412.098 236.124 413.456C233.426 414.798 230.403 415.351 227.403 415.05C224.404 414.749 221.552 413.606 219.176 411.754C215.989 409.288 212.166 407.772 208.152 407.382C204.137 406.993 200.093 407.745 196.489 409.552C192.884 411.359 189.866 414.147 187.784 417.594C185.701 421.041 184.639 425.006 184.72 429.03C184.793 432.037 184.01 435.003 182.462 437.584C180.914 440.165 178.665 442.256 175.976 443.614C173.278 444.957 170.255 445.509 167.256 445.208C164.256 444.907 161.404 443.764 159.029 441.912C156.486 439.947 153.531 438.579 150.385 437.912C147.238 437.245 143.981 437.295 140.857 438.059C137.733 438.823 134.822 440.281 132.341 442.324C129.861 444.367 127.874 446.943 126.53 449.859C125.092 452.991 120.512 452.595 119.605 449.272C106.879 403.108 128.073 352.888 172.59 330.578L267.611 282.941C312.366 260.499 365.731 273.757 395.166 311.963C397.357 314.806 394.621 318.745 391.168 317.748C386.592 316.411 381.722 316.679 376.941 319.077Z" fill="#FBFBFB" stroke="#232323" stroke-width="2" stroke-miterlimit="10"/>
      <path d="M177.951 335C177.951 335 150.86 379.656 169.494 433" stroke="#232323" stroke-width="2" stroke-miterlimit="10"/>
      <path d="M214.704 321C214.704 321 205.584 361.942 228.951 400" stroke="#232323" stroke-width="2" stroke-miterlimit="10"/>
      <path d="M240.951 310C240.951 310 278.305 326.151 290.951 370" stroke="#232323" stroke-width="2" stroke-miterlimit="10"/>
      <path d="M349.951 338C349.951 338 324.237 291.318 277.951 293.047" stroke="#232323" stroke-width="2" stroke-miterlimit="10"/>
      <path d="M647.951 377L675 352" stroke="#232323" stroke-width="2" stroke-miterlimit="10"/>
      <path d="M511.951 305L564.951 233" stroke="#232323" stroke-width="2" stroke-miterlimit="10"/>
      <path d="M411.951 268V218" stroke="#232323" stroke-width="2" stroke-miterlimit="10"/>
      <path d="M129.951 312L52.9512 254" stroke="#232323" stroke-width="2" stroke-miterlimit="10"/>
      <path d="M85.9512 374L0.951175 355" stroke="#232323" stroke-width="2" stroke-miterlimit="10"/>
      <path d="M69.9512 453L8.95117 457" stroke="#232323" stroke-width="2" stroke-miterlimit="10"/>
      <path d="M250.951 215L259.951 252" stroke="#232323" stroke-width="2" stroke-miterlimit="10"/>
    </g>
    <path d="M711 755H615V955H711V755Z" fill="#FBFBFB"/>
    <path d="M711 955V755H615V955" stroke="#232323" stroke-width="2"/>
    <circle cx="659" cy="791" r="11" fill="#232323" stroke="#232323" stroke-width="2"/>
    <path d="M560 954L712 954" stroke="#232323" stroke-width="2"/>
  </g>
  <defs>
    <clipPath id="clip0">
      <rect width="712" height="955" fill="white"/>
    </clipPath>
    <clipPath id="clip1">
      <rect width="120.744" height="158.638" fill="white" transform="translate(302.084 100.367) rotate(142.804)"/>
    </clipPath>
    <clipPath id="clip2">
      <rect width="90.0147" height="155.136" fill="white" transform="matrix(-0.613192 0.789934 -0.790281 -0.612745 302.24 76.9761)"/>
    </clipPath>
    <clipPath id="clip3">
      <rect width="712" height="740" fill="white" transform="matrix(-1 0 0 1 712 215)"/>
    </clipPath>
  </defs>
</svg>
