<svg width="443" height="528" viewBox="0 0 443 528" fill="none" xmlns="http://www.w3.org/2000/svg">
  <g clip-path="url(#clip0)">
    <path fill-rule="evenodd" clip-rule="evenodd" d="M87 310.07V625.07H355V310.161" fill="#FBFBFB"/>
    <path d="M87 310.07V625.07H355V310.161" stroke="#232323" stroke-width="2"/>
    <path fill-rule="evenodd" clip-rule="evenodd" d="M418.54 276.735C418.54 301.993 330.443 322.469 221.77 322.469C113.096 322.469 25 301.993 25 276.735C25 251.476 113.096 231 221.77 231C330.443 231 418.54 251.476 418.54 276.735Z" fill="white"/>
    <path d="M418.54 276.735C418.54 301.993 330.443 322.469 221.77 322.469C113.096 322.469 25 301.993 25 276.735C25 251.476 113.096 231 221.77 231C330.443 231 418.54 251.476 418.54 276.735" stroke="#232323" stroke-width="2"/>
    <path fill-rule="evenodd" clip-rule="evenodd" d="M419 276.5C419 301.629 330.8 322 222 322C113.199 322 25 301.629 25 276.5C25 251.371 113.199 231 222 231C330.8 231 419 251.371 419 276.5Z" fill="#FBFBFB" stroke="#232323" stroke-width="2"/>
    <path fill-rule="evenodd" clip-rule="evenodd" d="M360 276.447C360 290.53 298.216 301.947 222 301.947C145.785 301.947 84 290.53 84 276.447C84 262.363 145.785 250.947 222 250.947C298.216 250.947 360 262.363 360 276.447Z" fill="#232323"/>
    <path d="M360 276.447C360 290.53 298.216 301.947 222 301.947C145.785 301.947 84 290.53 84 276.447C84 262.363 145.785 250.947 222 250.947C298.216 250.947 360 262.363 360 276.447" stroke="#232323" stroke-width="2"/>
    <g clip-path="url(#clip1)">
      <path d="M211.319 303.356L173.659 303.924C173.211 271.707 114.736 226.49 113.72 157.065C112.824 97.9501 124.8 65.0158 132.864 49.9533C139.106 38.2978 145.676 31.2148 157.711 31.0355C171.21 30.8263 179.811 38.238 183.604 62.5951C196.207 143.407 227.117 200.309 211.319 303.356Z" fill="#FBFBFB" stroke="#232323" stroke-width="2" stroke-miterlimit="10"/>
      <path d="M202.564 303.67C191.374 280.787 183.968 237.66 179.93 201.297C175.451 161.16 172.375 102.822 169.209 65.6145C168.014 51.6877 163.415 46.1588 156.666 46.0691C148.99 45.9795 144.66 53.7199 141.793 64.5685C138.538 76.9114 124.501 123.474 129.16 171.59C134.427 226.235 183.092 268.82 188.066 303.67" stroke="#232323" stroke-width="2" stroke-miterlimit="10"/>
      <path d="M231.06 303.356L268.72 303.924C269.198 271.737 327.673 226.49 328.689 157.065C329.555 97.9501 317.609 65.0457 309.515 49.9533C303.274 38.2978 296.703 31.2148 284.668 31.0355C271.169 30.8263 262.568 38.238 258.775 62.5951C246.202 143.407 215.262 200.309 231.06 303.356Z" fill="#FBFBFB" stroke="#232323" stroke-width="2" stroke-miterlimit="10"/>
      <path d="M239.814 303.67C251.004 280.787 258.41 237.66 262.448 201.297C266.928 161.16 270.004 102.822 273.169 65.6145C274.364 51.6877 278.963 46.1588 285.713 46.0691C293.388 45.9795 297.718 53.7199 300.585 64.5685C303.871 76.9114 317.877 123.474 313.248 171.59C307.981 226.235 259.316 268.82 254.317 303.67" stroke="#232323" stroke-width="2" stroke-miterlimit="10"/>
    </g>
    <path d="M360 276.447C360 290.53 298.216 301.947 222 301.947C145.785 301.947 84 290.53 84 276.447" stroke="#232323" stroke-width="2"/>
  </g>
  <defs>
    <clipPath id="clip0">
      <rect width="443" height="528" fill="white"/>
    </clipPath>
    <clipPath id="clip1">
      <rect width="218.407" height="299.465" fill="white" transform="translate(112 1)"/>
    </clipPath>
  </defs>
</svg>
