<svg width="396" height="393" viewBox="0 0 396 393" fill="none" xmlns="http://www.w3.org/2000/svg">
  <g clip-path="url(#clip0)">
    <g clip-path="url(#clip1)">
      <path fill-rule="evenodd" clip-rule="evenodd" d="M197.947 19.0918C121.343 19.0918 59.2431 30.5671 59.2431 44.7219C59.2431 44.8898 59.2518 45.0573 59.2692 45.2243L0.947266 45.2243C0.947268 20.7998 89.1476 0.999847 197.947 0.999857C306.748 0.999866 394.947 20.7999 394.947 45.2244L336.625 45.2244C336.643 45.0573 336.651 44.8898 336.651 44.722C336.651 30.5671 274.551 19.0918 197.947 19.0918Z" fill="#FBFBFB"/>
      <path d="M0.947267 45.2243C0.947269 20.7998 89.1476 0.999849 197.947 0.999858C306.748 0.999868 394.947 20.7999 394.947 45.2244" stroke="#232323" stroke-width="2"/>
      <path d="M59.2432 45.2243C59.2432 30.7919 121.343 19.0917 197.947 19.0917C274.551 19.0917 336.651 30.792 336.651 45.2244" stroke="#232323" stroke-width="2"/>
      <path fill-rule="evenodd" clip-rule="evenodd" d="M336.652 44.7219C336.652 58.8768 274.552 70.352 197.948 70.352C121.344 70.352 59.2434 58.8768 59.2434 44.7219C59.2434 30.5661 121.344 19.0918 197.948 19.0918C274.552 19.0918 336.652 30.5661 336.652 44.7219" fill="#232323"/>
      <path d="M336.652 44.7219C336.652 58.8768 274.552 70.352 197.948 70.352C121.344 70.352 59.2434 58.8768 59.2434 44.7219C59.2434 30.5661 121.344 19.0918 197.948 19.0918C274.552 19.0918 336.652 30.5661 336.652 44.7219" stroke="#232323" stroke-width="2"/>
    </g>
  </g>
  <defs>
    <clipPath id="clip0">
      <rect width="396" height="393" fill="white"/>
    </clipPath>
    <clipPath id="clip1">
      <rect width="397" height="72" fill="white" transform="translate(396 72) rotate(-180)"/>
    </clipPath>
  </defs>
</svg>
