<svg width="396" height="393" viewBox="0 0 396 393" fill="none" xmlns="http://www.w3.org/2000/svg">
  <g clip-path="url(#clip0)">
    <path fill-rule="evenodd" clip-rule="evenodd" d="M62.2585 78V2081.17H331.626V78.5741" fill="#FBFBFB"/>
    <path d="M62.2585 78V2081.17H331.626V78.5741" stroke="#232323" stroke-width="2"/>
    <path fill-rule="evenodd" clip-rule="evenodd" d="M197.948 71.3572C274.552 71.3572 336.651 59.882 336.651 45.7271C336.651 45.5592 336.643 45.3917 336.625 45.2246H394.947C394.947 69.6491 306.747 89.4491 197.947 89.4491C89.1467 89.4491 0.947266 69.6491 0.947266 45.2246H59.2694C59.252 45.3917 59.2433 45.5592 59.2433 45.7271C59.2433 59.882 121.344 71.3572 197.948 71.3572Z" fill="#FBFBFB"/>
    <path d="M394.947 45.2246C394.947 69.6491 306.747 89.4491 197.947 89.4491C89.1467 89.4491 0.947266 69.6491 0.947266 45.2246" stroke="#232323" stroke-width="2"/>
    <path d="M336.651 45.2246C336.651 59.657 274.552 71.3573 197.948 71.3573C121.344 71.3573 59.2432 59.657 59.2432 45.2246" stroke="#232323" stroke-width="2"/>
  </g>
  <defs>
    <clipPath id="clip0">
      <rect width="396" height="393" fill="white"/>
    </clipPath>
  </defs>
</svg>
