<svg width="375" height="256" viewBox="0 0 375 256" fill="none" xmlns="http://www.w3.org/2000/svg">
  <g clip-path="url(#clip0)">
    <g clip-path="url(#clip1)">
      <path d="M11.6861 128.292C11.6861 128.292 13.9711 148.747 36.0439 152.052C55.1726 154.923 68.3675 142.31 68.3675 142.31" stroke="#FBFBFB" stroke-miterlimit="10"/>
      <path d="M16.9534 126.041C16.9534 126.041 19.8016 145.537 40.2403 144.809C51.499 144.412 58.0479 135.682 58.0479 135.682" stroke="#FBFBFB" stroke-miterlimit="10"/>
      <g clip-path="url(#clip2)">
        <path d="M169.739 174.244C169.739 174.244 174.103 174.128 174.02 169.796C174.104 174.16 178.469 174.076 178.469 174.076C178.469 174.076 174.1 173.936 174.188 178.525C174.132 173.935 169.739 174.244 169.739 174.244Z" stroke="#FBFBFB"/>
        <path d="M24.9101 176.455C24.9101 176.455 32.2293 176.26 32.0894 168.994C32.2303 176.314 39.5505 176.173 39.5505 176.173C39.5505 176.173 32.2231 175.937 32.3712 183.634C32.2769 175.936 24.9101 176.455 24.9101 176.455Z" fill="#FBFBFB"/>
        <path d="M292.338 44.1389C292.338 44.1389 296.52 44.0277 296.44 39.8755C296.521 44.0584 300.704 43.9779 300.704 43.9779C300.704 43.9779 296.517 43.8431 296.601 48.2414C296.547 43.8425 292.338 44.1389 292.338 44.1389Z" fill="#FBFBFB"/>
        <path d="M184.415 95.6466C184.415 95.6466 196.636 94.8851 203.062 106.471C208.69 116.644 206.5 127.869 212.011 131.992C218.704 136.995 232.05 128.242 238.141 139.045C242.52 146.818 237.051 160.531 241.452 169.505C244.797 176.301 254.663 173.273 260.7 180.318C265.027 185.366 265.854 197.135 255.34 200.664C243.108 204.772 230.756 194.784 227.411 178.234C224.066 161.683 225.644 149.924 207.292 146.556C182.564 142.032 194.066 117.602 187.323 111.98C180.543 106.378 184.415 95.6466 184.415 95.6466Z" stroke="#FBFBFB" stroke-miterlimit="10"/>
        <path d="M180.898 198.074C180.898 198.074 201.132 195.674 203.578 181.117C205.971 166.805 194.722 160.443 191.227 151.733C187.733 143.041 192.239 133.989 190.727 125.748" stroke="#FBFBFB" stroke-miterlimit="10"/>
        <path d="M171.137 188.978C165.793 189.08 161.544 193.496 161.647 198.84C161.75 204.184 166.165 208.433 171.509 208.33C176.853 208.227 181.102 203.811 180.999 198.467C180.896 193.123 176.481 188.875 171.137 188.978Z" stroke="#FBFBFB" stroke-miterlimit="10"/>
        <path d="M255.154 191.007C255.154 191.007 245.279 191.592 239.625 184.953C231.279 175.133 235.672 152.381 229.773 143.736C224.473 135.963 212.805 141.036 206.309 133.606C197.007 122.959 205.018 113.388 190.362 105.813" stroke="#FBFBFB" stroke-miterlimit="10"/>
        <path d="M215.348 196.002C215.348 196.002 209.455 204.273 203.667 201.358C195.449 197.231 202.468 185.969 203.023 183.533" stroke="#FBFBFB" stroke-miterlimit="10"/>
        <path d="M219.07 185.273C215.646 185.339 212.923 188.168 212.989 191.593C213.055 195.017 215.884 197.74 219.309 197.674C222.733 197.608 225.455 194.778 225.389 191.354C225.324 187.93 222.494 185.207 219.07 185.273Z" stroke="#FBFBFB" stroke-miterlimit="10"/>
        <path d="M217.155 101.369C223.564 104.272 219.435 109.483 224.356 114.219C229.278 118.954 238.307 116.375 249.584 121.289C260.862 126.203 262.327 139.783 255.834 147.163C249.322 154.543 240.208 151.692 240.208 151.692" stroke="#FBFBFB" stroke-miterlimit="10"/>
        <path d="M214.422 172.281C214.422 172.281 220.258 166.906 216.501 162.129C211.396 155.649 201.588 165.63 193.993 156.717" stroke="#FBFBFB" stroke-miterlimit="10"/>
        <path d="M190.781 128.473C190.781 128.473 191.756 146.949 181.865 157.458C172.785 167.105 156.75 171.85 148.956 184.893C141.163 197.937 144.723 206.139 137.777 211.497C131.499 216.355 121.84 210.601 124.472 200.871C126.333 194.012 135.169 191.192 135.169 191.192C135.169 191.192 128.367 183.466 134.059 175.5C140.117 167.02 154.06 167.86 154.06 167.86C154.06 167.86 148.319 162.539 154.242 156.768C160.33 150.861 172.365 156.024 177.097 150.896C181.147 146.495 177.591 134.572 177.591 134.572" stroke="#FBFBFB" stroke-miterlimit="10"/>
        <path d="M201.979 168.423C205.042 177.16 198.323 186.462 191.008 184.347C184.752 182.532 189.537 173.324 189.537 173.324" stroke="#FBFBFB" stroke-miterlimit="10"/>
        <path d="M190.493 169.208C189.258 169.232 188.276 170.252 188.3 171.487C188.324 172.722 189.344 173.703 190.579 173.68C191.813 173.656 192.795 172.636 192.771 171.401C192.748 170.166 191.727 169.184 190.493 169.208Z" stroke="#FBFBFB" stroke-miterlimit="10"/>
        <path d="M212.923 171.614C211.688 171.638 210.707 172.658 210.73 173.893C210.754 175.128 211.774 176.11 213.009 176.086C214.244 176.062 215.226 175.042 215.202 173.807C215.178 172.572 214.158 171.591 212.923 171.614Z" stroke="#FBFBFB" stroke-miterlimit="10"/>
        <path d="M157.854 60.2108C157.277 60.2219 156.818 60.6991 156.829 61.2767C156.84 61.8542 157.317 62.3134 157.895 62.3023C158.472 62.2912 158.931 61.814 158.92 61.2364C158.909 60.6589 158.432 60.1997 157.854 60.2108Z" fill="#FBFBFB"/>
        <path d="M164.903 205.844C164.903 205.844 170.007 204.449 170.14 198.639C170.248 193.543 165.61 190.832 165.61 190.832" stroke="#FBFBFB" stroke-miterlimit="10"/>
        <path d="M177.166 206.322C177.166 206.322 174.039 203.018 174.024 199.278C174.006 194.467 177.308 191.189 177.308 191.189" stroke="#FBFBFB" stroke-miterlimit="10"/>
        <path d="M174.767 202.703C174.767 202.703 172.036 200.463 169.142 202.455" stroke="#FBFBFB" stroke-miterlimit="10"/>
        <path d="M175.259 194.18C175.259 194.18 174.315 195.908 172.307 196.078C170.469 196.245 169.643 195.34 168.966 194.357" stroke="#FBFBFB" stroke-miterlimit="10"/>
        <path d="M223.855 195.631C223.855 195.631 224.464 193.12 223.226 190.306C221.674 186.783 219.514 185.885 218.186 185.253" stroke="#FBFBFB" stroke-miterlimit="10"/>
        <path d="M351.215 99.4347C353.554 98.5097 355.545 96.79 357.078 94.3376C356.377 97.1498 356.523 99.7804 357.487 102.106C358.562 104.701 360.632 106.86 363.563 108.451C360.372 107.44 357.372 107.474 354.757 108.524C352.396 109.472 350.392 111.229 348.859 113.709C349.568 110.884 349.433 108.224 348.472 105.871C347.411 103.27 345.363 101.096 342.442 99.5039C345.618 100.488 348.605 100.467 351.215 99.4347Z" stroke="#FBFBFB" stroke-miterlimit="10" stroke-linecap="round" stroke-linejoin="round"/>
        <path d="M324.729 94.7997C325.123 95.2827 325.62 95.6702 326.202 95.9592C325.567 96.1185 324.996 96.3938 324.506 96.7847C324.039 97.1568 323.659 97.6224 323.37 98.1682C323.204 97.579 322.934 97.0468 322.562 96.5851C322.162 96.0882 321.655 95.6881 321.059 95.3895C321.7 95.2342 322.278 94.9619 322.775 94.572C323.242 94.2057 323.623 93.7464 323.914 93.206C324.08 93.8018 324.352 94.3374 324.729 94.7997Z" stroke="#FBFBFB" stroke-miterlimit="10" stroke-linecap="round" stroke-linejoin="round"/>
        <path d="M238.077 81.2573C238.077 81.2573 258.885 69.7848 282.074 80.6309C301.694 89.8228 303.282 111.867 315.535 122.82C326.588 132.728 342.788 126.239 348.335 115.283" stroke="#FBFBFB" stroke-miterlimit="10" stroke-linecap="round" stroke-linejoin="round"/>
        <path d="M240.76 84.689C240.76 84.689 263.045 77.4659 277.999 91.3411C290.33 102.778 292.83 123.975 306.492 134.719C323.457 148.072 342.771 144.3 342.771 144.3C342.771 144.3 323.508 175.175 298.51 160.627C279.245 149.402 276.228 119.055 267.399 106.144C257.241 91.3167 247.885 97.337 247.885 97.337" stroke="#FBFBFB" stroke-miterlimit="10" stroke-linecap="round" stroke-linejoin="round"/>
        <path d="M246.873 68.082C246.873 68.082 259.919 61.1208 272.02 61.1074C294.909 61.0697 305.489 74.3271 313.873 69.0482C326.291 61.2189 329.173 39.3222 341.184 36.8324C349.463 35.1122 358.821 44.2805 352.118 55.4999C346.054 65.6368 333.49 67.2439 333.49 67.2439C333.49 67.2439 340.512 76.7011 330.319 83.3045C319.349 90.4014 311.461 79.6544 311.461 79.6544C311.461 79.6544 305.954 85.7011 297.744 84.4387C290.233 83.2825 284.284 72.7214 270.489 71.9952C250.742 70.9566 236.381 80.9079 236.381 80.9079" stroke="#FBFBFB" stroke-miterlimit="10" stroke-linecap="round" stroke-linejoin="round"/>
        <path d="M307.961 112.924C315.542 122.733 325.839 120.848 327.597 114.554C328.894 109.907 321.525 105.699 323.379 98.4899" stroke="#FBFBFB" stroke-miterlimit="10" stroke-linecap="round" stroke-linejoin="round"/>
        <path d="M259.051 89.353C259.051 89.353 269.197 90.9964 275.711 100.934C282.215 110.85 290.308 134.089 297.709 142.444C305.9 151.659 315.079 150.404 315.079 150.404" stroke="#FBFBFB" stroke-miterlimit="10" stroke-linecap="round" stroke-linejoin="round"/>
      </g>
      <path d="M201.319 84.757C201.647 94.4011 200.021 103.173 197.15 109.555C194.264 115.969 190.2 119.816 185.727 119.968C181.253 120.12 176.938 116.559 173.622 110.356C170.324 104.184 168.105 95.5427 167.777 85.8987C167.449 76.2547 169.075 67.4829 171.946 61.101C174.832 54.6863 178.895 50.8399 183.369 50.6877C187.842 50.5354 192.158 54.0966 195.473 60.3002C198.772 66.472 200.991 75.113 201.319 84.757Z" fill="#232323" stroke="#FBFBFB"/>
      <g clip-path="url(#clip3)">
        <path d="M177.962 50.9427L242.856 48.8049L245.294 118.141L180.401 120.278L177.962 50.9427Z" fill="#232323" stroke="#FBFBFB"/>
      </g>
      <path d="M260.319 83.3693C260.833 98.4666 259.369 112.18 256.598 122.143C255.212 127.127 253.506 131.144 251.579 133.924C249.645 136.713 247.55 138.171 245.397 138.245C243.243 138.318 241.054 137.005 238.935 134.354C236.823 131.712 234.848 127.82 233.126 122.942C229.685 113.191 227.291 99.6082 226.777 84.511C226.263 69.4138 227.728 55.7001 230.499 45.7374C231.885 40.7532 233.59 36.7361 235.518 33.9566C237.452 31.1676 239.546 29.7091 241.7 29.6358C243.853 29.5625 246.042 30.8752 248.161 33.5262C250.273 36.1683 252.248 40.0601 253.97 44.9386C257.412 54.6897 259.805 68.2721 260.319 83.3693Z" fill="#232323" stroke="#FBFBFB"/>
      <path d="M244.777 120.059C249.689 119.892 253.121 103.585 252.442 83.6373C251.763 63.6893 247.23 47.6538 242.319 47.821C237.407 47.9882 233.975 64.2948 234.654 84.2427C235.333 104.191 239.865 120.226 244.777 120.059Z" fill="white"/>
      <path d="M196.621 115.174C197.447 95.7723 190.387 79.7151 180.851 79.3091C171.316 78.903 162.916 94.3018 162.09 113.703C161.264 133.105 168.324 149.162 177.859 149.568C187.395 149.974 195.795 134.575 196.621 115.174Z" fill="#232323" stroke="#FBFBFB" stroke-miterlimit="10"/>
      <path d="M177.903 149.627L117.786 147.041L120.78 76.7466L180.896 79.3047" fill="#232323"/>
      <path d="M177.903 149.627L117.786 147.041L120.78 76.7466L180.896 79.3047" stroke="#FBFBFB" stroke-miterlimit="10"/>
      <path d="M137.649 112.616C138.938 82.3573 132.252 57.4988 122.717 57.0928C113.181 56.6867 104.407 80.8868 103.118 111.145C101.83 141.404 108.515 166.262 118.051 166.668C127.586 167.074 136.361 142.874 137.649 112.616Z" fill="#232323" stroke="#FBFBFB" stroke-miterlimit="10"/>
      <path d="M129.65 113.241C130.499 93.299 127.207 76.9633 122.296 76.7542C117.386 76.5451 112.717 92.5418 111.868 112.484C111.018 132.426 114.311 148.761 119.221 148.971C124.132 149.18 128.801 133.183 129.65 113.241Z" fill="white"/>
      <g clip-path="url(#clip4)">
        <path d="M238.653 76.5359L272.052 69.6041C281.505 73.2051 286.636 76.9411 293.028 98.3218C294.513 103.273 296.809 110.43 300.095 115.201C311.303 131.316 328.767 134.782 328.767 134.782L289.967 143.604C280.199 140.678 269.937 133.386 264.625 116.372C257.153 92.3802 250.086 81.5323 238.653 76.5359Z" fill="#FBFBFB" stroke="#232323" stroke-miterlimit="10"/>
        <path d="M270.792 72.8L246.98 77.9763C246.98 77.9763 253.777 80.6771 259.944 93.1004C266.741 106.784 265.976 114.706 273.583 126.724C279.794 136.492 289.967 139.823 289.967 139.823L317.379 133.611C317.379 133.611 303.696 129.56 295.053 113.581C291.317 106.694 289.382 96.7914 286.636 90.3546" stroke="#232323" stroke-miterlimit="10"/>
        <path d="M292.803 132.216C296.134 132.216 298.835 130.684 298.835 128.795C298.835 126.906 296.134 125.374 292.803 125.374C289.472 125.374 286.771 126.906 286.771 128.795C286.771 130.684 289.472 132.216 292.803 132.216Z" stroke="#232323" stroke-miterlimit="10"/>
        <path d="M266.857 83.0395C270.154 82.5668 272.673 81.1064 272.483 79.7775C272.292 78.4487 269.465 77.7546 266.167 78.2273C262.869 78.7 260.351 80.1604 260.541 81.4893C260.732 82.8181 263.559 83.5122 266.857 83.0395Z" stroke="#232323" stroke-miterlimit="10"/>
        <path d="M257.469 88.5541C265.706 88.9592 268.722 100.482 268.722 100.482C268.722 100.482 270.072 96.6112 274.483 95.4409C279.03 94.2256 283.621 96.6562 284.836 101.428C285.916 105.839 283.981 109.755 280.92 111.69C277.814 113.626 274.798 112.816 274.798 112.816C274.798 112.816 274.573 115.921 276.689 119.612C277.589 121.188 278.309 122.583 279.03 123.708C280.515 126.184 280.65 129.245 279.345 131.811L278.804 132.936" stroke="#232323" stroke-miterlimit="10"/>
        <path d="M264.896 105.119C264.896 105.119 267.911 103.768 268.677 100.482C268.677 100.482 267.056 104.218 269.127 108.179C271.017 111.825 274.798 112.816 274.798 112.816C270.837 110.97 266.876 111.42 266.876 111.42" stroke="#232323" stroke-miterlimit="10" stroke-linecap="square" stroke-linejoin="bevel"/>
        <path d="M274.888 114.391C274.888 114.391 276.778 116.147 279.569 115.156C283.35 113.851 284.07 108.224 284.07 108.224" stroke="#232323" stroke-miterlimit="10"/>
        <path d="M284.971 105.524C284.971 105.524 286.366 102.193 285.376 98.5918C283.935 93.1904 278.399 90.9398 272.367 91.75C268.226 92.3351 266.471 94.9908 266.471 94.9908" stroke="#232323" stroke-miterlimit="10"/>
        <path d="M272.321 101.788C272.321 101.788 270.611 105.389 274.032 107.009" stroke="#232323" stroke-miterlimit="10"/>
        <path d="M276.328 101.518C277.124 101.518 277.768 100.873 277.768 100.077C277.768 99.2817 277.124 98.6368 276.328 98.6368C275.533 98.6368 274.888 99.2817 274.888 100.077C274.888 100.873 275.533 101.518 276.328 101.518Z" stroke="#232323" stroke-miterlimit="10"/>
        <path d="M278.039 106.784C278.835 106.784 279.479 106.139 279.479 105.344C279.479 104.548 278.835 103.903 278.039 103.903C277.244 103.903 276.599 104.548 276.599 105.344C276.599 106.139 277.244 106.784 278.039 106.784Z" stroke="#232323" stroke-miterlimit="10"/>
      </g>
      <g clip-path="url(#clip5)">
        <path d="M318.31 123.031L330.204 103.958C336.221 101.091 340.337 100.345 353.436 107.028C356.472 108.573 360.928 110.736 364.697 111.341C377.478 113.331 387.077 106.584 387.077 106.584L373.626 129.092C367.787 132.416 359.642 133.99 349.115 128.779C334.28 121.423 325.894 119.855 318.31 123.031Z" fill="#FBFBFB" stroke="#232323" stroke-miterlimit="10"/>
        <path d="M331.154 106.013L322.786 119.718C322.786 119.718 327.166 117.707 335.893 120.421C345.508 123.408 348.936 127.378 358.126 129.221C365.608 130.705 371.824 127.372 371.824 127.372L381.337 111.48C381.337 111.48 373.18 116.158 361.631 113.006C356.648 111.653 351.048 108.069 346.73 106.449" stroke="#232323" stroke-miterlimit="10"/>
        <path d="M369.489 122.558C371.005 120.971 371.504 118.987 370.603 118.127C369.703 117.267 367.744 117.857 366.228 119.445C364.712 121.033 364.213 123.017 365.114 123.877C366.014 124.736 367.973 124.146 369.489 122.558Z" stroke="#232323" stroke-miterlimit="10"/>
        <path d="M334.244 112.548C335.519 110.761 335.969 108.896 335.249 108.382C334.529 107.868 332.911 108.9 331.636 110.687C330.361 112.474 329.911 114.339 330.631 114.853C331.351 115.367 332.968 114.335 334.244 112.548Z" stroke="#232323" stroke-miterlimit="10"/>
        <path d="M332.6 119.532C336.541 115.79 343.406 119.596 343.406 119.596C343.406 119.596 342.175 117.191 343.624 114.556C345.114 111.836 348.362 110.754 351.189 112.346C353.783 113.838 354.769 116.543 354.298 118.882C353.808 121.243 352.049 122.312 352.049 122.312C352.049 122.312 353.427 123.833 356.149 124.504C357.309 124.792 358.302 125.083 359.166 125.252C361.022 125.671 362.543 126.999 363.171 128.789L363.462 129.558" stroke="#232323" stroke-miterlimit="10"/>
        <path d="M343.874 123.53C343.874 123.53 344.603 121.478 343.385 119.618C343.385 119.618 344.428 122.09 347.258 122.906C349.856 123.664 352.049 122.312 352.049 122.312C349.367 123.36 347.779 125.453 347.779 125.453" stroke="#232323" stroke-miterlimit="10" stroke-linecap="square" stroke-linejoin="bevel"/>
        <path d="M352.842 122.986C352.842 122.986 354.539 122.884 355.336 121.103C356.435 118.707 354.081 115.804 354.081 115.804" stroke="#232323" stroke-miterlimit="10"/>
        <path d="M353.202 114.146C353.202 114.146 352.25 111.965 350.083 110.798C346.853 109.027 343.261 110.642 340.902 113.885C339.297 116.125 339.764 118.17 339.764 118.17" stroke="#232323" stroke-miterlimit="10"/>
        <path d="M345.666 118.474C345.666 118.474 346.604 120.928 348.933 120.035" stroke="#232323" stroke-miterlimit="10"/>
        <path d="M347.361 116.442C347.723 116.063 347.709 115.462 347.329 115.1C346.95 114.738 346.349 114.752 345.987 115.131C345.625 115.51 345.639 116.111 346.019 116.473C346.398 116.835 346.999 116.821 347.361 116.442Z" stroke="#232323" stroke-miterlimit="10"/>
        <path d="M350.649 118.023C351.011 117.644 350.997 117.043 350.618 116.681C350.238 116.319 349.638 116.333 349.276 116.712C348.914 117.091 348.927 117.692 349.307 118.054C349.686 118.416 350.287 118.402 350.649 118.023Z" stroke="#232323" stroke-miterlimit="10"/>
      </g>
      <g clip-path="url(#clip6)">
        <path d="M344.399 170.103L348.431 173.975L353.048 180.374L365.382 205.407L356.007 201.649L344.399 170.103Z" fill="white" stroke="#232323"/>
        <path d="M358.289 203.994C331.768 190.238 309.484 206.353 309.484 206.353L273.53 163.195C273.53 163.195 310.166 142.822 339.444 164.095C366.401 183.724 356.801 223.925 356.801 223.925L384.739 256.108C384.739 256.108 389.086 223.156 362 189.099L347.127 171.224" fill="#FBFBFB"/>
        <path d="M358.289 203.994C331.768 190.238 309.484 206.353 309.484 206.353L273.53 163.195C273.53 163.195 310.166 142.822 339.444 164.095C366.401 183.724 356.801 223.925 356.801 223.925L384.739 256.108C384.739 256.108 389.086 223.156 362 189.099L347.127 171.224" stroke="#232323" stroke-miterlimit="10"/>
        <path d="M357.161 183.248C357.161 183.248 362.21 191.867 362.989 205.787C363.596 216.327 361.765 222.926 361.765 222.926L381.684 246.71C381.684 246.71 382.667 228.837 377.109 214.213" stroke="#232323" stroke-miterlimit="10"/>
        <path d="M315.305 159.84C315.305 159.84 302.682 156.826 282.562 164.902L311.145 199.085C311.145 199.085 321.317 192.602 338.091 193.303C347.872 193.752 357.909 199.202 357.909 199.202" stroke="#232323" stroke-miterlimit="10"/>
        <path d="M311.058 175.033C309.403 172.191 306.124 171.015 303.733 172.407C301.343 173.799 300.748 177.232 302.403 180.074C304.058 182.916 307.338 184.092 309.728 182.7C312.118 181.308 312.714 177.875 311.058 175.033Z" stroke="#232323" stroke-miterlimit="10"/>
        <path d="M373.807 215.892C372.676 212.017 370.653 209.199 369.29 209.597C367.927 209.994 367.738 213.458 368.869 217.333C370 221.208 372.022 224.027 373.386 223.629C374.749 223.231 374.938 219.767 373.807 215.892Z" stroke="#232323" stroke-miterlimit="10"/>
        <path d="M307.801 194.648C307.801 194.648 315.128 188.175 326.703 187.922C326.703 187.922 322.336 184.689 322.871 179.241C323.69 171.406 333.497 168.397 339.481 172.767C346.8 178.085 343.134 187.218 343.134 187.218C343.134 187.218 351.104 188.03 356.813 192.346" stroke="#232323" stroke-miterlimit="10"/>
        <path d="M331.345 180.637C331.295 179.666 330.468 178.92 329.498 178.969C328.527 179.019 327.78 179.846 327.83 180.816C327.88 181.787 328.707 182.533 329.677 182.484C330.648 182.434 331.394 181.607 331.345 180.637Z" stroke="#232323" stroke-miterlimit="10"/>
        <path d="M338.698 179.99C338.649 179.019 337.822 178.273 336.851 178.322C335.881 178.372 335.134 179.199 335.184 180.169C335.233 181.14 336.06 181.886 337.031 181.837C338.001 181.787 338.748 180.96 338.698 179.99Z" stroke="#232323" stroke-miterlimit="10"/>
        <path d="M331.187 193.453L326.703 187.922C326.703 187.922 329.609 190.416 335.695 190.173C340.836 189.978 343.205 187.281 343.205 187.281L345.258 194.292" stroke="#232323" stroke-miterlimit="10"/>
        <path d="M330.373 185.498C330.373 185.498 333.778 187.153 337.76 185.527" stroke="#232323" stroke-miterlimit="10"/>
        <path d="M321.241 188.472C316.917 183.408 316.847 175.415 322.689 171.728C327.35 168.779 335.595 171 335.595 171" stroke="#232323" stroke-miterlimit="10"/>
        <path d="M345.794 187.556C345.794 187.556 347.607 185.904 347.313 182.802C346.974 178.821 342.655 176.535 342.655 176.535" stroke="#232323" stroke-miterlimit="10"/>
      </g>
      <g clip-path="url(#clip7)">
        <path d="M83.2886 93.912C80.5418 97.7622 77.1599 100.579 73.935 102.033C70.697 103.493 67.7164 103.545 65.646 102.066C63.5757 100.588 62.6565 97.7501 62.9847 94.2115C63.3117 90.6872 64.875 86.5719 67.6218 82.7217C70.3686 78.8714 73.7505 76.0551 76.9754 74.6007C80.2134 73.1404 83.194 73.0885 85.2643 74.5673C87.3347 76.0461 88.2539 78.8835 87.9257 82.4222C87.5987 85.9464 86.0354 90.0617 83.2886 93.912Z" fill="#FBFBFB" stroke="#232323"/>
        <path d="M85.7569 74.6251L80.9984 70.957L60.5922 98.5154L65.3507 102.184L85.7569 74.6251Z" fill="#FBFBFB"/>
        <path d="M80.9984 70.957L85.7569 74.6251" stroke="#232323" stroke-linecap="round" stroke-linejoin="round"/>
        <path d="M60.5931 98.5154L65.3516 102.184" stroke="#232323" stroke-linecap="round" stroke-linejoin="round"/>
        <g clip-path="url(#clip8)">
          <path d="M79.0092 90.6389C76.2623 94.4892 72.8857 97.3094 69.6692 98.7697C66.4391 100.236 63.4715 100.295 61.4157 98.8267C59.3599 97.3583 58.4514 94.5309 58.7881 90.9978C59.1235 87.4795 60.692 83.3679 63.4389 79.5175C66.1858 75.6672 69.5625 72.847 72.779 71.3867C76.0091 69.9202 78.9767 69.8613 81.0325 71.3297C83.0883 72.7981 83.9968 75.6255 83.66 79.1587C83.3247 82.6769 81.7561 86.7885 79.0092 90.6389Z" fill="#FBFBFB" stroke="#232323"/>
          <path d="M77.765 90.2194C75.4251 93.4993 72.5592 95.9046 69.8394 97.1551C67.105 98.4124 64.6229 98.4642 62.9212 97.2487C61.2194 96.0332 60.462 93.6675 60.762 90.6715C61.0604 87.6914 62.4028 84.1979 64.7427 80.918C67.0827 77.6381 69.9486 75.2328 72.6684 73.9822C75.4028 72.725 77.8849 72.6731 79.5866 73.8886C81.2884 75.1041 82.0457 77.4699 81.7457 80.4659C81.4473 83.446 80.105 86.9395 77.765 90.2194Z" fill="#FBFBFB" stroke="#232323"/>
          <path d="M74.5391 77.4603L65.1952 90.5578M75.5868 78.2087L74.1802 80.1804M67.6495 89.3345L66.2429 91.3062M73.4995 85.8594C74.0569 86.5453 74.1639 87.4587 73.1884 88.8261C71.9827 90.5161 70.3217 91.0305 68.7977 89.942L65.2736 87.4248M73.5144 85.8701C74.1698 85.8087 74.9122 85.4021 75.5253 84.5427C76.731 82.8527 75.8791 81.3938 75.0375 80.7927L71.5133 78.2755M73.5525 85.8973L70.3141 83.5842" stroke="#232323"/>
        </g>
      </g>
      <g clip-path="url(#clip9)">
        <path d="M82.6218 97.3242C90.257 94.4113 97.8334 93.5864 103.899 94.584C109.98 95.5839 114.44 98.3892 116.059 102.64C117.678 106.891 116.215 111.956 112.343 116.753C108.479 121.539 102.277 125.971 94.6416 128.884C87.0064 131.797 79.43 132.622 73.3639 131.624C67.2836 130.624 62.8231 127.819 61.2041 123.568C59.5851 119.317 61.048 114.252 64.9205 109.455C68.7839 104.669 74.9865 100.237 82.6218 97.3242Z" fill="#FBFBFB" stroke="#232323"/>
        <path d="M60.8883 122.889L64.2056 132.656L119.574 112.648L116.257 102.881L60.8883 122.889Z" fill="#FBFBFB"/>
        <path d="M64.2056 132.656L60.8883 122.889" stroke="#232323" stroke-linecap="round" stroke-linejoin="round"/>
        <path d="M119.575 112.648L116.257 102.881" stroke="#232323" stroke-linecap="round" stroke-linejoin="round"/>
        <g clip-path="url(#clip10)">
          <path d="M85.6345 105.844C93.2916 102.923 100.888 102.091 106.969 103.083C113.064 104.079 117.533 106.882 119.152 111.133C120.771 115.384 119.3 120.453 115.413 125.256C111.536 130.048 105.314 134.488 97.6566 137.409C89.9995 140.331 82.4031 141.163 76.3225 140.17C70.2275 139.175 65.7586 136.372 64.1395 132.12C62.5204 127.869 63.9911 122.8 67.8777 117.997C71.7552 113.205 77.9774 108.765 85.6345 105.844Z" fill="#FBFBFB" stroke="#232323"/>
          <path d="M87.0102 107.854C93.5207 105.37 99.9679 104.642 105.117 105.451C110.283 106.261 114.034 108.591 115.377 112.118C116.72 115.645 115.471 119.883 112.155 123.93C108.85 127.963 103.555 131.716 97.0443 134.199C90.5338 136.683 84.0866 137.411 78.9372 136.603C73.7719 135.792 70.0208 133.462 68.6775 129.935C67.3342 126.408 68.5838 122.17 71.8993 118.124C75.2046 114.09 80.4998 110.338 87.0102 107.854Z" fill="#FBFBFB" stroke="#232323"/>
          <path d="M79.6239 129.497L105.432 119.651M78.8372 127.432L82.7222 125.949M100.76 119.068L104.645 117.586M89.093 118.477C88.9479 116.966 89.663 115.558 92.3575 114.53C95.6875 113.26 98.5513 114.103 99.6956 117.108L102.342 124.056M89.0818 118.447C88.0864 117.912 86.6385 117.788 84.945 118.434C81.615 119.704 81.4465 122.6 82.0785 124.259L84.7249 131.208M89.0532 118.372L91.4851 124.757" stroke="#232323"/>
        </g>
      </g>
      <g clip-path="url(#clip11)">
        <path d="M29.2665 65.4159C34.2018 71.9106 37.1207 78.9356 37.8696 85.0259C38.6203 91.1305 37.1866 96.1908 33.5702 98.9357C29.9539 101.681 24.6916 101.703 19.009 99.3413C13.3397 96.9856 7.35201 92.29 2.4167 85.7953C-2.51862 79.3007 -5.43747 72.2757 -6.18638 66.1853C-6.93705 60.0807 -5.50335 55.0204 -1.88699 52.2756C1.72937 49.5307 6.99164 49.5087 12.6742 51.8699C18.3435 54.2256 24.3312 58.9213 29.2665 65.4159Z" fill="#FBFBFB" stroke="#232323"/>
        <path d="M-1.32637 51.7824L-9.74951 57.7041L24.9723 105.116L33.3954 99.1939L-1.32637 51.7824Z" fill="#FBFBFB"/>
        <path d="M-9.74951 57.7041L-1.32637 51.7824" stroke="#232323" stroke-linecap="round" stroke-linejoin="round"/>
        <path d="M24.9722 105.116L33.3953 99.1939" stroke="#232323" stroke-linecap="round" stroke-linejoin="round"/>
        <g clip-path="url(#clip12)">
          <path d="M21.7477 70.7547C26.6845 77.2514 29.6131 84.2718 30.3765 90.3531C31.1417 96.4492 29.7264 101.494 26.1324 104.222C22.5383 106.95 17.2957 106.959 11.6252 104.586C5.9685 102.218 -0.0121677 97.5145 -4.949 91.0179C-9.88583 84.5212 -12.8144 77.5009 -13.5778 71.4196C-14.343 65.3234 -12.9277 60.2784 -9.33368 57.5504C-5.73963 54.8225 -0.496964 54.8141 5.17352 57.1871C10.8302 59.5543 16.8109 64.2581 21.7477 70.7547Z" fill="#FBFBFB" stroke="#232323"/>
          <path d="M20.4132 72.578C24.6215 78.1159 27.1298 84.0866 27.8025 89.2457C28.4773 94.4209 27.2995 98.6681 24.2991 100.945C21.2986 103.223 16.8887 103.217 12.0817 101.178C7.28949 99.1457 2.20782 95.1282 -2.00046 89.5903C-6.20874 84.0524 -8.7171 78.0817 -9.3898 72.9225C-10.0646 67.7474 -8.8868 63.5002 -5.88634 61.2228C-2.88588 58.9454 1.52402 58.9515 6.33103 60.9902C11.1232 63.0226 16.2049 67.0401 20.4132 72.578Z" fill="#FBFBFB" stroke="#232323"/>
          <path d="M-2.39216 71.5837L14.29 93.5366M-0.634593 70.2497L1.8767 73.5544M13.5362 88.8979L16.0475 92.2026M10.8245 77.5568C12.2305 76.9934 13.7796 77.2829 15.5213 79.5748C17.6739 82.4075 17.6709 85.3874 15.1144 87.3278L9.20262 91.8149M10.8495 77.5378C11.0824 76.434 10.7945 75.0123 9.69988 73.5718C7.54735 70.7391 4.7266 71.3913 3.3147 72.463L-2.59711 76.9501M10.9133 77.4894L5.48086 81.6127" stroke="#232323"/>
        </g>
      </g>
    </g>
  </g>
  <defs>
    <clipPath id="clip0">
      <rect width="375" height="256" fill="white"/>
    </clipPath>
    <clipPath id="clip1">
      <rect width="418" height="245.537" fill="white" transform="translate(-21 16)"/>
    </clipPath>
    <clipPath id="clip2">
      <rect width="372.24" height="197.943" fill="white" transform="translate(24.7598 16)"/>
    </clipPath>
    <clipPath id="clip3">
      <rect width="62.7647" height="72.3818" fill="white" transform="translate(183.037 48.2887)"/>
    </clipPath>
    <clipPath id="clip4">
      <rect width="90.1141" height="73.9998" fill="white" transform="translate(238.653 69.6041)"/>
    </clipPath>
    <clipPath id="clip5">
      <rect width="59.3825" height="48.7636" fill="white" transform="translate(315.006 119.877) rotate(-46.3274)"/>
    </clipPath>
    <clipPath id="clip6">
      <rect width="105.55" height="106.947" fill="white" transform="translate(278.558 261.537) rotate(-92.9266)"/>
    </clipPath>
    <clipPath id="clip7">
      <rect width="27.0871" height="35.5879" fill="white" transform="translate(78.376 64.8974) rotate(50.5209)"/>
    </clipPath>
    <clipPath id="clip8">
      <rect width="20.1934" height="34.8024" fill="white" transform="matrix(0.81374 0.581229 -0.580769 0.814068 73.1309 65.0714)"/>
    </clipPath>
    <clipPath id="clip9">
      <rect width="46.5046" height="61.0991" fill="white" transform="translate(62.1973 143.813) rotate(-95.8661)"/>
    </clipPath>
    <clipPath id="clip10">
      <rect width="34.6691" height="59.7505" fill="white" transform="matrix(-0.355922 -0.934516 0.934314 -0.35645 69.8613 148.549)"/>
    </clipPath>
    <clipPath id="clip11">
      <rect width="46.4203" height="60.9884" fill="white" transform="translate(-21 58.9148) rotate(-22.2152)"/>
    </clipPath>
    <clipPath id="clip12">
      <rect width="34.6063" height="59.6423" fill="white" transform="matrix(0.796541 -0.604585 0.605035 0.796199 -23.3828 67.5862)"/>
    </clipPath>
  </defs>
</svg>
