<svg width="1577" height="934" viewBox="0 0 1577 934" fill="none" xmlns="http://www.w3.org/2000/svg">
  <path d="M125 423.443C125 423.443 133.739 501.668 218.153 514.31C291.307 525.29 341.769 477.051 341.769 477.051" stroke="#FBFBFB" stroke-width="2" stroke-miterlimit="10"/>
  <path d="M145.146 414.833C145.146 414.833 156.039 489.392 234.203 486.609C277.26 485.092 302.305 451.706 302.305 451.706" stroke="#FBFBFB" stroke-width="2" stroke-miterlimit="10"/>
  <g clip-path="url(#clip0)">
    <g clip-path="url(#clip1)">
      <path d="M729.452 599.179C729.452 599.179 746.142 598.735 745.823 582.166C746.144 598.858 762.836 598.536 762.836 598.536C762.836 598.536 746.128 597.998 746.465 615.549C746.25 597.996 729.452 599.179 729.452 599.179Z" stroke="#FBFBFB" stroke-width="2"/>
      <path d="M175.578 607.633C175.578 607.633 203.569 606.888 203.034 579.099C203.573 607.094 231.568 606.555 231.568 606.555C231.568 606.555 203.545 605.653 204.111 635.089C203.751 605.649 175.578 607.633 175.578 607.633Z" fill="#FBFBFB"/>
      <path d="M1198.31 101.613C1198.31 101.613 1214.3 101.187 1214 85.3079C1214.31 101.305 1230.3 100.997 1230.3 100.997C1230.3 100.997 1214.29 100.482 1214.61 117.302C1214.41 100.479 1198.31 101.613 1198.31 101.613Z" fill="#FBFBFB"/>
      <path d="M785.577 298.595C785.577 298.595 832.316 295.683 856.889 339.992C878.411 378.896 870.036 421.826 891.113 437.594C916.711 456.724 967.749 423.252 991.043 464.566C1007.79 494.29 986.874 546.734 1003.71 581.056C1016.5 607.047 1054.23 595.467 1077.32 622.409C1093.86 641.714 1097.03 686.722 1056.82 700.218C1010.04 715.926 962.799 677.732 950.008 614.436C937.217 551.14 943.252 506.17 873.065 493.289C778.497 475.989 822.487 382.56 796.699 361.061C770.769 339.637 785.577 298.595 785.577 298.595Z" stroke="#FBFBFB" stroke-width="2" stroke-miterlimit="10"/>
      <path d="M772.127 690.314C772.127 690.314 849.509 681.134 858.86 625.462C868.014 570.729 824.992 546.399 811.628 513.088C798.266 479.849 815.498 445.23 809.716 413.714" stroke="#FBFBFB" stroke-width="2" stroke-miterlimit="10"/>
      <path d="M734.798 655.524C714.361 655.917 698.112 672.804 698.505 693.241C698.898 713.678 715.785 729.927 736.222 729.533C756.659 729.14 772.908 712.254 772.514 691.817C772.121 671.379 755.235 655.131 734.798 655.524Z" stroke="#FBFBFB" stroke-width="2" stroke-miterlimit="10"/>
      <path d="M1056.11 663.285C1056.11 663.285 1018.34 665.522 996.723 640.133C964.804 602.578 981.603 515.568 959.043 482.505C938.776 452.778 894.152 472.182 869.31 443.764C833.736 403.045 864.371 366.444 808.322 337.476" stroke="#FBFBFB" stroke-width="2" stroke-miterlimit="10"/>
      <path d="M903.875 682.388C903.875 682.388 881.338 714.018 859.2 702.871C827.772 687.087 854.617 644.017 856.738 634.704" stroke="#FBFBFB" stroke-width="2" stroke-miterlimit="10"/>
      <path d="M918.108 641.358C905.012 641.61 894.601 652.43 894.853 665.526C895.105 678.621 905.925 689.033 919.021 688.781C932.116 688.529 942.528 677.709 942.276 664.613C942.024 651.517 931.204 641.106 918.108 641.358Z" stroke="#FBFBFB" stroke-width="2" stroke-miterlimit="10"/>
      <path d="M910.784 320.481C935.293 331.582 919.504 351.51 938.325 369.621C957.147 387.732 991.676 377.866 1034.81 396.66C1077.94 415.453 1083.54 467.387 1058.71 495.61C1033.8 523.835 998.947 512.933 998.947 512.933" stroke="#FBFBFB" stroke-width="2" stroke-miterlimit="10"/>
      <path d="M900.332 591.671C900.332 591.671 922.651 571.115 908.283 552.847C888.757 528.064 851.252 566.236 822.203 532.148" stroke="#FBFBFB" stroke-width="2" stroke-miterlimit="10"/>
      <path d="M809.918 424.133C809.918 424.133 813.65 494.791 775.823 534.982C741.097 571.878 679.772 590.022 649.968 639.905C620.163 689.789 633.777 721.154 607.216 741.648C583.206 760.224 546.268 738.22 556.333 701.008C563.448 674.779 597.24 663.993 597.24 663.993C597.24 663.993 571.226 634.448 592.994 603.983C616.162 571.551 669.487 574.765 669.487 574.765C669.487 574.765 647.532 554.414 670.181 532.342C693.466 509.755 739.491 529.499 757.586 509.887C773.076 493.056 759.476 447.459 759.476 447.459" stroke="#FBFBFB" stroke-width="2" stroke-miterlimit="10"/>
      <path d="M852.75 576.917C864.463 610.331 838.767 645.903 810.794 637.816C786.868 630.873 805.167 595.659 805.167 595.659" stroke="#FBFBFB" stroke-width="2" stroke-miterlimit="10"/>
      <path d="M808.819 579.919C804.096 580.01 800.342 583.912 800.433 588.634C800.524 593.356 804.425 597.111 809.148 597.02C813.87 596.929 817.625 593.027 817.534 588.305C817.443 583.582 813.541 579.828 808.819 579.919Z" stroke="#FBFBFB" stroke-width="2" stroke-miterlimit="10"/>
      <path d="M894.604 589.122C889.881 589.213 886.127 593.115 886.217 597.837C886.308 602.559 890.211 606.314 894.933 606.223C899.655 606.132 903.41 602.23 903.319 597.508C903.228 592.786 899.326 589.031 894.604 589.122Z" stroke="#FBFBFB" stroke-width="2" stroke-miterlimit="10"/>
      <path d="M683.999 163.077C681.79 163.12 680.034 164.945 680.077 167.153C680.119 169.362 681.944 171.118 684.153 171.076C686.362 171.033 688.118 169.208 688.075 166.999C688.033 164.791 686.208 163.035 683.999 163.077Z" fill="#FBFBFB"/>
      <path d="M710.954 720.028C710.954 720.028 730.475 714.692 730.982 692.472C731.397 672.984 713.659 662.615 713.659 662.615" stroke="#FBFBFB" stroke-width="2" stroke-miterlimit="10"/>
      <path d="M757.855 721.857C757.855 721.857 745.895 709.22 745.836 694.917C745.769 676.517 758.395 663.983 758.395 663.983" stroke="#FBFBFB" stroke-width="2" stroke-miterlimit="10"/>
      <path d="M748.676 708.017C748.676 708.017 738.232 699.448 727.165 707.065" stroke="#FBFBFB" stroke-width="2" stroke-miterlimit="10"/>
      <path d="M750.564 675.419C750.564 675.419 746.953 682.03 739.275 682.68C732.243 683.319 729.085 679.858 726.497 676.098" stroke="#FBFBFB" stroke-width="2" stroke-miterlimit="10"/>
      <path d="M936.409 680.971C936.409 680.971 938.74 671.366 934.004 660.603C928.066 647.132 919.806 643.697 914.728 641.279" stroke="#FBFBFB" stroke-width="2" stroke-miterlimit="10"/>
      <path d="M1423.13 312.234C1434.41 307.774 1443.59 298.348 1449.72 284.334L1449.89 284.413C1444.06 298.583 1443.66 311.745 1448.3 322.948C1452.94 334.143 1462.56 343.236 1476.51 349.399L1476.05 350.485C1461.89 344.663 1448.64 344.163 1437.36 348.691C1426.07 353.22 1416.91 362.723 1410.81 376.633L1410.58 376.537C1416.3 362.481 1416.73 349.293 1412.14 338.04C1407.55 326.788 1397.99 317.611 1384.01 311.465L1384.47 310.435C1398.61 316.13 1411.85 316.697 1423.13 312.234Z" stroke="#FBFBFB" stroke-width="2" stroke-miterlimit="10" stroke-linecap="round" stroke-linejoin="round"/>
      <path d="M1322.89 294.78C1324.93 297.277 1327.74 299.089 1331.2 300.157C1327.58 300.462 1324.43 301.645 1321.9 303.661C1319.53 305.545 1317.77 308.111 1316.66 311.254C1316.25 307.973 1315.07 305.103 1313.18 302.757C1311.12 300.2 1308.26 298.33 1304.74 297.224C1308.39 296.942 1311.58 295.78 1314.15 293.768C1316.51 291.914 1318.29 289.38 1319.4 286.26C1319.81 289.569 1320.98 292.445 1322.89 294.78Z" stroke="#FBFBFB" stroke-width="2" stroke-miterlimit="10" stroke-linecap="round" stroke-linejoin="round"/>
      <path d="M990.796 243.566C990.796 243.566 1070.37 199.691 1159.06 241.171C1234.09 276.323 1240.16 360.626 1287.02 402.517C1329.29 440.408 1391.25 415.593 1412.46 373.692" stroke="#FBFBFB" stroke-width="2" stroke-miterlimit="10" stroke-linecap="round" stroke-linejoin="round"/>
      <path d="M1001.06 256.69C1001.06 256.69 1086.28 229.066 1143.47 282.13C1190.63 325.87 1200.19 406.934 1252.44 448.02C1317.32 499.087 1391.18 484.662 1391.18 484.662C1391.18 484.662 1317.51 602.739 1221.91 547.101C1148.24 504.175 1136.7 388.115 1102.94 338.741C1064.09 282.036 1028.31 305.06 1028.31 305.06" stroke="#FBFBFB" stroke-width="2" stroke-miterlimit="10" stroke-linecap="round" stroke-linejoin="round"/>
      <path d="M1024.43 193.179C1024.43 193.179 1074.33 166.557 1120.6 166.506C1208.14 166.362 1248.6 217.063 1280.66 196.874C1328.16 166.932 1339.18 83.1922 1385.11 73.6703C1416.77 67.0915 1452.56 102.154 1426.92 145.061C1403.73 183.828 1355.69 189.974 1355.69 189.974C1355.69 189.974 1382.54 226.142 1343.56 251.395C1301.61 278.536 1271.44 237.436 1271.44 237.436C1271.44 237.436 1250.38 260.561 1218.98 255.733C1190.26 251.311 1167.5 210.922 1114.75 208.144C1039.23 204.173 984.309 242.23 984.309 242.23" stroke="#FBFBFB" stroke-width="2" stroke-miterlimit="10" stroke-linecap="round" stroke-linejoin="round"/>
      <path d="M1258.05 364.672C1287.05 402.184 1326.42 394.975 1333.15 370.902C1338.11 353.131 1309.93 337.04 1317.02 309.469" stroke="#FBFBFB" stroke-width="2" stroke-miterlimit="10" stroke-linecap="round" stroke-linejoin="round"/>
      <path d="M1071.01 274.527C1071.01 274.527 1109.81 280.811 1134.72 318.815C1159.59 356.738 1190.54 445.612 1218.85 477.565C1250.17 512.807 1285.28 508.005 1285.28 508.005" stroke="#FBFBFB" stroke-width="2" stroke-miterlimit="10" stroke-linecap="round" stroke-linejoin="round"/>
    </g>
  </g>
  <path d="M851.134 256.919C852.393 293.91 846.16 327.6 835.111 352.159C824.031 376.784 808.272 391.92 790.624 392.521C772.977 393.121 756.225 379.092 743.497 355.277C730.803 331.527 722.293 298.338 721.034 261.347C719.775 224.357 726.008 190.666 737.058 166.107C748.137 141.483 763.897 126.346 781.544 125.746C799.192 125.145 815.944 139.175 828.672 162.989C841.366 186.74 849.875 219.928 851.134 256.919Z" fill="#232323" stroke="#FBFBFB" stroke-width="2"/>
  <g clip-path="url(#clip2)">
    <path d="M759.956 126.751L1009.95 118.516L1019.34 385.501L769.345 393.737L759.956 126.751Z" fill="#232323" stroke="#FBFBFB" stroke-width="2"/>
  </g>
  <path d="M1076.77 251.612C1078.74 309.415 1073.13 361.958 1062.5 400.17C1057.19 419.282 1050.63 434.753 1043.18 445.5C1035.72 456.265 1027.48 462.121 1018.82 462.416C1010.16 462.71 1001.55 457.428 993.365 447.195C985.199 436.98 977.606 421.991 971.004 403.285C957.802 365.883 948.638 313.843 946.67 256.04C944.703 198.236 950.308 145.694 960.935 107.482C966.251 88.3694 972.807 72.8988 980.259 62.1521C987.725 51.3865 995.963 45.5307 1004.62 45.236C1013.28 44.9414 1021.9 50.2235 1030.08 60.4565C1038.24 70.6716 1045.83 85.6606 1052.44 104.367C1065.64 141.768 1074.8 193.808 1076.77 251.612Z" fill="#232323" stroke="#FBFBFB" stroke-width="2"/>
  <path d="M1016.42 391.957C1035.21 391.318 1048.33 328.956 1045.73 252.668C1043.14 176.38 1025.8 115.055 1007.02 115.694C988.234 116.334 975.111 178.695 977.707 254.983C980.304 331.271 997.637 392.596 1016.42 391.957Z" fill="white"/>
  <path d="M832.256 373.275C835.416 299.077 808.415 237.669 771.948 236.116C735.481 234.563 703.357 293.453 700.198 367.651C697.038 441.848 724.039 503.256 760.506 504.809C796.973 506.362 829.097 447.472 832.256 373.275Z" fill="#232323" stroke="#FBFBFB" stroke-width="2" stroke-miterlimit="10"/>
  <path d="M760.673 505.033L530.767 495.146L542.215 226.315L772.121 236.099" fill="#232323"/>
  <path d="M760.673 505.033L530.767 495.146L542.215 226.315L772.121 236.099" stroke="#FBFBFB" stroke-width="2" stroke-miterlimit="10"/>
  <path d="M606.73 363.491C611.658 247.772 586.09 152.705 549.623 151.152C513.156 149.6 479.599 242.149 474.672 357.867C469.744 473.585 495.311 568.652 531.778 570.205C568.245 571.758 601.803 479.209 606.73 363.491Z" fill="#232323" stroke="#FBFBFB" stroke-width="2" stroke-miterlimit="10"/>
  <path d="M576.136 365.881C579.383 289.616 566.792 227.143 548.013 226.343C529.234 225.544 511.378 286.72 508.13 362.985C504.883 439.25 517.473 501.723 536.253 502.523C555.032 503.323 572.888 442.146 576.136 365.881Z" fill="white"/>
  <g clip-path="url(#clip3)">
    <path d="M993 225.51L1120.73 199C1156.88 212.771 1176.5 227.059 1200.95 308.826C1206.63 327.762 1215.41 355.132 1227.97 373.379C1270.84 435.005 1337.63 448.26 1337.63 448.26L1189.24 482C1151.89 470.811 1112.64 442.924 1092.33 377.855C1063.75 286.103 1036.72 244.617 993 225.51Z" fill="#FBFBFB" stroke="#232323" stroke-width="2" stroke-miterlimit="10"/>
    <path d="M1115.91 211.222L1024.85 231.018C1024.85 231.018 1050.84 241.347 1074.42 288.858C1100.42 341.189 1097.49 371.485 1126.58 417.447C1150.34 454.802 1189.24 467.54 1189.24 467.54L1294.07 443.785C1294.07 443.785 1241.74 428.292 1208.69 367.182C1194.4 340.844 1187 302.973 1176.5 278.357" stroke="#232323" stroke-width="2" stroke-miterlimit="10"/>
    <path d="M1200.09 438.448C1212.83 438.448 1223.15 432.591 1223.15 425.366C1223.15 418.14 1212.83 412.283 1200.09 412.283C1187.35 412.283 1177.02 418.14 1177.02 425.366C1177.02 432.591 1187.35 438.448 1200.09 438.448Z" stroke="#232323" stroke-width="2" stroke-miterlimit="10"/>
    <path d="M1100.86 250.382C1113.47 248.574 1123.1 242.989 1122.37 237.907C1121.64 232.825 1110.83 230.171 1098.22 231.978C1085.61 233.786 1075.98 239.371 1076.7 244.453C1077.43 249.535 1088.25 252.189 1100.86 250.382Z" stroke="#232323" stroke-width="2" stroke-miterlimit="10"/>
    <path d="M1064.95 271.471C1096.46 273.021 1107.99 317.089 1107.99 317.089C1107.99 317.089 1113.15 302.285 1130.02 297.809C1147.41 293.161 1164.97 302.457 1169.62 320.704C1173.75 337.574 1166.35 352.55 1154.64 359.952C1142.76 367.354 1131.23 364.255 1131.23 364.255C1131.23 364.255 1130.37 376.133 1138.46 390.249C1141.9 396.274 1144.66 401.61 1147.41 405.914C1153.09 415.381 1153.61 427.087 1148.61 436.899L1146.55 441.202" stroke="#232323" stroke-width="2" stroke-miterlimit="10"/>
    <path d="M1093.36 334.819C1093.36 334.819 1104.89 329.655 1107.82 317.089C1107.82 317.089 1101.62 331.376 1109.54 346.525C1116.77 360.468 1131.23 364.255 1131.23 364.255C1116.08 357.198 1100.93 358.919 1100.93 358.919" stroke="#232323" stroke-width="2" stroke-miterlimit="10" stroke-linecap="square" stroke-linejoin="bevel"/>
    <path d="M1131.57 370.28C1131.57 370.28 1138.8 376.994 1149.48 373.207C1163.94 368.215 1166.69 346.697 1166.69 346.697" stroke="#232323" stroke-width="2" stroke-miterlimit="10"/>
    <path d="M1170.13 336.369C1170.13 336.369 1175.47 323.63 1171.68 309.859C1166.17 289.202 1145 280.595 1121.93 283.693C1106.1 285.931 1099.38 296.088 1099.38 296.088" stroke="#232323" stroke-width="2" stroke-miterlimit="10"/>
    <path d="M1121.76 322.081C1121.76 322.081 1115.22 335.852 1128.3 342.049" stroke="#232323" stroke-width="2" stroke-miterlimit="10"/>
    <path d="M1137.08 321.048C1140.12 321.048 1142.59 318.582 1142.59 315.54C1142.59 312.497 1140.12 310.031 1137.08 310.031C1134.04 310.031 1131.57 312.497 1131.57 315.54C1131.57 318.582 1134.04 321.048 1137.08 321.048Z" stroke="#232323" stroke-width="2" stroke-miterlimit="10"/>
    <path d="M1143.62 341.189C1146.67 341.189 1149.13 338.722 1149.13 335.68C1149.13 332.638 1146.67 330.172 1143.62 330.172C1140.58 330.172 1138.11 332.638 1138.11 335.68C1138.11 338.722 1140.58 341.189 1143.62 341.189Z" stroke="#232323" stroke-width="2" stroke-miterlimit="10"/>
  </g>
  <g clip-path="url(#clip4)">
    <path d="M1297.64 403.323L1343.12 330.38C1366.14 319.417 1381.88 316.565 1431.97 342.121C1443.58 348.03 1460.62 356.301 1475.04 358.614C1523.91 366.227 1560.63 340.424 1560.63 340.424L1509.18 426.502C1486.85 439.215 1455.7 445.232 1415.45 425.305C1358.71 397.174 1326.64 391.177 1297.64 403.323Z" fill="#FBFBFB" stroke="#232323" stroke-width="2" stroke-miterlimit="10"/>
    <path d="M1346.75 338.239L1314.75 390.651C1314.75 390.651 1331.5 382.962 1364.88 393.341C1401.65 404.764 1414.76 419.945 1449.9 426.994C1478.52 432.669 1502.29 419.923 1502.29 419.923L1538.67 359.146C1538.67 359.146 1507.48 377.039 1463.31 364.984C1444.26 359.809 1422.84 346.104 1406.33 339.908" stroke="#232323" stroke-width="2" stroke-miterlimit="10"/>
    <path d="M1493.36 401.515C1499.16 395.443 1501.07 387.856 1497.62 384.568C1494.18 381.28 1486.69 383.537 1480.89 389.609C1475.09 395.681 1473.19 403.269 1476.63 406.557C1480.07 409.844 1487.56 407.587 1493.36 401.515Z" stroke="#232323" stroke-width="2" stroke-miterlimit="10"/>
    <path d="M1358.57 363.232C1363.45 356.399 1365.17 349.266 1362.41 347.301C1359.66 345.335 1353.47 349.282 1348.6 356.115C1343.72 362.948 1342 370.081 1344.75 372.046C1347.51 374.012 1353.69 370.065 1358.57 363.232Z" stroke="#232323" stroke-width="2" stroke-miterlimit="10"/>
    <path d="M1352.28 389.941C1367.36 375.632 1393.61 390.187 1393.61 390.187C1393.61 390.187 1388.9 380.989 1394.45 370.912C1400.14 360.51 1412.56 356.371 1423.38 362.459C1433.3 368.166 1437.07 378.509 1435.27 387.457C1433.39 396.486 1426.67 400.574 1426.67 400.574C1426.67 400.574 1431.94 406.389 1442.34 408.956C1446.78 410.056 1450.58 411.172 1453.88 411.817C1460.98 413.418 1466.8 418.499 1469.2 425.343L1470.31 428.286" stroke="#232323" stroke-width="2" stroke-miterlimit="10"/>
    <path d="M1395.4 405.23C1395.4 405.23 1398.19 397.382 1393.53 390.269C1393.53 390.269 1397.52 399.725 1408.35 402.844C1418.28 405.743 1426.67 400.574 1426.67 400.574C1416.41 404.582 1410.34 412.586 1410.34 412.586" stroke="#232323" stroke-width="2" stroke-miterlimit="10" stroke-linecap="square" stroke-linejoin="bevel"/>
    <path d="M1429.69 403.151C1429.69 403.151 1436.18 402.76 1439.23 395.95C1443.44 386.786 1434.43 375.682 1434.43 375.682" stroke="#232323" stroke-width="2" stroke-miterlimit="10"/>
    <path d="M1431.08 369.341C1431.08 369.341 1427.43 361.001 1419.15 356.54C1406.79 349.766 1393.06 355.941 1384.04 368.345C1377.9 376.912 1379.68 384.733 1379.68 384.733" stroke="#232323" stroke-width="2" stroke-miterlimit="10"/>
    <path d="M1402.25 385.896C1402.25 385.896 1405.84 395.28 1414.75 391.864" stroke="#232323" stroke-width="2" stroke-miterlimit="10"/>
    <path d="M1408.74 378.123C1410.12 376.673 1410.07 374.375 1408.62 372.991C1407.17 371.606 1404.87 371.66 1403.48 373.11C1402.1 374.56 1402.15 376.858 1403.6 378.242C1405.05 379.626 1407.35 379.573 1408.74 378.123Z" stroke="#232323" stroke-width="2" stroke-miterlimit="10"/>
    <path d="M1421.31 384.17C1422.7 382.72 1422.64 380.423 1421.19 379.038C1419.74 377.654 1417.44 377.707 1416.06 379.157C1414.68 380.607 1414.73 382.905 1416.18 384.289C1417.63 385.674 1419.93 385.62 1421.31 384.17Z" stroke="#232323" stroke-width="2" stroke-miterlimit="10"/>
  </g>
  <g clip-path="url(#clip5)">
    <path d="M1395.18 579.945L1413.52 597.547L1431.27 622.15L1479.52 720.09L1441.08 704.678L1395.18 579.945Z" fill="white" stroke="#232323" stroke-width="2"/>
    <path d="M1450.53 712.951C1349.1 660.345 1263.88 721.975 1263.88 721.975L1126.38 556.924C1126.38 556.924 1266.49 479.012 1378.46 560.364C1481.55 635.432 1444.84 789.175 1444.84 789.175L1551.68 912.255C1551.68 912.255 1568.31 786.232 1464.72 655.989L1407.84 587.628" fill="#FBFBFB"/>
    <path d="M1450.53 712.951C1349.1 660.345 1263.88 721.975 1263.88 721.975L1126.38 556.924C1126.38 556.924 1266.49 479.011 1378.46 560.364C1481.55 635.432 1444.84 789.175 1444.84 789.175L1551.68 912.255C1551.68 912.255 1568.31 786.232 1464.72 655.989L1407.84 587.628" stroke="#232323" stroke-width="2" stroke-miterlimit="10"/>
    <path d="M1446.22 633.611C1446.22 633.611 1465.52 666.574 1468.5 719.808C1470.82 760.118 1463.82 785.355 1463.82 785.355L1540 876.312C1540 876.312 1543.76 807.961 1522.5 752.033" stroke="#232323" stroke-width="2" stroke-miterlimit="10"/>
    <path d="M1286.14 544.092C1286.14 544.092 1237.87 532.566 1160.92 563.452L1270.23 694.18C1270.23 694.18 1309.14 669.386 1373.28 672.067C1410.69 673.783 1449.08 694.626 1449.08 694.626" stroke="#232323" stroke-width="2" stroke-miterlimit="10"/>
    <path d="M1269.9 602.196C1263.57 591.327 1251.03 586.83 1241.89 592.154C1232.75 597.477 1230.47 610.605 1236.8 621.475C1243.13 632.344 1255.67 636.841 1264.81 631.517C1273.95 626.194 1276.23 613.066 1269.9 602.196Z" stroke="#232323" stroke-width="2" stroke-miterlimit="10"/>
    <path d="M1509.87 758.455C1505.55 743.636 1497.81 732.856 1492.6 734.378C1487.38 735.9 1486.66 749.147 1490.99 763.967C1495.31 778.786 1503.05 789.566 1508.26 788.044C1513.48 786.522 1514.2 773.275 1509.87 758.455Z" stroke="#232323" stroke-width="2" stroke-miterlimit="10"/>
    <path d="M1257.45 677.211C1257.45 677.211 1285.46 652.455 1329.73 651.488C1329.73 651.488 1313.03 639.124 1315.08 618.287C1318.21 588.324 1355.72 576.818 1378.6 593.53C1406.59 613.868 1392.57 648.793 1392.57 648.793C1392.57 648.793 1423.05 651.9 1444.88 668.406" stroke="#232323" stroke-width="2" stroke-miterlimit="10"/>
    <path d="M1347.48 623.626C1347.29 619.914 1344.13 617.059 1340.42 617.249C1336.71 617.439 1333.85 620.601 1334.04 624.313C1334.23 628.025 1337.4 630.88 1341.11 630.69C1344.82 630.5 1347.67 627.337 1347.48 623.626Z" stroke="#232323" stroke-width="2" stroke-miterlimit="10"/>
    <path d="M1375.61 621.152C1375.42 617.44 1372.25 614.585 1368.54 614.775C1364.83 614.965 1361.98 618.127 1362.17 621.839C1362.35 625.551 1365.52 628.406 1369.23 628.216C1372.94 628.026 1375.8 624.863 1375.61 621.152Z" stroke="#232323" stroke-width="2" stroke-miterlimit="10"/>
    <path d="M1346.88 672.638L1329.73 651.487C1329.73 651.487 1340.84 661.026 1364.12 660.095C1383.78 659.349 1392.84 649.038 1392.84 649.038L1400.69 675.848" stroke="#232323" stroke-width="2" stroke-miterlimit="10"/>
    <path d="M1343.77 642.216C1343.77 642.216 1356.79 648.548 1372.02 642.327" stroke="#232323" stroke-width="2" stroke-miterlimit="10"/>
    <path d="M1308.85 653.592C1292.31 634.223 1292.04 603.656 1314.38 589.556C1332.21 578.278 1363.74 586.773 1363.74 586.773" stroke="#232323" stroke-width="2" stroke-miterlimit="10"/>
    <path d="M1402.74 650.087C1402.74 650.087 1409.68 643.772 1408.55 631.908C1407.25 616.684 1390.74 607.94 1390.74 607.94" stroke="#232323" stroke-width="2" stroke-miterlimit="10"/>
  </g>
  <g clip-path="url(#clip6)">
    <path d="M399.58 292.492C388.998 307.324 375.946 318.211 363.441 323.851C350.91 329.502 339.129 329.812 330.837 323.889C322.545 317.967 319.01 306.716 320.281 293.022C321.548 279.357 327.598 263.468 338.18 248.636C348.762 233.804 361.814 222.916 374.319 217.277C386.849 211.626 398.631 211.316 406.923 217.238C415.215 223.161 418.749 234.411 417.479 248.105C416.211 261.77 410.161 277.659 399.58 292.492Z" fill="#FBFBFB" stroke="#232323" stroke-width="2"/>
    <path d="M408.279 218.202L390.081 204.174L312.041 309.567L330.238 323.595L408.279 218.202Z" fill="#FBFBFB"/>
    <path d="M390.081 204.174L408.279 218.202" stroke="#232323" stroke-width="2" stroke-linecap="round" stroke-linejoin="round"/>
    <path d="M312.041 309.567L330.239 323.595" stroke="#232323" stroke-width="2" stroke-linecap="round" stroke-linejoin="round"/>
    <g clip-path="url(#clip7)">
      <path d="M383.215 279.974C372.634 294.806 359.602 305.708 347.13 311.37C334.632 317.045 322.898 317.384 314.66 311.5C306.421 305.615 302.93 294.401 304.233 280.73C305.533 267.088 311.603 251.214 322.185 236.382C332.766 221.55 345.798 210.648 358.27 204.986C370.768 199.312 382.502 198.972 390.74 204.857C398.979 210.741 402.47 221.955 401.167 235.627C399.867 249.268 393.797 265.142 383.215 279.974Z" fill="#FBFBFB" stroke="#232323" stroke-width="2"/>
      <path d="M378.454 278.37C369.43 291.019 358.353 300.333 347.783 305.193C337.183 310.067 327.303 310.385 320.414 305.465C313.526 300.545 310.616 291.091 311.779 279.477C312.939 267.896 318.144 254.387 327.168 241.738C336.192 229.089 347.269 219.775 357.84 214.914C368.439 210.041 378.319 209.723 385.208 214.643C392.097 219.563 395.006 229.016 393.843 240.63C392.683 252.212 387.478 265.721 378.454 278.37Z" fill="#FBFBFB" stroke="#232323" stroke-width="2"/>
      <path d="M365.375 229.045L329.641 279.134M369.382 231.907L364.002 239.447M339.027 274.456L333.647 281.996M361.399 261.166C363.531 263.789 363.94 267.282 360.209 272.512C355.598 278.975 349.246 280.942 343.418 276.779L329.94 267.152M361.456 261.207C363.963 260.972 366.802 259.417 369.147 256.13C373.757 249.667 370.5 244.088 367.281 241.789L353.803 232.162M361.602 261.311L349.217 252.465" stroke="#232323" stroke-width="2"/>
    </g>
  </g>
  <g clip-path="url(#clip8)">
    <path d="M395.961 304.159C425.284 292.972 454.423 289.786 477.807 293.631C501.219 297.481 518.659 308.329 525.014 325.016C531.369 341.702 525.57 361.416 510.658 379.887C495.765 398.336 471.901 415.371 442.578 426.558C413.255 437.745 384.116 440.931 360.732 437.085C337.319 433.235 319.88 422.388 313.525 405.701C307.169 389.014 312.969 369.301 327.88 350.83C342.773 332.381 366.638 315.346 395.961 304.159Z" fill="#FBFBFB" stroke="#232323" stroke-width="2"/>
    <path d="M313.172 402.779L325.859 440.132L537.606 363.614L524.92 326.261L313.172 402.779Z" fill="#FBFBFB"/>
    <path d="M325.859 440.132L313.172 402.779" stroke="#232323" stroke-width="2" stroke-linecap="round" stroke-linejoin="round"/>
    <path d="M537.607 363.614L524.92 326.261" stroke="#232323" stroke-width="2" stroke-linecap="round" stroke-linejoin="round"/>
    <g clip-path="url(#clip9)">
      <path d="M407.484 336.741C436.89 325.522 466.105 322.309 489.544 326.136C513.013 329.968 530.485 340.806 536.841 357.495C543.197 374.183 537.367 393.912 522.401 412.406C507.455 430.878 483.516 447.944 454.109 459.163C424.703 470.381 395.488 473.595 372.049 469.767C348.58 465.936 331.108 455.097 324.752 438.409C318.396 421.72 324.226 401.992 339.192 383.497C354.138 365.025 378.077 347.96 407.484 336.741Z" fill="#FBFBFB" stroke="#232323" stroke-width="2"/>
      <path d="M412.744 344.428C437.764 334.882 462.581 332.068 482.458 335.188C502.367 338.313 517.102 347.338 522.405 361.264C527.709 375.19 522.716 391.742 509.937 407.337C497.179 422.908 476.786 437.341 451.767 446.886C426.748 456.432 401.93 459.246 382.053 456.126C362.145 453.001 347.41 443.975 342.106 430.05C336.802 416.124 341.796 399.572 354.574 383.977C367.333 368.406 387.725 353.973 412.744 344.428Z" fill="#FBFBFB" stroke="#232323" stroke-width="2"/>
      <path d="M384.821 428.052L483.518 390.398M381.812 420.152L396.67 414.483M465.652 388.166L480.51 382.498M421.034 385.905C420.479 380.128 423.214 374.745 433.518 370.814C446.253 365.955 457.205 369.18 461.582 380.671L471.702 407.244M420.991 385.792C417.184 383.745 411.647 383.271 405.17 385.741C392.435 390.6 391.791 401.673 394.208 408.02L404.328 434.593M420.881 385.505L430.182 409.924" stroke="#232323" stroke-width="2"/>
    </g>
  </g>
  <g clip-path="url(#clip10)">
    <path d="M192.961 182.432C211.915 207.375 223.154 234.389 226.041 257.867C228.931 281.374 223.441 301.125 209.245 311.9C195.048 322.675 174.537 322.66 152.656 313.567C130.801 304.486 107.779 286.415 88.8249 261.472C69.8706 236.529 58.6318 209.515 55.7448 186.037C52.8543 162.53 58.3443 142.779 72.5408 132.004C86.7373 121.228 107.248 121.244 129.13 130.336C150.985 139.418 174.007 157.489 192.961 182.432Z" fill="#FBFBFB" stroke="#232323" stroke-width="2"/>
    <path d="M75.2391 130.844L43.0261 153.491L175.814 334.808L208.027 312.161L75.2391 130.844Z" fill="#FBFBFB"/>
    <path d="M43.0261 153.491L75.2391 130.844" stroke="#232323" stroke-width="2" stroke-linecap="round" stroke-linejoin="round"/>
    <path d="M175.814 334.808L208.027 312.161" stroke="#232323" stroke-width="2" stroke-linecap="round" stroke-linejoin="round"/>
    <g clip-path="url(#clip11)">
      <path d="M164.209 202.849C183.168 227.799 194.444 254.795 197.387 278.238C200.333 301.71 194.916 321.405 180.802 332.117C166.689 342.83 146.251 342.759 124.418 333.622C102.612 324.497 79.6178 306.395 60.6582 281.445C41.6987 256.495 30.4227 229.499 27.4801 206.056C24.5337 182.584 29.9511 162.889 44.0644 152.176C58.1777 141.464 78.6155 141.535 100.449 150.672C122.255 159.797 145.249 177.899 164.209 202.849Z" fill="#FBFBFB" stroke="#232323" stroke-width="2"/>
      <path d="M159.106 209.822C175.278 231.104 184.947 254.084 187.544 273.999C190.144 293.945 185.64 310.594 173.792 319.586C161.945 328.578 144.689 328.447 126.161 320.589C107.663 312.744 88.108 297.267 71.9357 275.985C55.7634 254.703 46.0949 231.723 43.4982 211.809C40.8974 191.862 45.4022 175.213 57.2495 166.221C69.0968 157.229 86.3531 157.36 104.881 165.218C123.379 173.063 142.934 188.54 159.106 209.822Z" fill="#FBFBFB" stroke="#232323" stroke-width="2"/>
      <path d="M71.1632 206.571L134.961 290.526M77.8847 201.469L87.4887 214.107M132.079 272.786L141.683 285.424M121.708 229.414C127.085 227.259 133.01 228.366 139.67 237.131C147.902 247.964 147.891 259.36 138.114 266.781L115.506 283.942M121.804 229.341C122.694 225.12 121.594 219.683 117.407 214.174C109.175 203.341 98.3877 205.835 92.9882 209.933L70.3794 227.093M122.048 229.156L101.272 244.925" stroke="#232323" stroke-width="2"/>
    </g>
  </g>
  <defs>
    <clipPath id="clip0">
      <rect width="1311" height="750" fill="white" transform="translate(175)"/>
    </clipPath>
    <clipPath id="clip1">
      <rect width="1311.35" height="754" fill="white" transform="translate(175 -4)"/>
    </clipPath>
    <clipPath id="clip2">
      <rect width="240.033" height="276.812" fill="white" transform="translate(780.309 117.483)"/>
    </clipPath>
    <clipPath id="clip3">
      <rect width="344.626" height="283" fill="white" transform="translate(993 199)"/>
    </clipPath>
    <clipPath id="clip4">
      <rect width="227.099" height="186.489" fill="white" transform="translate(1285 391.26) rotate(-46.3274)"/>
    </clipPath>
    <clipPath id="clip5">
      <rect width="403.659" height="409" fill="white" transform="translate(1145.61 933.015) rotate(-92.9266)"/>
    </clipPath>
    <clipPath id="clip6">
      <rect width="103.59" height="136.1" fill="white" transform="translate(380.05 181) rotate(50.5209)"/>
    </clipPath>
    <clipPath id="clip7">
      <rect width="77.2265" height="133.096" fill="white" transform="matrix(0.81374 0.581229 -0.580769 0.814068 359.992 181.665)"/>
    </clipPath>
    <clipPath id="clip8">
      <rect width="177.849" height="233.663" fill="white" transform="translate(318.177 482.799) rotate(-95.8661)"/>
    </clipPath>
    <clipPath id="clip9">
      <rect width="132.586" height="228.506" fill="white" transform="matrix(-0.355922 -0.934516 0.934314 -0.35645 347.486 500.911)"/>
    </clipPath>
    <clipPath id="clip10">
      <rect width="177.527" height="233.24" fill="white" transform="translate(0 158.12) rotate(-22.2152)"/>
    </clipPath>
    <clipPath id="clip11">
      <rect width="132.346" height="228.092" fill="white" transform="matrix(0.796541 -0.604585 0.605035 0.796199 -9.1123 191.283)"/>
    </clipPath>
  </defs>
</svg>
