<svg width="672" height="472" viewBox="0 0 672 472" fill="none" xmlns="http://www.w3.org/2000/svg">
  <g clip-path="url(#clip0)">
    <path d="M668.964 250.391C668.964 207.529 605.482 179.54 575.5 135.5C554.023 103.98 582.809 46.0626 512 25.0002C460.329 9.68215 413.489 64.5709 356.384 46.9842C285 25 198.18 -17.6757 101.642 4.7122C29.5569 21.3559 -5.79809e-06 129.466 -1.04504e-05 234.631C-1.51026e-05 339.795 30.5 471.324 168.198 471.324C274.521 471.324 314.973 428.5 394.5 428.5C476.579 428.5 500.979 479.72 562.644 466.758C620.907 454.533 593.052 392.23 614.528 359.09C636.005 325.95 668.964 293.252 668.964 250.391Z" fill="#F4EEE7"/>
    <path d="M119 90H173V150H109C93.536 150 81 137.464 81 122M155 66L81 86V122M81 122V124" stroke="#232323" stroke-width="2"/>
    <rect x="152" y="117" width="14" height="6" stroke="#232323" stroke-width="2"/>
    <path d="M440.847 111.691V154.153H389.154V111.691" stroke="#232323" stroke-width="2" stroke-miterlimit="10"/>
    <path d="M452.516 111.692H377.485C372.742 111.692 368.847 107.529 368.847 102.461C368.847 97.3934 372.742 93.2305 377.485 93.2305H452.516C457.259 93.2305 461.154 97.3934 461.154 102.461C461.154 107.529 457.259 111.692 452.516 111.692Z" stroke="#232323" stroke-width="2" stroke-miterlimit="10"/>
    <path d="M429.77 76.6145C416.017 76.6145 414.923 89.5376 414.923 89.5376C414.923 89.5376 413.985 76.6145 400.231 76.6145C413.985 76.6145 415.079 63.6914 415.079 63.6914C415.079 63.6914 416.017 76.6145 429.77 76.6145Z" stroke="#232323" stroke-width="2" stroke-miterlimit="10"/>
    <path d="M389.154 102.461H440.847" stroke="#232323" stroke-width="2" stroke-miterlimit="10"/>
    <g clip-path="url(#clip1)">
      <mask id="path-8-inside-1" fill="white">
        <path d="M292.028 123.289C305.379 126.176 315.392 131.949 315.392 138.167C315.392 147.272 295.588 154.6 271.334 154.6C247.08 154.6 227.277 147.272 227.277 138.167C227.277 132.172 237.067 126.398 249.973 123.511"/>
      </mask>
      <path d="M291.605 125.244C298.139 126.657 303.746 128.755 307.664 131.18C311.712 133.684 313.392 136.162 313.392 138.167L317.392 138.167C317.392 133.955 314.065 130.437 309.769 127.778C305.343 125.04 299.267 122.808 292.451 121.334L291.605 125.244ZM313.392 138.167C313.392 139.661 312.587 141.323 310.597 143.074C308.61 144.823 305.622 146.487 301.761 147.923C294.054 150.791 283.286 152.6 271.334 152.6L271.334 156.6C283.636 156.6 294.897 154.745 303.156 151.672C307.277 150.139 310.755 148.263 313.24 146.077C315.721 143.894 317.392 141.226 317.392 138.167L313.392 138.167ZM271.334 152.6C259.382 152.6 248.615 150.791 240.908 147.923C237.047 146.487 234.058 144.823 232.071 143.074C230.082 141.323 229.277 139.661 229.277 138.167L225.277 138.167C225.277 141.226 226.947 143.894 229.429 146.077C231.913 148.263 235.391 150.139 239.513 151.672C247.771 154.745 259.032 156.6 271.334 156.6L271.334 152.6ZM229.277 138.167C229.277 136.271 230.902 133.849 234.85 131.366C238.661 128.97 244.103 126.874 250.41 125.463L249.536 121.559C242.937 123.036 237.031 125.27 232.721 127.98C228.547 130.605 225.277 134.068 225.277 138.167L229.277 138.167Z" fill="#232323" mask="url(#path-8-inside-1)"/>
      <path d="M253.979 152.159L249.529 111.744C249.529 99.7526 259.319 89.7598 271.557 89.7598C283.573 89.7598 293.586 99.5305 293.586 111.744L288.246 152.381C288.246 152.381 281.57 153.714 271.78 153.714C261.989 153.714 253.979 152.159 253.979 152.159Z" fill="#FCFCFC" stroke="#232323" stroke-width="2" stroke-miterlimit="10"/>
      <path d="M282.46 68.8863C282.46 79.9894 275.117 89.7601 275.117 89.7601L266.884 89.7601C266.884 89.7601 258.874 82.21 258.874 68.8863C258.874 50.8992 270.444 40.2402 270.444 40.2402C270.444 40.2402 282.46 50.8992 282.46 68.8863Z" stroke="#232323" stroke-width="2" stroke-miterlimit="10"/>
      <path d="M260.653 91.9815C260.653 91.9815 227.499 80.4343 227.499 44.9043C249.75 46.0146 259.096 61.3369 259.096 61.3369" stroke="#232323" stroke-width="2" stroke-miterlimit="10"/>
      <path d="M280.235 91.7581C280.235 91.7581 313.611 80.4329 313.611 45.125C291.36 46.2353 282.237 62.2238 282.237 62.2238" stroke="#232323" stroke-width="2" stroke-miterlimit="10"/>
      <path d="M293.586 113.076L270.89 113.076" stroke="#232323" stroke-width="2" stroke-miterlimit="10"/>
      <path d="M270.444 137.504L252.421 137.504" stroke="#232323" stroke-width="2" stroke-miterlimit="10"/>
    </g>
    <g clip-path="url(#clip2)">
      <path d="M608 107C608 120.168 601.058 132.163 591.036 140.894C581.009 149.63 568.008 155 556.09 155C544.384 155 533.442 146.628 525.332 134.359C517.242 122.121 512.132 106.23 512.002 91.6786C511.937 84.4767 513.698 78.8902 516.695 74.5408C519.695 70.1843 523.984 66.999 529.083 64.6876C539.317 60.0488 552.655 59 564.832 59C588.578 59 608 80.3901 608 107Z" stroke="#232323" stroke-width="2"/>
      <path d="M543 97.5L537.178 108.577L537.128 108.709C535.385 113.3 539.598 117.863 543.847 116.11L546.5 115" stroke="#232323" stroke-width="2"/>
      <path d="M551.169 81.2734C548.703 88.3033 550.969 94.2614 557.64 91.971C565.652 89.2202 568.734 91.3597 568.734 95.3331C568.734 101.752 568.734 112.755 581.368 113.977C589.996 114.812 592.462 113.977 592.462 113.977" stroke="black" stroke-width="2" stroke-linecap="round" stroke-linejoin="round"/>
      <path d="M539.787 103.324C539.787 88.1019 552.127 75.7617 567.35 75.7617C582.572 75.7617 594.912 88.1019 594.912 103.324C594.912 118.547 582.572 130.887 567.35 130.887C556.897 130.887 547.803 125.068 543.131 116.493" stroke="#232323" stroke-width="2" stroke-linecap="round" stroke-linejoin="round"/>
      <path d="M603.793 126.661C601 126.217 598.136 125.986 595.218 125.986C574.715 125.986 556.871 137.37 547.66 154.161" stroke="#232323" stroke-width="2"/>
    </g>
    <path d="M400.386 204V300M411.636 204V218.452M411.636 285.548V300M435.613 248.387C443.059 249.784 448.455 253.848 448.455 263.871C448.455 276.258 439.25 284.516 422.886 284.516L385.045 284.516M435.773 248.387C440.124 245.816 443.341 241.267 443.341 234.968C443.341 222.581 429.878 218.452 420.841 218.452H383M436.182 248.387L401.409 248.387" stroke="#232323" stroke-width="2"/>
    <path d="M554.636 225.818C554.636 237.484 545.484 246.636 533.818 246.636C522.152 246.636 513 237.484 513 225.818C513 214.152 522.152 205 533.818 205C545.484 205 554.636 214.152 554.636 225.818ZM565.364 278.182C565.364 266.516 574.516 257.364 586.182 257.364C597.848 257.364 607 266.516 607 278.182C607 289.848 597.848 299 586.182 299C574.516 299 565.364 289.848 565.364 278.182Z" fill="#FBFBFB" stroke="#232323" stroke-width="2"/>
    <path d="M562.777 212.633C577.883 214.04 588.65 226.985 587.246 242.054C586.915 245.606 586.635 248.118 586.635 249.589" stroke="#232323" stroke-width="2" stroke-linecap="round" stroke-linejoin="round"/>
    <path d="M572.296 233.412C583.326 237.824 586.634 246.28 586.634 251.06C586.634 246.28 593.252 236.353 600.973 233.412" stroke="#232323" stroke-width="2" stroke-linecap="round" stroke-linejoin="round"/>
    <path d="M556.813 294.633C541.707 293.226 530.941 280.28 532.345 265.211C532.676 261.66 532.956 259.148 532.956 257.677" stroke="#232323" stroke-width="2" stroke-linecap="round" stroke-linejoin="round"/>
    <path d="M547.295 273.854C536.265 269.442 532.956 260.986 532.956 256.206C532.956 260.986 526.339 270.912 518.618 273.854" stroke="#232323" stroke-width="2" stroke-linecap="round" stroke-linejoin="round"/>
    <g clip-path="url(#clip3)">
      <path d="M299.671 240.771L299.68 240.792L299.689 240.813C300.855 243.377 303.266 245.017 306.535 245.914C309.577 246.748 313.464 246.971 318.074 246.669C318.374 251.125 318.35 255.265 317.749 259.368C313.274 259.237 309.376 259.551 306.335 260.385C303.126 261.265 300.646 262.792 299.671 265.228C298.705 267.644 299.37 270.486 300.979 273.34C302.49 276.022 304.922 278.879 308.031 281.715C305.556 284.776 302.512 287.792 299.166 290.25C296.312 286.949 293.434 284.497 290.729 283.021C287.849 281.451 285.02 280.914 282.628 281.871L282.59 281.886L282.553 281.905C280.2 283.081 278.677 285.488 277.789 288.572C276.962 291.441 276.645 295.019 276.764 299.077C272.632 299.373 268.524 299.348 264.432 298.749C264.56 294.475 264.245 290.769 263.411 287.872C262.523 284.792 260.987 282.437 258.571 281.471C256.18 280.514 253.451 281.05 250.67 282.572C248.064 283.998 245.286 286.352 242.453 289.464C239.075 286.985 236.014 283.924 233.535 280.546C236.647 277.713 239.001 274.935 240.427 272.329C241.949 269.548 242.485 266.819 241.528 264.428C240.57 262.032 238.238 260.387 235.142 259.443C232.241 258.558 228.535 258.239 224.255 258.53C223.649 254.091 223.649 249.949 224.251 245.831C228.538 245.96 232.333 245.645 235.318 244.813C238.478 243.932 240.955 242.404 241.928 239.971C242.885 237.579 242.348 234.75 240.778 231.87C239.307 229.175 236.868 226.308 233.584 223.463C236.057 220.409 239.094 217.401 242.433 214.949C245.281 218.255 248.151 220.795 250.847 222.364C253.707 224.028 256.552 224.695 258.971 223.728L258.993 223.719L259.014 223.71C261.575 222.545 263.216 220.137 264.113 216.918C264.95 213.915 265.173 210.107 264.868 205.655C269.295 205.05 273.426 205.048 277.533 205.645C277.226 210.114 277.447 214.008 278.232 217.049C279.063 220.27 280.59 222.752 283.028 223.728L283.043 223.734L283.058 223.739C285.646 224.68 288.566 224.042 291.496 222.367C294.242 220.798 297.118 218.255 299.967 214.949C303.331 217.421 306.381 220.471 308.852 223.836C305.355 226.868 302.71 229.84 301.088 232.592C299.374 235.501 298.702 238.348 299.671 240.771ZM270.293 265.906L271 266.613L271.707 265.906L284.907 252.706L285.614 251.999L284.907 251.292L271.707 238.092L271 237.385L270.293 238.092L257.093 251.292L256.386 251.999L257.093 252.706L270.293 265.906Z" stroke="#232323" stroke-width="2"/>
    </g>
    <path d="M110.419 279.186L110.68 279H111H169C171.761 279 174 276.761 174 274V209H111C93.9523 209 80 222.952 80 240V276V299H82.6795L110.419 279.186Z" fill="#FBFBFB" stroke="#232323" stroke-width="2"/>
    <path d="M103 238H151" stroke="#232323" stroke-width="2"/>
    <path d="M103 250H139" stroke="#232323" stroke-width="2"/>
    <path d="M93.4 367H160.6C168.149 367 174 373.142 174 381.347V416.274C174 424.512 168.118 431 160.6 431H93.4C85.8819 431 80 424.512 80 416.274V381.347C80 373.142 85.8514 367 93.4 367Z" stroke="#232323" stroke-width="2"/>
    <rect x="140" y="403" width="16" height="10" stroke="#232323" stroke-width="2"/>
    <path d="M240.334 380.751L243.926 436.425C244.061 438.53 245.808 440.167 247.917 440.167H294.083C296.193 440.167 297.939 438.53 298.075 436.425L301.667 380.751M278.667 428.667L282.5 380.751M263.334 428.667L259.5 380.751M232.667 367.334H259.5M309.334 367.334H282.5M259.5 367.334V359.834C259.5 357.625 261.291 355.834 263.5 355.834H278.5C280.709 355.834 282.5 357.625 282.5 359.834V367.334M259.5 367.334H282.5" stroke="#232323" stroke-width="2"/>
    <path d="M414.998 415C413.694 415 411.963 414.552 409.874 413.683C407.802 412.822 405.457 411.581 402.95 410.075C397.936 407.063 392.346 403.035 387.11 398.991C381.877 394.949 377.016 390.906 373.461 387.872C371.684 386.355 370.235 385.091 369.231 384.207C368.729 383.765 368.338 383.418 368.073 383.182C368.047 383.159 368.023 383.138 368 383.117V380C368 376.136 371.132 373 374.998 373H454.998C458.866 373 461.996 376.132 462 379.992L461.943 383.543C461.92 383.564 461.895 383.586 461.869 383.609C461.604 383.842 461.214 384.184 460.712 384.62C459.709 385.493 458.263 386.739 456.489 388.236C452.94 391.229 448.086 395.218 442.861 399.205C437.632 403.195 432.05 407.169 427.041 410.14C424.537 411.626 422.194 412.85 420.124 413.7C418.036 414.557 416.305 415 414.998 415ZM414.998 429C416.692 429 418.709 428.443 420.884 427.55C423.076 426.65 425.51 425.374 428.062 423.86C433.167 420.831 438.819 416.805 444.074 412.795C449.334 408.782 454.214 404.771 457.778 401.764C459.511 400.302 460.934 399.077 461.94 398.204L462 436C462 436 462 436.001 462 436.001C461.999 439.865 458.868 443 454.998 443H374.998C371.136 443 368 439.864 368 436.001C368 436.001 368 436 368 436L368.06 398.204C369.066 399.077 370.488 400.303 372.221 401.764C375.785 404.771 380.665 408.782 385.924 412.795C391.178 416.805 396.83 420.831 401.935 423.86C404.487 425.374 406.92 426.65 409.113 427.55C411.287 428.443 413.304 429 414.998 429Z" fill="#FBFBFB" stroke="#232323" stroke-width="2"/>
    <path d="M568.429 406.57V405.57H567.429H551.941H550.941V406.57V422.058V423.058H551.941H567.429H568.429V422.058V406.57ZM588.371 414.314C588.371 430.157 575.528 443 559.685 443C543.843 443 531 430.157 531 414.314C531 398.472 543.843 385.629 559.685 385.629C575.528 385.629 588.371 398.472 588.371 414.314Z" stroke="#232323" stroke-width="2"/>
    <path d="M581.691 389.724V370.219C581.691 357.628 572.047 348 559.437 348C546.826 348 537.183 357.628 537.183 370.219V389.784" stroke="#232323" stroke-width="2"/>
  </g>
  <defs>
    <clipPath id="clip0">
      <rect width="672" height="472" fill="white"/>
    </clipPath>
    <clipPath id="clip1">
      <rect width="121.6" height="96" fill="white" transform="translate(319 34) rotate(90)"/>
    </clipPath>
    <clipPath id="clip2">
      <rect width="98" height="98" fill="white" transform="translate(511 58)"/>
    </clipPath>
    <clipPath id="clip3">
      <rect width="96" height="96" fill="white" transform="translate(223 204)"/>
    </clipPath>
  </defs>
</svg>
