<svg width="672" height="1216" viewBox="0 0 672 1216" fill="none" xmlns="http://www.w3.org/2000/svg">
  <g clip-path="url(#clip0)">
    <mask id="mask0" mask-type="alpha" maskUnits="userSpaceOnUse" x="2" y="0" width="651" height="1197">
      <path fill-rule="evenodd" clip-rule="evenodd" d="M2 0H653V1197H2V0Z" fill="white"/>
    </mask>
    <g mask="url(#mask0)">
      <path fill-rule="evenodd" clip-rule="evenodd" d="M525.314 5.16948C420.369 -19.1678 333.479 49.3959 287.043 66.3603C205.199 96.2604 136.556 44.1091 54.0518 103.214C6.78101 137.078 -3.35508 190.017 5.20948 247.847C19.7302 345.891 139.196 441.154 139.196 509.994C139.196 621.25 -19.8717 635.157 4.54945 756.843C21.7921 842.759 103.9 844.357 135.236 914.688C150.416 948.76 151.076 989.09 157.677 1065.58C165.085 1151.43 308.906 1197 422.349 1197C496.273 1197 589.997 1152.5 632.239 1035.68C671.174 928.004 601.877 765.187 570.856 687.308C524.82 571.735 592.083 466.968 623.659 379.268C681.741 217.947 655.919 35.4576 525.314 5.16948Z" fill="#232323"/>
    </g>
    <g clip-path="url(#clip1)">
      <g clip-path="url(#clip2)">
        <path fill-rule="evenodd" clip-rule="evenodd" d="M457.067 551.46L425.046 551.932C424.643 524.567 374.909 486.125 374.038 427.113C373.298 376.875 383.462 348.888 390.335 336.076C395.653 326.162 401.224 320.154 411.46 320.003C422.933 319.834 430.264 326.13 433.493 346.84C444.199 415.509 470.502 463.859 457.067 551.46Z" fill="#EADDCF"/>
        <path d="M457.067 551.46L425.046 551.932C424.643 524.567 374.909 486.125 374.038 427.113C373.298 376.875 383.462 348.888 390.335 336.076C395.653 326.162 401.224 320.154 411.46 320.003C422.933 319.834 430.264 326.13 433.493 346.84C444.199 415.509 470.502 463.859 457.067 551.46" stroke="#232323" stroke-width="2"/>
        <path fill-rule="evenodd" clip-rule="evenodd" d="M457.067 551.46L425.046 551.932C424.643 524.567 374.909 486.125 374.038 427.113C373.298 376.875 383.462 348.888 390.335 336.076C395.653 326.162 401.224 320.154 411.46 320.003C422.933 319.834 430.264 326.13 433.493 346.84C444.199 415.509 470.502 463.859 457.067 551.46Z" stroke="#1D1D1B" stroke-width="2"/>
        <path fill-rule="evenodd" clip-rule="evenodd" d="M437.643 556.03C437.195 525.635 391.877 488.18 387.175 439.456C383.229 398.562 395.163 358.986 397.934 348.499C400.368 339.283 404.056 332.696 410.589 332.776C416.334 332.847 420.248 337.562 421.251 349.39C423.934 381.027 426.571 430.613 430.366 464.715C434.436 501.288 442.509 545.923 455.172 560.566" fill="#FBFBFB"/>
        <path d="M437.643 556.03C437.195 525.635 391.877 488.18 387.175 439.456C383.229 398.562 395.163 358.986 397.934 348.499C400.368 339.283 404.056 332.696 410.589 332.776C416.334 332.847 420.248 337.562 421.251 349.39C423.934 381.027 426.571 430.613 430.366 464.716C434.436 501.288 442.509 545.923 455.172 560.566" stroke="#232323" stroke-width="2"/>
        <path d="M437.643 556.03C437.195 525.635 391.877 488.18 387.175 439.456C383.229 398.562 395.163 358.986 397.934 348.499C400.368 339.283 404.056 332.696 410.589 332.776C416.334 332.847 420.248 337.562 421.251 349.39C423.934 381.027 426.571 430.613 430.366 464.716C434.436 501.288 442.509 545.923 455.172 560.566" stroke="#1D1D1B" stroke-width="2"/>
        <path fill-rule="evenodd" clip-rule="evenodd" d="M473.864 551.46L505.884 551.932C506.289 524.567 556.022 486.125 556.892 427.113C557.633 376.875 547.468 348.888 540.595 336.076C535.277 326.162 529.706 320.154 519.471 320.003C507.998 319.834 500.666 326.13 497.438 346.84C486.732 415.509 460.428 463.859 473.864 551.46Z" fill="#E3D3C4"/>
        <path fill-rule="evenodd" clip-rule="evenodd" d="M473.864 551.46L505.884 551.932C506.289 524.567 556.022 486.125 556.892 427.113C557.633 376.875 547.468 348.888 540.595 336.076C535.277 326.162 529.706 320.154 519.471 320.003C507.998 319.834 500.666 326.13 497.438 346.84C486.732 415.509 460.428 463.859 473.864 551.46Z" fill="#EADDCF" stroke="#232323" stroke-width="2"/>
        <path fill-rule="evenodd" clip-rule="evenodd" d="M493.288 556.03C493.737 525.635 539.055 488.18 543.756 439.456C547.703 398.562 535.768 358.986 532.998 348.499C530.563 339.283 526.875 332.696 520.342 332.776C514.597 332.847 510.684 337.562 509.681 349.39C506.997 381.027 504.36 430.613 500.565 464.715C496.495 501.288 488.422 545.923 475.76 560.566" fill="#FBFBFB"/>
        <path d="M493.288 556.03C493.737 525.635 539.055 488.18 543.756 439.456C547.703 398.562 535.768 358.986 532.998 348.499C530.563 339.283 526.875 332.696 520.342 332.776C514.597 332.847 510.684 337.562 509.681 349.39C506.997 381.027 504.36 430.613 500.565 464.716C496.495 501.288 488.422 545.923 475.76 560.566" stroke="#232323" stroke-width="2"/>
        <path d="M493.288 556.03C493.737 525.635 539.055 488.18 543.756 439.456C547.703 398.562 535.768 358.986 532.998 348.499C530.563 339.283 526.875 332.696 520.342 332.776C514.597 332.847 510.684 337.562 509.681 349.39C506.997 381.027 504.36 430.613 500.565 464.716C496.495 501.288 488.422 545.923 475.76 560.566" stroke="#1D1D1B" stroke-width="2"/>
      </g>
    </g>
    <path fill-rule="evenodd" clip-rule="evenodd" d="M324.898 550.087C324.898 532.595 339.079 518.414 356.572 518.414C374.065 518.414 388.246 532.595 388.246 550.087H324.898Z" fill="white"/>
    <path fill-rule="evenodd" clip-rule="evenodd" d="M324.898 550.087C324.898 532.595 339.079 518.414 356.572 518.414C374.065 518.414 388.246 532.595 388.246 550.087H324.898Z" fill="#FBFBFB" stroke="#232323" stroke-width="2"/>
    <path fill-rule="evenodd" clip-rule="evenodd" d="M342.186 532.666V550.615V532.666Z" fill="#FBFBFB"/>
    <path d="M342.186 532.666V550.615" stroke="#232323" stroke-width="2"/>
    <path fill-rule="evenodd" clip-rule="evenodd" d="M356.571 532.666V550.615V532.666Z" fill="#FBFBFB"/>
    <path d="M356.571 532.666V550.615" stroke="#232323" stroke-width="2"/>
    <path fill-rule="evenodd" clip-rule="evenodd" d="M370.958 532.666V550.615V532.666Z" fill="#FBFBFB"/>
    <path d="M370.958 532.666V550.615" stroke="#232323" stroke-width="2"/>
    <path fill-rule="evenodd" clip-rule="evenodd" d="M541.863 550.087C541.863 532.595 556.044 518.414 573.537 518.414C591.03 518.414 605.211 532.595 605.211 550.087H541.863Z" fill="white"/>
    <path fill-rule="evenodd" clip-rule="evenodd" d="M541.863 550.087C541.863 532.595 556.044 518.414 573.537 518.414C591.03 518.414 605.211 532.595 605.211 550.087H541.863Z" fill="#FBFBFB" stroke="#232323" stroke-width="2"/>
    <path fill-rule="evenodd" clip-rule="evenodd" d="M559.151 532.666V550.615V532.666Z" fill="#FBFBFB"/>
    <path d="M559.151 532.666V550.615" stroke="#232323" stroke-width="2"/>
    <path fill-rule="evenodd" clip-rule="evenodd" d="M573.537 532.666V550.615V532.666Z" fill="#FBFBFB"/>
    <path d="M573.537 532.666V550.615" stroke="#232323" stroke-width="2"/>
    <path fill-rule="evenodd" clip-rule="evenodd" d="M587.922 532.666V550.615V532.666Z" fill="#FBFBFB"/>
    <path d="M587.922 532.666V550.615" stroke="#232323" stroke-width="2"/>
    <path fill-rule="evenodd" clip-rule="evenodd" d="M317.556 349.353C317.556 367.369 253.635 381.974 174.785 381.974C95.9347 381.974 32.0137 367.369 32.0137 349.353C32.0137 331.338 95.9347 316.732 174.785 316.732C253.635 316.732 317.556 331.338 317.556 349.353Z" fill="#FBFBFB" stroke="#232323" stroke-width="2"/>
    <path fill-rule="evenodd" clip-rule="evenodd" d="M271.563 349.353C271.563 359.034 228.233 366.881 174.784 366.881C121.335 366.881 78.0059 359.034 78.0059 349.353C78.0059 339.672 121.335 331.824 174.784 331.824C228.233 331.824 271.563 339.672 271.563 349.353Z" fill="#232323"/>
    <path fill-rule="evenodd" clip-rule="evenodd" d="M271.563 349.353C271.563 359.034 228.233 366.881 174.784 366.881C121.335 366.881 78.0059 359.034 78.0059 349.353C78.0059 339.672 121.335 331.824 174.784 331.824C228.233 331.824 271.563 339.672 271.563 349.353Z" stroke="#1D1D1B" stroke-width="2"/>
    <path fill-rule="evenodd" clip-rule="evenodd" d="M190.507 359.654H156.795V330.976H190.885C202.803 330.976 207.89 336.619 207.89 346.025C207.89 354.345 201.738 359.654 190.507 359.654ZM185.902 275.267C201.98 275.267 204.345 284.695 204.345 290.451C204.345 296.207 198.955 305.044 186.035 305.044H156.795V275.267H185.902ZM197.352 315.823C215.986 311.747 224.081 297.214 224.081 285.38C224.081 265.175 205.64 249.664 182.127 249.664V231.822H165.632V249.664H156.795V231.822H140.3V249.664H116.188V275.266H140.3V359.653H116.391V385.585H140.3V403.11H156.795V385.585H165.768V403.223H182.263V385.585C215.432 385.585 229.319 368.481 229.319 347.149C229.319 329.881 214.295 317.426 197.352 315.823Z" fill="#EADDCF"/>
    <path fill-rule="evenodd" clip-rule="evenodd" d="M77.373 373.05V551.318L272.02 551.894V372.475" fill="white"/>
    <path fill-rule="evenodd" clip-rule="evenodd" d="M77.373 373.05V551.318L272.02 551.894V372.475" fill="#FBFBFB"/>
    <path d="M77.373 373.05V551.318L272.02 551.894V372.475" stroke="#232323" stroke-width="2"/>
    <path fill-rule="evenodd" clip-rule="evenodd" d="M116.867 379.299V550.836V379.299Z" fill="#FBFBFB"/>
    <path d="M116.867 379.299V550.836" stroke="#232323" stroke-width="2"/>
    <path fill-rule="evenodd" clip-rule="evenodd" d="M32.0137 349.353C32.0137 367.368 95.9347 381.974 174.785 381.974C253.635 381.974 317.556 367.368 317.556 349.353L272.488 349.334C272.488 354.592 247.49 368.004 174.257 368.004C114.402 368.004 77.7849 358.474 77.7849 349.333L32.0137 349.353Z" fill="white"/>
    <path fill-rule="evenodd" clip-rule="evenodd" d="M32.0137 349.353C32.0137 367.368 95.9347 381.974 174.785 381.974C253.635 381.974 317.556 367.368 317.556 349.353L272.488 349.334C272.488 354.592 247.49 368.004 174.257 368.004C114.402 368.004 77.7849 358.474 77.7849 349.333L32.0137 349.353Z" fill="#FBFBFB" stroke="#232323" stroke-width="2"/>
    <path fill-rule="evenodd" clip-rule="evenodd" d="M4.64258 551.139H651.908H4.64258Z" fill="#FBFBFB"/>
    <path d="M4.64258 551.139H651.908" stroke="#232323" stroke-width="2"/>
    <path d="M139.516 147.888C139.516 147.888 224.092 136.916 224.092 223.696" stroke="#FBFBFB" stroke-width="2"/>
    <path d="M233.304 204.115V126.524" stroke="#FBFBFB" stroke-width="2"/>
    <path d="M265.23 258.762V179.311" stroke="#FBFBFB" stroke-width="2"/>
    <path fill-rule="evenodd" clip-rule="evenodd" d="M510.831 61.0444L510.829 62.1068C495.841 62.1068 487.084 71.2101 487.084 86.1673L485.587 86.1667C485.587 71.1407 476.611 62.1068 461.755 62.1068L461.754 61.0444C476.611 61.0444 485.59 51.9325 485.59 36.9746H487.084C487.084 51.9325 495.841 61.0444 510.831 61.0444Z" fill="#FBFBFB"/>
    <path fill-rule="evenodd" clip-rule="evenodd" d="M568.102 157.869C568.102 165.749 561.731 172.136 553.871 172.136C546.01 172.136 539.639 165.749 539.639 157.869C539.639 149.99 546.01 143.603 553.871 143.603C561.731 143.603 568.102 149.99 568.102 157.869Z" fill="#FBFBFB"/>
    <path fill-rule="evenodd" clip-rule="evenodd" d="M169.002 101.432C169.002 104.711 166.351 107.369 163.08 107.369C159.809 107.369 157.158 104.711 157.158 101.432C157.158 98.1532 159.809 95.4951 163.08 95.4951C166.351 95.4951 169.002 98.1532 169.002 101.432Z" fill="#FBFBFB"/>
    <path fill-rule="evenodd" clip-rule="evenodd" d="M342.557 451.382C342.557 454.661 339.905 457.319 336.635 457.319C333.364 457.319 330.713 454.661 330.713 451.382C330.713 448.103 333.364 445.445 336.635 445.445C339.905 445.445 342.557 448.103 342.557 451.382Z" fill="#FBFBFB"/>
    <path fill-rule="evenodd" clip-rule="evenodd" d="M144.861 147.467C144.861 147.467 123.811 147.661 123.811 168.569C123.811 147.538 102.762 147.467 102.762 147.467C102.762 147.467 123.811 148.583 123.811 126.365C123.811 148.583 144.861 147.467 144.861 147.467Z" fill="#FBFBFB"/>
    <path fill-rule="evenodd" clip-rule="evenodd" d="M288.305 174.083C288.305 174.083 265.061 174.297 265.061 197.385C265.061 174.161 241.816 174.083 241.816 174.083C241.816 174.083 265.061 175.314 265.061 150.78C265.061 175.314 288.305 174.083 288.305 174.083Z" fill="#FBFBFB"/>
    <path fill-rule="evenodd" clip-rule="evenodd" d="M406.343 170.166C406.343 170.166 399.93 170.225 399.93 176.594C399.93 170.187 393.518 170.166 393.518 170.166C393.518 170.166 399.93 170.506 399.93 163.737C399.93 170.506 406.343 170.166 406.343 170.166Z" fill="#FBFBFB"/>
    <g clip-path="url(#clip3)">
      <path fill-rule="evenodd" clip-rule="evenodd" d="M303.45 1037.94V1215.68L498.011 1216.26V1037.36" fill="white"/>
      <path d="M303.45 1037.94V1215.68L498.011 1216.26V1037.36" stroke="#1D1D1B" stroke-width="2"/>
      <path fill-rule="evenodd" clip-rule="evenodd" d="M543.526 1014.31C543.526 1032.27 479.633 1046.83 400.818 1046.83C322.002 1046.83 258.11 1032.27 258.11 1014.31C258.11 996.343 322.002 981.781 400.818 981.781C479.633 981.781 543.526 996.343 543.526 1014.31Z" fill="#FBFBFB" stroke="#232323" stroke-width="2"/>
      <path fill-rule="evenodd" clip-rule="evenodd" d="M497.553 1014.31C497.553 1023.96 454.243 1031.78 400.818 1031.78C347.392 1031.78 304.082 1023.96 304.082 1014.31C304.082 1004.65 347.392 996.83 400.818 996.83C454.243 996.83 497.553 1004.65 497.553 1014.31Z" fill="#232323"/>
      <path fill-rule="evenodd" clip-rule="evenodd" d="M497.553 1014.31C497.553 1023.96 454.243 1031.78 400.818 1031.78C347.392 1031.78 304.082 1023.96 304.082 1014.31C304.082 1004.65 347.392 996.83 400.818 996.83C454.243 996.83 497.553 1004.65 497.553 1014.31Z" stroke="#1D1D1B" stroke-width="2"/>
      <path fill-rule="evenodd" clip-rule="evenodd" d="M438.119 857.916H467.213C483.284 857.916 485.647 868.279 485.647 874.018C485.647 879.758 481.596 887.607 470.455 887.607H438.119V857.916ZM466.163 913.464C487.223 913.464 502.19 894.613 502.19 873.343C502.19 853.198 488.69 832.62 460.061 832.395L397.529 832.389V857.916H421.631V922.823H397.529V948.351H421.631V970.806H438.118V948.351H478.047V922.823H438.118V913.464H466.163Z" fill="#EADDCF"/>
      <path fill-rule="evenodd" clip-rule="evenodd" d="M350.594 847.744C350.497 847.807 350.445 847.839 350.445 847.839C350.501 847.895 350.55 847.859 350.594 847.744Z" fill="#E3D3C4"/>
      <path fill-rule="evenodd" clip-rule="evenodd" d="M375.127 807.033C375.127 780.605 356.409 771.907 336.964 770.287C324.524 769.251 314.917 768.69 305.331 767.677C294.845 766.569 283.481 761.98 283.481 752.628C283.481 741.529 296.606 737.87 306.778 737.87C340.995 737.87 361.401 752.713 361.401 752.713V724.915C351.831 717.565 333.851 712.343 333.851 712.343V698.682H317.364V712.343H308.53V698.682H292.042V712.924C277.689 719.09 264.6 728.898 264.6 752.394C264.6 778.822 288.476 790.524 308.846 792.335C323.225 793.613 334.732 793.663 342.716 794.892C351.024 796.169 355.955 799.321 355.955 808.151C355.955 819.316 344.098 822.186 329.023 822.186C291.958 822.186 270.895 808.876 270.895 808.876V836.675C279.69 844.024 295.234 846.144 295.234 846.144V866.046H311.722V847.713H320.555V866.465H337.043V847.713C361.248 845.376 375.127 829.576 375.127 807.033Z" fill="#EADDCF"/>
      <path fill-rule="evenodd" clip-rule="evenodd" d="M355.596 1045.22V1216.26V1045.22Z" fill="#FBFBFB"/>
      <path d="M355.596 1045.22V1216.26" stroke="#232323" stroke-width="2"/>
      <path fill-rule="evenodd" clip-rule="evenodd" d="M497.915 1014H543.666H497.915Z" fill="#FBFBFB"/>
      <path d="M497.915 1014H543.666" stroke="#232323" stroke-width="2"/>
      <path fill-rule="evenodd" clip-rule="evenodd" d="M509.702 729.66C504.947 712.219 489.212 701.963 476.437 694.075C459.364 683.533 441.746 672.079 438.226 679.117C434.963 685.644 452.773 699.585 461.494 701.963C461.494 701.963 429.269 701.194 417.578 701.194C407.5 701.194 404.681 704.895 405.22 709.943C405.763 715.035 412.346 717.06 419.098 717.905C429.181 719.165 456.875 717.502 456.875 717.502C456.875 717.502 423.483 721.938 414.034 723.981C407.789 725.331 400.568 727.696 401.02 733.88C401.544 741.029 411.975 741.145 420.339 740.179C431.257 738.919 461.075 730.521 461.075 730.521C461.075 730.521 443.066 735.121 425.85 749.131C414.665 758.233 407.241 768.62 410.32 772.931C413.696 777.657 423.844 773.066 438.35 763.21C451.516 754.264 478.133 744.518 484.813 751.12C491.368 757.598 483.332 768.317 471.66 776.955C463.45 783.029 449.137 787.512 449.488 793.143C449.917 799.999 461.491 802.196 482.564 790.823C504.736 778.858 516.463 754.461 509.702 729.66Z" fill="#FBFBFB"/>
      <path d="M509.702 729.66C504.947 712.219 489.212 701.963 476.437 694.075C459.364 683.533 441.746 672.079 438.226 679.117C434.963 685.644 452.773 699.585 461.494 701.963C461.494 701.963 429.269 701.194 417.578 701.194C407.5 701.194 404.681 704.895 405.22 709.943C405.763 715.035 412.346 717.06 419.098 717.905C429.181 719.165 456.875 717.502 456.875 717.502C456.875 717.502 423.483 721.938 414.034 723.981C407.789 725.331 400.568 727.696 401.02 733.88C401.544 741.029 411.975 741.145 420.339 740.179C431.257 738.919 461.075 730.521 461.075 730.521C461.075 730.521 443.066 735.121 425.85 749.131C414.665 758.233 407.241 768.62 410.32 772.931C413.696 777.657 423.844 773.066 438.35 763.21C451.516 754.264 478.133 744.518 484.813 751.12C491.368 757.598 483.332 768.317 471.66 776.955C463.45 783.029 449.137 787.512 449.488 793.143C449.917 799.999 461.491 802.196 482.564 790.823C504.736 778.858 516.463 754.461 509.702 729.66" stroke="#232323" stroke-width="2"/>
      <path fill-rule="evenodd" clip-rule="evenodd" d="M512.559 780.436V704.42H615.323C644.181 704.42 671.279 726.943 671.279 762.137V864.015C671.279 888.299 654.387 910.387 627.992 910.387C601.597 910.387 584.704 888.299 584.704 861.903V798.737C584.704 786.067 578.017 780.436 566.052 780.436H512.559Z" fill="#FBFBFB" stroke="#232323" stroke-width="2"/>
      <path fill-rule="evenodd" clip-rule="evenodd" d="M512.559 780.436C512.559 780.436 537.49 770.559 537.49 743.165C537.49 714.697 512.559 704.42 512.559 704.42" fill="#FBFBFB"/>
      <path d="M512.559 780.436C512.559 780.436 537.49 770.559 537.49 743.165C537.49 714.697 512.559 704.42 512.559 704.42" stroke="#232323" stroke-width="2"/>
      <path fill-rule="evenodd" clip-rule="evenodd" d="M545.011 780.436C545.011 780.436 566.496 770.559 566.496 743.165C566.496 714.697 547.159 704.42 547.159 704.42" fill="#FBFBFB"/>
      <path d="M545.011 780.436C545.011 780.436 566.496 770.559 566.496 743.165C566.496 714.697 547.159 704.42 547.159 704.42" stroke="#232323" stroke-width="2"/>
      <path fill-rule="evenodd" clip-rule="evenodd" d="M546.249 714.79C546.249 712.062 544.038 709.85 541.309 709.85C538.58 709.85 536.368 712.062 536.368 714.79C536.368 717.52 538.58 719.731 541.309 719.731C544.038 719.731 546.249 717.52 546.249 714.79Z" fill="#1D1D1B"/>
      <path d="M0 1215L657 1215" stroke="#232323" stroke-width="2"/>
      <path fill-rule="evenodd" clip-rule="evenodd" d="M175.938 1126.25C180.693 1143.7 196.428 1153.95 209.204 1161.84C226.276 1172.38 243.894 1183.84 247.414 1176.8C250.676 1170.27 232.866 1156.33 224.146 1153.95C224.146 1153.95 256.371 1154.72 268.062 1154.72C278.14 1154.72 280.958 1151.02 280.42 1145.97C279.877 1140.88 273.294 1138.85 266.542 1138.01C256.458 1136.75 228.765 1138.41 228.765 1138.41C228.765 1138.41 262.157 1133.98 271.606 1131.93C277.851 1130.58 285.072 1128.22 284.619 1122.03C284.097 1114.89 273.664 1114.77 265.301 1115.74C254.383 1116.99 224.565 1125.39 224.565 1125.39C224.565 1125.39 242.574 1120.79 259.791 1106.78C270.975 1097.68 278.398 1087.29 275.319 1082.98C271.943 1078.26 261.795 1082.85 247.29 1092.7C234.124 1101.65 207.507 1111.4 200.827 1104.79C194.272 1098.32 202.308 1087.6 213.98 1078.96C222.19 1072.89 236.504 1068.4 236.152 1062.77C235.724 1055.92 224.149 1053.72 203.076 1065.09C180.904 1077.06 169.177 1101.45 175.938 1126.25Z" fill="#FBFBFB"/>
      <path d="M175.938 1126.25C180.693 1143.7 196.428 1153.95 209.204 1161.84C226.276 1172.38 243.894 1183.84 247.414 1176.8C250.676 1170.27 232.866 1156.33 224.146 1153.95C224.146 1153.95 256.371 1154.72 268.062 1154.72C278.14 1154.72 280.958 1151.02 280.42 1145.97C279.877 1140.88 273.294 1138.85 266.542 1138.01C256.458 1136.75 228.765 1138.41 228.765 1138.41C228.765 1138.41 262.157 1133.98 271.606 1131.93C277.851 1130.58 285.072 1128.22 284.619 1122.03C284.097 1114.89 273.664 1114.77 265.301 1115.74C254.383 1116.99 224.565 1125.39 224.565 1125.39C224.565 1125.39 242.574 1120.79 259.791 1106.78C270.975 1097.68 278.398 1087.29 275.319 1082.98C271.943 1078.26 261.795 1082.85 247.29 1092.7C234.124 1101.65 207.507 1111.4 200.827 1104.79C194.272 1098.32 202.308 1087.6 213.98 1078.96C222.19 1072.89 236.504 1068.4 236.152 1062.77C235.724 1055.92 224.149 1053.72 203.076 1065.09C180.904 1077.06 169.177 1101.45 175.938 1126.25" stroke="#232323" stroke-width="2"/>
      <path fill-rule="evenodd" clip-rule="evenodd" d="M173.081 1075.48V1151.5H70.3174C41.4594 1151.5 14.3613 1128.97 14.3613 1093.78V991.901C14.3613 967.618 31.2534 945.529 57.6487 945.529C84.0433 945.529 100.935 967.618 100.935 994.013V1057.18C100.935 1069.85 107.623 1075.48 119.588 1075.48H173.081Z" fill="#FBFBFB" stroke="#232323" stroke-width="2"/>
      <path fill-rule="evenodd" clip-rule="evenodd" d="M173.081 1075.48C173.081 1075.48 148.149 1085.36 148.149 1112.75C148.149 1141.22 173.081 1151.5 173.081 1151.5" fill="#FBFBFB"/>
      <path d="M173.081 1075.48C173.081 1075.48 148.149 1085.36 148.149 1112.75C148.149 1141.22 173.081 1151.5 173.081 1151.5" stroke="#232323" stroke-width="2"/>
      <path fill-rule="evenodd" clip-rule="evenodd" d="M140.63 1075.48C140.63 1075.48 119.145 1085.36 119.145 1112.75C119.145 1141.22 138.482 1151.5 138.482 1151.5" fill="#FBFBFB"/>
      <path d="M140.63 1075.48C140.63 1075.48 119.145 1085.36 119.145 1112.75C119.145 1141.22 138.482 1151.5 138.482 1151.5" stroke="#232323" stroke-width="2"/>
      <path fill-rule="evenodd" clip-rule="evenodd" d="M139.391 1141.12C139.391 1143.85 141.603 1146.06 144.331 1146.06C147.061 1146.06 149.273 1143.85 149.273 1141.12C149.273 1138.4 147.061 1136.18 144.331 1136.18C141.603 1136.18 139.391 1138.4 139.391 1141.12Z" fill="#1D1D1B"/>
      <path fill-rule="evenodd" clip-rule="evenodd" d="M603.016 1036.07C603.016 1038.8 600.804 1041.01 598.076 1041.01C595.347 1041.01 593.135 1038.8 593.135 1036.07C593.135 1033.34 595.347 1031.13 598.076 1031.13C600.804 1031.13 603.016 1033.34 603.016 1036.07Z" fill="#FBFBFB"/>
      <path fill-rule="evenodd" clip-rule="evenodd" d="M209.187 826.385C209.187 831.448 205.083 835.553 200.02 835.553C194.957 835.553 190.854 831.448 190.854 826.385C190.854 821.323 194.957 817.219 200.02 817.219C205.083 817.219 209.187 821.323 209.187 826.385Z" fill="#FBFBFB"/>
      <path fill-rule="evenodd" clip-rule="evenodd" d="M521.1 656.161C521.1 661.221 516.998 665.323 511.939 665.323C506.879 665.323 502.777 661.221 502.777 656.161C502.777 651.102 506.879 647 511.939 647C516.998 647 521.1 651.102 521.1 656.161Z" fill="#FBFBFB"/>
      <path fill-rule="evenodd" clip-rule="evenodd" d="M224.656 663.933C224.656 666.982 222.183 669.455 219.133 669.455C216.084 669.455 213.611 666.982 213.611 663.933C213.611 660.883 216.084 658.41 219.133 658.41C222.183 658.41 224.656 660.883 224.656 663.933Z" fill="#FBFBFB"/>
      <path fill-rule="evenodd" clip-rule="evenodd" d="M529.096 930.494C529.096 930.494 520.65 930.571 520.65 938.94C520.65 930.522 512.203 930.494 512.203 930.494C512.203 930.494 520.65 930.94 520.65 922.047C520.65 930.94 529.096 930.494 529.096 930.494Z" fill="#FBFBFB"/>
      <path fill-rule="evenodd" clip-rule="evenodd" d="M173.429 729.144C173.429 729.144 161.463 729.254 161.463 741.11C161.463 729.185 149.498 729.144 149.498 729.144C149.498 729.144 161.463 729.777 161.463 717.178C161.463 729.777 173.429 729.144 173.429 729.144Z" fill="#FBFBFB"/>
      <path fill-rule="evenodd" clip-rule="evenodd" d="M305.269 909.377C305.269 909.377 293.303 909.488 293.303 921.343C293.303 909.418 281.338 909.377 281.338 909.377C281.338 909.377 293.303 910.01 293.303 897.412C293.303 910.01 305.269 909.377 305.269 909.377Z" fill="#FBFBFB"/>
      <path fill-rule="evenodd" clip-rule="evenodd" d="M95.0734 750.825L95.0714 751.885C80.0838 751.885 71.3263 760.966 71.3263 775.886L69.8296 775.885C69.8296 760.896 60.8537 751.885 45.9974 751.885L45.9961 750.825C60.8537 750.825 69.8329 741.735 69.8329 726.814H71.3263C71.3263 741.735 80.0838 750.825 95.0734 750.825Z" fill="#FBFBFB"/>
      <path d="M263.43 948.793H310.346C335.039 948.793 359.114 967.929 359.114 1001.88V1024.11" stroke="#FBFBFB" stroke-width="2"/>
      <path d="M371.432 895.299V971.316" stroke="#FBFBFB" stroke-width="2"/>
      <path d="M300.166 909.551C339.758 909.551 350.316 940.697 350.316 940.697" stroke="#FBFBFB" stroke-width="2"/>
    </g>
  </g>
  <defs>
    <clipPath id="clip0">
      <rect width="672" height="1216" fill="white"/>
    </clipPath>
    <clipPath id="clip1">
      <rect width="183" height="229" fill="white" transform="translate(374 320)"/>
    </clipPath>
    <clipPath id="clip2">
      <rect width="182.931" height="240.566" fill="white" transform="translate(374 320)"/>
    </clipPath>
    <clipPath id="clip3">
      <rect width="671.999" height="569.26" fill="white" transform="translate(0 647)"/>
    </clipPath>
  </defs>
</svg>
