<svg width="672" height="664" viewBox="0 0 672 664" fill="none" xmlns="http://www.w3.org/2000/svg">
  <path d="M107.082 661.318C107.082 661.318 5.57031 614.056 5.57031 515.61C5.57031 419.848 46.629 391.161 46.629 340.39C46.629 275.585 18.7751 263.821 18.7751 172.393C18.7751 85.7118 89.9572 25.0348 177.852 25.0348C267.397 25.0348 296.488 66.7244 367.67 66.7244C441.741 66.7244 474.134 11.207 549.649 11.207C606.801 11.207 671.587 45.6732 671.587 125.75C671.587 205.827 619.18 235.753 619.18 309.639C619.18 369.903 656.112 423.769 656.112 494.765C656.112 596.513 594.421 661.73 594.421 661.73C594.421 661.73 104.813 663.588 107.082 661.318Z" fill="#EADDCF"/>
  <path d="M406.254 294.986C406.254 294.986 401.921 278.475 382.114 264.234C370.559 255.979 360.449 253.296 359.624 244.215C358.799 235.753 369.115 232.451 369.115 232.451L410.174 238.23L406.254 294.986Z" fill="#FBFBFB" stroke="#232323" stroke-width="2" stroke-miterlimit="10"/>
  <path d="M370.972 209.541C370.972 209.541 363.957 214.701 365.401 224.401C366.845 234.101 375.511 240.911 381.701 248.341C393.874 262.788 399.238 282.601 399.238 282.601C399.238 282.601 419.458 249.992 406.253 228.735C393.461 207.477 370.972 209.541 370.972 209.541Z" fill="#FBFBFB" stroke="#232323" stroke-width="2" stroke-miterlimit="10"/>
  <path d="M264.509 337.294C263.271 337.088 250.066 330.69 244.289 338.12C236.861 347.82 251.097 359.996 251.097 359.996C251.097 359.996 237.274 357.107 233.354 366.188C229.433 375.062 241.607 383.731 241.607 383.731C241.607 383.731 226.545 384.35 226.751 395.288C226.957 410.767 255.43 413.656 255.43 413.656" fill="#FBFBFB"/>
  <path d="M264.509 337.294C263.271 337.088 250.066 330.69 244.289 338.12C236.861 347.82 251.097 359.996 251.097 359.996C251.097 359.996 237.274 357.107 233.354 366.188C229.433 375.062 241.607 383.731 241.607 383.731C241.607 383.731 226.545 384.35 226.751 395.288C226.957 410.767 255.43 413.656 255.43 413.656" stroke="#232323" stroke-width="2" stroke-miterlimit="10"/>
  <path d="M267.343 344.581L267.408 344.7L267.502 344.798L268.222 344.104C267.502 344.798 267.502 344.798 267.503 344.798L267.503 344.799L267.506 344.802L267.514 344.81L267.541 344.838C267.565 344.862 267.599 344.896 267.643 344.94C267.731 345.027 267.86 345.153 268.028 345.311C268.364 345.628 268.858 346.076 269.498 346.612C270.778 347.684 272.644 349.108 275.004 350.533C279.718 353.378 286.448 356.249 294.426 356.249C302.535 356.249 309.269 351.768 313.911 347.413C316.243 345.226 318.078 343.041 319.331 341.403C319.702 340.917 320.023 340.479 320.291 340.102L353.56 407.06L309.579 498.935C309.507 498.963 309.424 498.996 309.332 499.032C308.933 499.188 308.345 499.415 307.589 499.697C306.077 500.261 303.894 501.044 301.22 501.918C295.869 503.667 288.564 505.775 280.73 507.222C272.886 508.671 264.564 509.447 257.161 508.564C249.753 507.68 243.392 505.153 239.287 500.118C235.113 495 233.803 490.015 234.189 484.882C234.581 479.69 236.712 474.288 239.567 468.369C240.595 466.238 241.716 464.045 242.873 461.78C248.095 451.562 254.059 439.892 255.599 425.942L255.6 425.936C256.635 415.993 257.668 395.373 258.441 377.272C258.828 368.214 259.15 359.776 259.376 353.602C259.489 350.515 259.578 347.995 259.638 346.245C259.668 345.371 259.692 344.689 259.707 344.226L259.719 343.865L264.122 338.645L267.343 344.581Z" fill="#FBFBFB" stroke="#232323" stroke-width="2"/>
  <path d="M313.201 518.087C322.073 516.848 332.596 509.006 332.39 496.003C332.183 484.24 326.2 481.763 327.231 471.65C328.469 458.235 343.118 448.329 341.262 434.914C338.992 418.403 323.724 413.45 313.82 398.59C299.997 377.952 300.822 353.805 300.822 353.805" fill="#FBFBFB"/>
  <path d="M313.201 518.087C322.073 516.848 332.596 509.006 332.39 496.003C332.183 484.24 326.2 481.763 327.231 471.65C328.469 458.235 343.118 448.329 341.262 434.914C338.992 418.403 323.724 413.45 313.82 398.59C299.997 377.952 300.822 353.805 300.822 353.805" stroke="#232323" stroke-width="2" stroke-miterlimit="10"/>
  <path d="M291.125 355.042C291.125 355.042 285.554 383.73 294.22 399.002C304.949 418.196 323.93 423.356 322.486 439.247C320.423 460.711 302.266 466.283 300.616 484.033C299.171 500.337 318.772 508.592 317.122 525.103C315.677 540.375 312.995 557.299 291.537 555.235C271.111 553.171 280.396 536.661 284.522 521.594C289.474 503.02 244.495 519.737 233.973 493.526C224.894 470.618 252.542 464.839 253.574 424.594C254.605 384.142 285.967 354.836 285.967 354.836L291.125 355.042Z" fill="#FBFBFB" stroke="#232323" stroke-width="2" stroke-miterlimit="10"/>
  <path d="M154.125 186.632C154.125 186.632 151.443 178.79 142.984 177.345C134.731 175.9 131.429 181.885 127.716 187.871C124.002 193.856 85.4189 278.061 85.4189 278.061L139.27 244.833L154.125 186.632Z" fill="#FBFBFB" stroke="#232323" stroke-width="2" stroke-miterlimit="10"/>
  <path d="M75.3089 314.179C75.3089 314.179 62.9294 265.885 59.2156 245.041C56.1207 226.672 60.2472 219.449 69.3255 217.591C76.7532 216.147 83.7682 221.925 86.2441 233.277C87.8947 240.087 94.7035 271.458 94.7035 271.458" fill="#FBFBFB"/>
  <path d="M75.3089 314.179C75.3089 314.179 62.9294 265.885 59.2156 245.041C56.1207 226.672 60.2472 219.449 69.3255 217.591C76.7532 216.147 83.7682 221.925 86.2441 233.277C87.8947 240.087 94.7035 271.458 94.7035 271.458" stroke="#232323" stroke-width="2" stroke-miterlimit="10"/>
  <path d="M78.8164 491.463C87.2757 494.352 100.068 491.875 105.845 480.112C111.003 469.586 106.67 464.633 112.035 455.965C119.05 444.613 136.587 442.137 140.92 429.341C146.078 413.449 134.73 402.305 132.461 384.762C129.366 360.202 140.714 338.738 140.714 338.738" stroke="#232323" stroke-width="2" stroke-miterlimit="10"/>
  <path d="M596.279 156.294C598.216 156.294 599.787 154.724 599.787 152.786C599.787 150.848 598.216 149.277 596.279 149.277C594.342 149.277 592.771 150.848 592.771 152.786C592.771 154.724 594.342 156.294 596.279 156.294Z" fill="#232323"/>
  <path d="M211.689 487.13C213.626 487.13 215.197 485.559 215.197 483.622C215.197 481.684 213.626 480.113 211.689 480.113C209.752 480.113 208.182 481.684 208.182 483.622C208.182 485.559 209.752 487.13 211.689 487.13Z" fill="#232323"/>
  <path d="M73.0388 119.972C74.9759 119.972 76.5463 118.401 76.5463 116.464C76.5463 114.526 74.9759 112.955 73.0388 112.955C71.1016 112.955 69.5312 114.526 69.5312 116.464C69.5312 118.401 71.1016 119.972 73.0388 119.972Z" fill="#232323"/>
  <path d="M610.721 483.415C612.659 483.415 614.229 481.845 614.229 479.907C614.229 477.969 612.659 476.398 610.721 476.398C608.784 476.398 607.214 477.969 607.214 479.907C607.214 481.845 608.784 483.415 610.721 483.415Z" fill="#232323"/>
  <path d="M470.215 90.6656V91.2848C461.962 91.2848 457.216 96.238 457.216 104.493H456.391C456.391 96.238 451.439 91.2848 443.393 91.2848V90.6656C451.439 90.6656 456.391 85.7124 456.391 77.457H457.216C457.216 85.7124 461.962 90.6656 470.215 90.6656Z" fill="#232323"/>
  <path d="M275.65 119.56V120.385C262.652 120.385 255.018 128.228 255.018 141.23H253.78C253.78 128.228 245.94 120.385 233.147 120.385V119.56C246.146 119.56 253.986 111.717 253.986 98.7148H255.224C255.018 111.511 262.652 119.56 275.65 119.56Z" fill="#232323"/>
  <path d="M230.465 591.974V592.593C222.212 592.593 217.466 597.547 217.466 605.802H216.641C216.641 597.547 211.689 592.593 203.643 592.593V591.974C211.689 591.974 216.641 587.021 216.641 578.766H217.466C217.466 587.021 222.212 591.974 230.465 591.974Z" fill="#232323"/>
  <path d="M0 663L672 663" stroke="#232323" stroke-width="2" stroke-miterlimit="10"/>
  <path d="M312.376 180.237L322.692 322.229C324.137 341.01 308.25 356.489 289.474 354.838C270.905 353.187 258.113 335.232 262.652 317.07L297.108 178.792C299.378 170.331 311.757 171.362 312.376 180.237Z" stroke="#232323" stroke-width="2" stroke-miterlimit="10"/>
  <path d="M295.045 311.495L265.128 308.605" stroke="#232323" stroke-width="2" stroke-miterlimit="10"/>
  <path d="M320.836 333.166L299.997 331.309" stroke="#232323" stroke-width="2" stroke-miterlimit="10"/>
  <path d="M280.396 244.629L295.251 247.106" stroke="#232323" stroke-width="2" stroke-miterlimit="10"/>
  <path d="M303.298 213.051L315.265 214.289" stroke="#232323" stroke-width="2" stroke-miterlimit="10"/>
  <path d="M227.783 188.078L174.138 319.957C167.123 337.5 145.872 344.311 129.985 334.404C114.098 324.704 110.59 303.034 122.763 288.793L214.578 180.235C220.355 173.424 231.084 180.029 227.783 188.078Z" stroke="#232323" stroke-width="2" stroke-miterlimit="10"/>
  <path d="M131.223 335.437C131.223 335.437 113.479 358.552 114.511 376.301C115.542 398.384 130.191 411.386 121.938 424.801C110.59 443.17 91.8149 440.074 82.5303 455.14C73.8647 469.174 87.8948 485.272 79.2291 499.306C71.1825 512.308 49.5183 518.913 31.3617 507.561C14.0305 496.829 15.8874 473.095 25.9973 461.331C38.5831 446.884 54.8828 449.155 62.1042 437.391C69.3255 425.627 51.7879 405.401 66.8496 381.048C81.9113 356.695 126.89 332.754 126.89 332.754L131.223 335.437Z" stroke="#232323" stroke-width="2" stroke-miterlimit="10"/>
  <path d="M154.125 298.082L128.334 282.396" stroke="#232323" stroke-width="2" stroke-miterlimit="10"/>
  <path d="M167.536 328.833L149.792 318.102" stroke="#232323" stroke-width="2" stroke-miterlimit="10"/>
  <path d="M75.6292 23.5996L69.9395 29.291L162.143 121.522L167.833 115.83L75.6292 23.5996Z" stroke="#232323" stroke-width="2" stroke-miterlimit="10"/>
  <path d="M575.536 56.4922L568.071 50.6289L513.023 120.752L520.488 126.615L575.536 56.4922Z" stroke="#232323" stroke-width="2" stroke-miterlimit="10"/>
  <path d="M341.175 27.1676L331.806 23.3672L306.063 86.8643L315.432 90.6647L341.175 27.1676Z" stroke="#232323" stroke-width="2" stroke-miterlimit="10"/>
  <path d="M665.291 412.606L670.538 401.162L576.763 358.141L571.516 369.585L665.291 412.606Z" stroke="#232323" stroke-width="2" stroke-miterlimit="10"/>
  <path d="M9.30692 167.692L7.34863 177.613L74.5538 190.886L76.5121 180.964L9.30692 167.692Z" stroke="#232323" stroke-width="2" stroke-miterlimit="10"/>
  <path d="M638.575 285.285C641.876 277.03 640.432 264.028 629.084 257.63C618.974 251.851 613.816 255.979 605.357 249.994C594.421 242.357 593.183 224.608 580.598 219.449C565.123 213.257 553.156 223.783 535.619 225.021C510.86 226.672 490.434 213.67 490.434 213.67" stroke="#232323" stroke-width="2" stroke-miterlimit="10"/>
  <path d="M345.8 116.462L473.928 178.584C490.846 186.839 496.417 208.303 485.482 223.782C474.753 239.055 452.883 241.119 439.471 228.116L337.134 129.052C330.738 122.86 337.96 112.747 345.8 116.462Z" stroke="#232323" stroke-width="2" stroke-miterlimit="10"/>
  <path d="M486.514 222.545C486.514 222.545 508.384 241.739 526.128 241.945C548.205 242.358 562.235 228.53 575.027 237.817C592.565 250.407 588.232 268.775 602.675 279.094C616.086 288.588 625.989 276.824 639.4 286.318C651.986 295.192 651.986 311.909 642.289 325.324C630.528 342.041 615.054 342.867 604.944 335.644C591.946 326.356 594.628 305.924 583.486 298.082C572.345 290.239 550.887 306.337 527.572 289.62C504.258 272.903 483.419 226.673 483.419 226.673L486.514 222.545Z" stroke="#232323" stroke-width="2" stroke-miterlimit="10"/>
  <path d="M450.613 197.367L433.281 221.927" stroke="#232323" stroke-width="2" stroke-miterlimit="10"/>
  <path d="M482.18 186.016L470.42 202.939" stroke="#232323" stroke-width="2" stroke-miterlimit="10"/>
  <path d="M403.571 144.531L398 153.819" stroke="#232323" stroke-width="2" stroke-miterlimit="10"/>
  <path d="M358.18 149.897L364.576 141.436" stroke="#232323" stroke-width="2" stroke-miterlimit="10"/>
  <path d="M190.025 234.102L204.468 242.151" stroke="#232323" stroke-width="2" stroke-miterlimit="10"/>
  <path d="M176 375H53V663H176V375Z" fill="#FBFBFB" stroke="#232323" stroke-width="2" stroke-miterlimit="10"/>
  <path d="M388 447H266V663H388V447Z" fill="#FBFBFB" stroke="#232323" stroke-width="2" stroke-miterlimit="10"/>
  <path d="M593.391 662.555H453.915L405.429 340.389L523.447 306.336L593.391 662.555Z" fill="#FBFBFB" stroke="#232323" stroke-width="2" stroke-miterlimit="10"/>
  <path d="M53.4385 374.855C53.4385 374.855 74.8963 413.449 115.749 413.449C159.283 413.449 175.583 374.855 175.583 374.855" stroke="#232323" stroke-width="2" stroke-miterlimit="10"/>
  <path d="M53.4385 436.977C53.4385 436.977 74.8963 475.57 115.749 475.57C159.283 475.57 175.583 436.977 175.583 436.977" stroke="#232323" stroke-width="2" stroke-miterlimit="10"/>
  <path d="M265.746 447.297C265.746 447.297 284.315 480.318 327.231 480.318C370.146 480.318 387.89 447.297 387.89 447.297" stroke="#232323" stroke-width="2" stroke-miterlimit="10"/>
  <path d="M265.746 505.703C265.746 505.703 284.315 538.725 327.231 538.725C370.146 538.725 387.89 505.703 387.89 505.703" stroke="#232323" stroke-width="2" stroke-miterlimit="10"/>
  <path d="M73.0389 437.39C78.7364 437.39 83.3551 432.77 83.3551 427.071C83.3551 421.372 78.7364 416.752 73.0389 416.752C67.3414 416.752 62.7227 421.372 62.7227 427.071C62.7227 432.77 67.3414 437.39 73.0389 437.39Z" stroke="#232323" stroke-width="2" stroke-miterlimit="10"/>
  <path d="M405.429 340.39C405.429 340.39 435.14 367.426 474.754 357.726C515.194 347.82 523.24 306.543 523.24 306.543" stroke="#232323" stroke-width="2" stroke-miterlimit="10"/>
  <path d="M413.475 391.159C413.475 391.159 443.804 417.164 483.625 407.464C524.065 397.557 533.762 358.551 533.762 358.551" stroke="#232323" stroke-width="2" stroke-miterlimit="10"/>
  <path d="M125.652 374.65C87.0692 374.65 72.0075 341.215 75.1024 314.179C79.6415 276.823 106.876 242.976 126.89 224.402C151.443 201.906 150.205 177.14 169.393 177.965C186.105 178.585 184.661 214.495 173.313 229.149C161.965 243.802 107.495 307.575 126.477 324.705C153.712 349.264 180.534 284.46 197.04 292.302C209.832 298.494 200.548 320.371 190.644 333.579C172.281 357.933 151.03 374.65 125.652 374.65Z" fill="#FBFBFB" stroke="#232323" stroke-width="2" stroke-miterlimit="10"/>
  <path d="M320.422 338.119C320.422 338.119 359.83 360.202 365.401 399.209C369.321 426.658 354.879 443.375 337.341 446.471C310.725 451.011 280.395 428.516 268.635 417.164C256.255 405.4 244.907 384.349 255.636 376.507C267.19 368.045 278.745 385.794 297.933 390.334C321.041 395.7 323.105 382.698 323.105 382.698" fill="#FBFBFB"/>
  <path d="M320.422 338.119C320.422 338.119 359.83 360.202 365.401 399.209C369.321 426.658 354.879 443.375 337.341 446.471C310.725 451.011 280.395 428.516 268.635 417.164C256.255 405.4 244.907 384.349 255.636 376.507C267.19 368.045 278.745 385.794 297.933 390.334C321.041 395.7 323.105 382.698 323.105 382.698" stroke="#232323" stroke-width="2" stroke-miterlimit="10"/>
  <path d="M500.131 224.815C491.672 217.179 481.562 225.228 477.642 238.849C474.753 248.962 465.262 272.49 453.708 271.458C435.139 269.807 442.36 232.657 416.363 206.447C404.19 194.27 388.097 185.395 375.717 193.032C369.527 196.953 367.67 205.208 372.21 213.464C376.749 221.719 387.684 225.021 393.255 233.277C404.19 249.375 394.286 281.777 403.777 303.241C412.856 323.673 435.758 329.658 453.708 326.15C471.658 322.641 486.72 307.575 495.798 286.317C504.257 266.092 508.384 232.038 500.131 224.815Z" fill="#FBFBFB" stroke="#232323" stroke-width="2" stroke-miterlimit="10"/>
</svg>
