<svg width="672" height="664" viewBox="0 0 672 664" fill="none" xmlns="http://www.w3.org/2000/svg">
  <g clip-path="url(#clip0)">
    <g clip-path="url(#clip1)">
      <path d="M291.591 90.5036C234.909 99.4689 229.62 129.873 162.047 149.646C120.153 161.907 53.2405 150.851 26.6914 199.682C0.142231 248.513 26.6914 287.493 27.4569 319.137C28.1876 348.832 2.64747 386.395 10.3721 429.095C18.062 471.796 63.3661 476.615 76.4145 484.482C103.555 500.889 101.989 515.843 117.578 524.028C139.256 535.403 182.194 531.045 204.08 542.668C242.912 563.221 244.06 603.937 317.758 615.843C385.296 626.758 394.83 585.262 467.727 572.576C517.068 563.965 587.738 603.441 627.474 573.214C689.55 526.013 632.102 439.549 636.556 391.427C643.689 314.07 685.514 276.649 667.559 221.865C652.667 176.294 588.016 152.34 562.198 135.188C533.456 116.088 518.912 87.0663 480.01 84.6212C430.635 81.5383 416.647 112.651 382.478 111.872C351.405 111.127 330.11 84.3731 291.591 90.5036Z" fill="#232323"/>
      <path d="M468.137 285.242C468.379 284.479 468.621 283.715 468.967 282.674C471.493 283.507 473.949 284.27 476.441 285.069C476.198 285.867 475.922 286.665 475.679 287.463C476.614 287.776 477.34 287.984 477.997 288.227C478.274 287.394 478.482 286.665 478.759 285.902C477.859 285.624 477.133 285.381 476.371 285.138C476.648 284.305 476.925 283.437 477.202 282.604C477.998 282.847 478.793 283.125 479.589 283.368C480.143 281.598 480.662 280.036 481.181 278.37C480.316 278.127 479.589 277.954 478.793 277.711C478.24 279.481 477.721 281.077 477.202 282.639C476.441 282.396 475.714 282.153 474.849 281.876C475.022 280.973 475.195 280.244 475.368 279.377C474.607 279.134 473.915 278.891 473.085 278.648C472.773 279.377 472.531 280.036 472.185 280.834C471.458 280.591 470.766 280.383 469.901 280.105C470.386 278.613 470.87 277.051 471.424 275.351C472.185 275.524 472.912 275.732 473.742 275.906C473.984 275.108 474.192 274.448 474.469 273.65C473.811 273.338 473.119 273.025 472.185 272.609C472.427 271.81 472.704 271.012 472.946 270.214L472.877 270.249C473.707 270.457 474.503 270.7 475.333 270.908C475.714 270.075 476.025 269.381 476.337 268.722C477.236 268.895 477.963 269.034 478.689 269.173C479.035 268.374 479.278 267.715 479.589 266.986C480.419 267.194 481.146 267.368 481.907 267.541C482.184 266.674 482.426 265.98 482.634 265.251C481.838 264.869 481.146 264.557 480.385 264.21C480.938 262.509 481.457 260.912 481.942 259.351L481.873 259.385C482.738 259.663 483.568 259.941 484.433 260.218L484.398 260.149C484.191 260.947 483.983 261.78 483.741 262.578C485.436 263.134 486.993 263.62 488.654 264.175C488.931 263.272 489.173 262.544 489.415 261.78L489.346 261.815C490.937 262.335 492.494 262.821 494.259 263.411C494.017 264.314 493.809 265.147 493.601 265.945C492.806 265.702 492.01 265.424 491.145 265.147C490.799 266.084 490.522 266.813 490.246 267.541C489.484 267.333 488.723 267.125 487.893 266.917C486.543 271.082 485.263 275.177 483.914 279.307C484.779 279.585 485.54 279.828 486.301 280.071C486.059 280.869 485.782 281.667 485.54 282.466C486.474 282.778 487.201 282.986 487.858 283.229C488.135 282.396 488.343 281.667 488.619 280.904C487.72 280.626 486.993 280.383 486.232 280.14C486.543 279.342 486.82 278.578 487.132 277.78C488.031 277.954 488.792 278.092 489.623 278.266C489.865 277.398 490.038 276.669 490.246 275.975C489.381 275.628 488.723 275.351 488.031 275.073C488.308 274.24 488.515 273.511 488.758 272.782C489.623 272.956 490.384 273.095 491.076 273.268C491.353 272.4 491.595 271.706 491.802 270.977C491.007 270.665 490.349 270.387 489.623 270.11C489.83 269.207 490.003 268.374 490.176 267.541C491.007 267.819 491.872 268.097 492.771 268.374C493.083 267.437 493.325 266.674 493.567 265.945C495.158 266.466 496.715 266.951 498.445 267.507C498.791 266.743 499.103 266.049 499.449 265.251C501.836 266.014 504.223 266.778 506.818 267.611C506.299 269.207 505.815 270.769 505.296 272.4C506.161 272.748 506.818 272.99 507.614 273.303C506.853 275.698 506.092 278.092 505.227 280.695C504.431 280.453 503.635 280.175 502.839 279.932L502.874 280.001C503.393 278.37 503.912 276.704 504.431 275.108C503.462 274.656 502.77 274.344 502.078 274.032C502.286 273.199 502.424 272.505 502.597 271.776C501.767 271.498 501.075 271.29 500.141 270.977C499.587 272.643 499.103 274.205 498.618 275.767C497.719 275.489 497.061 275.281 496.162 274.969C496.681 273.338 497.2 271.776 497.684 270.214C496.75 269.902 496.023 269.693 495.366 269.485C493.74 274.518 492.183 279.377 490.626 284.27C491.422 284.617 492.079 284.86 492.944 285.207C492.391 286.873 491.906 288.435 491.353 290.136C492.321 290.448 493.083 290.691 493.844 290.934L493.809 290.865C493.567 291.628 493.325 292.357 493.048 293.225C492.252 293.086 491.526 292.912 490.626 292.739C490.384 293.468 490.176 294.162 489.865 295.064C491.387 295.55 492.944 296.071 494.674 296.626C494.363 297.598 494.121 298.396 493.844 299.194L493.913 299.16C493.117 298.917 492.356 298.674 491.353 298.327C491.041 299.333 490.799 300.097 490.522 300.895L490.592 300.86C489.83 300.617 489.104 300.374 488.239 300.097C488.412 299.298 488.55 298.535 488.723 297.667C487.201 297.181 485.644 296.661 483.879 296.105C483.637 296.904 483.36 297.702 483.118 298.5C482.322 298.257 481.527 297.98 480.731 297.737C480.42 298.674 480.212 299.368 479.97 300.062C480.8 300.34 481.527 300.548 482.288 300.826C482.565 299.923 482.807 299.194 483.049 298.431C483.81 298.674 484.537 298.917 485.402 299.194C485.229 300.062 485.09 300.791 484.917 301.693C485.609 302.006 486.301 302.318 487.166 302.7C486.889 303.498 486.647 304.296 486.405 305.095L486.474 305.06C484.883 304.539 483.326 304.053 481.596 303.498C481.25 304.331 480.938 305.06 480.592 305.858C479.797 305.615 479.105 305.372 478.274 305.095C478.482 304.331 478.655 303.637 478.862 302.804C478.101 302.561 477.409 302.318 476.544 302.04C476.268 302.735 475.956 303.429 475.645 304.227C474.884 303.984 474.226 303.776 473.431 303.498C473.569 302.804 473.707 302.04 473.88 301.138C473.223 300.826 472.531 300.513 471.701 300.131C471.874 299.368 472.047 298.639 472.254 297.806C471.458 297.563 470.801 297.355 469.901 297.043C469.417 298.57 468.898 300.131 468.379 301.797C465.784 300.964 463.397 300.201 460.94 299.403C461.183 298.708 461.39 298.014 461.632 297.216C462.324 297.355 463.086 297.494 463.985 297.667C464.297 297.008 464.608 296.314 464.989 295.446C465.75 295.62 466.476 295.793 467.307 296.001C467.549 295.238 467.756 294.544 468.033 293.745C467.376 293.433 466.684 293.121 465.75 292.704C465.992 291.906 466.269 291.108 466.511 290.309L466.442 290.344C468.068 290.865 469.694 291.385 471.32 291.906C471.147 292.878 470.974 293.641 470.801 294.578C472.462 295.099 474.019 295.62 475.506 296.105C475.299 297.008 475.126 297.702 474.953 298.431C475.783 298.708 476.475 298.917 477.202 299.16C477.755 297.494 478.24 295.932 478.793 294.197C477.098 293.641 475.576 293.155 474.053 292.669C474.261 291.767 474.434 291.073 474.607 290.309C473.811 289.997 473.119 289.685 472.393 289.407C472.566 288.505 472.739 287.776 472.912 286.873C471.182 286.318 469.625 285.797 468.033 285.312L468.137 285.242ZM487.097 294.058C487.893 291.628 488.654 289.199 489.45 286.735C486.993 285.936 484.641 285.173 482.288 284.444C481.492 286.977 480.731 289.338 479.935 291.767C482.392 292.531 484.641 293.259 487.097 294.058ZM483.568 271.047C482.703 270.769 482.011 270.526 481.319 270.318C481.042 271.186 480.8 271.88 480.592 272.574C481.423 272.852 482.08 273.06 482.841 273.303C483.083 272.539 483.291 271.88 483.568 271.047Z" fill="#FBFBFB"/>
      <path d="M447.966 245.468C449.834 239.637 451.668 233.98 453.502 228.219C459.245 230.058 464.885 231.898 470.697 233.772C468.863 239.464 467.03 245.191 465.161 251.021C459.487 249.182 453.813 247.342 447.966 245.468ZM463.431 247.759C464.781 243.49 466.096 239.464 467.376 235.438C463.224 234.084 459.245 232.8 455.197 231.516C453.882 235.681 452.567 239.707 451.253 243.837C455.37 245.156 459.383 246.44 463.431 247.759Z" fill="#FBFBFB"/>
      <path d="M515.606 248.28C513.738 254.076 511.939 259.768 510.071 265.529C504.327 263.69 498.688 261.85 492.875 259.976C494.709 254.319 496.508 248.592 498.411 242.727C504.05 244.566 509.759 246.406 515.606 248.28ZM508.341 262.232C509.69 258.032 511.005 253.972 512.25 249.98C508.064 248.627 504.05 247.343 500.037 246.058C498.688 250.223 497.408 254.215 496.127 258.31C500.21 259.629 504.189 260.913 508.341 262.232Z" fill="#FBFBFB"/>
      <path d="M456.339 278.822C454.47 284.618 452.671 290.275 450.803 296.071C445.06 294.232 439.42 292.392 433.607 290.518C435.441 284.861 437.24 279.134 439.143 273.269C444.783 275.108 450.457 276.913 456.339 278.822ZM440.838 276.462C439.489 280.696 438.174 284.722 436.894 288.783C441.046 290.136 445.094 291.42 449.073 292.705C450.422 288.505 451.703 284.479 453.017 280.384C448.9 279.065 444.956 277.78 440.838 276.462Z" fill="#FBFBFB"/>
      <path d="M485.056 249.182C484.883 250.015 484.675 250.813 484.467 251.785C485.229 252.097 485.921 252.375 486.751 252.687C486.197 254.388 485.678 256.019 485.159 257.651L485.229 257.616C484.364 257.373 483.533 257.095 482.668 256.852C482.91 256.054 483.187 255.256 483.43 254.457C482.495 254.145 481.803 253.937 481.111 253.694C480.835 254.527 480.627 255.256 480.35 256.019C481.25 256.297 481.976 256.54 482.738 256.783C482.426 257.616 482.149 258.484 481.838 259.316L481.907 259.282C481.077 259.074 480.281 258.865 479.485 258.622C479.105 259.49 478.759 260.184 478.447 260.844C477.652 260.566 476.96 260.358 476.095 260.08C476.89 257.581 477.652 255.186 478.413 252.826C477.479 252.514 476.752 252.306 475.991 252.063C475.679 252.861 475.437 253.52 475.126 254.249C474.296 253.972 473.569 253.763 472.842 253.52C473.015 252.653 473.154 251.889 473.361 251.021C472.496 250.744 471.735 250.501 470.974 250.258L471.009 250.327C471.528 248.731 472.012 247.169 472.566 245.434C471.735 245.087 471.009 244.774 470.213 244.427C470.974 242.032 471.735 239.707 472.531 237.208C474.053 237.694 475.576 238.18 477.306 238.735C477.098 239.499 476.89 240.332 476.683 241.13C475.887 240.887 475.091 240.609 474.296 240.366C473.984 241.303 473.777 242.032 473.534 242.692C474.365 242.969 475.091 243.178 475.853 243.455C476.129 242.553 476.371 241.824 476.614 241.061C477.375 241.303 478.101 241.546 478.966 241.824C478.793 242.726 478.655 243.455 478.447 244.358C479.174 244.635 479.866 244.948 480.662 245.26C480.489 246.058 480.316 246.752 480.108 247.69C481.7 248.21 483.326 248.731 484.952 249.251C485.09 249.286 485.056 249.182 485.056 249.182ZM476.787 249.321C477.063 248.418 477.271 247.759 477.513 246.995C476.717 246.718 475.991 246.51 475.23 246.267C474.953 247.1 474.745 247.828 474.503 248.592C475.299 248.835 475.956 249.043 476.787 249.321Z" fill="#FBFBFB"/>
      <path d="M471.285 266.882C470.524 266.64 469.763 266.397 468.898 266.119C468.344 267.785 467.86 269.347 467.306 271.082C468.033 271.36 468.725 271.672 469.52 271.984C469.278 272.783 469.071 273.442 468.794 274.24C468.067 274.102 467.306 273.963 466.407 273.789C466.095 274.553 465.818 275.351 465.507 276.149L465.576 276.115C464.78 275.872 463.985 275.594 463.016 275.282C463.57 273.512 464.088 271.984 464.573 270.457C463.673 270.18 462.947 269.937 462.255 269.694C461.874 270.527 461.563 271.186 461.217 271.915C459.522 271.36 457.93 270.874 456.373 270.353L456.408 270.423C456.684 269.555 456.961 268.722 457.238 267.854L457.169 267.889C457.965 268.132 458.726 268.375 459.729 268.722C460.04 267.715 460.283 266.952 460.559 266.154L460.49 266.188C462.047 266.709 463.639 267.195 465.403 267.785C465.715 266.952 465.957 266.258 466.268 265.425C465.472 265.078 464.78 264.765 463.881 264.349C464.123 263.551 464.4 262.752 464.642 261.954L464.573 261.989C465.369 262.232 466.13 262.475 467.133 262.822C467.445 261.815 467.687 261.052 467.963 260.253L467.894 260.288C468.69 260.531 469.451 260.774 470.455 261.121C470.766 260.115 471.008 259.351 471.285 258.553L471.216 258.587C472.012 258.83 472.807 259.108 473.603 259.351C473.43 260.323 473.257 261.086 473.119 261.954C474.745 262.475 476.232 262.961 477.824 263.481C477.547 264.349 477.305 265.078 477.028 265.98C475.368 265.459 473.811 264.939 472.15 264.418C471.839 265.39 471.596 266.154 471.354 266.882H471.285Z" fill="#FBFBFB"/>
      <path d="M445.475 261.398C447.032 261.919 448.624 262.405 450.319 262.96C450.146 263.759 450.007 264.522 449.834 265.424C450.63 265.737 451.426 266.014 452.187 266.327L452.153 266.257C451.91 267.125 451.634 267.958 451.391 268.826C449.765 268.305 448.139 267.785 446.513 267.264C446.202 268.201 445.994 268.895 445.752 269.589C447.447 270.145 448.969 270.631 450.561 271.151C450.838 270.249 451.08 269.52 451.322 268.756C452.983 269.312 454.678 269.867 456.339 270.457L456.304 270.388C456.097 271.186 455.889 272.019 455.612 273.025C457.308 273.581 458.865 274.067 460.456 274.587C460.145 275.559 459.903 276.288 459.66 277.051L459.73 277.017C453.986 275.177 448.278 273.303 442.292 271.394C443.365 267.993 444.437 264.696 445.51 261.398H445.475Z" fill="#FBFBFB"/>
      <path d="M491.699 245.919C491.456 246.683 491.214 247.412 490.937 248.279C491.733 248.661 492.46 248.973 493.255 249.321C492.771 250.882 492.252 252.409 491.733 254.075C490.972 253.832 490.28 253.59 489.45 253.347C489.623 252.618 489.796 251.924 490.038 250.813C488.412 250.292 486.716 249.737 485.056 249.216L485.09 249.286C485.609 247.724 486.094 246.127 486.682 244.357C485.021 243.837 483.499 243.316 481.838 242.796C482.391 241.095 482.876 239.603 483.429 237.867C484.121 238.041 484.848 238.249 485.713 238.492C485.54 239.36 485.402 240.088 485.229 240.956C485.955 241.199 486.682 241.407 487.512 241.685C487.789 240.991 488.066 240.331 488.412 239.464C489.104 239.637 489.83 239.845 490.799 240.123C490.28 241.789 489.761 243.316 489.242 245.017C490.211 245.399 491.007 245.711 491.768 245.989L491.699 245.919Z" fill="#FBFBFB"/>
      <path d="M464.608 261.989C462.221 261.226 459.799 260.427 457.204 259.594C457.412 258.796 457.619 258.102 457.862 257.13C459.522 257.651 461.079 258.171 462.774 258.727C463.155 257.755 463.432 256.957 463.743 256.193L463.674 256.228C464.435 256.471 465.196 256.714 466.131 257.026C466.926 254.527 467.687 252.132 468.552 249.529C469.556 249.842 470.352 250.119 471.147 250.362L471.113 250.293C470.594 251.924 470.075 253.555 469.556 255.187C470.525 255.638 471.216 255.95 471.943 256.297C471.666 257.165 471.424 257.928 471.182 258.657L471.251 258.623C470.455 258.38 469.694 258.137 468.691 257.79C468.379 258.796 468.137 259.56 467.86 260.358L467.93 260.323C467.134 260.08 466.373 259.837 465.369 259.49C465.058 260.497 464.816 261.26 464.539 262.059L464.608 261.989Z" fill="#FBFBFB"/>
      <path d="M493.878 299.091C494.639 299.334 495.366 299.577 496.231 299.855C496.611 299.056 496.923 298.328 497.269 297.529C497.995 297.772 498.722 298.015 499.552 298.258C498.237 302.354 496.923 306.414 495.608 310.544C494.847 310.301 494.155 310.093 493.29 309.781C494.051 307.421 494.812 305.026 495.642 302.492C494.674 302.111 493.878 301.833 493.082 301.521L493.117 301.59C493.393 300.722 493.67 299.889 493.947 299.022L493.878 299.091Z" fill="#FBFBFB"/>
      <path d="M456.65 295.342C457.411 292.913 458.207 290.518 459.037 287.846C460.767 288.401 462.393 288.922 464.019 289.442L463.985 289.373C463.743 290.136 463.5 290.865 463.224 291.733C462.428 291.559 461.667 291.421 460.732 291.247C460.248 292.774 459.729 294.336 459.176 296.071C458.207 295.759 457.411 295.481 456.615 295.238L456.65 295.342Z" fill="#FBFBFB"/>
      <path d="M464.054 289.477C464.296 288.713 464.539 287.949 464.85 287.012C463.189 286.492 461.667 285.971 459.972 285.451C460.248 284.548 460.491 283.819 460.802 282.917C463.259 283.715 465.715 284.514 468.171 285.312L468.137 285.242C467.583 286.943 467.064 288.609 466.511 290.31L466.58 290.275C465.715 289.997 464.885 289.72 464.02 289.442C463.985 289.372 464.054 289.477 464.054 289.477Z" fill="#FBFBFB"/>
      <path d="M445.544 261.364C444.782 261.121 444.021 260.878 443.156 260.6C443.675 259.004 444.16 257.442 444.748 255.672C447.204 256.47 449.661 257.268 452.117 258.032L452.083 257.963C451.84 258.726 451.598 259.455 451.287 260.427C449.695 259.906 448.138 259.42 446.443 258.865C446.063 259.837 445.786 260.635 445.474 261.433C445.474 261.399 445.544 261.364 445.544 261.364Z" fill="#FBFBFB"/>
      <path d="M502.804 279.828C502.562 280.592 502.32 281.355 502.043 282.188C502.839 282.57 503.565 282.882 504.361 283.229C503.842 284.791 503.358 286.353 502.839 288.019C502.112 287.776 501.42 287.568 500.625 287.29C500.763 286.561 500.901 285.798 501.074 284.895C500.313 284.583 499.517 284.305 498.722 283.993L498.756 284.062C499.275 282.431 499.794 280.765 500.348 279.064C501.316 279.377 502.078 279.62 502.839 279.863L502.804 279.828Z" fill="#FBFBFB"/>
      <path d="M485.159 257.65C485.92 257.893 486.647 258.136 487.512 258.414C487.858 257.615 488.204 256.921 488.55 256.123C489.276 256.366 489.968 256.574 490.902 256.887C490.383 258.518 489.864 260.149 489.345 261.78L489.415 261.746C487.719 261.19 486.059 260.67 484.363 260.114L484.398 260.184C484.675 259.316 484.951 258.483 485.228 257.615L485.159 257.65Z" fill="#FBFBFB"/>
      <path d="M498.722 284.028C497.926 286.457 497.165 288.887 496.3 291.525C495.366 291.212 494.604 290.969 493.809 290.726L493.843 290.796C494.639 288.262 495.469 285.763 496.265 283.229L496.196 283.264C497.061 283.542 497.891 283.82 498.756 284.062L498.722 284.028Z" fill="#FBFBFB"/>
      <path d="M464.711 278.579C464.469 279.343 464.227 280.106 463.95 280.974C462.359 280.453 460.802 279.967 459.037 279.377C459.279 278.579 459.556 277.781 459.798 276.982L459.729 277.017C461.424 277.572 463.085 278.093 464.781 278.648L464.711 278.579Z" fill="#FBFBFB"/>
      <path d="M452.222 266.327C452.464 265.598 452.706 264.835 453.017 263.828C454.713 264.383 456.339 264.904 457.999 265.425L457.965 265.355C457.688 266.223 457.411 267.056 457.134 267.924L457.204 267.889C455.508 267.334 453.848 266.813 452.152 266.258L452.222 266.327Z" fill="#FBFBFB"/>
      <path d="M472.98 270.214C472.185 269.971 471.423 269.728 470.489 269.416C470.801 268.479 471.043 267.681 471.285 266.917L471.216 266.952C471.977 267.195 472.773 267.438 473.707 267.75C473.396 268.687 473.153 269.451 472.911 270.249L472.98 270.214Z" fill="#FBFBFB"/>
      <path d="M457.999 265.425C458.241 264.662 458.483 263.933 458.76 263.03C459.556 263.273 460.248 263.516 461.182 263.829C460.94 264.627 460.663 265.425 460.421 266.223L460.49 266.189C459.625 265.911 458.795 265.633 457.93 265.356L457.999 265.425Z" fill="#FBFBFB"/>
      <path d="M465.507 276.114C466.268 276.357 466.995 276.6 467.894 276.878C467.652 277.676 467.41 278.37 467.098 279.307C466.303 279.064 465.507 278.787 464.711 278.544L464.746 278.613C465.022 277.746 465.299 276.913 465.576 276.045L465.507 276.114Z" fill="#FBFBFB"/>
      <path d="M452.118 258.032C452.36 257.269 452.602 256.54 452.879 255.638C453.64 255.881 454.367 256.124 455.197 256.401C454.99 257.095 454.747 257.79 454.436 258.727C453.64 258.484 452.845 258.206 452.049 257.963C452.083 257.963 452.118 258.032 452.118 258.032Z" fill="#FBFBFB"/>
      <path d="M501.247 293.329C501.005 294.127 500.797 294.717 500.521 295.585C499.759 295.377 499.033 295.169 498.168 294.926C498.445 294.093 498.652 293.364 498.929 292.565C499.69 292.808 500.451 293.086 501.247 293.329Z" fill="#FBFBFB"/>
      <path d="M448.692 251.403C449.453 251.646 450.18 251.889 451.079 252.167C450.837 252.931 450.595 253.659 450.318 254.492C449.626 254.284 448.934 254.041 448 253.729C448.242 252.931 448.519 252.132 448.761 251.334L448.692 251.403Z" fill="#FBFBFB"/>
      <path d="M463.708 256.192C462.947 255.949 462.221 255.707 461.321 255.429C461.563 254.665 461.806 253.936 462.082 253.104C462.774 253.312 463.466 253.555 464.4 253.867C464.158 254.665 463.882 255.464 463.639 256.262C463.639 256.227 463.708 256.192 463.708 256.192Z" fill="#FBFBFB"/>
      <path d="M448.761 251.368C448 251.125 447.274 250.882 446.374 250.605C446.616 249.841 446.858 249.112 447.135 248.279C447.827 248.488 448.519 248.731 449.453 249.043C449.211 249.841 448.934 250.639 448.692 251.438C448.692 251.403 448.761 251.368 448.761 251.368Z" fill="#FBFBFB"/>
      <path d="M493.117 301.52C492.875 302.284 492.632 303.012 492.356 303.915C491.56 303.672 490.868 303.429 489.934 303.116C490.176 302.318 490.453 301.52 490.695 300.722L490.626 300.756C491.491 301.034 492.321 301.312 493.186 301.589L493.117 301.52Z" fill="#FBFBFB"/>
      <path d="M491.733 245.989C491.976 245.225 492.218 244.496 492.495 243.594C493.256 243.837 493.982 244.08 494.812 244.357C494.605 245.051 494.363 245.746 494.051 246.683C493.256 246.44 492.46 246.162 491.664 245.919C491.699 245.919 491.733 245.989 491.733 245.989Z" fill="#FBFBFB"/>
      <path d="M456.615 295.273C456.373 296.037 456.131 296.766 455.854 297.668C455.093 297.425 454.366 297.182 453.536 296.904C453.744 296.21 453.986 295.516 454.297 294.579C455.093 294.822 455.889 295.1 456.684 295.343C456.65 295.343 456.615 295.273 456.615 295.273Z" fill="#FBFBFB"/>
      <path d="M486.508 304.956C487.27 305.199 487.996 305.442 488.896 305.72C488.653 306.483 488.411 307.212 488.135 308.045C487.443 307.837 486.751 307.594 485.816 307.281C486.059 306.483 486.335 305.685 486.578 304.887C486.578 304.921 486.508 304.956 486.508 304.956Z" fill="#FBFBFB"/>
      <path d="M496.301 283.23C495.539 282.987 494.813 282.744 493.913 282.466C494.155 281.702 494.398 280.974 494.674 280.141C495.366 280.349 496.058 280.592 496.993 280.904C496.75 281.702 496.473 282.501 496.231 283.299C496.197 283.299 496.301 283.23 496.301 283.23Z" fill="#FBFBFB"/>
      <path d="M486.266 288.401C485.99 289.199 485.782 289.893 485.54 290.691C484.779 290.448 484.052 290.205 483.222 289.963C483.464 289.199 483.706 288.505 483.948 287.672C484.709 287.915 485.367 288.123 486.266 288.401Z" fill="#FBFBFB"/>
      <path d="M461.771 244.462C459.349 243.664 456.996 242.935 454.574 242.137C455.37 239.672 456.131 237.312 456.927 234.813C459.314 235.577 461.632 236.341 464.123 237.139C463.362 239.499 462.601 241.894 461.771 244.462Z" fill="#FBFBFB"/>
      <path d="M509.067 251.68C508.271 254.145 507.544 256.435 506.749 258.865C504.361 258.101 501.974 257.338 499.448 256.505C500.175 254.179 500.936 251.819 501.766 249.32C504.154 250.084 506.506 250.847 509.067 251.68Z" fill="#FBFBFB"/>
      <path d="M442.534 279.828C444.956 280.592 447.274 281.355 449.696 282.153C448.9 284.583 448.139 286.978 447.343 289.477C444.991 288.713 442.638 287.95 440.182 287.151C440.943 284.791 441.704 282.431 442.534 279.828Z" fill="#FBFBFB"/>
      <path d="M348.233 39.749C350.373 39.749 352.108 38.0086 352.108 35.8618C352.108 33.715 350.373 31.9746 348.233 31.9746C346.093 31.9746 344.358 33.715 344.358 35.8618C344.358 38.0086 346.093 39.749 348.233 39.749Z" fill="#1F1F1F"/>
      <path d="M46.9673 252.757L7.49023 308.497" stroke="#232323" stroke-width="2" stroke-miterlimit="10"/>
      <path d="M88.2438 445.658C72.1555 434.205 51.6731 452.912 51.6731 452.912L58.835 458.014L46.7947 464.261L54.5447 469.78L43.5078 475.854L52.7803 482.448L48.6976 501.433L65.6163 491.576L73.9546 497.511L76.2727 485.224L84.092 490.674L85.0953 476.582L94.3332 483.177C94.2986 483.211 102.879 456.07 88.2438 445.658Z" fill="#FBFBFB" stroke="#232323" stroke-width="2" stroke-miterlimit="10"/>
      <path d="M88.1059 445.832L48.6289 501.572" stroke="#232323" stroke-width="2" stroke-miterlimit="10"/>
      <path d="M58.0399 237.45C71.8447 223.29 56.6559 200.071 56.6559 200.071L50.4974 206.353L46.2417 193.442L39.5988 200.244L35.3778 188.34L27.4201 196.461L9.39422 189.416L16.4178 207.706L9.25586 215.03L20.9847 219.264L14.3765 226.171L28.1121 229.398L20.189 237.52C20.1199 237.555 45.4806 250.292 58.0399 237.45Z" fill="#FBFBFB" stroke="#232323" stroke-width="2" stroke-miterlimit="10"/>
      <path d="M57.901 237.312L9.2207 189.416" stroke="#232323" stroke-width="2" stroke-miterlimit="10"/>
      <path d="M55.6868 310.648C38.4567 320.296 46.4836 346.882 46.4836 346.882L54.1645 342.613L54.6143 356.218L62.9179 351.568L63.6099 364.201L73.5397 358.648L88.8322 370.518L87.2407 350.978L96.1671 345.98L86.099 338.587L94.368 333.832L82.1202 326.856L92.0153 321.338C92.0499 321.338 71.3253 301.902 55.6868 310.648Z" fill="#FBFBFB" stroke="#232323" stroke-width="2" stroke-miterlimit="10"/>
      <path d="M55.7559 310.856L88.936 370.587" stroke="#232323" stroke-width="2" stroke-miterlimit="10"/>
      <path d="M47.106 252.618C31.0177 241.165 10.5353 259.872 10.5353 259.872L17.6972 264.974L5.65698 271.221L13.407 276.74L2.37012 282.813L11.6425 289.408L7.5599 308.393L24.4786 298.536L32.8169 304.471L35.1349 292.184L42.9542 297.633L43.9576 283.542L53.1954 290.137C53.1608 290.137 61.7066 262.996 47.106 252.618Z" fill="#FBFBFB" stroke="#232323" stroke-width="2" stroke-miterlimit="10"/>
      <path d="M368.216 128.331C356.348 144.158 374.443 165.19 374.443 165.19L379.737 158.145L385.653 170.397L391.362 162.761L397.105 174.006L403.921 164.913L422.708 169.529L413.367 152.279L419.525 144.088L407.347 141.416L412.986 133.711L398.974 132.323L405.79 123.23C405.79 123.299 378.976 113.963 368.216 128.331Z" fill="#FBFBFB" stroke="#232323" stroke-width="2" stroke-miterlimit="10"/>
      <path d="M368.354 128.471L422.846 169.599" stroke="#232323" stroke-width="2" stroke-miterlimit="10"/>
      <path d="M583.8 269.486C571.932 285.312 590.027 306.345 590.027 306.345L595.321 299.299L601.237 311.551L606.946 303.915L612.689 315.16L619.505 306.067L638.292 310.683L628.951 293.434L635.109 285.243L622.931 282.57L628.57 274.865L614.558 273.477L621.374 264.384C621.374 264.453 594.594 255.117 583.8 269.486Z" fill="#FBFBFB" stroke="#232323" stroke-width="2" stroke-miterlimit="10"/>
      <path d="M583.938 269.625L638.431 310.753" stroke="#232323" stroke-width="2" stroke-miterlimit="10"/>
      <path d="M343.097 88.7998C324.103 83.3854 311.059 107.889 311.059 107.889L319.501 110.283L310.229 120.21L319.363 122.813L310.955 132.253L321.888 135.377L324.345 154.639L337.008 139.715L346.869 142.526L344.966 130.171L354.169 132.704L350.432 119.064L361.331 122.188C361.331 122.119 360.362 93.6935 343.097 88.7998Z" fill="#FBFBFB" stroke="#232323" stroke-width="2" stroke-miterlimit="10"/>
      <path d="M343.028 88.9736L324.379 154.744" stroke="#232323" stroke-width="2" stroke-miterlimit="10"/>
      <path d="M596.672 326.129C587.053 308.845 560.551 316.897 560.551 316.897L564.807 324.602L551.244 325.053L555.88 333.383L543.286 334.077L548.822 344.038L536.989 359.378L556.468 357.782L561.45 366.736L568.82 356.636L573.56 364.931L580.514 352.645L586.015 362.571C586.05 362.641 605.391 341.851 596.672 326.129Z" fill="#FBFBFB" stroke="#232323" stroke-width="2" stroke-miterlimit="10"/>
      <path d="M596.463 326.198L536.919 359.517" stroke="#232323" stroke-width="2" stroke-miterlimit="10"/>
      <path d="M601.099 366.597C582.105 361.182 569.061 385.686 569.061 385.686L577.503 388.08L568.23 398.007L577.364 400.61L568.957 410.05L579.89 413.174L582.347 432.436L595.01 417.512L604.87 420.323L602.967 407.968L612.171 410.501L608.434 396.861L619.333 399.985C619.298 399.95 618.329 371.49 601.099 366.597Z" fill="#FBFBFB" stroke="#232323" stroke-width="2" stroke-miterlimit="10"/>
      <path d="M601.029 366.77L582.381 432.574" stroke="#232323" stroke-width="2" stroke-miterlimit="10"/>
      <path d="M606.565 541.07C606.565 541.07 599.888 541.139 599.888 547.768C599.888 541.07 593.21 541.07 593.21 541.07C593.21 541.07 599.888 541.417 599.888 534.371C599.853 541.417 606.565 541.07 606.565 541.07Z" fill="#FBFBFB"/>
      <path d="M535.188 535.619V536.036C529.445 536.174 526.158 539.749 526.296 545.476H525.708C525.57 539.715 522.041 536.313 516.332 536.452V536.036C522.041 535.897 525.397 532.322 525.258 526.561H525.847C526.02 532.322 529.445 535.723 535.188 535.619Z" fill="#FBFBFB"/>
      <path d="M603.279 237.659C605.419 237.659 607.154 235.919 607.154 233.772C607.154 231.625 605.419 229.885 603.279 229.885C601.139 229.885 599.404 231.625 599.404 233.772C599.404 235.919 601.139 237.659 603.279 237.659Z" fill="#FBFBFB"/>
      <path d="M533.527 436.88C534.464 436.88 535.223 436.118 535.223 435.179C535.223 434.24 534.464 433.479 533.527 433.479C532.591 433.479 531.832 434.24 531.832 435.179C531.832 436.118 532.591 436.88 533.527 436.88Z" fill="#FBFBFB"/>
      <path d="M577.468 93.833V94.2495C571.724 94.3883 568.438 97.9631 568.576 103.69H567.988C567.849 97.9284 564.32 94.5271 558.611 94.666V94.2495C564.32 94.1106 567.676 90.5358 567.538 84.7744H568.126C568.264 90.5358 571.724 93.9718 577.468 93.833Z" fill="#232323"/>
      <path d="M499.275 611.144V611.561C493.532 611.7 490.245 615.275 490.383 621.001H489.795C489.657 615.24 486.128 611.839 480.419 611.977V611.561C486.128 611.422 489.484 607.847 489.345 602.086H489.934C490.107 607.882 493.532 611.283 499.275 611.144Z" fill="#232323"/>
      <path d="M646.562 128.541C648.702 128.541 650.437 126.801 650.437 124.654C650.437 122.507 648.702 120.767 646.562 120.767C644.421 120.767 642.687 122.507 642.687 124.654C642.687 126.801 644.421 128.541 646.562 128.541Z" fill="#232323"/>
      <path d="M657.321 397.104C659.462 397.104 661.197 395.364 661.197 393.217C661.197 391.07 659.462 389.33 657.321 389.33C655.181 389.33 653.446 391.07 653.446 393.217C653.446 395.364 655.181 397.104 657.321 397.104Z" fill="#232323"/>
      <path d="M25.0323 128.472C27.1724 128.472 28.9073 126.731 28.9073 124.584C28.9073 122.438 27.1724 120.697 25.0323 120.697C22.8922 120.697 21.1572 122.438 21.1572 124.584C21.1572 126.731 22.8922 128.472 25.0323 128.472Z" fill="#232323"/>
      <path d="M13.6154 519.481C15.7555 519.481 17.4904 517.741 17.4904 515.594C17.4904 513.447 15.7555 511.707 13.6154 511.707C11.4752 511.707 9.74023 513.447 9.74023 515.594C9.74023 517.741 11.4752 519.481 13.6154 519.481Z" fill="#232323"/>
      <path d="M55.4096 596.392V596.947C47.5903 596.947 43.0234 601.702 43.0234 609.511H42.2276C42.2276 601.668 37.5567 596.947 29.8066 596.947V596.392C37.5567 596.392 42.2621 591.637 42.2621 583.828H43.0579C43.0233 591.637 47.5903 596.392 55.4096 596.392Z" fill="#232323"/>
      <path d="M415.008 74.1435C415.944 74.1435 416.703 73.3821 416.703 72.4428C416.703 71.5036 415.944 70.7422 415.008 70.7422C414.071 70.7422 413.312 71.5036 413.312 72.4428C413.312 73.3821 414.071 74.1435 415.008 74.1435Z" fill="#232323"/>
      <path d="M640.991 592.124C641.928 592.124 642.687 591.362 642.687 590.423C642.687 589.484 641.928 588.723 640.991 588.723C640.055 588.723 639.296 589.484 639.296 590.423C639.296 591.362 640.055 592.124 640.991 592.124Z" fill="#232323"/>
      <path d="M93.5722 102.996C94.5085 102.996 95.2676 102.235 95.2676 101.295C95.2676 100.356 94.5085 99.5947 93.5722 99.5947C92.6359 99.5947 91.877 100.356 91.877 101.295C91.877 102.235 92.6359 102.996 93.5722 102.996Z" fill="#232323"/>
      <path d="M116.407 571.925C117.344 571.925 118.103 571.163 118.103 570.224C118.103 569.285 117.344 568.523 116.407 568.523C115.471 568.523 114.712 569.285 114.712 570.224C114.712 571.163 115.471 571.925 116.407 571.925Z" fill="#232323"/>
      <path d="M81.7393 505.598C84.0131 505.598 85.8564 503.749 85.8564 501.468C85.8564 499.187 84.0131 497.338 81.7393 497.338C79.4654 497.338 77.6221 499.187 77.6221 501.468C77.6221 503.749 79.4654 505.598 81.7393 505.598Z" stroke="#232323" stroke-width="2" stroke-miterlimit="10"/>
      <path d="M81.7393 513.928C84.0131 513.928 85.8564 512.079 85.8564 509.798C85.8564 507.517 84.0131 505.668 81.7393 505.668C79.4654 505.668 77.6221 507.517 77.6221 509.798C77.6221 512.079 79.4654 513.928 81.7393 513.928Z" stroke="#232323" stroke-width="2" stroke-miterlimit="10"/>
      <path d="M81.7393 522.223C84.0131 522.223 85.8564 520.374 85.8564 518.093C85.8564 515.812 84.0131 513.963 81.7393 513.963C79.4654 513.963 77.6221 515.812 77.6221 518.093C77.6221 520.374 79.4654 522.223 81.7393 522.223Z" stroke="#232323" stroke-width="2" stroke-miterlimit="10"/>
      <path d="M81.7393 530.553C84.0131 530.553 85.8564 528.704 85.8564 526.423C85.8564 524.142 84.0131 522.293 81.7393 522.293C79.4654 522.293 77.6221 524.142 77.6221 526.423C77.6221 528.704 79.4654 530.553 81.7393 530.553Z" stroke="#232323" stroke-width="2" stroke-miterlimit="10"/>
      <path d="M81.7393 538.881C84.0131 538.881 85.8564 537.032 85.8564 534.751C85.8564 532.47 84.0131 530.621 81.7393 530.621C79.4654 530.621 77.6221 532.47 77.6221 534.751C77.6221 537.032 79.4654 538.881 81.7393 538.881Z" stroke="#232323" stroke-width="2" stroke-miterlimit="10"/>
      <path d="M81.7393 547.176C84.0131 547.176 85.8564 545.327 85.8564 543.046C85.8564 540.765 84.0131 538.916 81.7393 538.916C79.4654 538.916 77.6221 540.765 77.6221 543.046C77.6221 545.327 79.4654 547.176 81.7393 547.176Z" stroke="#232323" stroke-width="2" stroke-miterlimit="10"/>
      <path d="M69.0068 528.852C71.2807 528.852 73.1241 527.003 73.1241 524.722C73.1241 522.441 71.2807 520.592 69.0068 520.592C66.733 520.592 64.8896 522.441 64.8896 524.722C64.8896 527.003 66.733 528.852 69.0068 528.852Z" stroke="#232323" stroke-width="2" stroke-miterlimit="10"/>
      <path d="M69.0068 537.182C71.2807 537.182 73.1241 535.333 73.1241 533.052C73.1241 530.771 71.2807 528.922 69.0068 528.922C66.733 528.922 64.8896 530.771 64.8896 533.052C64.8896 535.333 66.733 537.182 69.0068 537.182Z" stroke="#232323" stroke-width="2" stroke-miterlimit="10"/>
      <path d="M69.0068 545.512C71.2807 545.512 73.1241 543.663 73.1241 541.382C73.1241 539.101 71.2807 537.252 69.0068 537.252C66.733 537.252 64.8896 539.101 64.8896 541.382C64.8896 543.663 66.733 545.512 69.0068 545.512Z" stroke="#232323" stroke-width="2" stroke-miterlimit="10"/>
      <path d="M69.0068 553.807C71.2807 553.807 73.1241 551.958 73.1241 549.677C73.1241 547.396 71.2807 545.547 69.0068 545.547C66.733 545.547 64.8896 547.396 64.8896 549.677C64.8896 551.958 66.733 553.807 69.0068 553.807Z" stroke="#232323" stroke-width="2" stroke-miterlimit="10"/>
      <path d="M69.0068 562.135C71.2807 562.135 73.1241 560.286 73.1241 558.005C73.1241 555.724 71.2807 553.875 69.0068 553.875C66.733 553.875 64.8896 555.724 64.8896 558.005C64.8896 560.286 66.733 562.135 69.0068 562.135Z" stroke="#232323" stroke-width="2" stroke-miterlimit="10"/>
      <path d="M69.0068 570.432C71.2807 570.432 73.1241 568.583 73.1241 566.302C73.1241 564.021 71.2807 562.172 69.0068 562.172C66.733 562.172 64.8896 564.021 64.8896 566.302C64.8896 568.583 66.733 570.432 69.0068 570.432Z" stroke="#232323" stroke-width="2" stroke-miterlimit="10"/>
      <path d="M72.9863 371.143C75.2602 371.143 77.1036 369.294 77.1036 367.013C77.1036 364.732 75.2602 362.883 72.9863 362.883C70.7125 362.883 68.8691 364.732 68.8691 367.013C68.8691 369.294 70.7125 371.143 72.9863 371.143Z" stroke="#FBFBFB" stroke-width="2" stroke-miterlimit="10"/>
      <path d="M72.9863 379.473C75.2602 379.473 77.1036 377.624 77.1036 375.343C77.1036 373.062 75.2602 371.213 72.9863 371.213C70.7125 371.213 68.8691 373.062 68.8691 375.343C68.8691 377.624 70.7125 379.473 72.9863 379.473Z" stroke="#FBFBFB" stroke-width="2" stroke-miterlimit="10"/>
      <path d="M72.9863 387.768C75.2602 387.768 77.1036 385.919 77.1036 383.638C77.1036 381.357 75.2602 379.508 72.9863 379.508C70.7125 379.508 68.8691 381.357 68.8691 383.638C68.8691 385.919 70.7125 387.768 72.9863 387.768Z" stroke="#FBFBFB" stroke-width="2" stroke-miterlimit="10"/>
      <path d="M72.9863 396.097C75.2602 396.097 77.1036 394.248 77.1036 391.967C77.1036 389.686 75.2602 387.837 72.9863 387.837C70.7125 387.837 68.8691 389.686 68.8691 391.967C68.8691 394.248 70.7125 396.097 72.9863 396.097Z" stroke="#FBFBFB" stroke-width="2" stroke-miterlimit="10"/>
      <path d="M72.9863 404.393C75.2602 404.393 77.1036 402.544 77.1036 400.263C77.1036 397.982 75.2602 396.133 72.9863 396.133C70.7125 396.133 68.8691 397.982 68.8691 400.263C68.8691 402.544 70.7125 404.393 72.9863 404.393Z" stroke="#FBFBFB" stroke-width="2" stroke-miterlimit="10"/>
      <path d="M72.9863 412.722C75.2602 412.722 77.1036 410.873 77.1036 408.592C77.1036 406.311 75.2602 404.462 72.9863 404.462C70.7125 404.462 68.8691 406.311 68.8691 408.592C68.8691 410.873 70.7125 412.722 72.9863 412.722Z" stroke="#FBFBFB" stroke-width="2" stroke-miterlimit="10"/>
      <path d="M338.737 153.216C341.011 153.216 342.855 151.367 342.855 149.086C342.855 146.805 341.011 144.956 338.737 144.956C336.464 144.956 334.62 146.805 334.62 149.086C334.62 151.367 336.464 153.216 338.737 153.216Z" stroke="#FBFBFB" stroke-width="2" stroke-miterlimit="10"/>
      <path d="M338.737 161.546C341.011 161.546 342.855 159.697 342.855 157.416C342.855 155.135 341.011 153.286 338.737 153.286C336.464 153.286 334.62 155.135 334.62 157.416C334.62 159.697 336.464 161.546 338.737 161.546Z" stroke="#FBFBFB" stroke-width="2" stroke-miterlimit="10"/>
      <path d="M338.737 169.841C341.011 169.841 342.855 167.992 342.855 165.711C342.855 163.43 341.011 161.581 338.737 161.581C336.464 161.581 334.62 163.43 334.62 165.711C334.62 167.992 336.464 169.841 338.737 169.841Z" stroke="#FBFBFB" stroke-width="2" stroke-miterlimit="10"/>
      <path d="M338.737 178.17C341.011 178.17 342.855 176.321 342.855 174.04C342.855 171.759 341.011 169.91 338.737 169.91C336.464 169.91 334.62 171.759 334.62 174.04C334.62 176.321 336.464 178.17 338.737 178.17Z" stroke="#FBFBFB" stroke-width="2" stroke-miterlimit="10"/>
      <path d="M338.737 186.501C341.011 186.501 342.855 184.651 342.855 182.37C342.855 180.089 341.011 178.24 338.737 178.24C336.464 178.24 334.62 180.089 334.62 182.37C334.62 184.651 336.464 186.501 338.737 186.501Z" stroke="#FBFBFB" stroke-width="2" stroke-miterlimit="10"/>
      <path d="M338.737 194.795C341.011 194.795 342.855 192.946 342.855 190.665C342.855 188.384 341.011 186.535 338.737 186.535C336.464 186.535 334.62 188.384 334.62 190.665C334.62 192.946 336.464 194.795 338.737 194.795Z" stroke="#FBFBFB" stroke-width="2" stroke-miterlimit="10"/>
      <path d="M596.705 431.013C598.979 431.013 600.822 429.164 600.822 426.883C600.822 424.602 598.979 422.753 596.705 422.753C594.431 422.753 592.588 424.602 592.588 426.883C592.588 429.164 594.431 431.013 596.705 431.013Z" stroke="#FBFBFB" stroke-width="2" stroke-miterlimit="10"/>
      <path d="M596.705 439.343C598.979 439.343 600.822 437.494 600.822 435.213C600.822 432.932 598.979 431.083 596.705 431.083C594.431 431.083 592.588 432.932 592.588 435.213C592.588 437.494 594.431 439.343 596.705 439.343Z" stroke="#FBFBFB" stroke-width="2" stroke-miterlimit="10"/>
      <path d="M596.705 447.638C598.979 447.638 600.822 445.789 600.822 443.508C600.822 441.227 598.979 439.378 596.705 439.378C594.431 439.378 592.588 441.227 592.588 443.508C592.588 445.789 594.431 447.638 596.705 447.638Z" stroke="#FBFBFB" stroke-width="2" stroke-miterlimit="10"/>
      <path d="M596.705 455.967C598.979 455.967 600.822 454.118 600.822 451.837C600.822 449.556 598.979 447.707 596.705 447.707C594.431 447.707 592.588 449.556 592.588 451.837C592.588 454.118 594.431 455.967 596.705 455.967Z" stroke="#FBFBFB" stroke-width="2" stroke-miterlimit="10"/>
      <path d="M596.705 464.297C598.979 464.297 600.822 462.448 600.822 460.167C600.822 457.886 598.979 456.037 596.705 456.037C594.431 456.037 592.588 457.886 592.588 460.167C592.588 462.448 594.431 464.297 596.705 464.297Z" stroke="#FBFBFB" stroke-width="2" stroke-miterlimit="10"/>
      <path d="M596.705 472.592C598.979 472.592 600.822 470.743 600.822 468.462C600.822 466.181 598.979 464.332 596.705 464.332C594.431 464.332 592.588 466.181 592.588 468.462C592.588 470.743 594.431 472.592 596.705 472.592Z" stroke="#FBFBFB" stroke-width="2" stroke-miterlimit="10"/>
      <path d="M583.143 453.503C585.417 453.503 587.26 451.653 587.26 449.372C587.26 447.091 585.417 445.242 583.143 445.242C580.869 445.242 579.025 447.091 579.025 449.372C579.025 451.653 580.869 453.503 583.143 453.503Z" stroke="#FBFBFB" stroke-width="2" stroke-miterlimit="10"/>
      <path d="M583.143 461.797C585.417 461.797 587.26 459.948 587.26 457.667C587.26 455.386 585.417 453.537 583.143 453.537C580.869 453.537 579.025 455.386 579.025 457.667C579.025 459.948 580.869 461.797 583.143 461.797Z" stroke="#FBFBFB" stroke-width="2" stroke-miterlimit="10"/>
      <path d="M583.143 470.128C585.417 470.128 587.26 468.278 587.26 465.997C587.26 463.716 585.417 461.867 583.143 461.867C580.869 461.867 579.025 463.716 579.025 465.997C579.025 468.278 580.869 470.128 583.143 470.128Z" stroke="#FBFBFB" stroke-width="2" stroke-miterlimit="10"/>
      <path d="M583.143 478.422C585.417 478.422 587.26 476.573 587.26 474.292C587.26 472.011 585.417 470.162 583.143 470.162C580.869 470.162 579.025 472.011 579.025 474.292C579.025 476.573 580.869 478.422 583.143 478.422Z" stroke="#FBFBFB" stroke-width="2" stroke-miterlimit="10"/>
      <path d="M583.143 486.753C585.417 486.753 587.26 484.903 587.26 482.622C587.26 480.341 585.417 478.492 583.143 478.492C580.869 478.492 579.025 480.341 579.025 482.622C579.025 484.903 580.869 486.753 583.143 486.753Z" stroke="#FBFBFB" stroke-width="2" stroke-miterlimit="10"/>
      <path d="M583.143 495.083C585.417 495.083 587.26 493.233 587.26 490.952C587.26 488.671 585.417 486.822 583.143 486.822C580.869 486.822 579.025 488.671 579.025 490.952C579.025 493.233 580.869 495.083 583.143 495.083Z" stroke="#FBFBFB" stroke-width="2" stroke-miterlimit="10"/>
      <path d="M609.299 473.39C611.573 473.39 613.416 471.541 613.416 469.26C613.416 466.979 611.573 465.13 609.299 465.13C607.025 465.13 605.182 466.979 605.182 469.26C605.182 471.541 607.025 473.39 609.299 473.39Z" stroke="#FBFBFB" stroke-width="2" stroke-miterlimit="10"/>
      <path d="M609.299 481.72C611.573 481.72 613.416 479.871 613.416 477.59C613.416 475.309 611.573 473.46 609.299 473.46C607.025 473.46 605.182 475.309 605.182 477.59C605.182 479.871 607.025 481.72 609.299 481.72Z" stroke="#FBFBFB" stroke-width="2" stroke-miterlimit="10"/>
      <path d="M609.299 490.014C611.573 490.014 613.416 488.165 613.416 485.884C613.416 483.603 611.573 481.754 609.299 481.754C607.025 481.754 605.182 483.603 605.182 485.884C605.182 488.165 607.025 490.014 609.299 490.014Z" stroke="#FBFBFB" stroke-width="2" stroke-miterlimit="10"/>
      <path d="M609.299 498.344C611.573 498.344 613.416 496.495 613.416 494.214C613.416 491.933 611.573 490.084 609.299 490.084C607.025 490.084 605.182 491.933 605.182 494.214C605.182 496.495 607.025 498.344 609.299 498.344Z" stroke="#FBFBFB" stroke-width="2" stroke-miterlimit="10"/>
      <path d="M609.299 506.674C611.573 506.674 613.416 504.825 613.416 502.544C613.416 500.263 611.573 498.414 609.299 498.414C607.025 498.414 605.182 500.263 605.182 502.544C605.182 504.825 607.025 506.674 609.299 506.674Z" stroke="#FBFBFB" stroke-width="2" stroke-miterlimit="10"/>
      <path d="M609.299 514.969C611.573 514.969 613.416 513.12 613.416 510.839C613.416 508.558 611.573 506.709 609.299 506.709C607.025 506.709 605.182 508.558 605.182 510.839C605.182 513.12 607.025 514.969 609.299 514.969Z" stroke="#FBFBFB" stroke-width="2" stroke-miterlimit="10"/>
      <path d="M76.1689 159.915C80.7706 139.82 122.185 116.879 175.536 106.154C205.153 100.184 232.831 99.1432 253.625 102.232" stroke="#1F1F1F" stroke-width="2" stroke-miterlimit="10"/>
      <path d="M58.1787 230.752C58.1787 230.752 79.1455 234.57 83.2281 254.978C86.7571 272.609 66.517 283.611 66.9668 303.012" stroke="#FBFBFB" stroke-width="2" stroke-miterlimit="10"/>
      <path d="M47.6256 364.271C47.6256 364.271 23.026 396.445 37.5228 416.714C56.4137 443.161 81.0133 419.352 100.804 429.937C120.594 440.523 97.1363 484.775 117.93 499.144C124.954 504.003 135.056 502.684 135.056 502.684" stroke="#FBFBFB" stroke-width="2" stroke-miterlimit="10"/>
      <path d="M267.88 105.355C280.682 109.208 288.916 115.316 290.542 123.334C294.833 144.748 250.27 171.75 191.037 183.655C131.804 195.559 80.3215 187.889 76.0312 166.475" stroke="white" stroke-width="2" stroke-miterlimit="10"/>
      <path d="M374.686 543.152C378.976 564.567 334.413 591.569 275.181 603.473" stroke="white" stroke-width="2" stroke-miterlimit="10"/>
      <path d="M149.311 533.502L75.8232 165.884" stroke="white" stroke-width="2" stroke-miterlimit="10"/>
      <path d="M232.243 410.883C231.724 408.28 231.205 405.677 230.479 402.067C239.163 400.332 247.674 398.597 256.151 396.896C256.705 399.638 257.258 402.38 257.812 405.156C261.029 404.497 263.451 404.011 265.804 403.56C265.216 400.644 264.732 398.18 264.178 395.508C261.133 396.132 258.538 396.653 255.978 397.174C255.39 394.258 254.802 391.343 254.214 388.428C256.947 387.872 259.68 387.317 262.448 386.762C261.237 380.653 260.164 375.343 259.023 369.616C256.151 370.345 253.729 370.935 251.065 371.629C252.276 377.738 253.383 383.152 254.456 388.601C251.861 389.122 249.301 389.642 246.325 390.232C245.391 387.352 244.63 384.922 243.73 382.111C241.17 382.631 238.713 383.117 235.911 383.673C236.222 386.241 236.499 388.601 236.845 391.482C234.389 391.968 231.897 392.488 228.991 393.078C227.953 387.872 226.881 382.527 225.704 376.696C228.23 376.002 230.687 375.308 233.385 374.579C232.832 371.872 232.382 369.582 231.828 366.805C229.372 366.978 226.846 367.187 223.49 367.43C222.936 364.723 222.383 361.946 221.829 359.204L221.656 359.447C224.39 358.753 227.088 358.059 229.822 357.365C229.579 354.276 229.372 351.742 229.164 349.313C232.036 348.375 234.458 347.542 236.741 346.779C236.395 343.898 236.153 341.573 235.842 338.866C238.54 338.102 240.997 337.443 243.488 336.749C242.9 333.798 242.415 331.334 241.896 328.835C238.956 329.078 236.43 329.286 233.697 329.529C232.52 323.629 231.448 318.215 230.341 312.766L230.168 313.009C233.074 312.419 236.015 311.829 238.921 311.239L238.679 311.065C239.371 313.772 240.063 316.514 240.755 319.221C246.636 318.041 251.965 316.965 257.673 315.82C257.051 312.766 256.532 310.163 256.013 307.595L255.874 307.837C261.306 306.727 266.738 305.651 272.758 304.436C273.554 307.456 274.246 310.163 274.938 312.905C272.205 313.46 269.472 314.015 266.496 314.605C266.98 317.903 267.361 320.471 267.742 323.074C265.216 323.699 262.656 324.358 259.888 325.052C262.759 339.352 265.562 353.408 268.399 367.673C271.444 367.048 274.004 366.527 276.599 366.007C277.152 368.749 277.706 371.49 278.26 374.267C281.477 373.608 283.899 373.122 286.252 372.67C285.664 369.755 285.179 367.291 284.626 364.618C281.581 365.243 278.986 365.764 276.426 366.284C276.011 363.508 275.63 360.696 275.215 357.92C278.156 356.948 280.578 356.15 283.311 355.282C282.584 352.401 281.996 349.972 281.408 347.612C278.294 347.994 275.941 348.271 273.45 348.584C272.862 345.738 272.378 343.274 271.859 340.705C274.661 339.803 277.083 339.039 279.332 338.31C278.744 335.36 278.26 332.896 277.741 330.432C274.904 330.779 272.551 331.091 269.991 331.404C269.091 328.384 268.261 325.677 267.465 322.97C270.371 322.38 273.277 321.79 276.357 321.2C275.699 317.937 275.18 315.369 274.661 312.801C280.093 311.725 285.491 310.614 291.407 309.434C291.165 306.657 290.923 304.124 290.646 301.208C298.88 299.542 307.046 297.911 315.972 296.106C317.079 301.66 318.152 307.005 319.259 312.592C322.304 312.176 324.656 311.863 327.459 311.482C329.119 319.742 330.746 327.933 332.545 336.922C329.811 337.477 327.078 338.033 324.345 338.588L324.587 338.762C323.445 333.104 322.338 327.447 321.231 321.963C317.667 322.241 315.107 322.414 312.651 322.588C311.855 319.811 311.197 317.555 310.505 315.126C307.703 315.681 305.246 316.202 302.063 316.827C303.205 322.623 304.278 327.968 305.35 333.243C302.306 333.868 299.987 334.319 296.943 334.944C295.801 329.286 294.728 323.907 293.656 318.597C290.438 319.256 287.982 319.742 285.733 320.193C289.193 337.477 292.549 354.276 295.905 371.005C298.811 370.657 301.164 370.38 304.174 369.998C305.316 375.759 306.388 381.139 307.565 386.935C310.886 386.276 313.481 385.755 316.076 385.234L315.834 385.096C316.353 387.664 316.872 390.232 317.46 393.217C314.899 394.05 312.478 394.848 309.64 395.785C310.125 398.25 310.609 400.679 311.232 403.837C316.491 402.762 321.819 401.72 327.805 400.506C328.497 403.872 329.016 406.614 329.569 409.356L329.742 409.113C327.078 409.668 324.379 410.189 320.989 410.883C321.681 414.319 322.2 416.992 322.753 419.664L322.892 419.421C320.331 419.942 317.737 420.462 314.761 421.052C313.931 418.484 313.135 416.02 312.201 413.174C306.907 414.25 301.614 415.291 295.593 416.506C296.147 419.282 296.701 422.024 297.254 424.766C294.521 425.321 291.788 425.877 289.02 426.432C289.677 429.625 290.161 432.089 290.611 434.449C293.518 433.859 295.974 433.373 298.638 432.818C298.015 429.764 297.496 427.161 296.977 424.592C299.538 424.072 302.098 423.551 305.073 422.961C305.973 425.772 306.769 428.167 307.703 431.048C310.159 430.805 312.685 430.597 315.937 430.284C316.491 433.061 317.045 435.803 317.598 438.545L317.771 438.302C312.339 439.412 306.907 440.488 300.956 441.668C301.302 444.723 301.579 447.256 301.89 450.137C299.226 450.692 296.735 451.178 293.898 451.733C293.241 449.165 292.618 446.874 291.891 444.098C289.331 444.618 286.875 445.104 283.865 445.694C284.141 448.159 284.418 450.692 284.729 453.573C282.169 454.093 279.851 454.545 277.049 455.1C276.287 452.844 275.457 450.414 274.488 447.534C272.066 447.742 269.506 447.95 266.461 448.193C265.769 445.694 265.077 443.23 264.316 440.488C261.652 441.044 259.334 441.495 256.289 442.119C257.327 447.36 258.4 452.74 259.576 458.536C250.684 460.341 242.519 461.972 233.973 463.673C233.489 461.243 233.039 458.918 232.451 456.106C234.7 455.343 237.122 454.545 239.959 453.573C239.751 451.143 239.544 448.575 239.302 445.521C241.793 444.827 244.249 444.132 246.982 443.369C246.464 440.696 245.979 438.406 245.426 435.595C243.004 435.768 240.443 435.976 237.087 436.219C236.534 433.512 235.98 430.736 235.427 427.994L235.254 428.237C240.858 427.091 246.463 425.981 252.034 424.87C253.072 428.028 253.868 430.458 254.871 433.512C260.58 432.367 265.873 431.291 271.098 430.25C271.963 433.269 272.62 435.525 273.277 437.92C276.114 437.365 278.571 436.844 281.027 436.358C279.886 430.597 278.813 425.287 277.602 419.247C271.79 420.428 266.496 421.469 261.272 422.545C260.407 419.56 259.749 417.269 259.023 414.736C256.186 415.083 253.66 415.395 251.065 415.707C250.165 412.792 249.404 410.362 248.505 407.516C242.623 408.697 237.191 409.807 231.759 410.883H232.243ZM301.752 405.573C300.091 397.174 298.396 388.844 296.735 380.41C288.328 382.111 280.197 383.742 272.17 385.339C273.9 394.015 275.526 402.172 277.187 410.501C285.525 408.835 293.345 407.273 301.752 405.573ZM254.144 344.28C251.203 344.87 248.747 345.356 246.429 345.842C247.017 348.792 247.501 351.256 247.986 353.651C250.788 353.096 253.106 352.61 255.701 352.089C255.148 349.451 254.698 347.161 254.144 344.28Z" stroke="white" stroke-width="2" stroke-miterlimit="10"/>
      <path d="M108.935 327.828C104.921 307.767 101.046 288.297 97.0674 268.479C116.823 264.522 136.233 260.6 156.162 256.574C160.071 276.149 164.016 295.793 168.029 315.923C148.55 319.845 128.967 323.767 108.935 327.828ZM157.753 309.294C154.812 294.648 152.044 280.73 149.277 266.952C135.022 269.832 121.321 272.574 107.447 275.385C110.319 289.65 113.087 303.568 115.924 317.728C130.04 314.847 143.741 312.106 157.753 309.294Z" stroke="white" stroke-width="2" stroke-miterlimit="10"/>
      <path d="M310.644 225.649C314.623 245.641 318.532 265.077 322.511 284.929C302.79 288.886 283.38 292.808 263.417 296.834C259.507 277.328 255.598 257.684 251.55 237.554C270.925 233.667 290.508 229.71 310.644 225.649ZM312.028 278.196C309.122 263.723 306.354 249.806 303.621 236.096C289.228 238.977 275.388 241.788 261.653 244.53C264.524 258.829 267.258 272.574 270.06 286.63C284.142 283.784 297.843 281.042 312.028 278.196Z" stroke="white" stroke-width="2" stroke-miterlimit="10"/>
      <path d="M187.335 411.401C191.314 431.393 195.223 450.829 199.202 470.681C179.481 474.638 160.071 478.56 140.108 482.586C136.198 463.08 132.288 443.436 128.24 423.306C147.615 419.419 167.198 415.462 187.335 411.401ZM138.343 429.831C141.249 444.373 144.017 458.291 146.82 472.173C161.144 469.293 174.983 466.516 188.649 463.774C185.778 449.336 182.975 435.453 180.173 421.432C166.057 424.243 152.529 426.985 138.343 429.831Z" stroke="white" stroke-width="2" stroke-miterlimit="10"/>
      <path d="M223.006 278.196C223.801 280.903 224.597 283.575 225.531 286.699C228.195 286.352 230.652 286.005 233.697 285.623C234.873 291.523 235.98 297.076 237.087 302.63L237.26 302.387C234.354 303.046 231.448 303.705 228.541 304.365C227.988 301.623 227.434 298.881 226.881 296.105C223.698 296.764 221.241 297.25 218.888 297.701C219.477 300.617 219.961 303.081 220.515 305.753C223.559 305.128 226.154 304.608 228.714 304.087C229.233 307.037 229.752 309.987 230.237 312.903L230.41 312.66C227.676 313.354 224.943 314.083 222.279 314.742C222.487 317.866 222.694 320.434 222.867 322.864C220.065 323.419 217.781 323.87 214.771 324.495C213.076 315.922 211.415 307.697 209.789 299.541C206.571 300.2 204.08 300.686 201.52 301.207C201.9 304.053 202.246 306.378 202.592 309.016C199.755 309.606 197.264 310.092 194.669 310.612C193.77 307.801 193.009 305.371 192.074 302.491C189.099 303.081 186.504 303.601 183.909 304.122L184.151 304.261C183.044 298.812 181.972 293.328 180.795 287.393C177.751 287.705 175.225 287.983 172.353 288.295C170.693 280.07 169.101 272.018 167.371 263.41C172.561 262.369 177.889 261.293 183.805 260.113C184.463 262.682 185.189 265.389 185.881 268.131C183.148 268.686 180.415 269.241 177.647 269.797C178.304 273.024 178.789 275.454 179.238 277.814C182.145 277.224 184.601 276.738 187.265 276.183C186.642 273.128 186.124 270.525 185.605 267.957C188.199 267.437 190.76 266.916 193.735 266.326C194.669 269.207 195.431 271.636 196.365 274.551C198.925 274.239 201.451 273.927 204.253 273.58C205.014 276.183 205.672 278.439 206.571 281.632C212.072 280.521 217.643 279.41 223.213 278.3C223.282 278.335 223.006 278.196 223.006 278.196ZM199.133 292.009C198.51 288.955 198.06 286.63 197.541 284.061C194.773 284.617 192.317 285.102 189.722 285.623C190.275 288.469 190.794 290.933 191.313 293.571C194.047 293.05 196.33 292.564 199.133 292.009Z" stroke="white" stroke-width="2" stroke-miterlimit="10"/>
      <path d="M211.589 352.261C208.994 352.782 206.399 353.302 203.354 353.927C204.496 359.723 205.568 365.068 206.745 370.933C209.305 370.586 211.831 370.274 214.668 369.927C215.221 372.634 215.671 374.925 216.225 377.701C213.907 378.465 211.485 379.298 208.509 380.27C208.925 383.012 209.305 385.823 209.72 388.634L209.893 388.391C207.16 388.946 204.427 389.502 201.071 390.161C199.86 384.122 198.787 378.777 197.749 373.537C194.601 374.161 192.144 374.647 189.757 375.133C189.964 378.153 190.172 380.651 190.345 383.359C184.463 384.539 179.101 385.615 173.703 386.725L173.945 386.899C173.357 383.983 172.769 381.033 172.181 378.118L172.008 378.361C174.672 377.805 177.371 377.285 180.761 376.591C180.069 373.189 179.55 370.482 178.997 367.81L178.858 368.053C184.256 366.977 189.653 365.866 195.742 364.652C195.293 361.771 194.947 359.307 194.497 356.391C191.591 356.634 189.065 356.877 185.813 357.155C185.259 354.378 184.706 351.636 184.152 348.894L183.979 349.137C186.643 348.582 189.342 348.061 192.732 347.367C192.04 343.931 191.521 341.259 190.968 338.586L190.795 338.829C193.459 338.274 196.158 337.754 199.548 337.059C198.856 333.623 198.337 330.951 197.784 328.278L197.611 328.521C200.379 327.966 203.112 327.411 205.811 326.855C206.849 330.049 207.644 332.443 208.613 335.289C214.218 334.179 219.373 333.137 224.736 332.062C225.324 335.046 225.809 337.511 226.466 340.669C220.757 341.814 215.394 342.89 209.651 344.07C210.308 347.402 210.827 350.005 211.346 352.608L211.589 352.261Z" stroke="white" stroke-width="2" stroke-miterlimit="10"/>
      <path d="M127.514 378.362C132.911 377.286 138.343 376.175 144.225 374.995C145.055 377.633 145.816 380.028 146.75 382.978C149.553 382.561 152.321 382.145 155.123 381.763L154.881 381.589C155.538 384.505 156.196 387.42 156.853 390.301C151.248 391.412 145.678 392.557 140.073 393.668C140.696 396.861 141.215 399.29 141.699 401.72C147.477 400.54 152.805 399.498 158.272 398.388C157.649 395.334 157.13 392.73 156.611 390.127C162.389 389.052 168.202 387.941 173.98 386.865L173.737 386.691C174.429 389.399 175.121 392.14 175.986 395.507C181.833 394.327 187.162 393.251 192.663 392.14C193.32 395.438 193.839 398.041 194.358 400.609L194.497 400.366C174.775 404.323 155.089 408.279 134.537 412.444C132.219 400.783 129.936 389.433 127.652 378.084L127.514 378.362Z" stroke="white" stroke-width="2" stroke-miterlimit="10"/>
      <path d="M237.053 257.753C237.572 260.322 238.091 262.925 238.679 265.875C241.655 265.632 244.18 265.424 247.156 265.181C248.228 270.526 249.301 275.836 250.443 281.562C247.882 282.083 245.426 282.569 242.623 283.124C241.931 280.695 241.274 278.404 240.236 274.76C234.597 275.905 228.853 277.05 223.075 278.196C223.075 278.196 223.352 278.335 223.317 278.335C222.21 272.92 221.138 267.506 219.927 261.363C214.287 262.508 208.959 263.584 203.319 264.695C202.143 258.829 201.105 253.693 199.929 247.792C202.247 247.202 204.669 246.578 207.54 245.849C208.44 248.625 209.236 251.055 210.135 253.866C212.661 253.345 215.117 252.86 217.989 252.304C217.678 249.805 217.401 247.48 217.02 244.322C219.373 243.732 221.83 243.107 225.013 242.309C226.154 247.966 227.227 253.311 228.403 259.176C231.863 258.69 234.631 258.274 237.399 257.892L237.053 257.753Z" stroke="white" stroke-width="2" stroke-miterlimit="10"/>
      <path d="M184.186 348.827C175.952 350.493 167.682 352.159 158.721 353.964C158.064 351.326 157.441 348.896 156.646 345.773C162.354 344.627 167.648 343.551 173.495 342.371C173.011 338.935 172.595 336.159 172.215 333.382L172.042 333.625C174.637 333.104 177.232 332.584 180.484 331.924C178.754 323.317 177.128 315.091 175.329 306.102C178.719 305.408 181.453 304.853 184.186 304.332L183.944 304.193C185.051 309.816 186.193 315.439 187.3 321.026C190.794 320.749 193.32 320.54 196.053 320.298C196.641 323.282 197.16 325.851 197.679 328.454L197.852 328.211C195.188 328.766 192.49 329.287 189.099 329.981C189.791 333.382 190.31 336.089 190.863 338.762L191.036 338.519C188.372 339.074 185.674 339.595 182.283 340.289C182.975 343.69 183.494 346.397 184.048 349.07L184.186 348.827Z" stroke="white" stroke-width="2" stroke-miterlimit="10"/>
      <path d="M329.708 409.18C332.303 408.66 334.863 408.139 337.839 407.549C337.597 404.564 337.389 402.03 337.147 399.08C339.672 398.56 342.129 398.074 344.931 397.519C347.769 411.644 350.536 425.562 353.374 439.792C350.709 440.312 348.426 440.798 345.416 441.388C343.79 433.232 342.129 425.007 340.399 416.295C336.939 416.781 334.171 417.198 331.403 417.614L331.646 417.788C331.057 414.872 330.469 411.922 329.881 409.007L329.708 409.18Z" stroke="white" stroke-width="2" stroke-miterlimit="10"/>
      <path d="M127.652 378.118C125.058 378.639 122.463 379.16 119.418 379.784C118.311 374.231 117.238 368.921 116.027 362.813C124.469 361.112 132.911 359.411 141.354 357.711L141.111 357.537C141.63 360.14 142.149 362.708 142.807 366.006C137.305 367.116 131.977 368.192 126.13 369.372C126.649 372.808 127.064 375.585 127.479 378.361C127.514 378.361 127.652 378.118 127.652 378.118Z" stroke="white" stroke-width="2" stroke-miterlimit="10"/>
      <path d="M324.518 338.483C325.037 341.086 325.556 343.689 326.145 346.64C329.12 346.397 331.68 346.188 334.621 345.945C335.694 351.36 336.766 356.705 337.908 362.397C335.348 362.917 333.064 363.368 330.296 363.924C329.535 361.598 328.705 359.169 327.736 356.184C325.003 356.601 322.2 356.982 319.398 357.399L319.64 357.572C318.498 351.915 317.391 346.258 316.215 340.392C319.605 339.698 322.2 339.178 324.795 338.657L324.518 338.483Z" stroke="white" stroke-width="2" stroke-miterlimit="10"/>
      <path d="M237.122 302.63C239.682 302.109 242.277 301.589 245.218 300.999C244.976 298.083 244.768 295.55 244.526 292.565C246.983 292.079 249.439 291.558 252.588 290.934C253.729 296.591 254.836 302.179 255.944 307.801L256.082 307.558C250.304 308.704 244.526 309.884 238.748 311.064L238.99 311.237C238.402 308.322 237.814 305.372 237.226 302.456L237.122 302.63Z" stroke="white" stroke-width="2" stroke-miterlimit="10"/>
      <path d="M319.363 357.398C321.024 365.763 322.719 374.162 324.518 383.186C321.37 383.811 318.636 384.366 315.938 384.921L316.18 385.06C314.45 376.418 312.72 367.741 311.025 359.099L310.852 359.342C313.758 358.752 316.664 358.162 319.605 357.572L319.363 357.398Z" stroke="white" stroke-width="2" stroke-miterlimit="10"/>
      <path d="M155.089 381.728C154.57 379.194 154.086 376.626 153.359 373.12C159.137 371.94 164.812 370.83 170.486 369.684L170.244 369.511C170.832 372.426 171.42 375.376 172.008 378.292L172.181 378.049C166.403 379.229 160.625 380.374 154.847 381.554L155.089 381.728Z" stroke="white" stroke-width="2" stroke-miterlimit="10"/>
      <path d="M141.353 357.675C140.834 355.107 140.315 352.504 139.692 349.45C142.356 348.929 144.813 348.408 147.719 347.818C148.204 350.178 148.688 352.608 149.311 355.836C146.543 356.391 143.81 356.946 141.076 357.502C141.111 357.502 141.353 357.675 141.353 357.675Z" stroke="white" stroke-width="2" stroke-miterlimit="10"/>
      <path d="M341.783 380.409C342.336 383.082 342.752 385.233 343.34 388.114C340.814 388.739 338.392 389.329 335.451 390.058C334.898 387.212 334.379 384.748 333.825 382.006C336.455 381.485 339.084 380.93 341.783 380.409Z" stroke="white" stroke-width="2" stroke-miterlimit="10"/>
      <path d="M120.629 343.967C123.189 343.447 125.75 342.926 128.794 342.336C129.313 344.974 129.832 347.438 130.386 350.353C128.033 350.839 125.577 351.325 122.428 351.95C121.875 349.208 121.321 346.466 120.767 343.724L120.629 343.967Z" stroke="white" stroke-width="2" stroke-miterlimit="10"/>
      <path d="M172.18 333.381C169.62 333.902 167.025 334.422 163.981 335.047C163.462 332.375 162.943 329.91 162.354 326.995C164.707 326.509 167.164 326.023 170.347 325.398C170.9 328.175 171.454 330.917 172.008 333.659C172.042 333.624 172.18 333.381 172.18 333.381Z" stroke="white" stroke-width="2" stroke-miterlimit="10"/>
      <path d="M120.802 343.723C118.241 344.243 115.646 344.764 112.602 345.389C112.083 342.716 111.564 340.252 110.976 337.337C113.328 336.851 115.785 336.365 118.968 335.74C119.521 338.517 120.075 341.259 120.629 344C120.629 343.966 120.802 343.723 120.802 343.723Z" stroke="white" stroke-width="2" stroke-miterlimit="10"/>
      <path d="M331.404 417.545C331.923 420.148 332.442 422.716 333.065 425.771C330.366 426.326 327.909 426.812 324.692 427.471C324.138 424.764 323.585 421.987 323.031 419.246L322.893 419.489C325.799 418.899 328.74 418.308 331.646 417.718L331.404 417.545Z" stroke="white" stroke-width="2" stroke-miterlimit="10"/>
      <path d="M237.295 257.927C236.776 255.359 236.257 252.756 235.634 249.702C238.298 249.181 240.754 248.66 243.661 248.07C244.145 250.43 244.629 252.895 245.252 256.088C242.484 256.643 239.751 257.198 237.018 257.754C237.052 257.754 237.295 257.927 237.295 257.927Z" stroke="white" stroke-width="2" stroke-miterlimit="10"/>
      <path d="M317.702 438.405C320.262 437.885 322.857 437.364 325.902 436.739C326.421 439.412 326.94 441.876 327.528 444.791C325.175 445.277 322.754 445.763 319.536 446.388C318.982 443.611 318.429 440.869 317.875 438.128C317.875 438.162 317.702 438.405 317.702 438.405Z" stroke="white" stroke-width="2" stroke-miterlimit="10"/>
      <path d="M311.025 359.099C308.465 359.619 305.87 360.14 302.825 360.765C302.306 358.092 301.787 355.628 301.199 352.713C303.552 352.227 306.008 351.741 309.191 351.116C309.745 353.893 310.299 356.635 310.852 359.376C310.887 359.342 311.025 359.099 311.025 359.099Z" stroke="white" stroke-width="2" stroke-miterlimit="10"/>
      <path d="M290.196 390.509C290.75 393.285 291.2 395.611 291.753 398.353C289.124 398.873 286.667 399.394 283.83 399.949C283.311 397.381 282.827 394.917 282.273 392.105C284.834 391.585 287.117 391.134 290.196 390.509Z" stroke="white" stroke-width="2" stroke-miterlimit="10"/>
      <path d="M147.476 302.388C139.104 304.089 131.111 305.685 122.738 307.351C121.043 298.918 119.417 290.727 117.722 282.189C125.956 280.523 133.948 278.926 142.46 277.226C144.086 285.347 145.712 293.503 147.476 302.388Z" stroke="white" stroke-width="2" stroke-miterlimit="10"/>
      <path d="M297.117 246.231C298.812 254.735 300.369 262.578 302.064 270.978C293.83 272.643 285.699 274.275 277.015 276.01C275.423 268.062 273.797 259.906 272.067 251.264C280.163 249.633 288.329 248.002 297.117 246.231Z" stroke="white" stroke-width="2" stroke-miterlimit="10"/>
      <path d="M148.792 436.809C157.061 435.143 165.053 433.546 173.461 431.846C175.156 440.245 176.782 448.436 178.478 456.974C170.347 458.605 162.355 460.201 153.809 461.937C152.217 453.919 150.557 445.763 148.792 436.809Z" stroke="white" stroke-width="2" stroke-miterlimit="10"/>
      <path d="M377.385 409.043L472.497 438.891C482.323 441.98 492.806 436.462 495.885 426.605L568.196 194.657C571.276 184.8 565.775 174.284 555.949 171.195L460.837 141.347C451.011 138.258 440.528 143.777 437.448 153.633L365.137 385.581C362.058 395.438 367.559 405.954 377.385 409.043Z" stroke="white" stroke-width="2" stroke-miterlimit="10"/>
      <path d="M553.804 179.455L540.864 175.394C539.203 180.427 533.806 183.203 528.754 181.607L476.303 165.156C471.251 163.559 468.414 158.214 469.902 153.112L457.896 149.329C452.188 147.525 446.098 150.718 444.299 156.479L371.988 388.427C370.189 394.154 373.372 400.262 379.115 402.067L475.057 432.158C480.766 433.963 486.855 430.77 488.655 425.008L560.931 193.095C562.73 187.368 559.547 181.26 553.804 179.455Z" stroke="white" stroke-width="2" stroke-miterlimit="10"/>
      <path d="M197.848 484.651L141.821 497.332L144.41 508.843L200.437 496.163L197.848 484.651Z" stroke="white" stroke-width="2" stroke-miterlimit="10"/>
      <path d="M203.597 541.415L223.872 536.799L226.466 548.322L217.748 550.265" stroke="white" stroke-width="2" stroke-miterlimit="10"/>
      <path d="M246.152 580.635L250.615 579.628L248.021 568.105L237.779 570.431" stroke="white" stroke-width="2" stroke-miterlimit="10"/>
      <path d="M291.719 578.101L294.314 589.589L327.39 582.093L324.83 570.813L343.997 566.509L341.402 554.986L308.326 562.483L310.852 573.763L291.719 578.101Z" stroke="white" stroke-width="2" stroke-miterlimit="10"/>
      <path d="M355.349 450.509L319.033 458.729L321.622 470.24L357.938 462.02L355.349 450.509Z" stroke="white" stroke-width="2" stroke-miterlimit="10"/>
      <path d="M118.902 192.557L82.5859 200.776L85.1751 212.288L121.491 204.068L118.902 192.557Z" stroke="white" stroke-width="2" stroke-miterlimit="10"/>
      <path d="M157.756 196.028L121.44 204.248L124.03 215.759L160.346 207.54L157.756 196.028Z" stroke="white" stroke-width="2" stroke-miterlimit="10"/>
      <path d="M304.802 195.439L268.486 203.658L271.075 215.17L307.391 206.95L304.802 195.439Z" stroke="white" stroke-width="2" stroke-miterlimit="10"/>
      <path d="M195.764 220.116L174.467 224.937L177.056 236.448L198.353 231.628L195.764 220.116Z" stroke="white" stroke-width="2" stroke-miterlimit="10"/>
      <path d="M150.107 232.419L147.512 220.931L126.234 225.755L128.586 236.306L117.1 238.909L119.695 250.432L141.007 245.607L138.62 235.022L150.107 232.419Z" stroke="white" stroke-width="2" stroke-miterlimit="10"/>
      <path d="M214.444 203.835L193.147 208.655L195.737 220.167L217.034 215.346L214.444 203.835Z" stroke="white" stroke-width="2" stroke-miterlimit="10"/>
      <path d="M238.115 210.644L216.818 215.464L219.408 226.975L240.704 222.155L238.115 210.644Z" stroke="white" stroke-width="2" stroke-miterlimit="10"/>
      <path d="M296.864 156.6L275.567 161.42L278.157 172.931L299.453 168.111L296.864 156.6Z" stroke="white" stroke-width="2" stroke-miterlimit="10"/>
      <path d="M278.182 173.12L256.885 177.94L259.474 189.452L280.771 184.632L278.182 173.12Z" stroke="white" stroke-width="2" stroke-miterlimit="10"/>
      <path d="M317.633 524.573L281.317 532.793L283.907 544.304L320.223 536.085L317.633 524.573Z" stroke="white" stroke-width="2" stroke-miterlimit="10"/>
      <path d="M312.422 477.864L296.356 481.5L298.946 493.011L315.011 489.375L312.422 477.864Z" stroke="white" stroke-width="2" stroke-miterlimit="10"/>
      <path d="M331.001 485.67L314.936 489.307L317.525 500.818L333.59 497.182L331.001 485.67Z" stroke="white" stroke-width="2" stroke-miterlimit="10"/>
      <path d="M336.301 532.112L320.235 535.748L322.825 547.259L338.89 543.623L336.301 532.112Z" stroke="white" stroke-width="2" stroke-miterlimit="10"/>
      <path d="M354.88 539.922L338.814 543.559L341.404 555.07L357.469 551.434L354.88 539.922Z" stroke="white" stroke-width="2" stroke-miterlimit="10"/>
      <path d="M273.91 561.266L265.54 563.16L268.129 574.671L276.499 572.777L273.91 561.266Z" stroke="white" stroke-width="2" stroke-miterlimit="10"/>
      <path d="M262.487 551.445L254.117 553.34L256.706 564.851L265.076 562.957L262.487 551.445Z" stroke="white" stroke-width="2" stroke-miterlimit="10"/>
      <path d="M268.161 537.805L259.791 539.699L262.38 551.21L270.75 549.316L268.161 537.805Z" stroke="white" stroke-width="2" stroke-miterlimit="10"/>
      <path d="M349.857 509.623L341.486 511.518L344.075 523.029L352.446 521.134L349.857 509.623Z" stroke="white" stroke-width="2" stroke-miterlimit="10"/>
      <path d="M355.529 495.982L347.159 497.877L349.748 509.388L358.118 507.494L355.529 495.982Z" stroke="white" stroke-width="2" stroke-miterlimit="10"/>
      <path d="M269.004 505.692L252.938 509.328L255.528 520.839L271.593 517.203L269.004 505.692Z" stroke="white" stroke-width="2" stroke-miterlimit="10"/>
      <path d="M255.821 520.581L239.756 524.217L242.345 535.728L258.41 532.092L255.821 520.581Z" stroke="white" stroke-width="2" stroke-miterlimit="10"/>
      <path d="M277.429 492.201L274.835 480.678L218.819 493.381L221.38 504.765L194.289 510.908L196.849 522.396L252.899 509.728L250.339 498.344L277.429 492.201Z" stroke="white" stroke-width="2" stroke-miterlimit="10"/>
      <path d="M290.611 122.674L374.755 543.533" stroke="white" stroke-width="2" stroke-miterlimit="10"/>
      <path d="M374.512 183.377C374.512 183.377 394.995 200.002 386.691 216.626C377.315 235.438 346.107 224.262 341.367 243.039C336.834 260.982 360.119 265.564 365.102 286.249C368.319 299.472 361.4 315.125 352.092 321.303" stroke="#FBFBFB" stroke-width="2" stroke-miterlimit="10"/>
      <path d="M215.152 459.022C213.492 450.727 211.831 442.398 209.997 433.27C215.913 432.09 221.484 430.944 227.089 429.834L226.847 429.66C227.366 432.228 227.885 434.832 228.473 437.782C225.878 438.615 223.456 439.413 220.377 440.419C221.415 445.695 222.487 451.005 223.698 457.044C220.307 457.738 217.609 458.259 214.876 458.814L215.152 459.022Z" stroke="white" stroke-width="2" stroke-miterlimit="10"/>
      <path d="M227.089 429.833C226.57 427.23 226.051 424.627 225.394 421.33C219.719 422.476 214.391 423.552 208.648 424.697C208.025 421.573 207.541 419.109 206.918 415.951C215.395 414.25 223.837 412.549 232.279 410.849L232.036 410.71C233.178 416.506 234.355 422.302 235.496 428.098L235.669 427.855C232.728 428.445 229.822 429.035 226.881 429.625C226.847 429.695 227.089 429.833 227.089 429.833Z" stroke="white" stroke-width="2" stroke-miterlimit="10"/>
      <path d="M211.416 397C211.935 399.603 212.454 402.206 213.076 405.226C207.575 406.336 202.247 407.412 196.158 408.627C195.604 405.85 195.05 403.108 194.497 400.367L194.358 400.61C200.136 399.43 205.914 398.284 211.692 397.104L211.416 397Z" stroke="white" stroke-width="2" stroke-miterlimit="10"/>
      <path d="M221.899 359.135C219.235 359.69 216.536 360.211 213.319 360.87C212.661 357.643 212.142 354.935 211.589 352.263L211.45 352.506C214.114 351.951 216.813 351.43 220.031 350.771C220.688 353.998 221.207 356.671 221.761 359.378L221.899 359.135Z" stroke="white" stroke-width="2" stroke-miterlimit="10"/>
      <path d="M170.52 369.686C170.001 367.118 169.482 364.515 168.859 361.46C171.558 360.905 174.015 360.419 177.232 359.76C177.786 362.467 178.339 365.243 178.893 367.985L179.031 367.742C176.125 368.332 173.184 368.922 170.278 369.512L170.52 369.686Z" stroke="white" stroke-width="2" stroke-miterlimit="10"/>
      <path d="M209.721 388.601C212.281 388.081 214.876 387.56 217.921 386.936C218.474 389.643 218.959 392.107 219.616 395.335C216.917 395.89 214.149 396.445 211.416 397.001L211.658 397.139C211.07 394.224 210.482 391.274 209.894 388.359L209.721 388.601Z" stroke="white" stroke-width="2" stroke-miterlimit="10"/>
      <path d="M214.91 458.849C215.429 461.417 215.948 464.02 216.571 467.074C213.906 467.595 211.45 468.115 208.544 468.706C208.059 466.345 207.575 463.881 206.952 460.688C209.72 460.133 212.453 459.577 215.187 459.022C215.152 459.022 214.91 458.849 214.91 458.849Z" stroke="white" stroke-width="2" stroke-miterlimit="10"/>
      <path d="M491.803 395.889C491.803 395.889 494.432 384.609 503.359 377.321C512.458 369.859 521.004 369.998 523.357 374.197C526.228 379.265 520.485 386.657 520.485 386.657C520.485 386.657 529.065 381.208 530.761 386.727C532.214 391.447 524.775 393.425 524.775 393.425C524.775 393.425 532.006 393.668 531.66 398.006C531.28 402.518 524.706 400.575 524.706 400.575C524.706 400.575 529.688 406.197 525.19 408.766C521.108 411.126 517.267 404.774 517.267 404.774C517.267 404.774 513.288 410.675 503.22 410.779" fill="#FBFBFB"/>
      <path d="M491.803 395.889C491.803 395.889 494.432 384.609 503.359 377.321C512.458 369.859 521.004 369.998 523.356 374.197C526.228 379.265 520.485 386.657 520.485 386.657C520.485 386.657 529.065 381.208 530.761 386.727C532.214 391.447 524.775 393.425 524.775 393.425C524.775 393.425 532.006 393.668 531.66 398.006C531.28 402.518 524.706 400.575 524.706 400.575C524.706 400.575 529.688 406.197 525.19 408.766C521.108 411.126 517.267 404.774 517.267 404.774C517.267 404.774 513.288 410.675 503.22 410.779" stroke="#232323" stroke-width="2" stroke-miterlimit="10"/>
      <path d="M344.06 387.1L341.193 373.089C352.359 358.511 365.452 350.707 378.993 344.917C384.543 342.544 390.152 340.516 395.747 338.492C397.05 338.021 398.352 337.55 399.653 337.075C406.523 334.567 413.332 331.951 419.843 328.615C423.382 326.805 427.915 324.843 432.252 324.323C436.312 323.835 440.058 324.617 442.741 327.844C442.611 328 442.455 328.184 442.274 328.395C441.631 329.146 440.676 330.234 439.433 331.575C436.945 334.259 433.307 337.954 428.709 341.993C419.506 350.077 406.502 359.501 391.233 364.961C375.752 370.497 363.66 376.227 355.432 380.576C351.318 382.75 348.169 384.58 346.046 385.868C345.232 386.362 344.569 386.777 344.06 387.1Z" fill="#EADDCF" stroke="#232323" stroke-width="2"/>
      <path d="M406.967 462.353C406.967 462.353 393.646 479.464 403.853 492.687C414.302 506.188 447.24 492.063 447.24 492.063C422.121 508.063 407.382 522.466 397.729 538.397C391.259 549.086 392.747 555.889 396.587 558.145C404.13 562.587 414.855 550.44 424.439 540.201C432.293 531.802 466.234 498.24 478.344 486.301C480.939 483.733 481.665 479.846 480.177 476.548C478.724 473.286 475.437 471.273 471.874 471.377C468.587 471.481 464.919 470.683 464.158 466.9C460.975 451.178 512.043 440.141 502.563 408.765C498.791 396.271 482.253 382.457 444.229 399.394C402.019 418.171 369.877 457.321 369.877 457.321C369.877 457.321 373.856 446.7 368.874 436.809C363.615 426.292 355.38 423.759 355.38 423.759C403.68 414.423 435.476 382.249 447.032 367.742C460.249 351.221 470.836 339.663 465.611 329.98C462.117 323.455 453.018 321.859 441.012 329.355C410.807 348.271 373.06 350.666 342.683 385.616L364.584 493.902C364.584 493.902 384.789 507.993 416.205 505.529C444.16 503.342 461.633 497.859 470.248 496.123C483.118 493.52 490.799 504.21 506.68 500.948C518.271 498.587 529.93 483.872 533.736 474.882C533.736 474.882 528.373 467.351 519.343 471.898C510.036 476.548 510.451 491.507 502.805 491.472C491.353 491.438 500.314 476.965 485.679 463.325C478.378 456.522 460.837 461.277 447.516 465.546C434.196 469.815 406.967 462.353 406.967 462.353Z" fill="#EADDCF"/>
      <path d="M407.035 462.736C407.035 462.736 393.715 479.846 403.921 493.07C414.37 506.571 447.308 492.445 447.308 492.445C422.189 508.445 407.45 522.848 397.797 538.779C391.327 549.469 392.815 556.271 396.656 558.527C404.198 562.97 414.924 550.822 424.507 540.584C432.361 532.185 466.303 498.623 478.412 486.649C481.007 484.081 481.734 480.193 480.246 476.896C478.793 473.634 475.506 471.621 471.942 471.725C468.655 471.829 464.988 471.031 464.227 467.248C461.044 451.525 512.111 440.488 502.631 409.113C498.86 396.619 482.322 382.805 444.298 399.742C402.088 418.519 369.946 457.668 369.946 457.668C369.946 457.668 373.924 447.048 368.942 437.156C363.683 426.64 355.449 424.107 355.449 424.107C403.748 414.77 434.645 382.076 446.685 367.985C460.386 351.95 470.904 340.046 465.68 330.328C462.185 323.803 453.086 322.206 441.08 329.703C410.876 348.619 373.129 351.013 342.751 385.963" stroke="#232323" stroke-width="2" stroke-miterlimit="10"/>
      <path d="M465.438 461.208C465.438 461.208 477.513 456.8 485.748 462.839C499.068 472.626 491.457 491.16 502.701 491.334C509.863 491.438 509.102 480.574 516.298 473.633C521.453 468.704 528.996 469.156 533.84 474.119C533.84 474.119 522.63 499.906 502.736 501.85C487.72 503.308 484.814 492.861 468.691 496.158" stroke="#232323" stroke-width="2" stroke-miterlimit="10"/>
      <path d="M340.122 372.844C362.853 342.857 393.577 340.948 419.387 327.725C426.515 324.08 438.036 319.603 444.022 327.863" stroke="#232323" stroke-width="2" stroke-miterlimit="10"/>
      <path d="M430.389 503.932C386.691 511.533 364.583 493.867 364.583 493.867" stroke="#232323" stroke-width="2" stroke-miterlimit="10"/>
      <path d="M346.096 397.819C346.576 397.737 347.209 397.625 347.975 397.481C349.822 397.132 352.442 396.592 355.541 395.828C361.735 394.301 369.873 391.87 377.6 388.257C388.918 382.966 402.098 373.595 414.143 364.384C419.006 360.665 423.677 356.979 427.975 353.587C434.374 348.536 439.949 344.137 444.107 341.249C447.928 338.608 450.872 337.035 453.093 336.444C454.193 336.151 455.054 336.116 455.729 336.265C456.381 336.408 456.915 336.735 457.366 337.28C458.116 338.191 458.276 339.674 457.596 341.701C456.925 343.699 455.499 346.005 453.483 348.264C442.343 360.718 426.461 376.103 408.143 388.697C390.065 401.124 369.695 410.777 349.22 412.29L346.096 397.819Z" fill="#FFD2E7" stroke="#232323" stroke-width="2"/>
      <path d="M344.896 397C344.896 397 361.884 394.501 377.177 387.351C399.597 376.87 429.594 350.111 443.537 340.427C451.218 335.117 455.785 333.798 458.138 336.644C460.283 339.247 458.38 344.28 454.228 348.931C431.877 373.92 390.463 410.709 348.426 413.347" fill="#FBFBFB"/>
      <path d="M344.896 397C344.896 397 361.884 394.501 377.177 387.351C399.597 376.87 429.594 350.111 443.537 340.427C451.218 335.117 455.785 333.798 458.138 336.644C460.283 339.247 458.38 344.28 454.228 348.931C431.877 373.92 390.463 410.709 348.426 413.347" stroke="#232323" stroke-width="2" stroke-miterlimit="10"/>
      <path d="M225.808 111.464C225.808 111.464 182.56 111.082 151.663 129.546C130.177 142.388 104.713 142.804 109.003 150.44C113.293 158.075 132.876 139.472 141.837 143.88C149.726 147.733 136.959 156.166 144.57 157.589C152.182 159.012 159.344 146.691 159.033 141.277C158.514 131.837 161.316 127.811 168.928 126.006C174.256 124.722 176.055 131.004 172.249 138.153C168.443 145.303 169.585 150.579 175.778 148.67C181.971 146.761 180.345 136.939 184.151 133.85C186.954 131.594 195.603 140.756 198.89 137.182C203.042 132.67 192.178 128.227 196.607 122.917C202.938 115.281 237.502 121.147 239.025 111.949C240.582 102.544 207.92 102.995 187.196 111.082C178.062 114.657 165.641 111.464 158.514 115.767C152.078 119.689 154.673 123.333 146.577 126.665C138.481 129.997 127.548 128.088 119.486 132.392C111.425 136.696 86.7216 146.136 89.2127 151.932C91.2194 156.652 98.1737 149.954 100.942 154.813C102.672 157.798 99.869 162.379 102.914 163.906C108.934 166.926 126.268 149.607 130.074 152.939C133.879 156.271 125.818 159.464 130.593 161.858" stroke="#1F1F1F" stroke-width="2" stroke-miterlimit="10"/>
      <path d="M269.471 604.409C245.252 608.817 222.556 609.927 204.184 608.157C179.377 605.762 162.354 598.092 159.967 586.188" stroke="#1F1F1F" stroke-width="2" stroke-miterlimit="10"/>
      <path d="M159.967 586.778L150.349 538.674" stroke="#1F1F1F" stroke-width="2" stroke-miterlimit="10"/>
      <path d="M211.311 551.793L170.45 560.99L167.855 549.468L195.569 543.498" stroke="#1F1F1F" stroke-width="2" stroke-miterlimit="10"/>
      <path d="M242.173 581.642L231.482 583.967L234.008 595.247L200.932 602.744L198.337 591.221L217.504 586.883L214.944 575.603L233.212 571.473" stroke="#1F1F1F" stroke-width="2" stroke-miterlimit="10"/>
    </g>
  </g>
  <defs>
    <clipPath id="clip0">
      <rect width="672" height="664" fill="white"/>
    </clipPath>
    <clipPath id="clip1">
      <rect width="672" height="640" fill="white" transform="translate(0 -19)"/>
    </clipPath>
  </defs>
</svg>
