<svg width="2880" height="1392" viewBox="0 0 2880 1392" fill="none" xmlns="http://www.w3.org/2000/svg">
  <g clip-path="url(#clip0)">
    <path fill-rule="evenodd" clip-rule="evenodd" d="M92 361.601C92 219.523 211.275 110.013 393.909 84.9886C614.138 54.8118 742.404 137.796 926.332 127.738C1081.31 119.262 1135.46 31.5277 1248.21 24.6358C1371.63 17.0922 1418.64 78.705 1526.52 101.753C1699.15 138.634 1891.5 28.3784 2013.77 76.6062C2188.01 145.34 2205.28 283.647 2302.57 283.647C2455.84 283.647 2511.48 145.34 2625.25 145.34C2713.98 145.34 2764 217.427 2764 319.69V540.981C2764 673.42 2720.44 743.83 2654.29 743.83C2554.26 743.83 2491.33 586.245 2341.29 586.245C2215.07 586.245 2162.44 678.223 2105.73 755.565C2028.29 861.181 1918.58 948.357 1718.51 986.914C1558.64 1017.73 1407.97 994.816 1244.17 1030.5C1044.11 1074.09 971.507 1116 853.728 1116C705.26 1116 579.886 1030.51 522.174 874.593C473.772 743.83 454.411 648.273 321.305 610.553C220.907 582.103 92 540.143 92 361.601Z" fill="#EDE1D2"/>
    <path fill-rule="evenodd" clip-rule="evenodd" d="M2880 1392H-9.26172V1344.33C299.297 1344.33 360.81 1288.8 521.291 1288.8C679.786 1288.8 746.155 1347.71 910.461 1350.28C1013.6 1351.9 1122.78 1245.17 1285.41 1245.17C1448.21 1245.17 1533.19 1324.5 1745.85 1324.5C2007.78 1324.5 2217.31 1330.45 2255.82 1330.45C2468.14 1330.45 2531.63 1280.87 2611.3 1280.87C2682.44 1280.87 2880 1330.45 2880 1330.45V1392Z" fill="#1D1D1B"/>
    <path fill-rule="evenodd" clip-rule="evenodd" d="M2280 1334.42V784.042H2186.89V725.548H2281.33V664.396H2336.18V726.878H2372.09V661.736H2427.96V725.548H2450.94C2515.18 725.548 2572.81 777.575 2572.81 848.034C2572.81 947.69 2504.47 983.633 2504.47 983.633C2504.47 983.633 2592.27 1022.9 2592.27 1142.54C2592.27 1262.19 2518.59 1332.93 2417.39 1332.93C2365.3 1332.93 2280 1334.42 2280 1334.42" fill="#1D1D1B"/>
    <path fill-rule="evenodd" clip-rule="evenodd" d="M1777.28 1326.26V1114.95H1739.96V1082.2H1777.82V1057.69H1799.8V1082.74H1814.2V1056.62H1836.59V1082.2H1851.1C1875.56 1082.2 1894.65 1103.06 1894.65 1131.3C1894.65 1171.25 1855.28 1186.15 1855.28 1186.15C1855.28 1186.15 1911.49 1202.2 1911.49 1256.65C1911.49 1297.34 1877.8 1325.67 1859.51 1325.67C1838.63 1325.67 1777.28 1326.26 1777.28 1326.26" fill="#1D1D1B"/>
    <path fill-rule="evenodd" clip-rule="evenodd" d="M1430.1 1315.77V1157.23H1403.28V1140.38H1430.48V1122.77H1446.28V1140.77H1456.63V1122H1472.72V1140.38H1483.15C1500.73 1140.38 1514.44 1155.37 1514.44 1175.67C1514.44 1204.37 1486.15 1215.09 1486.15 1215.09C1486.15 1215.09 1517.31 1226.04 1517.31 1260.5C1517.31 1294.97 1492.58 1315.34 1463.43 1315.34C1448.43 1315.34 1430.1 1315.77 1430.1 1315.77" fill="#1D1D1B"/>
    <path fill-rule="evenodd" clip-rule="evenodd" d="M1233.07 1275.71V1170.97H1215.35V1159.84H1233.32V1148.2H1243.76V1160.09H1250.59V1147.69H1261.23V1159.84H1268.12C1279.73 1159.84 1288.79 1169.74 1288.79 1183.15C1288.79 1202.11 1270.1 1209.19 1270.1 1209.19C1270.1 1209.19 1290.69 1216.43 1290.69 1239.2C1290.69 1261.97 1274.35 1275.43 1255.09 1275.43C1245.18 1275.43 1233.07 1275.71 1233.07 1275.71" fill="#1D1D1B"/>
    <path fill-rule="evenodd" clip-rule="evenodd" d="M1043.34 1332.3V1227.56H1025.62V1216.42H1043.59V1204.79H1054.03V1216.68H1060.86V1204.28H1071.49V1216.42H1078.38C1090 1216.42 1099.06 1226.32 1099.06 1239.73C1099.06 1258.7 1080.37 1265.78 1080.37 1265.78C1080.37 1265.78 1100.95 1273.01 1100.95 1295.78C1100.95 1318.55 1084.61 1332.02 1065.36 1332.02C1055.44 1332.02 1043.34 1332.3 1043.34 1332.3" fill="#1D1D1B"/>
    <path fill-rule="evenodd" clip-rule="evenodd" d="M849.866 1375.43V1270.69H832.146V1259.56H850.119V1247.92H860.557V1259.81H867.392V1247.41H878.024V1259.56H884.914C896.527 1259.56 905.59 1269.46 905.59 1282.87C905.59 1301.83 886.898 1308.91 886.898 1308.91C886.898 1308.91 907.485 1316.15 907.485 1338.92C907.485 1361.69 891.145 1375.15 871.887 1375.15C861.973 1375.15 849.866 1375.43 849.866 1375.43" fill="#1D1D1B"/>
    <path fill-rule="evenodd" clip-rule="evenodd" d="M2000.74 798.526C1965.11 813.614 1967.47 853.479 1978.81 880.248C1993.5 914.891 2024.28 907.428 2036.29 935.773C2048.31 964.116 2001.65 991.305 2020.34 1035.4C2039.03 1079.49 2084.96 1058.18 2096.3 1084.95C2107.65 1111.72 2093.37 1152.59 2132.46 1208.15C2154.94 1240.1 2279.63 1332.93 2279.63 1332.93L2286.05 1301.1C2286.05 1301.1 2263.29 1181.59 2235.57 1141.67C2210.37 1105.39 2164.68 1096.06 2149.99 1061.41C2135.31 1026.77 2178.1 1022.45 2158.07 975.212C2138.05 927.972 2088.72 948.863 2075.37 917.369C2062.01 885.876 2092.16 873.109 2076.14 835.318C2060.12 797.526 2028.14 786.92 2000.74 798.526" fill="#1D1D1B"/>
    <path d="M2020.93 833.662C2020.93 833.662 2079.58 1011.47 2151.64 1133.62C2199.98 1215.56 2245.39 1278.22 2245.39 1278.22" stroke="white" stroke-width="2"/>
    <path fill-rule="evenodd" clip-rule="evenodd" d="M2281.05 1326.78C2281.05 1326.78 2141.86 1214.07 2087.61 1196.23C2049.43 1183.68 2029.08 1193.38 2018.37 1209.79C2007.67 1226.19 2011.23 1251.88 2034.79 1264C2065.73 1279.93 2092.61 1246.17 2117.59 1252.59C2142.82 1259.07 2142.25 1279.05 2171.84 1299.68C2202.53 1321.08 2280.34 1338.2 2280.34 1338.2L2281.05 1326.78Z" fill="#1D1D1B"/>
    <path fill-rule="evenodd" clip-rule="evenodd" d="M2486.62 1324.65C2486.62 1324.65 2640.09 1189.1 2656.51 1176.97C2672.93 1164.84 2695.05 1141.3 2717.9 1154.85C2733.39 1164.05 2731.46 1190.52 2715.75 1204.08C2700.05 1217.63 2672.93 1204.08 2655.08 1215.49C2637.24 1226.91 2660.08 1246.17 2639.38 1261.86C2621.82 1275.18 2602.47 1264.92 2581.32 1280.05C2549.3 1302.95 2523.74 1323.93 2523.74 1323.93L2486.62 1324.65Z" fill="#1D1D1B"/>
    <path fill-rule="evenodd" clip-rule="evenodd" d="M1781.99 1330.26C1781.99 1330.26 1774.71 1171.1 1700.99 1152.03C1647.62 1138.22 1608.68 1170.85 1595.5 1204.74C1581.24 1241.38 1603.66 1263.73 1619.36 1263.73C1649.5 1263.73 1664.57 1200.35 1664.57 1200.35C1664.57 1200.35 1637.57 1261.22 1667.08 1272.52C1696.85 1283.91 1709.15 1229.84 1709.15 1229.84C1709.15 1229.84 1682.63 1260.66 1704.76 1278.17C1719.82 1290.09 1733.01 1278.17 1746.2 1288.21C1761.88 1300.15 1746.83 1330.26 1746.83 1330.26H1781.99Z" fill="#1D1D1B"/>
    <path fill-rule="evenodd" clip-rule="evenodd" d="M1857.96 1351.59C1857.96 1306.41 1894.38 1266.24 1950.27 1266.24C2006.15 1266.24 2011.8 1280.68 2012.43 1290.09C2013.06 1299.5 2000.5 1305.78 1987.94 1305.15C1975.38 1304.52 1955.92 1283.19 1955.92 1283.19C1955.92 1283.19 1952.9 1304.15 1938.34 1309.54C1921.38 1315.82 1918.65 1307.09 1898.15 1312.68C1877.43 1318.33 1882.45 1347.2 1882.45 1347.2L1857.96 1351.59Z" fill="#1D1D1B"/>
    <path fill-rule="evenodd" clip-rule="evenodd" d="M1253.25 228.082C1259.8 277.487 1225.03 322.839 1175.6 329.379C1126.16 335.918 1080.79 301.169 1074.24 251.764C1067.7 202.358 1102.47 157.006 1151.9 150.466C1201.33 143.927 1246.71 178.677 1253.25 228.082" fill="white"/>
    <path fill-rule="evenodd" clip-rule="evenodd" d="M1253.25 228.082C1259.8 277.487 1225.03 322.839 1175.6 329.379C1126.16 335.918 1080.79 301.169 1074.24 251.764C1067.7 202.358 1102.47 157.006 1151.9 150.466C1201.33 143.927 1246.71 178.677 1253.25 228.082Z" stroke="#1D1D1B" stroke-width="2"/>
    <path fill-rule="evenodd" clip-rule="evenodd" d="M825.72 1003.39L1402.2 694.34C1440.83 673.631 1455.35 625.544 1434.63 586.935V586.934C1413.91 548.327 1365.79 533.815 1327.16 554.525L750.684 863.577L825.72 1003.39Z" fill="#1D1D1B"/>
    <path fill-rule="evenodd" clip-rule="evenodd" d="M1660.61 84.543L1388.14 230.615C1349.51 251.325 1334.99 299.412 1355.71 338.02C1376.43 376.629 1424.55 391.139 1463.18 370.43L1735.65 224.357L1660.61 84.543Z" fill="white"/>
    <path fill-rule="evenodd" clip-rule="evenodd" d="M1660.61 84.543L1388.14 230.615C1349.51 251.325 1334.99 299.412 1355.71 338.02C1376.43 376.629 1424.55 391.139 1463.18 370.43L1735.65 224.357L1660.61 84.543Z" stroke="#1D1D1B" stroke-width="2"/>
    <path fill-rule="evenodd" clip-rule="evenodd" d="M777.701 715.774L1050.17 569.701C1088.8 548.992 1103.32 500.904 1082.6 462.297C1061.88 423.687 1013.77 409.177 975.136 429.887L702.664 575.959L777.701 715.774Z" fill="white"/>
    <path fill-rule="evenodd" clip-rule="evenodd" d="M777.701 715.774L1050.17 569.701C1088.8 548.992 1103.32 500.904 1082.6 462.297C1061.88 423.687 1013.77 409.177 975.136 429.887L702.664 575.959L777.701 715.774Z" stroke="#1D1D1B" stroke-width="2"/>
    <path fill-rule="evenodd" clip-rule="evenodd" d="M1413.22 869.072L1979.26 565.616L1904.23 425.801L1338.19 729.257C1299.63 749.93 1285.13 797.93 1305.82 836.469L1305.95 836.719C1326.64 875.26 1374.66 889.744 1413.22 869.072" fill="#1D1D1B"/>
    <path d="M333.879 1104.83C428.701 1208.1 629.978 1235.7 796.365 1220.38C1215.05 1181.84 1733.52 865.821 2067.31 667.661C2232.01 569.886 2367.28 525.264 2482.03 525.264C2671.03 525.264 2732.05 668.056 2732.05 767.217C2732.05 947.69 2734.03 1084.53 2734.03 1084.53" stroke="#1D1D1B" stroke-width="2"/>
    <path d="M469.164 748.516C469.164 748.516 305.526 849.121 295.352 955.661" stroke="#1D1D1B" stroke-width="2"/>
    <path fill-rule="evenodd" clip-rule="evenodd" d="M1948.25 503.448C1974.24 541.724 2056.67 514.613 2153.62 472.708C2227.04 440.977 2272.03 381.655 2260.78 352.723C2246.89 317.025 2172.47 336.858 2115.92 364.622C2063.54 390.34 1989.92 428.086 1989.92 428.086L1980 398.337C1980 398.337 1910.55 447.918 1948.25 503.448" fill="white"/>
    <path fill-rule="evenodd" clip-rule="evenodd" d="M1948.25 503.448C1974.24 541.724 2056.67 514.613 2153.62 472.708C2227.04 440.977 2272.03 381.655 2260.78 352.723C2246.89 317.025 2172.47 336.858 2115.92 364.622C2063.54 390.34 1989.92 428.086 1989.92 428.086L1980 398.337C1980 398.337 1910.55 447.918 1948.25 503.448Z" stroke="#1D1D1B" stroke-width="2"/>
    <path fill-rule="evenodd" clip-rule="evenodd" d="M1176.11 333.387C1017.61 412.965 1109.19 588.693 1187.34 630.91L1489.88 468.743C1365.27 399.085 1350.66 245.748 1176.11 333.387" fill="white"/>
    <path fill-rule="evenodd" clip-rule="evenodd" d="M1176.11 333.387C1017.61 412.965 1109.19 588.693 1187.34 630.91L1489.88 468.743C1365.27 399.085 1350.66 245.748 1176.11 333.387Z" stroke="#1D1D1B" stroke-width="2"/>
    <path d="M2260.78 352.725C2250.36 379.002 2233.36 398.575 2162.55 425.111C2106.99 445.936 2068.46 435.819 2004.67 474.931C1999.01 461.602 1989.98 428.098 1989.98 428.098" stroke="#1D1D1B" stroke-width="2"/>
    <path d="M1904.26 426.094C1904.26 426.094 1854.39 482.704 1882.21 530.798C1911.31 581.097 1979.2 565.615 1979.2 565.615" stroke="white" stroke-width="2"/>
    <path fill-rule="evenodd" clip-rule="evenodd" d="M783.466 933.809C755.732 897.361 680.282 931.826 622.738 969.507C582.765 995.682 497.641 1065.3 521.539 1102.38C548.395 1144.06 743.78 1017.6 743.78 1017.6L733.859 1054.79L783.466 1030.99C783.466 1030.99 808.72 966.996 783.466 933.809" fill="white"/>
    <path fill-rule="evenodd" clip-rule="evenodd" d="M783.466 933.809C755.732 897.361 680.282 931.826 622.738 969.507C582.765 995.682 497.641 1065.3 521.539 1102.38C548.395 1144.06 743.78 1017.6 743.78 1017.6L733.859 1054.79L783.466 1030.99C783.466 1030.99 808.72 966.996 783.466 933.809Z" stroke="#1D1D1B" stroke-width="2"/>
    <path fill-rule="evenodd" clip-rule="evenodd" d="M517.67 787.688C517.67 787.688 475.473 737.677 425.516 779.003C475.767 737.435 434.205 686.898 434.205 686.898C434.205 686.898 473.271 739.499 526.36 695.584C473.271 739.499 517.67 787.688 517.67 787.688" fill="#1D1D1B"/>
    <path fill-rule="evenodd" clip-rule="evenodd" d="M2800 1025.3C2800 1025.3 2734.55 1025.9 2734.55 1090.71C2734.55 1025.52 2669.1 1025.3 2669.1 1025.3C2669.1 1025.3 2734.55 1028.76 2734.55 959.883C2734.55 1028.76 2800 1025.3 2800 1025.3" fill="#1D1D1B"/>
    <path fill-rule="evenodd" clip-rule="evenodd" d="M1830.69 806.523C1830.69 806.523 1774.15 839.472 1806.29 895.764C1773.96 839.142 1717 871.374 1717 871.374C1717 871.374 1775.56 841.953 1741.4 782.135C1775.56 841.953 1830.69 806.523 1830.69 806.523" fill="#1D1D1B"/>
    <path fill-rule="evenodd" clip-rule="evenodd" d="M1952.77 667.318C1952.77 667.318 1918.27 688.222 1938.67 722.576C1918.15 688.02 1883.38 708.487 1883.38 708.487C1883.38 708.487 1919.17 689.735 1897.48 653.229C1919.17 689.735 1952.77 667.318 1952.77 667.318" fill="#1D1D1B"/>
    <path fill-rule="evenodd" clip-rule="evenodd" d="M1451 1009.54C1451 1009.54 1414.74 1027.21 1431.93 1063.28C1414.64 1027 1378.15 1044.22 1378.15 1044.22C1378.15 1044.22 1415.5 1028.8 1397.23 990.473C1415.5 1028.8 1451 1009.54 1451 1009.54" fill="#1D1D1B"/>
    <path fill-rule="evenodd" clip-rule="evenodd" d="M2578.43 640.193C2578.43 640.193 2539.52 640.552 2539.52 679.075C2539.52 640.325 2500.62 640.193 2500.62 640.193C2500.62 640.193 2539.52 642.249 2539.52 601.311C2539.52 642.249 2578.43 640.193 2578.43 640.193" fill="#1D1D1B"/>
    <path fill-rule="evenodd" clip-rule="evenodd" d="M2215.95 881.989C2215.95 881.989 2191.77 882.212 2191.77 906.152C2191.77 882.07 2167.6 881.989 2167.6 881.989C2167.6 881.989 2191.77 883.267 2191.77 857.826C2191.77 883.267 2215.95 881.989 2215.95 881.989" fill="#1D1D1B"/>
    <path fill-rule="evenodd" clip-rule="evenodd" d="M1669.56 1093.01C1669.56 1093.01 1645.39 1093.24 1645.39 1117.18C1645.39 1093.1 1621.21 1093.01 1621.21 1093.01C1621.21 1093.01 1645.39 1094.29 1645.39 1068.85C1645.39 1094.29 1669.56 1093.01 1669.56 1093.01" fill="#1D1D1B"/>
    <path fill-rule="evenodd" clip-rule="evenodd" d="M1129.63 935.148C1129.63 935.148 1105.45 935.37 1105.45 959.31C1105.45 935.229 1081.28 935.148 1081.28 935.148C1081.28 935.148 1105.45 936.425 1105.45 910.984C1105.45 936.425 1129.63 935.148 1129.63 935.148" fill="#1D1D1B"/>
    <path fill-rule="evenodd" clip-rule="evenodd" d="M496.21 980.252C496.21 980.252 483.316 980.371 483.316 993.14C483.316 980.296 470.422 980.252 470.422 980.252C470.422 980.252 483.316 980.934 483.316 967.365C483.316 980.934 496.21 980.252 496.21 980.252" fill="#1D1D1B"/>
    <path fill-rule="evenodd" clip-rule="evenodd" d="M2599.91 357.059C2599.91 357.059 2587.01 357.177 2587.01 369.946C2587.01 357.103 2574.12 357.059 2574.12 357.059C2574.12 357.059 2587.01 357.74 2587.01 344.172C2587.01 357.74 2599.91 357.059 2599.91 357.059" fill="#1D1D1B"/>
    <path fill-rule="evenodd" clip-rule="evenodd" d="M2666.06 318.514C2666.06 318.514 2653.17 318.633 2653.17 331.401C2653.17 318.558 2640.28 318.514 2640.28 318.514C2640.28 318.514 2653.17 319.195 2653.17 305.627C2653.17 319.195 2666.06 318.514 2666.06 318.514" fill="#1D1D1B"/>
    <path fill-rule="evenodd" clip-rule="evenodd" d="M2731.55 274.633C2731.55 274.633 2718.65 274.752 2718.65 287.52C2718.65 274.677 2705.76 274.633 2705.76 274.633C2705.76 274.633 2718.65 275.315 2718.65 261.746C2718.65 275.315 2731.55 274.633 2731.55 274.633" fill="#1D1D1B"/>
    <path fill-rule="evenodd" clip-rule="evenodd" d="M2770.98 52.0235C2770.98 52.0235 2730.06 52.4003 2730.06 92.9213C2730.06 52.1624 2689.14 52.0235 2689.14 52.0235C2689.14 52.0235 2730.06 54.186 2730.06 11.125C2730.06 54.186 2770.98 52.0235 2770.98 52.0235" fill="#1D1D1B"/>
    <path fill-rule="evenodd" clip-rule="evenodd" d="M2127.3 751.508C2127.3 751.508 2114.41 751.627 2114.41 764.395C2114.41 751.552 2101.51 751.508 2101.51 751.508C2101.51 751.508 2114.41 752.19 2114.41 738.621C2114.41 752.19 2127.3 751.508 2127.3 751.508" fill="#1D1D1B"/>
    <path d="M1103.12 173.33C1103.12 173.33 1098.01 206.753 1117.14 211.46C1133.26 215.427 1140.05 199.727 1153.29 202.452C1166.87 205.247 1163.17 220.485 1170.4 247.117C1181.32 287.277 1222 296.201 1246.8 274.882" stroke="#1D1D1B" stroke-width="2"/>
    <path d="M1145.45 247.68C1145.45 247.68 1162.47 235.986 1155.19 222.991C1150.17 214.046 1137.52 216.94 1129.96 226.28" stroke="#1D1D1B" stroke-width="2"/>
    <path d="M516.578 1084.53C516.578 1084.53 570.817 1085.41 642.723 1050.66C730.232 1008.38 792.462 955.846 792.462 955.846" stroke="#1D1D1B" stroke-width="2"/>
    <path fill-rule="evenodd" clip-rule="evenodd" d="M712.527 1035.45L732.169 1056.39L743.78 1017.6L712.527 1035.45Z" fill="#1D1D1B"/>
    <path d="M750.684 863.578C750.684 863.578 833.074 842.085 856.885 894.145C880.697 946.204 825.72 1003.39 825.72 1003.39" stroke="white" stroke-width="2"/>
    <path d="M1660.61 84.543C1660.61 84.543 1636.71 122.669 1656.06 170.266C1675.41 217.863 1735.65 224.357 1735.65 224.357" stroke="#1D1D1B" stroke-width="2"/>
    <path d="M1614.13 109.76C1614.13 109.76 1596.25 143.733 1615.6 191.329C1634.94 238.927 1687.81 249.595 1687.81 249.595" stroke="#1D1D1B" stroke-width="2"/>
    <path d="M702.664 575.96C702.664 575.96 757.647 563.732 786.173 619.397C810.273 666.423 777.701 715.774 777.701 715.774" stroke="#1D1D1B" stroke-width="2"/>
    <path d="M752.469 548.78C752.469 548.78 795.666 543.873 824.193 599.539C848.293 646.564 828.338 688.641 828.338 688.641" stroke="#1D1D1B" stroke-width="2"/>
    <path d="M823.467 1087.75C823.467 1087.75 979.66 1159.01 1292.93 1016.11C1542.89 902.095 2005.79 636.82 2081.69 596.66C2157.59 556.499 2645.73 269.428 2645.73 269.428" stroke="#1D1D1B" stroke-width="2"/>
    <path fill-rule="evenodd" clip-rule="evenodd" d="M2647.22 868.362C2647.22 874.523 2642.22 879.518 2636.06 879.518C2629.89 879.518 2624.89 874.523 2624.89 868.362C2624.89 862.202 2629.89 857.207 2636.06 857.207C2642.22 857.207 2647.22 862.202 2647.22 868.362" fill="#1D1D1B"/>
    <path fill-rule="evenodd" clip-rule="evenodd" d="M2416.16 170.267C2416.16 174.541 2412.69 178.007 2408.41 178.007C2404.14 178.007 2400.67 174.541 2400.67 170.267C2400.67 165.994 2404.14 162.527 2408.41 162.527C2412.69 162.527 2416.16 165.994 2416.16 170.267" fill="#1D1D1B"/>
    <path fill-rule="evenodd" clip-rule="evenodd" d="M2574.54 108.788C2574.54 114.949 2569.55 119.944 2563.38 119.944C2557.22 119.944 2552.22 114.949 2552.22 108.788C2552.22 102.627 2557.22 97.6328 2563.38 97.6328C2569.55 97.6328 2574.54 102.627 2574.54 108.788" fill="#1D1D1B"/>
    <path fill-rule="evenodd" clip-rule="evenodd" d="M2357.01 289.261C2357.01 295.422 2352.02 300.416 2345.85 300.416C2339.69 300.416 2334.69 295.422 2334.69 289.261C2334.69 283.1 2339.69 278.105 2345.85 278.105C2352.02 278.105 2357.01 283.1 2357.01 289.261" fill="#1D1D1B"/>
    <path fill-rule="evenodd" clip-rule="evenodd" d="M1996.42 1146.01C1996.42 1152.17 1991.42 1157.16 1985.26 1157.16C1979.09 1157.16 1974.09 1152.17 1974.09 1146.01C1974.09 1139.85 1979.09 1134.85 1985.26 1134.85C1991.42 1134.85 1996.42 1139.85 1996.42 1146.01" fill="#1D1D1B"/>
    <path fill-rule="evenodd" clip-rule="evenodd" d="M2732.97 483.851C2732.97 496.8 2722.47 507.297 2709.51 507.297C2696.56 507.297 2686.05 496.8 2686.05 483.851C2686.05 470.901 2696.56 460.404 2709.51 460.404C2722.47 460.404 2732.97 470.901 2732.97 483.851" fill="#1D1D1B"/>
    <path fill-rule="evenodd" clip-rule="evenodd" d="M1901.42 920.398C1901.42 933.41 1890.87 943.958 1877.85 943.958C1864.83 943.958 1854.28 933.41 1854.28 920.398C1854.28 907.387 1864.83 896.838 1877.85 896.838C1890.87 896.838 1901.42 907.387 1901.42 920.398" fill="#1D1D1B"/>
    <path fill-rule="evenodd" clip-rule="evenodd" d="M727.853 1150.12C727.853 1156.28 722.856 1161.27 716.691 1161.27C710.527 1161.27 705.529 1156.28 705.529 1150.12C705.529 1143.96 710.527 1138.96 716.691 1138.96C722.856 1138.96 727.853 1143.96 727.853 1150.12" fill="#1D1D1B"/>
    <path fill-rule="evenodd" clip-rule="evenodd" d="M1288.88 957.547C1288.88 961.758 1285.47 965.172 1281.25 965.172C1277.04 965.172 1273.62 961.758 1273.62 957.547C1273.62 953.336 1277.04 949.922 1281.25 949.922C1285.47 949.922 1288.88 953.336 1288.88 957.547" fill="#1D1D1B"/>
    <path fill-rule="evenodd" clip-rule="evenodd" d="M580.493 896.845C580.493 903.006 575.496 908 569.332 908C563.167 908 558.17 903.006 558.17 896.845C558.17 890.684 563.167 885.689 569.332 885.689C575.496 885.689 580.493 890.684 580.493 896.845" fill="#1D1D1B"/>
    <path fill-rule="evenodd" clip-rule="evenodd" d="M821.78 670.203C821.78 675.072 817.83 679.02 812.957 679.02C808.085 679.02 804.135 675.072 804.135 670.203C804.135 665.333 808.085 661.385 812.957 661.385C817.83 661.385 821.78 665.333 821.78 670.203" fill="#1D1D1B"/>
    <path fill-rule="evenodd" clip-rule="evenodd" d="M1695.33 229.458C1695.33 234.328 1691.38 238.276 1686.51 238.276C1681.63 238.276 1677.68 234.328 1677.68 229.458C1677.68 224.589 1681.63 220.641 1686.51 220.641C1691.38 220.641 1695.33 224.589 1695.33 229.458" fill="#1D1D1B"/>
    <path d="M2190.33 568.399L2557.74 375.658" stroke="#1D1D1B" stroke-width="2"/>
    <path d="M984.754 1009.69C984.754 1009.69 1088.32 1040.24 1230.43 977.439" stroke="#1D1D1B" stroke-width="2"/>
    <path fill-rule="evenodd" clip-rule="evenodd" d="M1108.8 216.147C1113.78 224.394 1111.13 235.114 1102.88 240.09C1094.63 245.067 1083.91 242.418 1078.93 234.172C1073.95 225.925 1076.6 215.205 1084.85 210.228C1093.1 205.251 1103.82 207.901 1108.8 216.147Z" stroke="#1D1D1B" stroke-width="2"/>
    <mask id="mask0" mask-type="alpha" maskUnits="userSpaceOnUse" x="1076" y="207" width="36" height="36">
      <path fill-rule="evenodd" clip-rule="evenodd" d="M1084.85 210.228C1076.6 215.206 1073.95 225.925 1078.93 234.172V234.172C1083.91 242.418 1094.63 245.068 1102.88 240.09V240.09C1111.13 235.114 1113.78 224.394 1108.8 216.148V216.148C1105.53 210.72 1099.76 207.717 1093.85 207.717V207.717C1090.78 207.718 1087.67 208.527 1084.85 210.228V210.228Z" fill="white"/>
    </mask>
    <g mask="url(#mask0)">
      <path fill-rule="evenodd" clip-rule="evenodd" d="M1108.86 251.21L1082.58 267.062L1051.95 216.332L1078.23 200.48L1108.86 251.21Z" fill="#1D1D1B"/>
    </g>
    <path fill-rule="evenodd" clip-rule="evenodd" d="M1074.63 225.074L1056.73 265.108C1053.21 273.723 1061.88 282.282 1070.46 278.656L1083.27 272.806" fill="white"/>
    <path d="M1074.63 225.074L1056.73 265.108C1053.21 273.723 1061.88 282.282 1070.46 278.656L1083.27 272.806" stroke="#1D1D1B" stroke-width="2"/>
    <path d="M2359.99 510.391L2761.81 346.775" stroke="#1D1D1B" stroke-width="2"/>
    <path fill-rule="evenodd" clip-rule="evenodd" d="M1980.64 395.957L1980 454.86L2004.48 477.264L2005.07 421.249L1980.64 395.957Z" fill="black"/>
    <path d="M1207.24 319.441L1226.15 362.804L1170.32 336.5L1092.96 381.136" stroke="#1D1D1B" stroke-width="2"/>
    <path d="M1170.32 336.5C1170.32 336.5 1117.34 379.546 1151.98 475.192C1182.28 558.887 1264.03 590.469 1264.03 590.469" stroke="#1D1D1B" stroke-width="2"/>
    <path d="M560.842 1018.82L601.606 1018.94L593.535 991.978L640.421 997.929L632.762 964.373L684.089 973.682L674.984 941.417L733.416 951.861L711.467 925.459C711.467 925.459 669.122 927.848 645.054 913.662C632.713 906.388 626.027 893.61 632.404 883.132C637.977 873.973 650.102 871.447 662.333 878.198C685.333 890.893 711.085 924.456 711.085 924.456C711.085 924.456 691.029 887.758 693.189 858.461C694.234 844.284 703.269 832.486 717.256 833.79C730.939 835.066 737.003 847.668 735.152 863.087C731.999 889.348 710.777 925.381 710.777 925.381" stroke="#1D1D1B" stroke-width="2"/>
    <path d="M1434.63 587.928L857.898 896.115" stroke="white" stroke-width="2"/>
    <path d="M1881.92 529.436L1305.19 837.622" stroke="white" stroke-width="2"/>
    <path d="M1093.49 296.615L1139.56 270.744" stroke="#1D1D1B" stroke-width="2"/>
    <path d="M2019.18 519.132C2019.18 519.132 2001.07 555.627 2003.76 581.298C2006.09 603.525 2019.82 605.263 2026.51 604.279C2034.83 603.058 2045.11 594.011 2041.44 571.03C2039.19 556.953 2021.51 519.132 2021.51 519.132C2021.51 519.132 2044.15 549.878 2052.93 559.836C2068.83 577.875 2088.91 578.378 2096.47 569.074C2104.04 559.77 2099.41 545.114 2082.02 534.832C2063.27 523.747 2021.13 519.443 2021.13 519.443C2021.13 519.443 2119.89 539.147 2165.7 487.66" stroke="#1D1D1B" stroke-width="2"/>
    <path d="M702.789 926.485C702.789 926.485 631.282 918.759 597.654 969.367" stroke="#1D1D1B" stroke-width="2"/>
    <path d="M2307.41 86.9715C2307.41 86.9715 2454.25 51.2731 2489.96 140.519C2516.3 206.321 2480.04 281.328 2404.64 350.74C2330.78 418.734 2249.86 455.851 2249.86 455.851" stroke="#1D1D1B" stroke-width="2"/>
    <path d="M2571.32 17.5586C2571.32 17.5586 2638.79 39.3739 2638.79 116.72C2638.79 231.747 2476.07 324.959 2476.07 324.959" stroke="#1D1D1B" stroke-width="2"/>
    <path fill-rule="evenodd" clip-rule="evenodd" d="M667.441 717.028C665.988 718.639 664.251 720.044 662.251 721.161L608.116 751.401C598.313 756.877 585.924 753.374 580.444 743.575L494.038 589.063C488.558 579.264 492.063 566.882 501.867 561.406L556.002 531.165C565.806 525.688 578.194 529.192 583.674 538.99L659.445 674.484" fill="white"/>
    <path d="M667.441 717.028C665.988 718.639 664.251 720.044 662.251 721.161L608.116 751.401C598.313 756.877 585.924 753.374 580.444 743.575L494.038 589.063C488.558 579.264 492.063 566.882 501.867 561.406L556.002 531.165C565.806 525.688 578.194 529.192 583.674 538.99L659.445 674.484" stroke="#1D1D1B" stroke-width="2"/>
    <path fill-rule="evenodd" clip-rule="evenodd" d="M491.473 580.525L507.964 571.147C509.252 570.414 510.89 570.871 511.613 572.163C513.874 576.208 518.986 577.658 523.036 575.403L558.338 555.75C562.396 553.49 563.851 548.368 561.583 544.316L561.546 544.247C560.826 542.961 561.286 541.337 562.572 540.618L577.709 532.162" fill="white"/>
    <path d="M491.473 580.525L507.964 571.147C509.252 570.414 510.89 570.871 511.613 572.163C513.874 576.208 518.986 577.658 523.036 575.403L558.338 555.75C562.396 553.49 563.851 548.368 561.583 544.316L561.546 544.247C560.826 542.961 561.286 541.337 562.572 540.618L577.709 532.162" stroke="#1D1D1B" stroke-width="2"/>
    <path fill-rule="evenodd" clip-rule="evenodd" d="M580.551 744.897L635.638 714.332Z" fill="white"/>
    <path d="M580.551 744.897L635.638 714.332" stroke="#1D1D1B" stroke-width="2"/>
    <path fill-rule="evenodd" clip-rule="evenodd" d="M1940.54 180.176L2085.52 61.3538L2095.98 52.7693C2102.07 47.7778 2131.77 73.9136 2162.31 111.142C2192.86 148.373 2212.69 182.599 2206.6 187.59L2195.59 196.837L2050.62 315.659C2050.62 315.659 2011.93 309.674 1973.79 259.821C1935.65 209.967 1940.54 180.176 1940.54 180.176" fill="white"/>
    <path fill-rule="evenodd" clip-rule="evenodd" d="M1940.54 180.176L2085.52 61.3538L2095.98 52.7693C2102.07 47.7778 2131.77 73.9136 2162.31 111.142C2192.86 148.373 2212.69 182.599 2206.6 187.59L2195.59 196.837L2050.62 315.659C2050.62 315.659 2011.93 309.674 1973.79 259.821C1935.65 209.967 1940.54 180.176 1940.54 180.176Z" stroke="#1D1D1B" stroke-width="2"/>
    <path fill-rule="evenodd" clip-rule="evenodd" d="M1893.94 181.598C1891.13 171.74 1891.35 164.69 1895.15 161.572C1907.79 151.214 1955.25 188.168 2001.15 244.112C2047.05 300.056 2074.02 353.806 2061.38 364.165C2048.74 374.523 2001.29 337.569 1955.38 281.625C1935.67 257.596 1919.44 233.971 1908.35 214.016" fill="white"/>
    <path d="M1893.94 181.598C1891.13 171.74 1891.35 164.69 1895.15 161.572C1907.79 151.214 1955.25 188.168 2001.15 244.112C2047.05 300.056 2074.02 353.806 2061.38 364.165C2048.74 374.523 2001.29 337.569 1955.38 281.625C1935.67 257.596 1919.44 233.971 1908.35 214.016" stroke="#1D1D1B" stroke-width="2"/>
    <path fill-rule="evenodd" clip-rule="evenodd" d="M1989.55 253.619C2020.62 291.479 2040.75 326.313 2034.52 331.421C2028.28 336.529 1998.05 309.978 1966.98 272.117C1935.92 234.256 1915.79 199.423 1922.02 194.315C1928.25 189.208 1958.49 215.758 1989.55 253.619" fill="#1D1D1B"/>
    <path fill-rule="evenodd" clip-rule="evenodd" d="M1989.55 253.619C2020.62 291.479 2040.75 326.313 2034.52 331.421C2028.28 336.529 1998.05 309.978 1966.98 272.117C1935.92 234.256 1915.79 199.423 1922.02 194.315C1928.25 189.208 1958.49 215.758 1989.55 253.619Z" stroke="#1D1D1B" stroke-width="2"/>
    <path fill-rule="evenodd" clip-rule="evenodd" d="M1713.61 183.655C1693.23 145.738 1700.02 99.075 1712.75 67.6836C1728.59 28.6345 1755.48 -0.30171 1767.87 4.52688C1784.06 10.8394 1764.96 44.7769 1753.79 63.1732C1797.94 25.4918 1854.99 -1.77738 1865.41 20.038C1872.64 35.179 1847.73 46.8973 1823.53 59.1988C1807.23 67.4907 1770.9 83.3793 1770.9 83.3793C1770.9 83.3793 1849.39 58.786 1867.25 52.8368C1885.11 46.8868 1920.97 34.4164 1924.93 54.2494C1928.9 74.0817 1894.41 86.7735 1875.33 92.9216C1859.19 98.1203 1781.09 106.287 1781.09 106.287C1781.09 106.287 1830.32 98.2269 1880.29 106.309C1938.3 115.692 1982.97 146.468 1957.68 165.805C1937.74 181.043 1890.52 143.024 1848.78 141.211C1814.55 139.724 1790.31 157.627 1791.8 179.938C1793.39 203.73 1826.05 215.466 1857.96 205.966C1881.28 199.024 1895.17 172.251 1911.04 176.217C1926.92 180.184 1918.98 226.79 1863.92 241.664C1803.61 257.953 1742.58 237.57 1713.61 183.655" fill="white"/>
    <path fill-rule="evenodd" clip-rule="evenodd" d="M1713.61 183.655C1693.23 145.738 1700.02 99.075 1712.75 67.6836C1728.59 28.6345 1755.48 -0.30171 1767.87 4.52688C1784.06 10.8394 1764.96 44.7769 1753.79 63.1732C1797.94 25.4918 1854.99 -1.77738 1865.41 20.038C1872.64 35.179 1847.73 46.8973 1823.53 59.1988C1807.23 67.4907 1770.9 83.3793 1770.9 83.3793C1770.9 83.3793 1849.39 58.786 1867.25 52.8368C1885.11 46.8868 1920.97 34.4164 1924.93 54.2494C1928.9 74.0817 1894.41 86.7735 1875.33 92.9216C1859.19 98.1203 1781.09 106.287 1781.09 106.287C1781.09 106.287 1830.32 98.2269 1880.29 106.309C1938.3 115.692 1982.97 146.468 1957.68 165.805C1937.74 181.043 1890.52 143.024 1848.78 141.211C1814.55 139.724 1790.31 157.627 1791.8 179.938C1793.39 203.73 1826.05 215.466 1857.96 205.966C1881.28 199.024 1895.17 172.251 1911.04 176.217C1926.92 180.184 1918.98 226.79 1863.92 241.664C1803.61 257.953 1742.58 237.57 1713.61 183.655Z" stroke="#1D1D1B" stroke-width="2"/>
    <path fill-rule="evenodd" clip-rule="evenodd" d="M639.756 637.158C643.431 636.5 647.234 635.991 651.169 635.698C676.861 633.787 692.713 638.976 692.713 651.269C692.713 676.138 631.816 672.585 625.668 694.921C621.417 710.365 639.606 719.62 661.434 717.637C681.22 715.839 755.971 696.883 741.089 651.269C732.722 625.623 710.253 602.716 651.716 600.733C640.808 600.363 630.094 600.914 620.156 602.289" fill="white"/>
    <path d="M639.756 637.158C643.431 636.5 647.234 635.991 651.169 635.698C676.861 633.787 692.713 638.976 692.713 651.269C692.713 676.138 631.816 672.585 625.668 694.921C621.417 710.365 639.606 719.62 661.434 717.637C681.22 715.839 755.971 696.883 741.089 651.269C732.722 625.623 710.253 602.716 651.716 600.733C640.808 600.363 630.094 600.914 620.156 602.289" stroke="#1D1D1B" stroke-width="2"/>
    <path fill-rule="evenodd" clip-rule="evenodd" d="M-11.2461 946.7C-11.2461 946.7 25.9616 948.748 61.5614 940.174C113.747 927.606 189.074 883.825 222.939 869.373C241.593 861.414 251.862 860.576 255.642 867.619C259.102 874.065 252.91 883.896 242.012 891.996C183.69 935.34 79.7951 995.473 -10.7444 982.905L-11.2461 946.7Z" fill="#FFD3E8"/>
    <path fill-rule="evenodd" clip-rule="evenodd" d="M-10.9961 893.401C50.246 839.629 116.474 848.846 177.016 831.922C193.718 827.252 220.175 822.749 229.352 842.829C229.352 842.829 171.803 890.739 101.384 900.794C30.9647 910.849 -10.9518 928.444 -10.9518 928.444L-10.9961 893.401Z" fill="#EDE1D2"/>
    <path d="M92.4636 1112.16C92.4636 1112.16 56.7158 1142.63 72.8624 1175.13C89.3094 1208.31 165.386 1192.55 165.386 1192.55C105.08 1215.59 67.5303 1239.83 40.1186 1269.41C21.7942 1289.22 21.9444 1304.31 29.2291 1310.84C43.348 1323.45 71.3604 1302.43 96.2186 1284.79C116.496 1270.38 203.237 1213.86 234.103 1193.75C240.712 1189.47 243.941 1181.51 242.214 1173.86C240.561 1166.35 234.403 1160.65 226.818 1159.3C219.759 1158.09 212.324 1154.79 212.324 1146.46C212.324 1111.78 325.725 1110.43 319.041 1039.8C316.338 1011.65 287.199 975.249 198.956 994.764C101.025 1016.31 15.7861 1085.44 15.7861 1085.44C15.7861 1085.44 28.7785 1064.64 22.4701 1041.53C15.7861 1016.98 -0.585751 1008.05 -0.585751 1008.05C106.132 1009.1 187.616 954.607 218.482 928.862C253.704 899.514 281.191 879.623 274.206 856.805C269.55 841.492 250.925 834.137 222.087 844.87C149.765 871.967 68.4315 860.783 -11.25 921.806V1160.8C-11.25 1160.8 25.6994 1199.3 93.5901 1207.71C153.971 1215.14 193.474 1211.09 212.624 1211.09C241.162 1211.09 252.878 1237.06 288.1 1237.06C313.709 1237.06 346.453 1211.99 356.817 1193.52C356.817 1193.52 348.631 1175.28 327.453 1180.99C305.673 1186.84 300.041 1218.67 283.894 1215.36C259.562 1210.34 287.424 1187.37 259.562 1148.34C247.02 1130.77 207.592 1133.25 177.402 1136.63C147.212 1139.78 92.4636 1112.16 92.4636 1112.16Z" fill="#EDE1D3"/>
    <path d="M92.6837 1112.79C92.6837 1112.79 56.966 1143.29 73.0464 1175.74C89.4716 1208.89 165.607 1193.12 165.607 1193.12C105.334 1216.17 67.7399 1240.37 40.3478 1269.97C21.9932 1289.8 22.2035 1304.9 29.4342 1311.36C43.5718 1324.01 71.6008 1302.94 96.4042 1285.33C116.697 1270.93 203.396 1214.39 234.262 1194.3C240.86 1190 244.094 1182.07 242.386 1174.39C240.71 1166.85 234.594 1161.17 226.98 1159.85C219.937 1158.64 212.485 1155.37 212.485 1147C212.485 1112.3 325.865 1110.96 319.168 1040.31C316.501 1012.18 287.3 975.793 199.092 995.288C101.248 1016.91 16.04 1086.02 16.04 1086.02C16.04 1086.02 29.0422 1065.25 22.7375 1042.14C16.04 1017.6 -0.330343 1008.67 -0.330343 1008.67C106.414 1009.72 186.216 953.751 217.912 929.071C253.96 901.002 281.44 880.261 274.495 857.454C269.828 842.128 251.211 834.801 222.407 845.555C150.007 872.585 68.6891 861.413 -10.9961 922.405" stroke="#232323" stroke-width="2"/>
    <path d="M301.777 1007.68C301.777 1007.68 312.246 984.931 334.343 973.282C356.914 961.382 375.021 965.349 378.246 975.265C382.15 987.271 366.799 1000.44 366.799 1000.44C366.799 1000.44 387.423 992.619 388.663 1005.01C389.73 1015.67 373.037 1016.66 373.037 1016.66C373.037 1016.66 388.294 1020.3 385.687 1029.31C382.959 1038.73 369.813 1031.79 369.813 1031.79C369.813 1031.79 377.973 1045.84 367.332 1049.39C357.659 1052.61 352.202 1037.49 352.202 1037.49C352.202 1037.49 341.188 1048.24 319.709 1044.18" stroke="#232323" stroke-width="2"/>
    <path d="M217.61 1134.78C217.61 1134.78 245.226 1130.64 260.107 1147.01C284.217 1173.51 260.107 1209.48 283.919 1214.68C299.142 1218.01 302.132 1194.63 320.463 1183.03C333.527 1174.77 349.401 1178.98 357.586 1191.63C357.586 1191.63 322.613 1241.46 279.455 1236.99C246.888 1233.63 245.226 1210.22 209.508 1210.22" stroke="#232323" stroke-width="2"/>
    <path d="M42.903 1315.32L34.5 1297.32" stroke="#1D1D1B" stroke-width="2"/>
    <path d="M54.0045 1312.42L45.6016 1294.42" stroke="#1D1D1B" stroke-width="2"/>
    <path d="M64.2585 1307.13L55.8555 1289.13" stroke="#1D1D1B" stroke-width="2"/>
    <path d="M-10.9961 893.401C50.246 839.629 116.474 848.846 177.016 831.922C193.718 827.252 220.175 822.749 229.352 842.829" stroke="#1D1D1B" stroke-width="2"/>
    <path d="M124.679 1210.22C28.4483 1207.46 -10.9531 1160.54 -10.9531 1160.54" stroke="#232323" stroke-width="2"/>
    <path fill-rule="evenodd" clip-rule="evenodd" d="M-11.2461 946.7C-11.2461 946.7 25.9616 948.748 61.5614 940.174C113.747 927.606 189.074 883.825 222.939 869.373C241.593 861.414 251.862 860.576 255.642 867.619C259.102 874.065 252.91 883.896 242.012 891.996C183.69 935.34 79.7951 995.473 -10.7444 982.905" fill="#FBFBFB"/>
    <path d="M-11.2461 946.7C-11.2461 946.7 25.9616 948.748 61.5614 940.174C113.747 927.606 189.074 883.825 222.939 869.373C241.593 861.414 251.862 860.576 255.642 867.619C259.102 874.065 252.91 883.896 242.012 891.996C183.69 935.34 79.7951 995.473 -10.7444 982.905" stroke="#232323" stroke-width="2"/>
    <path d="M-11.2461 946.7C-11.2461 946.7 25.9616 948.748 61.5614 940.174C113.747 927.606 189.074 883.825 222.939 869.373C241.593 861.414 251.862 860.576 255.642 867.619C259.102 874.065 252.91 883.896 242.012 891.996C183.69 935.34 79.7951 995.473 -10.7444 982.905" stroke="#232323" stroke-width="2"/>
  </g>
  <defs>
    <clipPath id="clip0">
      <rect width="2880" height="1392" fill="white"/>
    </clipPath>
  </defs>
</svg>
