<svg width="672" height="664" viewBox="0 0 672 664" fill="none" xmlns="http://www.w3.org/2000/svg">
  <g clip-path="url(#clip0)">
    <g clip-path="url(#clip1)">
      <path d="M356.553 0C295.52 0 250.846 37.7492 188.134 67.3194C143.25 88.5009 69.8419 71.0944 39.8494 140.93C18.0366 191.892 66.9056 249.355 66.9056 308.285C66.9056 365.538 -25.1693 464.315 6.7108 559.527C30.4112 630.622 184.359 659.772 334.112 659.772C483.864 659.772 660.883 603.987 671.16 493.886C680.808 389.236 614.741 371.62 614.741 293.186C614.741 212.234 683.115 165.677 664.658 104.859C647.25 47.3962 558.531 74.8693 511.34 53.6878C464.149 32.5063 417.587 0 356.553 0Z" fill="#EADDCF"/>
      <path d="M231.551 195.247L164.435 290.459" stroke="#232323" stroke-width="2" stroke-miterlimit="10"/>
      <path d="M549.513 242.853V243.482C539.865 243.482 534.202 249.354 534.202 259.001H533.154C533.154 249.354 527.491 243.482 517.843 243.482V242.853C527.491 242.853 533.154 236.981 533.154 227.334H534.202C534.202 236.981 539.865 242.853 549.513 242.853Z" stroke="#232323" stroke-width="2" stroke-miterlimit="10"/>
      <path d="M268.674 296.541V296.96C262.172 296.96 258.397 300.945 258.397 307.236H257.767C257.767 300.735 253.992 296.96 247.49 296.96V296.541C253.782 296.541 257.767 292.556 257.767 286.265H258.397C258.397 292.556 262.172 296.541 268.674 296.541Z" stroke="#232323" stroke-width="2" stroke-miterlimit="10"/>
      <path d="M61.6628 502.065V502.694C53.4831 502.694 48.6591 507.727 48.6591 515.906H47.8201C47.8201 507.727 42.9962 502.694 34.8164 502.694V502.065C42.9962 502.065 47.8201 497.032 47.8201 488.853H48.6591C48.4494 497.032 53.2733 502.065 61.6628 502.065Z" stroke="#232323" stroke-width="2" stroke-miterlimit="10"/>
      <path d="M600.319 139.043C600.319 140.923 598.795 142.447 596.914 142.447C595.034 142.447 593.51 140.923 593.51 139.043C593.51 137.163 595.034 135.639 596.914 135.639C598.795 135.639 600.319 137.163 600.319 139.043Z" fill="#232323" stroke="#232323" stroke-width="2"/>
      <path d="M403.164 322.756C403.164 324.636 401.64 326.16 399.76 326.16C397.88 326.16 396.355 324.636 396.355 322.756C396.355 320.876 397.88 319.352 399.76 319.352C401.64 319.352 403.164 320.876 403.164 322.756Z" fill="#232323" stroke="#232323" stroke-width="2"/>
      <path d="M634.086 486.756C634.086 488.636 632.562 490.16 630.682 490.16C628.801 490.16 627.277 488.636 627.277 486.756C627.277 484.876 628.802 483.352 630.682 483.352C632.562 483.352 634.086 484.876 634.086 486.756Z" fill="#232323" stroke="#232323" stroke-width="2"/>
      <path d="M122.955 226.705C122.955 228.585 121.431 230.109 119.551 230.109C117.671 230.109 116.146 228.585 116.146 226.705C116.146 224.825 117.671 223.301 119.551 223.301C121.431 223.301 122.955 224.825 122.955 226.705Z" fill="#232323" stroke="#232323" stroke-width="2"/>
      <path d="M578.365 662.85H114.474C100.346 662.85 89 651.506 89 637.378V389.508C89 375.381 100.346 364.036 114.474 364.036H578.365C592.494 364.036 603.84 375.381 603.84 389.508V637.378C603.84 651.506 592.494 662.85 578.365 662.85Z" fill="white" stroke="#232323" stroke-width="2" stroke-miterlimit="10"/>
      <path d="M343.53 364.677V662.207L121.966 635.451C112.119 634.166 104.841 625.819 104.841 615.972V353.119C104.841 341.132 115.33 332.142 127.104 333.64L343.53 364.677Z" fill="white" stroke="#232323" stroke-width="2" stroke-miterlimit="10"/>
      <path d="M343.53 364.677V662.635L564.879 635.451C574.727 634.166 582.005 625.819 582.005 615.972V353.119C582.005 341.132 571.516 332.142 559.742 333.64L343.53 364.677Z" fill="white" stroke="#232323" stroke-width="2" stroke-miterlimit="10"/>
      <path d="M343.531 364.678L155.577 317.373C148.084 315.447 140.806 321.226 140.806 328.932V603.772C140.806 609.338 144.445 614.047 149.797 615.331L343.531 662.422" fill="white"/>
      <path d="M343.531 364.678L155.577 317.373C148.084 315.447 140.806 321.226 140.806 328.932V603.772C140.806 609.338 144.445 614.047 149.797 615.331L343.531 662.422" stroke="#232323" stroke-width="2" stroke-miterlimit="10"/>
      <path d="M343.316 364.678L531.27 317.373C538.763 315.447 546.041 321.226 546.041 328.932V603.772C546.041 609.338 542.402 614.047 537.05 615.331L343.316 662.422" fill="white"/>
      <path d="M343.316 364.678L531.27 317.373C538.763 315.447 546.041 321.226 546.041 328.932V603.772C546.041 609.338 542.402 614.047 537.05 615.331L343.316 662.422" stroke="#232323" stroke-width="2" stroke-miterlimit="10"/>
      <path d="M459.771 605.699L381.207 625.819V568.24L459.771 548.119V605.699Z" stroke="#232323" stroke-width="2" stroke-miterlimit="10"/>
      <path d="M383.348 537.202V384.37" stroke="#232323" stroke-width="2" stroke-miterlimit="10"/>
      <path d="M411.819 526.499V373.667" stroke="#232323" stroke-width="2" stroke-miterlimit="10"/>
      <path d="M443.501 519.651V366.819" stroke="#232323" stroke-width="2" stroke-miterlimit="10"/>
      <path d="M414.174 600.348C423.159 600.348 430.443 593.448 430.443 584.936C430.443 576.424 423.159 569.524 414.174 569.524C405.188 569.524 397.904 576.424 397.904 584.936C397.904 593.448 405.188 600.348 414.174 600.348Z" stroke="#232323" stroke-width="2" stroke-miterlimit="10"/>
      <path d="M459.77 548.119C459.77 548.119 431.085 559.25 431.085 581.939C431.085 602.488 459.77 605.913 459.77 605.913" stroke="#232323" stroke-width="2" stroke-miterlimit="10"/>
      <path d="M497.661 326.362V625.39" stroke="#232323" stroke-width="2" stroke-miterlimit="10"/>
      <path d="M190.256 326.362V625.39" stroke="#232323" stroke-width="2" stroke-miterlimit="10"/>
      <path d="M210.379 495.034C232.842 495.034 251.052 476.826 251.052 454.365C251.052 431.904 232.842 413.695 210.379 413.695C187.915 413.695 169.705 431.904 169.705 454.365C169.705 476.826 187.915 495.034 210.379 495.034Z" stroke="#232323" stroke-width="2" stroke-miterlimit="10"/>
      <path d="M210.378 488.613C229.295 488.613 244.63 473.28 244.63 454.365C244.63 435.451 229.295 420.117 210.378 420.117C191.462 420.117 176.127 435.451 176.127 454.365C176.127 473.28 191.462 488.613 210.378 488.613Z" stroke="#232323" stroke-width="2" stroke-miterlimit="10"/>
      <path d="M279.683 523.952L231.046 569.101L276.199 617.733L324.835 572.584L279.683 523.952Z" stroke="#232323" stroke-width="2" stroke-miterlimit="10"/>
      <path d="M279.368 532.424L239.518 569.416L276.514 609.263L316.364 572.27L279.368 532.424Z" stroke="#232323" stroke-width="2" stroke-miterlimit="10"/>
      <path d="M547.206 15.4189C547.206 129.296 454.921 221.572 341.034 221.572C227.146 221.572 134.861 129.296 134.861 15.4189" stroke="#232323" stroke-width="2" stroke-miterlimit="10"/>
      <path d="M662.143 15H19.7158" stroke="#232323" stroke-width="2" stroke-miterlimit="10"/>
      <path d="M308.944 156.141C318.442 156.141 326.142 148.442 326.142 138.944C326.142 129.446 318.442 121.747 308.944 121.747C299.445 121.747 291.745 129.446 291.745 138.944C291.745 148.442 299.445 156.141 308.944 156.141Z" stroke="#232323" stroke-width="2" stroke-miterlimit="10"/>
      <mask id="mask0" mask-type="alpha" maskUnits="userSpaceOnUse" x="290" y="120" width="38" height="38">
        <path d="M308.944 156.141C318.442 156.141 326.142 148.442 326.142 138.944C326.142 129.446 318.442 121.747 308.944 121.747C299.445 121.747 291.745 129.446 291.745 138.944C291.745 148.442 299.445 156.141 308.944 156.141Z" fill="#232323" stroke="#232323" stroke-width="2" stroke-miterlimit="10"/>
      </mask>
      <g mask="url(#mask0)">
        <path d="M337.44 168.108L281.15 169.499L280.453 141.308L336.743 139.917L337.44 168.108Z" fill="#232323" stroke="#232323" stroke-width="2"/>
      </g>
      <path d="M372.913 155.721C382.412 155.721 390.112 148.022 390.112 138.524C390.112 129.026 382.412 121.327 372.913 121.327C363.415 121.327 355.715 129.026 355.715 138.524C355.715 148.022 363.415 155.721 372.913 155.721Z" stroke="#232323" stroke-width="2" stroke-miterlimit="10"/>
      <mask id="mask1" mask-type="alpha" maskUnits="userSpaceOnUse" x="354" y="120" width="38" height="37">
        <path d="M372.913 155.721C382.412 155.721 390.112 148.022 390.112 138.524C390.112 129.026 382.412 121.327 372.913 121.327C363.415 121.327 355.715 129.026 355.715 138.524C355.715 148.022 363.415 155.721 372.913 155.721Z" fill="#232323" stroke="#232323" stroke-width="2" stroke-miterlimit="10"/>
      </mask>
      <g mask="url(#mask1)">
        <path d="M401.293 167.67L345.002 169.061L344.306 140.87L400.596 139.479L401.293 167.67Z" fill="#232323" stroke="#232323" stroke-width="2"/>
      </g>
      <path d="M306.637 177.741C306.637 177.741 319.64 186.13 342.712 186.13C369.558 186.13 378.996 177.531 378.996 177.531" stroke="#232323" stroke-width="2" stroke-miterlimit="10"/>
      <path d="M340.194 220.523V349.919" stroke="#232323" stroke-width="2" stroke-miterlimit="10"/>
      <path d="M162.966 120.698L66.2773 178.79" stroke="#232323" stroke-width="2" stroke-miterlimit="10"/>
      <path d="M431.012 201.02L477.154 287.423" stroke="#232323" stroke-width="2" stroke-miterlimit="10"/>
      <path d="M509.873 131.184L588.734 187.598" stroke="#232323" stroke-width="2" stroke-miterlimit="10"/>
      <path d="M541.753 63.2344L642.217 85.045" stroke="#232323" stroke-width="2" stroke-miterlimit="10"/>
      <path d="M139.685 59.04L33.5576 85.0451" stroke="#232323" stroke-width="2" stroke-miterlimit="10"/>
      <path d="M78.4421 252.61L23.0713 302.104" stroke="#232323" stroke-width="2" stroke-miterlimit="10"/>
      <path d="M588.734 267.92L643.895 327.899" stroke="#232323" stroke-width="2" stroke-miterlimit="10"/>
      <path d="M614.531 157.398L662.771 190.324" stroke="#232323" stroke-width="2" stroke-miterlimit="10"/>
      <path d="M432.27 302.104L467.505 384.313" stroke="#232323" stroke-width="2" stroke-miterlimit="10"/>
      <path d="M293.633 322.027L266.577 405.495" stroke="#232323" stroke-width="2" stroke-miterlimit="10"/>
      <path d="M285.243 102.872C285.243 102.872 297.618 91.1279 311.88 91.1279" stroke="#232323" stroke-width="2" stroke-miterlimit="10"/>
      <path d="M393.049 102.872C393.049 102.872 380.674 91.1279 366.412 91.1279" stroke="#232323" stroke-width="2" stroke-miterlimit="10"/>
      <path d="M174.082 35.3428C174.082 35.3428 183.73 94.9026 219.805 126.78" stroke="#232323" stroke-width="2" stroke-miterlimit="10"/>
      <path d="M507.985 35.3428C507.985 35.3428 512.18 71.4142 480.3 106.647" stroke="#232323" stroke-width="2" stroke-miterlimit="10"/>
    </g>
  </g>
  <defs>
    <clipPath id="clip0">
      <rect width="672" height="664" fill="white"/>
    </clipPath>
    <clipPath id="clip1">
      <rect width="672.122" height="663.85" fill="white" transform="translate(0.000976562)"/>
    </clipPath>
  </defs>
</svg>
