<svg width="672" height="664" viewBox="0 0 672 664" fill="none" xmlns="http://www.w3.org/2000/svg">
  <path d="M355.758 0C275.286 0 259.645 70.0747 185.759 144.271C136.365 193.53 3 217.438 3 337.801C3 448.478 109.198 487.638 158.18 531.95C216.013 584.506 254.088 662 323.857 662C393.627 662 421.411 603.879 483.771 581.414C545.72 559.155 594.367 581.826 634.5 531.95C671.34 486.401 650.477 403.96 650.477 340.687C650.477 265.872 680.525 214.552 648.625 159.111C611.991 95.8375 562.185 92.1276 519.788 78.5249C449.813 56.2659 433.348 0 355.758 0Z" fill="#232323"/>
  <path d="M421.617 136.439C425.254 136.439 428.203 133.486 428.203 129.843C428.203 126.201 425.254 123.248 421.617 123.248C417.98 123.248 415.031 126.201 415.031 129.843C415.031 133.486 417.98 136.439 421.617 136.439Z" stroke="white" stroke-width="2" stroke-miterlimit="10"/>
  <path d="M69.0652 289.574C70.9975 289.574 72.5639 288.005 72.5639 286.07C72.5639 284.135 70.9975 282.566 69.0652 282.566C67.1329 282.566 65.5664 284.135 65.5664 286.07C65.5664 288.005 67.1329 289.574 69.0652 289.574Z" fill="white"/>
  <path d="M388.481 49.6715C390.414 49.6715 391.98 48.1029 391.98 46.1678C391.98 44.2327 390.414 42.6641 388.481 42.6641C386.549 42.6641 384.982 44.2327 384.982 46.1678C384.982 48.1029 386.549 49.6715 388.481 49.6715Z" fill="white"/>
  <path d="M581.531 324.61V334.503C440.551 334.503 358.227 420.035 358.227 560.597H344.232C344.232 419.417 259.85 334.503 120.105 334.503V324.61C259.85 324.61 344.232 239.077 344.232 98.5156H358.227C358.227 238.871 440.551 324.61 581.531 324.61Z" fill="#FBFBFB"/>
  <path d="M613.02 483.514V484.545C598.201 484.545 589.557 493.613 589.557 508.247H588.117C588.117 493.407 579.267 484.545 564.654 484.545V483.514C579.267 483.514 588.117 474.446 588.117 459.812H589.557C589.557 474.446 598.201 483.514 613.02 483.514Z" fill="#FBFBFB"/>
  <path d="M535.43 48.4327C539.067 48.4327 542.016 45.4799 542.016 41.8375C542.016 38.195 539.067 35.2422 535.43 35.2422C531.792 35.2422 528.844 38.195 528.844 41.8375C528.844 45.4799 531.792 48.4327 535.43 48.4327Z" fill="#232323"/>
  <path d="M68.0361 569.047C73.0374 569.047 77.0917 564.987 77.0917 559.979C77.0917 554.97 73.0374 550.91 68.0361 550.91C63.0348 550.91 58.9805 554.97 58.9805 559.979C58.9805 564.987 63.0348 569.047 68.0361 569.047Z" fill="#232323"/>
  <path d="M629.073 40.6012C631.005 40.6012 632.572 39.0325 632.572 37.0975C632.572 35.1624 631.005 33.5938 629.073 33.5938C627.141 33.5938 625.574 35.1624 625.574 37.0975C625.574 39.0325 627.141 40.6012 629.073 40.6012Z" fill="#232323"/>
  <path d="M130.19 603.055C132.122 603.055 133.689 601.486 133.689 599.551C133.689 597.616 132.122 596.047 130.19 596.047C128.258 596.047 126.691 597.616 126.691 599.551C126.691 601.486 128.258 603.055 130.19 603.055Z" fill="#232323"/>
  <path d="M132.454 71.9283V73.5771C109.815 73.5771 96.6429 87.3859 96.6429 109.851H94.379C94.379 87.1798 80.7956 73.5771 58.3623 73.5771V71.9283C80.7956 71.9283 94.379 58.1194 94.379 35.6543H96.6429C96.6429 58.1194 109.815 71.9283 132.454 71.9283Z" fill="#232323"/>
  <path d="M552.306 617.275V617.893C542.633 617.893 536.87 623.87 536.87 633.557H535.841C535.841 623.87 530.078 617.893 520.405 617.893V617.275C530.078 617.275 535.841 611.298 535.841 601.611H536.87C536.87 611.298 542.633 617.275 552.306 617.275Z" fill="#232323"/>
  <path d="M344.439 197.859L315.214 278.239L328.592 273.499L339.911 286.071L349.378 199.096" fill="#1F1F1F"/>
  <path d="M344.439 197.859L315.214 278.239L328.592 273.499L339.911 286.071L349.378 199.096" stroke="white" stroke-width="2" stroke-miterlimit="10"/>
  <path d="M457.839 488.875C452.282 510.516 464.63 531.744 488.299 535.248C507.027 538.134 529.46 520.821 529.46 520.821L515.465 499.386C515.465 499.386 502.705 513.813 489.328 510.31C475.332 506.6 479.449 488.463 479.449 488.463" fill="#232323"/>
  <path d="M457.839 488.875C452.282 510.516 464.63 531.744 488.299 535.248C507.027 538.134 529.46 520.821 529.46 520.821L515.465 499.386C515.465 499.386 502.705 513.813 489.328 510.31C475.332 506.6 479.449 488.463 479.449 488.463" stroke="#FBFBFB" stroke-width="2" stroke-miterlimit="10"/>
  <path d="M495.297 167.563L551.071 120.984" stroke="#FBFBFB" stroke-width="2" stroke-miterlimit="10"/>
  <path d="M531.313 237.638L617.136 213.73" stroke="#FBFBFB" stroke-width="2" stroke-miterlimit="10"/>
  <path d="M304.923 514.224L356.169 359.648C359.874 348.724 350.201 338.007 339.087 340.48L182.466 375.312" fill="#232323"/>
  <path d="M304.923 514.224L356.169 359.648C359.874 348.724 350.201 338.007 339.087 340.48L182.466 375.312" stroke="#FBFBFB" stroke-width="2" stroke-miterlimit="10"/>
  <path d="M319.535 470.326C319.535 470.326 316.036 439.204 287.017 406.228C257.381 372.84 226.921 365.832 226.921 365.832" fill="#232323"/>
  <path d="M319.535 470.326C319.535 470.326 316.036 439.204 287.017 406.228C257.381 372.84 226.921 365.832 226.921 365.832" stroke="#FBFBFB" stroke-width="2" stroke-miterlimit="10"/>
  <path d="M332.707 431.579C328.179 419.831 320.976 403.755 307.187 388.091C292.78 372.015 277.344 362.741 266.23 356.764" fill="#232323"/>
  <path d="M332.707 431.579C328.179 419.831 320.976 403.755 307.187 388.091C292.78 372.015 277.344 362.741 266.23 356.764" stroke="#FBFBFB" stroke-width="2" stroke-miterlimit="10"/>
  <path d="M344.026 397.161C342.174 389.947 335.794 378.405 328.179 369.543C319.535 359.856 309.039 351.818 300.601 348.727" fill="#232323"/>
  <path d="M344.026 397.161C342.174 389.947 335.794 378.405 328.179 369.543C319.535 359.856 309.039 351.818 300.601 348.727" stroke="#FBFBFB" stroke-width="2" stroke-miterlimit="10"/>
  <path d="M343.821 169.829C343.821 169.829 328.797 126.342 288.253 119.747C254.706 114.388 244.004 135.41 244.004 145.922C244.004 169.829 257.999 170.654 254.911 186.318C252.442 198.684 229.391 212.699 231.449 232.691C233.507 254.125 255.941 260.927 281.667 250.209C325.298 232.072 344.439 197.653 344.439 197.653" fill="#232323"/>
  <path d="M343.821 169.829C343.821 169.829 328.797 126.342 288.253 119.747C254.706 114.388 244.004 135.41 244.004 145.922C244.004 169.829 257.999 170.654 254.911 186.318C252.442 198.684 229.391 212.699 231.449 232.691C233.507 254.125 255.941 260.927 281.667 250.209C325.298 232.072 344.439 197.653 344.439 197.653" stroke="#FBFBFB" stroke-width="2" stroke-miterlimit="10"/>
  <path d="M361.109 194.973C361.109 194.973 383.542 235.369 424.293 234.751C458.251 234.339 465.249 211.668 463.396 201.362C459.28 177.867 455.37 174.775 455.576 158.699C455.781 146.127 466.278 133.143 460.927 113.769C455.164 92.9528 431.908 90.0673 408.445 105.113C368.518 130.463 355.141 169.211 355.141 169.211" fill="#232323"/>
  <path d="M361.109 194.973C361.109 194.973 383.542 235.369 424.293 234.751C458.251 234.339 465.249 211.668 463.396 201.362C459.28 177.867 455.37 174.775 455.576 158.699C455.781 146.127 466.278 133.143 460.927 113.769C455.164 92.9528 431.908 90.0673 408.445 105.113C368.518 130.463 355.141 169.211 355.141 169.211" stroke="#FBFBFB" stroke-width="2" stroke-miterlimit="10"/>
  <path d="M349.378 198.479C349.378 198.479 338.676 262.164 378.809 282.98C418.941 303.797 473.069 273.294 473.069 273.294L450.225 263.607L461.956 244.852C461.956 244.852 420.588 270.202 391.363 257.836C360.286 244.645 355.964 198.066 355.964 198.066" fill="#232323"/>
  <path d="M349.378 198.479C349.378 198.479 338.676 262.164 378.809 282.98C418.941 303.797 473.069 273.294 473.069 273.294L450.225 263.607L461.956 244.852C461.956 244.852 420.588 270.202 391.363 257.836C360.286 244.645 355.964 198.066 355.964 198.066" stroke="#FBFBFB" stroke-width="2" stroke-miterlimit="10"/>
  <path d="M350.407 198.683C358.705 198.683 365.431 191.947 365.431 183.637C365.431 175.328 358.705 168.592 350.407 168.592C342.109 168.592 335.383 175.328 335.383 183.637C335.383 191.947 342.109 198.683 350.407 198.683Z" fill="#232323" stroke="#FBFBFB" stroke-width="2" stroke-miterlimit="10"/>
  <path d="M524.635 398.202L511.842 386.865L500.521 399.676L513.314 411.013L524.635 398.202Z" stroke="#FBFBFB" stroke-width="2" stroke-miterlimit="10"/>
  <path d="M202.611 179.401L192.242 189.418L202.245 199.801L212.613 189.784L202.611 179.401Z" stroke="#FBFBFB" stroke-width="2" stroke-miterlimit="10"/>
  <path d="M338.676 193.324C338.676 193.324 313.567 201.362 289.487 219.293C264.378 238.048 254.088 254.33 254.088 254.33" stroke="#FBFBFB" stroke-width="2" stroke-miterlimit="10"/>
  <path d="M361.521 173.127C361.521 173.127 384.571 158.082 405.152 136.441C426.762 113.77 435.2 96.457 435.2 96.457" stroke="#FBFBFB" stroke-width="2" stroke-miterlimit="10"/>
  <path d="M294.07 587.345L287.434 596.271L296.348 602.917L302.984 593.99L294.07 587.345Z" stroke="#FBFBFB" stroke-width="2" stroke-miterlimit="10"/>
  <path d="M101.171 410.765C104.808 410.765 107.757 407.812 107.757 404.17C107.757 400.527 104.808 397.574 101.171 397.574C97.5336 397.574 94.585 400.527 94.585 404.17C94.585 407.812 97.5336 410.765 101.171 410.765Z" stroke="#FBFBFB" stroke-width="2" stroke-miterlimit="10"/>
  <path d="M463.19 466.823C464.219 463.113 465.66 460.021 467.718 457.548C470.805 453.426 475.95 451.571 480.684 452.808C488.093 454.869 493.65 463.319 490.768 474.036C487.681 485.99 477.802 493.616 462.573 489.7C450.841 486.609 422.851 467.235 431.495 434.877C435.406 419.831 446.519 409.732 446.519 409.732L464.013 422.923C464.013 422.923 450.636 432.198 451.047 445.8C451.253 460.64 466.483 473.212 474.921 469.502C484.183 465.38 479.861 455.075 475.127 453.014" stroke="#FBFBFB" stroke-width="2" stroke-miterlimit="10"/>
  <path d="M298.256 524.988C316.528 508.736 302.703 463.271 267.376 423.441C232.049 383.61 188.598 364.496 170.325 380.748C152.053 397.001 165.879 442.465 201.206 482.296C236.533 522.127 279.984 541.241 298.256 524.988Z" stroke="#FBFBFB" stroke-width="2" stroke-miterlimit="10"/>
  <path d="M169.294 507.837L253.058 437.969" stroke="#FBFBFB" stroke-width="2" stroke-miterlimit="10"/>
  <path d="M93.9678 453.84L187.405 424.367" stroke="#FBFBFB" stroke-width="2" stroke-miterlimit="10"/>
  <path d="M244.003 563.897L254.499 486.402" stroke="#FBFBFB" stroke-width="2" stroke-miterlimit="10"/>
  <path d="M154.682 7.83203L196.255 82.441" stroke="#232323" stroke-width="2" stroke-miterlimit="10"/>
  <path d="M37.3701 127.783L82.6482 161.996" stroke="#232323" stroke-width="2" stroke-miterlimit="10"/>
  <path d="M23.375 179.723L62.4788 189.822" stroke="#232323" stroke-width="2" stroke-miterlimit="10"/>
  <path d="M126.898 548.438L38.6055 633.146" stroke="#232323" stroke-width="2" stroke-miterlimit="10"/>
  <path d="M167.236 588.834L157.151 635.619" stroke="#232323" stroke-width="2" stroke-miterlimit="10"/>
</svg>
