<svg width="1440" height="766" viewBox="0 0 1440 766" fill="none" xmlns="http://www.w3.org/2000/svg">
  <g clip-path="url(#clip0)">
    <path d="M1133.27 341.72C1113.8 341.72 1098.07 357.457 1098.07 376.829C1098.07 396.201 1113.85 411.939 1133.27 411.939C1152.73 411.939 1168.46 396.201 1168.46 376.829C1168.46 357.457 1152.69 341.72 1133.27 341.72ZM1133.27 402.372C1119.12 402.372 1107.66 390.94 1107.66 376.829C1107.66 362.718 1119.12 351.286 1133.27 351.286C1147.41 351.286 1158.87 362.718 1158.87 376.829C1158.82 390.94 1147.36 402.372 1133.27 402.372Z" fill="#FBFBFB"/>
    <path d="M737.694 341.72C727.769 341.72 720.241 349.564 718.083 355.974V344.494H688.883V354.108H708.542V400.028L688.835 400.076V409.643L742.393 409.595V400.028H718.083V370.898C718.083 366.545 721.871 350.712 734.961 350.712C738.941 350.712 742.633 351.765 744.982 354.539C744.071 355.783 743.496 357.313 743.496 358.987C743.496 363.149 746.9 366.545 751.072 366.545C755.579 366.545 758.456 362.91 758.456 358.461C758.504 351.191 750.209 341.72 737.694 341.72Z" fill="#FBFBFB"/>
    <path d="M987.025 341.72C977.1 341.72 969.572 349.516 967.414 355.926V344.494H938.214V354.108H957.873V399.932L938.166 399.98V409.547L991.724 409.499V399.932H967.414V370.802C967.414 366.449 971.202 350.617 984.292 350.617C988.272 350.617 991.964 351.669 994.313 354.443C993.402 355.687 992.827 357.218 992.827 358.892C992.827 363.053 996.231 366.449 1000.4 366.449C1004.91 366.449 1007.79 362.814 1007.79 358.366C1007.83 351.143 999.54 341.72 987.025 341.72Z" fill="#FBFBFB"/>
    <path d="M827.74 372.429C831.912 372.429 835.316 369.032 835.316 364.871C835.316 364.536 835.268 364.249 835.268 363.914C834.309 355.256 820.644 341.815 803.287 341.815C783.58 341.815 767.613 357.552 767.613 377.02C767.613 396.488 783.58 412.226 803.287 412.226C816.904 412.226 828.747 404.668 834.741 393.571L827.021 388.357C822.322 396.775 813.548 402.611 803.239 402.611C788.95 402.611 777.73 391.179 777.73 377.02C777.73 362.862 788.95 351.43 803.239 351.43C811.198 351.43 817.863 354.443 822.322 359.657C821.028 360.996 820.213 362.862 820.213 364.871C820.165 369.08 823.569 372.429 827.74 372.429Z" fill="#FBFBFB"/>
    <path d="M1064.56 354.109H1072.47L1055.35 398.354L1036.7 354.109H1044.8V344.494H1016.7V354.109H1026.44L1050.36 411.269L1037.18 445.422H1047.39L1082.68 354.109H1092.65V344.494H1064.56V354.109Z" fill="#FBFBFB"/>
    <path d="M586.561 369.367C586.561 352.291 575.149 341.72 561.148 341.72C550.168 341.72 541.01 349.66 536.982 357.744C533.099 347.699 524.084 341.72 513.632 341.72C503.179 341.72 494.261 349.516 491.48 355.926V344.446L471.581 344.494V354.108H481.89V409.499H491.48V370.754C491.48 366.306 496.85 350.521 512.241 350.521C519.529 350.521 529.503 357.122 529.503 370.563C529.503 377.355 529.503 409.499 529.503 409.499H539.092C539.092 409.499 539.092 371.233 539.092 370.563C539.092 366.115 543.839 350.521 559.806 350.521C567.094 350.521 577.067 356.452 577.067 369.941C577.067 376.733 577.067 409.547 577.067 409.547H596.918V400.076H586.609L586.561 369.367Z" fill="#FBFBFB"/>
    <path d="M642.709 341.672C623.242 341.672 607.419 357.17 607.419 376.59C607.419 377.26 607.563 379.795 607.611 380.225C609.385 398.019 624.584 411.938 643.092 411.938C656.71 411.938 668.553 404.381 674.546 393.284L666.827 388.07C662.128 396.488 653.353 402.324 643.044 402.324C629.907 402.324 618.974 392.662 617.344 380.177L676.464 380.225C676.608 379.029 676.656 377.834 676.656 376.638C676.656 357.17 662.176 341.672 642.709 341.672ZM617.68 370.611C620.365 359.322 630.578 350.904 642.757 350.904C654.936 350.904 663.758 359.322 666.491 370.611H617.68Z" fill="#FBFBFB"/>
    <path d="M913.329 344.494H903.74V383.048C903.74 391.801 894.534 403.664 882.882 403.664C875.594 403.664 865.717 396.776 865.717 384.243C865.717 377.451 865.717 344.494 865.717 344.494H845.866V354.109H856.175V384.769C856.175 401.846 867.587 411.939 881.588 411.939C891.513 411.939 899.137 405.816 903.788 399.454V409.595L923.686 409.547V399.98H913.377L913.329 344.494Z" fill="#FBFBFB"/>
    <g clip-path="url(#clip1)">
      <path d="M359.826 411.181H401.548C401.548 391.903 422.84 364.289 422.84 322.702C422.84 287.288 417.031 268.144 413.497 259.251C410.582 251.897 407.225 247.618 400.069 247.618C392.912 247.618 385.911 250.426 384.011 266.762C378.401 315.414 356.911 343.473 359.826 411.181Z" fill="#FBFBFB" stroke="#232323" stroke-width="1.59116" stroke-miterlimit="10"/>
      <path d="M353.465 411.181H311.743C311.743 391.903 290.451 364.289 290.451 322.702C290.451 287.288 296.26 268.144 299.794 259.251C302.709 251.897 306.067 247.618 313.223 247.618C320.379 247.618 327.381 250.426 329.28 266.762C334.89 315.414 356.381 343.473 353.465 411.181Z" fill="#FBFBFB" stroke="#232323" stroke-width="1.59116" stroke-miterlimit="10"/>
      <path d="M320.489 411.091C320.489 389.673 302.267 365.916 299.484 331.527C297.143 302.666 302.687 273.826 304.741 266.449C306.53 259.986 308.672 256.042 312.979 256.042C316.999 256.042 319.893 258.07 320.644 267.542C322.388 289.851 325.326 340.041 326.629 364.199C327.976 388.96 337.076 410.511 355.74 410.511H356.866C375.552 410.511 385.336 388.96 386.684 364.199C387.987 340.063 390.924 289.851 392.669 267.542C393.42 258.07 396.313 256.042 400.333 256.042C404.64 256.042 406.783 259.986 408.572 266.449C410.604 273.804 416.148 302.666 413.828 331.527C411.023 365.916 392.802 390.052 392.802 411.47" stroke="#232323" stroke-width="2" stroke-miterlimit="10"/>
      <path d="M373.219 252.766V253.502C362.927 253.502 356.919 259.786 356.919 270.105H355.903C355.903 259.72 349.741 253.502 339.559 253.502V252.766C349.741 252.766 355.903 246.481 355.903 236.14H356.919C356.919 246.459 362.927 252.766 373.219 252.766Z" fill="#FBFBFB"/>
    </g>
    <path d="M269 410.55H444.748" stroke="#FBFBFB" stroke-width="2" stroke-miterlimit="10"/>
  </g>
  <defs>
    <clipPath id="clip0">
      <rect width="902" height="214" fill="white" transform="translate(269 234)"/>
    </clipPath>
    <clipPath id="clip1">
      <rect width="145.871" height="179.76" fill="white" transform="translate(279.726 231.86)"/>
    </clipPath>
  </defs>
</svg>
