<svg width="1440" height="766" viewBox="0 0 1440 766" fill="none" xmlns="http://www.w3.org/2000/svg">
<g clip-path="url(#clip0)">
<mask id="mask0" mask-type="alpha" maskUnits="userSpaceOnUse" x="604" y="203" width="254" height="254">
<path d="M730.923 456.08C697.063 456.08 665.141 442.924 641.245 419.003C617.258 395.082 604.064 363.341 604.064 329.576C604.064 295.811 617.258 263.977 641.245 240.149C665.233 216.228 697.063 203.071 730.923 203.071C764.782 203.071 796.704 216.228 820.6 240.149C844.588 264.069 857.781 295.811 857.781 329.576C857.781 363.341 844.588 395.174 820.6 419.003C796.704 442.832 764.782 456.08 730.923 456.08Z" fill="black"/>
</mask>
<g mask="url(#mask0)">
<path d="M734.705 456.816H784.064C784.064 434.275 809.251 401.982 809.251 353.404C809.251 312.003 802.332 289.646 798.18 279.25C794.766 270.601 790.799 265.633 782.311 265.633C773.823 265.633 765.612 268.945 763.305 287.99C756.663 344.848 731.199 377.693 734.705 456.816Z" fill="white"/>
<path d="M727.14 456.816H677.781C677.781 434.275 652.594 401.982 652.594 353.404C652.594 312.003 659.513 289.646 663.665 279.25C667.079 270.601 671.046 265.633 679.534 265.633C688.022 265.633 696.233 268.945 698.54 287.99C705.182 344.848 730.646 377.693 727.14 456.816Z" fill="white"/>
<path d="M731.198 457.368H729.907C719.205 457.368 710.163 451.572 703.889 440.532C698.354 430.871 695.032 417.623 694.202 402.074C692.541 371.989 689.128 314.763 687.098 289.094C686.175 277.778 682.577 276.858 679.348 276.858C675.473 276.858 673.167 279.986 670.86 288.082C668.83 295.259 661.911 329.208 664.679 363.709C666.432 384.778 673.259 402.534 679.256 418.175C684.791 432.435 689.497 444.764 689.497 456.816H686.913C686.913 445.316 682.208 433.171 676.857 419.095C670.768 403.27 663.848 385.422 662.095 363.893C659.235 329.024 666.339 294.707 668.369 287.346C670.306 280.538 672.982 274.19 679.348 274.19C685.806 274.19 688.851 278.606 689.681 288.818C691.711 314.487 695.125 371.805 696.785 401.798C697.616 416.979 700.845 429.859 706.104 439.152C712.008 449.456 719.943 454.7 729.907 454.7H731.198C736.273 454.7 740.886 453.32 745.037 450.56C748.912 447.984 752.418 444.12 755.371 439.152C760.814 429.859 764.32 416.611 765.15 401.798C766.811 371.713 770.225 314.487 772.254 288.818C773.085 278.514 776.129 274.19 782.588 274.19C789.046 274.19 791.721 280.538 793.567 287.346C795.596 294.615 802.7 329.024 799.84 363.893C798.087 385.33 791.168 403.362 785.079 419.279C779.635 433.447 775.022 445.684 775.022 457.184H772.439C772.439 445.132 777.236 432.711 782.68 418.267C788.677 402.534 795.504 384.686 797.257 363.617C800.117 329.116 793.105 295.167 791.075 287.99C788.769 279.894 786.462 276.766 782.588 276.766C779.266 276.766 775.76 277.686 774.838 289.002C772.808 314.671 769.394 371.897 767.734 401.982C766.903 417.439 763.397 430.687 757.585 440.532C751.127 451.572 741.993 457.368 731.198 457.368Z" fill="#232323"/>
<path d="M750.39 266.001V267.842C738.765 270.418 734.244 274.742 731.661 286.794H729.354C726.771 274.65 722.619 270.418 710.533 267.842V266.001C722.619 263.425 726.771 259.101 729.354 247.049H731.661C734.244 259.193 738.765 263.517 750.39 266.001Z" fill="#FBFBFB"/>
</g>
<path d="M730.923 456.08C697.063 456.08 665.141 442.924 641.245 419.003C617.258 395.082 604.064 363.341 604.064 329.576C604.064 295.811 617.258 263.977 641.245 240.149C665.233 216.228 697.063 203.071 730.923 203.071C764.782 203.071 796.704 216.228 820.6 240.149C844.588 264.069 857.781 295.811 857.781 329.576C857.781 363.341 844.588 395.174 820.6 419.003C796.704 442.832 764.782 456.08 730.923 456.08ZM730.923 206.015C662.65 206.015 607.017 261.401 607.017 329.576C607.017 397.658 662.558 453.136 730.923 453.136C799.288 453.136 854.829 397.75 854.829 329.576C854.829 261.401 799.195 206.015 730.923 206.015Z" fill="#FBFBFB"/>
<path d="M911.108 487.361C899.944 487.361 890.811 496.378 890.811 507.602C890.811 518.734 899.852 527.843 911.108 527.843C922.271 527.843 931.405 518.826 931.405 507.602C931.405 496.378 922.364 487.361 911.108 487.361ZM911.108 522.231C902.989 522.231 896.346 515.698 896.346 507.51C896.346 499.414 902.989 492.79 911.108 492.79C919.227 492.79 925.87 499.322 925.87 507.51C925.87 515.698 919.227 522.231 911.108 522.231Z" fill="#FBFBFB"/>
<path d="M683.317 487.361C677.597 487.361 673.26 491.87 672.061 495.55V488.925H655.27V494.446H666.618V520.851H655.27V526.371H686.085V520.851H672.061V504.106C672.061 501.622 674.275 492.514 681.748 492.514C684.055 492.514 686.177 493.158 687.561 494.722C687.007 495.458 686.73 496.286 686.73 497.298C686.73 499.69 688.668 501.622 691.067 501.622C693.65 501.622 695.311 499.506 695.311 496.93C695.311 492.79 690.513 487.361 683.317 487.361Z" fill="#FBFBFB"/>
<path d="M826.875 487.361C821.155 487.361 816.819 491.87 815.62 495.55V488.925H798.828V494.446H810.176V520.851H798.828V526.371H829.643V520.851H815.62V504.106C815.62 501.622 817.834 492.514 825.307 492.514C827.613 492.514 829.735 493.158 831.119 494.722C830.566 495.458 830.289 496.286 830.289 497.298C830.289 499.69 832.226 501.622 834.625 501.622C837.209 501.622 838.869 499.506 838.869 496.93C838.869 492.79 834.164 487.361 826.875 487.361Z" fill="#FBFBFB"/>
<path d="M735.166 505.026C737.565 505.026 739.503 503.094 739.503 500.702C739.503 500.518 739.503 500.334 739.503 500.15C738.949 495.181 731.107 487.453 721.051 487.453C709.703 487.453 700.477 496.561 700.477 507.694C700.477 518.918 709.703 527.935 721.051 527.935C728.893 527.935 735.72 523.61 739.134 517.17L734.705 514.134C732.03 519.01 726.955 522.322 721.051 522.322C712.839 522.322 706.381 515.698 706.381 507.602C706.381 499.506 712.839 492.881 721.051 492.881C725.664 492.881 729.446 494.629 732.03 497.574C731.292 498.31 730.83 499.414 730.83 500.61C730.83 503.094 732.768 505.026 735.166 505.026Z" fill="#FBFBFB"/>
<path d="M871.529 494.445H876.142L866.27 519.93L855.475 494.537H860.181V488.925H844.035V494.445H849.571L863.41 527.383L855.752 547.071H861.657L882.046 494.537H887.767V488.925H871.529V494.445Z" fill="#FBFBFB"/>
<path d="M596.315 503.278C596.315 493.434 589.765 487.361 581.646 487.361C575.28 487.361 570.021 491.961 567.715 496.562C565.5 490.765 560.241 487.361 554.245 487.361C548.248 487.361 543.081 491.87 541.513 495.55V488.925H530.072V494.446H535.977V526.279H541.513V503.922C541.513 501.346 544.557 492.237 553.506 492.237C557.75 492.237 563.471 496.01 563.471 503.83V526.279H569.006C569.006 526.279 569.006 504.29 569.006 503.83C569.006 501.254 571.774 492.237 580.908 492.237C585.152 492.237 590.872 495.642 590.872 503.37V526.187H602.312V520.758H596.408L596.315 503.278Z" fill="#FBFBFB"/>
<path d="M628.606 487.361C617.35 487.361 608.309 496.286 608.309 507.51C608.309 507.878 608.401 509.35 608.401 509.626C609.416 519.838 618.18 527.843 628.79 527.843C636.633 527.843 643.46 523.519 646.874 517.078L642.445 514.042C639.769 518.918 634.695 522.231 628.79 522.231C621.225 522.231 614.951 516.71 613.937 509.442H647.981C648.073 508.798 648.073 508.062 648.073 507.418C648.165 496.286 639.862 487.361 628.606 487.361ZM614.213 504.014C615.782 497.482 621.594 492.698 628.606 492.698C635.618 492.698 640.692 497.574 642.261 504.014H614.213Z" fill="#FBFBFB"/>
<path d="M784.435 488.925H778.9V511.098C778.9 516.158 773.641 522.966 766.906 522.966C762.662 522.966 757.034 519.01 757.034 511.742V488.925H745.594V494.445H751.498V512.11C751.498 521.954 758.049 527.751 766.168 527.751C771.888 527.751 776.316 524.255 778.9 520.574V526.371H790.34V520.85H784.435V488.925Z" fill="#FBFBFB"/>
</g>
<path d="M1202.42 719.23C1201.74 717.556 1200.66 716.152 1199.2 715.045C1197.75 713.938 1195.94 713.398 1193.8 713.398C1190.97 713.398 1188.62 714.343 1186.76 716.233C1184.87 718.15 1183.92 720.553 1183.92 723.469C1183.92 726.358 1184.87 728.734 1186.76 730.597C1188.62 732.487 1190.97 733.432 1193.8 733.432C1197.61 733.432 1200.5 731.488 1202.44 727.573L1199.12 726.034C1197.99 728.599 1196.21 729.868 1193.78 729.868C1192.05 729.868 1190.59 729.247 1189.43 728.005C1188.24 726.79 1187.65 725.251 1187.65 723.415C1187.65 721.552 1188.24 719.986 1189.43 718.744C1190.62 717.529 1192.08 716.908 1193.83 716.908C1196.29 716.908 1198.02 718.204 1199.07 720.769L1202.42 719.23ZM1208.28 733V722.929H1211.57V719.5H1204.9V733H1208.28ZM1219.17 722.281C1220.6 722.281 1221.84 723.064 1222.08 724.279H1216.17C1216.71 722.956 1217.71 722.281 1219.17 722.281ZM1222.38 727.978C1221.76 729.382 1220.68 730.084 1219.17 730.084C1217.41 730.084 1216.17 728.977 1215.87 727.114H1222.52V724.684H1225.59V724.414C1225.59 723.145 1224.97 721.957 1223.76 720.796C1222.54 719.635 1221 719.068 1219.19 719.068C1217.22 719.068 1215.6 719.716 1214.36 721.039C1213.12 722.362 1212.5 724.09 1212.5 726.223C1212.5 728.356 1213.12 730.084 1214.36 731.407C1215.6 732.757 1217.22 733.432 1219.19 733.432C1222.14 733.432 1224.43 731.893 1225.38 729.328L1222.38 727.978ZM1233 729.976C1231.38 729.976 1230.59 728.95 1230.59 727.789C1230.59 726.736 1231.4 725.818 1232.57 725.818V722.821H1235.83V726.979C1235.83 728.734 1234.7 729.976 1233 729.976ZM1232.16 719.5V722.443C1230.7 722.443 1229.49 722.956 1228.49 724.009C1227.49 725.062 1227 726.331 1227 727.789C1227 729.274 1227.52 730.543 1228.54 731.596C1229.54 732.676 1230.76 733.216 1232.19 733.216C1234.48 733.216 1235.54 732.379 1236.53 730.84L1236.7 733H1239.34V719.5H1232.16ZM1249.77 729.22C1249.45 729.814 1248.96 730.111 1248.34 730.111C1247.69 730.111 1247.1 729.571 1247.1 728.572V722.821H1251.37V719.5H1247.1V715.99H1246.59L1241.16 722.227V722.821H1243.72V729.112C1243.72 730.381 1244.16 731.434 1245.02 732.271C1245.88 733.135 1246.96 733.54 1248.29 733.54C1248.94 733.54 1249.64 733.297 1250.42 732.811C1251.18 732.325 1251.69 731.731 1251.96 731.056L1249.77 729.22ZM1259.54 722.281C1260.97 722.281 1262.21 723.064 1262.45 724.279H1256.54C1257.08 722.956 1258.08 722.281 1259.54 722.281ZM1262.75 727.978C1262.13 729.382 1261.05 730.084 1259.54 730.084C1257.78 730.084 1256.54 728.977 1256.24 727.114H1262.88V724.684H1265.96V724.414C1265.96 723.145 1265.34 721.957 1264.13 720.796C1262.91 719.635 1261.37 719.068 1259.56 719.068C1257.59 719.068 1255.97 719.716 1254.73 721.039C1253.49 722.362 1252.87 724.09 1252.87 726.223C1252.87 728.356 1253.49 730.084 1254.73 731.407C1255.97 732.757 1257.59 733.432 1259.56 733.432C1262.51 733.432 1264.8 731.893 1265.75 729.328L1262.75 727.978ZM1276.77 723.469C1277.42 724.252 1277.74 725.17 1277.74 726.25C1277.74 727.33 1277.42 728.248 1276.77 729.004C1276.12 729.787 1275.28 730.165 1274.26 730.165C1273.23 730.165 1272.39 729.787 1271.75 729.004C1271.1 728.248 1270.77 727.33 1270.77 726.25C1270.77 725.17 1271.1 724.252 1271.75 723.469C1272.39 722.713 1273.23 722.335 1274.26 722.335C1275.28 722.335 1276.12 722.713 1276.77 723.469ZM1278.25 733H1280.9V713.29H1277.52V720.256C1276.74 719.473 1275.55 719.068 1273.96 719.068C1272.1 719.068 1270.5 719.743 1269.18 721.12C1267.86 722.497 1267.21 724.198 1267.21 726.25C1267.21 728.302 1267.86 730.003 1269.13 731.38C1270.4 732.757 1271.93 733.432 1273.74 733.432C1275.63 733.432 1277.09 732.73 1278.09 731.299L1278.25 733ZM1298.83 723.469C1299.48 724.252 1299.8 725.17 1299.8 726.25C1299.8 727.33 1299.48 728.248 1298.83 729.004C1298.18 729.787 1297.34 730.165 1296.32 730.165C1295.29 730.165 1294.45 729.787 1293.81 729.004C1293.16 728.248 1292.83 727.33 1292.83 726.25C1292.83 725.17 1293.16 724.252 1293.81 723.469C1294.45 722.713 1295.29 722.335 1296.32 722.335C1297.34 722.335 1298.18 722.713 1298.83 723.469ZM1292.48 731.299C1293.48 732.73 1294.94 733.432 1296.83 733.432C1298.64 733.432 1300.2 732.757 1301.47 731.38C1302.74 730.003 1303.36 728.302 1303.36 726.25C1303.36 724.198 1302.72 722.497 1301.39 721.12C1300.07 719.743 1298.48 719.068 1296.61 719.068C1295.02 719.068 1293.83 719.473 1293.05 720.256V713.29H1289.67V733H1292.32L1292.48 731.299ZM1310.58 739.75L1318.27 719.5H1314.66L1313.6 722.389C1312.44 725.656 1311.6 728.032 1311.15 729.463C1310.25 726.52 1309.47 724.171 1308.85 722.389L1307.82 719.5H1304.02L1309.34 733.621L1307.01 739.75H1310.58ZM1330.19 733.432C1331.89 733.432 1333.33 732.892 1334.43 731.785C1335.54 730.678 1336.11 729.382 1336.11 727.843C1336.11 727.303 1336.03 726.79 1335.86 726.277C1335.51 725.278 1335.22 724.711 1334.38 723.901C1333.97 723.496 1333.65 723.226 1333.46 723.037C1333.24 722.875 1332.89 722.605 1332.41 722.254C1331.92 721.903 1331.65 721.714 1331.57 721.66L1330.92 721.174C1330.68 721.012 1329.55 720.202 1329.41 720.067C1328.95 719.716 1328.36 719.068 1328.47 718.528C1328.47 717.448 1329.09 716.908 1330.3 716.908C1331.3 716.908 1332.08 717.583 1332.65 718.96L1335.76 717.637C1335.4 716.476 1334.73 715.477 1333.78 714.64C1332.84 713.803 1331.65 713.398 1330.25 713.398C1328.71 713.398 1327.36 713.884 1326.25 714.856C1325.14 715.828 1324.58 717.016 1324.58 718.447C1324.58 719.014 1324.71 719.608 1324.85 720.04C1325.17 720.796 1325.44 721.363 1326.01 721.903C1326.47 722.362 1326.52 722.47 1327.09 722.902C1327.36 723.118 1327.55 723.253 1327.63 723.307C1327.68 723.361 1328.71 724.09 1328.71 724.09L1329.57 724.711C1329.82 724.9 1330.38 725.305 1330.6 725.44L1331.68 726.304C1332.19 726.79 1332.41 727.249 1332.41 727.87C1332.41 729.031 1331.6 729.949 1330.27 729.949C1328.79 729.949 1327.55 728.653 1327.55 726.817H1323.9C1323.9 728.788 1324.5 730.381 1325.68 731.596C1326.87 732.811 1328.38 733.432 1330.19 733.432ZM1342.36 725.818C1342.36 723.685 1343.41 722.416 1345.22 722.416C1347.05 722.416 1348.11 723.685 1348.11 725.818V733H1351.48V725.818C1351.48 723.793 1350.97 722.146 1349.92 720.904C1348.86 719.689 1347.49 719.068 1345.73 719.068C1344.17 719.068 1343.03 719.608 1342.36 720.688V713.398H1338.98V733H1342.36V725.818ZM1361.51 733.513C1363.37 733.513 1364.88 732.865 1366.05 731.596C1367.21 730.327 1367.77 728.707 1367.77 726.682V719.5H1364.4V726.682C1364.4 728.815 1363.35 730.084 1361.51 730.084C1359.7 730.084 1358.65 728.815 1358.65 726.682V719.5H1355.27V726.682C1355.27 728.707 1355.87 730.327 1357.03 731.596C1358.19 732.865 1359.67 733.513 1361.51 733.513ZM1375.05 729.382L1377.56 726.466L1380.67 733H1384.53L1379.86 723.874L1383.64 719.5H1379.34L1375.05 724.765V713.398H1371.68V733H1375.05V729.382ZM1391.62 729.976C1390 729.976 1389.22 728.95 1389.22 727.789C1389.22 726.736 1390.03 725.818 1391.19 725.818V722.821H1394.46V726.979C1394.46 728.734 1393.32 729.976 1391.62 729.976ZM1390.79 719.5V722.443C1389.33 722.443 1388.11 722.956 1387.11 724.009C1386.11 725.062 1385.63 726.331 1385.63 727.789C1385.63 729.274 1386.14 730.543 1387.17 731.596C1388.17 732.676 1389.38 733.216 1390.81 733.216C1393.11 733.216 1394.16 732.379 1395.16 730.84L1395.32 733H1397.97V719.5H1390.79Z" fill="#FBFBFB"/>
<defs>
<clipPath id="clip0">
<rect width="923.476" height="344" fill="white" transform="translate(269 200)"/>
</clipPath>
</defs>
</svg>
