<svg width="868" height="606" viewBox="0 0 868 606" fill="none" xmlns="http://www.w3.org/2000/svg">
  <g clip-path="url(#clip0)">
    <g clip-path="url(#clip1)">
      <path d="M138.207 540.593L177.791 587.719L254.592 385.633L209.423 331.859L101.619 431.287L138.207 540.593Z" fill="white"/>
      <path d="M242.067 372.484L320.264 465.577C320.264 465.577 329.376 533.367 277.336 577.08C238.595 609.621 195.275 608.534 174.633 583.959C134.321 535.967 152.709 416.97 285.318 343.55C440.119 258.393 675.927 267.914 675.927 267.914L475.833 32.6351C475.833 32.6351 293.892 38.5188 145.474 136.559C7.2794 227.984 -31.5435 338.504 35.2392 418.009C106.15 502.43 175.119 584.537 175.119 584.537" fill="#FBFBFB"/>
      <path d="M242.067 372.484L320.264 465.577C320.264 465.577 329.376 533.367 277.336 577.08C238.595 609.621 195.275 608.534 174.633 583.959C134.321 535.967 152.709 416.97 285.318 343.55C440.119 258.393 675.927 267.914 675.927 267.914L475.833 32.6351C475.833 32.6351 293.892 38.5188 145.474 136.559C7.2794 227.984 -31.5435 338.504 35.2392 418.009C106.15 502.43 175.119 584.537 175.119 584.537" stroke="#232323" stroke-width="2" stroke-miterlimit="10"/>
      <path d="M222.167 388.711L291.864 471.685C291.864 471.685 299.554 509.605 263.207 548.518C217.134 597.573 168.796 574.074 168.796 574.074" stroke="#232323" stroke-width="2" stroke-miterlimit="10"/>
      <path d="M132.62 533.943C132.62 533.943 96.2056 444.215 221.425 347.909C382.263 224.15 613.26 239.684 613.26 239.684L466.824 65.3501C466.824 65.3501 243.378 77.0039 93.4218 214.305" stroke="#232323" stroke-width="2" stroke-miterlimit="10"/>
      <path d="M443.234 133.582C426.303 126.506 406.646 134.964 399.329 152.472C392.012 169.981 399.806 189.91 416.738 196.986C433.669 204.062 453.326 195.604 460.643 178.096C467.96 160.587 460.166 140.658 443.234 133.582Z" stroke="#232323" stroke-width="2" stroke-miterlimit="10"/>
      <path d="M177.525 445.927C184.383 444.111 191.587 444.47 198.318 447.199C215.121 454.288 223.03 474.271 215.895 491.606C208.759 508.941 188.973 517.672 171.927 510.293C165.972 507.9 161.219 504.002 157.911 498.891" stroke="#232323" stroke-width="2" stroke-miterlimit="10"/>
      <path d="M219.232 132.791C228.703 168.721 188.47 203.009 188.47 203.009C188.47 203.009 215.473 197.586 237.457 219.061C259.926 241.114 261.463 275.819 237.721 299.213C215.761 320.618 186.618 322.908 164.82 311.632C143.021 300.357 137.529 280.316 137.529 280.316C137.529 280.316 120.02 290.585 104.547 314.43C76.919 357.854 25.8745 334.655 25.8745 334.655" stroke="#232323" stroke-width="2" stroke-miterlimit="10"/>
      <path d="M132.22 184.179C132.22 184.179 166.739 209.424 188.515 202.474C188.515 202.474 160.367 211.818 146.918 233.963C132.555 257.369 137.573 279.781 137.573 279.781C134.752 250.593 105.576 207.053 105.576 207.053" stroke="#232323" stroke-width="2" stroke-miterlimit="10" stroke-linecap="square" stroke-linejoin="bevel"/>
      <path d="M128.459 285.956C128.459 285.956 124.85 302.793 139.548 315.595C160.017 332.919 194.814 317.99 194.814 317.99" stroke="#232323" stroke-width="2" stroke-miterlimit="10"/>
      <path d="M214.719 314.096C214.719 314.096 238.877 310.569 256.501 292.807C282.938 266.163 277.272 226.543 252.201 194.348C234.808 172.468 213.195 171.392 213.195 171.392" stroke="#232323" stroke-width="2" stroke-miterlimit="10"/>
      <path d="M43.542 427.306C43.542 427.306 16.6672 378.875 27.5499 330.779C38.9067 280.312 61.122 262.145 61.122 262.145" stroke="#232323" stroke-width="2" stroke-miterlimit="10"/>
      <path d="M186.031 234.153C186.031 234.153 160.635 242.664 168.707 266.949" stroke="#232323" stroke-width="2" stroke-miterlimit="10"/>
      <path d="M223.637 245.463C220.15 241.311 213.957 240.773 209.806 244.26C205.654 247.747 205.116 253.939 208.603 258.091C212.09 262.242 218.282 262.781 222.434 259.294C226.585 255.806 227.124 249.614 223.637 245.463Z" stroke="#232323" stroke-width="2" stroke-miterlimit="10"/>
      <path d="M200.414 278.279C196.927 274.128 190.735 273.589 186.583 277.077C182.432 280.564 181.893 286.756 185.38 290.907C188.867 295.059 195.06 295.597 199.211 292.11C203.363 288.623 203.901 282.431 200.414 278.279Z" stroke="#232323" stroke-width="2" stroke-miterlimit="10"/>
    </g>
  </g>
  <defs>
    <clipPath id="clip0">
      <rect width="868" height="606" fill="white"/>
    </clipPath>
    <clipPath id="clip1">
      <rect width="1030.21" height="1032.41" fill="white" transform="translate(244.539 1012.94) rotate(-130.029)"/>
    </clipPath>
  </defs>
</svg>
