<svg width="217" height="128" viewBox="0 0 217 128" fill="none" xmlns="http://www.w3.org/2000/svg">
  <g clip-path="url(#clip0)">
    <g clip-path="url(#clip1)">
      <path d="M0.631927 40.2607L57.9814 1.6485C78.4773 1.15762 90.9692 4.23306 119.354 39.4477C125.937 47.5987 135.731 59.2667 145.554 65.6995C178.938 87.3406 214.362 80.4536 214.362 80.4536L148.328 126.754C127.759 128.753 102.913 122.94 79.9026 95.0892C47.4896 55.8045 25.9136 40.8694 0.631927 40.2607Z" fill="#FBFBFB" stroke="#232323" stroke-miterlimit="10"/>
      <path d="M58.0662 8.61107L17.3593 36.579C17.3593 36.579 32.1823 36.4351 53.2771 55.0162C76.5205 75.4789 81.1586 90.9292 104.645 107.646C123.788 121.21 145.429 119.66 145.429 119.66L192.098 86.989C192.098 86.989 163.318 89.8792 134.852 66.5244C122.563 56.4675 111.339 39.3718 101.252 29.4001" stroke="#232323" stroke-miterlimit="10"/>
      <path d="M144.918 103.213C151.168 100.659 155.06 95.7151 153.612 92.1703C152.163 88.6255 145.922 87.8222 139.672 90.3762C133.422 92.9302 129.53 97.8742 130.978 101.419C132.427 104.964 138.668 105.767 144.918 103.213Z" stroke="#232323" stroke-miterlimit="10"/>
      <path d="M58.5328 30.8401C64.3573 27.4251 67.9634 22.7539 66.5872 20.4067C65.211 18.0595 59.3736 18.9252 53.5491 22.3402C47.7246 25.7552 44.1186 30.4265 45.4948 32.7736C46.871 35.1208 52.7083 34.2552 58.5328 30.8401Z" stroke="#232323" stroke-miterlimit="10"/>
      <path d="M45.1465 48.3846C60.9119 42.8293 75.4049 62.1371 75.4049 62.1371C75.4049 62.1371 74.9706 53.8388 82.3497 48.2611C89.9477 42.4953 100.425 43.5358 106.364 51.556C111.773 59.0041 111.143 67.8355 106.885 73.8136C102.541 79.8263 96.2617 80.6183 96.2617 80.6183C96.2617 80.6183 98.2207 86.6181 105.02 91.9213C107.917 94.1869 110.338 96.2528 112.552 97.812C117.237 101.318 119.837 106.957 119.355 112.772L119.204 115.297" stroke="#232323" stroke-miterlimit="10"/>
      <path d="M71.7811 73.769C71.7811 73.769 76.4041 68.9233 75.3206 62.1715C75.3206 62.1715 75.1446 70.4235 82.0663 76.2679C88.4087 81.6591 96.2619 80.6183 96.2619 80.6183C87.4152 80.1926 80.3284 84.074 80.3284 84.074" stroke="#232323" stroke-miterlimit="10" stroke-linecap="square" stroke-linejoin="bevel"/>
      <path d="M97.639 83.505C97.639 83.505 102.532 85.3492 107.009 81.3516C113.102 76.0036 110.14 64.8949 110.14 64.8949" stroke="#232323" stroke-miterlimit="10"/>
      <path d="M109.758 59.1377C109.758 59.1377 109.822 51.8183 105.203 45.8213C98.3595 36.7913 86.2462 36.8134 75.5507 42.9579C68.2297 47.2307 66.9721 53.5593 66.9721 53.5593" stroke="#232323" stroke-miterlimit="10"/>
      <path d="M83.1617 61.8256C83.1617 61.8256 82.7133 69.8932 90.374 70.3107" stroke="#232323" stroke-miterlimit="10"/>
      <path d="M90.4717 58.2471C91.9642 57.6372 92.6797 55.9329 92.0698 54.4403C91.46 52.9478 89.7556 52.2323 88.263 52.8422C86.7705 53.4521 86.055 55.1564 86.6649 56.649C87.2748 58.1415 88.9791 58.857 90.4717 58.2471Z" stroke="#232323" stroke-miterlimit="10"/>
      <path d="M97.7178 66.8168C99.2103 66.2069 99.9258 64.5026 99.3159 63.01C98.706 61.5175 97.0017 60.802 95.5091 61.4119C94.0166 62.0218 93.3011 63.7261 93.911 65.2187C94.5209 66.7112 96.2252 67.4267 97.7178 66.8168Z" stroke="#232323" stroke-miterlimit="10"/>
    </g>
  </g>
  <defs>
    <clipPath id="clip0">
      <rect width="216.351" height="128" fill="white"/>
    </clipPath>
    <clipPath id="clip1">
      <rect width="291.194" height="280.769" fill="white" transform="translate(-79.3936 -12.7518) rotate(-22.2264)"/>
    </clipPath>
  </defs>
</svg>
