<svg width="396" height="268" viewBox="0 0 396 268" fill="none" xmlns="http://www.w3.org/2000/svg">
  <g clip-path="url(#clip0)">
    <g clip-path="url(#clip1)">
      <path d="M188.319 273.356L150.66 273.924C150.212 241.707 91.7361 196.49 90.7207 127.065C89.8247 67.9501 101.801 35.0158 109.864 19.9533C116.106 8.29782 122.676 1.21485 134.712 1.03553C148.211 0.826332 156.812 8.23805 160.605 32.5951C173.208 113.407 204.118 170.309 188.319 273.356Z" fill="#FBFBFB" stroke="#232323" stroke-width="2" stroke-miterlimit="10"/>
      <path d="M179.564 273.67C168.375 250.786 160.968 207.659 156.931 171.296C152.451 131.159 149.375 72.822 146.209 35.614C145.015 21.6872 140.415 16.1583 133.666 16.0686C125.991 15.979 121.66 23.7194 118.793 34.568C115.538 46.9109 101.502 93.4732 106.16 141.589C111.427 196.234 160.093 238.82 165.066 273.67" stroke="#232323" stroke-width="2" stroke-miterlimit="10"/>
      <path d="M208.06 273.356L245.72 273.924C246.198 241.737 304.673 196.489 305.688 127.064C306.554 67.9499 294.609 35.0455 286.515 19.9531C280.273 8.29757 273.703 1.2146 261.668 1.03529C248.169 0.826088 239.568 8.2378 235.775 32.5948C223.202 113.406 192.262 170.309 208.06 273.356Z" fill="#FBFBFB" stroke="#232323" stroke-width="2" stroke-miterlimit="10"/>
      <path d="M216.815 273.67C228.005 250.786 235.411 207.659 239.448 171.296C243.928 131.159 247.004 72.822 250.17 35.614C251.365 21.6872 255.964 16.1583 262.713 16.0686C270.388 15.979 274.719 23.7194 277.586 34.568C280.871 46.9109 294.878 93.4732 290.249 141.589C284.982 196.234 236.316 238.82 231.317 273.67" stroke="#232323" stroke-width="2" stroke-miterlimit="10"/>
    </g>
  </g>
  <defs>
    <clipPath id="clip0">
      <rect width="396" height="268" fill="white"/>
    </clipPath>
    <clipPath id="clip1">
      <rect width="218" height="268" fill="white" transform="translate(89)"/>
    </clipPath>
  </defs>
</svg>
