<svg width="305" height="455" viewBox="0 0 305 455" fill="none" xmlns="http://www.w3.org/2000/svg">
  <g clip-path="url(#clip0)">
    <rect width="305" height="455" rx="12" fill="#5835FF"/>
    <g clip-path="url(#clip1)">
      <path d="M57.088 274.288C54.784 274.288 52.704 273.84 50.848 272.944C49.024 272.016 47.472 270.768 46.192 269.2C44.912 267.632 43.936 265.808 43.264 263.728C42.592 261.616 42.256 259.36 42.256 256.96C42.256 254.56 42.592 252.32 43.264 250.24C43.936 248.128 44.912 246.288 46.192 244.72C47.472 243.152 49.024 241.92 50.848 241.024C52.704 240.096 54.784 239.632 57.088 239.632C59.392 239.632 61.456 240.096 63.28 241.024C65.136 241.92 66.704 243.152 67.984 244.72C69.264 246.288 70.24 248.128 70.912 250.24C71.584 252.32 71.92 254.56 71.92 256.96C71.92 259.36 71.584 261.616 70.912 263.728C70.24 265.808 69.264 267.632 67.984 269.2C66.704 270.768 65.136 272.016 63.28 272.944C61.456 273.84 59.392 274.288 57.088 274.288ZM57.088 271.024C58.944 271.024 60.56 270.672 61.936 269.968C63.312 269.232 64.464 268.24 65.392 266.992C66.32 265.712 67.008 264.224 67.456 262.528C67.936 260.8 68.176 258.944 68.176 256.96C68.176 254.976 67.936 253.136 67.456 251.44C67.008 249.712 66.32 248.224 65.392 246.976C64.464 245.696 63.312 244.704 61.936 244C60.56 243.264 58.944 242.896 57.088 242.896C55.232 242.896 53.616 243.264 52.24 244C50.864 244.704 49.712 245.696 48.784 246.976C47.856 248.224 47.152 249.712 46.672 251.44C46.224 253.136 46 254.976 46 256.96C46 258.944 46.224 260.8 46.672 262.528C47.152 264.224 47.856 265.712 48.784 266.992C49.712 268.24 50.864 269.232 52.24 269.968C53.616 270.672 55.232 271.024 57.088 271.024ZM85.174 274.288C83.382 274.288 81.862 273.984 80.614 273.376C79.398 272.768 78.406 271.984 77.638 271.024C76.87 270.032 76.31 268.912 75.958 267.664C75.638 266.416 75.478 265.152 75.478 263.872C75.478 262.4 75.702 261.008 76.15 259.696C76.598 258.384 77.254 257.232 78.118 256.24C78.982 255.248 80.054 254.48 81.334 253.936C82.614 253.36 84.102 253.072 85.798 253.072C87.238 253.072 88.454 253.28 89.446 253.696C90.438 254.08 91.222 254.608 91.798 255.28C92.406 255.92 92.822 256.672 93.046 257.536C93.302 258.4 93.398 259.296 93.334 260.224L90.214 260.416C90.278 258.784 89.894 257.632 89.062 256.96C88.262 256.288 87.19 255.952 85.846 255.952C83.382 255.952 81.574 256.64 80.422 258.016C79.27 259.36 78.694 261.216 78.694 263.584C78.694 265.984 79.286 267.888 80.47 269.296C81.654 270.704 83.35 271.408 85.558 271.408C87.222 271.408 88.598 271.024 89.686 270.256C90.806 269.488 91.686 268.56 92.326 267.472L94.486 269.008C94.134 269.68 93.686 270.336 93.142 270.976C92.598 271.616 91.942 272.176 91.174 272.656C90.406 273.136 89.51 273.536 88.486 273.856C87.494 274.144 86.39 274.288 85.174 274.288ZM105.149 274.288C103.261 274.288 101.805 273.68 100.781 272.464C99.7891 271.248 99.2931 269.296 99.2931 266.608V245.824L102.413 244.288V265.936C102.413 266.96 102.477 267.824 102.605 268.528C102.733 269.2 102.925 269.744 103.181 270.16C103.437 270.544 103.757 270.816 104.141 270.976C104.525 271.136 104.973 271.216 105.485 271.216C106.701 271.216 107.581 270.88 108.125 270.208C108.669 269.504 109.021 268.672 109.181 267.712L112.109 268.576C112.013 269.248 111.789 269.936 111.437 270.64C111.117 271.312 110.653 271.92 110.045 272.464C109.469 273.008 108.765 273.456 107.933 273.808C107.133 274.128 106.205 274.288 105.149 274.288ZM95.7891 253.36H108.509V256.192H95.7891V253.36ZM124.2 250.96C125.48 250.512 126.408 249.792 126.984 248.8C127.592 247.776 127.896 246.672 127.896 245.488C127.672 245.616 127.48 245.696 127.32 245.728C127.16 245.76 126.952 245.776 126.696 245.776C125.864 245.776 125.208 245.52 124.728 245.008C124.248 244.496 124.008 243.872 124.008 243.136C124.008 242.304 124.296 241.664 124.872 241.216C125.448 240.736 126.104 240.496 126.84 240.496C127.768 240.496 128.568 240.88 129.24 241.648C129.912 242.384 130.248 243.568 130.248 245.2C130.248 245.936 130.168 246.672 130.008 247.408C129.848 248.112 129.56 248.8 129.144 249.472C128.76 250.144 128.232 250.768 127.56 251.344C126.92 251.92 126.12 252.416 125.16 252.832L124.2 250.96ZM134.22 240.88H136.764C137.5 240.88 138.172 240.8 138.78 240.64C139.42 240.448 139.836 240.208 140.028 239.92H143.196V244.048H134.22V240.88ZM134.46 270.976H148.38V274H134.46V270.976ZM139.74 240.88H143.196V274H139.74V240.88ZM162.353 274.288C160.433 274.288 158.817 273.952 157.505 273.28C156.225 272.576 155.185 271.712 154.385 270.688C153.617 269.664 153.073 268.576 152.753 267.424C152.433 266.24 152.273 265.168 152.273 264.208C152.273 263.12 152.449 262.016 152.801 260.896C153.185 259.744 153.745 258.704 154.481 257.776C155.217 256.816 156.129 256.032 157.217 255.424C158.337 254.816 159.649 254.512 161.153 254.512V255.952C159.809 255.952 158.641 255.712 157.649 255.232C156.689 254.72 155.889 254.08 155.249 253.312C154.641 252.544 154.193 251.696 153.905 250.768C153.617 249.84 153.473 248.944 153.473 248.08C153.473 247.248 153.633 246.336 153.953 245.344C154.273 244.352 154.785 243.44 155.489 242.608C156.225 241.744 157.153 241.04 158.273 240.496C159.393 239.92 160.769 239.632 162.401 239.632C164.065 239.632 165.457 239.92 166.577 240.496C167.729 241.072 168.641 241.792 169.313 242.656C170.017 243.488 170.513 244.4 170.801 245.392C171.089 246.384 171.233 247.28 171.233 248.08C171.233 248.944 171.073 249.808 170.753 250.672C170.465 251.536 170.001 252.32 169.361 253.024C168.753 253.728 167.969 254.304 167.009 254.752C166.049 255.2 164.897 255.424 163.553 255.424V253.984C165.057 253.984 166.353 254.288 167.441 254.896C168.561 255.472 169.489 256.24 170.225 257.2C170.961 258.16 171.505 259.248 171.857 260.464C172.241 261.68 172.433 262.928 172.433 264.208C172.433 265.168 172.273 266.24 171.953 267.424C171.633 268.576 171.073 269.664 170.273 270.688C169.505 271.712 168.465 272.576 167.153 273.28C165.873 273.952 164.273 274.288 162.353 274.288ZM162.353 271.024C163.537 271.024 164.529 270.832 165.329 270.448C166.129 270.032 166.769 269.488 167.249 268.816C167.761 268.144 168.129 267.376 168.353 266.512C168.577 265.648 168.689 264.752 168.689 263.824C168.689 262.928 168.577 262.064 168.353 261.232C168.161 260.4 167.809 259.664 167.297 259.024C166.817 258.384 166.161 257.872 165.329 257.488C164.529 257.104 163.537 256.912 162.353 256.912C161.137 256.912 160.129 257.104 159.329 257.488C158.529 257.872 157.873 258.384 157.361 259.024C156.881 259.664 156.529 260.4 156.305 261.232C156.113 262.064 156.017 262.928 156.017 263.824C156.017 264.784 156.129 265.696 156.353 266.56C156.577 267.424 156.945 268.192 157.457 268.864C157.969 269.536 158.625 270.064 159.425 270.448C160.225 270.832 161.201 271.024 162.353 271.024ZM162.353 253.984C163.345 253.984 164.161 253.792 164.801 253.408C165.473 253.024 166.001 252.528 166.385 251.92C166.801 251.312 167.089 250.656 167.249 249.952C167.409 249.248 167.489 248.576 167.489 247.936C167.489 247.456 167.425 246.928 167.297 246.352C167.201 245.744 166.961 245.2 166.577 244.72C166.225 244.208 165.713 243.776 165.041 243.424C164.401 243.072 163.537 242.896 162.449 242.896C161.329 242.896 160.433 243.072 159.761 243.424C159.089 243.776 158.561 244.208 158.177 244.72C157.793 245.232 157.537 245.808 157.409 246.448C157.281 247.056 157.217 247.616 157.217 248.128C157.217 248.672 157.281 249.296 157.409 250C157.569 250.672 157.825 251.312 158.177 251.92C158.561 252.496 159.089 252.992 159.761 253.408C160.433 253.792 161.297 253.984 162.353 253.984Z" fill="#FBFBFB"/>
      <path d="M42.232 316H44.344V308.584H51.664V306.736H44.344V301.048H52.816V299.2H42.232V316ZM55.8436 316H57.7636V303.664H55.8436V316ZM55.8436 301.72H57.7636V299.08H55.8436V301.72ZM64.9898 316.288C66.9098 316.288 68.4218 315.28 69.1658 314.44L69.8858 316H71.0378V307.432C71.0378 305.104 69.4778 303.376 66.2618 303.376C63.0698 303.376 61.5578 305.104 61.5578 307.408H63.4298C63.4298 306.112 64.3658 305.128 66.2618 305.128C68.2058 305.128 69.1178 306.112 69.1178 307.552V308.776H66.0218C62.6378 308.776 60.9098 310.192 60.9098 312.712C60.9098 315.136 62.8058 316.288 64.9898 316.288ZM65.3738 314.536C63.9338 314.536 62.8298 313.912 62.8298 312.496C62.8298 311.224 63.7418 310.336 66.0218 310.336H69.1178V312.808C68.3258 313.6 67.0058 314.536 65.3738 314.536ZM79.3868 316H80.5388V314.248H79.3868C78.1388 314.248 77.3708 313.6 77.3708 311.944V305.344H80.5388V303.664H77.3708V301.096H75.4508V303.664H73.4348V305.344H75.4508V311.992C75.4508 313.984 76.2908 316 79.3868 316ZM89.6639 316H91.5839V307.072C92.2559 306.208 93.4079 305.128 94.8959 305.128C96.2879 305.128 97.3679 306.04 97.3679 308.032V316H99.2879V308.704C99.2879 308.152 99.2879 307.648 99.2399 307.12C100.128 306.016 101.256 305.128 102.6 305.128C103.992 305.128 105.072 306.04 105.072 308.032V316H106.992V307.816C106.992 304.936 105.504 303.376 103.056 303.376C101.184 303.376 99.7199 304.48 98.8079 305.584C98.2079 304.12 96.9599 303.376 95.3519 303.376C93.5999 303.376 92.3519 304.312 91.4879 305.296L90.8159 303.664H89.6639V316ZM120.812 303.664H118.892V312.592C118.148 313.48 116.852 314.536 115.316 314.536C113.804 314.536 112.628 313.576 112.628 311.44V303.664H110.708V311.656C110.708 314.656 112.484 316.288 114.932 316.288C116.756 316.288 118.124 315.352 118.964 314.368L119.66 316H120.812V303.664ZM124.797 316H126.717V299.08H124.797V316ZM135.215 316H136.367V314.248H135.215C133.967 314.248 133.199 313.6 133.199 311.944V305.344H136.367V303.664H133.199V301.096H131.279V303.664H129.263V305.344H131.279V311.992C131.279 313.984 132.119 316 135.215 316ZM139.515 316H141.435V303.664H139.515V316ZM139.515 301.72H141.435V299.08H139.515V301.72ZM144.942 309.376H152.454V307.6H144.942V309.376ZM46.48 348.288C49.504 348.288 51.448 346.512 51.448 343.824V343.68H49.528V343.848C49.528 345.408 48.448 346.536 46.48 346.536C44.416 346.536 43.36 345.384 43.36 343.752V339.912C43.36 338.28 44.416 337.128 46.48 337.128C48.424 337.128 49.528 338.232 49.528 339.768V339.912H51.448V339.792C51.448 337.08 49.528 335.376 46.48 335.376C43.312 335.376 41.44 337.224 41.44 339.96V343.704C41.44 346.44 43.312 348.288 46.48 348.288ZM64.7729 335.664H62.8529V344.592C62.1089 345.48 60.8129 346.536 59.2769 346.536C57.7649 346.536 56.5889 345.576 56.5889 343.44V335.664H54.6689V343.656C54.6689 346.656 56.4449 348.288 58.8929 348.288C60.7169 348.288 62.0849 347.352 62.9249 346.368L63.6209 348H64.7729V335.664ZM68.7576 348H70.6776V338.976C71.6376 337.824 72.9096 337.248 74.5416 337.248H74.8056V335.376H74.4936C72.7656 335.376 71.3016 336.36 70.4616 337.296L69.7656 335.664H68.7576V348ZM77.5936 348H79.5136V338.976C80.4736 337.824 81.7456 337.248 83.3776 337.248H83.6416V335.376H83.3296C81.6016 335.376 80.1376 336.36 79.2976 337.296L78.6016 335.664H77.5936V348ZM90.7791 348.288C93.7551 348.288 95.4831 346.728 95.6991 344.304H93.7791C93.5631 345.624 92.6271 346.536 90.7791 346.536C88.6671 346.536 87.5631 345.36 87.5631 343.704V342.48H95.7711V339.912C95.7711 337.152 93.8991 335.376 90.7791 335.376C87.5631 335.376 85.6431 337.224 85.6431 339.96V343.752C85.6431 346.512 87.5631 348.288 90.7791 348.288ZM87.5631 340.92V339.912C87.5631 338.28 88.6671 337.128 90.7071 337.128C92.7951 337.128 93.8511 338.304 93.8511 339.912V340.92H87.5631ZM99.1795 348H101.1V339.072C101.844 338.184 103.14 337.128 104.676 337.128C106.212 337.128 107.412 338.088 107.412 340.224V348H109.332V340.008C109.332 337.008 107.532 335.376 105.06 335.376C103.236 335.376 101.868 336.312 101.004 337.296L100.332 335.664H99.1795V348ZM117.66 348.288C120.684 348.288 122.628 346.512 122.628 343.824V343.68H120.708V343.848C120.708 345.408 119.628 346.536 117.66 346.536C115.596 346.536 114.54 345.384 114.54 343.752V339.912C114.54 338.28 115.596 337.128 117.66 337.128C119.604 337.128 120.708 338.232 120.708 339.768V339.912H122.628V339.792C122.628 337.08 120.708 335.376 117.66 335.376C114.492 335.376 112.62 337.224 112.62 339.96V343.704C112.62 346.44 114.492 348.288 117.66 348.288ZM127.793 351.84H129.401L135.545 336.576V335.664H133.793L130.097 345.408L126.329 335.664H124.529V336.576L129.161 348L127.793 351.12V351.84ZM137.894 348H140.15V344.832H137.894V348ZM137.894 338.832H140.15V335.664H137.894V338.832ZM48.184 380.36C51.784 380.36 54.352 378.272 54.352 374.528V363.2H52.264V374.6C52.264 376.952 50.752 378.44 48.184 378.44C45.592 378.44 44.08 376.928 44.08 374.6V363.2H41.992V374.528C41.992 378.296 44.56 380.36 48.184 380.36ZM63.9679 380.36C67.9999 380.36 70.0159 378.296 70.0159 375.632C70.0159 372.848 67.6639 371.792 64.7599 370.736L63.6319 370.328C61.2079 369.464 60.1039 368.888 60.1039 367.328C60.1039 365.84 61.4959 364.76 63.7759 364.76C65.8639 364.76 67.8079 365.744 67.8079 368.504H69.8959C69.8959 364.472 67.2319 362.84 63.7999 362.84C60.1759 362.84 58.0159 364.736 58.0159 367.472C58.0159 370.04 59.6719 371.048 62.7679 372.152L63.9679 372.584C66.5119 373.544 67.8079 374.192 67.8079 375.728C67.8079 377.264 66.5599 378.44 64.0639 378.44C62.0479 378.44 59.5759 377.504 59.5759 374.552H57.4879C57.4879 378.56 60.5839 380.36 63.9679 380.36ZM75.8434 378.152V365.048H79.6114C82.3954 365.048 83.9794 366.656 83.9794 369.008V374.192C83.9794 376.544 82.3954 378.152 79.6114 378.152H75.8434ZM73.7554 380H79.6114C83.5474 380 86.0674 377.888 86.0674 374.144V369.056C86.0674 365.312 83.5474 363.2 79.6114 363.2H73.7554V380ZM87.9019 382.496H89.4379L91.4299 377.744V376.832H89.3179L87.9019 382.496ZM101.037 380H111.525V378.152H103.125V372.464H110.373V370.616H103.125V365.048H111.501V363.2H101.037V380ZM121.004 380.36C124.604 380.36 127.172 378.272 127.172 374.528V363.2H125.084V374.6C125.084 376.952 123.572 378.44 121.004 378.44C118.412 378.44 116.9 376.928 116.9 374.6V363.2H114.812V374.528C114.812 378.296 117.38 380.36 121.004 380.36ZM131.388 380H133.476V373.352H137.772L141.492 380H143.556V379.304L140.076 373.088C142.044 372.416 143.292 370.928 143.292 368.264C143.292 365.12 141.564 363.2 138.42 363.2H131.388V380ZM133.476 371.504V365.048H138.06C140.028 365.048 141.156 366.104 141.156 368.264C141.156 370.4 140.028 371.504 138.06 371.504H133.476ZM145.605 382.496H147.141L149.133 377.744V376.832H147.021L145.605 382.496ZM42.232 412H44.32V405.352H48.616L52.336 412H54.4V411.304L50.92 405.088C52.888 404.416 54.136 402.928 54.136 400.264C54.136 397.12 52.408 395.2 49.264 395.2H42.232V412ZM44.32 403.504V397.048H48.904C50.872 397.048 52 398.104 52 400.264C52 402.4 50.872 403.504 48.904 403.504H44.32ZM63.8168 412.36C67.4168 412.36 69.9848 410.272 69.9848 406.528V395.2H67.8968V406.6C67.8968 408.952 66.3848 410.44 63.8168 410.44C61.2248 410.44 59.7128 408.928 59.7128 406.6V395.2H57.6248V406.528C57.6248 410.296 60.1928 412.36 63.8168 412.36ZM74.2008 412H81.8568C84.6888 412 86.4168 410.392 86.4168 407.416C86.4168 404.872 85.1448 403.72 83.5848 403.264C84.8808 402.712 85.7688 401.608 85.7688 399.616C85.7688 396.712 84.0648 395.2 81.2568 395.2H74.2008V412ZM76.2888 410.152V404.392H81.4968C83.3448 404.392 84.3288 405.448 84.3288 407.296C84.3288 409.12 83.3448 410.152 81.4968 410.152H76.2888ZM76.2888 402.616V397.048H80.8968C82.7208 397.048 83.6808 398.056 83.6808 399.832C83.6808 401.584 82.7208 402.616 80.9448 402.616H76.2888Z" fill="#FBFBFB"/>
      <path d="M211.776 270.784H224.784C227.12 270.784 229.056 270.464 230.592 269.824C232.128 269.184 233.36 268.272 234.288 267.088C235.216 265.872 235.872 264.416 236.256 262.72C236.64 260.992 236.832 259.072 236.832 256.96C236.832 254.848 236.64 252.944 236.256 251.248C235.872 249.52 235.216 248.064 234.288 246.88C233.36 245.664 232.128 244.736 230.592 244.096C229.056 243.456 227.12 243.136 224.784 243.136H211.776V239.92H224.688C227.344 239.92 229.664 240.32 231.648 241.12C233.632 241.888 235.28 243.008 236.592 244.48C237.936 245.92 238.928 247.696 239.568 249.808C240.24 251.92 240.576 254.304 240.576 256.96C240.576 259.616 240.24 262 239.568 264.112C238.928 266.224 237.936 268.016 236.592 269.488C235.28 270.928 233.632 272.048 231.648 272.848C229.664 273.616 227.344 274 224.688 274H211.776V270.784ZM217.008 239.92H220.464V274H217.008V239.92ZM253.812 274.288C252.148 274.288 250.708 274 249.492 273.424C248.276 272.848 247.268 272.08 246.468 271.12C245.7 270.16 245.124 269.056 244.74 267.808C244.388 266.56 244.212 265.248 244.212 263.872C244.212 262.56 244.388 261.264 244.74 259.984C245.092 258.704 245.652 257.552 246.42 256.528C247.188 255.504 248.18 254.672 249.396 254.032C250.644 253.392 252.164 253.072 253.956 253.072C255.62 253.072 257.028 253.36 258.18 253.936C259.332 254.512 260.26 255.312 260.964 256.336C261.668 257.328 262.148 258.528 262.404 259.936C262.692 261.344 262.788 262.864 262.692 264.496H246.42V261.952H259.332C259.364 261.184 259.284 260.448 259.092 259.744C258.932 259.008 258.612 258.368 258.132 257.824C257.684 257.248 257.092 256.8 256.356 256.48C255.62 256.128 254.724 255.952 253.668 255.952C253.028 255.952 252.34 256.048 251.604 256.24C250.868 256.4 250.18 256.752 249.54 257.296C248.932 257.808 248.42 258.544 248.004 259.504C247.62 260.464 247.428 261.712 247.428 263.248C247.428 264.4 247.556 265.488 247.812 266.512C248.1 267.504 248.516 268.368 249.06 269.104C249.636 269.808 250.356 270.368 251.22 270.784C252.084 271.2 253.124 271.408 254.34 271.408C255.684 271.408 256.9 271.12 257.988 270.544C259.076 269.936 260.004 269.088 260.772 268L262.788 269.632C262.532 270.176 262.148 270.72 261.636 271.264C261.124 271.808 260.484 272.304 259.716 272.752C258.948 273.2 258.068 273.568 257.076 273.856C256.084 274.144 254.996 274.288 253.812 274.288ZM275.893 274.288C274.101 274.288 272.581 273.984 271.333 273.376C270.117 272.768 269.125 271.984 268.357 271.024C267.589 270.032 267.029 268.912 266.677 267.664C266.357 266.416 266.197 265.152 266.197 263.872C266.197 262.4 266.421 261.008 266.869 259.696C267.317 258.384 267.973 257.232 268.837 256.24C269.701 255.248 270.773 254.48 272.053 253.936C273.333 253.36 274.821 253.072 276.517 253.072C277.957 253.072 279.173 253.28 280.165 253.696C281.157 254.08 281.941 254.608 282.517 255.28C283.125 255.92 283.541 256.672 283.765 257.536C284.021 258.4 284.117 259.296 284.053 260.224L280.933 260.416C280.997 258.784 280.613 257.632 279.781 256.96C278.981 256.288 277.909 255.952 276.565 255.952C274.101 255.952 272.293 256.64 271.141 258.016C269.989 259.36 269.413 261.216 269.413 263.584C269.413 265.984 270.005 267.888 271.189 269.296C272.373 270.704 274.069 271.408 276.277 271.408C277.941 271.408 279.317 271.024 280.405 270.256C281.525 269.488 282.405 268.56 283.045 267.472L285.205 269.008C284.853 269.68 284.405 270.336 283.861 270.976C283.317 271.616 282.661 272.176 281.893 272.656C281.125 273.136 280.229 273.536 279.205 273.856C278.213 274.144 277.109 274.288 275.893 274.288Z" fill="#FBFBFB"/>
      <path d="M212.232 316H214.248V302.92L218.952 310.288H220.32L225.024 302.896V316H227.04V299.2H225.096L219.672 307.72L214.248 299.2H212.232V316ZM234.498 316.288C236.418 316.288 237.93 315.28 238.674 314.44L239.394 316H240.546V307.432C240.546 305.104 238.986 303.376 235.77 303.376C232.578 303.376 231.066 305.104 231.066 307.408H232.938C232.938 306.112 233.874 305.128 235.77 305.128C237.714 305.128 238.626 306.112 238.626 307.552V308.776H235.53C232.146 308.776 230.418 310.192 230.418 312.712C230.418 315.136 232.314 316.288 234.498 316.288ZM234.882 314.536C233.442 314.536 232.338 313.912 232.338 312.496C232.338 311.224 233.25 310.336 235.53 310.336H238.626V312.808C237.834 313.6 236.514 314.536 234.882 314.536ZM248.871 316.288C251.895 316.288 253.839 314.512 253.839 311.824V311.68H251.919V311.848C251.919 313.408 250.839 314.536 248.871 314.536C246.807 314.536 245.751 313.384 245.751 311.752V307.912C245.751 306.28 246.807 305.128 248.871 305.128C250.815 305.128 251.919 306.232 251.919 307.768V307.912H253.839V307.792C253.839 305.08 251.919 303.376 248.871 303.376C245.703 303.376 243.831 305.224 243.831 307.96V311.704C243.831 314.44 245.703 316.288 248.871 316.288ZM257.18 316H259.1V307.072C259.844 306.184 261.164 305.128 262.676 305.128C264.212 305.128 265.412 306.088 265.412 308.224V316H267.332V308.008C267.332 305.008 265.484 303.376 263.084 303.376C261.284 303.376 259.94 304.264 259.1 305.176V299.08H257.18V316ZM271.172 316H273.092V303.664H271.172V316ZM271.172 301.72H273.092V299.08H271.172V301.72ZM277.078 316H278.998V307.072C279.742 306.184 281.038 305.128 282.574 305.128C284.11 305.128 285.31 306.088 285.31 308.224V316H287.23V308.008C287.23 305.008 285.43 303.376 282.958 303.376C281.134 303.376 279.766 304.312 278.902 305.296L278.23 303.664H277.078V316ZM295.654 316.288C298.63 316.288 300.358 314.728 300.574 312.304H298.654C298.438 313.624 297.502 314.536 295.654 314.536C293.542 314.536 292.438 313.36 292.438 311.704V310.48H300.646V307.912C300.646 305.152 298.774 303.376 295.654 303.376C292.438 303.376 290.518 305.224 290.518 307.96V311.752C290.518 314.512 292.438 316.288 295.654 316.288ZM292.438 308.92V307.912C292.438 306.28 293.542 305.128 295.582 305.128C297.67 305.128 298.726 306.304 298.726 307.912V308.92H292.438ZM211.992 348H213.912V331.08H211.992V348ZM222.482 348.288C225.458 348.288 227.186 346.728 227.402 344.304H225.482C225.266 345.624 224.33 346.536 222.482 346.536C220.37 346.536 219.266 345.36 219.266 343.704V342.48H227.474V339.912C227.474 337.152 225.602 335.376 222.482 335.376C219.266 335.376 217.346 337.224 217.346 339.96V343.752C217.346 346.512 219.266 348.288 222.482 348.288ZM219.266 340.92V339.912C219.266 338.28 220.37 337.128 222.41 337.128C224.498 337.128 225.554 338.304 225.554 339.912V340.92H219.266ZM234.123 348.288C236.043 348.288 237.555 347.28 238.299 346.44L239.019 348H240.171V339.432C240.171 337.104 238.611 335.376 235.395 335.376C232.203 335.376 230.691 337.104 230.691 339.408H232.563C232.563 338.112 233.499 337.128 235.395 337.128C237.339 337.128 238.251 338.112 238.251 339.552V340.776H235.155C231.771 340.776 230.043 342.192 230.043 344.712C230.043 347.136 231.939 348.288 234.123 348.288ZM234.507 346.536C233.067 346.536 231.963 345.912 231.963 344.496C231.963 343.224 232.875 342.336 235.155 342.336H238.251V344.808C237.459 345.6 236.139 346.536 234.507 346.536ZM244.008 348H245.928V338.976C246.888 337.824 248.16 337.248 249.792 337.248H250.056V335.376H249.744C248.016 335.376 246.552 336.36 245.712 337.296L245.016 335.664H244.008V348ZM252.844 348H254.764V339.072C255.508 338.184 256.804 337.128 258.34 337.128C259.876 337.128 261.076 338.088 261.076 340.224V348H262.996V340.008C262.996 337.008 261.196 335.376 258.724 335.376C256.9 335.376 255.532 336.312 254.668 337.296L253.996 335.664H252.844V348ZM266.836 348H268.756V335.664H266.836V348ZM266.836 333.72H268.756V331.08H266.836V333.72ZM272.742 348H274.662V339.072C275.406 338.184 276.702 337.128 278.238 337.128C279.774 337.128 280.974 338.088 280.974 340.224V348H282.894V340.008C282.894 337.008 281.094 335.376 278.622 335.376C276.798 335.376 275.43 336.312 274.566 337.296L273.894 335.664H272.742V348ZM291.654 352.128C294.654 352.128 296.622 350.592 296.622 347.352V335.664H295.47L294.774 337.296C293.958 336.336 292.59 335.376 290.718 335.376C288.222 335.376 286.374 336.96 286.374 339.912V342.552C286.374 345.504 288.198 347.088 290.79 347.088C292.614 347.088 293.958 346.176 294.702 345.288V347.4C294.702 349.296 293.718 350.376 291.654 350.376C289.638 350.376 288.63 349.296 288.582 348.096H286.662C286.71 350.616 288.702 352.128 291.654 352.128ZM291.126 345.336C289.398 345.336 288.294 344.184 288.294 342.432V340.032C288.294 338.28 289.398 337.128 291.126 337.128C292.638 337.128 293.862 338.112 294.702 339.048V343.416C293.862 344.352 292.638 345.336 291.126 345.336ZM307.042 348H308.962V337.344H311.938V335.664H308.962V335.256C308.962 333.408 309.802 332.784 311.434 332.784C311.65 332.784 311.962 332.808 312.058 332.808V331.08C311.842 331.056 311.53 331.032 311.218 331.032C307.954 331.032 307.042 333.048 307.042 335.664H305.026V337.344H307.042V348ZM319.185 346.536C317.073 346.536 315.969 345.264 315.969 343.632V340.032C315.969 338.4 317.073 337.128 319.185 337.128C321.345 337.128 322.377 338.424 322.377 340.032V343.632C322.377 345.24 321.345 346.536 319.185 346.536ZM319.185 348.288C322.593 348.288 324.297 346.296 324.297 343.704V339.96C324.297 337.368 322.593 335.376 319.185 335.376C315.777 335.376 314.049 337.368 314.049 339.96V343.704C314.049 346.296 315.777 348.288 319.185 348.288ZM327.726 348H329.646V338.976C330.606 337.824 331.878 337.248 333.51 337.248H333.774V335.376H333.462C331.734 335.376 330.27 336.36 329.43 337.296L328.734 335.664H327.726V348ZM212.232 380H214.32V372.488H217.032L222.072 380H224.136V379.304L218.832 371.456L223.824 363.896V363.2H221.88L217.008 370.64H214.32V363.2H212.232V380ZM230.959 380H233.047V373.256L238.975 363.896V363.2H237.079L232.015 371.24L227.071 363.2H225.007V363.896L230.959 373.328V380ZM247.504 380.36C250.744 380.36 253.624 378.56 253.624 374.648V374.408H251.536V374.648C251.536 377.264 249.424 378.44 247.48 378.44C244.648 378.44 243.16 376.952 243.16 374.456V368.744C243.16 366.248 244.648 364.76 247.48 364.76C249.424 364.76 251.536 365.936 251.536 368.552V368.792H253.624V368.552C253.624 364.64 250.744 362.84 247.504 362.84C243.448 362.84 241.072 365.072 241.072 368.888V374.312C241.072 378.128 243.448 380.36 247.504 380.36ZM275.973 379.088L273.693 376.712C274.533 375.248 274.941 373.472 274.941 371.648H273.141C273.141 373.016 272.877 374.288 272.349 375.344L268.125 370.832L269.157 369.992C270.189 369.176 271.029 368.072 271.029 366.68C271.029 364.424 269.421 363.032 267.213 363.032C264.909 363.032 263.253 364.544 263.253 366.704C263.253 368.36 264.141 369.296 265.005 370.256L265.437 370.736L264.909 371.168C263.013 372.68 262.197 373.88 262.197 375.728C262.197 378.416 264.285 380.288 267.549 380.288C269.661 380.288 271.341 379.496 272.541 378.2L274.269 380H275.973V379.088ZM267.597 378.536C265.557 378.536 264.117 377.336 264.117 375.536C264.117 374.264 264.741 373.592 266.085 372.464L266.685 371.984L271.317 376.904C270.429 377.912 269.157 378.536 267.597 378.536ZM265.173 366.752C265.173 365.576 265.989 364.784 267.189 364.784C268.269 364.784 269.157 365.504 269.157 366.656C269.157 367.544 268.701 368.12 267.933 368.744L266.925 369.56L266.325 368.936C265.437 367.976 265.173 367.544 265.173 366.752ZM283.325 380H285.245L286.973 375.536H294.221L295.901 380H297.965V379.304L291.677 363.2H289.589L283.325 379.304V380ZM287.597 373.76L290.597 365.984L293.573 373.76H287.597ZM300.755 380H302.771V366.92L307.475 374.288H308.843L313.547 366.896V380H315.563V363.2H313.619L308.195 371.72L302.771 363.2H300.755V380ZM320.021 380H330.701V378.152H322.109V363.2H320.021V380Z" fill="#FBFBFB"/>
      <path d="M210 202.753C251 112.253 334 27.2525 393 162.753" stroke="#FBFBFB" stroke-width="1.5" stroke-linecap="round" stroke-linejoin="round"/>
      <path d="M44.2553 211C37.7554 127.434 157.073 7.84083 210 200.992" stroke="#FBFBFB" stroke-width="1.5" stroke-linecap="round" stroke-linejoin="round"/>
      <path d="M296.448 117.412C271.977 129.092 249.074 156.522 230.855 188.597" stroke="#FBFBFB" stroke-width="1.5" stroke-linecap="round" stroke-linejoin="round"/>
      <circle cx="47" cy="209" r="7" fill="#FBFBFB"/>
      <circle cx="210" cy="209" r="7" fill="#FBFBFB"/>
      <path fill-rule="evenodd" clip-rule="evenodd" d="M266.452 132.537C266.452 132.537 258.162 125.306 250.923 133.453C258.205 125.259 250.007 117.924 250.007 117.924C250.007 117.924 257.843 125.665 265.536 117.008C257.843 125.665 266.452 132.537 266.452 132.537Z" fill="#FBFBFB"/>
    </g>
  </g>
  <defs>
    <clipPath id="clip0">
      <rect width="305" height="455" fill="white"/>
    </clipPath>
    <clipPath id="clip1">
      <rect width="368" height="321.252" fill="white" transform="translate(32 92)"/>
    </clipPath>
  </defs>
</svg>
