<svg width="640" height="160" viewBox="0 0 640 160" fill="none" xmlns="http://www.w3.org/2000/svg">
  <rect width="640" height="160" rx="12" fill="#BA9E82"/>
  <path d="M42.144 60.48C47.936 60.48 50.88 57.568 50.88 53.664C50.88 49.568 47.2 48.192 43.2 46.752L42.304 46.432C40.16 45.664 38.528 45.28 38.528 43.616C38.528 42.176 39.936 41.28 42.176 41.28C44.224 41.28 46.144 42.112 46.144 44.672H50.688C50.688 39.264 47.072 37.12 42.24 37.12C37.088 37.12 33.952 39.808 33.952 43.872C33.952 47.68 37.088 49.12 39.936 50.208L40.864 50.56C44.256 51.84 46.08 52.288 46.08 53.888C46.08 55.296 44.8 56.32 42.4 56.32C40.544 56.32 37.92 55.648 37.92 52.736H33.376C33.376 57.92 37.344 60.48 42.144 60.48ZM55.246 60H59.406V48.384C59.918 47.808 61.262 46.624 62.894 46.624C64.334 46.624 65.486 47.552 65.486 49.6V60H69.646V49.344C69.646 45.28 67.438 42.848 63.822 42.848C61.838 42.848 60.43 43.584 59.406 44.416V37.44H55.246V60ZM78.9768 60.384C81.4728 60.384 82.9128 59.488 84.1288 58.368L85.3448 60H87.7448V48.608C87.7448 45.248 85.5048 42.848 80.8968 42.848C76.2888 42.848 74.1448 45.248 74.1448 48.544H78.2088C78.2088 47.456 79.0088 46.624 80.8968 46.624C82.7528 46.624 83.5848 47.456 83.5848 48.896V49.952H80.1288C75.5848 49.952 73.3448 51.936 73.3448 55.392C73.3448 58.688 75.9688 60.384 78.9768 60.384ZM79.8408 56.608C78.3368 56.608 77.5048 55.968 77.5048 54.848C77.5048 54.144 77.9528 53.12 80.1288 53.12H83.5848V54.976C82.5928 56.064 81.4408 56.608 79.8408 56.608ZM92.5898 60H96.7498V48.384C97.6778 47.264 98.7978 46.848 100.558 46.848H101.422V42.848H100.558C98.3498 42.848 97.0058 43.968 96.2058 44.896L94.9898 43.232H92.5898V60ZM111.056 60.384C115.152 60.384 117.68 58.336 118 54.912H113.84C113.552 55.968 112.656 56.608 111.056 56.608C108.912 56.608 107.92 55.584 107.92 54.176V52.992H118.032V48.992C118.032 45.056 115.184 42.848 111.056 42.848C106.672 42.848 103.76 45.216 103.76 49.056V54.24C103.76 58.176 106.672 60.384 111.056 60.384ZM107.92 49.824V48.992C107.92 47.584 108.912 46.624 110.896 46.624C112.816 46.624 113.872 47.552 113.872 48.992V49.824H107.92ZM132.049 65.12H135.441L143.185 45.184V43.232H139.409L135.665 54.336L131.697 43.232H127.857V45.184L133.617 60L132.049 63.616V65.12ZM152.806 56.608C150.662 56.608 149.67 55.392 149.67 53.984V49.248C149.67 47.84 150.662 46.624 152.806 46.624C154.886 46.624 155.91 47.808 155.91 49.248V53.984C155.91 55.424 154.886 56.608 152.806 56.608ZM152.806 60.384C157.638 60.384 160.07 57.664 160.07 54.176V49.056C160.07 45.568 157.638 42.848 152.806 42.848C147.942 42.848 145.51 45.568 145.51 49.056V54.176C145.51 57.664 147.942 60.384 152.806 60.384ZM178.452 43.232H174.292V54.88C173.78 55.456 172.468 56.608 170.868 56.608C169.46 56.608 168.34 55.712 168.34 53.696V43.232H164.18V53.952C164.18 57.984 166.356 60.384 169.94 60.384C172.244 60.384 173.78 59.36 174.836 58.368L176.052 60H178.452V43.232ZM183.434 60H187.594V48.384C188.522 47.264 189.642 46.848 191.402 46.848H192.266V42.848H191.402C189.194 42.848 187.85 43.968 187.05 44.896L185.834 43.232H183.434V60ZM203.152 60H207.312V37.44H203.152V60ZM212.309 60H216.469V43.232H212.309V60ZM212.309 40.96H216.469V37.44H212.309V40.96ZM221.465 60H225.625V48.384C226.137 47.808 227.481 46.624 229.113 46.624C230.553 46.624 231.705 47.552 231.705 49.6V60H235.865V49.344C235.865 45.28 233.657 42.848 230.041 42.848C227.705 42.848 226.137 43.872 225.081 44.896L223.865 43.232H221.465V60ZM240.684 60H244.844V53.216H246.604L250.956 60H254.668V58.048L250.348 51.296L254.252 45.184V43.232H250.668L246.604 49.6H244.844V37.44H240.684V60Z" fill="#FBFBFB"/>
  <path d="M33.992 90H35.912V81.072C36.584 80.208 37.736 79.128 39.224 79.128C40.616 79.128 41.696 80.04 41.696 82.032V90H43.616V82.704C43.616 82.152 43.616 81.648 43.568 81.12C44.456 80.016 45.584 79.128 46.928 79.128C48.32 79.128 49.4 80.04 49.4 82.032V90H51.32V81.816C51.32 78.936 49.832 77.376 47.384 77.376C45.512 77.376 44.048 78.48 43.136 79.584C42.536 78.12 41.288 77.376 39.68 77.376C37.928 77.376 36.68 78.312 35.816 79.296L35.144 77.664H33.992V90ZM59.7401 90.288C62.7161 90.288 64.4441 88.728 64.6601 86.304H62.7401C62.5241 87.624 61.5881 88.536 59.7401 88.536C57.6281 88.536 56.5241 87.36 56.5241 85.704V84.48H64.7321V81.912C64.7321 79.152 62.8601 77.376 59.7401 77.376C56.5241 77.376 54.6041 79.224 54.6041 81.96V85.752C54.6041 88.512 56.5241 90.288 59.7401 90.288ZM56.5241 82.92V81.912C56.5241 80.28 57.6281 79.128 59.6681 79.128C61.7561 79.128 62.8121 80.304 62.8121 81.912V82.92H56.5241ZM68.1404 90H70.0604V80.976C71.0204 79.824 72.2924 79.248 73.9244 79.248H74.1884V77.376H73.8764C72.1484 77.376 70.6844 78.36 69.8444 79.296L69.1484 77.664H68.1404V90ZM81.23 90.288C84.254 90.288 86.198 88.512 86.198 85.824V85.68H84.278V85.848C84.278 87.408 83.198 88.536 81.23 88.536C79.166 88.536 78.11 87.384 78.11 85.752V81.912C78.11 80.28 79.166 79.128 81.23 79.128C83.174 79.128 84.278 80.232 84.278 81.768V81.912H86.198V81.792C86.198 79.08 84.278 77.376 81.23 77.376C78.062 77.376 76.19 79.224 76.19 81.96V85.704C76.19 88.44 78.062 90.288 81.23 90.288ZM99.5229 77.664H97.6029V86.592C96.8589 87.48 95.5629 88.536 94.0269 88.536C92.5149 88.536 91.3389 87.576 91.3389 85.44V77.664H89.4189V85.656C89.4189 88.656 91.1949 90.288 93.6429 90.288C95.4669 90.288 96.8349 89.352 97.6749 88.368L98.3709 90H99.5229V77.664ZM103.508 90H105.428V80.976C106.388 79.824 107.66 79.248 109.292 79.248H109.556V77.376H109.244C107.516 77.376 106.052 78.36 105.212 79.296L104.516 77.664H103.508V90ZM114.636 93.84H116.244L122.388 78.576V77.664H120.636L116.94 87.408L113.172 77.664H111.372V78.576L116.004 90L114.636 93.12V93.84ZM129.514 88.536C127.402 88.536 126.298 87.264 126.298 85.632V82.032C126.298 80.4 127.402 79.128 129.514 79.128C131.674 79.128 132.706 80.424 132.706 82.032V85.632C132.706 87.24 131.674 88.536 129.514 88.536ZM129.514 90.288C132.922 90.288 134.626 88.296 134.626 85.704V81.96C134.626 79.368 132.922 77.376 129.514 77.376C126.105 77.376 124.378 79.368 124.378 81.96V85.704C124.378 88.296 126.105 90.288 129.514 90.288ZM137.511 90H139.767V86.832H137.511V90ZM143.539 90H145.459V77.664H143.539V90ZM143.539 75.72H145.459V73.08H143.539V75.72ZM154.029 88.536C151.917 88.536 150.813 87.264 150.813 85.632V82.032C150.813 80.4 151.917 79.128 154.029 79.128C156.189 79.128 157.221 80.424 157.221 82.032V85.632C157.221 87.24 156.189 88.536 154.029 88.536ZM154.029 90.288C157.437 90.288 159.141 88.296 159.141 85.704V81.96C159.141 79.368 157.437 77.376 154.029 77.376C150.621 77.376 148.893 79.368 148.893 81.96V85.704C148.893 88.296 150.621 90.288 154.029 90.288ZM161.141 92.4H162.869L170.117 72.504V71.808H168.389L161.141 91.704V92.4ZM171.711 90H173.631V81.072C174.303 80.208 175.455 79.128 176.943 79.128C178.335 79.128 179.415 80.04 179.415 82.032V90H181.335V82.704C181.335 82.152 181.335 81.648 181.287 81.12C182.175 80.016 183.303 79.128 184.647 79.128C186.039 79.128 187.119 80.04 187.119 82.032V90H189.039V81.816C189.039 78.936 187.551 77.376 185.103 77.376C183.231 77.376 181.767 78.48 180.855 79.584C180.255 78.12 179.007 77.376 177.399 77.376C175.647 77.376 174.399 78.312 173.535 79.296L172.863 77.664H171.711V90ZM192.875 90H194.795V80.976C195.755 79.824 197.027 79.248 198.659 79.248H198.923V77.376H198.611C196.883 77.376 195.419 78.36 194.579 79.296L193.883 77.664H192.875V90ZM199.79 92.4H201.518L208.766 72.504V71.808H207.038L199.79 91.704V92.4ZM217.093 90.36C220.789 90.36 222.877 88.44 222.877 85.392C222.877 83.16 221.413 81.672 219.853 81.192C221.197 80.592 222.373 79.488 222.373 77.4C222.373 74.88 220.525 72.84 217.093 72.84C213.661 72.84 211.813 74.88 211.813 77.4C211.813 79.488 212.989 80.592 214.357 81.192C212.773 81.672 211.309 83.16 211.309 85.392C211.309 88.44 213.397 90.36 217.093 90.36ZM213.709 77.544C213.709 75.792 214.933 74.592 217.093 74.592C219.253 74.592 220.453 75.792 220.453 77.544C220.453 79.344 219.133 80.496 217.093 80.496C215.053 80.496 213.709 79.344 213.709 77.544ZM213.253 85.32C213.253 83.376 214.693 82.008 217.093 82.008C219.493 82.008 220.933 83.376 220.933 85.32C220.933 87.264 219.589 88.608 217.093 88.608C214.597 88.608 213.253 87.264 213.253 85.32ZM232.606 88.44C229.774 88.44 228.238 86.784 228.238 84.432V78.768C228.238 76.416 229.774 74.76 232.606 74.76C235.414 74.76 236.974 76.416 236.974 78.768V84.432C236.974 86.784 235.414 88.44 232.606 88.44ZM232.606 90.36C236.542 90.36 239.062 88.152 239.062 84.336V78.864C239.062 75.048 236.542 72.84 232.606 72.84C228.67 72.84 226.15 75.048 226.15 78.864V84.336C226.15 88.152 228.67 90.36 232.606 90.36ZM249.013 88.44C246.181 88.44 244.645 86.784 244.645 84.432V78.768C244.645 76.416 246.181 74.76 249.013 74.76C251.821 74.76 253.381 76.416 253.381 78.768V84.432C253.381 86.784 251.821 88.44 249.013 88.44ZM249.013 90.36C252.949 90.36 255.469 88.152 255.469 84.336V78.864C255.469 75.048 252.949 72.84 249.013 72.84C245.077 72.84 242.557 75.048 242.557 78.864V84.336C242.557 88.152 245.077 90.36 249.013 90.36ZM257.769 90H259.761L264.465 83.04L269.169 90H271.281V89.304L265.785 81.384L270.969 73.896V73.2H269.001L264.513 79.752L260.169 73.2H258.057V73.896L263.217 81.384L257.769 89.304V90ZM278.55 90.288C281.574 90.288 283.518 88.512 283.518 85.824V85.68H281.598V85.848C281.598 87.408 280.518 88.536 278.55 88.536C276.486 88.536 275.43 87.384 275.43 85.752V81.912C275.43 80.28 276.486 79.128 278.55 79.128C280.494 79.128 281.598 80.232 281.598 81.768V81.912H283.518V81.792C283.518 79.08 281.598 77.376 278.55 77.376C275.382 77.376 273.51 79.224 273.51 81.96V85.704C273.51 88.44 275.382 90.288 278.55 90.288ZM291.971 90.36C295.331 90.36 297.443 88.176 297.443 84.48C297.443 80.544 295.139 78.936 292.403 78.936C290.915 78.936 289.907 79.368 289.019 80.064L289.475 74.952H296.483V73.2H287.891L287.099 82.032H288.995C289.571 81.264 290.603 80.544 292.067 80.544C294.131 80.544 295.523 81.96 295.523 84.504C295.523 86.952 294.371 88.608 292.019 88.608C290.027 88.608 288.611 87.408 288.347 85.536H286.427C286.811 88.608 288.923 90.36 291.971 90.36ZM301.162 90H308.818C311.65 90 313.378 88.392 313.378 85.416C313.378 82.872 312.106 81.72 310.546 81.264C311.842 80.712 312.73 79.608 312.73 77.616C312.73 74.712 311.026 73.2 308.218 73.2H301.162V90ZM303.25 88.152V82.392H308.458C310.306 82.392 311.29 83.448 311.29 85.296C311.29 87.12 310.306 88.152 308.458 88.152H303.25ZM303.25 80.616V75.048H307.858C309.682 75.048 310.642 76.056 310.642 77.832C310.642 79.584 309.682 80.616 307.906 80.616H303.25ZM322.84 90.36C326.44 90.36 329.008 88.272 329.008 84.528V73.2H326.92V84.6C326.92 86.952 325.408 88.44 322.84 88.44C320.248 88.44 318.736 86.928 318.736 84.6V73.2H316.648V84.528C316.648 88.296 319.216 90.36 322.84 90.36ZM337.568 90.288C340.544 90.288 342.272 88.728 342.488 86.304H340.568C340.352 87.624 339.416 88.536 337.568 88.536C335.456 88.536 334.352 87.36 334.352 85.704V84.48H342.56V81.912C342.56 79.152 340.688 77.376 337.568 77.376C334.352 77.376 332.432 79.224 332.432 81.96V85.752C332.432 88.512 334.352 90.288 337.568 90.288ZM334.352 82.92V81.912C334.352 80.28 335.456 79.128 337.496 79.128C339.584 79.128 340.64 80.304 340.64 81.912V82.92H334.352ZM345.321 90H355.857V88.248H347.937L351.825 84.336C353.745 82.392 355.641 80.568 355.641 77.856C355.641 75.024 353.769 72.84 350.481 72.84C347.481 72.84 345.273 74.832 345.249 78.36H347.169C347.193 76.08 348.345 74.592 350.505 74.592C352.593 74.592 353.721 75.96 353.721 77.904C353.721 79.896 352.305 81.312 350.385 83.256L345.321 88.416V90ZM359.638 90H361.726V77.088L370.078 90H371.998V73.2H369.91V86.136L361.558 73.2H359.638V90ZM381.458 88.608C379.178 88.608 377.906 87.048 377.906 84.912V78.312C377.906 76.152 379.178 74.592 381.458 74.592C383.762 74.592 385.034 76.152 385.034 78.312V84.912C385.034 87.048 383.762 88.608 381.458 88.608ZM381.458 90.36C384.818 90.36 386.954 88.32 386.954 84.792V78.408C386.954 74.88 384.818 72.84 381.458 72.84C378.122 72.84 375.986 74.88 375.986 78.408V84.792C375.986 88.32 378.122 90.36 381.458 90.36ZM395.607 94.128C398.607 94.128 400.575 92.592 400.575 89.352V77.664H399.423L398.727 79.296C397.911 78.336 396.543 77.376 394.671 77.376C392.175 77.376 390.327 78.96 390.327 81.912V84.552C390.327 87.504 392.151 89.088 394.743 89.088C396.567 89.088 397.911 88.176 398.655 87.288V89.4C398.655 91.296 397.671 92.376 395.607 92.376C393.591 92.376 392.583 91.296 392.535 90.096H390.615C390.663 92.616 392.655 94.128 395.607 94.128ZM395.079 87.336C393.351 87.336 392.247 86.184 392.247 84.432V82.032C392.247 80.28 393.351 79.128 395.079 79.128C396.591 79.128 397.815 80.112 398.655 81.048V85.416C397.815 86.352 396.591 87.336 395.079 87.336Z" fill="#FBFBFB"/>
  <g clip-path="url(#clip0)">
    <path d="M552.875 61.125V89.125H607.125V61.125" stroke="#FBFBFB" stroke-width="1.5" stroke-miterlimit="10"/>
    <path d="M561.917 53.25L552.875 61.125L580 79.5L607.125 61.125L598.083 53.25" stroke="#FBFBFB" stroke-width="1.5" stroke-linejoin="round"/>
    <path d="M595.75 49.75C595.75 49.75 580 49.8951 580 65.5C580 49.8039 564.25 49.75 564.25 49.75C564.25 49.75 580 50.583 580 34C580 50.583 595.75 49.75 595.75 49.75" stroke="#FBFBFB" stroke-width="1.5"/>
  </g>
  <defs>
    <clipPath id="clip0">
      <rect width="56" height="56" fill="white" transform="translate(552 34)"/>
    </clipPath>
  </defs>
</svg>
