<svg width="215" height="27" viewBox="0 0 215 27" fill="none" xmlns="http://www.w3.org/2000/svg">
<path d="M19.4161 6.23C18.7411 4.556 17.6611 3.152 16.2031 2.045C14.7451 0.937999 12.9361 0.398 10.8031 0.398C7.96811 0.398 5.61911 1.343 3.75611 3.233C1.86611 5.15 0.921109 7.553 0.921109 10.469C0.921109 13.358 1.86611 15.734 3.75611 17.597C5.61911 19.487 7.96811 20.432 10.8031 20.432C14.6101 20.432 17.4991 18.488 19.4431 14.573L16.1221 13.034C14.9881 15.599 13.2061 16.868 10.7761 16.868C9.04811 16.868 7.59011 16.247 6.42911 15.005C5.24111 13.79 4.64711 12.251 4.64711 10.415C4.64711 8.552 5.24111 6.986 6.42911 5.744C7.61711 4.529 9.07511 3.908 10.8301 3.908C13.2871 3.908 15.0151 5.204 16.0681 7.769L19.4161 6.23ZM25.2789 20V9.929H28.5729V6.5H21.9039V20H25.2789ZM36.1671 9.281C37.5981 9.281 38.8401 10.064 39.0831 11.279H33.1701C33.7101 9.956 34.7091 9.281 36.1671 9.281ZM39.3801 14.978C38.7591 16.382 37.6791 17.084 36.1671 17.084C34.4121 17.084 33.1701 15.977 32.8731 14.114H39.5151V11.684H42.5931V11.414C42.5931 10.145 41.9721 8.957 40.7571 7.796C39.5421 6.635 38.0031 6.068 36.1941 6.068C34.2231 6.068 32.6031 6.716 31.3611 8.039C30.1191 9.362 29.4981 11.09 29.4981 13.223C29.4981 15.356 30.1191 17.084 31.3611 18.407C32.6031 19.757 34.2231 20.432 36.1941 20.432C39.1371 20.432 41.4321 18.893 42.3771 16.328L39.3801 14.978ZM49.9978 16.976C48.3778 16.976 47.5948 15.95 47.5948 14.789C47.5948 13.736 48.4048 12.818 49.5658 12.818V9.821H52.8328V13.979C52.8328 15.734 51.6988 16.976 49.9978 16.976ZM49.1608 6.5V9.443C47.7028 9.443 46.4878 9.956 45.4888 11.009C44.4898 12.062 44.0038 13.331 44.0038 14.789C44.0038 16.274 44.5168 17.543 45.5428 18.596C46.5418 19.676 47.7568 20.216 49.1878 20.216C51.4828 20.216 52.5358 19.379 53.5348 17.84L53.6968 20H56.3428V6.5H49.1608ZM66.772 16.22C66.448 16.814 65.962 17.111 65.341 17.111C64.693 17.111 64.099 16.571 64.099 15.572V9.821H68.365V6.5H64.099V2.99H63.586L58.159 9.227V9.821H60.724V16.112C60.724 17.381 61.156 18.434 62.02 19.271C62.884 20.135 63.964 20.54 65.287 20.54C65.935 20.54 66.637 20.297 67.42 19.811C68.176 19.325 68.689 18.731 68.959 18.056L66.772 16.22ZM76.5352 9.281C77.9662 9.281 79.2082 10.064 79.4512 11.279H73.5382C74.0782 9.956 75.0772 9.281 76.5352 9.281ZM79.7482 14.978C79.1272 16.382 78.0472 17.084 76.5352 17.084C74.7802 17.084 73.5382 15.977 73.2412 14.114H79.8832V11.684H82.9612V11.414C82.9612 10.145 82.3402 8.957 81.1252 7.796C79.9102 6.635 78.3712 6.068 76.5622 6.068C74.5912 6.068 72.9712 6.716 71.7292 8.039C70.4872 9.362 69.8662 11.09 69.8662 13.223C69.8662 15.356 70.4872 17.084 71.7292 18.407C72.9712 19.757 74.5912 20.432 76.5622 20.432C79.5052 20.432 81.8002 18.893 82.7452 16.328L79.7482 14.978ZM93.768 10.469C94.416 11.252 94.74 12.17 94.74 13.25C94.74 14.33 94.416 15.248 93.768 16.004C93.12 16.787 92.283 17.165 91.257 17.165C90.231 17.165 89.394 16.787 88.746 16.004C88.098 15.248 87.774 14.33 87.774 13.25C87.774 12.17 88.098 11.252 88.746 10.469C89.394 9.713 90.231 9.335 91.257 9.335C92.283 9.335 93.12 9.713 93.768 10.469ZM95.253 20H97.899V0.289999H94.524V7.256C93.741 6.473 92.553 6.068 90.96 6.068C89.097 6.068 87.504 6.743 86.181 8.12C84.858 9.497 84.21 11.198 84.21 13.25C84.21 15.302 84.858 17.003 86.127 18.38C87.396 19.757 88.935 20.432 90.744 20.432C92.634 20.432 94.092 19.73 95.091 18.299L95.253 20ZM115.827 10.469C116.475 11.252 116.799 12.17 116.799 13.25C116.799 14.33 116.475 15.248 115.827 16.004C115.179 16.787 114.342 17.165 113.316 17.165C112.29 17.165 111.453 16.787 110.805 16.004C110.157 15.248 109.833 14.33 109.833 13.25C109.833 12.17 110.157 11.252 110.805 10.469C111.453 9.713 112.29 9.335 113.316 9.335C114.342 9.335 115.179 9.713 115.827 10.469ZM109.482 18.299C110.481 19.73 111.939 20.432 113.829 20.432C115.638 20.432 117.204 19.757 118.473 18.38C119.742 17.003 120.363 15.302 120.363 13.25C120.363 11.198 119.715 9.497 118.392 8.12C117.069 6.743 115.476 6.068 113.613 6.068C112.02 6.068 110.832 6.473 110.049 7.256V0.289999H106.674V20H109.32L109.482 18.299ZM127.578 26.75L135.273 6.5H131.655L130.602 9.389C129.441 12.656 128.604 15.032 128.145 16.463C127.254 13.52 126.471 11.171 125.85 9.389L124.824 6.5H121.017L126.336 20.621L124.014 26.75H127.578ZM147.194 20.432C148.895 20.432 150.326 19.892 151.433 18.785C152.54 17.678 153.107 16.382 153.107 14.843C153.107 14.303 153.026 13.79 152.864 13.277C152.513 12.278 152.216 11.711 151.379 10.901C150.974 10.496 150.65 10.226 150.461 10.037C150.245 9.875 149.894 9.605 149.408 9.254C148.922 8.903 148.652 8.714 148.571 8.66L147.923 8.174C147.68 8.012 146.546 7.202 146.411 7.067C145.952 6.716 145.358 6.068 145.466 5.528C145.466 4.448 146.087 3.908 147.302 3.908C148.301 3.908 149.084 4.583 149.651 5.96L152.756 4.637C152.405 3.476 151.73 2.477 150.785 1.64C149.84 0.802999 148.652 0.398 147.248 0.398C145.709 0.398 144.359 0.884 143.252 1.856C142.145 2.828 141.578 4.016 141.578 5.447C141.578 6.014 141.713 6.608 141.848 7.04C142.172 7.796 142.442 8.363 143.009 8.903C143.468 9.362 143.522 9.47 144.089 9.902C144.359 10.118 144.548 10.253 144.629 10.307C144.683 10.361 145.709 11.09 145.709 11.09L146.573 11.711C146.816 11.9 147.383 12.305 147.599 12.44L148.679 13.304C149.192 13.79 149.408 14.249 149.408 14.87C149.408 16.031 148.598 16.949 147.275 16.949C145.79 16.949 144.548 15.653 144.548 13.817H140.903C140.903 15.788 141.497 17.381 142.685 18.596C143.873 19.811 145.385 20.432 147.194 20.432ZM159.356 12.818C159.356 10.685 160.409 9.416 162.218 9.416C164.054 9.416 165.107 10.685 165.107 12.818V20H168.482V12.818C168.482 10.793 167.969 9.146 166.916 7.904C165.863 6.689 164.486 6.068 162.731 6.068C161.165 6.068 160.031 6.608 159.356 7.688V0.398H155.981V20H159.356V12.818ZM178.51 20.513C180.373 20.513 181.885 19.865 183.046 18.596C184.207 17.327 184.774 15.707 184.774 13.682V6.5H181.399V13.682C181.399 15.815 180.346 17.084 178.51 17.084C176.701 17.084 175.648 15.815 175.648 13.682V6.5H172.273V13.682C172.273 15.707 172.867 17.327 174.028 18.596C175.189 19.865 176.674 20.513 178.51 20.513ZM192.051 16.382L194.562 13.466L197.667 20H201.528L196.857 10.874L200.637 6.5H196.344L192.051 11.765V0.398H188.676V20H192.051V16.382ZM208.623 16.976C207.003 16.976 206.22 15.95 206.22 14.789C206.22 13.736 207.03 12.818 208.191 12.818V9.821H211.458V13.979C211.458 15.734 210.324 16.976 208.623 16.976ZM207.786 6.5V9.443C206.328 9.443 205.113 9.956 204.114 11.009C203.115 12.062 202.629 13.331 202.629 14.789C202.629 16.274 203.142 17.543 204.168 18.596C205.167 19.676 206.382 20.216 207.813 20.216C210.108 20.216 211.161 19.379 212.16 17.84L212.322 20H214.968V6.5H207.786Z" fill="#FBFBFB"/>
</svg>
