<svg width="305" height="455" viewBox="0 0 305 455" fill="none" xmlns="http://www.w3.org/2000/svg">
  <g clip-path="url(#clip0)">
    <rect width="305" height="455" rx="12" fill="#FF592C"/>
    <path d="M31.392 91.994H25.428V89.18H33.534L43.992 117.488L41.808 117.614L51.468 89.18H59.952V91.994H53.232L44.244 119H41.472L31.392 91.994ZM25.428 116.186H37.356V119H25.428V116.186ZM30.468 89.18H33.45V119H30.468V89.18ZM48.192 116.186H59.994V119H48.192V116.186ZM52.014 89.18H54.996V119H52.014V89.18ZM67.9632 119.252C67.0112 119.252 66.1852 119.126 65.4852 118.874C64.8132 118.594 64.2532 118.23 63.8052 117.782C63.3852 117.334 63.0772 116.816 62.8812 116.228C62.6852 115.612 62.5872 114.954 62.5872 114.254C62.5872 112.574 63.2032 111.244 64.4352 110.264C65.6672 109.256 67.7112 108.752 70.5672 108.752H74.2632V110.852H69.5172C68.0052 110.852 66.8992 111.118 66.1992 111.65C65.5272 112.154 65.1912 112.896 65.1912 113.876C65.1912 114.772 65.4572 115.486 65.9892 116.018C66.5492 116.522 67.4172 116.774 68.5932 116.774C70.3852 116.774 71.7292 116.2 72.6252 115.052C73.5212 113.904 73.9692 112.49 73.9692 110.81V107.45C73.9692 106.582 73.8572 105.882 73.6332 105.35C73.4372 104.79 73.1432 104.356 72.7512 104.048C72.3872 103.74 71.9252 103.53 71.3652 103.418C70.8052 103.278 70.1892 103.208 69.5172 103.208C69.0412 103.208 68.5792 103.25 68.1312 103.334C67.6832 103.39 67.2772 103.53 66.9132 103.754C66.5772 103.978 66.3112 104.314 66.1152 104.762C65.9472 105.182 65.9192 105.756 66.0312 106.484L63.3432 106.61C63.2312 105.854 63.2732 105.126 63.4692 104.426C63.6652 103.698 64.0292 103.068 64.5612 102.536C65.0932 101.976 65.7932 101.528 66.6612 101.192C67.5572 100.856 68.6352 100.688 69.8952 100.688C70.8192 100.688 71.6872 100.786 72.4992 100.982C73.3112 101.15 74.0252 101.486 74.6412 101.99C75.2852 102.494 75.7892 103.194 76.1532 104.09C76.5172 104.986 76.6992 106.148 76.6992 107.576V114.548C76.6992 115.36 76.8392 115.99 77.1192 116.438C77.3992 116.858 77.7772 117.068 78.2532 117.068C78.7012 117.068 79.0792 116.914 79.3872 116.606C79.6952 116.298 79.9192 115.948 80.0592 115.556L81.8232 116.69C81.3472 117.698 80.7732 118.384 80.1012 118.748C79.4572 119.084 78.7292 119.252 77.9172 119.252C75.3692 119.252 74.0952 117.978 74.0952 115.43V115.01H74.0112C73.5352 116.494 72.7792 117.572 71.7432 118.244C70.7072 118.916 69.4472 119.252 67.9632 119.252ZM88.1596 119.126C86.8996 119.518 85.9616 120.12 85.3456 120.932C84.7576 121.772 84.4636 122.598 84.4636 123.41C84.4636 124.586 85.0516 125.482 86.2276 126.098C87.4036 126.714 88.9576 127.022 90.8896 127.022C91.8136 127.022 92.6816 126.938 93.4936 126.77C94.3056 126.63 95.0196 126.392 95.6356 126.056C96.2516 125.72 96.7416 125.286 97.1056 124.754C97.4696 124.25 97.6516 123.62 97.6516 122.864C97.6516 122.164 97.4836 121.59 97.1476 121.142C96.8396 120.694 96.4196 120.33 95.8876 120.05C95.3836 119.798 94.7816 119.616 94.0816 119.504C93.3816 119.42 92.6536 119.378 91.8976 119.378H88.7896C87.6976 119.378 86.7736 119.266 86.0176 119.042C85.2616 118.818 84.6596 118.524 84.2116 118.16C83.7636 117.796 83.4416 117.39 83.2456 116.942C83.0496 116.466 82.9516 115.99 82.9516 115.514C82.9516 114.618 83.2596 113.778 83.8756 112.994C84.5196 112.21 85.4296 111.426 86.6056 110.642L88.0756 111.986C87.3476 112.322 86.7176 112.742 86.1856 113.246C85.6816 113.722 85.4296 114.324 85.4296 115.052C85.4296 115.724 85.7236 116.2 86.3116 116.48C86.9276 116.732 87.9916 116.858 89.5036 116.858H91.8136C93.4096 116.858 94.7536 117.012 95.8456 117.32C96.9376 117.628 97.8196 118.048 98.4916 118.58C99.1636 119.112 99.6396 119.714 99.9196 120.386C100.228 121.086 100.382 121.828 100.382 122.612C100.382 123.62 100.158 124.544 99.7096 125.384C99.2896 126.224 98.6596 126.952 97.8196 127.568C97.0076 128.184 95.9996 128.66 94.7956 128.996C93.5916 129.332 92.2196 129.5 90.6796 129.5C89.3636 129.5 88.1596 129.374 87.0676 129.122C85.9756 128.87 85.0376 128.492 84.2536 127.988C83.4696 127.512 82.8536 126.924 82.4056 126.224C81.9856 125.524 81.7756 124.726 81.7756 123.83C81.7756 122.542 82.1956 121.45 83.0356 120.554C83.9036 119.658 85.0516 118.944 86.4796 118.412L88.1596 119.126ZM94.7116 102.2C95.4396 101.304 96.1536 100.548 96.8536 99.932C97.5816 99.316 98.5056 99.008 99.6256 99.008C100.662 99.008 101.474 99.316 102.062 99.932C102.65 100.548 102.832 101.542 102.608 102.914L100.382 103.04C100.354 102.452 100.284 102.018 100.172 101.738C100.088 101.43 99.8216 101.276 99.3736 101.276C98.7296 101.276 98.1416 101.528 97.6096 102.032C97.1056 102.536 96.5736 103.096 96.0136 103.712L94.7116 102.2ZM90.8476 113.33C89.7836 113.33 88.7896 113.19 87.8656 112.91C86.9696 112.63 86.1856 112.224 85.5136 111.692C84.8416 111.132 84.3096 110.46 83.9176 109.676C83.5536 108.892 83.3716 107.996 83.3716 106.988C83.3716 105.98 83.5676 105.098 83.9596 104.342C84.3796 103.558 84.9256 102.9 85.5976 102.368C86.2976 101.808 87.0956 101.388 87.9916 101.108C88.8876 100.828 89.8396 100.688 90.8476 100.688C91.9116 100.688 92.8916 100.828 93.7876 101.108C94.6836 101.388 95.4536 101.808 96.0976 102.368C96.7696 102.9 97.2876 103.558 97.6516 104.342C98.0436 105.098 98.2396 105.98 98.2396 106.988C98.2396 109.004 97.5676 110.572 96.2236 111.692C94.8796 112.784 93.0876 113.33 90.8476 113.33ZM90.8476 110.978C92.5276 110.978 93.7456 110.656 94.5016 110.012C95.2576 109.34 95.6356 108.374 95.6356 107.114C95.6356 105.882 95.2576 104.902 94.5016 104.174C93.7736 103.418 92.5276 103.04 90.7636 103.04C89.2796 103.04 88.1176 103.362 87.2776 104.006C86.4376 104.622 86.0176 105.63 86.0176 107.03C86.0176 108.318 86.4376 109.298 87.2776 109.97C88.1456 110.642 89.3356 110.978 90.8476 110.978ZM107.439 95.48C106.795 95.48 106.263 95.27 105.843 94.85C105.451 94.402 105.255 93.87 105.255 93.254C105.255 92.638 105.451 92.12 105.843 91.7C106.263 91.252 106.795 91.028 107.439 91.028C108.139 91.028 108.685 91.252 109.077 91.7C109.497 92.12 109.707 92.638 109.707 93.254C109.707 93.87 109.497 94.402 109.077 94.85C108.685 95.27 108.139 95.48 107.439 95.48ZM102.777 100.94H107.397V103.418H102.777V100.94ZM102.777 116.522H112.857V119H102.777V116.522ZM106.473 100.94H109.203V119H106.473V100.94ZM123.164 119.252C121.596 119.252 120.266 118.986 119.174 118.454C118.11 117.922 117.242 117.236 116.57 116.396C115.898 115.528 115.408 114.548 115.1 113.456C114.82 112.364 114.68 111.258 114.68 110.138C114.68 108.85 114.876 107.632 115.268 106.484C115.66 105.336 116.234 104.328 116.99 103.46C117.746 102.592 118.684 101.92 119.804 101.444C120.924 100.94 122.226 100.688 123.71 100.688C124.97 100.688 126.034 100.87 126.902 101.234C127.77 101.57 128.456 102.032 128.96 102.62C129.492 103.18 129.856 103.838 130.052 104.594C130.276 105.35 130.36 106.134 130.304 106.946L127.574 107.114C127.63 105.686 127.294 104.678 126.566 104.09C125.866 103.502 124.928 103.208 123.752 103.208C121.596 103.208 120.014 103.81 119.006 105.014C117.998 106.19 117.494 107.814 117.494 109.886C117.494 111.986 118.012 113.652 119.048 114.884C120.084 116.116 121.568 116.732 123.5 116.732C124.956 116.732 126.16 116.396 127.112 115.724C128.092 115.052 128.862 114.24 129.422 113.288L131.312 114.632C131.004 115.22 130.612 115.794 130.136 116.354C129.66 116.914 129.086 117.404 128.414 117.824C127.742 118.244 126.958 118.594 126.062 118.874C125.194 119.126 124.228 119.252 123.164 119.252ZM147.224 95.48C146.58 95.48 146.048 95.27 145.628 94.85C145.236 94.402 145.04 93.87 145.04 93.254C145.04 92.638 145.236 92.12 145.628 91.7C146.048 91.252 146.58 91.028 147.224 91.028C147.924 91.028 148.47 91.252 148.862 91.7C149.282 92.12 149.492 92.638 149.492 93.254C149.492 93.87 149.282 94.402 148.862 94.85C148.47 95.27 147.924 95.48 147.224 95.48ZM142.562 100.94H147.182V103.418H142.562V100.94ZM142.562 116.522H152.642V119H142.562V116.522ZM146.258 100.94H148.988V119H146.258V100.94ZM160.807 119.252C160.247 119.252 159.659 119.224 159.043 119.168C158.455 119.112 157.895 119.056 157.363 119C156.831 118.916 156.355 118.832 155.935 118.748C155.515 118.664 155.179 118.58 154.927 118.496V115.808C155.963 116.172 157.069 116.424 158.245 116.564C159.421 116.676 160.387 116.732 161.143 116.732C161.367 116.732 161.717 116.718 162.193 116.69C162.669 116.662 163.131 116.578 163.579 116.438C164.055 116.298 164.461 116.074 164.797 115.766C165.161 115.43 165.343 114.968 165.343 114.38C165.343 113.68 165.077 113.12 164.545 112.7C164.041 112.28 163.397 111.916 162.613 111.608C161.857 111.3 161.017 111.02 160.093 110.768C159.197 110.516 158.357 110.194 157.573 109.802C156.817 109.382 156.173 108.864 155.641 108.248C155.137 107.632 154.885 106.806 154.885 105.77C154.885 104.174 155.515 102.928 156.775 102.032C158.035 101.136 159.673 100.688 161.689 100.688C162.137 100.688 162.613 100.716 163.117 100.772C163.649 100.8 164.153 100.856 164.629 100.94C165.133 100.996 165.595 101.066 166.015 101.15C166.435 101.206 166.771 101.276 167.023 101.36V103.88C165.847 103.656 164.825 103.488 163.957 103.376C163.089 103.264 162.277 103.208 161.521 103.208C160.009 103.208 158.987 103.432 158.455 103.88C157.951 104.3 157.699 104.804 157.699 105.392C157.699 106.092 157.951 106.638 158.455 107.03C158.987 107.422 159.631 107.758 160.387 108.038C161.171 108.318 162.011 108.598 162.907 108.878C163.831 109.13 164.671 109.452 165.427 109.844C166.211 110.236 166.855 110.754 167.359 111.398C167.891 112.042 168.157 112.882 168.157 113.918C168.157 114.562 168.031 115.206 167.779 115.85C167.555 116.466 167.163 117.026 166.603 117.53C166.043 118.034 165.287 118.454 164.335 118.79C163.411 119.098 162.235 119.252 160.807 119.252ZM164.419 106.4V101.36H167.023V106.4H164.419ZM154.927 118.496V113.036H157.531V118.496H154.927ZM179.251 89.18H183.871V91.616H179.251V89.18ZM179.251 116.522H189.331V119H179.251V116.522ZM191.011 116.522H201.091V119H191.011V116.522ZM182.905 89.18H185.635V105.098H185.719C185.971 104.51 186.293 103.95 186.685 103.418C187.077 102.886 187.525 102.424 188.029 102.032C188.561 101.612 189.163 101.29 189.835 101.066C190.535 100.814 191.305 100.688 192.145 100.688C193.909 100.688 195.225 101.234 196.093 102.326C196.961 103.418 197.395 105.014 197.395 107.114V119H194.665V108.668C194.665 107.016 194.399 105.742 193.867 104.846C193.363 103.95 192.481 103.502 191.221 103.502C190.521 103.502 189.835 103.642 189.163 103.922C188.491 104.174 187.889 104.594 187.357 105.182C186.853 105.77 186.433 106.526 186.097 107.45C185.789 108.346 185.635 109.424 185.635 110.684V119H182.905V89.18ZM211.223 119.252C209.767 119.252 208.507 119 207.443 118.496C206.379 117.992 205.497 117.32 204.797 116.48C204.125 115.64 203.621 114.674 203.285 113.582C202.977 112.49 202.823 111.342 202.823 110.138C202.823 108.99 202.977 107.856 203.285 106.736C203.593 105.616 204.083 104.608 204.755 103.712C205.427 102.816 206.295 102.088 207.359 101.528C208.451 100.968 209.781 100.688 211.349 100.688C212.805 100.688 214.037 100.94 215.045 101.444C216.053 101.948 216.865 102.648 217.481 103.544C218.097 104.412 218.517 105.462 218.741 106.694C218.993 107.926 219.077 109.256 218.993 110.684H204.755V108.458H216.053C216.081 107.786 216.011 107.142 215.843 106.526C215.703 105.882 215.423 105.322 215.003 104.846C214.611 104.342 214.093 103.95 213.449 103.67C212.805 103.362 212.021 103.208 211.097 103.208C210.537 103.208 209.935 103.292 209.291 103.46C208.647 103.6 208.045 103.908 207.485 104.384C206.953 104.832 206.505 105.476 206.141 106.316C205.805 107.156 205.637 108.248 205.637 109.592C205.637 110.6 205.749 111.552 205.973 112.448C206.225 113.316 206.589 114.072 207.065 114.716C207.569 115.332 208.199 115.822 208.955 116.186C209.711 116.55 210.621 116.732 211.685 116.732C212.861 116.732 213.925 116.48 214.877 115.976C215.829 115.444 216.641 114.702 217.313 113.75L219.077 115.178C218.853 115.654 218.517 116.13 218.069 116.606C217.621 117.082 217.061 117.516 216.389 117.908C215.717 118.3 214.947 118.622 214.079 118.874C213.211 119.126 212.259 119.252 211.223 119.252ZM225.377 100.94H228.065V104.93H228.149C228.457 103.558 229.003 102.508 229.787 101.78C230.599 101.052 231.663 100.688 232.979 100.688C234.491 100.688 235.639 101.248 236.423 102.368C237.235 103.46 237.557 105.042 237.389 107.114L234.743 107.24C234.827 106.792 234.841 106.344 234.785 105.896C234.757 105.42 234.645 105 234.449 104.636C234.281 104.244 234.015 103.936 233.651 103.712C233.315 103.46 232.881 103.334 232.349 103.334C231.621 103.334 230.991 103.558 230.459 104.006C229.927 104.454 229.479 105.056 229.115 105.812C228.779 106.54 228.527 107.394 228.359 108.374C228.191 109.326 228.107 110.32 228.107 111.356V119H225.377V100.94ZM221.681 100.94H226.301V103.418H221.681V100.94ZM221.681 116.522H232.727V119H221.681V116.522ZM247.932 119.252C246.476 119.252 245.216 119 244.152 118.496C243.088 117.992 242.206 117.32 241.506 116.48C240.834 115.64 240.33 114.674 239.994 113.582C239.686 112.49 239.532 111.342 239.532 110.138C239.532 108.99 239.686 107.856 239.994 106.736C240.302 105.616 240.792 104.608 241.464 103.712C242.136 102.816 243.004 102.088 244.068 101.528C245.16 100.968 246.49 100.688 248.058 100.688C249.514 100.688 250.746 100.94 251.754 101.444C252.762 101.948 253.574 102.648 254.19 103.544C254.806 104.412 255.226 105.462 255.45 106.694C255.702 107.926 255.786 109.256 255.702 110.684H241.464V108.458H252.762C252.79 107.786 252.72 107.142 252.552 106.526C252.412 105.882 252.132 105.322 251.712 104.846C251.32 104.342 250.802 103.95 250.158 103.67C249.514 103.362 248.73 103.208 247.806 103.208C247.246 103.208 246.644 103.292 246 103.46C245.356 103.6 244.754 103.908 244.194 104.384C243.662 104.832 243.214 105.476 242.85 106.316C242.514 107.156 242.346 108.248 242.346 109.592C242.346 110.6 242.458 111.552 242.682 112.448C242.934 113.316 243.298 114.072 243.774 114.716C244.278 115.332 244.908 115.822 245.664 116.186C246.42 116.55 247.33 116.732 248.394 116.732C249.57 116.732 250.634 116.48 251.586 115.976C252.538 115.444 253.35 114.702 254.022 113.75L255.786 115.178C255.562 115.654 255.226 116.13 254.778 116.606C254.33 117.082 253.77 117.516 253.098 117.908C252.426 118.3 251.656 118.622 250.788 118.874C249.92 119.126 248.968 119.252 247.932 119.252ZM261.792 119.168C261.092 119.168 260.532 118.944 260.112 118.496C259.692 118.048 259.482 117.502 259.482 116.858C259.482 116.214 259.692 115.668 260.112 115.22C260.532 114.772 261.092 114.548 261.792 114.548C262.492 114.548 263.052 114.772 263.472 115.22C263.892 115.668 264.102 116.214 264.102 116.858C264.102 117.502 263.892 118.048 263.472 118.496C263.052 118.944 262.492 119.168 261.792 119.168ZM260.238 106.61C260.238 105.126 260.238 103.67 260.238 102.242C260.238 100.786 260.224 99.428 260.196 98.168C260.196 96.88 260.196 95.718 260.196 94.682C260.196 93.646 260.196 92.764 260.196 92.036C260.196 91.084 260.28 90.328 260.448 89.768C260.616 89.208 261.064 88.928 261.792 88.928C262.52 88.928 262.954 89.208 263.094 89.768C263.262 90.328 263.346 91.084 263.346 92.036C263.346 92.764 263.332 93.646 263.304 94.682C263.304 95.718 263.304 96.88 263.304 98.168C263.304 99.428 263.29 100.786 263.262 102.242C263.262 103.67 263.262 105.126 263.262 106.61V111.44H260.238V106.61ZM34.5 167.252C33.184 167.252 31.826 167.126 30.426 166.874C29.026 166.622 27.794 166.244 26.73 165.74L26.856 162.422C27.108 162.674 27.486 162.926 27.99 163.178C28.522 163.402 29.124 163.612 29.796 163.808C30.468 163.976 31.196 164.116 31.98 164.228C32.764 164.34 33.576 164.396 34.416 164.396C35.312 164.396 36.152 164.326 36.936 164.186C37.72 164.018 38.406 163.752 38.994 163.388C39.582 162.996 40.044 162.492 40.38 161.876C40.716 161.232 40.884 160.434 40.884 159.482C40.884 158.474 40.702 157.634 40.338 156.962C39.974 156.29 39.526 155.73 38.994 155.282C38.462 154.806 37.888 154.428 37.272 154.148C36.684 153.84 36.152 153.56 35.676 153.308L32.778 151.838C31.826 151.362 30.958 150.872 30.174 150.368C29.418 149.864 28.774 149.332 28.242 148.772C27.71 148.184 27.29 147.54 26.982 146.84C26.702 146.112 26.562 145.3 26.562 144.404C26.562 143.172 26.814 142.094 27.318 141.17C27.85 140.218 28.536 139.434 29.376 138.818C30.216 138.174 31.168 137.698 32.232 137.39C33.324 137.082 34.444 136.928 35.592 136.928C36.068 136.928 36.628 136.956 37.272 137.012C37.916 137.068 38.574 137.166 39.246 137.306C39.918 137.418 40.59 137.572 41.262 137.768C41.934 137.964 42.536 138.202 43.068 138.482V141.674C42.284 141.198 41.22 140.764 39.876 140.372C38.56 139.98 37.202 139.784 35.802 139.784C35.018 139.784 34.262 139.868 33.534 140.036C32.806 140.176 32.162 140.414 31.602 140.75C31.07 141.086 30.636 141.534 30.3 142.094C29.992 142.654 29.838 143.354 29.838 144.194C29.838 144.838 29.936 145.398 30.132 145.874C30.356 146.35 30.678 146.784 31.098 147.176C31.518 147.568 32.022 147.946 32.61 148.31C33.198 148.646 33.87 149.01 34.626 149.402L36.936 150.578C37.524 150.886 38.224 151.236 39.036 151.628C39.876 151.992 40.674 152.496 41.43 153.14C42.186 153.784 42.83 154.596 43.362 155.576C43.894 156.556 44.16 157.802 44.16 159.314C44.16 160.49 43.964 161.568 43.572 162.548C43.208 163.5 42.62 164.326 41.808 165.026C41.024 165.726 40.03 166.272 38.826 166.664C37.622 167.056 36.18 167.252 34.5 167.252ZM40.044 139.532L43.068 138.482V147.302H40.044V139.532ZM29.754 164.858L26.73 165.74V157.508H29.754V164.858ZM47.2142 148.94H49.9862L56.3282 165.614H54.7322L60.8642 148.94H63.5942L56.5802 167H54.0182L47.2142 148.94ZM59.5202 148.94H62.2922L68.5922 165.446L66.9542 165.488L73.0022 148.94H75.7742L68.8862 167H66.3242L59.5202 148.94ZM45.7862 148.94H53.7662V151.418H45.7862V148.94ZM57.0842 148.94H66.1142V151.418H57.0842V148.94ZM69.0962 148.94H77.1602V151.418H69.0962V148.94ZM83.2394 143.48C82.5954 143.48 82.0634 143.27 81.6434 142.85C81.2514 142.402 81.0554 141.87 81.0554 141.254C81.0554 140.638 81.2514 140.12 81.6434 139.7C82.0634 139.252 82.5954 139.028 83.2394 139.028C83.9394 139.028 84.4854 139.252 84.8774 139.7C85.2974 140.12 85.5074 140.638 85.5074 141.254C85.5074 141.87 85.2974 142.402 84.8774 142.85C84.4854 143.27 83.9394 143.48 83.2394 143.48ZM78.5774 148.94H83.1974V151.418H78.5774V148.94ZM78.5774 164.522H88.6574V167H78.5774V164.522ZM82.2734 148.94H85.0034V167H82.2734V148.94ZM96.8228 167.252C96.2628 167.252 95.6748 167.224 95.0588 167.168C94.4708 167.112 93.9108 167.056 93.3788 167C92.8468 166.916 92.3708 166.832 91.9508 166.748C91.5308 166.664 91.1948 166.58 90.9428 166.496V163.808C91.9788 164.172 93.0848 164.424 94.2608 164.564C95.4368 164.676 96.4028 164.732 97.1588 164.732C97.3828 164.732 97.7328 164.718 98.2088 164.69C98.6848 164.662 99.1468 164.578 99.5948 164.438C100.071 164.298 100.477 164.074 100.813 163.766C101.177 163.43 101.359 162.968 101.359 162.38C101.359 161.68 101.093 161.12 100.561 160.7C100.057 160.28 99.4128 159.916 98.6288 159.608C97.8728 159.3 97.0328 159.02 96.1088 158.768C95.2128 158.516 94.3728 158.194 93.5888 157.802C92.8328 157.382 92.1888 156.864 91.6568 156.248C91.1528 155.632 90.9008 154.806 90.9008 153.77C90.9008 152.174 91.5308 150.928 92.7908 150.032C94.0508 149.136 95.6888 148.688 97.7048 148.688C98.1528 148.688 98.6288 148.716 99.1328 148.772C99.6648 148.8 100.169 148.856 100.645 148.94C101.149 148.996 101.611 149.066 102.031 149.15C102.451 149.206 102.787 149.276 103.039 149.36V151.88C101.863 151.656 100.841 151.488 99.9728 151.376C99.1048 151.264 98.2928 151.208 97.5368 151.208C96.0248 151.208 95.0028 151.432 94.4708 151.88C93.9668 152.3 93.7148 152.804 93.7148 153.392C93.7148 154.092 93.9668 154.638 94.4708 155.03C95.0028 155.422 95.6468 155.758 96.4028 156.038C97.1868 156.318 98.0268 156.598 98.9228 156.878C99.8468 157.13 100.687 157.452 101.443 157.844C102.227 158.236 102.871 158.754 103.375 159.398C103.907 160.042 104.173 160.882 104.173 161.918C104.173 162.562 104.047 163.206 103.795 163.85C103.571 164.466 103.179 165.026 102.619 165.53C102.059 166.034 101.303 166.454 100.351 166.79C99.4268 167.098 98.2508 167.252 96.8228 167.252ZM100.435 154.4V149.36H103.039V154.4H100.435ZM90.9428 166.496V161.036H93.5468V166.496H90.9428ZM105.997 137.18H110.617V139.616H105.997V137.18ZM105.997 164.522H116.077V167H105.997V164.522ZM117.757 164.522H127.837V167H117.757V164.522ZM109.651 137.18H112.381V153.098H112.465C112.717 152.51 113.039 151.95 113.431 151.418C113.823 150.886 114.271 150.424 114.775 150.032C115.307 149.612 115.909 149.29 116.581 149.066C117.281 148.814 118.051 148.688 118.891 148.688C120.655 148.688 121.971 149.234 122.839 150.326C123.707 151.418 124.141 153.014 124.141 155.114V167H121.411V156.668C121.411 155.016 121.145 153.742 120.613 152.846C120.109 151.95 119.227 151.502 117.967 151.502C117.267 151.502 116.581 151.642 115.909 151.922C115.237 152.174 114.635 152.594 114.103 153.182C113.599 153.77 113.179 154.526 112.843 155.45C112.535 156.346 112.381 157.424 112.381 158.684V167H109.651V137.18ZM129.838 155.534H139.12V158.054H129.838V155.534ZM149.487 167.252C148.927 167.252 148.339 167.224 147.723 167.168C147.135 167.112 146.575 167.056 146.043 167C145.511 166.916 145.035 166.832 144.615 166.748C144.195 166.664 143.859 166.58 143.607 166.496V163.808C144.643 164.172 145.749 164.424 146.925 164.564C148.101 164.676 149.067 164.732 149.823 164.732C150.047 164.732 150.397 164.718 150.873 164.69C151.349 164.662 151.811 164.578 152.259 164.438C152.735 164.298 153.141 164.074 153.477 163.766C153.841 163.43 154.023 162.968 154.023 162.38C154.023 161.68 153.757 161.12 153.225 160.7C152.721 160.28 152.077 159.916 151.293 159.608C150.537 159.3 149.697 159.02 148.773 158.768C147.877 158.516 147.037 158.194 146.253 157.802C145.497 157.382 144.853 156.864 144.321 156.248C143.817 155.632 143.565 154.806 143.565 153.77C143.565 152.174 144.195 150.928 145.455 150.032C146.715 149.136 148.353 148.688 150.369 148.688C150.817 148.688 151.293 148.716 151.797 148.772C152.329 148.8 152.833 148.856 153.309 148.94C153.813 148.996 154.275 149.066 154.695 149.15C155.115 149.206 155.451 149.276 155.703 149.36V151.88C154.527 151.656 153.505 151.488 152.637 151.376C151.769 151.264 150.957 151.208 150.201 151.208C148.689 151.208 147.667 151.432 147.135 151.88C146.631 152.3 146.379 152.804 146.379 153.392C146.379 154.092 146.631 154.638 147.135 155.03C147.667 155.422 148.311 155.758 149.067 156.038C149.851 156.318 150.691 156.598 151.587 156.878C152.511 157.13 153.351 157.452 154.107 157.844C154.891 158.236 155.535 158.754 156.039 159.398C156.571 160.042 156.837 160.882 156.837 161.918C156.837 162.562 156.711 163.206 156.459 163.85C156.235 164.466 155.843 165.026 155.283 165.53C154.723 166.034 153.967 166.454 153.015 166.79C152.091 167.098 150.915 167.252 149.487 167.252ZM153.099 154.4V149.36H155.703V154.4H153.099ZM143.607 166.496V161.036H146.211V166.496H143.607ZM160.089 148.94H162.861L169.203 165.614H167.607L173.739 148.94H176.469L169.455 167H166.893L160.089 148.94ZM172.395 148.94H175.167L181.467 165.446L179.829 165.488L185.877 148.94H188.649L181.761 167H179.199L172.395 148.94ZM158.661 148.94H166.641V151.418H158.661V148.94ZM169.959 148.94H178.989V151.418H169.959V148.94ZM181.971 148.94H190.035V151.418H181.971V148.94ZM196.114 143.48C195.47 143.48 194.938 143.27 194.518 142.85C194.126 142.402 193.93 141.87 193.93 141.254C193.93 140.638 194.126 140.12 194.518 139.7C194.938 139.252 195.47 139.028 196.114 139.028C196.814 139.028 197.36 139.252 197.752 139.7C198.172 140.12 198.382 140.638 198.382 141.254C198.382 141.87 198.172 142.402 197.752 142.85C197.36 143.27 196.814 143.48 196.114 143.48ZM191.452 148.94H196.072V151.418H191.452V148.94ZM191.452 164.522H201.532V167H191.452V164.522ZM195.148 148.94H197.878V167H195.148V148.94ZM209.698 167.252C209.138 167.252 208.55 167.224 207.934 167.168C207.346 167.112 206.786 167.056 206.254 167C205.722 166.916 205.246 166.832 204.826 166.748C204.406 166.664 204.07 166.58 203.818 166.496V163.808C204.854 164.172 205.96 164.424 207.136 164.564C208.312 164.676 209.278 164.732 210.034 164.732C210.258 164.732 210.608 164.718 211.084 164.69C211.56 164.662 212.022 164.578 212.47 164.438C212.946 164.298 213.352 164.074 213.688 163.766C214.052 163.43 214.234 162.968 214.234 162.38C214.234 161.68 213.968 161.12 213.436 160.7C212.932 160.28 212.288 159.916 211.504 159.608C210.748 159.3 209.908 159.02 208.984 158.768C208.088 158.516 207.248 158.194 206.464 157.802C205.708 157.382 205.064 156.864 204.532 156.248C204.028 155.632 203.776 154.806 203.776 153.77C203.776 152.174 204.406 150.928 205.666 150.032C206.926 149.136 208.564 148.688 210.58 148.688C211.028 148.688 211.504 148.716 212.008 148.772C212.54 148.8 213.044 148.856 213.52 148.94C214.024 148.996 214.486 149.066 214.906 149.15C215.326 149.206 215.662 149.276 215.914 149.36V151.88C214.738 151.656 213.716 151.488 212.848 151.376C211.98 151.264 211.168 151.208 210.412 151.208C208.9 151.208 207.878 151.432 207.346 151.88C206.842 152.3 206.59 152.804 206.59 153.392C206.59 154.092 206.842 154.638 207.346 155.03C207.878 155.422 208.522 155.758 209.278 156.038C210.062 156.318 210.902 156.598 211.798 156.878C212.722 157.13 213.562 157.452 214.318 157.844C215.102 158.236 215.746 158.754 216.25 159.398C216.782 160.042 217.048 160.882 217.048 161.918C217.048 162.562 216.922 163.206 216.67 163.85C216.446 164.466 216.054 165.026 215.494 165.53C214.934 166.034 214.178 166.454 213.226 166.79C212.302 167.098 211.126 167.252 209.698 167.252ZM213.31 154.4V149.36H215.914V154.4H213.31ZM203.818 166.496V161.036H206.422V166.496H203.818ZM218.872 137.18H223.492V139.616H218.872V137.18ZM218.872 164.522H228.952V167H218.872V164.522ZM230.632 164.522H240.712V167H230.632V164.522ZM222.526 137.18H225.256V153.098H225.34C225.592 152.51 225.914 151.95 226.306 151.418C226.698 150.886 227.146 150.424 227.65 150.032C228.182 149.612 228.784 149.29 229.456 149.066C230.156 148.814 230.926 148.688 231.766 148.688C233.53 148.688 234.846 149.234 235.714 150.326C236.582 151.418 237.016 153.014 237.016 155.114V167H234.286V156.668C234.286 155.016 234.02 153.742 233.488 152.846C232.984 151.95 232.102 151.502 230.842 151.502C230.142 151.502 229.456 151.642 228.784 151.922C228.112 152.174 227.51 152.594 226.978 153.182C226.474 153.77 226.054 154.526 225.718 155.45C225.41 156.346 225.256 157.424 225.256 158.684V167H222.526V137.18ZM245.468 167.168C244.768 167.168 244.208 166.944 243.788 166.496C243.368 166.048 243.158 165.502 243.158 164.858C243.158 164.214 243.368 163.668 243.788 163.22C244.208 162.772 244.768 162.548 245.468 162.548C246.168 162.548 246.728 162.772 247.148 163.22C247.568 163.668 247.778 164.214 247.778 164.858C247.778 165.502 247.568 166.048 247.148 166.496C246.728 166.944 246.168 167.168 245.468 167.168ZM243.914 154.61C243.914 153.126 243.914 151.67 243.914 150.242C243.914 148.786 243.9 147.428 243.872 146.168C243.872 144.88 243.872 143.718 243.872 142.682C243.872 141.646 243.872 140.764 243.872 140.036C243.872 139.084 243.956 138.328 244.124 137.768C244.292 137.208 244.74 136.928 245.468 136.928C246.196 136.928 246.63 137.208 246.77 137.768C246.938 138.328 247.022 139.084 247.022 140.036C247.022 140.764 247.008 141.646 246.98 142.682C246.98 143.718 246.98 144.88 246.98 146.168C246.98 147.428 246.966 148.786 246.938 150.242C246.938 151.67 246.938 153.126 246.938 154.61V159.44H243.914V154.61Z" fill="#FBFBFB"/>
    <path d="M48.201 300.5C48.201 301.439 47.4399 302.2 46.501 302.2C45.5621 302.2 44.801 301.439 44.801 300.5C44.801 299.561 45.5621 298.8 46.501 298.8C47.4399 298.8 48.201 299.561 48.201 300.5Z" fill="#FBFBFB" stroke="#FBFBFB" stroke-width="1.6"/>
    <path d="M30.2 210.5C30.2 213.648 27.648 216.2 24.5 216.2C21.352 216.2 18.8 213.648 18.8 210.5C18.8 207.352 21.352 204.8 24.5 204.8C27.648 204.8 30.2 207.352 30.2 210.5Z" fill="#FBFBFB" stroke="#FBFBFB" stroke-width="1.6"/>
    <path d="M270.599 38.7531C271.705 39.7765 273.075 40.5298 274.669 41.0002C273.082 41.4685 271.716 42.2175 270.611 43.2361C269.374 44.3772 268.501 45.8233 268.01 47.5144C267.512 45.821 266.626 44.3745 265.379 43.234C264.266 42.2157 262.893 41.4666 261.306 40.9985C262.894 40.5281 264.267 39.7759 265.38 38.7557C266.625 37.6146 267.51 36.1691 268.009 34.4802C268.497 36.1661 269.366 37.6111 270.599 38.7531Z" fill="#FBFBFB" stroke="#FBFBFB" stroke-width="1.6"/>
    <path d="M159 227.275V227.725C152.282 227.725 148.354 231.625 148.354 238H147.686C147.686 231.587 143.679 227.725 137 227.725V227.275C143.639 227.275 147.686 223.375 147.686 217H148.354C148.393 223.413 152.282 227.275 159 227.275Z" stroke="#FBFBFB" stroke-width="1.6" stroke-miterlimit="10"/>
    <path d="M-20.9961 326.23C-20.9961 326.23 -13.1369 239.301 59.8533 231.125C144.552 221.578 171.913 335.177 245.318 306.575C324.791 275.658 248.83 167.347 291.507 113.019C337.979 53.835 464.147 92.3141 479.982 7.15992C494.098 -68.839 411.934 -98.8108 341.208 -78.2402" stroke="#FBFBFB" stroke-width="1.6" stroke-miterlimit="10"/>
    <path d="M283.493 234.197C283.493 234.197 261.48 260.421 232.421 260.421C179.041 260.421 167.537 213.522 196.436 203.439C248.662 185.227 261.44 345.853 315.975 346.987C370.509 348.12 351.959 276.327 351.959 276.327" stroke="#FBFBFB" stroke-width="1.6" stroke-miterlimit="10"/>
    <path d="M25.674 364H31.416C33.54 364 34.836 362.794 34.836 360.562C34.836 358.654 33.882 357.79 32.712 357.448C33.684 357.034 34.35 356.206 34.35 354.712C34.35 352.534 33.072 351.4 30.966 351.4H25.674V364ZM27.24 362.614V358.294H31.146C32.532 358.294 33.27 359.086 33.27 360.472C33.27 361.84 32.532 362.614 31.146 362.614H27.24ZM27.24 356.962V352.786H30.696C32.064 352.786 32.784 353.542 32.784 354.874C32.784 356.188 32.064 356.962 30.732 356.962H27.24ZM44.7769 354.748H43.3369V361.444C42.7789 362.11 41.8069 362.902 40.6549 362.902C39.5209 362.902 38.6389 362.182 38.6389 360.58V354.748H37.1989V360.742C37.1989 362.992 38.5309 364.216 40.3669 364.216C41.7349 364.216 42.7609 363.514 43.3909 362.776L43.9129 364H44.7769V354.748ZM49.1335 366.88H50.3395L54.9475 355.432V354.748H53.6335L50.8615 362.056L48.0355 354.748H46.6855V355.432L50.1595 364L49.1335 366.34V366.88ZM63.7658 364.216C65.2058 364.216 66.3398 363.46 66.8978 362.83L67.4378 364H68.3018V357.574C68.3018 355.828 67.1318 354.532 64.7198 354.532C62.3258 354.532 61.1918 355.828 61.1918 357.556H62.5958C62.5958 356.584 63.2978 355.846 64.7198 355.846C66.1778 355.846 66.8618 356.584 66.8618 357.664V358.582H64.5398C62.0018 358.582 60.7058 359.644 60.7058 361.534C60.7058 363.352 62.1278 364.216 63.7658 364.216ZM64.0538 362.902C62.9738 362.902 62.1458 362.434 62.1458 361.372C62.1458 360.418 62.8298 359.752 64.5398 359.752H66.8618V361.606C66.2678 362.2 65.2778 362.902 64.0538 362.902ZM71.1795 364H72.6195V357.304C73.1775 356.638 74.1495 355.846 75.3015 355.846C76.4535 355.846 77.3535 356.566 77.3535 358.168V364H78.7935V358.006C78.7935 355.756 77.4435 354.532 75.5895 354.532C74.2215 354.532 73.1955 355.234 72.5475 355.972L72.0435 354.748H71.1795V364ZM84.6617 364.216C86.0657 364.216 87.0917 363.496 87.7217 362.776L88.2257 364H89.0897V351.31H87.6497V355.882C87.0917 355.216 86.0837 354.532 84.7157 354.532C82.7717 354.532 81.4037 355.72 81.4037 357.934V360.814C81.4037 363.028 82.7897 364.216 84.6617 364.216ZM84.9317 362.902C83.6897 362.902 82.8437 362.02 82.8437 360.706V358.042C82.8437 356.728 83.6897 355.846 84.9137 355.846C86.0657 355.846 87.0017 356.602 87.6497 357.304V361.444C87.0017 362.146 86.0837 362.902 84.9317 362.902ZM100.054 364.216C102.358 364.216 103.762 363.064 103.762 361.39C103.762 359.914 102.826 359.302 101.386 358.942L99.1364 358.384C98.1824 358.132 97.8224 357.808 97.8224 357.16C97.8224 356.458 98.4524 355.846 99.8564 355.846C101.188 355.846 102.178 356.458 102.178 357.79H103.618C103.618 355.612 102.16 354.532 99.9644 354.532C97.7144 354.532 96.3824 355.684 96.3824 357.25C96.3824 358.726 97.3364 359.302 98.5964 359.626L100.882 360.22C101.908 360.49 102.322 360.832 102.322 361.498C102.322 362.308 101.512 362.902 100.162 362.902C98.7224 362.902 97.4624 362.272 97.4624 360.868H96.0224C96.0224 363.1 97.7684 364.216 100.054 364.216ZM109.827 364.216C112.059 364.216 113.355 363.046 113.517 361.228H112.077C111.915 362.218 111.213 362.902 109.827 362.902C108.243 362.902 107.415 362.02 107.415 360.778V359.86H113.571V357.934C113.571 355.864 112.167 354.532 109.827 354.532C107.415 354.532 105.975 355.918 105.975 357.97V360.814C105.975 362.884 107.415 364.216 109.827 364.216ZM107.415 358.69V357.934C107.415 356.71 108.243 355.846 109.773 355.846C111.339 355.846 112.131 356.728 112.131 357.934V358.69H107.415ZM116.127 364H117.567V351.31H116.127V364ZM120.557 364H121.997V351.31H120.557V364ZM132.835 364.216C135.103 364.216 136.561 362.884 136.561 360.868V360.76H135.121V360.886C135.121 362.056 134.311 362.902 132.835 362.902C131.287 362.902 130.495 362.038 130.495 360.814V357.934C130.495 356.71 131.287 355.846 132.835 355.846C134.293 355.846 135.121 356.674 135.121 357.826V357.934H136.561V357.844C136.561 355.81 135.121 354.532 132.835 354.532C130.459 354.532 129.055 355.918 129.055 357.97V360.778C129.055 362.83 130.459 364.216 132.835 364.216ZM139.066 364H140.506V357.232C141.226 356.368 142.18 355.936 143.404 355.936H143.602V354.532H143.368C142.072 354.532 140.974 355.27 140.344 355.972L139.822 354.748H139.066V364ZM147.413 366.88H148.619L153.227 355.432V354.748H151.913L149.141 362.056L146.315 354.748H144.965V355.432L148.439 364L147.413 366.34V366.88ZM159.561 354.532C158.175 354.532 157.131 355.252 156.501 355.972L155.997 354.748H155.133V366.88H156.573V362.866C157.131 363.532 158.139 364.216 159.507 364.216C161.451 364.216 162.819 363.028 162.819 360.814V357.934C162.819 355.72 161.433 354.532 159.561 354.532ZM159.291 362.902C158.139 362.902 157.221 362.146 156.573 361.444V357.304C157.221 356.602 158.157 355.846 159.309 355.846C160.533 355.846 161.379 356.728 161.379 358.042V360.706C161.379 362.02 160.533 362.902 159.291 362.902ZM168.923 364H169.787V362.686H168.923C167.987 362.686 167.411 362.2 167.411 360.958V356.008H169.787V354.748H167.411V352.822H165.971V354.748H164.459V356.008H165.971V360.994C165.971 362.488 166.601 364 168.923 364ZM175.586 362.902C174.002 362.902 173.174 361.948 173.174 360.724V358.024C173.174 356.8 174.002 355.846 175.586 355.846C177.206 355.846 177.98 356.818 177.98 358.024V360.724C177.98 361.93 177.206 362.902 175.586 362.902ZM175.586 364.216C178.142 364.216 179.42 362.722 179.42 360.778V357.97C179.42 356.026 178.142 354.532 175.586 354.532C173.03 354.532 171.734 356.026 171.734 357.97V360.778C171.734 362.722 173.03 364.216 175.586 364.216ZM28.482 378.532C26.61 378.532 25.224 379.72 25.224 381.934V384.814C25.224 387.028 26.592 388.216 28.536 388.216C29.904 388.216 30.912 387.532 31.47 386.866V390.88H32.91V378.748H32.046L31.542 379.972C30.912 379.252 29.886 378.532 28.482 378.532ZM28.752 386.902C27.51 386.902 26.664 386.02 26.664 384.706V382.042C26.664 380.728 27.51 379.846 28.734 379.846C29.886 379.846 30.822 380.602 31.47 381.304V385.444C30.822 386.146 29.904 386.902 28.752 386.902ZM43.3883 378.748H41.9483V385.444C41.3903 386.11 40.4183 386.902 39.2663 386.902C38.1323 386.902 37.2503 386.182 37.2503 384.58V378.748H35.8103V384.742C35.8103 386.992 37.1423 388.216 38.9783 388.216C40.3463 388.216 41.3723 387.514 42.0023 386.776L42.5243 388H43.3883V378.748ZM46.3768 388H47.8168V378.748H46.3768V388ZM46.3768 377.29H47.8168V375.31H46.3768V377.29ZM54.1725 388.216C56.4405 388.216 57.8985 386.884 57.8985 384.868V384.76H56.4585V384.886C56.4585 386.056 55.6485 386.902 54.1725 386.902C52.6245 386.902 51.8325 386.038 51.8325 384.814V381.934C51.8325 380.71 52.6245 379.846 54.1725 379.846C55.6305 379.846 56.4585 380.674 56.4585 381.826V381.934H57.8985V381.844C57.8985 379.81 56.4585 378.532 54.1725 378.532C51.7965 378.532 50.3925 379.918 50.3925 381.97V384.778C50.3925 386.83 51.7965 388.216 54.1725 388.216ZM60.4042 388H61.8442V383.896H63.4282L66.3262 388H67.6222V387.316L64.7062 383.194L67.3702 379.432V378.748H66.1822L63.4282 382.636H61.8442V375.31H60.4042V388ZM69.8788 388H71.3188V375.31H69.8788V388ZM75.6765 390.88H76.8825L81.4905 379.432V378.748H80.1765L77.4045 386.056L74.5785 378.748H73.2285V379.432L76.7025 388L75.6765 390.34V390.88ZM81.196 389.872H82.348L83.842 386.308V385.624H82.258L81.196 389.872ZM90.867 388H92.307V381.232C93.027 380.368 93.981 379.936 95.205 379.936H95.403V378.532H95.169C93.873 378.532 92.775 379.27 92.145 379.972L91.623 378.748H90.867V388ZM100.756 388.216C102.988 388.216 104.284 387.046 104.446 385.228H103.006C102.844 386.218 102.142 386.902 100.756 386.902C99.1722 386.902 98.3442 386.02 98.3442 384.778V383.86H104.5V381.934C104.5 379.864 103.096 378.532 100.756 378.532C98.3442 378.532 96.9042 379.918 96.9042 381.97V384.814C96.9042 386.884 98.3442 388.216 100.756 388.216ZM98.3442 382.69V381.934C98.3442 380.71 99.1722 379.846 100.702 379.846C102.268 379.846 103.06 380.728 103.06 381.934V382.69H98.3442ZM107.057 388H108.497V375.31H107.057V388ZM111.486 388H112.926V378.748H111.486V388ZM111.486 377.29H112.926V375.31H111.486V377.29ZM118.346 388.216C119.786 388.216 120.92 387.46 121.478 386.83L122.018 388H122.882V381.574C122.882 379.828 121.712 378.532 119.3 378.532C116.906 378.532 115.772 379.828 115.772 381.556H117.176C117.176 380.584 117.878 379.846 119.3 379.846C120.758 379.846 121.442 380.584 121.442 381.664V382.582H119.12C116.582 382.582 115.286 383.644 115.286 385.534C115.286 387.352 116.708 388.216 118.346 388.216ZM118.634 386.902C117.554 386.902 116.726 386.434 116.726 385.372C116.726 384.418 117.41 383.752 119.12 383.752H121.442V385.606C120.848 386.2 119.858 386.902 118.634 386.902ZM130.188 388.216C132.06 388.216 133.446 387.028 133.446 384.814V381.934C133.446 379.72 132.078 378.532 130.134 378.532C128.766 378.532 127.758 379.216 127.2 379.882V375.31H125.76V388H126.624L127.128 386.776C127.758 387.496 128.802 388.216 130.188 388.216ZM129.918 386.902C128.766 386.902 127.848 386.146 127.2 385.444V381.304C127.848 380.602 128.784 379.846 129.936 379.846C131.16 379.846 132.006 380.728 132.006 382.042V384.706C132.006 386.02 131.16 386.902 129.918 386.902ZM136.166 388H137.606V375.31H136.166V388ZM141.964 390.88H143.17L147.778 379.432V378.748H146.464L143.692 386.056L140.866 378.748H139.516V379.432L142.99 388L141.964 390.34V390.88ZM156.596 388.216C158.036 388.216 159.17 387.46 159.728 386.83L160.268 388H161.132V381.574C161.132 379.828 159.962 378.532 157.55 378.532C155.156 378.532 154.022 379.828 154.022 381.556H155.426C155.426 380.584 156.128 379.846 157.55 379.846C159.008 379.846 159.692 380.584 159.692 381.664V382.582H157.37C154.832 382.582 153.536 383.644 153.536 385.534C153.536 387.352 154.958 388.216 156.596 388.216ZM156.884 386.902C155.804 386.902 154.976 386.434 154.976 385.372C154.976 384.418 155.66 383.752 157.37 383.752H159.692V385.606C159.098 386.2 158.108 386.902 156.884 386.902ZM164.01 388H165.45V381.304C166.008 380.638 166.98 379.846 168.132 379.846C169.284 379.846 170.184 380.566 170.184 382.168V388H171.624V382.006C171.624 379.756 170.274 378.532 168.42 378.532C167.052 378.532 166.026 379.234 165.378 379.972L164.874 378.748H164.01V388ZM177.492 388.216C178.896 388.216 179.922 387.496 180.552 386.776L181.056 388H181.92V375.31H180.48V379.882C179.922 379.216 178.914 378.532 177.546 378.532C175.602 378.532 174.234 379.72 174.234 381.934V384.814C174.234 387.028 175.62 388.216 177.492 388.216ZM177.762 386.902C176.52 386.902 175.674 386.02 175.674 384.706V382.042C175.674 380.728 176.52 379.846 177.744 379.846C178.896 379.846 179.832 380.602 180.48 381.304V385.444C179.832 386.146 178.914 386.902 177.762 386.902ZM28.86 412.216C31.128 412.216 32.586 410.884 32.586 408.868V408.76H31.146V408.886C31.146 410.056 30.336 410.902 28.86 410.902C27.312 410.902 26.52 410.038 26.52 408.814V405.934C26.52 404.71 27.312 403.846 28.86 403.846C30.318 403.846 31.146 404.674 31.146 405.826V405.934H32.586V405.844C32.586 403.81 31.146 402.532 28.86 402.532C26.484 402.532 25.08 403.918 25.08 405.97V408.778C25.08 410.83 26.484 412.216 28.86 412.216ZM35.0917 412H36.5317V405.304C37.0897 404.638 38.0797 403.846 39.2137 403.846C40.3657 403.846 41.2657 404.566 41.2657 406.168V412H42.7057V406.006C42.7057 403.756 41.3197 402.532 39.5197 402.532C38.1697 402.532 37.1617 403.198 36.5317 403.882V399.31H35.0917V412ZM49.0238 412.216C51.2558 412.216 52.5518 411.046 52.7138 409.228H51.2738C51.1118 410.218 50.4098 410.902 49.0238 410.902C47.4398 410.902 46.6118 410.02 46.6118 408.778V407.86H52.7678V405.934C52.7678 403.864 51.3638 402.532 49.0238 402.532C46.6118 402.532 45.1718 403.918 45.1718 405.97V408.814C45.1718 410.884 46.6118 412.216 49.0238 412.216ZM46.6118 406.69V405.934C46.6118 404.71 47.4398 403.846 48.9698 403.846C50.5358 403.846 51.3278 404.728 51.3278 405.934V406.69H46.6118ZM57.7541 412.216C59.1941 412.216 60.3281 411.46 60.8861 410.83L61.4261 412H62.2901V405.574C62.2901 403.828 61.1201 402.532 58.7081 402.532C56.3141 402.532 55.1801 403.828 55.1801 405.556H56.5841C56.5841 404.584 57.2861 403.846 58.7081 403.846C60.1661 403.846 60.8501 404.584 60.8501 405.664V406.582H58.5281C55.9901 406.582 54.6941 407.644 54.6941 409.534C54.6941 411.352 56.1161 412.216 57.7541 412.216ZM58.0421 410.902C56.9621 410.902 56.1341 410.434 56.1341 409.372C56.1341 408.418 56.8181 407.752 58.5281 407.752H60.8501V409.606C60.2561 410.2 59.2661 410.902 58.0421 410.902ZM69.5958 402.532C68.2098 402.532 67.1658 403.252 66.5358 403.972L66.0318 402.748H65.1678V414.88H66.6078V410.866C67.1658 411.532 68.1738 412.216 69.5418 412.216C71.4858 412.216 72.8538 411.028 72.8538 408.814V405.934C72.8538 403.72 71.4678 402.532 69.5958 402.532ZM69.3258 410.902C68.1738 410.902 67.2558 410.146 66.6078 409.444V405.304C67.2558 404.602 68.1918 403.846 69.3438 403.846C70.5678 403.846 71.4138 404.728 71.4138 406.042V408.706C71.4138 410.02 70.5678 410.902 69.3258 410.902ZM75.5741 412H77.0141V399.31H75.5741V412ZM81.3718 414.88H82.5778L87.1858 403.432V402.748H85.8718L83.0998 410.056L80.2738 402.748H78.9238V403.432L82.3978 412L81.3718 414.34V414.88ZM96.0041 412.216C97.4441 412.216 98.5781 411.46 99.1361 410.83L99.6761 412H100.54V405.574C100.54 403.828 99.3701 402.532 96.9581 402.532C94.5641 402.532 93.4301 403.828 93.4301 405.556H94.8341C94.8341 404.584 95.5361 403.846 96.9581 403.846C98.4161 403.846 99.1001 404.584 99.1001 405.664V406.582H96.7781C94.2401 406.582 92.9441 407.644 92.9441 409.534C92.9441 411.352 94.3661 412.216 96.0041 412.216ZM96.2921 410.902C95.2121 410.902 94.3841 410.434 94.3841 409.372C94.3841 408.418 95.0681 407.752 96.7781 407.752H99.1001V409.606C98.5061 410.2 97.5161 410.902 96.2921 410.902ZM106.802 412H107.666V410.686H106.802C105.866 410.686 105.29 410.2 105.29 408.958V404.008H107.666V402.748H105.29V400.822H103.85V402.748H102.338V404.008H103.85V408.994C103.85 410.488 104.48 412 106.802 412ZM116.94 412.216C118.38 412.216 119.514 411.46 120.072 410.83L120.612 412H121.476V405.574C121.476 403.828 120.306 402.532 117.894 402.532C115.5 402.532 114.366 403.828 114.366 405.556H115.77C115.77 404.584 116.472 403.846 117.894 403.846C119.352 403.846 120.036 404.584 120.036 405.664V406.582H117.714C115.176 406.582 113.88 407.644 113.88 409.534C113.88 411.352 115.302 412.216 116.94 412.216ZM117.228 410.902C116.148 410.902 115.32 410.434 115.32 409.372C115.32 408.418 116.004 407.752 117.714 407.752H120.036V409.606C119.442 410.2 118.452 410.902 117.228 410.902ZM124.353 412H125.793V405.304C126.351 404.638 127.323 403.846 128.475 403.846C129.627 403.846 130.527 404.566 130.527 406.168V412H131.967V406.006C131.967 403.756 130.617 402.532 128.763 402.532C127.395 402.532 126.369 403.234 125.721 403.972L125.217 402.748H124.353V412ZM136.216 414.88H137.422L142.03 403.432V402.748H140.716L137.944 410.056L135.118 402.748H133.768V403.432L137.242 412L136.216 414.34V414.88ZM151.802 412H152.666V410.686H151.802C150.866 410.686 150.29 410.2 150.29 408.958V404.008H152.666V402.748H150.29V400.822H148.85V402.748H147.338V404.008H148.85V408.994C148.85 410.488 149.48 412 151.802 412ZM155.027 412H156.467V402.748H155.027V412ZM155.027 401.29H156.467V399.31H155.027V401.29ZM159.457 412H160.897V405.304C161.401 404.656 162.265 403.846 163.381 403.846C164.425 403.846 165.235 404.53 165.235 406.024V412H166.675V406.528C166.675 406.114 166.675 405.736 166.639 405.34C167.305 404.512 168.151 403.846 169.159 403.846C170.203 403.846 171.013 404.53 171.013 406.024V412H172.453V405.862C172.453 403.702 171.337 402.532 169.501 402.532C168.097 402.532 166.999 403.36 166.315 404.188C165.865 403.09 164.929 402.532 163.723 402.532C162.409 402.532 161.473 403.234 160.825 403.972L160.321 402.748H159.457V412ZM178.768 412.216C181 412.216 182.296 411.046 182.458 409.228H181.018C180.856 410.218 180.154 410.902 178.768 410.902C177.184 410.902 176.356 410.02 176.356 408.778V407.86H182.512V405.934C182.512 403.864 181.108 402.532 178.768 402.532C176.356 402.532 174.916 403.918 174.916 405.97V408.814C174.916 410.884 176.356 412.216 178.768 412.216ZM176.356 406.69V405.934C176.356 404.71 177.184 403.846 178.714 403.846C180.28 403.846 181.072 404.728 181.072 405.934V406.69H176.356ZM184.661 412H186.353V409.624H184.661V412Z" fill="#FBFBFB"/>
    <path d="M131.298 56.1037C128.188 56.1037 125.596 58.6952 125.596 61.8049C125.596 64.9147 128.188 67.5062 131.298 67.5062C134.408 67.5062 137 64.9147 137 61.8049C137 58.6952 134.408 56.1037 131.298 56.1037ZM131.298 65.9513C129.017 65.9513 127.151 64.0854 127.151 61.8049C127.151 59.5245 129.017 57.6586 131.298 57.6586C133.579 57.6586 135.445 59.5245 135.445 61.8049C135.445 64.0854 133.579 65.9513 131.298 65.9513Z" fill="#FBFBFB"/>
    <path d="M70.5477 58.7988C70.5477 58.6951 70.5477 58.6951 70.5477 58.6951C70.3403 57.6585 68.889 56.2073 66.8156 56.2073C65.5715 56.2073 64.6385 57.0366 64.0165 57.9695V56.6219H59.2477V58.0731H62.4615V65.5366H59.2477V67.0914H66.9193V65.5366H64.0165V60.3536C64.0165 59.5244 64.6385 57.5549 66.7119 57.5549C67.3339 57.5549 67.956 57.7622 68.3706 58.1768C68.267 58.3841 68.1633 58.5914 68.1633 58.9024C68.1633 59.628 68.6816 60.1463 69.4073 60.1463C70.133 60.1463 70.6514 59.628 70.6514 58.9024C70.5477 58.9024 70.5477 58.7988 70.5477 58.7988Z" fill="#FBFBFB"/>
    <path d="M81.8477 61.0793C82.5733 61.0793 83.0917 60.561 83.0917 59.8354C83.0917 59.7317 83.0917 59.7317 83.0917 59.628C82.8843 58.1768 80.7073 56 77.9082 56C74.6944 56 72.1027 58.5915 72.1027 61.7012C72.1027 64.811 74.6944 67.4024 77.9082 67.4024C80.0853 67.4024 82.055 66.1585 82.988 64.3963L81.744 63.5671C81.0183 64.9146 79.5669 65.8476 77.9082 65.8476C75.6275 65.8476 73.7614 63.9817 73.7614 61.7012C73.7614 59.4207 75.6275 57.5549 77.9082 57.5549C79.1522 57.5549 80.2926 58.0732 81.0183 58.9024C80.811 59.1098 80.7073 59.4207 80.7073 59.7317C80.6036 60.561 81.122 61.0793 81.8477 61.0793Z" fill="#FBFBFB"/>
    <path d="M120.309 58.0732H121.553L118.754 65.3293L115.748 58.0732H117.095V56.5183H112.534V58.0732H114.089L118.028 67.4024L115.851 73H117.51L123.212 58.0732H124.871V56.5183H120.309V58.0732Z" fill="#FBFBFB"/>
    <path d="M111.082 58.7988C111.082 58.6951 111.082 58.6951 111.082 58.6951C110.875 57.6585 109.424 56.2073 107.35 56.2073C106.106 56.2073 105.173 57.0366 104.551 57.9695V56.7256H99.7825V58.0731H102.996V65.5366H99.7825V67.0914H107.454V65.5366H104.551V60.3536C104.551 59.5244 105.173 57.5549 107.247 57.5549C107.869 57.5549 108.491 57.7622 108.905 58.1768C108.802 58.3841 108.698 58.5914 108.698 58.9024C108.698 59.628 109.216 60.1463 109.942 60.1463C110.668 60.1463 111.186 59.628 111.186 58.9024C111.082 58.9024 111.082 58.7988 111.082 58.7988Z" fill="#FBFBFB"/>
    <path d="M95.843 56.5183H94.288V63.3598C94.1843 64.189 92.8366 65.9512 90.8669 65.9512C89.7265 65.9512 88.0678 65.122 88.0678 62.9451C88.0678 61.8049 88.0678 56.5183 88.0678 56.5183H84.854V58.0732H86.5127V63.0488C86.5127 65.8476 88.3788 67.5061 90.6595 67.5061C92.1109 67.5061 93.4586 66.5732 94.288 65.4329V67.0915H97.5017V65.5366H95.843V56.5183Z" fill="#FBFBFB"/>
    <path d="M42.7642 60.561C42.7642 57.7623 40.8982 56.1037 38.6174 56.1037C36.9587 56.1037 35.5073 57.3476 34.678 58.6952C34.056 57.0366 32.6046 56.1037 30.8422 56.1037C29.3908 56.1037 28.0431 57.0366 27.2138 58.1769V56.5184H24V58.0732H25.6587V67.0915H27.2138V60.2501C27.3174 59.4208 28.6651 57.6586 30.6349 57.6586C31.7752 57.6586 33.4339 58.4879 33.4339 60.6647C33.4339 61.8049 33.4339 67.0915 33.4339 67.0915H34.989V60.561C34.989 60.4574 34.989 60.3537 34.989 60.2501C35.0927 59.4208 36.4404 57.6586 38.3064 57.6586C39.4468 57.6586 41.1055 58.4879 41.1055 60.6647C41.1055 61.8049 41.1055 67.0915 41.1055 67.0915H44.3193V65.5366H42.6605L42.7642 60.561Z" fill="#FBFBFB"/>
    <path d="M51.7834 56.2073C48.5697 56.2073 46.0816 58.7988 46.0816 61.9085C46.0816 62.0122 46.0816 62.4268 46.0816 62.5305C46.3926 65.4329 48.8807 67.7134 51.8871 67.7134C54.0642 67.7134 56.0339 66.4695 56.9669 64.7073L55.7229 63.878C54.9972 65.2256 53.5458 66.1585 51.8871 66.1585C49.71 66.1585 47.9477 64.6036 47.7403 62.5305H57.3816C57.3816 62.3231 57.3816 62.1158 57.3816 61.9085C57.2779 58.7988 54.8935 56.2073 51.7834 56.2073ZM47.7403 60.9756C48.155 59.1097 49.8137 57.7622 51.7834 57.7622C53.7532 57.7622 55.2045 59.1097 55.6192 60.9756H47.7403Z" fill="#FBFBFB"/>
    <path d="M245.558 370.535L240.719 360.684C239.222 357.4 240.604 353.55 243.945 352.078C246.019 351.172 248.323 351.285 250.166 352.417M256.964 376.764L249.014 360.118C247.517 356.834 248.899 352.984 252.24 351.512C255.581 350.04 259.498 351.512 263.645 358.985C267.908 366.686 274.36 375.858 272.747 391.372C271.249 405.753 260.074 413 247.402 413C231.388 413 222.978 403.262 218.255 394.316C215.49 389.107 215.144 384.464 217.909 382.199C220.674 379.934 224.591 380.387 227.241 382.992C229.89 385.596 231.849 390.466 234.844 392.504C237.724 394.429 241.872 394.316 243.715 391.485C245.673 388.427 243.369 384.464 240.374 383.445C235.535 381.746 231.964 384.464 227.586 382.652C224.36 381.293 222.287 377.33 223.554 373.933C224.821 370.536 228.162 368.497 234.153 368.611C246.365 368.837 256.157 375.065 260.65 380.274" stroke="#FBFBFB" stroke-width="1.5" stroke-miterlimit="10"/>
  </g>
  <defs>
    <clipPath id="clip0">
      <rect width="305" height="455" fill="white"/>
    </clipPath>
  </defs>
</svg>
