<svg width="640" height="104" viewBox="0 0 640 104" fill="none" xmlns="http://www.w3.org/2000/svg">
  <rect width="640" height="104" rx="12" fill="#BA9E82"/>
  <path d="M596.933 63L606.262 52L596.933 41" stroke="#FBFBFB" stroke-width="1.5" stroke-linecap="round" stroke-linejoin="round"/>
  <g clip-path="url(#clip0)">
    <path fill-rule="evenodd" clip-rule="evenodd" d="M86.7031 59.5163C87.538 57.1245 88 54.6037 88 52C88 36.536 76.7001 24 62.761 24C48.8219 24 31.8501 26.386 32.001 43.25C32.1255 57.1664 40.0975 73.1407 50.7136 78.2997C52.0987 73.2172 55.3583 68.4919 61.0919 64.7375C56.2428 64.1502 51.9011 61.3735 49.2611 56.3842L48.769 56.5133C46.2797 57.4683 43.8117 54.9816 44.833 52.4797L44.8624 52.4078L47.6009 47.3754C48.385 40.3239 53.7826 34.2205 61.1981 33.2389C69.8866 32.0889 77.8624 38.2 79.0124 46.8884C79.5937 51.2803 78.3197 55.4901 75.7954 58.7282C79.9672 57.9774 83.5196 58.3312 86.7031 59.5163ZM85.6326 62.106C81.6766 60.6623 76.8121 60.6417 70.0482 63.3292C69.613 63.5342 69.1661 63.7203 68.7086 63.8863C67.8021 64.2797 66.8627 64.7197 65.8885 65.2091C58.4253 68.9583 54.6972 74.0096 53.3371 79.332C54.7791 79.7677 56.2592 80 57.7658 80C68.493 80 80.6154 72.5756 85.6326 62.106ZM61.5655 36.0147C68.7211 35.0676 75.2895 40.1004 76.2366 47.2558C76.5348 49.5086 76.2402 51.7032 75.4734 53.6824C73.8822 54.9384 71.8596 55.2774 70.0527 54.7108C68.1948 54.1282 66.4564 52.5489 65.698 49.7569C65.4249 48.7515 65.2534 47.8479 65.1155 47.0328C65.0804 46.825 65.0464 46.6158 65.0127 46.4085L65.0127 46.4082C64.9198 45.8366 64.8293 45.2794 64.7229 44.8038C64.5769 44.1518 64.3592 43.4329 63.9084 42.8306C63.4116 42.167 62.7257 41.7636 61.8862 41.5908C60.3418 41.2726 59.1213 41.9925 58.369 42.4362C58.3031 42.4751 58.2408 42.5118 58.1822 42.5456C57.3657 43.0157 56.871 43.2257 56.1453 43.047C55.5483 42.9001 55.0972 42.2619 54.9271 40.8936C54.8516 40.2868 54.8559 39.6828 54.8819 39.2202C54.8855 39.1577 54.8893 39.0983 54.8934 39.0424C56.7222 37.4476 59.004 36.3537 61.5655 36.0147ZM69.2149 57.3825C70.4512 57.7702 71.75 57.8706 73.0177 57.6883C71.8779 58.9625 70.4864 60.0179 68.9074 60.7705C68.5075 60.9304 68.1024 61.0988 67.6922 61.2757C66.8356 61.5818 65.9338 61.8027 64.9954 61.9269C59.8196 62.612 54.9379 60.5805 52.0567 55.651L53.3556 55.3103L52.6453 52.6019L47.8766 53.8526L47.7837 53.8919C47.7095 53.9233 47.6598 53.9211 47.6243 53.9133C47.5812 53.9039 47.531 53.879 47.4862 53.8349C47.4415 53.7907 47.4159 53.7408 47.406 53.6977C47.3996 53.6703 47.3965 53.6345 47.4094 53.5852L51.6052 45.8749L50.8263 45.451C51.1667 44.2687 51.6655 43.1446 52.3012 42.1104C52.6306 43.5416 53.4458 45.2661 55.4761 45.7659C57.3341 46.2232 58.6754 45.4925 59.5793 44.9722C60.572 44.4006 60.8801 44.2423 61.3214 44.3332C61.5702 44.3844 61.6263 44.4545 61.6668 44.5085C61.7531 44.6239 61.8677 44.8668 61.9905 45.4154C62.0776 45.8047 62.1479 46.2374 62.2346 46.7712V46.7712C62.271 46.9949 62.3102 47.2363 62.3547 47.4997C62.4998 48.3578 62.6891 49.3611 62.9959 50.4908C63.9866 54.1384 66.3823 56.4943 69.2149 57.3825Z" fill="#FBFBFB"/>
  </g>
  <path d="M113.12 46H115.904L124.256 24.528V23.6H121.632L114.56 42.288L107.392 23.6H104.736V24.528L113.12 46ZM132.487 46.384C136.455 46.384 138.759 44.304 139.047 41.072H136.487C136.199 42.832 134.951 44.048 132.487 44.048C129.671 44.048 128.199 42.48 128.199 40.272V38.64H139.143V35.216C139.143 31.536 136.647 29.168 132.487 29.168C128.199 29.168 125.639 31.632 125.639 35.28V40.336C125.639 44.016 128.199 46.384 132.487 46.384ZM128.199 36.56V35.216C128.199 33.04 129.671 31.504 132.391 31.504C135.175 31.504 136.583 33.072 136.583 35.216V36.56H128.199ZM143.687 46H146.247V33.968C147.527 32.432 149.223 31.664 151.399 31.664H151.751V29.168H151.335C149.031 29.168 147.079 30.48 145.959 31.728L145.031 29.552H143.687V46ZM155.469 46H158.029V29.552H155.469V46ZM155.469 26.96H158.029V23.44H155.469V26.96ZM163.952 46H166.512V31.792H170.48V29.552H166.512V29.008C166.512 26.544 167.632 25.712 169.808 25.712C170.095 25.712 170.512 25.744 170.64 25.744V23.44C170.352 23.408 169.936 23.376 169.52 23.376C165.168 23.376 163.952 26.064 163.952 29.552H161.264V31.792H163.952V46ZM176.463 51.12H178.607L186.799 30.768V29.552H184.463L179.535 42.544L174.511 29.552H172.111V30.768L178.287 46L176.463 50.16V51.12ZM200.588 51.12H202.732L210.924 30.768V29.552H208.588L203.66 42.544L198.636 29.552H196.236V30.768L202.412 46L200.588 50.16V51.12ZM220.424 44.048C217.608 44.048 216.136 42.352 216.136 40.176V35.376C216.136 33.2 217.608 31.504 220.424 31.504C223.304 31.504 224.68 33.232 224.68 35.376V40.176C224.68 42.32 223.304 44.048 220.424 44.048ZM220.424 46.384C224.968 46.384 227.24 43.728 227.24 40.272V35.28C227.24 31.824 224.968 29.168 220.424 29.168C215.88 29.168 213.576 31.824 213.576 35.28V40.272C213.576 43.728 215.88 46.384 220.424 46.384ZM245.124 29.552H242.564V41.456C241.572 42.64 239.844 44.048 237.796 44.048C235.78 44.048 234.212 42.768 234.212 39.92V29.552H231.652V40.208C231.652 44.208 234.02 46.384 237.284 46.384C239.716 46.384 241.54 45.136 242.66 43.824L243.588 46H245.124V29.552ZM250.437 46H252.997V33.968C254.277 32.432 255.973 31.664 258.149 31.664H258.501V29.168H258.085C255.781 29.168 253.829 30.48 252.709 31.728L251.781 29.552H250.437V46ZM274.507 46.384C277.067 46.384 279.083 45.04 280.075 43.92L281.035 46H282.571V34.576C282.571 31.472 280.491 29.168 276.203 29.168C271.947 29.168 269.931 31.472 269.931 34.544H272.427C272.427 32.816 273.675 31.504 276.203 31.504C278.795 31.504 280.011 32.816 280.011 34.736V36.368H275.883C271.371 36.368 269.067 38.256 269.067 41.616C269.067 44.848 271.595 46.384 274.507 46.384ZM275.019 44.048C273.099 44.048 271.627 43.216 271.627 41.328C271.627 39.632 272.843 38.448 275.883 38.448H280.011V41.744C278.955 42.8 277.195 44.048 275.019 44.048ZM293.671 46.384C297.703 46.384 300.295 44.016 300.295 40.432V40.24H297.735V40.464C297.735 42.544 296.295 44.048 293.671 44.048C290.919 44.048 289.511 42.512 289.511 40.336V35.216C289.511 33.04 290.919 31.504 293.671 31.504C296.263 31.504 297.735 32.976 297.735 35.024V35.216H300.295V35.056C300.295 31.44 297.735 29.168 293.671 29.168C289.447 29.168 286.951 31.632 286.951 35.28V40.272C286.951 43.92 289.447 46.384 293.671 46.384ZM310.734 46.384C314.766 46.384 317.358 44.016 317.358 40.432V40.24H314.798V40.464C314.798 42.544 313.358 44.048 310.734 44.048C307.982 44.048 306.574 42.512 306.574 40.336V35.216C306.574 33.04 307.982 31.504 310.734 31.504C313.326 31.504 314.798 32.976 314.798 35.024V35.216H317.358V35.056C317.358 31.44 314.798 29.168 310.734 29.168C306.51 29.168 304.014 31.632 304.014 35.28V40.272C304.014 43.92 306.51 46.384 310.734 46.384ZM327.924 44.048C325.108 44.048 323.636 42.352 323.636 40.176V35.376C323.636 33.2 325.108 31.504 327.924 31.504C330.804 31.504 332.18 33.232 332.18 35.376V40.176C332.18 42.32 330.804 44.048 327.924 44.048ZM327.924 46.384C332.468 46.384 334.74 43.728 334.74 40.272V35.28C334.74 31.824 332.468 29.168 327.924 29.168C323.38 29.168 321.076 31.824 321.076 35.28V40.272C321.076 43.728 323.38 46.384 327.924 46.384ZM352.624 29.552H350.064V41.456C349.072 42.64 347.344 44.048 345.296 44.048C343.28 44.048 341.712 42.768 341.712 39.92V29.552H339.152V40.208C339.152 44.208 341.52 46.384 344.784 46.384C347.216 46.384 349.04 45.136 350.16 43.824L351.088 46H352.624V29.552ZM357.937 46H360.497V34.096C361.489 32.912 363.217 31.504 365.265 31.504C367.313 31.504 368.913 32.784 368.913 35.632V46H371.473V35.344C371.473 31.344 369.073 29.168 365.777 29.168C363.345 29.168 361.521 30.416 360.369 31.728L359.473 29.552H357.937V46ZM382.61 46H384.146V43.664H382.61C380.946 43.664 379.922 42.8 379.922 40.592V31.792H384.146V29.552H379.922V26.128H377.362V29.552H374.674V31.792H377.362V40.656C377.362 43.312 378.482 46 382.61 46ZM112.672 80H114.208V77.664H112.672C111.008 77.664 109.984 76.8 109.984 74.592V65.792H114.208V63.552H109.984V60.128H107.424V63.552H104.736V65.792H107.424V74.656C107.424 77.312 108.544 80 112.672 80ZM124.518 78.048C121.702 78.048 120.23 76.352 120.23 74.176V69.376C120.23 67.2 121.702 65.504 124.518 65.504C127.398 65.504 128.774 67.232 128.774 69.376V74.176C128.774 76.32 127.398 78.048 124.518 78.048ZM124.518 80.384C129.062 80.384 131.334 77.728 131.334 74.272V69.28C131.334 65.824 129.062 63.168 124.518 63.168C119.974 63.168 117.67 65.824 117.67 69.28V74.272C117.67 77.728 119.974 80.384 124.518 80.384ZM149.987 80.384C153.955 80.384 156.259 78.304 156.547 75.072H153.987C153.699 76.832 152.451 78.048 149.987 78.048C147.171 78.048 145.699 76.48 145.699 74.272V72.64H156.643V69.216C156.643 65.536 154.147 63.168 149.987 63.168C145.699 63.168 143.139 65.632 143.139 69.28V74.336C143.139 78.016 145.699 80.384 149.987 80.384ZM145.699 70.56V69.216C145.699 67.04 147.171 65.504 149.891 65.504C152.675 65.504 154.083 67.072 154.083 69.216V70.56H145.699ZM173.571 64.768V63.552H171.235L166.819 69.696L162.307 63.552H159.971V64.768L165.187 71.712L159.907 78.784V80H162.211L166.755 73.664L171.427 80H173.731V78.784L168.387 71.712L173.571 64.768ZM183.39 80.384C187.422 80.384 190.014 78.016 190.014 74.432V74.24H187.454V74.464C187.454 76.544 186.014 78.048 183.39 78.048C180.638 78.048 179.23 76.512 179.23 74.336V69.216C179.23 67.04 180.638 65.504 183.39 65.504C185.982 65.504 187.454 66.976 187.454 69.024V69.216H190.014V69.056C190.014 65.44 187.454 63.168 183.39 63.168C179.166 63.168 176.67 65.632 176.67 69.28V74.272C176.67 77.92 179.166 80.384 183.39 80.384ZM200.581 80.384C204.549 80.384 206.853 78.304 207.141 75.072H204.581C204.293 76.832 203.045 78.048 200.581 78.048C197.765 78.048 196.293 76.48 196.293 74.272V72.64H207.237V69.216C207.237 65.536 204.741 63.168 200.581 63.168C196.293 63.168 193.733 65.632 193.733 69.28V74.336C193.733 78.016 196.293 80.384 200.581 80.384ZM196.293 70.56V69.216C196.293 67.04 197.765 65.504 200.485 65.504C203.269 65.504 204.677 67.072 204.677 69.216V70.56H196.293ZM217.893 80.384C221.861 80.384 224.165 78.304 224.453 75.072H221.893C221.605 76.832 220.357 78.048 217.893 78.048C215.077 78.048 213.605 76.48 213.605 74.272V72.64H224.549V69.216C224.549 65.536 222.053 63.168 217.893 63.168C213.605 63.168 211.045 65.632 211.045 69.28V74.336C211.045 78.016 213.605 80.384 217.893 80.384ZM213.605 70.56V69.216C213.605 67.04 215.077 65.504 217.797 65.504C220.581 65.504 221.989 67.072 221.989 69.216V70.56H213.605ZM234.406 80.384C236.902 80.384 238.726 79.104 239.846 77.824L240.742 80H242.278V57.44H239.718V65.568C238.726 64.384 236.934 63.168 234.502 63.168C231.046 63.168 228.614 65.28 228.614 69.216V74.336C228.614 78.272 231.078 80.384 234.406 80.384ZM234.885 78.048C232.678 78.048 231.174 76.48 231.174 74.144V69.408C231.174 67.072 232.678 65.504 234.854 65.504C236.902 65.504 238.566 66.848 239.718 68.096V75.456C238.566 76.704 236.934 78.048 234.885 78.048ZM255.562 80H258.122V57.44H255.562V80ZM263.437 80H265.997V63.552H263.437V80ZM263.437 60.96H265.997V57.44H263.437V60.96ZM271.312 80H273.872V68.096C274.768 66.944 276.304 65.504 278.288 65.504C280.144 65.504 281.584 66.72 281.584 69.376V80H284.144V70.272C284.144 69.536 284.144 68.864 284.08 68.16C285.264 66.688 286.768 65.504 288.56 65.504C290.416 65.504 291.856 66.72 291.856 69.376V80H294.416V69.088C294.416 65.248 292.432 63.168 289.168 63.168C286.672 63.168 284.72 64.64 283.504 66.112C282.704 64.16 281.04 63.168 278.896 63.168C276.56 63.168 274.896 64.416 273.744 65.728L272.848 63.552H271.312V80ZM299.531 80H302.091V63.552H299.531V80ZM299.531 60.96H302.091V57.44H299.531V60.96ZM313.422 80H314.958V77.664H313.422C311.758 77.664 310.734 76.8 310.734 74.592V65.792H314.958V63.552H310.734V60.128H308.174V63.552H305.486V65.792H308.174V74.656C308.174 77.312 309.294 80 313.422 80ZM325.364 80.384C329.46 80.384 331.956 78.336 331.956 75.36C331.956 72.736 330.292 71.648 327.732 71.008L323.732 70.016C322.036 69.568 321.396 68.992 321.396 67.84C321.396 66.592 322.516 65.504 325.012 65.504C327.38 65.504 329.14 66.592 329.14 68.96H331.7C331.7 65.088 329.108 63.168 325.204 63.168C321.204 63.168 318.836 65.216 318.836 68C318.836 70.624 320.532 71.648 322.772 72.224L326.836 73.28C328.66 73.76 329.396 74.368 329.396 75.552C329.396 76.992 327.956 78.048 325.556 78.048C322.996 78.048 320.756 76.928 320.756 74.432H318.196C318.196 78.4 321.3 80.384 325.364 80.384Z" fill="#FBFBFB"/>
  <defs>
    <clipPath id="clip0">
      <rect width="56" height="56" fill="white" transform="translate(32 24)"/>
    </clipPath>
  </defs>
</svg>
