<svg width="640" height="976" viewBox="0 0 640 976" fill="none" xmlns="http://www.w3.org/2000/svg">
  <rect width="640" height="976" rx="12" fill="#232323"/>
  <path fill-rule="evenodd" clip-rule="evenodd" d="M228.423 56L56 93.8734V267C56 382.652 121.113 413.369 216.283 458.264C220.277 460.149 224.325 462.058 228.423 464C232.52 462.058 236.568 460.149 240.563 458.264C335.733 413.369 400.845 382.652 400.845 267V93.8734L228.423 56ZM228.422 124.86C199.11 124.86 176.695 147.24 176.695 176.506V221.983C181.865 217.319 187.661 213.338 193.938 210.185V176.506C193.938 157.569 209.456 142.076 228.422 142.076C247.389 142.076 262.907 157.569 262.907 176.506V210.107C269.18 213.241 274.975 217.201 280.149 221.843V176.506C280.149 147.24 257.734 124.86 228.422 124.86ZM298 279C298 317.108 267.108 348 229 348C190.892 348 160 317.108 160 279C160 240.892 190.892 210 229 210C267.108 210 298 240.892 298 279ZM211 261H247V297H211V261Z" fill="#FBFBFB"/>
  <path d="M426.317 442L551.48 600.806" stroke="#FBFBFB" stroke-width="2" stroke-miterlimit="10" stroke-linecap="round" stroke-linejoin="round"/>
  <path d="M453.164 368L571.4 448.339" stroke="#FBFBFB" stroke-width="2" stroke-miterlimit="10" stroke-linecap="round" stroke-linejoin="round"/>
  <path d="M336.564 448L365.398 521.983" stroke="#FBFBFB" stroke-width="2" stroke-miterlimit="10" stroke-linecap="round" stroke-linejoin="round"/>
  <path fill-rule="evenodd" clip-rule="evenodd" d="M587.144 617.466C587.144 617.466 570.79 629.829 582.888 646.144C570.719 629.733 554.211 641.888 554.211 641.888C554.211 641.888 571.323 630.548 558.467 613.211C571.323 630.548 587.144 617.466 587.144 617.466Z" fill="#FBFBFB"/>
  <path fill-rule="evenodd" clip-rule="evenodd" d="M589.5 189.25C589.5 189.25 575.25 189.381 575.25 203.5C575.25 189.299 561 189.25 561 189.25C561 189.25 575.25 190.004 575.25 175C575.25 190.004 589.5 189.25 589.5 189.25Z" fill="#FBFBFB"/>
  <path d="M589.5 189.25C589.5 189.25 575.25 189.381 575.25 203.5C575.25 189.299 561 189.25 561 189.25C561 189.25 575.25 190.004 575.25 175C575.25 190.004 589.5 189.25 589.5 189.25" stroke="#FBFBFB"/>
  <path fill-rule="evenodd" clip-rule="evenodd" d="M575 911C575 911 564 911.101 564 922C564 911.037 553 911 553 911C553 911 564 911.582 564 900C564 911.582 575 911 575 911Z" fill="#FBFBFB"/>
  <path d="M575 911C575 911 564 911.101 564 922C564 911.037 553 911 553 911C553 911 564 911.582 564 900C564 911.582 575 911 575 911" stroke="#FBFBFB"/>
  <path fill-rule="evenodd" clip-rule="evenodd" d="M120 484.5C120 488.642 116.642 492 112.5 492C108.358 492 105 488.642 105 484.5C105 480.358 108.358 477 112.5 477C116.642 477 120 480.358 120 484.5Z" fill="#FBFBFB"/>
  <path d="M120 484.5C120 488.642 116.642 492 112.5 492C108.358 492 105 488.642 105 484.5C105 480.358 108.358 477 112.5 477C116.642 477 120 480.358 120 484.5" stroke="#FBFBFB"/>
  <path d="M461.232 103H463.32V95.488H471.504V103H473.592V86.2H471.504V93.64H463.32V86.2H461.232V103ZM481.06 103.288C482.98 103.288 484.492 102.28 485.236 101.44L485.956 103H487.108V94.432C487.108 92.104 485.548 90.376 482.332 90.376C479.14 90.376 477.628 92.104 477.628 94.408H479.5C479.5 93.112 480.436 92.128 482.332 92.128C484.276 92.128 485.188 93.112 485.188 94.552V95.776H482.092C478.708 95.776 476.98 97.192 476.98 99.712C476.98 102.136 478.876 103.288 481.06 103.288ZM481.444 101.536C480.004 101.536 478.9 100.912 478.9 99.496C478.9 98.224 479.812 97.336 482.092 97.336H485.188V99.808C484.396 100.6 483.076 101.536 481.444 101.536ZM494.113 103H495.913L500.521 91.576V90.664H498.769L495.073 100.408L491.305 90.664H489.505V91.576L494.113 103ZM507.646 103.288C510.622 103.288 512.35 101.728 512.566 99.304H510.646C510.43 100.624 509.494 101.536 507.646 101.536C505.534 101.536 504.43 100.36 504.43 98.704V97.48H512.638V94.912C512.638 92.152 510.766 90.376 507.646 90.376C504.43 90.376 502.51 92.224 502.51 94.96V98.752C502.51 101.512 504.43 103.288 507.646 103.288ZM504.43 95.92V94.912C504.43 93.28 505.534 92.128 507.574 92.128C509.662 92.128 510.718 93.304 510.718 94.912V95.92H504.43ZM525.263 103.288C527.183 103.288 528.695 102.28 529.439 101.44L530.159 103H531.311V94.432C531.311 92.104 529.751 90.376 526.535 90.376C523.343 90.376 521.831 92.104 521.831 94.408H523.703C523.703 93.112 524.639 92.128 526.535 92.128C528.479 92.128 529.391 93.112 529.391 94.552V95.776H526.295C522.911 95.776 521.183 97.192 521.183 99.712C521.183 102.136 523.079 103.288 525.263 103.288ZM525.647 101.536C524.207 101.536 523.103 100.912 523.103 99.496C523.103 98.224 524.015 97.336 526.295 97.336H529.391V99.808C528.599 100.6 527.279 101.536 525.647 101.536ZM535.148 103H537.068V94.072C537.812 93.184 539.108 92.128 540.644 92.128C542.18 92.128 543.38 93.088 543.38 95.224V103H545.3V95.008C545.3 92.008 543.5 90.376 541.028 90.376C539.204 90.376 537.836 91.312 536.972 92.296L536.3 90.664H535.148V103ZM550.964 106.84H552.572L558.716 91.576V90.664H556.964L553.268 100.408L549.5 90.664H547.7V91.576L552.332 103L550.964 106.12V106.84ZM464.976 122.376C462.48 122.376 460.632 123.96 460.632 126.912V130.752C460.632 133.704 462.456 135.288 465.048 135.288C466.872 135.288 468.216 134.376 468.96 133.488V138.84H470.88V122.664H469.728L469.056 124.296C468.216 123.336 466.848 122.376 464.976 122.376ZM465.336 133.536C463.68 133.536 462.552 132.36 462.552 130.608V127.056C462.552 125.304 463.68 124.128 465.312 124.128C466.848 124.128 468.096 125.136 468.96 126.072V131.592C468.096 132.528 466.872 133.536 465.336 133.536ZM484.851 122.664H482.931V131.592C482.187 132.48 480.891 133.536 479.355 133.536C477.843 133.536 476.667 132.576 476.667 130.44V122.664H474.747V130.656C474.747 133.656 476.523 135.288 478.971 135.288C480.795 135.288 482.163 134.352 483.003 133.368L483.699 135H484.851V122.664ZM493.42 135.288C496.396 135.288 498.124 133.728 498.34 131.304H496.42C496.204 132.624 495.268 133.536 493.42 133.536C491.308 133.536 490.204 132.36 490.204 130.704V129.48H498.412V126.912C498.412 124.152 496.54 122.376 493.42 122.376C490.204 122.376 488.284 124.224 488.284 126.96V130.752C488.284 133.512 490.204 135.288 493.42 135.288ZM490.204 127.92V126.912C490.204 125.28 491.308 124.128 493.348 124.128C495.436 124.128 496.492 125.304 496.492 126.912V127.92H490.204ZM506.476 135.288C509.548 135.288 511.42 133.752 511.42 131.52C511.42 129.552 510.172 128.736 508.252 128.256L505.252 127.512C503.98 127.176 503.5 126.744 503.5 125.88C503.5 124.944 504.34 124.128 506.212 124.128C507.988 124.128 509.308 124.944 509.308 126.72H511.228C511.228 123.816 509.284 122.376 506.356 122.376C503.356 122.376 501.58 123.912 501.58 126C501.58 127.968 502.852 128.736 504.532 129.168L507.58 129.96C508.948 130.32 509.5 130.776 509.5 131.664C509.5 132.744 508.42 133.536 506.62 133.536C504.7 133.536 503.02 132.696 503.02 130.824H501.1C501.1 133.8 503.428 135.288 506.476 135.288ZM519.434 135H520.586V133.248H519.434C518.186 133.248 517.418 132.6 517.418 130.944V124.344H520.586V122.664H517.418V120.096H515.498V122.664H513.482V124.344H515.498V130.992C515.498 132.984 516.338 135 519.434 135ZM523.734 135H525.654V122.664H523.734V135ZM523.734 120.72H525.654V118.08H523.734V120.72ZM534.224 133.536C532.112 133.536 531.008 132.264 531.008 130.632V127.032C531.008 125.4 532.112 124.128 534.224 124.128C536.384 124.128 537.416 125.424 537.416 127.032V130.632C537.416 132.24 536.384 133.536 534.224 133.536ZM534.224 135.288C537.632 135.288 539.336 133.296 539.336 130.704V126.96C539.336 124.368 537.632 122.376 534.224 122.376C530.816 122.376 529.088 124.368 529.088 126.96V130.704C529.088 133.296 530.816 135.288 534.224 135.288ZM542.765 135H544.685V126.072C545.429 125.184 546.725 124.128 548.261 124.128C549.797 124.128 550.997 125.088 550.997 127.224V135H552.917V127.008C552.917 124.008 551.117 122.376 548.645 122.376C546.821 122.376 545.453 123.312 544.589 124.296L543.917 122.664H542.765V135ZM561.414 135.288C564.486 135.288 566.358 133.752 566.358 131.52C566.358 129.552 565.11 128.736 563.19 128.256L560.19 127.512C558.918 127.176 558.438 126.744 558.438 125.88C558.438 124.944 559.278 124.128 561.15 124.128C562.926 124.128 564.246 124.944 564.246 126.72H566.166C566.166 123.816 564.222 122.376 561.294 122.376C558.294 122.376 556.518 123.912 556.518 126C556.518 127.968 557.79 128.736 559.47 129.168L562.518 129.96C563.886 130.32 564.438 130.776 564.438 131.664C564.438 132.744 563.358 133.536 561.558 133.536C559.638 133.536 557.958 132.696 557.958 130.824H556.038C556.038 133.8 558.366 135.288 561.414 135.288ZM572.859 129.72H574.779V127.824L575.883 127.08C577.203 126.216 579.147 124.944 579.147 122.4C579.147 120.048 577.491 117.84 574.059 117.84C571.011 117.84 568.659 119.76 568.659 123.288H570.483C570.483 120.96 571.923 119.592 574.059 119.592C576.243 119.592 577.227 121.008 577.227 122.424C577.227 124.152 576.219 124.824 574.875 125.76L572.859 127.152V129.72ZM572.811 135H574.851V132.048H572.811V135Z" fill="#FF592C"/>
  <path d="M58.232 807H60.248V793.92L64.952 801.288H66.32L71.024 793.896V807H73.04V790.2H71.096L65.672 798.72L60.248 790.2H58.232V807ZM81.8416 807.288C84.8176 807.288 86.5456 805.728 86.7616 803.304H84.8416C84.6256 804.624 83.6896 805.536 81.8416 805.536C79.7296 805.536 78.6256 804.36 78.6256 802.704V801.48H86.8336V798.912C86.8336 796.152 84.9616 794.376 81.8416 794.376C78.6256 794.376 76.7056 796.224 76.7056 798.96V802.752C76.7056 805.512 78.6256 807.288 81.8416 807.288ZM78.6256 799.92V798.912C78.6256 797.28 79.7296 796.128 81.7696 796.128C83.8576 796.128 84.9136 797.304 84.9136 798.912V799.92H78.6256ZM90.242 807H92.162V797.976C93.122 796.824 94.394 796.248 96.026 796.248H96.29V794.376H95.978C94.25 794.376 92.786 795.36 91.946 796.296L91.25 794.664H90.242V807ZM103.332 807.288C106.356 807.288 108.3 805.512 108.3 802.824V802.68H106.38V802.848C106.38 804.408 105.3 805.536 103.332 805.536C101.268 805.536 100.212 804.384 100.212 802.752V798.912C100.212 797.28 101.268 796.128 103.332 796.128C105.276 796.128 106.38 797.232 106.38 798.768V798.912H108.3V798.792C108.3 796.08 106.38 794.376 103.332 794.376C100.164 794.376 98.2916 796.224 98.2916 798.96V802.704C98.2916 805.44 100.164 807.288 103.332 807.288ZM121.624 794.664H119.704V803.592C118.96 804.48 117.664 805.536 116.128 805.536C114.616 805.536 113.44 804.576 113.44 802.44V794.664H111.52V802.656C111.52 805.656 113.296 807.288 115.744 807.288C117.568 807.288 118.936 806.352 119.776 805.368L120.472 807H121.624V794.664ZM125.609 807H127.529V797.976C128.489 796.824 129.761 796.248 131.393 796.248H131.657V794.376H131.345C129.617 794.376 128.153 795.36 127.313 796.296L126.617 794.664H125.609V807ZM136.738 810.84H138.346L144.49 795.576V794.664H142.738L139.042 804.408L135.274 794.664H133.474V795.576L138.106 807L136.738 810.12V810.84ZM151.615 805.536C149.503 805.536 148.399 804.264 148.399 802.632V799.032C148.399 797.4 149.503 796.128 151.615 796.128C153.775 796.128 154.807 797.424 154.807 799.032V802.632C154.807 804.24 153.775 805.536 151.615 805.536ZM151.615 807.288C155.023 807.288 156.727 805.296 156.727 802.704V798.96C156.727 796.368 155.023 794.376 151.615 794.376C148.207 794.376 146.479 796.368 146.479 798.96V802.704C146.479 805.296 148.207 807.288 151.615 807.288ZM170.789 807.288C173.861 807.288 175.733 805.752 175.733 803.52C175.733 801.552 174.485 800.736 172.565 800.256L169.565 799.512C168.293 799.176 167.813 798.744 167.813 797.88C167.813 796.944 168.653 796.128 170.525 796.128C172.301 796.128 173.621 796.944 173.621 798.72H175.541C175.541 795.816 173.597 794.376 170.669 794.376C167.669 794.376 165.893 795.912 165.893 798C165.893 799.968 167.165 800.736 168.845 801.168L171.893 801.96C173.261 802.32 173.813 802.776 173.813 803.664C173.813 804.744 172.733 805.536 170.933 805.536C169.013 805.536 167.333 804.696 167.333 802.824H165.413C165.413 805.8 167.741 807.288 170.789 807.288ZM183.746 807H184.898V805.248H183.746C182.498 805.248 181.73 804.6 181.73 802.944V796.344H184.898V794.664H181.73V792.096H179.81V794.664H177.794V796.344H179.81V802.992C179.81 804.984 180.65 807 183.746 807ZM192.631 805.536C190.519 805.536 189.415 804.264 189.415 802.632V799.032C189.415 797.4 190.519 796.128 192.631 796.128C194.791 796.128 195.823 797.424 195.823 799.032V802.632C195.823 804.24 194.791 805.536 192.631 805.536ZM192.631 807.288C196.039 807.288 197.743 805.296 197.743 802.704V798.96C197.743 796.368 196.039 794.376 192.631 794.376C189.223 794.376 187.495 796.368 187.495 798.96V802.704C187.495 805.296 189.223 807.288 192.631 807.288ZM201.172 807H203.092V797.976C204.052 796.824 205.324 796.248 206.956 796.248H207.22V794.376H206.908C205.18 794.376 203.716 795.36 202.876 796.296L202.18 794.664H201.172V807ZM214.357 807.288C217.333 807.288 219.061 805.728 219.277 803.304H217.357C217.141 804.624 216.205 805.536 214.357 805.536C212.245 805.536 211.141 804.36 211.141 802.704V801.48H219.349V798.912C219.349 796.152 217.477 794.376 214.357 794.376C211.141 794.376 209.221 796.224 209.221 798.96V802.752C209.221 805.512 211.141 807.288 214.357 807.288ZM211.141 799.92V798.912C211.141 797.28 212.245 796.128 214.285 796.128C216.373 796.128 217.429 797.304 217.429 798.912V799.92H211.141ZM227.414 807.288C230.486 807.288 232.358 805.752 232.358 803.52C232.358 801.552 231.11 800.736 229.19 800.256L226.19 799.512C224.918 799.176 224.438 798.744 224.438 797.88C224.438 796.944 225.278 796.128 227.15 796.128C228.926 796.128 230.246 796.944 230.246 798.72H232.166C232.166 795.816 230.222 794.376 227.294 794.376C224.294 794.376 222.518 795.912 222.518 798C222.518 799.968 223.79 800.736 225.47 801.168L228.518 801.96C229.886 802.32 230.438 802.776 230.438 803.664C230.438 804.744 229.358 805.536 227.558 805.536C225.638 805.536 223.958 804.696 223.958 802.824H222.038C222.038 805.8 224.366 807.288 227.414 807.288ZM245.076 807.288C246.996 807.288 248.508 806.28 249.252 805.44L249.972 807H251.124V798.432C251.124 796.104 249.564 794.376 246.348 794.376C243.156 794.376 241.644 796.104 241.644 798.408H243.516C243.516 797.112 244.452 796.128 246.348 796.128C248.292 796.128 249.204 797.112 249.204 798.552V799.776H246.108C242.724 799.776 240.996 801.192 240.996 803.712C240.996 806.136 242.892 807.288 245.076 807.288ZM245.46 805.536C244.02 805.536 242.916 804.912 242.916 803.496C242.916 802.224 243.828 801.336 246.108 801.336H249.204V803.808C248.412 804.6 247.092 805.536 245.46 805.536ZM266.841 794.376C264.993 794.376 263.601 795.336 262.761 796.296L262.089 794.664H260.937V810.84H262.857V805.488C263.601 806.376 264.945 807.288 266.769 807.288C269.361 807.288 271.185 805.704 271.185 802.752V798.912C271.185 795.96 269.337 794.376 266.841 794.376ZM266.481 805.536C264.945 805.536 263.721 804.528 262.857 803.592V798.072C263.721 797.136 264.969 796.128 266.505 796.128C268.137 796.128 269.265 797.304 269.265 799.056V802.608C269.265 804.36 268.137 805.536 266.481 805.536ZM278.052 807.288C279.972 807.288 281.484 806.28 282.228 805.44L282.948 807H284.1V798.432C284.1 796.104 282.54 794.376 279.324 794.376C276.132 794.376 274.62 796.104 274.62 798.408H276.492C276.492 797.112 277.428 796.128 279.324 796.128C281.268 796.128 282.18 797.112 282.18 798.552V799.776H279.084C275.7 799.776 273.972 801.192 273.972 803.712C273.972 806.136 275.868 807.288 278.052 807.288ZM278.436 805.536C276.996 805.536 275.892 804.912 275.892 803.496C275.892 802.224 276.804 801.336 279.084 801.336H282.18V803.808C281.388 804.6 280.068 805.536 278.436 805.536ZM287.937 807H289.857V797.976C290.817 796.824 292.089 796.248 293.721 796.248H293.985V794.376H293.673C291.945 794.376 290.481 795.36 289.641 796.296L288.945 794.664H287.937V807ZM301.754 807H302.906V805.248H301.754C300.506 805.248 299.738 804.6 299.738 802.944V796.344H302.906V794.664H299.738V792.096H297.818V794.664H295.802V796.344H297.818V802.992C297.818 804.984 298.658 807 301.754 807ZM316.615 805.536C314.503 805.536 313.399 804.264 313.399 802.632V799.032C313.399 797.4 314.503 796.128 316.615 796.128C318.775 796.128 319.807 797.424 319.807 799.032V802.632C319.807 804.24 318.775 805.536 316.615 805.536ZM316.615 807.288C320.023 807.288 321.727 805.296 321.727 802.704V798.96C321.727 796.368 320.023 794.376 316.615 794.376C313.207 794.376 311.479 796.368 311.479 798.96V802.704C311.479 805.296 313.207 807.288 316.615 807.288ZM325.612 807H327.532V796.344H330.508V794.664H327.532V794.256C327.532 792.408 328.372 791.784 330.004 791.784C330.22 791.784 330.532 791.808 330.628 791.808V790.08C330.412 790.056 330.1 790.032 329.788 790.032C326.524 790.032 325.612 792.048 325.612 794.664H323.596V796.344H325.612V807ZM343.66 807H344.812V805.248H343.66C342.412 805.248 341.644 804.6 341.644 802.944V796.344H344.812V794.664H341.644V792.096H339.724V794.664H337.708V796.344H339.724V802.992C339.724 804.984 340.564 807 343.66 807ZM347.961 807H349.881V798.072C350.625 797.184 351.945 796.128 353.457 796.128C354.993 796.128 356.193 797.088 356.193 799.224V807H358.113V799.008C358.113 796.008 356.265 794.376 353.865 794.376C352.065 794.376 350.721 795.264 349.881 796.176V790.08H347.961V807ZM366.537 807.288C369.513 807.288 371.241 805.728 371.457 803.304H369.537C369.321 804.624 368.385 805.536 366.537 805.536C364.425 805.536 363.321 804.36 363.321 802.704V801.48H371.529V798.912C371.529 796.152 369.657 794.376 366.537 794.376C363.321 794.376 361.401 796.224 361.401 798.96V802.752C361.401 805.512 363.321 807.288 366.537 807.288ZM363.321 799.92V798.912C363.321 797.28 364.425 796.128 366.465 796.128C368.553 796.128 369.609 797.304 369.609 798.912V799.92H363.321ZM385.402 807.288C388.426 807.288 390.37 805.512 390.37 802.824V802.68H388.45V802.848C388.45 804.408 387.37 805.536 385.402 805.536C383.338 805.536 382.282 804.384 382.282 802.752V798.912C382.282 797.28 383.338 796.128 385.402 796.128C387.346 796.128 388.45 797.232 388.45 798.768V798.912H390.37V798.792C390.37 796.08 388.45 794.376 385.402 794.376C382.234 794.376 380.362 796.224 380.362 798.96V802.704C380.362 805.44 382.234 807.288 385.402 807.288ZM403.695 794.664H401.775V803.592C401.031 804.48 399.735 805.536 398.199 805.536C396.687 805.536 395.511 804.576 395.511 802.44V794.664H393.591V802.656C393.591 805.656 395.367 807.288 397.815 807.288C399.639 807.288 401.007 806.352 401.847 805.368L402.543 807H403.695V794.664ZM407.68 807H409.6V797.976C410.56 796.824 411.832 796.248 413.464 796.248H413.728V794.376H413.416C411.688 794.376 410.224 795.36 409.384 796.296L408.688 794.664H407.68V807ZM416.515 807H418.435V797.976C419.395 796.824 420.667 796.248 422.299 796.248H422.563V794.376H422.251C420.523 794.376 419.059 795.36 418.219 796.296L417.523 794.664H416.515V807ZM429.701 807.288C432.677 807.288 434.405 805.728 434.621 803.304H432.701C432.485 804.624 431.549 805.536 429.701 805.536C427.589 805.536 426.485 804.36 426.485 802.704V801.48H434.693V798.912C434.693 796.152 432.821 794.376 429.701 794.376C426.485 794.376 424.565 796.224 424.565 798.96V802.752C424.565 805.512 426.485 807.288 429.701 807.288ZM426.485 799.92V798.912C426.485 797.28 427.589 796.128 429.629 796.128C431.717 796.128 432.773 797.304 432.773 798.912V799.92H426.485ZM438.101 807H440.021V798.072C440.765 797.184 442.061 796.128 443.597 796.128C445.133 796.128 446.333 797.088 446.333 799.224V807H448.253V799.008C448.253 796.008 446.453 794.376 443.981 794.376C442.157 794.376 440.789 795.312 439.925 796.296L439.253 794.664H438.101V807ZM456.582 807.288C459.606 807.288 461.55 805.512 461.55 802.824V802.68H459.63V802.848C459.63 804.408 458.55 805.536 456.582 805.536C454.518 805.536 453.462 804.384 453.462 802.752V798.912C453.462 797.28 454.518 796.128 456.582 796.128C458.526 796.128 459.63 797.232 459.63 798.768V798.912H461.55V798.792C461.55 796.08 459.63 794.376 456.582 794.376C453.414 794.376 451.542 796.224 451.542 798.96V802.704C451.542 805.44 453.414 807.288 456.582 807.288ZM466.714 810.84H468.322L474.466 795.576V794.664H472.714L469.018 804.408L465.25 794.664H463.45V795.576L468.082 807L466.714 810.12V810.84ZM487.568 805.536C485.456 805.536 484.352 804.264 484.352 802.632V799.032C484.352 797.4 485.456 796.128 487.568 796.128C489.728 796.128 490.76 797.424 490.76 799.032V802.632C490.76 804.24 489.728 805.536 487.568 805.536ZM487.568 807.288C490.976 807.288 492.68 805.296 492.68 802.704V798.96C492.68 796.368 490.976 794.376 487.568 794.376C484.16 794.376 482.432 796.368 482.432 798.96V802.704C482.432 805.296 484.16 807.288 487.568 807.288ZM496.109 807H498.029V798.072C498.773 797.184 500.069 796.128 501.605 796.128C503.141 796.128 504.341 797.088 504.341 799.224V807H506.261V799.008C506.261 796.008 504.461 794.376 501.989 794.376C500.165 794.376 498.797 795.312 497.933 796.296L497.261 794.664H496.109V807ZM62.648 839.288C65.72 839.288 67.592 837.752 67.592 835.52C67.592 833.552 66.344 832.736 64.424 832.256L61.424 831.512C60.152 831.176 59.672 830.744 59.672 829.88C59.672 828.944 60.512 828.128 62.384 828.128C64.16 828.128 65.48 828.944 65.48 830.72H67.4C67.4 827.816 65.456 826.376 62.528 826.376C59.528 826.376 57.752 827.912 57.752 830C57.752 831.968 59.024 832.736 60.704 833.168L63.752 833.96C65.12 834.32 65.672 834.776 65.672 835.664C65.672 836.744 64.592 837.536 62.792 837.536C60.872 837.536 59.192 836.696 59.192 834.824H57.272C57.272 837.8 59.6 839.288 62.648 839.288ZM75.6776 839.288C78.6536 839.288 80.3816 837.728 80.5976 835.304H78.6776C78.4616 836.624 77.5256 837.536 75.6776 837.536C73.5656 837.536 72.4616 836.36 72.4616 834.704V833.48H80.6696V830.912C80.6696 828.152 78.7976 826.376 75.6776 826.376C72.4616 826.376 70.5416 828.224 70.5416 830.96V834.752C70.5416 837.512 72.4616 839.288 75.6776 839.288ZM72.4616 831.92V830.912C72.4616 829.28 73.5656 828.128 75.6056 828.128C77.6936 828.128 78.7496 829.304 78.7496 830.912V831.92H72.4616ZM87.2459 839H89.0459L93.6539 827.576V826.664H91.9019L88.2059 836.408L84.4379 826.664H82.6379V827.576L87.2459 839ZM100.779 839.288C103.755 839.288 105.483 837.728 105.699 835.304H103.779C103.563 836.624 102.627 837.536 100.779 837.536C98.6671 837.536 97.5631 836.36 97.5631 834.704V833.48H105.771V830.912C105.771 828.152 103.899 826.376 100.779 826.376C97.5631 826.376 95.6431 828.224 95.6431 830.96V834.752C95.6431 837.512 97.5631 839.288 100.779 839.288ZM97.5631 831.92V830.912C97.5631 829.28 98.6671 828.128 100.707 828.128C102.795 828.128 103.851 829.304 103.851 830.912V831.92H97.5631ZM109.18 839H111.1V829.976C112.06 828.824 113.332 828.248 114.964 828.248H115.228V826.376H114.916C113.188 826.376 111.724 827.36 110.884 828.296L110.188 826.664H109.18V839ZM121.021 839.288C122.941 839.288 124.453 838.28 125.197 837.44L125.917 839H127.069V830.432C127.069 828.104 125.509 826.376 122.293 826.376C119.101 826.376 117.589 828.104 117.589 830.408H119.461C119.461 829.112 120.397 828.128 122.293 828.128C124.237 828.128 125.149 829.112 125.149 830.552V831.776H122.053C118.669 831.776 116.941 833.192 116.941 835.712C116.941 838.136 118.837 839.288 121.021 839.288ZM121.405 837.536C119.965 837.536 118.861 836.912 118.861 835.496C118.861 834.224 119.773 833.336 122.053 833.336H125.149V835.808C124.357 836.6 123.037 837.536 121.405 837.536ZM130.906 839H132.826V822.08H130.906V839ZM147.277 839.288C150.301 839.288 152.245 837.512 152.245 834.824V834.68H150.325V834.848C150.325 836.408 149.245 837.536 147.277 837.536C145.213 837.536 144.157 836.384 144.157 834.752V830.912C144.157 829.28 145.213 828.128 147.277 828.128C149.221 828.128 150.325 829.232 150.325 830.768V830.912H152.245V830.792C152.245 828.08 150.325 826.376 147.277 826.376C144.109 826.376 142.237 828.224 142.237 830.96V834.704C142.237 837.44 144.109 839.288 147.277 839.288ZM155.586 839H157.506V829.976C158.466 828.824 159.738 828.248 161.37 828.248H161.634V826.376H161.322C159.594 826.376 158.13 827.36 157.29 828.296L156.594 826.664H155.586V839ZM166.714 842.84H168.322L174.466 827.576V826.664H172.714L169.018 836.408L165.25 826.664H163.45V827.576L168.082 839L166.714 842.12V842.84ZM182.912 826.376C181.064 826.376 179.672 827.336 178.832 828.296L178.16 826.664H177.008V842.84H178.928V837.488C179.672 838.376 181.016 839.288 182.84 839.288C185.432 839.288 187.256 837.704 187.256 834.752V830.912C187.256 827.96 185.408 826.376 182.912 826.376ZM182.552 837.536C181.016 837.536 179.792 836.528 178.928 835.592V830.072C179.792 829.136 181.04 828.128 182.576 828.128C184.208 828.128 185.336 829.304 185.336 831.056V834.608C185.336 836.36 184.208 837.536 182.552 837.536ZM195.395 839H196.547V837.248H195.395C194.147 837.248 193.379 836.6 193.379 834.944V828.344H196.547V826.664H193.379V824.096H191.459V826.664H189.443V828.344H191.459V834.992C191.459 836.984 192.299 839 195.395 839ZM204.279 837.536C202.167 837.536 201.063 836.264 201.063 834.632V831.032C201.063 829.4 202.167 828.128 204.279 828.128C206.439 828.128 207.471 829.424 207.471 831.032V834.632C207.471 836.24 206.439 837.536 204.279 837.536ZM204.279 839.288C207.687 839.288 209.391 837.296 209.391 834.704V830.96C209.391 828.368 207.687 826.376 204.279 826.376C200.871 826.376 199.143 828.368 199.143 830.96V834.704C199.143 837.296 200.871 839.288 204.279 839.288ZM212.34 832.376H219.852V830.6H212.34V832.376ZM227.928 839.288C230.904 839.288 232.632 837.728 232.848 835.304H230.928C230.712 836.624 229.776 837.536 227.928 837.536C225.816 837.536 224.712 836.36 224.712 834.704V833.48H232.92V830.912C232.92 828.152 231.048 826.376 227.928 826.376C224.712 826.376 222.792 828.224 222.792 830.96V834.752C222.792 837.512 224.712 839.288 227.928 839.288ZM224.712 831.92V830.912C224.712 829.28 225.816 828.128 227.856 828.128C229.944 828.128 231 829.304 231 830.912V831.92H224.712ZM245.616 827.576V826.664H243.864L240.552 831.272L237.168 826.664H235.416V827.576L239.328 832.784L235.368 838.088V839H237.096L240.504 834.248L244.008 839H245.736V838.088L241.728 832.784L245.616 827.576ZM252.98 839.288C256.004 839.288 257.948 837.512 257.948 834.824V834.68H256.028V834.848C256.028 836.408 254.948 837.536 252.98 837.536C250.916 837.536 249.86 836.384 249.86 834.752V830.912C249.86 829.28 250.916 828.128 252.98 828.128C254.924 828.128 256.028 829.232 256.028 830.768V830.912H257.948V830.792C257.948 828.08 256.028 826.376 252.98 826.376C249.812 826.376 247.94 828.224 247.94 830.96V834.704C247.94 837.44 249.812 839.288 252.98 839.288ZM261.289 839H263.209V830.072C263.953 829.184 265.273 828.128 266.785 828.128C268.321 828.128 269.521 829.088 269.521 831.224V839H271.441V831.008C271.441 828.008 269.593 826.376 267.193 826.376C265.393 826.376 264.049 827.264 263.209 828.176V822.08H261.289V839ZM278.521 839.288C280.441 839.288 281.953 838.28 282.697 837.44L283.417 839H284.569V830.432C284.569 828.104 283.009 826.376 279.793 826.376C276.601 826.376 275.089 828.104 275.089 830.408H276.961C276.961 829.112 277.897 828.128 279.793 828.128C281.737 828.128 282.649 829.112 282.649 830.552V831.776H279.553C276.169 831.776 274.441 833.192 274.441 835.712C274.441 838.136 276.337 839.288 278.521 839.288ZM278.905 837.536C277.465 837.536 276.361 836.912 276.361 835.496C276.361 834.224 277.273 833.336 279.553 833.336H282.649V835.808C281.857 836.6 280.537 837.536 278.905 837.536ZM288.406 839H290.326V830.072C291.07 829.184 292.366 828.128 293.902 828.128C295.438 828.128 296.638 829.088 296.638 831.224V839H298.558V831.008C298.558 828.008 296.758 826.376 294.286 826.376C292.462 826.376 291.094 827.312 290.23 828.296L289.558 826.664H288.406V839ZM307.318 843.128C310.318 843.128 312.286 841.592 312.286 838.352V826.664H311.134L310.438 828.296C309.622 827.336 308.254 826.376 306.382 826.376C303.886 826.376 302.038 827.96 302.038 830.912V833.552C302.038 836.504 303.862 838.088 306.454 838.088C308.278 838.088 309.622 837.176 310.366 836.288V838.4C310.366 840.296 309.382 841.376 307.318 841.376C305.302 841.376 304.294 840.296 304.246 839.096H302.326C302.374 841.616 304.366 843.128 307.318 843.128ZM306.79 836.336C305.062 836.336 303.958 835.184 303.958 833.432V831.032C303.958 829.28 305.062 828.128 306.79 828.128C308.302 828.128 309.526 829.112 310.366 830.048V834.416C309.526 835.352 308.302 836.336 306.79 836.336ZM320.857 839.288C323.833 839.288 325.561 837.728 325.777 835.304H323.857C323.641 836.624 322.705 837.536 320.857 837.536C318.745 837.536 317.641 836.36 317.641 834.704V833.48H325.849V830.912C325.849 828.152 323.977 826.376 320.857 826.376C317.641 826.376 315.721 828.224 315.721 830.96V834.752C315.721 837.512 317.641 839.288 320.857 839.288ZM317.641 831.92V830.912C317.641 829.28 318.745 828.128 320.785 828.128C322.873 828.128 323.929 829.304 323.929 830.912V831.92H317.641ZM333.914 839.288C336.986 839.288 338.858 837.752 338.858 835.52C338.858 833.552 337.61 832.736 335.69 832.256L332.69 831.512C331.418 831.176 330.938 830.744 330.938 829.88C330.938 828.944 331.778 828.128 333.65 828.128C335.426 828.128 336.746 828.944 336.746 830.72H338.666C338.666 827.816 336.722 826.376 333.794 826.376C330.794 826.376 329.018 827.912 329.018 830C329.018 831.968 330.29 832.736 331.97 833.168L335.018 833.96C336.386 834.32 336.938 834.776 336.938 835.664C336.938 836.744 335.858 837.536 334.058 837.536C332.138 837.536 330.458 836.696 330.458 834.824H328.538C328.538 837.8 330.866 839.288 333.914 839.288ZM340.832 841.496H342.368L344.36 836.744V835.832H342.248L340.832 841.496ZM356.966 839.288C358.886 839.288 360.398 838.28 361.142 837.44L361.862 839H363.014V830.432C363.014 828.104 361.454 826.376 358.238 826.376C355.046 826.376 353.534 828.104 353.534 830.408H355.406C355.406 829.112 356.342 828.128 358.238 828.128C360.182 828.128 361.094 829.112 361.094 830.552V831.776H357.998C354.614 831.776 352.886 833.192 352.886 835.712C352.886 838.136 354.782 839.288 356.966 839.288ZM357.35 837.536C355.91 837.536 354.806 836.912 354.806 835.496C354.806 834.224 355.718 833.336 357.998 833.336H361.094V835.808C360.302 836.6 358.982 837.536 357.35 837.536ZM366.851 839H368.771V830.072C369.515 829.184 370.811 828.128 372.347 828.128C373.883 828.128 375.083 829.088 375.083 831.224V839H377.003V831.008C377.003 828.008 375.203 826.376 372.731 826.376C370.907 826.376 369.539 827.312 368.675 828.296L368.003 826.664H366.851V839ZM384.828 839.288C386.7 839.288 388.068 838.328 388.908 837.368L389.58 839H390.732V822.08H388.812V828.176C388.068 827.288 386.724 826.376 384.9 826.376C382.308 826.376 380.484 827.96 380.484 830.912V834.752C380.484 837.704 382.332 839.288 384.828 839.288ZM385.188 837.536C383.532 837.536 382.404 836.36 382.404 834.608V831.056C382.404 829.304 383.532 828.128 385.164 828.128C386.7 828.128 387.948 829.136 388.812 830.072V835.592C387.948 836.528 386.724 837.536 385.188 837.536ZM405.207 839H406.359V837.248H405.207C403.959 837.248 403.191 836.6 403.191 834.944V828.344H406.359V826.664H403.191V824.096H401.271V826.664H399.255V828.344H401.271V834.992C401.271 836.984 402.111 839 405.207 839ZM409.508 839H411.428V830.072C412.172 829.184 413.492 828.128 415.004 828.128C416.54 828.128 417.74 829.088 417.74 831.224V839H419.66V831.008C419.66 828.008 417.812 826.376 415.412 826.376C413.612 826.376 412.268 827.264 411.428 828.176V822.08H409.508V839ZM428.084 839.288C431.06 839.288 432.788 837.728 433.004 835.304H431.084C430.868 836.624 429.932 837.536 428.084 837.536C425.972 837.536 424.868 836.36 424.868 834.704V833.48H433.076V830.912C433.076 828.152 431.204 826.376 428.084 826.376C424.868 826.376 422.948 828.224 422.948 830.96V834.752C422.948 837.512 424.868 839.288 428.084 839.288ZM424.868 831.92V830.912C424.868 829.28 425.972 828.128 428.012 828.128C430.1 828.128 431.156 829.304 431.156 830.912V831.92H424.868ZM442.461 839H444.381V829.976C445.341 828.824 446.613 828.248 448.245 828.248H448.509V826.376H448.197C446.469 826.376 445.005 827.36 444.165 828.296L443.469 826.664H442.461V839ZM455.646 839.288C458.622 839.288 460.35 837.728 460.566 835.304H458.646C458.43 836.624 457.494 837.536 455.646 837.536C453.534 837.536 452.43 836.36 452.43 834.704V833.48H460.638V830.912C460.638 828.152 458.766 826.376 455.646 826.376C452.43 826.376 450.51 828.224 450.51 830.96V834.752C450.51 837.512 452.43 839.288 455.646 839.288ZM452.43 831.92V830.912C452.43 829.28 453.534 828.128 455.574 828.128C457.662 828.128 458.718 829.304 458.718 830.912V831.92H452.43ZM468.703 839.288C471.775 839.288 473.647 837.752 473.647 835.52C473.647 833.552 472.399 832.736 470.479 832.256L467.479 831.512C466.207 831.176 465.727 830.744 465.727 829.88C465.727 828.944 466.567 828.128 468.439 828.128C470.215 828.128 471.535 828.944 471.535 830.72H473.455C473.455 827.816 471.511 826.376 468.583 826.376C465.583 826.376 463.807 827.912 463.807 830C463.807 831.968 465.079 832.736 466.759 833.168L469.807 833.96C471.175 834.32 471.727 834.776 471.727 835.664C471.727 836.744 470.647 837.536 468.847 837.536C466.927 837.536 465.247 836.696 465.247 834.824H463.327C463.327 837.8 465.655 839.288 468.703 839.288ZM481.66 839H482.812V837.248H481.66C480.412 837.248 479.644 836.6 479.644 834.944V828.344H482.812V826.664H479.644V824.096H477.724V826.664H475.708V828.344H477.724V834.992C477.724 836.984 478.564 839 481.66 839ZM496.521 837.536C494.409 837.536 493.305 836.264 493.305 834.632V831.032C493.305 829.4 494.409 828.128 496.521 828.128C498.681 828.128 499.713 829.424 499.713 831.032V834.632C499.713 836.24 498.681 837.536 496.521 837.536ZM496.521 839.288C499.929 839.288 501.633 837.296 501.633 834.704V830.96C501.633 828.368 499.929 826.376 496.521 826.376C493.113 826.376 491.385 828.368 491.385 830.96V834.704C491.385 837.296 493.113 839.288 496.521 839.288ZM505.062 839H506.982V830.072C507.726 829.184 509.022 828.128 510.558 828.128C512.094 828.128 513.294 829.088 513.294 831.224V839H515.214V831.008C515.214 828.008 513.414 826.376 510.942 826.376C509.118 826.376 507.75 827.312 506.886 828.296L506.214 826.664H505.062V839ZM57.992 871H59.912V861.976C60.872 860.824 62.144 860.248 63.776 860.248H64.04V858.376H63.728C62 858.376 60.536 859.36 59.696 860.296L59 858.664H57.992V871ZM71.1776 871.288C74.1536 871.288 75.8816 869.728 76.0976 867.304H74.1776C73.9616 868.624 73.0256 869.536 71.1776 869.536C69.0656 869.536 67.9616 868.36 67.9616 866.704V865.48H76.1696V862.912C76.1696 860.152 74.2976 858.376 71.1776 858.376C67.9616 858.376 66.0416 860.224 66.0416 862.96V866.752C66.0416 869.512 67.9616 871.288 71.1776 871.288ZM67.9616 863.92V862.912C67.9616 861.28 69.0656 860.128 71.1056 860.128C73.1936 860.128 74.2496 861.304 74.2496 862.912V863.92H67.9616ZM79.5779 871H81.4979V854.08H79.5779V871ZM85.4842 871H87.4042V858.664H85.4842V871ZM85.4842 856.72H87.4042V854.08H85.4842V856.72ZM94.6304 871.288C96.5504 871.288 98.0624 870.28 98.8064 869.44L99.5264 871H100.678V862.432C100.678 860.104 99.1184 858.376 95.9024 858.376C92.7104 858.376 91.1984 860.104 91.1984 862.408H93.0704C93.0704 861.112 94.0064 860.128 95.9024 860.128C97.8464 860.128 98.7584 861.112 98.7584 862.552V863.776H95.6624C92.2784 863.776 90.5504 865.192 90.5504 867.712C90.5504 870.136 92.4464 871.288 94.6304 871.288ZM95.0144 869.536C93.5744 869.536 92.4704 868.912 92.4704 867.496C92.4704 866.224 93.3824 865.336 95.6624 865.336H98.7584V867.808C97.9664 868.6 96.6464 869.536 95.0144 869.536ZM110.419 871.288C112.915 871.288 114.763 869.704 114.763 866.752V862.912C114.763 859.96 112.939 858.376 110.347 858.376C108.523 858.376 107.179 859.288 106.435 860.176V854.08H104.515V871H105.667L106.339 869.368C107.179 870.328 108.571 871.288 110.419 871.288ZM110.059 869.536C108.523 869.536 107.299 868.528 106.435 867.592V862.072C107.299 861.136 108.547 860.128 110.083 860.128C111.715 860.128 112.843 861.304 112.843 863.056V866.608C112.843 868.36 111.715 869.536 110.059 869.536ZM118.39 871H120.31V854.08H118.39V871ZM128.881 871.288C131.857 871.288 133.585 869.728 133.801 867.304H131.881C131.665 868.624 130.729 869.536 128.881 869.536C126.769 869.536 125.665 868.36 125.665 866.704V865.48H133.873V862.912C133.873 860.152 132.001 858.376 128.881 858.376C125.665 858.376 123.745 860.224 123.745 862.96V866.752C123.745 869.512 125.665 871.288 128.881 871.288ZM125.665 863.92V862.912C125.665 861.28 126.769 860.128 128.809 860.128C130.897 860.128 131.953 861.304 131.953 862.912V863.92H125.665ZM147.746 871.288C150.77 871.288 152.714 869.512 152.714 866.824V866.68H150.794V866.848C150.794 868.408 149.714 869.536 147.746 869.536C145.682 869.536 144.626 868.384 144.626 866.752V862.912C144.626 861.28 145.682 860.128 147.746 860.128C149.69 860.128 150.794 861.232 150.794 862.768V862.912H152.714V862.792C152.714 860.08 150.794 858.376 147.746 858.376C144.578 858.376 142.706 860.224 142.706 862.96V866.704C142.706 869.44 144.578 871.288 147.746 871.288ZM160.639 869.536C158.527 869.536 157.423 868.264 157.423 866.632V863.032C157.423 861.4 158.527 860.128 160.639 860.128C162.799 860.128 163.831 861.424 163.831 863.032V866.632C163.831 868.24 162.799 869.536 160.639 869.536ZM160.639 871.288C164.047 871.288 165.751 869.296 165.751 866.704V862.96C165.751 860.368 164.047 858.376 160.639 858.376C157.23 858.376 155.503 860.368 155.503 862.96V866.704C155.503 869.296 157.23 871.288 160.639 871.288ZM169.18 871H171.1V854.08H169.18V871ZM179.07 871.288C180.942 871.288 182.31 870.328 183.15 869.368L183.822 871H184.974V854.08H183.054V860.176C182.31 859.288 180.966 858.376 179.142 858.376C176.55 858.376 174.726 859.96 174.726 862.912V866.752C174.726 869.704 176.574 871.288 179.07 871.288ZM179.43 869.536C177.774 869.536 176.646 868.36 176.646 866.608V863.056C176.646 861.304 177.774 860.128 179.406 860.128C180.942 860.128 182.19 861.136 183.054 862.072V867.592C182.19 868.528 180.966 869.536 179.43 869.536ZM202.185 860.992H200.793L198.177 868.408L195.849 858.664H194.097V859.576L196.953 871H198.849L201.489 863.968L204.105 871H205.977L208.833 859.576V858.664H207.105L204.801 868.408L202.185 860.992ZM215.24 871.288C217.16 871.288 218.672 870.28 219.416 869.44L220.136 871H221.288V862.432C221.288 860.104 219.728 858.376 216.512 858.376C213.32 858.376 211.808 860.104 211.808 862.408H213.68C213.68 861.112 214.616 860.128 216.512 860.128C218.456 860.128 219.368 861.112 219.368 862.552V863.776H216.272C212.888 863.776 211.16 865.192 211.16 867.712C211.16 870.136 213.056 871.288 215.24 871.288ZM215.624 869.536C214.184 869.536 213.08 868.912 213.08 867.496C213.08 866.224 213.992 865.336 216.272 865.336H219.368V867.808C218.576 868.6 217.256 869.536 215.624 869.536ZM225.125 871H227.045V854.08H225.125V871ZM231.031 871H232.951V854.08H231.031V871ZM241.521 871.288C244.497 871.288 246.225 869.728 246.441 867.304H244.521C244.305 868.624 243.369 869.536 241.521 869.536C239.409 869.536 238.305 868.36 238.305 866.704V865.48H246.513V862.912C246.513 860.152 244.641 858.376 241.521 858.376C238.305 858.376 236.385 860.224 236.385 862.96V866.752C236.385 869.512 238.305 871.288 241.521 871.288ZM238.305 863.92V862.912C238.305 861.28 239.409 860.128 241.449 860.128C243.537 860.128 244.593 861.304 244.593 862.912V863.92H238.305ZM254.434 871H255.586V869.248H254.434C253.186 869.248 252.418 868.6 252.418 866.944V860.344H255.586V858.664H252.418V856.096H250.498V858.664H248.482V860.344H250.498V866.992C250.498 868.984 251.338 871 254.434 871ZM263.39 871.288C266.462 871.288 268.334 869.752 268.334 867.52C268.334 865.552 267.086 864.736 265.166 864.256L262.166 863.512C260.894 863.176 260.414 862.744 260.414 861.88C260.414 860.944 261.254 860.128 263.126 860.128C264.902 860.128 266.222 860.944 266.222 862.72H268.142C268.142 859.816 266.198 858.376 263.27 858.376C260.27 858.376 258.494 859.912 258.494 862C258.494 863.968 259.766 864.736 261.446 865.168L264.494 865.96C265.862 866.32 266.414 866.776 266.414 867.664C266.414 868.744 265.334 869.536 263.534 869.536C261.614 869.536 259.934 868.696 259.934 866.824H258.014C258.014 869.8 260.342 871.288 263.39 871.288ZM271.292 871H273.548V867.832H271.292V871Z" fill="#FBFBFB"/>
  <path d="M57.664 679.176H78.544V684H57.664V679.176ZM65.512 632.88H70.696V684H65.512V632.88ZM57.664 632.88H78.544V637.704H57.664V632.88ZM68.392 655.416H95.968V660.24H68.392V655.416ZM85.744 679.176H106.624V684H85.744V679.176ZM93.592 632.88H98.776V684H93.592V632.88ZM85.744 632.88H106.624V637.704H85.744V632.88ZM119.217 643.68C118.113 643.68 117.201 643.32 116.481 642.6C115.809 641.832 115.473 640.92 115.473 639.864C115.473 638.808 115.809 637.92 116.481 637.2C117.201 636.432 118.113 636.048 119.217 636.048C120.417 636.048 121.353 636.432 122.025 637.2C122.745 637.92 123.105 638.808 123.105 639.864C123.105 640.92 122.745 641.832 122.025 642.6C121.353 643.32 120.417 643.68 119.217 643.68ZM111.225 653.04H119.145V657.288H111.225V653.04ZM111.225 679.752H128.505V684H111.225V679.752ZM117.561 653.04H122.241V684H117.561V653.04ZM141.855 684.216C139.695 684.888 138.087 685.92 137.031 687.312C136.023 688.752 135.519 690.168 135.519 691.56C135.519 693.576 136.527 695.112 138.543 696.168C140.559 697.224 143.223 697.752 146.535 697.752C148.119 697.752 149.607 697.608 150.999 697.32C152.391 697.08 153.615 696.672 154.671 696.096C155.727 695.52 156.567 694.776 157.191 693.864C157.815 693 158.127 691.92 158.127 690.624C158.127 689.424 157.839 688.44 157.263 687.672C156.735 686.904 156.015 686.28 155.103 685.8C154.239 685.368 153.207 685.056 152.007 684.864C150.807 684.72 149.559 684.648 148.263 684.648H142.935C141.063 684.648 139.479 684.456 138.183 684.072C136.887 683.688 135.855 683.184 135.087 682.56C134.319 681.936 133.767 681.24 133.431 680.472C133.095 679.656 132.927 678.84 132.927 678.024C132.927 676.488 133.455 675.048 134.511 673.704C135.615 672.36 137.175 671.016 139.191 669.672L141.711 671.976C140.463 672.552 139.383 673.272 138.471 674.136C137.607 674.952 137.175 675.984 137.175 677.232C137.175 678.384 137.679 679.2 138.687 679.68C139.743 680.112 141.567 680.328 144.159 680.328H148.119C150.855 680.328 153.159 680.592 155.031 681.12C156.903 681.648 158.415 682.368 159.567 683.28C160.719 684.192 161.535 685.224 162.015 686.376C162.543 687.576 162.807 688.848 162.807 690.192C162.807 691.92 162.423 693.504 161.655 694.944C160.935 696.384 159.855 697.632 158.415 698.688C157.023 699.744 155.295 700.56 153.231 701.136C151.167 701.712 148.815 702 146.175 702C143.919 702 141.855 701.784 139.983 701.352C138.111 700.92 136.503 700.272 135.159 699.408C133.815 698.592 132.759 697.584 131.991 696.384C131.271 695.184 130.911 693.816 130.911 692.28C130.911 690.072 131.631 688.2 133.071 686.664C134.559 685.128 136.527 683.904 138.975 682.992L141.855 684.216ZM153.087 655.2C154.335 653.664 155.559 652.368 156.759 651.312C158.007 650.256 159.591 649.728 161.511 649.728C163.287 649.728 164.679 650.256 165.687 651.312C166.695 652.368 167.007 654.072 166.623 656.424L162.807 656.64C162.759 655.632 162.639 654.888 162.447 654.408C162.303 653.88 161.847 653.616 161.079 653.616C159.975 653.616 158.967 654.048 158.055 654.912C157.191 655.776 156.279 656.736 155.319 657.792L153.087 655.2ZM146.463 674.28C144.639 674.28 142.935 674.04 141.351 673.56C139.815 673.08 138.471 672.384 137.319 671.472C136.167 670.512 135.255 669.36 134.583 668.016C133.959 666.672 133.647 665.136 133.647 663.408C133.647 661.68 133.983 660.168 134.655 658.872C135.375 657.528 136.311 656.4 137.463 655.488C138.663 654.528 140.031 653.808 141.567 653.328C143.103 652.848 144.735 652.608 146.463 652.608C148.287 652.608 149.967 652.848 151.503 653.328C153.039 653.808 154.359 654.528 155.463 655.488C156.615 656.4 157.503 657.528 158.127 658.872C158.799 660.168 159.135 661.68 159.135 663.408C159.135 666.864 157.983 669.552 155.679 671.472C153.375 673.344 150.303 674.28 146.463 674.28ZM146.463 670.248C149.343 670.248 151.431 669.696 152.727 668.592C154.023 667.44 154.671 665.784 154.671 663.624C154.671 661.512 154.023 659.832 152.727 658.584C151.479 657.288 149.343 656.64 146.319 656.64C143.775 656.64 141.783 657.192 140.343 658.296C138.903 659.352 138.183 661.08 138.183 663.48C138.183 665.688 138.903 667.368 140.343 668.52C141.831 669.672 143.871 670.248 146.463 670.248ZM165.473 632.88H173.393V637.056H165.473V632.88ZM165.473 679.752H182.753V684H165.473V679.752ZM185.633 679.752H202.913V684H185.633V679.752ZM171.737 632.88H176.417V660.168H176.561C176.993 659.16 177.545 658.2 178.217 657.288C178.889 656.376 179.657 655.584 180.521 654.912C181.433 654.192 182.465 653.64 183.617 653.256C184.817 652.824 186.137 652.608 187.577 652.608C190.601 652.608 192.857 653.544 194.345 655.416C195.833 657.288 196.577 660.024 196.577 663.624V684H191.897V666.288C191.897 663.456 191.441 661.272 190.529 659.736C189.665 658.2 188.153 657.432 185.993 657.432C184.793 657.432 183.617 657.672 182.465 658.152C181.313 658.584 180.281 659.304 179.369 660.312C178.505 661.32 177.785 662.616 177.209 664.2C176.681 665.736 176.417 667.584 176.417 669.744V684H171.737V632.88ZM206.343 664.344H222.255V668.664H206.343V664.344ZM240.027 684.432C239.067 684.432 238.059 684.384 237.003 684.288C235.995 684.192 235.035 684.096 234.123 684C233.211 683.856 232.395 683.712 231.675 683.568C230.955 683.424 230.379 683.28 229.947 683.136V678.528C231.723 679.152 233.619 679.584 235.635 679.824C237.651 680.016 239.307 680.112 240.603 680.112C240.987 680.112 241.587 680.088 242.403 680.04C243.219 679.992 244.011 679.848 244.779 679.608C245.595 679.368 246.291 678.984 246.867 678.456C247.491 677.88 247.803 677.088 247.803 676.08C247.803 674.88 247.347 673.92 246.435 673.2C245.571 672.48 244.467 671.856 243.123 671.328C241.827 670.8 240.387 670.32 238.803 669.888C237.267 669.456 235.827 668.904 234.483 668.232C233.187 667.512 232.083 666.624 231.171 665.568C230.307 664.512 229.875 663.096 229.875 661.32C229.875 658.584 230.955 656.448 233.115 654.912C235.275 653.376 238.083 652.608 241.539 652.608C242.307 652.608 243.123 652.656 243.987 652.752C244.899 652.8 245.763 652.896 246.579 653.04C247.443 653.136 248.235 653.256 248.955 653.4C249.675 653.496 250.251 653.616 250.683 653.76V658.08C248.667 657.696 246.915 657.408 245.427 657.216C243.939 657.024 242.547 656.928 241.251 656.928C238.659 656.928 236.907 657.312 235.995 658.08C235.131 658.8 234.699 659.664 234.699 660.672C234.699 661.872 235.131 662.808 235.995 663.48C236.907 664.152 238.011 664.728 239.307 665.208C240.651 665.688 242.091 666.168 243.627 666.648C245.211 667.08 246.651 667.632 247.947 668.304C249.291 668.976 250.395 669.864 251.259 670.968C252.171 672.072 252.627 673.512 252.627 675.288C252.627 676.392 252.411 677.496 251.979 678.6C251.595 679.656 250.923 680.616 249.963 681.48C249.003 682.344 247.707 683.064 246.075 683.64C244.491 684.168 242.475 684.432 240.027 684.432ZM246.219 662.4V653.76H250.683V662.4H246.219ZM229.947 683.136V673.776H234.411V683.136H229.947ZM272.242 684.432C269.746 684.432 267.586 684 265.762 683.136C263.938 682.272 262.426 681.12 261.226 679.68C260.074 678.24 259.21 676.584 258.634 674.712C258.106 672.84 257.842 670.872 257.842 668.808C257.842 666.84 258.106 664.896 258.634 662.976C259.162 661.056 260.002 659.328 261.154 657.792C262.306 656.256 263.794 655.008 265.618 654.048C267.49 653.088 269.77 652.608 272.458 652.608C274.954 652.608 277.066 653.04 278.794 653.904C280.522 654.768 281.914 655.968 282.97 657.504C284.026 658.992 284.746 660.792 285.13 662.904C285.562 665.016 285.706 667.296 285.562 669.744H261.154V665.928H280.522C280.57 664.776 280.45 663.672 280.162 662.616C279.922 661.512 279.442 660.552 278.722 659.736C278.05 658.872 277.162 658.2 276.058 657.72C274.954 657.192 273.61 656.928 272.026 656.928C271.066 656.928 270.034 657.072 268.93 657.36C267.826 657.6 266.794 658.128 265.834 658.944C264.922 659.712 264.154 660.816 263.53 662.256C262.954 663.696 262.666 665.568 262.666 667.872C262.666 669.6 262.858 671.232 263.242 672.768C263.674 674.256 264.298 675.552 265.114 676.656C265.978 677.712 267.058 678.552 268.354 679.176C269.65 679.8 271.21 680.112 273.034 680.112C275.05 680.112 276.874 679.68 278.506 678.816C280.138 677.904 281.53 676.632 282.682 675L285.706 677.448C285.322 678.264 284.746 679.08 283.978 679.896C283.21 680.712 282.25 681.456 281.098 682.128C279.946 682.8 278.626 683.352 277.138 683.784C275.65 684.216 274.018 684.432 272.242 684.432ZM305.363 684.432C302.675 684.432 300.395 683.976 298.523 683.064C296.699 682.152 295.211 680.976 294.059 679.536C292.907 678.048 292.067 676.368 291.539 674.496C291.059 672.624 290.819 670.728 290.819 668.808C290.819 666.6 291.155 664.512 291.827 662.544C292.499 660.576 293.483 658.848 294.779 657.36C296.075 655.872 297.683 654.72 299.603 653.904C301.523 653.04 303.755 652.608 306.299 652.608C308.459 652.608 310.283 652.92 311.771 653.544C313.259 654.12 314.435 654.912 315.299 655.92C316.211 656.88 316.835 658.008 317.171 659.304C317.555 660.6 317.699 661.944 317.603 663.336L312.923 663.624C313.019 661.176 312.443 659.448 311.195 658.44C309.995 657.432 308.387 656.928 306.371 656.928C302.675 656.928 299.963 657.96 298.235 660.024C296.507 662.04 295.643 664.824 295.643 668.376C295.643 671.976 296.531 674.832 298.307 676.944C300.083 679.056 302.627 680.112 305.939 680.112C308.435 680.112 310.499 679.536 312.131 678.384C313.811 677.232 315.131 675.84 316.091 674.208L319.331 676.512C318.803 677.52 318.131 678.504 317.315 679.464C316.499 680.424 315.515 681.264 314.363 681.984C313.211 682.704 311.867 683.304 310.331 683.784C308.843 684.216 307.187 684.432 305.363 684.432ZM321.141 653.04H329.781V657.288H321.141V653.04ZM340.941 653.04H349.581V657.288H340.941V653.04ZM350.301 679.752H358.221V684H350.301V679.752ZM351.957 684H347.349V676.872H347.205C346.773 677.88 346.221 678.84 345.549 679.752C344.925 680.664 344.181 681.48 343.317 682.2C342.453 682.872 341.445 683.424 340.293 683.856C339.141 684.24 337.845 684.432 336.405 684.432C333.381 684.432 331.125 683.496 329.637 681.624C328.149 679.752 327.405 677.016 327.405 673.416V653.04H332.085V670.752C332.085 673.584 332.517 675.768 333.381 677.304C334.293 678.84 335.829 679.608 337.989 679.608C339.189 679.608 340.341 679.392 341.445 678.96C342.597 678.48 343.605 677.736 344.469 676.728C345.333 675.72 346.005 674.448 346.485 672.912C347.013 671.328 347.277 669.456 347.277 667.296V653.04H351.957V684ZM367.03 653.04H371.638V659.88H371.782C372.31 657.528 373.246 655.728 374.59 654.48C375.982 653.232 377.806 652.608 380.062 652.608C382.654 652.608 384.622 653.568 385.966 655.488C387.358 657.36 387.91 660.072 387.622 663.624L383.086 663.84C383.23 663.072 383.254 662.304 383.158 661.536C383.11 660.72 382.918 660 382.582 659.376C382.294 658.704 381.838 658.176 381.214 657.792C380.638 657.36 379.894 657.144 378.982 657.144C377.734 657.144 376.654 657.528 375.742 658.296C374.83 659.064 374.062 660.096 373.438 661.392C372.862 662.64 372.43 664.104 372.142 665.784C371.854 667.416 371.71 669.12 371.71 670.896V684H367.03V653.04ZM360.694 653.04H368.614V657.288H360.694V653.04ZM360.694 679.752H379.63V684H360.694V679.752ZM398.639 643.68C397.535 643.68 396.623 643.32 395.903 642.6C395.231 641.832 394.895 640.92 394.895 639.864C394.895 638.808 395.231 637.92 395.903 637.2C396.623 636.432 397.535 636.048 398.639 636.048C399.839 636.048 400.775 636.432 401.447 637.2C402.167 637.92 402.527 638.808 402.527 639.864C402.527 640.92 402.167 641.832 401.447 642.6C400.775 643.32 399.839 643.68 398.639 643.68ZM390.647 653.04H398.567V657.288H390.647V653.04ZM390.647 679.752H407.927V684H390.647V679.752ZM396.983 653.04H401.663V684H396.983V653.04ZM423.005 684.432C420.173 684.432 417.989 683.52 416.453 681.696C414.965 679.872 414.221 676.944 414.221 672.912V641.736L418.901 639.432V671.904C418.901 673.44 418.997 674.736 419.189 675.792C419.381 676.8 419.669 677.616 420.053 678.24C420.437 678.816 420.917 679.224 421.493 679.464C422.069 679.704 422.741 679.824 423.509 679.824C425.333 679.824 426.653 679.32 427.469 678.312C428.285 677.256 428.813 676.008 429.053 674.568L433.445 675.864C433.301 676.872 432.965 677.904 432.437 678.96C431.957 679.968 431.261 680.88 430.349 681.696C429.485 682.512 428.429 683.184 427.181 683.712C425.981 684.192 424.589 684.432 423.005 684.432ZM408.965 653.04H428.045V657.288H408.965V653.04ZM436.267 702C433.819 702 431.851 701.448 430.363 700.344C428.875 699.24 428.131 697.248 428.131 694.368L432.595 694.008C432.403 695.256 432.667 696.216 433.387 696.888C434.107 697.608 435.067 697.968 436.267 697.968C437.611 697.968 438.691 697.56 439.507 696.744C440.323 695.928 441.043 694.824 441.667 693.432L448.147 678.888L448.075 683.712L434.827 653.04H439.651L450.235 677.664L448.651 677.736L458.875 653.04H463.771L445.699 694.584C444.547 697.224 443.203 699.096 441.667 700.2C440.179 701.304 438.379 701.904 436.267 702ZM432.451 653.04H446.563V657.288H432.451V653.04ZM451.891 653.04H466.147V657.288H451.891V653.04ZM57.952 725.04H62.704L73.576 753.624H70.84L81.352 725.04H86.032L74.008 756H69.616L57.952 725.04ZM79.048 725.04H83.8L94.6 753.336L91.792 753.408L102.16 725.04H106.912L95.104 756H90.712L79.048 725.04ZM55.504 725.04H69.184V729.288H55.504V725.04ZM74.872 725.04H90.352V729.288H74.872V725.04ZM95.464 725.04H109.288V729.288H95.464V725.04ZM120.803 756.432C119.171 756.432 117.755 756.216 116.555 755.784C115.403 755.304 114.443 754.68 113.675 753.912C112.955 753.144 112.427 752.256 112.091 751.248C111.755 750.192 111.587 749.064 111.587 747.864C111.587 744.984 112.643 742.704 114.755 741.024C116.867 739.296 120.371 738.432 125.267 738.432H131.603V742.032H123.467C120.875 742.032 118.979 742.488 117.779 743.4C116.627 744.264 116.051 745.536 116.051 747.216C116.051 748.752 116.507 749.976 117.419 750.888C118.379 751.752 119.867 752.184 121.883 752.184C124.955 752.184 127.259 751.2 128.795 749.232C130.331 747.264 131.099 744.84 131.099 741.96V736.2C131.099 734.712 130.907 733.512 130.523 732.6C130.187 731.64 129.683 730.896 129.011 730.368C128.387 729.84 127.595 729.48 126.635 729.288C125.675 729.048 124.619 728.928 123.467 728.928C122.651 728.928 121.859 729 121.091 729.144C120.323 729.24 119.627 729.48 119.003 729.864C118.427 730.248 117.971 730.824 117.635 731.592C117.347 732.312 117.299 733.296 117.491 734.544L112.883 734.76C112.691 733.464 112.763 732.216 113.099 731.016C113.435 729.768 114.059 728.688 114.971 727.776C115.883 726.816 117.083 726.048 118.571 725.472C120.107 724.896 121.955 724.608 124.115 724.608C125.699 724.608 127.187 724.776 128.579 725.112C129.971 725.4 131.195 725.976 132.251 726.84C133.355 727.704 134.219 728.904 134.843 730.44C135.467 731.976 135.779 733.968 135.779 736.416V748.368C135.779 749.76 136.019 750.84 136.499 751.608C136.979 752.328 137.627 752.688 138.443 752.688C139.211 752.688 139.859 752.424 140.387 751.896C140.915 751.368 141.299 750.768 141.539 750.096L144.563 752.04C143.747 753.768 142.763 754.944 141.611 755.568C140.507 756.144 139.259 756.432 137.867 756.432C133.499 756.432 131.315 754.248 131.315 749.88V749.16H131.171C130.355 751.704 129.059 753.552 127.283 754.704C125.507 755.856 123.347 756.432 120.803 756.432ZM143.113 704.88H151.033V709.128H143.113V704.88ZM143.113 751.752H160.393V756H143.113V751.752ZM149.377 704.88H154.057V756H149.377V704.88ZM161.395 704.88H169.315V709.128H161.395V704.88ZM161.395 751.752H178.675V756H161.395V751.752ZM167.659 704.88H172.339V756H167.659V704.88ZM196.164 756.432C193.668 756.432 191.508 756 189.684 755.136C187.86 754.272 186.348 753.12 185.148 751.68C183.996 750.24 183.132 748.584 182.556 746.712C182.028 744.84 181.764 742.872 181.764 740.808C181.764 738.84 182.028 736.896 182.556 734.976C183.084 733.056 183.924 731.328 185.076 729.792C186.228 728.256 187.716 727.008 189.54 726.048C191.412 725.088 193.692 724.608 196.38 724.608C198.876 724.608 200.988 725.04 202.716 725.904C204.444 726.768 205.836 727.968 206.892 729.504C207.948 730.992 208.668 732.792 209.052 734.904C209.484 737.016 209.628 739.296 209.484 741.744H185.076V737.928H204.444C204.492 736.776 204.372 735.672 204.084 734.616C203.844 733.512 203.364 732.552 202.644 731.736C201.972 730.872 201.084 730.2 199.98 729.72C198.876 729.192 197.532 728.928 195.948 728.928C194.988 728.928 193.956 729.072 192.852 729.36C191.748 729.6 190.716 730.128 189.756 730.944C188.844 731.712 188.076 732.816 187.452 734.256C186.876 735.696 186.588 737.568 186.588 739.872C186.588 741.6 186.78 743.232 187.164 744.768C187.596 746.256 188.22 747.552 189.036 748.656C189.9 749.712 190.98 750.552 192.276 751.176C193.572 751.8 195.132 752.112 196.956 752.112C198.972 752.112 200.796 751.68 202.428 750.816C204.06 749.904 205.452 748.632 206.604 747L209.628 749.448C209.244 750.264 208.668 751.08 207.9 751.896C207.132 752.712 206.172 753.456 205.02 754.128C203.868 754.8 202.548 755.352 201.06 755.784C199.572 756.216 197.94 756.432 196.164 756.432ZM226.692 756.432C223.86 756.432 221.676 755.52 220.14 753.696C218.652 751.872 217.908 748.944 217.908 744.912V713.736L222.588 711.432V743.904C222.588 745.44 222.684 746.736 222.876 747.792C223.068 748.8 223.356 749.616 223.74 750.24C224.124 750.816 224.604 751.224 225.18 751.464C225.756 751.704 226.428 751.824 227.196 751.824C229.02 751.824 230.34 751.32 231.156 750.312C231.972 749.256 232.5 748.008 232.74 746.568L237.132 747.864C236.988 748.872 236.652 749.904 236.124 750.96C235.644 751.968 234.948 752.88 234.036 753.696C233.172 754.512 232.116 755.184 230.868 755.712C229.668 756.192 228.276 756.432 226.692 756.432ZM212.652 725.04H231.732V729.288H212.652V725.04Z" fill="#FBFBFB"/>
</svg>
