<svg width="499" height="313" viewBox="0 0 499 313" fill="none" xmlns="http://www.w3.org/2000/svg">
<path d="M186.177 187.295C186.177 187.295 127.641 217.129 81.7403 179.208C23.8137 131.353 53.4257 44.7391 87.3773 58.8879C121.329 73.0367 51.2594 163.059 0.677072 132.001" stroke="#232323" stroke-width="2"/>
<circle cx="427.677" cy="108.295" r="2" fill="#232323"/>
<circle cx="461.677" cy="147.295" r="1" fill="#232323"/>
<path d="M162.677 8.12619V8.47358C157.784 8.47358 154.935 11.4513 154.935 16.2949H154.449C154.449 11.4115 151.471 8.47358 146.677 8.47358V8.12619C151.521 8.12619 154.449 5.14852 154.449 0.294922H154.935C154.935 5.15844 157.784 8.12619 162.677 8.12619Z" fill="#1F1F1F"/>
<path d="M498.677 308.211V308.384C496.231 308.384 494.806 309.873 494.806 312.295H494.563C494.563 309.853 493.074 308.384 490.677 308.384V308.211C493.099 308.211 494.563 306.722 494.563 304.295H494.806C494.806 306.727 496.231 308.211 498.677 308.211Z" fill="#1F1F1F"/>
<circle cx="52.6772" cy="281.295" r="4" stroke="#232323" stroke-width="2"/>
<circle cx="115.677" cy="226.295" r="2" fill="#232323"/>
<circle cx="149.677" cy="265.295" r="1" fill="#232323"/>
</svg>
