<svg width="292" height="217" viewBox="0 0 292 217" fill="none" xmlns="http://www.w3.org/2000/svg">
<path d="M36.2952 174.253V174.34C35.0718 174.34 34.3597 175.084 34.3597 176.295H34.2381C34.2381 175.074 33.4937 174.34 32.2952 174.34V174.253C33.5061 174.253 34.2381 173.508 34.2381 172.295H34.3597C34.3597 173.511 35.0718 174.253 36.2952 174.253Z" fill="#1F1F1F"/>
<path d="M85.2952 211.189V211.407C82.5427 211.407 80.9403 213.268 80.9403 216.295H80.6668C80.6668 213.243 78.9918 211.407 76.2952 211.407V211.189C79.0197 211.189 80.6668 209.328 80.6668 206.295H80.9403C80.9403 209.335 82.5427 211.189 85.2952 211.189Z" fill="#1F1F1F"/>
<path d="M23.44 53.1406C23.44 53.1406 51.8058 41.7483 70.4978 69.9456C94.087 105.53 63.6827 147.729 47.5611 134.429C31.4394 121.129 84.4022 83.7594 106.773 108.999" stroke="#232323"/>
<path d="M291.295 5.18946V5.40658C288.543 5.40658 286.94 7.26763 286.94 10.2949H286.667C286.667 7.24281 284.992 5.40658 282.295 5.40658V5.18946C285.02 5.18946 286.667 3.32842 286.667 0.294922H286.94C286.94 3.33462 288.543 5.18946 291.295 5.18946Z" fill="#1F1F1F"/>
</svg>
