<svg width="731" height="572" viewBox="0 0 731 572" fill="none" xmlns="http://www.w3.org/2000/svg">
<path d="M35.677 162.641V163.38C25.2787 163.38 19.2254 169.707 19.2254 180H18.1919C18.1919 169.623 11.8643 163.38 1.677 163.38V162.641C11.9698 162.641 18.1919 156.314 18.1919 146H19.2254C19.2254 156.335 25.2787 162.641 35.677 162.641Z" stroke="#1F1F1F" stroke-width="2" stroke-miterlimit="10"/>
<path d="M453.677 97.8313V98.1787C448.784 98.1787 445.935 101.156 445.935 106H445.449C445.449 101.117 442.471 98.1787 437.677 98.1787V97.8313C442.521 97.8313 445.449 94.8536 445.449 90H445.935C445.935 94.8635 448.784 97.8313 453.677 97.8313Z" fill="#1F1F1F"/>
<path d="M245.677 537.831V538.179C240.784 538.179 237.935 541.156 237.935 546H237.449C237.449 541.117 234.471 538.179 229.677 538.179V537.831C234.521 537.831 237.449 534.854 237.449 530H237.935C237.935 534.864 240.784 537.831 245.677 537.831Z" fill="#1F1F1F"/>
<circle cx="303.677" cy="2" r="2" fill="#232323"/>
<circle cx="30.677" cy="458" r="2" fill="#232323"/>
<circle cx="293.677" cy="570" r="2" fill="#232323"/>
<circle cx="632.677" cy="455" r="4" stroke="#232323" stroke-width="2"/>
<circle cx="695.677" cy="400" r="2" fill="#232323"/>
<circle cx="729.677" cy="439" r="1" fill="#232323"/>
<circle cx="476.677" cy="67" r="1" fill="#232323"/>
<circle cx="52.677" cy="195" r="1" fill="#232323"/>
<circle cx="342.677" cy="187" r="1" fill="#232323"/>
</svg>
