<svg width="957" height="1546" viewBox="0 0 957 1546" fill="none" xmlns="http://www.w3.org/2000/svg">
<path fill-rule="evenodd" clip-rule="evenodd" d="M956.397 1192.7C956.397 1195.29 954.293 1197.4 951.698 1197.4C949.103 1197.4 947 1195.29 947 1192.7C947 1190.1 949.103 1188 951.698 1188C954.293 1188 956.397 1190.1 956.397 1192.7Z" fill="#5835FF"/>
<path fill-rule="evenodd" clip-rule="evenodd" d="M693.768 963.968C693.768 968.783 689.866 972.686 685.051 972.686C680.237 972.686 676.334 968.783 676.334 963.968C676.334 959.154 680.237 955.251 685.051 955.251C689.866 955.251 693.768 959.154 693.768 963.968Z" fill="#5835FF"/>
<path fill-rule="evenodd" clip-rule="evenodd" d="M931.434 1536.72C931.434 1541.53 927.531 1545.43 922.717 1545.43C917.903 1545.43 914 1541.53 914 1536.72C914 1531.9 917.903 1528 922.717 1528C927.531 1528 931.434 1531.9 931.434 1536.72Z" fill="#5835FF"/>
<path fill-rule="evenodd" clip-rule="evenodd" d="M520.311 879.108C520.311 879.108 508.932 879.213 508.932 890.487C508.932 879.147 497.554 879.108 497.554 879.108C497.554 879.108 508.932 879.71 508.932 867.729C508.932 879.71 520.311 879.108 520.311 879.108Z" fill="#5835FF"/>
<path fill-rule="evenodd" clip-rule="evenodd" d="M524.2 1025.77L524.198 1026.78C509.946 1026.78 501.618 1035.42 501.618 1049.61L500.195 1049.61C500.195 1035.35 491.659 1026.78 477.532 1026.78L477.531 1025.77C491.659 1025.77 500.198 1017.13 500.198 1002.94H501.618C501.618 1017.13 509.946 1025.77 524.2 1025.77Z" fill="#5835FF"/>
<path fill-rule="evenodd" clip-rule="evenodd" d="M930.419 832.845C930.419 837.657 926.519 841.557 921.707 841.557C916.896 841.557 912.996 837.657 912.996 832.845C912.996 828.033 916.896 824.133 921.707 824.133C926.519 824.133 930.419 828.033 930.419 832.845Z" fill="#5835FF"/>
<path fill-rule="evenodd" clip-rule="evenodd" d="M713.618 1182.31C713.618 1185.21 711.267 1187.56 708.367 1187.56C705.467 1187.56 703.116 1185.21 703.116 1182.31C703.116 1179.41 705.467 1177.06 708.367 1177.06C711.267 1177.06 713.618 1179.41 713.618 1182.31Z" fill="#5835FF"/>
<path fill-rule="evenodd" clip-rule="evenodd" d="M351.188 1079.16C351.188 1081.24 349.503 1082.92 347.424 1082.92C345.346 1082.92 343.661 1081.24 343.661 1079.16C343.661 1077.08 345.346 1075.39 347.424 1075.39C349.503 1075.39 351.188 1077.08 351.188 1079.16Z" fill="#5835FF"/>
<path fill-rule="evenodd" clip-rule="evenodd" d="M46.6799 1206.02C46.6799 1208.09 44.9947 1209.78 42.9161 1209.78C40.8376 1209.78 39.1527 1208.09 39.1527 1206.02C39.1527 1203.94 40.8376 1202.25 42.9161 1202.25C44.9947 1202.25 46.6799 1203.94 46.6799 1206.02Z" fill="#5835FF"/>
<path fill-rule="evenodd" clip-rule="evenodd" d="M398.049 1167.51C398.049 1170.33 395.761 1172.62 392.939 1172.62C390.116 1172.62 387.828 1170.33 387.828 1167.51C387.828 1164.69 390.116 1162.4 392.939 1162.4C395.761 1162.4 398.049 1164.69 398.049 1167.51Z" fill="#5835FF"/>
<path fill-rule="evenodd" clip-rule="evenodd" d="M14.8915 867.542C14.8915 871.639 11.5706 874.959 7.47407 874.959C3.37756 874.959 0.0566406 871.639 0.0566406 867.542C0.0566406 863.446 3.37756 860.125 7.47407 860.125C11.5706 860.125 14.8915 863.446 14.8915 867.542Z" fill="#5835FF"/>
<path fill-rule="evenodd" clip-rule="evenodd" d="M921.707 1071.13C921.707 1071.13 913.675 1071.2 913.675 1079.16C913.675 1071.15 905.643 1071.13 905.643 1071.13C905.643 1071.13 913.675 1071.55 913.675 1063.09C913.675 1071.55 921.707 1071.13 921.707 1071.13Z" fill="#5835FF"/>
<path fill-rule="evenodd" clip-rule="evenodd" d="M134.379 872.978C134.379 872.978 116.631 873.142 116.631 890.726C116.631 873.039 98.883 872.978 98.883 872.978C98.883 872.978 116.631 873.917 116.631 855.23C116.631 873.917 134.379 872.978 134.379 872.978Z" fill="#5835FF"/>
<path fill-rule="evenodd" clip-rule="evenodd" d="M758.757 1020.38C758.757 1020.38 747.378 1020.48 747.378 1031.76C747.378 1020.42 736 1020.38 736 1020.38C736 1020.38 747.378 1020.98 747.378 1009C747.378 1020.98 758.757 1020.38 758.757 1020.38Z" fill="#5835FF"/>
<path fill-rule="evenodd" clip-rule="evenodd" d="M256.197 869.598C256.197 869.598 236.598 869.779 236.598 889.197C236.598 869.665 217 869.598 217 869.598C217 869.598 236.598 870.635 236.598 850C236.598 870.635 256.197 869.598 256.197 869.598Z" fill="#5835FF"/>
<path fill-rule="evenodd" clip-rule="evenodd" d="M131.901 1089.87C131.901 1089.87 123.869 1089.94 123.869 1097.9C123.869 1089.89 115.837 1089.87 115.837 1089.87C115.837 1089.87 123.869 1090.29 123.869 1081.83C123.869 1090.29 131.901 1089.87 131.901 1089.87Z" fill="#5835FF"/>
<path fill-rule="evenodd" clip-rule="evenodd" d="M146.847 960.358C146.847 960.358 138.816 960.432 138.816 968.39C138.816 960.385 130.784 960.358 130.784 960.358C130.784 960.358 138.816 960.783 138.816 952.326C138.816 960.783 146.847 960.358 146.847 960.358Z" fill="#5835FF"/>
<path fill-rule="evenodd" clip-rule="evenodd" d="M772 631.524C772 634.119 769.896 636.223 767.301 636.223C764.706 636.223 762.603 634.119 762.603 631.524C762.603 628.929 764.706 626.826 767.301 626.826C769.896 626.826 772 628.929 772 631.524Z" fill="#5835FF"/>
<path fill-rule="evenodd" clip-rule="evenodd" d="M623.768 473.968C623.768 478.783 619.865 482.686 615.051 482.686C610.237 482.686 606.334 478.783 606.334 473.968C606.334 469.154 610.237 465.251 615.051 465.251C619.865 465.251 623.768 469.154 623.768 473.968Z" fill="#5835FF"/>
<path fill-rule="evenodd" clip-rule="evenodd" d="M570.311 389.108C570.311 389.108 558.932 389.213 558.932 400.487C558.932 389.147 547.554 389.108 547.554 389.108C547.554 389.108 558.932 389.71 558.932 377.729C558.932 389.71 570.311 389.108 570.311 389.108Z" fill="#5835FF"/>
<path fill-rule="evenodd" clip-rule="evenodd" d="M734.2 1350.83L734.198 1351.84C719.946 1351.84 711.618 1360.47 711.618 1374.66L710.195 1374.66C710.195 1360.41 701.659 1351.84 687.532 1351.84L687.531 1350.83C701.659 1350.83 710.198 1342.19 710.198 1328H711.618C711.618 1342.19 719.946 1350.83 734.2 1350.83Z" fill="#5835FF"/>
<path fill-rule="evenodd" clip-rule="evenodd" d="M930.419 192.845C930.419 197.656 926.519 201.557 921.707 201.557C916.896 201.557 912.996 197.656 912.996 192.845C912.996 188.033 916.896 184.133 921.707 184.133C926.519 184.133 930.419 188.033 930.419 192.845Z" fill="#5835FF"/>
<path fill-rule="evenodd" clip-rule="evenodd" d="M713.618 692.313C713.618 695.213 711.267 697.564 708.367 697.564C705.467 697.564 703.116 695.213 703.116 692.313C703.116 689.413 705.467 687.062 708.367 687.062C711.267 687.062 713.618 689.413 713.618 692.313Z" fill="#5835FF"/>
<path fill-rule="evenodd" clip-rule="evenodd" d="M277.527 713.764C277.527 715.842 275.842 717.527 273.763 717.527C271.685 717.527 270 715.842 270 713.764C270 711.685 271.685 710 273.763 710C275.842 710 277.527 711.685 277.527 713.764Z" fill="#5835FF"/>
<path fill-rule="evenodd" clip-rule="evenodd" d="M40.5272 689.763C40.5272 691.842 38.842 693.527 36.7634 693.527C34.6849 693.527 33 691.842 33 689.763C33 687.685 34.6849 686 36.7634 686C38.842 686 40.5272 687.685 40.5272 689.763Z" fill="#5835FF"/>
<path fill-rule="evenodd" clip-rule="evenodd" d="M527.892 1468.54C527.892 1472.64 524.571 1475.96 520.474 1475.96C516.378 1475.96 513.057 1472.64 513.057 1468.54C513.057 1464.45 516.378 1461.13 520.474 1461.13C524.571 1461.13 527.892 1464.45 527.892 1468.54Z" fill="#5835FF"/>
<path fill-rule="evenodd" clip-rule="evenodd" d="M659.847 1511.36C659.847 1511.36 651.816 1511.43 651.816 1519.39C651.816 1511.39 643.784 1511.36 643.784 1511.36C643.784 1511.36 651.816 1511.78 651.816 1503.33C651.816 1511.78 659.847 1511.36 659.847 1511.36Z" fill="#5835FF"/>
<path fill-rule="evenodd" clip-rule="evenodd" d="M559.68 1317.02C559.68 1319.09 557.995 1320.78 555.916 1320.78C553.838 1320.78 552.153 1319.09 552.153 1317.02C552.153 1314.94 553.838 1313.25 555.916 1313.25C557.995 1313.25 559.68 1314.94 559.68 1317.02Z" fill="#5835FF"/>
<path fill-rule="evenodd" clip-rule="evenodd" d="M438.049 667.509C438.049 670.331 435.761 672.619 432.939 672.619C430.117 672.619 427.829 670.331 427.829 667.509C427.829 664.686 430.117 662.398 432.939 662.398C435.761 662.398 438.049 664.686 438.049 667.509Z" fill="#5835FF"/>
<path fill-rule="evenodd" clip-rule="evenodd" d="M264.892 7.54297C264.892 11.6395 261.571 14.9605 257.474 14.9605C253.378 14.9605 250.057 11.6395 250.057 7.54297C250.057 3.44643 253.378 0.125488 257.474 0.125488C261.571 0.125488 264.892 3.44643 264.892 7.54297Z" fill="#5835FF"/>
<path fill-rule="evenodd" clip-rule="evenodd" d="M954.064 577.032C954.064 577.032 946.032 577.106 946.032 585.064C946.032 577.059 938 577.032 938 577.032C938 577.032 946.032 577.457 946.032 569C946.032 577.457 954.064 577.032 954.064 577.032Z" fill="#5835FF"/>
<path fill-rule="evenodd" clip-rule="evenodd" d="M854.379 372.978C854.379 372.978 836.631 373.142 836.631 390.726C836.631 373.038 818.883 372.978 818.883 372.978C818.883 372.978 836.631 373.916 836.631 355.23C836.631 373.916 854.379 372.978 854.379 372.978Z" fill="#5835FF"/>
<path fill-rule="evenodd" clip-rule="evenodd" d="M748.861 531.045C748.861 531.045 737.483 531.15 737.483 542.424C737.483 531.084 726.104 531.045 726.104 531.045C726.104 531.045 737.483 531.647 737.483 519.667C737.483 531.647 748.861 531.045 748.861 531.045Z" fill="#5835FF"/>
<path fill-rule="evenodd" clip-rule="evenodd" d="M456.197 372.598C456.197 372.598 436.598 372.779 436.598 392.197C436.598 372.665 417 372.598 417 372.598C417 372.598 436.598 373.635 436.598 353C436.598 373.635 456.197 372.598 456.197 372.598Z" fill="#5835FF"/>
<path fill-rule="evenodd" clip-rule="evenodd" d="M232.064 585.032C232.064 585.032 224.032 585.106 224.032 593.064C224.032 585.06 216 585.032 216 585.032C216 585.032 224.032 585.457 224.032 577C224.032 585.457 232.064 585.032 232.064 585.032Z" fill="#5835FF"/>
<path fill-rule="evenodd" clip-rule="evenodd" d="M36.8475 410.358C36.8475 410.358 28.8157 410.432 28.8157 418.39C28.8157 410.385 20.7837 410.358 20.7837 410.358C20.7837 410.358 28.8157 410.783 28.8157 402.326C28.8157 410.783 36.8475 410.358 36.8475 410.358Z" fill="#5835FF"/>
</svg>
