<svg width="991" height="132" viewBox="0 0 991 132" fill="none" xmlns="http://www.w3.org/2000/svg">
<path d="M990.5 132H0C57 132 73.7975 86.2679 136.819 86.2679C189.243 86.2679 195.442 114.844 242.862 114.844C290.282 114.844 517.837 19.9487 678.265 19.9487C751 19.9487 797.967 83.8609 824.166 91.3378C845.798 97.5088 857.858 80.5578 888.855 80.5578C917.492 80.5578 928 132 990.5 132Z" fill="#EADDCF"/>
<path d="M126.914 89.1338H135.613C135.613 89.1338 145.287 83.6797 145.287 72.7459C145.287 64.7057 139.488 63.7326 139.488 57.3056C139.488 50.8785 146.903 50.8785 146.903 41.8652C146.903 32.8519 140.463 29.6511 134.664 29.6511C130.147 29.6511 123.707 33.1847 123.707 39.9447C123.707 46.7047 130.147 46.7047 130.147 52.1588C130.147 57.6128 122.424 56.7422 122.424 62.8364C122.424 68.9307 127.581 67.2663 127.581 72.7459C127.581 77.8927 119.858 75.3065 119.858 81.7592C119.832 86.2403 126.914 89.1338 126.914 89.1338Z" fill="#EADDCF"/>
<path d="M131.866 88.6982C131.866 88.6982 159.374 38.2544 168.535 40.815C177.696 43.3756 147.904 88.6982 147.904 88.6982H131.866Z" fill="#EADDCF"/>
<path d="M134.484 88.6987C134.484 88.6987 112.955 52.8247 104.923 57.9715C96.8915 63.1183 118.42 88.6987 118.42 88.6987H134.484Z" fill="#EADDCF"/>
<path d="M346.786 94.2849C346.786 94.2849 340.781 60.2032 346.067 57.9754C351.353 55.7477 355.433 91.1354 355.433 91.1354L346.786 94.2849Z" fill="#EADDCF"/>
<path d="M349.66 90.2389C349.66 90.2389 336.676 68.6273 331.852 71.7256C327.028 74.824 339.986 90.2389 339.986 90.2389H349.66Z" fill="#EADDCF"/>
<path d="M351.841 89.9829C351.841 89.9829 364.825 68.3713 369.649 71.4697C374.473 74.568 361.515 89.9829 361.515 89.9829H351.841Z" fill="#EADDCF"/>
<path d="M887.418 83.1158C887.418 83.1158 877.821 79.915 877.821 68.7764C877.821 57.6378 882.902 56.6136 885.288 50.6986C887.418 45.3726 883.159 34.7461 891.139 34.7461C899.119 34.7461 897.272 46.7809 895.399 51.7485C892.191 60.2497 900.736 61.9653 898.606 69.8263C904.457 64.5002 910.282 55.8966 912.976 63.9881C916.183 73.5648 897.528 84.1912 897.528 84.1912L887.418 83.1158Z" fill="#EADDCF"/>
<path d="M866.868 22.02V22.4041C861.428 22.4041 858.272 25.6817 858.272 31.0845H857.733C857.733 25.6561 854.474 22.4041 849.085 22.4041V22.02C854.474 22.02 857.733 18.7425 857.733 13.3396H858.272C858.272 18.7169 861.428 22.02 866.868 22.02Z" fill="#1D1D1B"/>
<path d="M714.138 104.216L713.973 104.687L715.317 105.159L714.562 103.951L714.138 104.216ZM677.29 73.4888L677.67 73.8138L677.67 73.8135L677.29 73.4888ZM714.01 104.318L713.586 104.054L712.832 105.261L714.176 104.79L714.01 104.318ZM750.858 73.5913L751.239 73.267L751.238 73.2666L750.858 73.5913ZM714.587 104.293V78.4565H713.587V104.293H714.587ZM714.138 104.216C714.562 103.951 714.562 103.951 714.562 103.95C714.562 103.95 714.561 103.949 714.561 103.949C714.56 103.947 714.559 103.945 714.557 103.943C714.554 103.937 714.549 103.929 714.542 103.919C714.529 103.898 714.51 103.867 714.484 103.827C714.433 103.746 714.357 103.626 714.258 103.47C714.06 103.159 713.767 102.705 713.392 102.131C712.642 100.984 711.559 99.3593 710.227 97.4472C707.565 93.6247 703.906 88.6473 699.922 84.0409C695.947 79.444 691.617 75.1777 687.61 72.8144C685.607 71.6328 683.641 70.9003 681.812 70.8759C679.957 70.8511 678.282 71.5574 676.91 73.164L677.67 73.8135C678.851 72.4307 680.243 71.855 681.799 71.8758C683.382 71.8969 685.172 72.5373 687.102 73.6758C690.962 75.9528 695.206 80.1155 699.166 84.695C703.118 89.2651 706.755 94.2115 709.407 98.0187C710.732 99.9216 711.809 101.538 712.555 102.679C712.928 103.249 713.218 103.7 713.415 104.008C713.513 104.162 713.588 104.281 713.639 104.36C713.664 104.4 713.683 104.43 713.695 104.45C713.702 104.461 713.706 104.468 713.709 104.473C713.711 104.476 713.712 104.477 713.713 104.479C713.713 104.479 713.714 104.48 713.714 104.48C713.714 104.48 713.714 104.48 714.138 104.216ZM676.91 73.1637C675.367 74.9668 674.792 76.8647 675.017 78.7929C675.24 80.6995 676.24 82.5757 677.726 84.3766C680.694 87.9733 685.734 91.4238 691.082 94.4161C696.443 97.4155 702.166 99.9829 706.544 101.799C708.734 102.708 710.589 103.429 711.898 103.924C712.553 104.171 713.07 104.362 713.425 104.491C713.602 104.555 713.739 104.604 713.831 104.637C713.877 104.654 713.912 104.666 713.936 104.675C713.948 104.679 713.957 104.682 713.963 104.684C713.966 104.685 713.968 104.686 713.97 104.686C713.971 104.687 713.971 104.687 713.972 104.687C713.972 104.687 713.973 104.687 714.138 104.216C714.304 103.744 714.304 103.744 714.304 103.744C714.303 103.744 714.303 103.743 714.302 103.743C714.301 103.743 714.299 103.742 714.296 103.741C714.29 103.739 714.281 103.736 714.27 103.732C714.247 103.724 714.213 103.712 714.167 103.695C714.077 103.663 713.942 103.615 713.767 103.551C713.416 103.423 712.902 103.234 712.252 102.988C710.951 102.497 709.105 101.779 706.927 100.876C702.568 99.0671 696.884 96.5165 691.57 93.5434C686.244 90.5631 681.341 87.1865 678.497 83.7401C677.077 82.0194 676.203 80.32 676.011 78.6767C675.821 77.0551 676.288 75.4291 677.67 73.8138L676.91 73.1637ZM680.644 77.794L713.566 104.603L714.197 103.828L681.275 77.0186L680.644 77.794ZM677.162 105.099H750.858V104.099H677.162V105.099ZM714.01 104.318C714.434 104.583 714.434 104.583 714.435 104.583C714.435 104.582 714.435 104.582 714.435 104.581C714.436 104.58 714.437 104.578 714.439 104.576C714.442 104.571 714.447 104.563 714.453 104.553C714.466 104.533 714.485 104.503 714.51 104.463C714.56 104.383 714.635 104.265 714.733 104.111C714.93 103.802 715.22 103.351 715.593 102.781C716.339 101.641 717.417 100.024 718.742 98.1213C721.393 94.3141 725.031 89.3677 728.983 84.7976C732.943 80.2181 737.186 76.0553 741.046 73.7783C742.976 72.6399 744.766 71.9995 746.349 71.9784C747.905 71.9576 749.297 72.5332 750.478 73.916L751.238 73.2666C749.866 71.66 748.192 70.9537 746.336 70.9785C744.507 71.0028 742.541 71.7353 740.538 72.917C736.532 75.2802 732.201 79.5466 728.226 84.1435C724.243 88.7499 720.583 93.7273 717.921 97.5498C716.59 99.4618 715.507 101.087 714.756 102.234C714.381 102.807 714.089 103.262 713.89 103.573C713.791 103.728 713.715 103.848 713.664 103.929C713.638 103.97 713.619 104.001 713.606 104.022C713.599 104.032 713.594 104.04 713.591 104.045C713.589 104.048 713.588 104.05 713.587 104.051C713.587 104.052 713.587 104.053 713.586 104.053C713.586 104.053 713.586 104.054 714.01 104.318ZM750.478 73.9157C751.857 75.534 752.322 77.1625 752.13 78.7862C751.936 80.4315 751.061 82.1322 749.641 83.8534C746.795 87.3011 741.893 90.6769 736.568 93.6556C731.256 96.627 725.575 99.1752 721.218 100.982C719.04 101.885 717.196 102.601 715.896 103.092C715.246 103.337 714.732 103.526 714.381 103.654C714.206 103.717 714.071 103.766 713.981 103.798C713.936 103.814 713.901 103.826 713.878 103.834C713.867 103.838 713.858 103.842 713.853 103.844C713.85 103.845 713.848 103.845 713.846 103.846C713.846 103.846 713.845 103.846 713.845 103.846C713.845 103.846 713.845 103.846 714.01 104.318C714.176 104.79 714.176 104.79 714.176 104.79C714.177 104.79 714.177 104.789 714.178 104.789C714.18 104.789 714.182 104.788 714.185 104.787C714.191 104.785 714.2 104.781 714.212 104.777C714.236 104.769 714.271 104.756 714.317 104.74C714.409 104.707 714.546 104.658 714.723 104.594C715.077 104.465 715.595 104.275 716.249 104.028C717.557 103.534 719.412 102.813 721.601 101.905C725.977 100.091 731.697 97.5261 737.056 94.5283C742.403 91.5376 747.443 88.0879 750.412 84.4899C751.898 82.6884 752.899 80.8113 753.123 78.9033C753.351 76.9737 752.778 75.0735 751.239 73.267L750.478 73.9157ZM746.873 77.1211L713.951 103.93L714.582 104.706L747.504 77.8966L746.873 77.1211Z" fill="#1E1E1E"/>
<path d="M734.025 57.9709V58.8415C721.836 58.8415 714.703 66.216 714.703 78.3276H713.497C713.497 66.1648 706.184 58.8415 694.098 58.8415V57.9709C706.184 57.9709 713.497 50.5964 713.497 38.4592H714.703C714.703 50.5964 721.836 57.9709 734.025 57.9709Z" fill="#1E1E1E" stroke="#1E1E1E" stroke-miterlimit="10"/>
<path d="M450.992 58.1244L450.827 58.5961L452.171 59.0682L451.416 57.8597L450.992 58.1244ZM414.144 27.3979L414.524 27.723L414.524 27.7226L414.144 27.3979ZM450.864 58.2264L450.44 57.9617L449.686 59.1706L451.03 58.6982L450.864 58.2264ZM487.712 27.5L488.093 27.1753L488.092 27.1752L487.712 27.5ZM451.415 58.1755V19.2041H450.415V58.1755H451.415ZM450.992 58.1244C451.416 57.8597 451.416 57.8594 451.416 57.8591C451.416 57.8587 451.416 57.8582 451.415 57.8575C451.414 57.8561 451.413 57.8541 451.411 57.8514C451.408 57.8461 451.403 57.8382 451.396 57.8278C451.383 57.807 451.364 57.7761 451.338 57.7355C451.287 57.6544 451.211 57.5346 451.112 57.379C450.914 57.0678 450.621 56.6135 450.246 56.0399C449.496 54.8927 448.413 53.268 447.081 51.3561C444.419 47.5336 440.76 42.5563 436.776 37.9499C432.801 33.353 428.471 29.0868 424.464 26.7236C422.461 25.5419 420.495 24.8094 418.666 24.785C416.811 24.7603 415.136 25.4665 413.764 27.0732L414.524 27.7226C415.705 26.3398 417.097 25.7642 418.653 25.7849C420.236 25.8061 422.026 26.4465 423.956 27.5849C427.816 29.8619 432.06 34.0246 436.02 38.604C439.972 43.174 443.609 48.1204 446.261 51.9275C447.586 53.8304 448.663 55.4469 449.409 56.5874C449.782 57.1575 450.072 57.6086 450.269 57.9168C450.367 58.0709 450.442 58.1893 450.493 58.269C450.518 58.3089 450.537 58.339 450.549 58.3592C450.556 58.3692 450.56 58.3768 450.564 58.3818C450.565 58.3843 450.566 58.3861 450.567 58.3874C450.567 58.388 450.568 58.3884 450.568 58.3887C450.568 58.389 450.568 58.3891 450.992 58.1244ZM413.764 27.0728C412.221 28.8759 411.646 30.7738 411.871 32.702C412.094 34.6085 413.094 36.4847 414.58 38.2855C417.548 41.8822 422.588 45.3327 427.936 48.3249C433.297 51.3243 439.02 53.8917 443.398 55.708C445.588 56.6165 447.443 57.3381 448.752 57.8326C449.407 58.0799 449.924 58.2705 450.279 58.3994C450.456 58.4639 450.593 58.5129 450.685 58.5459C450.731 58.5624 450.766 58.5749 450.79 58.5833C450.802 58.5875 450.811 58.5906 450.817 58.5928C450.82 58.5938 450.822 58.5947 450.824 58.5952C450.825 58.5955 450.825 58.5957 450.826 58.5959C450.826 58.596 450.827 58.5961 450.992 58.1244C451.158 57.6526 451.158 57.6526 451.158 57.6525C451.157 57.6524 451.157 57.6522 451.156 57.6519C451.155 57.6515 451.153 57.6507 451.15 57.6497C451.144 57.6477 451.135 57.6447 451.124 57.6406C451.101 57.6325 451.067 57.6203 451.022 57.6042C450.931 57.5718 450.796 57.5234 450.621 57.4596C450.27 57.332 449.756 57.1429 449.106 56.8972C447.805 56.4057 445.96 55.6881 443.781 54.7843C439.422 52.9758 433.738 50.4253 428.424 47.4523C423.098 44.472 418.195 41.0955 415.351 37.6491C413.931 35.9284 413.057 34.229 412.865 32.5858C412.675 30.9642 413.142 29.3382 414.524 27.723L413.764 27.0728ZM417.472 31.6776L450.42 58.5121L451.052 57.7367L418.104 30.9023L417.472 31.6776ZM450.864 58.2264C451.288 58.4911 451.288 58.491 451.289 58.4908C451.289 58.4905 451.289 58.49 451.289 58.4894C451.29 58.4882 451.291 58.4864 451.293 58.4839C451.296 58.4789 451.301 58.4713 451.307 58.4613C451.32 58.4411 451.339 58.4109 451.364 58.3711C451.414 58.2914 451.489 58.173 451.587 58.0189C451.784 57.7107 452.074 57.2596 452.447 56.6894C453.193 55.549 454.271 53.9324 455.596 52.0296C458.247 48.2225 461.885 43.2761 465.837 38.7061C469.797 34.1267 474.04 29.964 477.9 27.687C479.83 26.5486 481.621 25.9081 483.203 25.887C484.759 25.8663 486.151 26.4419 487.332 27.8247L488.092 27.1752C486.72 25.5686 485.046 24.8624 483.19 24.8871C481.362 24.9115 479.395 25.644 477.392 26.8257C473.386 29.1888 469.055 33.4551 465.08 38.052C461.097 42.6584 457.437 47.6357 454.775 51.4581C453.444 53.3701 452.361 54.9948 451.61 56.142C451.235 56.7156 450.943 57.1699 450.744 57.4811C450.645 57.6367 450.569 57.7565 450.518 57.8376C450.492 57.8782 450.473 57.909 450.46 57.9299C450.453 57.9403 450.448 57.9482 450.445 57.9535C450.443 57.9561 450.442 57.9582 450.441 57.9596C450.441 57.9602 450.441 57.9608 450.44 57.9611C450.44 57.9615 450.44 57.9617 450.864 58.2264ZM487.332 27.8246C488.711 29.4397 489.176 31.0656 488.985 32.6874C488.791 34.3308 487.915 36.0303 486.495 37.7511C483.649 41.1976 478.747 44.5741 473.422 47.5544C468.11 50.5274 462.429 53.078 458.072 54.8864C455.894 55.7903 454.049 56.5079 452.75 56.9993C452.1 57.245 451.586 57.4341 451.235 57.5617C451.06 57.6255 450.925 57.6739 450.835 57.7063C450.789 57.7225 450.755 57.7346 450.732 57.7427C450.721 57.7468 450.712 57.7498 450.707 57.7518C450.704 57.7528 450.702 57.7536 450.7 57.7541C450.7 57.7543 450.699 57.7545 450.699 57.7546C450.698 57.7547 450.698 57.7547 450.864 58.2264C451.03 58.6982 451.03 58.6981 451.031 58.6979C451.031 58.6978 451.032 58.6976 451.032 58.6973C451.034 58.6967 451.036 58.6959 451.039 58.6948C451.045 58.6927 451.054 58.6895 451.066 58.6853C451.09 58.6769 451.125 58.6644 451.171 58.6479C451.264 58.615 451.4 58.5659 451.577 58.5015C451.932 58.3726 452.449 58.182 453.103 57.9347C454.411 57.4401 456.266 56.7186 458.455 55.81C462.831 53.9937 468.551 51.4264 473.911 48.427C479.257 45.4348 484.297 41.9843 487.266 38.3877C488.753 36.5869 489.753 34.7109 489.978 32.8046C490.205 30.8766 489.632 28.9786 488.093 27.1753L487.332 27.8246ZM483.727 31.0045L450.805 57.8389L451.437 58.6141L484.359 31.7796L483.727 31.0045Z" fill="#EADDCF"/>
<path d="M452.506 0C446.886 0 447.784 5.60757 443.525 6.27331C439.265 6.93904 432.465 -0.819371 429.848 4.71138C427.821 8.96187 434.775 10.5238 435.904 13.6732C437.52 18.1798 434.107 23.7617 437.238 25.9894C441.164 28.7804 443.525 21.0732 447.784 21.0732C452.044 21.0732 452.506 24.2482 458.1 23.9922C463.027 23.7617 464.31 18.6663 466.619 16.157C469.544 13.0331 476.165 16.4898 476.498 10.5494C476.934 2.25327 465.285 7.86084 461.692 6.06846C457.304 3.8408 459.024 0 452.506 0Z" fill="#EADDCF"/>
<path d="M831.379 117.787L830.964 118.065L831.36 118.657L831.782 118.083L831.379 117.787ZM857.065 118.76L856.624 118.994L857.022 119.745L857.485 119.032L857.065 118.76ZM448.298 105.675C448.644 106.036 448.644 106.036 448.644 106.036C448.644 106.036 448.644 106.036 448.644 106.036C448.645 106.035 448.645 106.035 448.646 106.034C448.648 106.033 448.65 106.03 448.654 106.027C448.66 106.021 448.671 106.011 448.684 105.998C448.712 105.972 448.754 105.933 448.809 105.882C448.919 105.779 449.083 105.628 449.297 105.436C449.726 105.051 450.355 104.501 451.152 103.839C452.747 102.515 455.015 100.751 457.704 98.9872C463.103 95.4471 470.12 91.9635 476.781 91.9635V90.9635C469.817 90.9635 462.593 94.5855 457.156 98.151C454.428 99.9401 452.13 101.728 450.514 103.069C449.705 103.74 449.067 104.3 448.629 104.692C448.411 104.888 448.243 105.043 448.129 105.149C448.071 105.202 448.028 105.242 447.999 105.27C447.984 105.284 447.973 105.295 447.965 105.302C447.961 105.305 447.958 105.308 447.956 105.31C447.955 105.311 447.954 105.312 447.954 105.312C447.954 105.313 447.953 105.313 447.953 105.313C447.953 105.313 447.953 105.313 448.298 105.675ZM476.781 91.9635C483.464 91.9635 488.017 94.2298 492.095 96.5335C496.152 98.8249 499.842 101.233 504.648 101.233V100.233C500.165 100.233 496.735 98.006 492.587 95.6628C488.46 93.3318 483.724 90.9635 476.781 90.9635V91.9635ZM504.648 101.233C509.429 101.233 514.042 98.847 519.1 96.5535C524.197 94.2417 529.844 91.9635 536.852 91.9635V90.9635C529.619 90.9635 523.808 93.3199 518.687 95.6428C513.525 97.9838 509.157 100.233 504.648 100.233V101.233ZM536.852 91.9635C543.825 91.9635 550.536 95.2977 555.538 98.6762C558.033 100.361 560.087 102.046 561.517 103.31C562.232 103.942 562.79 104.468 563.168 104.835C563.358 105.018 563.502 105.162 563.599 105.26C563.647 105.308 563.683 105.345 563.707 105.37C563.719 105.382 563.728 105.391 563.734 105.398C563.737 105.401 563.739 105.403 563.74 105.404C563.741 105.405 563.741 105.405 563.742 105.406C563.742 105.406 563.742 105.406 563.742 105.406C563.742 105.406 563.742 105.406 564.103 105.06C564.464 104.714 564.464 104.714 564.464 104.714C564.464 104.714 564.464 104.714 564.464 104.713C564.463 104.713 564.462 104.712 564.461 104.711C564.46 104.709 564.457 104.707 564.453 104.703C564.447 104.696 564.437 104.686 564.424 104.672C564.398 104.646 564.359 104.606 564.309 104.555C564.208 104.454 564.059 104.305 563.864 104.117C563.476 103.74 562.906 103.204 562.179 102.561C560.725 101.276 558.636 99.5619 556.098 97.8475C551.035 94.4276 544.121 90.9635 536.852 90.9635V91.9635ZM561.999 64.2705C562.344 64.632 562.344 64.632 562.344 64.632C562.344 64.632 562.344 64.632 562.344 64.6319C562.344 64.6317 562.345 64.6314 562.345 64.6309C562.346 64.63 562.348 64.6285 562.35 64.6265C562.354 64.6225 562.361 64.6163 562.369 64.6079C562.387 64.5912 562.414 64.5661 562.45 64.533C562.521 64.4669 562.627 64.3692 562.766 64.2444C563.045 63.9948 563.453 63.637 563.972 63.2071C565.009 62.3468 566.484 61.2 568.232 60.054C571.748 57.7493 576.289 55.5012 580.577 55.5012V54.5012C575.986 54.5012 571.238 56.8878 567.684 59.2177C565.897 60.389 564.392 61.5596 563.334 62.4373C562.804 62.8764 562.386 63.2427 562.099 63.5C561.955 63.6287 561.845 63.7301 561.77 63.7998C561.732 63.8346 561.703 63.8615 561.684 63.8799C561.674 63.8891 561.667 63.8962 561.661 63.9011C561.659 63.9035 561.657 63.9054 561.655 63.9067C561.655 63.9074 561.654 63.9079 561.654 63.9083C561.654 63.9085 561.653 63.9087 561.653 63.9088C561.653 63.9089 561.653 63.909 561.999 64.2705ZM580.577 55.5012C584.886 55.5012 587.822 56.9609 590.473 58.4581C593.102 59.943 595.555 61.5442 598.744 61.5442V60.5442C595.877 60.5442 593.685 59.1239 590.965 57.5873C588.265 56.063 585.146 54.5012 580.577 54.5012V55.5012ZM598.744 61.5442C600.341 61.5442 601.893 61.1459 603.45 60.5688C605 59.9942 606.594 59.2263 608.246 58.4782C611.569 56.973 615.227 55.5012 619.76 55.5012V54.5012C615.003 54.5012 611.181 56.051 607.833 57.5672C606.149 58.3299 604.609 59.0727 603.102 59.6311C601.603 60.1871 600.175 60.5442 598.744 60.5442V61.5442ZM619.76 55.5012C624.256 55.5012 628.601 57.6513 631.855 59.8456C633.475 60.9382 634.81 62.0316 635.739 62.8514C636.204 63.2612 636.566 63.602 636.812 63.8395C636.934 63.9582 637.028 64.0511 637.09 64.1137C637.121 64.1451 637.144 64.1689 637.16 64.1846C637.167 64.1924 637.173 64.1982 637.177 64.202C637.179 64.2038 637.18 64.2052 637.181 64.206C637.181 64.2064 637.181 64.2067 637.181 64.2068C637.181 64.2069 637.181 64.2069 637.181 64.2069C637.181 64.2069 637.181 64.2068 637.542 63.8608C637.903 63.5148 637.903 63.5147 637.903 63.5145C637.903 63.5144 637.903 63.5142 637.902 63.514C637.902 63.5136 637.902 63.5131 637.901 63.5124C637.9 63.5111 637.898 63.5092 637.896 63.5068C637.891 63.502 637.884 63.4952 637.876 63.4862C637.858 63.4684 637.833 63.4425 637.799 63.4089C637.733 63.3418 637.635 63.2443 637.507 63.1208C637.252 62.8738 636.878 62.5225 636.401 62.1016C635.447 61.2603 634.078 60.1387 632.414 59.0165C629.099 56.7809 624.552 54.5012 619.76 54.5012V55.5012ZM90.877 117.428C91.145 117.85 91.145 117.85 91.1449 117.85C91.145 117.85 91.145 117.85 91.1451 117.85C91.1454 117.85 91.1458 117.849 91.1465 117.849C91.1478 117.848 91.15 117.847 91.1529 117.845C91.1589 117.841 91.1681 117.835 91.1805 117.828C91.2055 117.812 91.2434 117.789 91.2941 117.758C91.3955 117.696 91.5479 117.605 91.7492 117.489C92.1517 117.256 92.7497 116.921 93.5261 116.52C95.079 115.716 97.345 114.642 100.189 113.568C105.878 111.419 113.868 109.273 123.081 109.273V108.273C113.715 108.273 105.603 110.454 99.8353 112.633C96.9503 113.722 94.6488 114.813 93.0664 115.632C92.2751 116.041 91.6634 116.383 91.2482 116.623C91.0406 116.743 90.8821 116.838 90.7749 116.903C90.7213 116.936 90.6804 116.961 90.6527 116.978C90.6388 116.987 90.6282 116.994 90.6209 116.998C90.6172 117.001 90.6144 117.002 90.6124 117.004C90.6114 117.004 90.6106 117.005 90.61 117.005C90.6097 117.005 90.6094 117.005 90.6093 117.006C90.609 117.006 90.6089 117.006 90.877 117.428ZM123.081 109.273C132.302 109.273 141.077 111.269 147.554 113.271C150.791 114.271 153.449 115.271 155.297 116.02C156.221 116.395 156.941 116.707 157.43 116.925C157.675 117.034 157.861 117.119 157.986 117.177C158.049 117.206 158.096 117.228 158.127 117.242C158.143 117.25 158.154 117.255 158.162 117.259C158.166 117.261 158.168 117.262 158.17 117.263C158.171 117.263 158.172 117.264 158.172 117.264C158.172 117.264 158.172 117.264 158.172 117.264C158.172 117.264 158.172 117.264 158.389 116.813C158.606 116.363 158.605 116.363 158.605 116.362C158.605 116.362 158.605 116.362 158.604 116.362C158.604 116.362 158.603 116.361 158.602 116.361C158.599 116.36 158.596 116.358 158.592 116.356C158.583 116.352 158.571 116.346 158.554 116.338C158.521 116.322 158.471 116.299 158.407 116.269C158.278 116.209 158.086 116.122 157.837 116.011C157.339 115.789 156.607 115.473 155.673 115.094C153.803 114.335 151.117 113.325 147.849 112.316C141.317 110.297 132.437 108.273 123.081 108.273V109.273ZM803.205 118.76C803.624 119.032 803.624 119.032 803.624 119.032C803.624 119.032 803.624 119.032 803.624 119.032C803.624 119.032 803.624 119.032 803.624 119.032C803.624 119.031 803.625 119.03 803.626 119.029C803.628 119.026 803.631 119.021 803.636 119.014C803.645 119 803.66 118.978 803.68 118.949C803.719 118.892 803.78 118.806 803.861 118.696C804.023 118.475 804.267 118.157 804.591 117.774C805.239 117.008 806.205 115.985 807.473 114.962C810.01 112.916 813.733 110.887 818.524 110.887V109.887C813.436 109.887 809.498 112.044 806.845 114.184C805.518 115.254 804.508 116.325 803.827 117.128C803.487 117.53 803.229 117.867 803.055 118.104C802.967 118.223 802.901 118.317 802.856 118.382C802.834 118.414 802.817 118.44 802.805 118.458C802.799 118.466 802.794 118.473 802.791 118.478C802.789 118.481 802.788 118.483 802.787 118.484C802.787 118.485 802.786 118.486 802.786 118.486C802.786 118.486 802.786 118.487 802.786 118.487C802.785 118.487 802.785 118.487 803.205 118.76ZM818.524 110.887C822.315 110.887 825.419 112.662 827.596 114.471C828.682 115.373 829.527 116.277 830.101 116.954C830.387 117.292 830.605 117.573 830.75 117.767C830.823 117.865 830.878 117.941 830.913 117.992C830.931 118.017 830.944 118.036 830.953 118.048C830.957 118.055 830.96 118.059 830.962 118.062C830.963 118.063 830.964 118.064 830.964 118.065C830.964 118.065 830.964 118.065 830.964 118.065C830.964 118.065 830.964 118.065 830.964 118.065C830.964 118.065 830.964 118.065 831.379 117.787C831.795 117.508 831.795 117.508 831.795 117.508C831.795 117.508 831.794 117.508 831.794 117.508C831.794 117.507 831.794 117.507 831.793 117.506C831.792 117.505 831.791 117.503 831.79 117.501C831.787 117.496 831.783 117.49 831.777 117.482C831.766 117.467 831.751 117.444 831.731 117.415C831.69 117.358 831.63 117.275 831.552 117.17C831.396 116.96 831.165 116.663 830.864 116.307C830.262 115.597 829.375 114.65 828.235 113.702C825.96 111.811 822.636 109.887 818.524 109.887V110.887ZM831.379 117.787C831.782 118.083 831.782 118.083 831.782 118.083C831.782 118.083 831.782 118.083 831.782 118.083C831.782 118.083 831.782 118.083 831.783 118.082C831.783 118.082 831.784 118.081 831.785 118.08C831.787 118.077 831.79 118.072 831.795 118.066C831.804 118.053 831.819 118.034 831.839 118.009C831.878 117.958 831.938 117.881 832.017 117.784C832.176 117.588 832.413 117.306 832.722 116.967C833.342 116.289 834.249 115.384 835.397 114.479C837.7 112.665 840.928 110.887 844.723 110.887V109.887C840.614 109.887 837.171 111.808 834.778 113.694C833.578 114.639 832.631 115.584 831.984 116.293C831.66 116.648 831.41 116.944 831.24 117.154C831.156 117.258 831.091 117.341 831.046 117.398C831.024 117.427 831.007 117.449 830.996 117.465C830.99 117.473 830.985 117.479 830.982 117.483C830.981 117.485 830.979 117.487 830.978 117.488C830.978 117.489 830.978 117.489 830.977 117.49C830.977 117.49 830.977 117.49 830.977 117.49C830.977 117.49 830.977 117.49 831.379 117.787ZM844.723 110.887C848.489 110.887 851.454 112.881 853.505 114.927C854.527 115.947 855.309 116.968 855.836 117.735C856.099 118.117 856.298 118.435 856.43 118.656C856.496 118.767 856.545 118.853 856.578 118.91C856.594 118.939 856.606 118.961 856.614 118.975C856.617 118.982 856.62 118.987 856.622 118.99C856.623 118.992 856.623 118.993 856.624 118.994C856.624 118.994 856.624 118.994 856.624 118.994C856.624 118.994 856.624 118.994 856.624 118.994C856.624 118.994 856.624 118.994 857.065 118.76C857.507 118.525 857.507 118.525 857.507 118.525C857.507 118.525 857.507 118.525 857.507 118.524C857.506 118.524 857.506 118.523 857.506 118.523C857.505 118.521 857.504 118.519 857.503 118.517C857.5 118.512 857.496 118.505 857.491 118.496C857.482 118.479 857.468 118.453 857.45 118.421C857.413 118.356 857.359 118.262 857.288 118.143C857.147 117.906 856.937 117.57 856.66 117.168C856.108 116.365 855.287 115.293 854.211 114.219C852.066 112.079 848.86 109.887 844.723 109.887V110.887ZM857.065 118.76C857.485 119.032 857.485 119.032 857.485 119.032C857.485 119.032 857.485 119.032 857.485 119.032C857.485 119.032 857.485 119.032 857.485 119.032C857.485 119.031 857.486 119.03 857.487 119.028C857.489 119.025 857.493 119.02 857.498 119.012C857.507 118.998 857.522 118.976 857.542 118.947C857.581 118.889 857.641 118.802 857.721 118.691C857.88 118.469 858.118 118.15 858.428 117.765C859.049 116.996 859.957 115.971 861.106 114.946C863.414 112.889 866.635 110.887 870.409 110.887V109.887C866.28 109.887 862.829 112.071 860.441 114.2C859.242 115.269 858.296 116.337 857.65 117.137C857.326 117.538 857.077 117.873 856.908 118.108C856.824 118.226 856.759 118.32 856.715 118.384C856.693 118.416 856.676 118.441 856.665 118.459C856.659 118.467 856.655 118.474 856.652 118.479C856.65 118.481 856.649 118.483 856.648 118.485C856.647 118.485 856.647 118.486 856.647 118.486C856.647 118.486 856.646 118.487 856.646 118.487C856.646 118.487 856.646 118.487 857.065 118.76ZM870.409 110.887C874.187 110.887 877.531 112.892 879.965 114.954C881.175 115.981 882.145 117.008 882.812 117.778C883.145 118.163 883.402 118.484 883.574 118.706C883.661 118.818 883.726 118.904 883.769 118.963C883.791 118.992 883.807 119.014 883.817 119.029C883.822 119.036 883.826 119.041 883.829 119.044C883.83 119.046 883.831 119.047 883.831 119.048C883.831 119.048 883.832 119.049 883.832 119.049C883.832 119.049 883.832 119.049 883.832 119.049C883.832 119.049 883.832 119.049 884.24 118.76C884.648 118.471 884.648 118.471 884.647 118.47C884.647 118.47 884.647 118.47 884.647 118.47C884.647 118.469 884.646 118.469 884.646 118.468C884.645 118.467 884.644 118.465 884.642 118.463C884.639 118.458 884.634 118.451 884.628 118.443C884.615 118.425 884.597 118.4 884.573 118.368C884.526 118.304 884.456 118.211 884.365 118.093C884.182 117.858 883.914 117.524 883.568 117.124C882.876 116.325 881.87 115.259 880.611 114.192C878.105 112.067 874.534 109.887 870.409 109.887V110.887Z" fill="#1E1E1E"/>
</svg>
