<svg viewBox="0 0 146 191" fill="none" xmlns="http://www.w3.org/2000/svg">
<path d="M79.3594 182.346L104.242 182.78C104.531 161.511 143.301 131.562 144.025 85.5522C144.603 46.3428 136.647 24.6402 131.294 14.657C127.099 6.98876 122.759 2.21417 114.802 2.06949C105.833 1.92481 100.191 6.84407 97.5871 22.904C89.4859 76.4371 68.9436 114.2 79.3594 182.346Z" fill="#FBFBFB" stroke="#232323" stroke-width="2.2" stroke-miterlimit="10"/>
<path d="M94.5487 185.963C94.838 162.234 130.281 133.153 133.897 95.101C136.935 63.2705 127.677 32.4528 125.507 24.2059C123.626 16.9717 120.733 11.9077 115.67 11.9077C111.185 11.9077 108.147 15.6695 107.424 24.7846C105.254 49.3809 103.229 88.0115 100.335 114.633C97.1527 143.136 90.7874 177.86 80.9502 189.29" fill="#FBFBFB"/>
<path d="M94.5487 185.963C94.838 162.234 130.281 133.153 133.897 95.101C136.935 63.2705 127.677 32.4528 125.507 24.2059C123.626 16.9717 120.733 11.9077 115.67 11.9077C111.185 11.9077 108.147 15.6695 107.424 24.7846C105.254 49.3809 103.229 88.0115 100.335 114.633C97.1527 143.136 90.7874 177.86 80.9502 189.29" stroke="#232323" stroke-width="2.2" stroke-miterlimit="10"/>
<path d="M66.3397 182.346L41.4573 182.635C41.168 161.367 2.39784 131.417 1.81918 85.4075C1.24052 46.1982 9.19707 24.4956 14.5497 14.5124C18.745 6.84415 23.0849 2.06958 31.0415 1.9249C40.0107 1.78021 45.6526 6.69947 48.2566 22.9041C56.3578 76.4371 76.7556 114.2 66.3397 182.346Z" fill="#FBFBFB" stroke="#232323" stroke-width="2.2" stroke-miterlimit="10"/>
<path d="M51.1495 185.964C50.8602 162.235 15.562 133.154 11.8007 95.102C8.76277 63.2715 18.0213 32.4539 20.1913 24.2069C22.0719 16.9727 24.9652 11.9088 30.0285 11.9088C34.5131 11.9088 37.551 15.6705 38.2744 24.7856C40.2997 49.3819 42.325 88.0125 45.363 114.634C48.5456 143.137 54.7661 177.861 64.6033 189.291" fill="#FBFBFB"/>
<path d="M51.1495 185.964C50.8602 162.235 15.562 133.154 11.8007 95.102C8.76277 63.2715 18.0213 32.4539 20.1913 24.2069C22.0719 16.9727 24.9652 11.9088 30.0285 11.9088C34.5131 11.9088 37.551 15.6705 38.2744 24.7856C40.2997 49.3819 42.325 88.0125 45.363 114.634C48.5456 143.137 54.7661 177.861 64.6033 189.291" stroke="#232323" stroke-width="2.2" stroke-miterlimit="10"/>
</svg>
