<svg width="596" height="159" viewBox="0 0 596 159" fill="none" xmlns="http://www.w3.org/2000/svg">
<path d="M0.677246 96.7656V96.9828C3.73556 96.9828 5.51596 98.8438 5.51596 101.871H5.81993C5.81993 98.819 7.68097 96.9828 10.6772 96.9828V96.7656C7.64995 96.7656 5.81993 94.9046 5.81993 91.8711H5.51596C5.51596 94.9108 3.73556 96.7656 0.677246 96.7656Z" fill="#1F1F1F"/>
<path d="M271.856 118.335C271.856 118.335 262.156 73.8933 308.155 53.4398C366.207 27.6276 420.607 82.6804 397.103 103.047C373.6 123.414 331.865 36.4537 374.435 9.87102" stroke="#232323" stroke-width="2"/>
<path d="M594.677 145.618V146.139C587.337 146.139 583.064 150.606 583.064 157.871H582.335C582.335 150.546 577.868 146.139 570.677 146.139V145.618C577.943 145.618 582.335 141.151 582.335 133.871H583.064C583.064 141.166 587.337 145.618 594.677 145.618Z" stroke="#1F1F1F" stroke-width="2" stroke-miterlimit="10"/>
<circle cx="64.6772" cy="4.87109" r="4" fill="#232323"/>
</svg>
